<?xml version="1.0" encoding="UTF-8"?>
<svg id="Layer_2" data-name="Layer 2" xmlns="http://www.w3.org/2000/svg" viewBox="0 0 62.49 35.7">
  <defs>
    <style>
      .cls-1 {
        fill: #1e1e1e;
      }
    </style>
  </defs>
  <g id="Layer_1-2" data-name="Layer 1">
    <g>
      <path class="cls-1" d="M60.25,20.68c-.45-1.59-.79-3.6-1.14-5.73-.55-3.33-1.12-6.77-2.22-8.91-1.59-3.09-10.18-4.79-13.06-5.14l-.49-.06C39.46.36,35.81-.09,31.94.01c-5.34.14-10.25.66-14.35,1.15-3.04.36-11.23,2.47-12.54,5.31-.57,1.23-.98,2.47-1.17,3.57l-1.86,10.5c-1.21.66-1.83,1.55-1.85,2.64,0,.55-.06,1.04-.1,1.48-.18,1.84-.3,3.05,2.53,4.97,2.65,1.8,5.65,2.78,8.23,3.51l.25.07c1.81.51,3.53,1,5.4,1.31,4.41.74,10.15,1.18,15.9,1.18,6.55,0,13.11-.57,17.71-1.89l5.38-1.55c2.26-.65,4.19-1.76,5.75-3.29.3-.29,1.26-1.32,1.27-2.26.01-1.33-.38-5.24-2.25-6.03ZM2.5,25.01c2.31,3.19,5.96,4.39,8.89,5.07.76.18,1.51.37,2.26.55,1.79.45,3.65.91,5.56,1.2,8.24,1.25,15.04,1.29,24.23.15,4.44-.55,8.34-1.53,11.89-2.99,1.18-.49,2.36-1.22,3.51-2.17,1.28-1.06,1.69-2.36,1.83-4.06.58,1.25.65,2.49.68,3.75.04,1.84-4.17,4-5.85,4.55-8.22,2.68-14.34,3.61-23.39,3.56-7.96-.05-14.87-.58-22.73-3.03-2.55-.8-4.75-1.85-6.74-3.22-1.68-1.16-1.62-1.96-1.52-3.17.02-.26.04-.54.05-.84.02-.96.08-1.76.65-2.33-.07,1.18.04,2.11.66,2.97ZM49.5,11.35c-3.95,1.01-8.05,1.62-12.52,1.89-.46.03-.91.06-1.37.09-1.85.13-3.6.24-5.53.13l-3.6-.21c-4.95-.28-9.06-.81-12.93-1.65-2.12-.46-4.37-1-6.56-2.05-.6-.29-1.07-.8-1.23-1.35-.12-.39-.07-.77.14-1.12,1.53-2.55,7.9-4.31,11.57-4.82,5.34-.74,10.54-1.06,15.39-1.33.75.06,1.51.12,2.29.17,6.57.48,14.01,1.02,19.56,4.2.75.43,1.59,1.24,1.52,2.13-.17,2.09-5.19,3.53-6.73,3.92ZM41.33,13.8l6.65-.97c.5-.14,1-.28,1.51-.41,2.66-.71,5.4-1.44,7.32-3.72.37,1.48.61,2.93.84,4.34.16.94.32,1.91.52,2.88l1.29,6.34c.25,1.2.05,2.15-.62,2.97-.94,1.16-2.16,2.05-3.72,2.74-6.52,2.87-15.14,3.39-21.43,3.77-3.26.2-6.33-.07-9.57-.35-3.19-.28-6.38-.84-10.64-1.88l-3.34-.81c-2.52-.61-4.78-1.96-6.52-3.89-1.02-1.12-.92-2.17-.65-3.64l1.43-7.93c.26-1.42.52-2.83.92-4.38.9,1.04,1.74,1.86,3.05,2.32,6.93,2.44,14.08,2.93,20.77,3.1,3.91.3,7.9.15,12.19-.48Z"/>
      <path class="cls-1" d="M40.55,18.64l-.02-.07-4.19-.43c-3.41-.35-6.67.52-9.41,2.52-.57.42-1.01,1.24-1.19,1.87-.39,1.39-1.26,1.78-2.02,2.13-.63.28-1.23.55-1.41,1.33l-.04.18.18-.05c.51-.16.93-.34,1.31-.51,1.07-.47,1.85-.81,3.48-.07,1.28.58,2.62.87,3.92.87,2.33,0,4.56-.9,6.24-2.61.59-.6,3.39-4.1,3.17-5.15ZM26.64,22.54c.02-.05.04-.1.06-.15.17-.42.38-.79.71-1.09.68-.63,1.59-1.08,2.45-1.42.93-.38,1.91-.65,2.9-.81s1.92-.19,2.87-.15c1.08.04,2.16.2,3.23.33.13.02.25.03.38.05-1.69.62-3.37,1.27-5.06,1.9-.85.32-1.71.64-2.57.95s-1.74.53-2.61.8c-.49.15-.97.3-1.46.44-.24.07-.48.15-.72.21-.22.06-.47.19-.71.16-.02-.19.21-.47.29-.64.09-.19.16-.38.23-.57ZM37.4,22.54c-.49.58-1.03,1.13-1.65,1.56-.82.58-1.81.97-2.78,1.22-1.03.27-2.1.3-3.15.13s-2.08-.59-3.1-.97c-.1-.04-.24-.07-.31-.15.28-.23.81-.25,1.15-.35.46-.13.92-.27,1.38-.4.89-.26,1.8-.49,2.67-.81s1.76-.67,2.65-1.01,1.76-.62,2.58-1.04c.91-.46,1.81-.92,2.72-1.37-.45.95-1.11,1.86-1.76,2.69-.13.17-.26.33-.4.49Z"/>
      <path class="cls-1" d="M48.74,4.16c-4.81-1.34-9.94-1.93-16.14-1.85-5.99.07-16.02.2-22.41,3.34-.56.28-1.01.8-1.14,1.32-.09.38-.01.74.22,1.03.53.65,1.46,1.21,2.58,1.54l.21.06c2.03.6,3.94,1.16,6.05,1.45,3.74.51,7.51.77,11.47.77,2.92,0,5.95-.14,9.16-.41l.65-.05c3.99-.33,10.02-.84,12.99-3.05.44-.33.78-.98.74-1.41-.15-1.4-3.12-2.37-4.38-2.73ZM51.88,7.44c-2.53,2.06-7.53,2.51-11.18,2.84-.37.03-.72.06-1.05.1-8.68.82-15.9.67-22.71-.49-2.07-.35-6.69-1.49-6.97-2.58-.18-.69,1.97-1.58,3.87-2.12,4.61-1.33,10.79-2.01,18.37-2.01h.04c5.87,0,10.61.48,14.92,1.5,1.3.31,4.72,1.31,4.96,2.25.05.18-.03.35-.24.52Z"/>
    </g>
  </g>
</svg>