<svg viewBox="0 0 208 208" fill="none" xmlns="http://www.w3.org/2000/svg" preserveAspectRatio="xMidYMid meet">
<path d="M71.2953 61.3256C72.335 62.3653 73.3747 63.405 74.4144 64.4617C76.0677 66.1662 77.8744 67.4104 79.8004 68.2796C80.1242 68.433 80.4821 68.5182 80.7889 68.7228C81.1979 68.9955 81.59 69.0466 82.0161 69.0296C83.3114 68.9784 84.6238 69.2682 85.9192 69.8306C87.1634 70.3761 88.3565 71.1772 89.5496 71.9782C89.6519 72.0464 89.7201 72.2168 89.7882 72.3361C89.6348 72.5236 89.4644 72.4725 89.294 72.4384C88.0157 72.1827 86.7714 72.2509 85.5443 72.3873C84.3512 72.5066 83.158 72.66 81.982 72.7963C81.8968 72.8134 81.8115 72.8134 81.7434 72.8475C81.5048 72.9327 81.2832 73.3758 81.3173 73.6997C81.3514 74.0065 81.5388 74.194 81.7434 74.3133C81.8968 74.4155 82.0673 74.5348 82.2207 74.6201C83.9762 75.5745 85.7317 76.546 87.4873 77.4834C88.1009 77.8073 88.7486 77.9948 89.3792 77.9266C90.2825 77.8414 91.2199 77.9607 92.1403 78.063C93.2311 78.1823 94.3219 78.1652 95.3616 77.9266C96.3161 77.705 97.3047 77.6369 98.3274 77.7903C98.9239 77.8755 99.3841 78.1312 99.8443 78.6254C101.293 80.1424 102.64 81.8297 104.02 83.4489C104.531 84.0454 104.992 84.6931 105.452 85.3408C105.537 85.4601 105.622 85.6306 105.639 85.7669C105.639 85.9374 105.503 85.9885 105.384 85.9714C105.094 85.9544 104.787 85.9544 104.497 85.8862C102.435 85.4772 100.339 84.9488 98.3274 83.9943C96.4184 83.091 94.4924 82.4092 92.6005 81.4888C92.1062 81.2502 91.5949 81.0798 91.1006 80.9946C90.2313 80.8241 89.4303 81.0116 88.7996 81.6763C88.0497 82.4604 87.9645 83.4489 88.527 84.6931C89.0213 85.7669 89.686 86.6532 90.4871 87.352C92.5153 89.0905 94.6117 90.42 96.9297 90.3688C97.0149 90.3688 97.1002 90.3859 97.1854 90.3859C97.8672 90.3689 98.3785 90.7438 98.8216 91.5449C99.6568 93.0277 100.662 94.3231 101.821 95.3628C102.742 96.1979 103.679 97.016 104.6 97.8512C105.384 98.5671 106.202 99.1466 107.088 99.5045C107.497 99.6579 107.923 99.8795 108.315 100.152C110.804 101.822 113.36 102.896 116.002 103.391C116.888 103.561 117.775 103.749 118.644 104.192C120.297 105.044 121.712 106.305 122.598 108.47C123.024 109.492 123.484 110.498 123.911 111.538C126.092 116.77 127.967 122.156 129.791 127.559C129.859 127.747 129.978 127.968 129.723 128.139C129.16 127.661 128.768 126.946 128.325 126.298C124.03 120.111 119.564 114.128 115.014 108.265C113.872 106.799 112.679 105.453 111.349 104.328C110.088 103.254 108.775 102.419 107.378 101.942C106.781 101.737 106.202 101.618 105.622 101.737C104.804 101.908 104.446 102.419 104.429 103.527C104.412 104.43 104.634 105.282 104.94 106.135C106.031 109.22 107.719 111.742 109.764 113.89C111.843 116.071 113.991 118.151 116.224 120.026C117.127 120.793 118.03 121.56 118.917 122.361C120.74 124.031 122.632 125.429 124.609 126.639C125.53 127.201 126.45 127.798 127.354 128.445C129.126 129.707 130.507 131.565 131.751 133.644C131.853 133.831 131.99 134.036 132.024 134.24C132.143 135.195 132.603 136.047 132.808 136.968C133.455 139.865 133.95 142.797 134.342 145.711C134.665 148.131 134.955 150.569 135.228 152.989C135.313 153.739 135.586 154.387 135.807 155.068C135.842 155.188 136.029 155.307 136.131 155.324C136.234 155.324 136.37 155.239 136.421 155.12C136.591 154.779 136.353 154.199 136.711 153.978C137.052 153.773 137.086 153.364 137.171 152.955C137.358 152.086 137.495 151.199 137.733 150.381C138.262 148.558 138.023 146.7 137.393 144.757C136.506 142.047 135.671 139.32 134.819 136.593C134.444 135.417 134.188 134.223 134.171 132.979C134.171 131.667 134.069 130.337 134.069 129.042C134.035 125.821 134.239 122.65 134.325 119.446C134.563 110.822 134.785 102.197 134.989 93.5732C135.023 92.3801 135.006 91.1699 134.989 89.9768C134.955 87.9997 134.7 86.0055 134.137 84.0454C133.881 83.1762 133.558 82.341 133.08 81.6252C132.296 80.4491 131.325 80.1764 130.456 80.8923C130.166 81.1309 129.91 81.4718 129.672 81.7956C129.245 82.4092 128.939 83.1251 128.717 83.9091C128.103 85.9374 127.507 87.9827 127.064 90.1132C126.229 94.0845 125.854 98.2262 125.99 102.538C126.109 106.288 126.604 110.038 127.371 113.77C127.507 114.401 127.694 115.049 127.711 115.713C127.575 115.662 127.456 115.645 127.422 115.577C126.944 114.452 126.365 113.361 126.024 112.202C125.393 110.004 124.746 107.788 124.303 105.538C123.791 102.964 123.263 100.374 122.82 97.783C122.615 96.5559 122.479 95.3628 122.513 94.1526C122.547 92.738 122.411 91.3063 122.257 89.8746C122.07 88.102 121.661 86.3464 121.422 84.5909C121.167 82.699 120.706 80.8582 120.161 79.0345C119.939 78.3357 119.684 77.6539 119.479 76.9551C118.678 74.211 117.758 71.518 116.701 68.8762C115.576 66.0809 114.383 63.3368 112.832 60.8484C112.065 59.6042 111.179 58.4792 110.241 57.4736C109.355 56.5021 108.383 56.1101 107.344 56.4169C106.696 56.6214 106.526 57.0646 106.798 57.985C107.037 58.8542 107.446 59.6382 107.872 60.4052C108.912 62.3142 109.576 64.3595 110.02 66.5241C110.94 71.0238 111.929 75.5063 112.9 80.006C113.036 80.6025 113.173 81.2161 113.36 81.7956C113.923 83.5 114.485 85.2044 115.116 86.8577C116.121 89.5166 117.127 92.2096 118.797 94.3742C119.684 95.5332 120.348 96.8115 120.706 98.3284C120.894 99.0954 121.115 99.8454 121.303 100.595C121.337 100.749 121.371 100.97 121.218 100.97C121.115 100.97 120.979 100.868 120.894 100.749C120.059 99.5727 119.241 98.3796 118.422 97.2036C117.621 96.0616 116.854 94.9196 116.036 93.7947C114.962 92.3289 114.076 90.7097 113.224 89.0394C112.934 88.4428 112.713 87.8122 112.576 87.1475C112.235 85.5624 111.843 83.9773 111.332 82.4263C110.804 80.773 110.241 79.1368 109.73 77.4664C108.69 74.1258 107.412 70.9555 105.793 67.9387C104.906 66.3025 104.071 64.6322 103.202 62.9789C102.213 61.087 101.242 59.161 100.236 57.2861C99.3159 55.5647 98.1399 54.1841 96.7934 53.0762C96.4014 52.7524 95.9923 52.4968 95.6003 52.8376C95.2253 53.1615 95.1913 53.6728 95.2594 54.2523C95.2765 54.4228 95.3106 54.5761 95.3447 54.7466C95.5662 55.667 95.7537 56.6214 96.0264 57.5248C96.5377 59.1951 96.9297 60.8825 97.3388 62.5698C97.7478 64.3083 98.174 66.0639 98.6512 67.7853C99.1966 69.7284 99.9295 71.6032 100.935 73.3076C102.401 75.779 103.713 78.4039 105.622 80.398C106.509 81.8127 107.616 82.7842 108.861 83.5C109.474 83.858 110.02 84.3693 110.548 84.9488C110.804 85.2385 110.974 85.5453 111.076 85.9374C111.332 86.9771 111.605 87.9997 111.86 89.0394C111.912 89.278 111.758 89.4484 111.571 89.3803C111.059 89.1587 110.633 88.7667 110.224 88.2724C108.503 86.2442 106.764 84.2671 104.923 82.4604C103.372 80.9605 102.06 79.1708 100.918 77.1937C99.1454 74.1258 97.424 71.0408 95.6855 67.9387C95.0379 66.7968 94.4924 65.5867 93.9811 64.3424C93.555 63.2516 93.0778 62.1949 92.6005 61.1381C91.8165 59.4678 90.8449 58.002 89.5837 56.8771C89.1405 56.468 88.6804 56.1101 88.169 55.9397C87.4191 55.701 86.9589 56.1442 86.976 57.1328C86.993 57.7975 87.1294 58.4452 87.3339 59.0928C88.5099 62.7062 90.1632 65.9616 92.2767 68.8932C93.2653 70.2738 94.1856 71.7055 95.1401 73.1202C95.106 73.2054 95.0548 73.2736 95.0207 73.3588C94.356 73.069 93.7084 72.6941 93.0437 72.5066C92.1574 72.2509 91.5949 71.4839 91.0324 70.5976C90.7427 70.1374 90.862 69.575 90.5382 69.217C90.2314 68.8762 89.8223 68.9443 89.4814 68.5523C88.6633 67.5979 87.6747 67.0354 86.7032 66.473C86.1408 66.1321 85.5613 65.8253 85.0329 65.3992C83.6353 64.2743 82.1695 63.5413 80.6526 63.0471C78.2152 62.246 75.9995 60.6609 73.9542 58.5133C73.46 58.002 72.9486 57.5077 72.4372 57.0135C72.0282 56.6214 71.568 56.4169 71.0908 56.3828C70.2386 56.3147 69.8125 56.9964 70.0341 58.1043C70.1193 58.5474 70.3238 58.9906 70.3409 59.3996C70.4261 60.32 70.8011 60.8314 71.2953 61.3256ZM131.461 81.8638C131.478 81.7786 131.563 81.7104 131.632 81.7104C132.16 81.6934 132.518 82.1365 132.808 82.699C133.234 83.5853 133.609 84.5056 133.558 85.5453C133.472 85.3579 133.37 85.1533 133.285 84.9659C132.842 83.8921 132.382 82.8183 131.529 82.1536C131.478 82.1024 131.444 81.932 131.461 81.8638ZM132.262 107.311C132.177 109.203 131.99 111.06 131.836 112.918C131.819 113.225 131.751 113.532 131.717 113.839C131.563 106.663 132.058 99.6579 131.99 92.4312C132.382 92.7891 132.33 93.1129 132.33 93.4197C132.586 98.1239 132.467 102.726 132.262 107.311ZM132.774 120.537C132.501 118.85 132.825 113.685 133.37 111.129C133.575 112.373 133.421 113.327 133.387 114.282C133.336 115.356 133.251 116.412 133.166 117.486C133.063 118.475 133.063 119.497 132.774 120.537ZM128.819 116.327C128.649 115.236 128.461 114.128 128.342 113.02C127.797 108.095 127.677 103.237 127.882 98.4137C127.933 97.391 128.052 96.4025 128.223 95.4139C128.513 93.7095 128.734 91.971 128.956 90.2495C129.143 88.7837 129.314 87.3009 129.654 85.9033C129.791 85.3067 129.944 84.6931 130.234 84.2159C130.302 84.1136 130.421 83.9773 130.524 83.9943C130.745 84.0284 130.762 84.3011 130.762 84.5057C130.865 85.8862 130.984 87.2668 131.035 88.6303C131.274 94.289 131.086 99.8624 130.865 105.419C130.677 110.055 130.524 114.708 130.643 119.429C130.643 119.583 130.592 119.719 130.507 120.213C130.132 118.577 130.064 117.316 129.978 116.071C129.808 113.753 129.654 111.452 129.535 109.134C129.433 107.038 129.45 104.976 129.654 102.964C129.689 102.658 129.689 102.317 129.654 101.993C129.637 101.891 129.484 101.754 129.382 101.669C129.245 101.567 129.126 101.635 129.041 101.737C128.802 102.044 128.819 102.521 128.785 102.93C128.581 105.282 128.598 107.686 128.734 110.106C128.836 111.913 128.99 113.736 129.126 115.56C129.143 115.833 129.126 116.088 129.126 116.361C129.126 116.395 129.075 116.463 129.041 116.446C128.939 116.412 128.819 116.361 128.819 116.327ZM108.469 107.174C109.236 107.975 110.02 108.777 110.787 109.595C111.519 110.379 112.252 111.163 112.985 111.964C113.139 112.134 113.19 112.339 113.054 112.526C112.934 112.68 112.798 112.765 112.61 112.629C112.491 112.543 112.389 112.441 112.287 112.322C110.974 110.873 109.713 109.339 108.537 107.686C108.435 107.566 108.366 107.413 108.469 107.174ZM115.508 112.151C115.661 112.441 115.849 112.697 116.036 112.952C116.718 113.873 117.417 114.793 118.116 115.713C117.877 116.02 117.758 115.748 117.638 115.611C114.553 112.322 111.485 109.015 108.4 105.743C107.838 105.146 107.258 104.601 106.662 104.055C106.338 103.749 105.98 103.476 105.588 103.629C105.554 103.646 105.418 103.527 105.418 103.476C105.401 103.391 105.435 103.254 105.486 103.186C105.656 102.947 105.895 102.896 106.151 102.862C106.918 102.794 107.668 103.033 108.4 103.425C109.764 104.141 111.025 105.129 112.218 106.339C113.428 107.549 115.44 110.072 116.769 112.049C116.292 111.776 116.07 111.606 115.849 111.521C115.764 111.487 115.61 111.589 115.559 111.708C115.474 111.81 115.457 112.032 115.508 112.151ZM121.627 121.645C120.757 121.219 120.757 121.219 120.127 120.196C120.74 120.605 121.166 121.014 121.627 121.645ZM116.565 84.9659C117.076 86.4487 117.604 87.9145 118.133 89.3803C118.201 89.5848 118.286 89.8064 118.218 90.0109C117.979 89.9768 117.843 89.7382 117.707 89.4996C116.82 87.8633 116.002 86.193 115.491 84.3352C114.741 81.6423 113.923 78.9663 113.139 76.2733C112.849 75.2677 112.559 74.2621 112.474 73.2054C112.866 73.3077 112.951 73.6656 113.071 73.9553C113.48 74.995 113.889 76.0347 114.298 77.0573C114.4 77.313 114.536 77.5516 114.673 77.7903C114.792 77.9948 114.979 78.0459 115.133 77.9607C115.303 77.8755 115.371 77.6709 115.303 77.4494C115.218 77.1255 115.082 76.8187 114.962 76.5119C113.752 73.3417 112.525 70.1715 111.349 66.9843C110.991 65.9957 110.821 64.939 110.565 63.8823C110.974 63.7289 110.957 64.2401 111.127 64.4447C111.4 64.8026 111.622 64.9049 111.792 64.7003C111.946 64.4958 111.946 64.2231 111.826 63.9504C111.605 63.4391 111.366 62.9448 111.11 62.4676C110.531 61.3427 109.951 60.2348 109.372 59.1099C109.287 58.9224 109.116 58.752 109.202 58.5133C109.423 58.36 109.594 58.5815 109.781 58.7179C110.889 59.6553 111.809 60.8825 112.627 62.2289C113.906 64.3083 114.945 66.5752 115.832 68.9273C116.957 71.893 118.013 74.9098 118.934 77.9607C120.297 82.5456 121.252 87.1986 121.473 91.9199C121.473 92.0051 121.405 92.0903 121.354 92.1926C121.03 91.7835 121.03 91.2551 120.928 90.7949C120.468 88.5451 119.99 86.2953 119.581 84.0454C118.78 79.5969 117.4 75.37 115.627 71.2623C115.031 69.8818 114.451 68.5012 113.838 67.1377C113.531 66.4389 113.377 66.3707 112.764 66.4559C112.355 66.507 112.218 66.7968 112.406 67.3592C112.542 67.7853 112.73 68.1944 112.9 68.6035C113.838 70.8533 114.792 73.1031 115.695 75.37C116.803 78.1141 117.638 80.9605 118.286 83.875C118.627 85.4601 118.968 87.0452 119.309 88.6303C119.394 89.0053 119.513 89.3973 119.445 89.7723C119.104 89.8234 119.002 89.4144 118.9 89.1417C118.388 87.727 117.894 86.2953 117.383 84.8806C117.178 84.3011 116.974 83.7216 116.718 83.1592C116.633 82.9546 116.445 82.9035 116.275 82.9717C116.138 83.0228 116.087 83.2103 116.121 83.3467C116.275 83.8921 116.377 84.4545 116.565 84.9659ZM100.27 63.1153C100.458 63.2346 100.56 63.6777 100.696 63.9845C101.361 65.5696 102.009 67.1718 102.674 68.7569C103.594 70.9556 104.651 73.069 105.81 75.0973C106.696 76.6483 107.548 78.2505 108.417 79.8185C108.605 80.1424 108.792 80.4662 108.895 81.1991C107.412 79.6651 106.44 78.0289 105.605 76.3074C104.344 73.7338 103.083 71.1771 102.077 68.4501C101.804 67.7172 101.48 67.0184 101.174 66.3025C101.088 66.098 100.986 65.9105 100.867 65.7401C100.731 65.5526 100.543 65.5014 100.407 65.6378C100.321 65.723 100.253 65.9105 100.287 66.0298C100.373 66.4048 100.492 66.7797 100.645 67.1377C101.583 69.3193 102.333 71.6203 103.458 73.6997C103.526 73.819 103.509 74.0065 103.543 74.211C102.81 73.3417 101.446 70.6658 100.628 68.5694C99.4864 65.6208 97.9524 60.1496 97.8501 58.5133C98.5319 59.3315 98.8557 60.2689 99.2307 61.1722C99.4863 61.8881 99.6057 62.6892 100.27 63.1153ZM109.27 78.6084C109.355 78.864 109.389 79.1367 109.474 79.5287C109.082 79.3242 108.963 79.0856 108.827 78.847C107.719 76.8358 106.628 74.8246 105.52 72.8304C104.208 70.4954 103.185 67.9728 102.179 65.4503C101.804 64.5299 101.429 63.5925 101.054 62.6721C100.935 62.3653 100.799 62.0244 100.611 61.7858C99.6909 60.6609 99.3159 59.144 98.6 57.8657C98.5489 57.7804 98.583 57.5077 98.6512 57.4566C98.7364 57.3884 98.9069 57.4395 99.0091 57.5077C99.1625 57.627 99.2989 57.7804 99.4011 57.9679C100.134 59.161 100.918 60.337 101.566 61.5983C103.168 64.7174 104.685 67.9047 106.27 71.0408C107.463 73.4611 108.366 76.0347 109.27 78.6084ZM116.513 98.7375C115.423 98.141 114.315 97.5785 113.224 96.9138C110.736 95.3798 108.4 93.3856 106.134 91.2551C106.031 91.1529 105.912 91.0336 105.844 90.8972C105.759 90.7438 105.759 90.5393 105.895 90.5222C106.338 90.454 106.798 90.437 107.378 90.3859C107.361 90.3859 107.497 90.3859 107.599 90.3177C108.281 89.9086 108.963 90.2154 109.645 90.7438C110.173 91.1699 110.735 91.5619 111.247 92.0392C113.088 93.7265 114.741 95.7548 116.343 97.8512C116.462 98.0216 116.582 98.1921 116.684 98.3967C116.718 98.4648 116.735 98.6182 116.701 98.6864C116.684 98.7205 116.582 98.7716 116.513 98.7375ZM96.6059 84.4375C96.4866 84.9829 96.2138 85.409 96.1286 86.0055C96.0264 86.8236 95.8389 86.9089 95.1401 86.5339C94.2538 86.0567 93.3675 85.4942 92.4812 84.9659C92.2085 84.7954 91.9187 84.625 91.629 84.5057C91.4585 84.4375 91.2881 84.5227 91.237 84.7443C91.1859 84.9488 91.237 85.2045 91.3904 85.3408C91.646 85.5794 91.9188 85.784 92.1915 85.9544C93.5039 86.8066 94.8162 87.6077 96.3332 88.1702C95.9241 88.6644 95.4128 88.1701 95.1742 88.4428C94.6458 89.0564 94.1004 88.6133 93.538 88.3235C92.5153 87.7781 91.5267 87.1134 90.6404 86.193C90.1121 85.6476 89.6178 85.034 89.2428 84.2841C88.9019 83.5682 88.9701 82.9887 89.3962 82.5626C89.7541 82.2217 90.1462 82.0343 90.6234 82.0343C91.0836 82.0513 91.5438 82.1365 92.004 82.341C93.2482 82.8524 94.4924 83.3807 95.7366 83.8921C96.0605 84.0114 96.3673 84.0966 96.6059 84.4375ZM99.0773 86.3464C100.322 87.1475 101.498 88.0849 102.64 89.1758C104.344 90.812 106.065 92.4312 107.821 93.9993C110.207 96.1468 112.713 97.9194 115.354 99.2489C115.883 99.5045 116.445 99.709 116.854 100.306C116.718 100.493 116.565 100.51 116.394 100.442C115.9 100.254 115.389 100.05 114.894 99.8454C114.144 99.5216 113.411 99.1295 112.661 98.8739C111.519 98.4818 110.446 97.8171 109.406 96.9649C108.264 96.0275 107.139 95.073 105.997 94.1356C105.23 93.505 104.548 92.738 103.901 91.8858C103.577 91.4426 103.253 91.3915 103.134 91.6642C102.997 92.0051 103.151 92.2948 103.338 92.5675C104.003 93.5561 104.787 94.3572 105.622 95.056C106.832 96.0616 108.042 97.0672 109.253 98.0898C110.088 98.7887 110.974 99.317 111.894 99.7431C111.758 100.135 111.537 99.9647 111.366 99.9306C109.525 99.4534 107.787 98.3796 106.151 97.0161C103.611 94.8855 101.157 92.5846 98.975 89.7894C98.5148 89.2099 98.1228 88.5792 97.7819 87.8804C97.5263 87.3691 97.3899 86.8407 97.3217 86.2782C97.2706 85.8862 97.424 85.6817 97.7308 85.7328C98.2081 85.801 98.6512 86.0737 99.0773 86.3464ZM106.321 87.5906C104.548 88.0167 102.827 87.8804 101.088 86.551C100.969 86.4657 100.867 86.3294 100.935 86.176C100.952 86.1078 101.071 86.0737 101.14 86.0907C101.31 86.1078 101.481 86.1419 101.634 86.2101C102.929 86.6873 104.208 86.977 105.503 87.0793C105.776 87.0964 106.082 87.0282 106.321 87.5906ZM96.1116 70.9044C96.0946 70.8874 96.1457 70.8192 96.1627 70.7681C96.282 70.9556 96.4014 71.126 96.5207 71.2965C96.5377 71.3305 96.5377 71.3987 96.5207 71.4328C96.5207 71.4498 96.4525 71.4498 96.4355 71.4328C96.3332 71.2623 96.2139 71.0749 96.1116 70.9044ZM94.5946 70.3079C92.8391 69.0296 89.1916 62.5187 88.3735 59.161C88.6803 59.1099 88.8167 59.4678 88.9871 59.7235C89.3621 60.2348 89.703 60.7802 90.0779 61.2915C90.2484 61.5301 90.4871 61.5472 90.6404 61.3427C90.7598 61.1893 90.7598 60.9506 90.6404 60.7461C90.453 60.4223 90.2655 60.0814 90.061 59.7746C89.686 59.1951 89.311 58.6156 88.7485 57.7464C89.5155 57.9338 89.8223 58.377 90.1632 58.769C90.7427 59.4337 91.2199 60.2177 91.646 61.0529C92.021 61.7858 92.3619 62.5357 92.6857 63.3027C93.0266 64.1038 93.3505 64.9219 93.6913 65.7912C93.3164 65.8594 93.2482 65.4503 93.1289 65.2458C92.8732 64.8367 92.6857 64.3595 92.4301 63.9504C92.3278 63.78 92.1403 63.6777 91.9699 63.797C91.8165 63.9163 91.7654 64.1379 91.8335 64.3424C91.9528 64.7174 92.0892 65.0753 92.2596 65.4162C92.8903 66.6945 93.538 67.9728 94.1516 69.2512C94.322 69.592 94.5946 69.8818 94.5946 70.3079ZM90.3848 73.7679C91.6461 74.1087 92.9073 74.4667 94.1685 74.8587C94.6969 75.0291 95.2424 75.2166 95.6855 75.7109C95.6685 76.0347 95.498 76.0858 95.3447 76.1199C94.697 76.2392 94.0322 76.2904 93.3505 76.1881C91.9187 75.9665 90.487 75.7279 89.0894 75.9325C88.6974 75.9836 88.2372 75.9324 87.8282 75.779C86.6521 75.3529 85.4931 74.8416 84.3341 74.3473C84.2318 74.2962 84.1125 74.1428 84.0614 74.0235C83.9932 73.8019 84.1637 73.7678 84.266 73.7337C85.2375 73.5292 86.209 73.3758 87.2146 73.3758C88.2713 73.3758 89.328 73.4952 90.3848 73.7679ZM76.3234 64.7003C76.4427 64.6663 76.562 64.564 76.6642 64.5981C78.2664 65.1776 79.8515 65.331 81.4537 65.6719C81.7434 65.7401 82.0502 65.8082 82.3399 65.8764C82.5956 65.9275 82.783 66.115 82.6637 66.4218C82.4251 66.9843 82.9194 67.3081 83.0387 67.8535C80.5162 67.8194 77.7551 66.49 76.3234 64.7003ZM70.9715 58.2747C70.8693 57.8486 71.1078 57.5248 71.4317 57.6611C71.7214 57.7805 72.0111 57.9338 72.2668 58.1383C72.5395 58.3429 72.7952 58.5985 73.0168 58.8713C74.8917 61.104 77.0392 62.5698 79.3061 63.7459C79.4254 63.797 79.5277 63.9163 79.664 64.0356C78.4028 64.0868 77.1244 63.814 76.0506 63.1664C74.9257 62.4846 73.8178 61.7347 72.71 61.0188C71.8237 60.4393 71.2783 59.4678 70.9715 58.2747Z" fill="#28211B"/>
</svg>
