<?xml version="1.0" encoding="UTF-8"?>
<svg id="Layer_2" data-name="Layer 2" xmlns="http://www.w3.org/2000/svg" viewBox="0 0 61.22 50.9">
  <defs>
    <style>
      .cls-1 {
        fill: #1e1e1e;
      }
    </style>
  </defs>
  <g id="Layer_1-2" data-name="Layer 1">
    <g>
      <g>
        <path class="cls-1" d="M60.52,3.71c-.68-1.28-1.87-2.34-3.52-3.15-1.32-.65-2.93-.74-4.41-.25-1.41.47-2.77.99-3.95,2.2-.71.73-1.19,1.42-1.54,2.19-.62,1.38-.76,2.94-.4,4.38.25,1.02.88,1.8,1.76,2.21.26.12.57.14.86.05.63-.19,1.25-.46,1.6-1.13.36-.7.3-1.46-.17-2.2-.25-.4-.29-.87-.11-1.32.27-.67.75-1.25,1.38-1.68,1.01-.69,1.98-.9,3.26-.71,1.11.17,1.83,1.32,1.86,2.3.04,1.42-1.08,2.51-2.07,3.47-.16.15-.31.3-.45.45-1.52,1.54-3.12,3.46-3.45,6.09-.11.89-.22,2.2.14,3.22.12.35.44,1.01.86,1.3.1.07.23.09.31.11l1.01.15s.09,0,.13,0c.3,0,.57-.15.73-.4.23-.37.46-.77.57-1.25.09-.4.09-.81.09-1.21,0-.27,0-.55.03-.82.12-1.12.53-2.1,1.26-2.98.46-.56,1.01-1.11,1.53-1.64,1.19-1.2,2.42-2.44,2.96-4.03.19-.55.31-1.12.37-1.69.14-1.33-.09-2.59-.65-3.65ZM58.03,5.73c-.4-1.48-1.6-2.42-3.3-2.58-.12-.01-.23-.02-.35-.02-1.07,0-2.2.45-3.37,1.36-.83.64-1.63,1.98-1.46,3.2.04.28.17.55.31.82.27.53.5,1-.02,1.49-.24.23-.53.36-.82.34-.28-.01-.53-.15-.74-.38-.6-.7-.76-1.76-.79-2.52,0-.08,0-.15,0-.23,0-.09,0-.17,0-.26.02-.05.06-.16.12-.36.18-.56.5-1.6.83-2.17.65-1.16,1.88-2.17,3.29-2.72,1.17-.45,2.18-.64,3.1-.55.08,0,.17.01.25.02.45.03.87.07,1.26.24.4.18.82.39,1.23.63,1.87,1.08,2.84,3.19,2.53,5.52-.07.55-.22,1.09-.43,1.6-.36.85-1,1.53-1.63,2.19l-.1.1c-.2.21-.4.41-.61.62-1.29,1.32-2.63,2.68-3.12,4.5-.14.51-.16,1.04-.18,1.56-.03.8-.06,1.56-.48,2.22-.07,0-.13-.02-.2-.02-.33-.03-.58-.06-.79-.33-.48-.63-.47-1.61-.42-2.13.01-.13.02-.25.04-.38.1-1.03.18-1.92.63-2.9.66-1.44,1.78-2.56,2.86-3.64.48-.48.98-.98,1.44-1.51.9-1.03,1.25-2.45.91-3.7Z"/>
        <path class="cls-1" d="M53.87,22.93c-.25-.13-.52-.18-.79-.17-.83.05-1.33.42-1.61,1.23-.24.68-.4,1.46.24,2.1.39.39.89.61,1.42.61.28,0,.55-.06.8-.18.77-.35,1.4-1.27,1.12-2.18-.18-.59-.64-1.14-1.18-1.41ZM53.26,23.71s.08,0,.12,0c.09,0,.16,0,.27.06.39.17.63.69.54,1.16-.03.17-.11.31-.22.42-.22.22-.55.35-.88.35h-.05c-.3-.01-.56-.13-.73-.33-.21-.23-.28-.72-.15-.99.22-.45.51-.64,1.02-.66h.09Z"/>
      </g>
      <g>
        <path class="cls-1" d="M36.59,46.03c.56-1.77.59-3.7.09-5.19-.55-1.62-1.72-2.63-2.85-3.6-.64-.55-1.3-1.12-1.86-1.8-.65-.79-1.27-1.68-1.92-2.62-1.99-2.88-4.24-6.14-7.78-6.14-.81,0-1.68.17-2.57.51-2.55.96-3.81,2.74-5.13,4.61-.49.69-.99,1.4-1.57,2.1-.61.73-1.33,1.41-2.09,2.13-1.41,1.34-2.86,2.71-3.57,4.38-1.52,3.58-1.12,6.05,1.44,8.79,1.08,1.15,2.26,1.69,3.71,1.69s2.99-.54,4.6-1.11c1.6-.56,3.25-1.14,4.91-1.2.08,0,.16,0,.24,0,1.64,0,3.08.56,4.48,1.1,1.37.53,2.66,1.03,4.06,1.03.92,0,1.8-.22,2.71-.66,1.41-.69,2.51-2.12,3.12-4.03ZM32.4,49.28c-1.8.56-3.83-.08-5.63-.8-2.77-1.1-5.14-2.01-8.08-.93-2.27.84-4.83,2.19-7.32,1.47-2.3-.67-3.8-2.91-3.62-5.15.22-2.58,2.42-4.88,4.11-6.7.99-1.06,2.03-2.09,2.93-3.23s1.54-2.32,2.5-3.32c1.68-1.74,4.01-3.25,6.29-2.23s4.25,3.92,5.77,5.84c.88,1.12,1.68,2.32,2.66,3.36.92.97,2.08,1.68,2.93,2.71,1.9,2.32,1.27,5.97-.83,7.95-.53.51-1.11.83-1.72,1.02Z"/>
        <path class="cls-1" d="M.34,28.51c.73,2.49,2.49,4.33,4.7,4.94.46.12.84.18,1.16.18.88,0,1.44-.46,2.22-1.35,1.36-1.56,1.5-2.89,1.29-4.8-.33-2.91-1.23-4.7-3.11-6.19-.92-.72-1.78-1.09-2.57-1.09s-1.59.4-2.29,1.18C.11,23.18-.42,25.91.34,28.51ZM3.36,21.83c.28-.09.61-.12.97-.06,3.1.51,4.42,4.79,4.01,7.46-.1.68-.16,1.61-.55,2.19-1.3,1.94-3.65.28-4.72-.94-1.31-1.49-1.88-3.49-1.62-5.45.16-1.22.71-2.81,1.91-3.2Z"/>
        <path class="cls-1" d="M43.63,27.82c.12-1.6-.22-4.49-1.69-5.86-.52-.49-1.13-.73-1.82-.73-.15,0-.3.01-.46.03-2.61.37-4.79,1.91-5.68,4.02-1.24,2.93-1.81,6.9.65,8.44.83.52,1.72.78,2.63.78.78,0,1.56-.19,2.31-.57,2.19-1.1,3.86-3.61,4.06-6.1ZM38.39,33.11c-1.18.21-2.74.37-3.57-.59-2.74-3.2,1.52-10.46,5.37-10.16,2.13.16,2.53,3.1,2.37,4.78-.17,1.81-.82,3.79-2.2,5.03-.55.49-1.25.82-1.98.95Z"/>
        <path class="cls-1" d="M15.28,10.13c-.1,0-.2-.01-.3-.01-.23,0-.45.02-.64.04-2.32.23-3.69,1.43-4.43,3.89-1.28,4.22-.14,9.57,3.99,11.21.66.26,1.29.39,1.89.39.99,0,1.87-.36,2.61-1.07,2.09-2,2.78-6.56,1.53-10.18-.88-2.54-2.53-4.06-4.65-4.27ZM18.45,22.52c-.48.78-1.3,1.74-2.46,1.92-.12.02-.25.03-.37.03-.84,0-1.67-.45-2.54-1.38-1.88-2.02-2.77-4.86-2.33-7.43.03-.2.08-.41.14-.61.49-1.73,1.79-3.49,3.57-3.49.19,0,1.13-.04,1.32,0,2.14.44,2.98,2.68,3.55,4.52.64,2.06.3,4.53-.88,6.43Z"/>
        <path class="cls-1" d="M30.79,9.54c-.09,0-.17,0-.26,0-2.02,0-3.89,1.06-5.26,2.98-1.94,2.72-2.57,6.69-1.49,9.44.55,1.41,2.19,3.5,3.95,3.5.08,0,.16,0,.24-.01,2.16-.24,4.04-1.57,5.31-3.76,1.7-2.93,2.03-6.94.81-9.75-.47-1.06-2-2.35-3.29-2.4ZM32.61,20.64c-.17.34-.35.68-.56.99-1.14,1.74-3.19,3.31-5.27,2.05-1.58-.96-2.28-3.1-2.34-4.85-.05-1.38.46-2.61,1.02-3.84.49-1.07.93-2.23,1.82-3.04,1.94-1.77,4.58-1.2,5.65,1.18s.8,5.22-.32,7.51Z"/>
      </g>
    </g>
  </g>
</svg>