<?xml version="1.0" encoding="UTF-8"?>
<svg id="Layer_2" data-name="Layer 2" xmlns="http://www.w3.org/2000/svg" viewBox="0 0 75.08 36.46">
  <defs>
    <style>
      .cls-1 {
        fill: #1e1e1e;
      }
    </style>
  </defs>
  <g id="Layer_1-2" data-name="Layer 1">
    <path class="cls-1" d="M74.61,18.48c-1.07-.02-2.12-.06-3.17-.09-2.84-.1-5.52-.19-8.3-.04-.55.03-1.1.11-1.63.19-1.71.26-3.32.5-4.57-1.22l-2.16-2.99c-.22-.31-.98-.67-1.33-.68,0,0-.02,0-.03,0-1.01,0-2.13,1.76-3.21,3.47-.69,1.08-1.4,2.2-2.09,2.87l-.1.1-.09-.11c-.53-.68-.96-1.88-1.38-3.03-.65-1.8-1.33-3.67-2.33-3.5-.32.05-.83.61-.94,1.05-.64,2.46-1.13,5.03-1.58,8.32l-1.16,8.44-.19-.25s-.49-.68-.51-1.05l-.85-16.64c-.22-4.32-.42-8.39-1.02-12.68-.02-.18-.23-.41-.48-.55-.17-.09-.28-.1-.33-.08-.22.1-.65.53-.71.75l-1.47,5.43c-.1.38-.24.94-.41,1.62-.93,3.72-2.66,10.64-4.21,11.52l-.03.02h-.04c-.91-.05-1.79-1.26-2.72-2.54-1.11-1.51-2.36-3.23-3.76-3.11-.79.07-1.43.63-2.24,1.35-1.3,1.14-3.07,2.71-6.53,2.91-4.15.24-9.1.38-14.71.4-.07,0-.23.08-.32.13,0,0,0,0,0,0,.06.06.24.24.31.26,4.03.63,11.03.96,15.76.43,2.31-.26,4.28-1.21,6.19-2.99.44-.4,1.12-.84,1.79-1.12l.07-.03.06.04c1.08.75,1.85,1.83,2.59,2.88.94,1.33,1.83,2.58,3.26,3.08.3.1.6.08.9-.08,1.6-.85,2.76-4.98,2.97-5.8l3.02-11.42.08.68c.42,3.78.54,7.25.67,10.92.21,5.9.62,11.5,1.24,17.1l.03.32c.1.94.32,3.15.92,3.62.08.06.17.09.26.08.14-.02.51-.28.55-.45.46-1.81,1.08-4.28,1.34-6.44.08-.69.16-1.37.24-2.05.46-3.95.9-7.69,2.14-11.71l.1-.33,2.22,5.1c.18.4.48.71.83.83.33.12.7.08,1.06-.11.83-.43,1.7-1.81,2.62-3.28.67-1.07,1.37-2.18,2.09-2.95l.1-.11,2.95,3.66c.78.97,2.2,1.5,3.61,1.34,1.97-.21,4.11-.41,6.46-.35,2.51.05,4.89-.14,7.52-.39l1.12-.11c-.12-.22-.28-.42-.47-.63Z"/>
  </g>
</svg>