<?xml version="1.0" encoding="UTF-8"?>
<svg id="Layer_2" data-name="Layer 2" xmlns="http://www.w3.org/2000/svg" viewBox="0 0 45.4 66.12">
  <defs>
    <style>
      .cls-1 {
        fill: #1e1e1e;
      }
    </style>
  </defs>
  <g id="Layer_1-2" data-name="Layer 1">
    <g>
      <path class="cls-1" d="M21.18,7.51c.23.05.48.08.75.08.88,0,1.86-.28,2.35-.85.14-.16.32-.51.28-.78-.02-.12-.08-.21-.17-.26-.1-.06-.19-.08-.26-.04-.13.06-.16.23-.19.41-.02.09-.03.18-.06.25-.26.64-1.19.91-1.93.84-.71-.07-1.55-.36-2.19-.6l-.22-.08.13.2c.36.53,1,.73,1.52.85Z"/>
      <path class="cls-1" d="M21.39,6.07c.22.07.43.1.63.1.18,0,.36-.02.54-.05h.05c.31-.05.49-.07.72-.35.04-.05.09-.1.13-.15.18-.2.39-.43.44-.7.02-.1.05-.17.09-.25.05-.1.1-.21.11-.37.03-.25.02-.5-.01-.75-.07-.54-.25-.91-.56-1.13l-.04-.03c-.22-.16-.5-.37-.79-.4-.23-.02-.55-.05-.78.01-.08.02-.16.07-.23.11-.07.04-.14.08-.22.1-.05.01-.11.02-.16.03-.1.01-.2.02-.3.07-.01,0-.03.01-.04.02-.92.5-1.08,2.07-.73,2.89.2.47.73.72,1.14.85ZM20.96,3.84c.06-.21.15-.38.28-.55.11-.14.28-.25.45-.29.1-.02.2-.03.29-.03.13,0,.25.02.36.04.21.04.41.13.59.27.12.09.21.22.28.39.05.08.07.18.06.34,0,.14-.01.27-.06.39-.09.26-.23.48-.4.67-.05.06-.1.1-.16.14l-.04.04s0,.01-.01.02c-.05.05-.1.09-.18.12-.06.03-.12.05-.19.05,0,0,0,0,0,0h-.02c-.2.04-.39.01-.55-.07h-.03s-.04-.03-.06-.03c-.16-.07-.3-.2-.44-.39-.2-.28-.26-.72-.15-1.09Z"/>
      <path class="cls-1" d="M12.83,35.85s.1.05.25.05c.13,0,.33-.01.63-.05.14-.02.26-.03.35-.03.06,0,.15,0,.28,0,2.37,0,16.43-.05,16.48-.05.01,0,1.38-.03,1.47-.06.05-.02.09-.07.1-.12.03-.09.02-.2-.02-.31l-.02-.05h-.06c-.12,0-.25-.02-.36-.04-.09-.02-.18-.03-.27-.04-.85-.03-1.75-.04-2.54-.04h-.07c-.66,0-1.35,0-2-.03-.1,0-.21,0-.31-.01h-.05c-.17-.01-.51,0-.84,0-.34,0-.75.02-.81,0-.04-.01-.16-.01-.57,0-.26,0-.64.01-.69,0-.05-.02-.19-.02-.79.02-.17.01-.33.02-.38.02-.04,0-.12,0-.23-.01-.46-.03-.7-.05-.77-.02-.12.05-.61.03-.68,0-.06-.04-.27-.04-.34-.01-.12.02-1.96,0-2.17,0-.26,0-.52,0-.77.01h-.03c-.52.02-2-.01-2.07-.02-.38-.02-.79,0-1.18.04-.43.03-.87.07-1.28.04h0s0,0,0,0c-.14.02-.21.15-.24.21-.07.15-.08.35,0,.48v.02Z"/>
      <path class="cls-1" d="M44.45,13.65c.13-1.34.27-2.73-.55-3.88-.6-.84-1.51-1.27-2.85-1.33-.44-.02-.87-.01-1.31-.01-1.38,0-2.81,0-4.2.06-.2,0-.41.03-.63.04-.97.08-2.18.18-2.94-.29-.34-.21-.44-.51-.54-.84-.07-.22-.15-.44-.29-.65-.46-.67-1.36-.93-1.99-.95-.18,0-.41.02-.65.05-.52.06-1.11.13-1.43-.12-.3-.23-.28-.75-.26-1.25,0-.27.02-.53-.02-.74-.31-1.54-1.31-2.77-2.73-3.38-1.41-.61-2.98-.48-4.3.35-1.33.83-2.02,2.21-1.93,3.88.03.53-.06.87-.26,1.06-.29.27-.8.21-1.4.14-.43-.05-.88-.1-1.3-.03-1.19.19-2.23,1.47-2.27,2.75-1.45.26-3,.19-4.5.12-.88-.04-1.79-.08-2.65-.06-.18,0-.38,0-.57.01-1.37.02-2.91.04-3.92,1.03C-.26,10.83-.04,12.74.15,14.42c.07.61.14,1.19.13,1.71,0,.8.02,1.6.04,2.39.02.94.05,1.9.03,2.86-.02,1.3-.02,2.61-.01,3.88,0,2.28.02,4.64-.12,6.97-.14,2.32-.07,4.68,0,6.96.04,1.27.07,2.59.07,3.89,0,1.82-.02,3.68-.03,5.47-.02,1.84-.03,3.75-.03,5.62,0,.9.04,1.81.08,2.69.04.9.08,1.83.08,2.75,0,.43-.04.86-.08,1.32-.1,1.18-.21,2.4.38,3.46.9,1.62,2.22,1.6,3.75,1.57,1.1-.02,2.22-.01,3.31,0h.83c2.03.02,4.09.06,6.08.09,1.61.03,3.28.06,4.92.08.34,0,.68,0,1.03,0,1.82,0,3.65-.05,5.42-.09,1.5-.04,3.04-.08,4.56-.09,1.31,0,2.66.01,3.95.04,1.96.04,3.99.07,5.98,0,1.7-.07,2.97-.43,3.6-1.98.45-1.08.37-2.53.3-3.8-.02-.47-.05-.92-.05-1.33.02-4.1.01-8.27,0-12.29v-2.24c0-3.59.01-7.25.03-10.79.01-2.64.03-5.38.03-8.07,0-1.33-.04-2.7-.08-4.02-.07-2.31-.14-4.69.01-7,.02-.26.04-.53.07-.81ZM43.35,53.26v1.69c.02,1.39,0,2.8-.02,4.17-.01.77-.03,1.53-.03,2.3-.02,2-.41,3.15-2.45,3.49-1.31.22-2.64.09-3.94-.02-.7-.06-1.43-.13-2.15-.14-1.06-.02-2.12.06-3.15.13-1.11.08-2.25.15-3.38.12-2.92-.09-5.89-.08-8.77-.07-1.42,0-2.89,0-4.34,0-.59,0-1.18-.01-1.76-.02-1.61-.02-3.29-.04-4.93.03-.42.02-.86.06-1.32.1-1.58.15-3.21.3-4.52-.41-1.46-.79-1.47-2.62-1.48-4.09v-.14c-.01-1.25.05-2.53.12-3.76.05-.9.09-1.83.11-2.74.08-4.29.17-8.73.07-13.1l-.04-1.81c-.08-3.76-.17-7.64-.1-11.48.07-3.88.13-8.47,0-13.07,0-.12,0-.25-.01-.38-.05-1.45-.11-3.25,1.19-4.08.61-.39,2.49-.5,4.1-.5,1.23,0,2.31.06,2.51.12.7.17,1.43.08,2.13,0,.39-.05.79-.1,1.18-.1.22.98.15,1.64-.21,2.04-.64.69-2.13.48-3.58.27-1.34-.19-2.72-.39-3.55.09-1.46.85-1.37,2.13-1.27,3.48.01.21.03.42.04.63.06,1.3.05,2.63.04,3.92,0,.8-.02,1.63,0,2.44.05,3.86.02,7.77-.09,11.63-.05,1.72,0,3.45.05,5.13.06,2.04.12,4.15,0,6.23-.08,1.5-.06,3.02-.03,4.48.01.76.03,1.55.02,2.33,0,1.08-.05,2.18-.09,3.24-.05,1.16-.09,2.36-.09,3.53v.11s.11-.05.11-.05c.01,0,.02-.01.04-.02,0,.25,0,.51-.02.79-.04.77-.08,1.56.25,2.23.5,1.01,1.53.9,2.44.81.23-.02.45-.05.66-.05,1.62-.05,3.29-.02,4.89,0,1.3.02,2.63.05,3.95.03,7-.1,12.73-.09,18.05,0h.39c1.35.03,2.74.06,4.11-.02,1.04-.06,2.08-.24,2.62-1.08.5-.78.38-1.86.28-2.81-.04-.32-.07-.62-.08-.9-.05-1.31-.03-2.65-.02-3.94v-.23c0-.68.02-1.35.03-2.03.05-4.23.11-8.6-.09-12.81,0-.17,0-.67,0-1.25,0-.83.02-1.85,0-2.27-.07-1.09-.05-2.21-.03-3.29,0-.37.01-.75.01-1.12.02-2.73-.01-12.59-.06-13.86-.02-.42,0-.86.02-1.29.03-.7.05-1.42-.05-2.1-.37-2.34-2.64-2.14-4.46-1.99-.34.03-.66.06-.96.07-1.09.04-2.21,0-3.29-.05-.28-.01-.56-.02-.84-.03.09-.31.04-.63-.01-.95-.07-.42-.13-.82.14-1.14.36-.42,1.07-.35,1.7-.29.19.02.37.04.52.04.92,0,1.84-.05,2.73-.1,1.11-.07,2.25-.15,3.37-.08,1.25.07,2.6.34,3.15,1.8.49,1.3.42,2.78.34,4.21-.03.52-.05,1.02-.05,1.5,0,1.04-.03,2.61-.05,4-.04,2.2-.04,2.7-.02,2.83h0c.07,1.48.13,6.32.17,9.52.01,1.09.02,1.99.03,2.51,0,.26,0,.51,0,.77,0,1.1-.04,2.22-.08,3.3-.02.67-.05,1.37-.07,2.05-.09,3.83-.06,7.73-.03,11.5ZM13.06,15.42s.04.04.06.07c.78.77,2.52.64,3.93.53.48-.04.94-.08,1.28-.06h.07c2.31.07,4.7.13,7.05.04.47-.02.97.02,1.5.06,1.36.1,2.76.2,3.81-.55.47-.34.6-.84.73-1.33.16-.6.29-1.13,1.06-1.27,1.31-.25,2.82-.23,4.27-.22.34,0,.67,0,.98,0,.11,0,.23,0,.36,0,.62-.01,1.47-.03,1.76.37.32.44.26,1.14.21,1.75-.02.21-.03.41-.04.59,0,.64,0,1.29-.02,1.93-.01,1.46-.03,2.97,0,4.45.12,4.6.06,9.28,0,13.81-.06,4.53-.12,9.21,0,13.78.03,1.32.03,2.64.02,3.91,0,.8,0,1.63,0,2.46,0,.59,0,1.19,0,1.78,0,.56-.01,1.13,0,1.69,0,.11,0,.23,0,.34.02.79.04,1.54-.72,1.97-.49.28-1.31.23-2.04.19-.26-.02-.51-.03-.73-.03-.09,0-.17,0-.25,0-.72.05-1.49.01-2.23-.02-.25-.01-.49-.02-.74-.03-1.47-.05-2.87-.02-4.35.01-.62.01-1.24.03-1.87.03-1.89.02-3.8,0-5.66,0-2.43-.01-4.94-.03-7.42.03-1.07.02-2.17-.02-3.23-.06-1.19-.05-2.43-.1-3.64-.05-.25.01-.49.03-.73.06-.3.03-.61.06-.91.06-.07,0-.13,0-.2,0-.45.01-.58.01-.75-.38-.2-.46-.15-1.18-.11-1.82.02-.25.03-.49.03-.7,0-.24,0-.5.02-.74.03-.64.05-1.3-.11-1.92.01,0,.03-.01.04-.02.03-.01.06-.03.08-.04l.07-.02-.02-.07c-.25-.83-.16-1.92-.06-2.98.04-.5.09-.97.09-1.39.01-1.6.02-3.06.04-4.46.02-1.29,0-2.6-.03-3.86-.03-1.29-.05-2.62-.03-3.93.02-1.55.02-3.13.01-4.65,0-1.3-.01-2.64,0-3.95,0-.23,0-.78,0-1.4,0-.82,0-1.75,0-2.14.01-1.07,0-2.17-.03-3.23,0-.44-.02-.88-.02-1.32l-.02-1.41c-.02-1.19-.04-2.42-.04-3.63,0-.29-.04-.66-.08-1.09-.13-1.29-.3-3.05.44-3.68.57-.49,1.52-.39,2.36-.3.3.03.59.06.84.06h.22c1.36,0,2.76,0,4.12.1,0,.07,0,.13,0,.2-.02.86-.05,1.74.59,2.47ZM13.53,9.67c0-.12-.02-.22-.02-.29-.05-.96.32-2.1,1.25-2.5.6-.25,1.29-.24,1.97-.24.25,0,.5,0,.74,0,.45-.02.75-.11.91-.3.22-.24.2-.59.18-1,0-.2-.02-.4,0-.62.05-.8.13-1.57.54-2.14.82-1.13,2.37-1.77,3.85-1.61,1.21.13,2.17.8,2.63,1.83.37.85.34,1.53.29,2.47v.02c0,.05,0,.11-.02.18-.03.35-.07.82.15,1.06.25.26.78.17,1.17.11.1-.02.19-.03.26-.04.82-.08,1.29-.06,1.95.24.52.24.97.7,1.13,1.17.25.7.23,1.51.21,2.29,0,.12,0,.23,0,.34,0,.37.01.75.03,1.12.03.6.05,1.22-.02,1.81-.18,1.55-1.97,1.48-3.41,1.41-.22,0-.43-.02-.62-.02h-.12c-10.3-.11-12.18-.16-12.34-.18-.82-.38-.79-1.5-.77-2.4,0-.14,0-.28,0-.41,0-.31.06-.61.11-.88.04-.21,0-.83-.04-1.46Z"/>
      <path class="cls-1" d="M31,38.98h-.03c-.34-.13-.71-.11-1.06-.08-.14,0-.31.02-.47.02-.23,0-.47,0-.71-.02-.3,0-.62-.02-.93-.02h0s-.03,0-.04,0c-.29,0-.57,0-.84-.02-.26,0-8.09,0-11.86.05h-.13c-.49,0-1.09.02-1.29.23-.05.06-.07.12-.07.2.02.24.45.34,1.35.31.02,0,.04,0,.05,0h0c.57,0,1.19,0,1.73-.02.96-.02,5.68-.01,5.79,0,.14.02,1.1.02,1.2,0,.36-.04.71-.02,1.05,0,.16,0,.33.02.49.02,1.12.01,2.27,0,3.37-.02h.17c.24,0,.48,0,.76.01.22,0,.44.02.65.02s.41,0,.6-.03h0c.12-.02.21-.08.26-.2.06-.13.05-.3-.03-.44v-.02Z"/>
      <path class="cls-1" d="M45.28,27.17l-.18.21.11.1s.04-.03.05-.05c.04-.05.09-.1.13-.16l-.12-.09Z"/>
    </g>
  </g>
</svg>