<?xml version="1.0" encoding="UTF-8"?>
<svg id="Layer_2" data-name="Layer 2" xmlns="http://www.w3.org/2000/svg" viewBox="0 0 34.79 42.65">
  <defs>
    <style>
      .cls-1 {
        fill: #1e1e1e;
      }
    </style>
  </defs>
  <g id="Layer_1-2" data-name="Layer 1">
    <g>
      <path class="cls-1" d="M18.07.27c1.15.58,1.83,1.49,3.06,2.08,3.48,1.65,7.51,2.14,11.29,2.38.62.04,1.5-.22,2.15.16.36.37.03,2.79.04,3.41.1,7.31,1.05,17.3-2.7,23.78-.22.38-.76,1.18-1.05,1.49-3.09,3.28-7.93,6.83-12.13,8.85-.78.38-1.48.27-2.28-.05-.69-.27-1.72-.92-2.39-1.27-1.72-.91-3.39-1.93-4.91-3.01-.54-.38-2.51-1.65-2.81-2.02-.15-.18-.39-.38-.39-.38l-1.34-1.38C-1.11,28.12.14,18.85.07,10.98c-.01-1.67.15-6.06.04-6.39.13-.23,4.39.11,5.18.07,2.94-.16,6.67-1.08,9.14-2.72.12-.08,2.09-1.68,2.54-1.83.62-.2.59-.09,1.09.16ZM24.29,4.82c-1.5-.47-5.39-2.26-6.4-3.4-.16-.18-.64-.15-.89,0-4.27,2.55-6.59,4.09-11.76,4.35-.66.03-4.02.13-4.02.13l-.11.16c-.18.92.11,1.96.12,2.81.05,4.04-.07,8.07.02,12.09.19,8.8,3.92,14.21,11.54,18.16.12.06.57.35.71.41,1.13.44,1.91,1.03,2.89,1.46.16.07.18.28.2.29.05.02.91.04,1.01.03,2.52-.32,9.43-5.23,11.29-7.17,2.39-2.49,3.7-5.92,4.18-9.08.72-4.73.49-10.64.54-15.49.01-1.24.05-2.5-.16-3.72-2.78.12-5.92-.13-8.61-.87-.11-.03-.41-.11-.56-.16Z"/>
      <path class="cls-1" d="M17.34,4.39c-.08-.17-.33-.22-.66-.14-.46.12-1.17.56-1.85.98-.5.31-.98.61-1.35.77-2.23,1.02-4.23,1.2-6.54,1.41-.51.05-1.04.09-1.58.15-1.55.17-2.18.3-2.29,1.99-.07,1.12-.02,2.31.03,3.47.03.73.06,1.49.07,2.2,0,.76-.02,1.54-.03,2.3-.05,2.25-.1,4.57.29,6.79.33,1.85,1.94,5.55,3.49,6.88l.05.04c.13.11.24.21.44.21.05,0,.1,0,.17-.02h.06s.02-.07.02-.07c.02-.08.01-.14-.02-.19-.06-.08-.15-.08-.22-.08-.01,0-.02,0-.04,0,0-.04.02-.07.04-.11.04-.1-1.61-3.13-1.73-3.28-.05-.05-.1-.09-.15-.11h0c.06-.14-.16-.43-.24-.44,0,0-.01,0-.02,0-1.43-2.88-1.36-7.59-1.31-11.38,0-.69.02-1.35.02-1.95,0-.84,0-1.67.01-2.5,0-.85.01-1.7.01-2.55.88-.27,1.78-.3,2.73-.33.6-.02,1.23-.04,1.84-.13,2.55-.36,6.41-1.7,8.46-3.3.27-.21.37-.43.29-.6Z"/>
    </g>
  </g>
</svg>