<svg preserveAspectRatio="none" width="100%" height="100%" overflow="visible" style="display: block;" viewBox="0 0 777.583 1162.22" fill="none" xmlns="http://www.w3.org/2000/svg">
<g id="Group" opacity="0.2">
<path id="Vector" d="M583.069 1124.35L561.474 1086.95L583.069 1049.55L561.474 1012H518.284L496.845 974.753L518.44 937.353L496.845 899.796H453.655L432.216 862.552L453.655 825.308H496.845L518.597 787.595L497.002 750.038H453.811H410.308L388.87 787.282L367.431 750.195H324.24L302.802 712.951L324.24 675.707H367.431L389.026 638.307H432.216L453.811 600.907H497.002L518.753 563.193L497.158 525.636H453.968H410.465L389.026 562.88L367.587 525.793H324.397L302.958 488.549L324.397 451.305H367.587L389.339 413.592L367.744 376.035H324.553H281.05L259.611 413.279L238.329 376.348L259.768 339.104V338.635H259.611H216.734L216.265 338.791L194.982 375.722L173.7 338.791H173.231C173.231 338.635 130.04 338.635 130.04 338.635H86.8502L65.255 376.035H22.0646L0.312969 413.748L22.0646 451.462H108.758L130.197 414.218L151.636 451.462H194.826L216.265 488.706L194.826 525.949H151.636L129.884 563.663L151.636 601.22H238.329L259.768 563.976L281.05 600.907L259.611 638.15H216.421L194.669 675.864L216.265 713.264L194.826 750.508H151.636L129.884 788.221L151.479 825.621L129.884 863.022L151.636 900.735H238.329L259.768 863.491L281.207 900.579H324.397L345.992 937.822H389.182L410.621 975.066L389.026 1012.47L410.621 1050.02H453.811L475.25 1087.27L453.655 1124.67L475.25 1162.22H518.44H561.944L583.695 1124.51L583.069 1124.35ZM582.6 1049.55L561.161 1086.8H518.44L539.879 1049.55L518.44 1012.31H561.161L582.6 1049.55ZM453.655 1049.24L462.105 1034.69L475.094 1012.31H517.814L510.929 1024.36L496.532 1049.24H453.811H453.655ZM467.582 1024.36L453.342 1049.08L432.06 1012.15L453.342 975.223L474.624 1012.15L467.582 1024.36ZM505.296 1034.69L518.127 1012.62L539.41 1049.55L518.127 1086.48L496.845 1049.55L505.452 1034.69H505.296ZM517.658 1011.84H474.937L453.655 974.91H496.376L517.658 1011.84ZM517.814 937.196L496.376 974.44H453.655L475.094 937.196L453.655 899.953H496.376L517.814 937.196ZM366.805 899.64H324.084L334.725 881.331L345.523 862.709H388.244L366.961 899.64H366.805ZM324.084 824.839L329.561 815.45L345.523 787.908H388.244L366.961 824.839H324.24H324.084ZM323.302 750.508L312.66 768.817L301.863 787.439H259.142L269.783 769.13L280.581 750.508H323.302ZM372.751 815.45L388.557 788.065L409.839 824.995L388.557 861.926L367.274 824.995L372.751 815.45ZM410.152 824.839L388.87 787.908H431.59L452.872 824.839H410.152ZM431.903 787.595L453.185 750.664L474.468 787.595L453.185 824.526L431.903 787.595ZM323.615 824.526L302.332 787.595L313.13 768.973L323.771 750.664L345.053 787.595L323.771 824.526H323.615ZM323.302 824.839H280.581L259.298 787.908H302.019L323.302 824.839ZM269.47 768.817L258.829 787.126L237.547 750.195L258.829 713.264L280.111 750.195L269.314 768.817H269.47ZM237.234 750.508L258.516 787.439H215.795L194.513 750.508H237.234ZM215.482 787.595L194.2 824.526L172.918 787.595L194.2 750.664L215.482 787.595ZM215.795 787.908H258.516L237.234 824.839H194.513L215.795 787.908ZM258.829 788.065L280.111 824.995L258.829 861.926L237.547 824.995L258.829 788.065ZM366.805 825.308L388.087 862.239H345.366L324.084 825.308H366.805ZM345.053 862.396L323.771 899.327L302.489 862.396L323.771 825.465L345.053 862.396ZM377.915 881.331L388.557 863.022L409.839 899.953L399.041 918.575L388.4 936.883L367.118 899.953L377.915 881.331ZM388.87 937.04L410.152 900.109H452.872L442.231 918.418L431.434 937.04H388.713H388.87ZM453.342 900.266L474.624 937.196L453.342 974.127L432.06 937.196L453.342 900.266ZM452.872 899.64H410.152L388.87 862.709H431.59L452.872 899.64ZM431.59 862.239H388.87L410.152 825.308H452.872L431.59 862.239ZM517.814 787.595L496.376 824.839H453.655L475.094 787.595L453.655 750.351H496.376L517.814 787.595ZM452.872 750.508L431.59 787.439H388.87L410.152 750.508H452.872ZM388.087 787.439H345.366L324.084 750.508H366.805L388.087 787.439ZM323.302 750.038H280.581L259.298 713.107H302.019L323.302 750.038ZM259.298 562.88L269.94 544.571L280.737 525.949H323.458L302.176 562.88H259.455H259.298ZM258.829 562.724L237.547 525.793L258.829 488.862L280.111 525.793L258.829 562.724ZM237.234 525.949L258.516 562.88H215.795L194.513 525.949H237.234ZM215.482 563.193L194.2 600.124L172.918 563.193L194.2 526.262L215.482 563.193ZM313.13 544.571L323.771 526.262L345.053 563.193L323.771 600.124L302.489 563.193L313.286 544.571H313.13ZM388.557 637.524L367.274 600.594L370.091 595.586L388.557 563.506L395.442 575.243L409.995 600.437L388.713 637.368L388.557 637.524ZM410.152 600.437L392.625 570.079L388.87 563.506H431.59L438.476 575.556L452.872 600.437H410.152ZM435.972 570.079L432.06 563.193L453.342 526.262L474.624 563.193L453.342 600.124L435.972 570.079ZM326.744 595.586L345.366 563.35H388.087L366.805 600.281H324.084L326.744 595.586ZM366.805 600.75L388.087 637.681H345.366L324.084 600.75H366.805ZM345.053 637.994L323.771 674.925L302.489 637.994L323.771 601.063L345.053 637.994ZM302.019 638.307L323.302 675.238H280.581L259.298 638.307H302.019ZM280.268 675.394L258.986 712.325L237.703 675.394L258.986 638.463L280.268 675.394ZM302.019 712.638H259.298L280.581 675.707H323.302L302.019 712.638ZM366.805 675.238H324.084L345.366 638.307H388.087L366.805 675.238ZM431.59 637.837H388.87L410.152 600.907H452.872L431.59 637.837ZM517.814 563.193L496.376 600.437H453.655L475.094 563.193L453.655 525.949H496.376L517.814 563.193ZM452.872 525.949L431.59 562.88H388.87L410.152 525.949H452.872ZM388.087 562.88H345.366L324.084 525.949H366.805L388.087 562.88ZM323.302 525.48H280.581L259.298 488.549H302.019L323.302 525.48ZM302.019 488.08H259.298L280.581 451.149H323.302L302.019 488.08ZM183.089 394.657L172.292 413.279H129.571L140.212 394.97L151.01 376.348H193.731L183.089 394.657ZM139.899 394.657L129.258 412.966L107.976 376.035L129.258 339.104L147.88 371.341L150.54 376.035L139.743 394.657H139.899ZM107.506 376.348L110.167 381.043L128.789 413.279H86.0677L64.7855 376.348H107.506ZM67.1328 381.043L85.9112 413.592L64.629 450.523L43.3468 413.592L64.629 376.661L67.1328 381.043ZM183.559 394.97L194.2 376.661L215.482 413.592L194.2 450.523L172.918 413.592L183.715 394.97H183.559ZM194.513 450.679L198.112 444.576L215.952 413.748H258.673L237.39 450.679H194.669H194.513ZM302.332 413.592L323.615 376.661L344.897 413.592L323.615 450.523L302.332 413.592ZM323.302 450.679H280.581L259.298 413.748H302.019L323.302 450.679ZM241.303 444.576L258.986 414.061L280.268 450.992L258.986 487.923L237.703 450.992L241.459 444.576H241.303ZM388.244 413.592L366.805 450.836H324.084L345.523 413.592L324.084 376.348H366.805L388.244 413.592ZM323.302 376.348L302.019 413.279H259.298L280.581 376.348H323.302ZM258.516 413.279H215.795L194.513 376.348H237.234L258.516 413.279ZM258.516 338.948L237.234 375.879H194.513L215.795 338.948H258.516ZM191.227 371.497L193.731 375.879H151.01L129.728 338.948H172.448L191.227 371.497ZM86.2242 338.948H128.945L107.663 375.879H64.942L86.2242 338.948ZM21.4387 450.679L0 413.435L21.4387 376.192H64.1596L42.7209 413.435L64.1596 450.679H21.4387ZM64.942 450.679L86.2242 413.748H128.945L107.663 450.679H64.942ZM129.728 413.748H172.448L193.731 450.679H151.01L129.728 413.748ZM194.513 451.149H237.234L258.516 488.08H215.795L194.513 451.149ZM215.795 488.549H258.516L237.234 525.48H194.513L215.795 488.549ZM151.01 600.437L129.571 563.193L151.01 525.949H193.731L172.292 563.193L193.731 600.437H151.01ZM194.513 600.437L215.795 563.506H258.516L237.234 600.437H194.513ZM259.298 563.35H302.019L323.302 600.281H280.581L259.298 563.35ZM280.581 600.75H323.302L302.019 637.681H259.298L280.581 600.75ZM194.356 675.394L215.795 638.15H258.516L237.077 675.394L258.516 712.638H215.795L194.356 675.394ZM215.795 713.107H258.516L237.234 750.038H194.513L215.795 713.107ZM129.571 787.595L151.01 750.351H193.731L172.292 787.595L193.731 824.839H151.01L129.571 787.595ZM151.01 899.64L129.571 862.396L151.01 825.152H193.731L172.292 862.396L193.731 899.64H151.01ZM194.044 825.465L215.326 862.396L194.044 899.327L172.761 862.396L194.044 825.465ZM237.234 899.64H194.513L215.952 862.396L194.513 825.152H237.234L258.673 862.396L237.234 899.64ZM259.142 862.396L280.581 825.152H323.302L301.863 862.396L323.302 899.64H280.581L259.142 862.396ZM324.084 900.109H366.805L388.087 937.04H345.366L324.084 900.109ZM388.87 937.509H431.59L452.872 974.44H410.152L388.87 937.509ZM388.713 1012.15L410.152 974.91H452.872L431.434 1012.15L452.872 1049.4H410.152L388.713 1012.15ZM453.655 1049.71H496.376L517.658 1086.64H474.937L453.655 1049.71ZM453.498 1124.35L474.937 1087.11H517.658L496.219 1124.35L517.658 1161.6H474.937L453.498 1124.35ZM518.127 1087.42L539.41 1124.35L518.127 1161.29L496.845 1124.35L518.127 1087.42ZM539.879 1124.35L518.44 1087.11H561.161L582.6 1124.35L561.161 1161.6H518.44L539.879 1124.35Z" fill="var(--fill-0, #CCCCCC)"/>
<path id="Vector_2" d="M755.832 450.676H712.641L691.046 413.276H647.856L626.417 376.032L648.012 338.631L626.261 300.918H582.757L561.162 338.319H518.285L496.689 300.918H453.499L432.06 263.674L453.499 226.431H496.689L518.285 189.03H561.475L583.07 151.63H626.261L648.012 113.917L626.261 76.2032H582.757L561.162 113.604H518.285L496.689 76.2032H453.499L432.06 38.9594L453.499 1.71556V1.24609H453.03C453.03 1.40258 431.591 38.6464 431.591 38.6464H388.714L367.275 1.40259H366.806C366.806 1.2461 323.928 1.24609 323.928 1.24609L323.615 1.71556H366.806L388.244 38.9594L366.806 76.2032H323.615L301.864 113.917L323.615 151.63H367.118L388.714 114.23H431.591L453.03 151.473L431.591 188.717H388.401L366.806 226.118H323.615L301.864 263.831L323.615 301.544H366.806L388.401 338.944H431.591L453.03 376.188L431.591 413.432H388.401L366.806 450.832H323.615L302.176 488.076L280.738 450.832H237.547L215.952 413.432H172.762L151.323 376.188L172.918 338.788L151.167 301.075H107.664L86.0684 338.475V338.944L105.629 372.746L107.507 376.032L86.0684 413.276V413.745L107.664 451.145H150.854L172.293 488.389L150.697 525.79L172.449 563.503H215.952L237.547 526.103H280.738L302.176 488.859L323.615 526.103H366.806L388.401 563.503H431.591L453.03 600.747L431.435 638.147L453.186 675.86H496.377L517.815 713.104L496.377 750.348H453.186L431.435 788.061L453.186 825.775H496.689L518.285 788.374H561.475L583.227 750.661L561.631 713.261L583.227 675.86L561.475 638.147H518.285L496.846 600.903L518.441 563.503L496.689 525.79H453.499L432.06 488.546L453.499 451.302H496.689L518.285 413.902H561.162L582.757 451.302H625.948L647.386 488.546L625.791 525.946L647.543 563.659H691.046L712.641 526.259H755.832L777.583 488.546L755.832 450.832V450.676ZM86.3813 338.788L107.82 301.544H150.697L172.136 338.788L150.697 376.032H107.82L86.3813 338.788ZM107.82 450.832L86.3813 413.589L105.16 381.039L107.82 376.345H150.697L172.136 413.589L150.697 450.832H107.82ZM151.167 450.989L168.38 421.1L172.605 413.745H215.483L236.922 450.989L226.124 469.611L215.326 488.233H172.449L151.01 450.989H151.167ZM215.639 563.033H172.762L151.323 525.79L172.762 488.546H215.639L218.3 493.24L237.078 525.79L215.639 563.033ZM280.425 525.633H237.547L216.109 488.389L226.906 469.767L237.704 451.145H280.581L302.02 488.389L280.581 525.633H280.425ZM583.07 301.544H625.948L647.386 338.788L625.948 376.032H583.07L561.631 338.788L583.07 301.544ZM583.07 77.1422H625.948L647.386 114.386L625.948 151.63H583.07L572.273 133.008L561.475 114.386L582.914 77.1422H583.07ZM561.162 114.542L571.96 133.164L582.757 151.786L561.319 189.03H518.441L501.384 159.454L497.002 151.786L518.441 114.542H561.319H561.162ZM366.806 151.473H323.928L302.489 114.23L323.928 76.9857H366.806L371.031 84.497L388.244 114.23L366.806 151.473ZM388.557 114.073L367.118 76.8292L388.557 39.5853H431.435L452.873 76.8292L431.435 114.073H388.557ZM431.904 114.23L449.118 84.497L453.343 76.9857H496.22L517.659 114.23L506.861 132.851L496.064 151.473H453.186L431.747 114.23H431.904ZM453.343 151.943H496.22L517.659 189.187L496.22 226.431H453.343L442.545 207.809L431.747 189.187L453.186 151.943H453.343ZM388.557 189.343H431.435L442.232 207.965L453.03 226.587L431.591 263.831H388.714L384.489 256.319L367.275 226.587L388.714 189.343H388.557ZM323.772 301.075L302.333 263.831L323.772 226.587H366.649L388.088 263.831L377.29 282.453L366.493 301.075H323.615H323.772ZM388.557 338.475L367.118 301.231L377.916 282.609L388.714 263.987H431.591L453.03 301.231L442.232 319.853L431.435 338.475H388.557ZM431.904 338.788L442.702 320.166L453.499 301.544H496.377L517.815 338.788L496.377 376.032H453.499L432.06 338.788H431.904ZM323.772 525.477L302.333 488.233L323.772 450.989H366.649L377.447 469.611L388.244 488.233L366.806 525.477H323.928H323.772ZM496.377 824.836H453.499L432.06 787.592L453.499 750.348H496.377L507.174 768.97L517.972 787.592L496.533 824.836H496.377ZM582.601 750.192L561.162 787.435H518.285L507.487 768.813L496.689 750.192L518.128 712.948H561.006L582.444 750.192H582.601ZM561.162 638.304L582.601 675.547L561.162 712.791H518.285L496.846 675.547L507.644 656.925L518.441 638.304H561.319H561.162ZM517.815 637.991L496.377 675.234H453.499L432.06 637.991L453.499 600.747H496.377L517.815 637.991ZM496.377 525.946L517.815 563.19L496.377 600.434H453.499L432.06 563.19L445.988 539.247L453.656 526.103H496.533L496.377 525.946ZM453.03 525.79L434.877 557.243L431.591 563.033H388.714L367.275 525.79L386.836 491.988L388.714 488.702H431.591L453.03 525.946V525.79ZM431.591 488.076H388.714L377.916 469.454L367.118 450.832L388.557 413.589H431.435L442.232 432.211L453.03 450.832L431.591 488.076ZM496.377 450.676H453.499L432.06 413.432L453.499 376.188H496.377L499.193 380.883L517.972 413.276L496.533 450.519L496.377 450.676ZM518.285 413.276L496.846 376.032L518.285 338.788H561.162L580.723 372.589L582.601 375.875L561.162 413.119H518.285V413.276ZM583.07 450.676L561.631 413.432L580.41 380.883L583.07 376.188H625.948L647.386 413.432L625.948 450.676H583.07ZM626.261 450.989L643.474 421.1L647.699 413.745H690.577L712.015 450.989L701.218 469.611L690.42 488.233H647.543L626.104 450.989H626.261ZM690.733 563.033H647.856L626.417 525.79L647.856 488.546H690.733L693.393 493.24L712.172 525.79L690.733 563.033ZM755.519 525.477H712.641L691.203 488.233L702 469.611L712.798 450.989H755.675L777.114 488.233L755.675 525.477H755.519Z" fill="var(--fill-0, #818181)"/>
<path id="Vector_3" d="M689.793 789.945C690.106 789.945 690.419 790.258 690.889 790.258C692.297 790.258 693.549 789.163 693.549 787.598C693.549 786.033 692.453 784.937 690.889 784.937C689.324 784.937 690.106 784.937 689.793 785.25L669.606 750.197L691.202 712.797L670.858 677.588C671.484 677.118 671.954 676.336 671.954 675.397C671.954 673.988 670.858 672.736 669.293 672.736C667.729 672.736 666.79 673.832 666.79 675.084H626.26L606.073 640.031C606.699 639.561 607.168 638.779 607.168 637.84C607.168 636.901 606.699 636.119 606.073 635.649L626.416 600.44L604.664 562.726H561.474L540.035 525.482L560.222 490.429C560.535 490.429 560.848 490.742 561.318 490.742C562.726 490.742 563.821 489.647 563.821 488.395H604.508L626.26 450.682L605.916 415.472C606.542 415.003 607.012 414.22 607.012 413.281C607.012 411.873 605.916 410.621 604.351 410.621C602.787 410.621 601.848 411.717 601.848 412.968H561.161L539.566 450.369H499.036C499.036 449.117 497.784 448.021 496.532 448.021C495.28 448.021 495.75 448.021 495.437 448.334L475.093 413.125H434.407C434.407 411.873 433.155 410.778 431.903 410.778C430.651 410.778 431.121 410.778 430.808 411.091L410.621 376.038L432.06 338.794H472.59C472.59 340.046 473.841 341.141 475.093 341.141C476.345 341.141 477.754 340.046 477.754 338.481C477.754 336.916 477.284 336.759 476.658 336.29L496.845 301.237H540.035L560.379 266.027C560.692 266.027 561.005 266.34 561.474 266.34C562.882 266.34 563.978 265.245 563.978 263.993H604.664L625.008 228.784C625.321 228.784 625.634 229.097 626.103 229.097C627.511 229.097 628.763 228.001 628.763 226.436C628.763 224.871 627.668 223.776 626.103 223.776C624.538 223.776 625.321 223.776 625.008 224.089L604.664 188.879H563.978C563.978 187.628 562.726 186.532 561.474 186.532C560.222 186.532 558.814 187.628 558.814 189.192C558.814 190.757 559.283 190.914 559.909 191.383L539.722 226.436H499.192C499.192 225.184 497.94 224.089 496.689 224.089C495.437 224.089 495.906 224.089 495.593 224.402L475.25 189.192H432.06L411.873 154.139C412.499 153.67 412.968 152.888 412.968 151.949C412.968 151.01 412.499 150.227 411.873 149.758L432.06 114.705H472.59C472.59 115.957 473.841 117.052 475.093 117.052C476.345 117.052 477.754 115.957 477.754 114.392C477.754 112.827 477.284 112.67 476.658 112.201L497.002 76.9915L475.25 39.4346H434.563C434.563 38.1828 433.311 37.0873 432.06 37.0873C430.808 37.0873 429.399 38.1828 429.399 39.7476C429.399 41.3125 429.869 41.469 430.495 41.9384L410.308 76.9915H369.778C369.778 75.7396 368.526 74.6442 367.274 74.6442C366.022 74.6442 366.492 74.6442 366.179 74.9571L345.992 39.9041L366.179 4.85109C366.492 4.85109 366.805 5.16405 367.274 5.16405C368.682 5.16405 369.778 4.06865 369.778 2.81675V2.3473C369.778 1.09541 368.526 0 367.274 0C366.022 0 366.492 -4.78026e-06 366.179 0.312969H365.709C365.083 0.938916 364.614 1.72135 364.614 2.66027C364.614 3.59919 365.083 4.38163 365.709 4.85109L345.522 39.9041H304.992C304.992 38.6522 303.74 37.5568 302.489 37.5568C301.237 37.5568 301.706 37.5568 301.393 37.8698L281.206 2.81675H280.737C280.737 2.66027 240.207 2.66027 240.207 2.66027C240.207 1.40838 238.955 0.312969 237.703 0.312969C236.451 0.312969 235.043 1.40838 235.043 2.97325C235.043 4.53812 235.512 4.69459 236.138 5.16405L215.951 40.2171H172.761L152.418 75.4266C152.105 75.4266 151.792 75.1136 151.322 75.1136C149.914 75.1136 148.662 76.209 148.662 77.7739C148.662 79.3388 149.757 80.4342 151.322 80.4342C152.887 80.4342 152.105 80.4342 152.418 80.1212L172.761 115.331H216.264L236.608 80.1212C236.921 80.1212 237.234 80.4342 237.703 80.4342C239.111 80.4342 240.207 79.3388 240.207 78.0869H280.737L300.924 113.14C300.298 113.609 299.828 114.392 299.828 115.331C299.828 116.739 300.924 117.991 302.489 117.991C304.053 117.991 304.992 116.896 304.992 115.644H345.522L366.961 152.888L345.522 190.131H302.332L281.989 225.341C281.676 225.341 281.363 225.028 280.893 225.028C279.485 225.028 278.233 226.123 278.233 227.688C278.233 229.253 279.329 230.348 280.893 230.348C282.458 230.348 281.676 230.348 281.989 230.035L302.332 265.245H343.019C343.019 266.497 344.27 267.592 345.522 267.592C346.774 267.592 348.183 266.497 348.183 264.932C348.183 263.367 347.713 263.211 347.087 262.741L367.274 227.688H407.804C407.804 228.94 409.056 230.035 410.308 230.035C411.56 230.035 411.09 230.035 411.403 229.722L431.59 264.776L411.403 299.829C411.09 299.829 410.777 299.516 410.308 299.516C408.9 299.516 407.804 300.611 407.804 301.863H367.118L345.366 339.576L365.709 374.786C365.083 375.255 364.614 376.038 364.614 376.976C364.614 377.915 365.083 378.698 365.709 379.167L345.522 414.22H302.332L281.989 449.43C281.676 449.43 281.363 449.117 280.893 449.117C279.485 449.117 278.233 450.212 278.233 451.777C278.233 453.342 279.329 454.437 280.893 454.437C282.458 454.437 281.676 454.437 281.989 454.124L302.176 489.177L280.58 526.578L300.924 561.787C300.298 562.257 299.828 563.039 299.828 563.978C299.828 565.386 300.924 566.638 302.489 566.638C304.053 566.638 304.992 565.543 304.992 564.291H345.679L367.431 526.578L347.087 491.368C347.713 490.899 348.183 490.116 348.183 489.177C348.183 488.239 347.713 487.456 347.087 486.987L367.274 451.934H410.151L430.338 486.987C429.712 487.456 429.243 488.239 429.243 489.177C429.243 490.116 429.712 490.899 430.338 491.368L409.995 526.578L430.338 561.787C429.712 562.257 429.243 563.039 429.243 563.978C429.243 565.386 430.338 566.638 431.903 566.638C433.468 566.638 434.407 565.543 434.407 564.291H474.937L496.532 601.691H537.219C537.219 602.943 538.47 604.039 539.722 604.039C540.974 604.039 540.505 604.039 540.818 603.726L561.005 638.779L539.409 676.179L559.753 711.389C559.127 711.858 558.657 712.641 558.657 713.579C558.657 714.988 559.753 716.24 561.318 716.24C562.882 716.24 563.821 715.144 563.821 713.892H604.351L624.538 748.945C623.912 749.415 623.443 750.197 623.443 751.136C623.443 752.075 623.912 752.858 624.538 753.327L604.195 788.537L625.947 826.25H669.45L689.793 791.04V789.945ZM430.651 41.7819C430.964 41.7819 431.277 42.0949 431.747 42.0949C433.155 42.0949 434.25 40.9995 434.25 39.7476H474.78L496.219 76.9915L476.032 112.044C475.719 112.044 475.406 111.732 474.937 111.732C473.529 111.732 472.433 112.827 472.433 114.079H431.903L429.086 109.228L410.308 76.835L430.495 41.7819H430.651ZM236.138 4.38162C236.451 4.38162 236.764 4.6946 237.234 4.6946C238.642 4.6946 239.737 3.59919 239.737 2.3473H280.267L299.046 34.8965L300.454 37.4003C299.828 37.8698 299.359 38.6522 299.359 39.5911C299.359 40.5301 299.828 41.3125 300.454 41.7819L290.909 58.2131L280.111 76.835H239.581C239.581 75.5831 238.329 74.4877 237.077 74.4877C235.825 74.4877 236.295 74.4877 235.982 74.8006L215.795 39.7476L235.982 4.6946L236.138 4.38162ZM235.825 79.0258L215.638 114.079H172.761L152.574 79.0258C153.2 78.5563 153.67 77.7739 153.67 76.835C153.67 75.8961 153.2 75.1136 152.574 74.6442L172.761 39.5911H215.638L235.825 74.6442C235.199 75.1136 234.73 75.8961 234.73 76.835C234.73 77.7739 235.199 78.5563 235.825 79.0258ZM304.679 114.079C304.679 112.827 303.427 111.732 302.176 111.732C300.924 111.732 301.393 111.732 301.08 112.044L280.893 76.9915L291.691 58.3695L301.237 41.9384C301.55 41.9384 301.863 42.2514 302.332 42.2514C303.74 42.2514 304.836 41.156 304.836 39.9041H345.366L365.553 74.9571C364.927 75.4266 364.457 76.209 364.457 77.1479C364.457 78.0869 364.927 78.8693 365.553 79.3388L347.87 109.854L345.209 114.392H304.679V114.079ZM366.961 151.479L345.522 114.235L365.709 79.1823C366.022 79.1823 366.335 79.4952 366.805 79.4952C368.213 79.4952 369.308 78.3998 369.308 77.1479H409.838L431.277 114.392L411.09 149.445C410.777 149.445 410.464 149.132 409.995 149.132C408.587 149.132 407.491 150.227 407.491 151.479H366.961ZM560.222 191.54C560.535 191.54 560.848 191.853 561.318 191.853C562.726 191.853 563.821 190.757 563.821 189.505H604.351L624.538 224.558C623.912 225.028 623.443 225.81 623.443 226.749C623.443 227.688 623.912 228.471 624.538 228.94L604.351 263.993H563.821C563.821 262.741 562.57 261.646 561.318 261.646C560.066 261.646 560.535 261.646 560.222 261.959L543.635 233.322L539.879 226.906L560.066 191.853L560.222 191.54ZM366.961 151.949H407.491C407.491 153.2 408.743 154.296 409.995 154.296C411.247 154.296 410.777 154.296 411.09 153.983L431.277 189.036L420.48 207.658L410.934 224.089C410.621 224.089 410.308 223.776 409.838 223.776C408.43 223.776 407.335 224.871 407.335 226.123H366.805L345.366 188.879L366.805 151.636L366.961 151.949ZM346.461 261.646C346.148 261.646 345.835 261.333 345.366 261.333C343.958 261.333 342.862 262.428 342.862 263.68H302.332L282.145 228.627C282.771 228.158 283.241 227.375 283.241 226.436C283.241 225.497 282.771 224.715 282.145 224.245L302.332 189.192H345.209L345.992 190.444L366.648 226.28L346.461 261.333V261.646ZM431.747 263.68L411.56 228.627C412.186 228.158 412.655 227.375 412.655 226.436C412.655 225.497 412.186 224.715 411.56 224.245L421.105 207.814L431.903 189.192H474.78L494.967 224.245C494.341 224.715 493.872 225.497 493.872 226.436C493.872 227.375 494.341 228.158 494.967 228.627L476.502 260.55L474.78 263.68H431.903H431.747ZM495.437 228.94C495.75 228.94 496.063 229.253 496.532 229.253C497.94 229.253 499.036 228.158 499.036 226.906H539.566L559.753 261.959C559.127 262.428 558.657 263.211 558.657 264.15C558.657 265.088 559.127 265.871 559.753 266.34L539.566 301.393H496.689L485.891 282.772L475.093 264.15L495.28 229.097L495.437 228.94ZM411.56 299.203L431.747 264.15H474.624L485.422 282.772L496.219 301.393L476.032 336.446C475.719 336.446 475.406 336.133 474.937 336.133C473.529 336.133 472.433 337.229 472.433 338.481H431.903L421.105 319.859L411.56 303.428C412.186 302.958 412.655 302.176 412.655 301.237C412.655 300.298 412.186 299.516 411.56 299.046V299.203ZM369.465 375.881C369.465 374.629 368.213 373.534 366.961 373.534C365.709 373.534 366.179 373.534 365.866 373.847L345.679 338.794L367.118 301.55H407.648C407.648 302.802 408.899 303.897 410.151 303.897C411.403 303.897 410.934 303.897 411.247 303.584L420.792 320.015L431.59 338.637L410.151 375.881H369.621H369.465ZM342.706 488.552C342.706 489.803 343.958 490.899 345.209 490.899C346.461 490.899 345.992 490.899 346.305 490.586L366.492 525.639L345.053 562.883H304.523C304.523 561.631 303.271 560.535 302.019 560.535C300.767 560.535 301.237 560.535 300.924 560.848L280.737 525.795L302.176 488.552H342.706ZM561.474 413.751H602.004C602.004 415.003 603.256 416.098 604.508 416.098C605.76 416.098 605.29 416.098 605.603 415.785L625.79 450.838L604.351 488.082H563.821C563.821 486.83 562.57 485.735 561.318 485.735C560.066 485.735 560.535 485.735 560.222 486.048L550.676 469.617L539.879 450.995L561.318 413.751H561.474ZM365.866 378.541C366.179 378.541 366.492 378.854 366.961 378.854C368.369 378.854 369.465 377.759 369.465 376.507H409.995L430.182 411.56C429.556 412.03 429.086 412.812 429.086 413.751C429.086 414.69 429.556 415.472 430.182 415.942L420.636 432.373L409.838 450.995H366.961L345.522 413.751L365.709 378.698L365.866 378.541ZM346.461 486.048C346.148 485.891 345.835 485.735 345.366 485.735C343.958 485.735 342.862 486.83 342.862 488.082H302.332L282.145 453.029C282.771 452.56 283.241 451.777 283.241 450.838C283.241 449.899 282.771 449.117 282.145 448.647L302.332 413.594H345.209L346.461 415.629L366.805 450.682L346.618 485.735L346.461 486.048ZM434.25 488.082C434.25 486.83 432.998 485.735 431.747 485.735C430.495 485.735 430.964 485.735 430.651 486.048L410.464 450.995L421.262 432.373L430.808 415.942C431.121 415.942 431.434 416.255 431.903 416.255C433.311 416.255 434.407 415.159 434.407 413.907H474.937L495.124 448.96C494.498 449.43 494.028 450.212 494.028 451.151C494.028 452.09 494.498 452.873 495.124 453.342L479.006 481.197L474.78 488.395H434.25V488.082ZM495.437 453.342C495.75 453.499 496.063 453.655 496.532 453.655C497.94 453.655 499.036 452.56 499.036 451.308H539.566L550.364 469.93L559.909 486.361C559.283 486.83 558.814 487.613 558.814 488.552C558.814 489.49 559.283 490.273 559.909 490.742L539.722 525.795H499.192C499.192 524.543 497.94 523.448 496.689 523.448C495.437 523.448 495.906 523.448 495.593 523.761L486.047 507.33L475.25 488.708L495.437 453.655V453.342ZM434.25 563.039C434.25 561.787 432.998 560.692 431.747 560.692C430.495 560.692 430.964 560.692 430.651 561.005L410.464 525.952L430.651 490.899C430.964 490.899 431.277 491.212 431.747 491.212C433.155 491.212 434.25 490.116 434.25 488.864H474.78L485.578 507.486L495.124 523.918C494.498 524.387 494.028 525.169 494.028 526.108C494.028 527.047 494.498 527.83 495.124 528.299L485.578 544.73L474.78 563.352H434.25V563.039ZM496.689 600.44L475.25 563.196L486.047 544.574L495.593 528.143C495.906 528.143 496.219 528.456 496.689 528.456C498.097 528.456 499.192 527.36 499.192 526.108H539.722L561.161 563.352L550.364 581.974L540.818 598.405C540.505 598.405 540.192 598.092 539.722 598.092C538.314 598.092 537.219 599.188 537.219 600.44H496.689ZM561.474 637.84L541.287 602.787C541.913 602.317 542.383 601.535 542.383 600.596C542.383 599.657 541.913 598.875 541.287 598.405L550.833 581.974L561.631 563.352H604.508L625.947 600.596L605.76 635.649C605.447 635.649 605.134 635.336 604.664 635.336C603.256 635.336 602.161 636.431 602.161 637.683H561.631L561.474 637.84ZM563.821 712.64C563.821 711.389 562.57 710.293 561.318 710.293C560.066 710.293 560.535 710.293 560.222 710.606L540.035 675.553L561.474 638.309H602.004C602.004 639.561 603.256 640.657 604.508 640.657C605.76 640.657 605.29 640.657 605.603 640.344L625.79 675.397L612.019 699.339L604.351 712.64H563.821ZM628.607 750.041C628.607 748.789 627.355 747.694 626.103 747.694C624.851 747.694 625.321 747.694 625.008 748.007L604.821 712.953L622.66 681.969L626.26 675.71H666.79C666.79 676.962 668.042 678.057 669.293 678.057C670.545 678.057 670.076 678.057 670.389 677.744L690.576 712.797L669.137 750.041H628.607ZM626.26 824.841L604.821 787.598L625.008 752.545C625.321 752.545 625.634 752.858 626.103 752.858C627.511 752.858 628.607 751.762 628.607 750.51H669.137L689.324 785.563C688.698 786.033 688.228 786.815 688.228 787.754C688.228 788.693 688.698 789.476 689.324 789.945L669.137 824.998H626.26V824.841Z" fill="var(--fill-0, #333333)"/>
</g>
</svg>
