<svg preserveAspectRatio="none" width="100%" height="100%" overflow="visible" style="display: block;" viewBox="0 0 43.4353 47.79" fill="none" xmlns="http://www.w3.org/2000/svg">
<g id="Group">
<path id="Vector" d="M30.1479 20.6569C30.2596 20.9919 30.4829 21.2152 30.5945 21.5502C31.3762 22.7784 31.9344 24.0067 32.6044 25.2349C33.1627 26.4632 33.4977 27.6914 33.8326 28.9197C34.1676 30.1479 34.056 31.4878 33.8326 32.716C33.721 33.6093 33.6093 34.5026 33.1627 35.2842C32.8277 35.9542 32.6044 36.6241 32.1578 37.1824C31.3762 38.5223 30.3712 39.6389 29.2546 40.6438C28.9197 40.9788 28.473 41.3138 28.0264 41.5371C28.0264 41.5371 27.9147 41.6488 27.8031 41.6488C28.0264 41.6488 28.2497 41.6488 28.3614 41.6488C28.3614 41.6488 28.3614 41.6488 28.3614 41.7604C28.808 41.4254 29.143 41.2021 29.5896 40.8672C29.478 41.0905 29.3663 41.2021 28.808 41.6488C28.5847 41.8721 28.2497 42.0954 27.9147 42.2071C27.5798 42.4304 27.3564 42.542 27.0215 42.7653C27.1331 42.9887 27.1331 42.9887 27.3564 42.877C27.9147 42.6537 28.473 42.3187 29.0313 41.9838C30.1479 41.3138 31.2645 40.5322 32.1578 39.5272C32.3811 39.3039 32.6044 39.0806 32.8277 38.8573C32.9394 38.7456 32.9394 38.7456 33.051 38.634C33.051 38.7456 32.9394 38.8573 32.9394 38.8573C32.1578 39.8622 31.2645 40.7555 30.1479 41.4255C29.143 42.0954 28.0264 42.6537 26.9098 43.1003C26.5748 43.212 26.3515 42.9887 26.1282 42.9887C26.0165 42.9887 26.0165 42.877 26.1282 42.7653C26.2398 42.6537 26.3515 42.6537 26.4632 42.5421C26.0165 42.5421 26.0165 42.542 25.9049 42.2071C25.7932 42.0954 25.7932 41.9837 25.6816 41.8721C25.5699 41.7604 25.5699 41.6488 25.6816 41.5371C25.9049 41.3138 26.0165 41.2021 26.3515 41.0905C26.6865 40.9788 26.9098 40.7555 27.1331 40.6438C27.5797 40.3089 27.9147 39.8622 28.3614 39.5272L28.473 39.4156C29.143 38.9689 29.478 38.299 29.9246 37.629C30.2596 37.1824 30.4829 36.7358 30.8179 36.1775L30.9295 36.0658C30.8179 36.2891 30.7062 36.5125 30.5945 36.8474C30.0362 37.8524 29.3663 38.7456 28.6963 39.6389C28.473 39.9739 28.138 40.1972 27.6914 40.4205C27.3564 40.6438 27.0215 40.9788 26.6865 41.3138C26.6865 41.4255 26.7981 41.5371 26.7981 41.6488C28.473 40.8671 29.5896 39.5273 30.7062 38.0757C30.7062 38.4107 30.4829 38.634 30.3712 38.8573C30.2596 39.0806 30.0362 39.3039 29.8129 39.6389C30.7062 38.969 32.7161 35.8425 33.051 34.3909C32.7161 35.0609 32.4927 35.7309 31.9344 36.2891V36.1775C32.3811 35.2842 32.8277 34.3909 33.051 33.386C33.386 32.9394 33.386 32.2694 33.4977 31.7111C33.4977 31.1528 33.6093 30.5945 33.6093 30.0362C33.6093 29.4779 33.386 28.9197 33.2744 28.3614C33.051 27.5797 32.8277 26.9098 32.6044 26.1282C32.3811 25.4582 32.0461 24.6766 31.5995 24.0067C31.0412 23.0017 30.4829 21.9968 29.9246 20.9919C29.7013 20.5452 29.3663 20.0986 29.0313 19.652C28.6963 19.2053 28.473 18.647 28.3614 17.9771C28.2497 17.4188 28.0264 16.7488 27.9147 16.1905C27.9147 16.0789 27.9147 15.9672 27.6914 15.8555C27.5797 15.8555 27.5798 15.6322 27.5798 15.5206C27.5798 15.1856 27.5797 14.739 27.8031 14.404C27.9147 14.2923 27.9147 14.069 27.9147 13.8457C27.9147 13.1757 27.9147 12.6174 28.0264 11.9475C28.0264 11.7242 28.0264 11.5009 28.0264 11.2776C27.9147 12.0592 27.6914 12.9524 27.8031 13.734C27.8031 13.8457 27.8031 14.069 27.8031 14.1807L27.6914 14.2923C27.5797 12.3941 27.9147 10.4959 28.5847 8.70938C28.5847 8.82104 28.473 9.04435 28.473 9.15601C28.473 9.37933 28.3614 9.49099 28.3614 9.7143C28.2497 10.0493 28.138 10.4959 28.138 10.8309C28.2497 10.6076 28.2497 10.3843 28.2497 10.161C28.2497 10.0493 28.2497 9.82596 28.2497 9.7143C28.2497 9.60265 28.3614 9.60267 28.3614 9.49101C28.473 8.93271 28.6963 8.48608 28.808 7.92779C28.808 7.81613 28.9197 7.70444 29.0313 7.48113C29.0313 7.36947 29.0313 7.36949 29.0313 7.25783C29.0313 7.03451 29.0313 7.0345 29.2546 7.0345C29.3663 7.0345 29.3663 7.0345 29.4779 7.0345C29.4779 7.25782 29.3663 7.48114 29.3663 7.70446C29.2546 7.70446 29.143 7.92776 29.0313 8.03942C29.0313 8.26274 28.9197 8.3744 28.808 8.59772C28.6963 8.82103 28.5847 9.15602 28.5847 9.37934C28.473 10.6076 28.2497 11.7242 28.138 12.9524C28.138 13.0641 28.138 13.2874 28.2497 13.3991C28.3614 13.5107 28.3614 13.6224 28.3614 13.734C28.3614 14.069 28.3614 14.2923 28.3614 14.6273V14.739C28.473 14.6273 28.473 14.5157 28.473 14.5157C28.473 13.9574 28.473 13.2874 28.473 12.7291C28.473 11.5009 28.6963 10.3843 28.9197 9.26768C29.0313 8.9327 29.143 8.48606 29.2546 8.15109C29.2546 8.03943 29.3663 8.03945 29.4779 7.92779C29.5896 8.03945 29.5896 8.15109 29.5896 8.26275C29.2546 9.04436 29.143 9.82598 29.0313 10.6076C28.9197 11.3892 28.808 12.1708 28.6963 12.9524C28.6963 13.0641 28.6963 13.1757 28.6963 13.2874C28.808 12.9524 28.808 12.5058 28.9197 12.1708C29.0313 11.3892 29.2546 10.6076 29.3663 9.7143C29.478 9.37933 29.4779 9.04436 29.4779 8.70938C29.4779 8.59772 29.478 8.59774 29.5896 8.48608C29.8129 8.59774 29.9246 8.70939 30.0362 8.93271C30.0362 9.15603 29.9246 9.37935 29.9246 9.60267C29.7013 10.161 29.478 10.7193 29.3663 11.2776C29.143 11.8359 29.2546 12.5058 29.2546 13.0641C29.2546 13.399 29.3663 13.8457 29.3663 14.1807C29.3663 14.2923 29.3663 14.404 29.4779 14.404C29.7013 14.5157 29.5896 14.739 29.5896 14.9623C29.5896 15.4089 29.8129 15.8556 30.0362 16.3022C30.4829 16.9722 31.0412 17.6421 31.7111 18.2004C31.8228 18.312 32.0461 18.4237 32.2694 18.5354C33.386 19.2053 34.5026 19.9869 35.6192 20.6569C36.0658 20.9919 36.5125 21.2152 36.9591 21.4385C37.4057 21.6618 37.7407 21.9968 38.0757 22.2201C38.5223 22.5551 38.8573 22.7784 39.1923 23.1134C39.9739 23.895 40.7555 24.6766 41.4255 25.5699C41.9838 26.2398 42.3187 27.0214 42.6537 27.8031C42.7654 28.0264 42.7654 28.138 42.877 28.3614C42.9887 28.9197 43.212 29.478 43.3237 30.1479C43.4353 30.9295 43.3237 31.8228 43.212 32.6044C42.9887 33.721 42.7654 34.8376 42.3187 35.8425C41.8721 36.8474 41.4255 37.8524 40.6438 38.8573C40.1972 39.5272 39.6389 40.1972 39.0806 40.7555C38.634 41.2021 38.0757 41.5371 37.5174 41.8721C37.4057 41.9837 37.2941 41.9837 37.2941 42.0954C36.4008 42.877 35.2842 43.4353 34.2793 43.8819C33.721 44.1053 33.1627 44.3286 32.4927 44.5519C31.7111 44.7752 30.9295 44.9985 30.0362 45.2219C29.143 45.4452 28.3614 45.5568 27.4681 45.7802C27.3564 45.7802 27.3564 45.7802 27.2448 45.8918C27.3564 46.0035 27.4681 46.1151 27.5798 46.1151C27.3564 46.3384 27.3564 46.3384 27.0215 46.1151C26.7981 46.2268 26.6865 46.3384 26.4632 46.3384C26.4632 46.4501 26.5748 46.4501 26.5748 46.5617C26.6865 46.8967 26.6865 47.12 26.3515 47.2317C26.1282 47.3434 25.9049 47.455 25.6816 47.455C25.3466 47.455 25.0116 47.455 24.6766 47.455C24.3416 47.455 24.1183 47.2317 23.895 47.12C23.7833 47.0084 23.56 47.0084 23.4484 46.8967C23.3367 47.1201 23.3367 47.1201 23.7833 47.3434C23.56 47.6783 23.3367 47.5667 22.8901 47.12C22.7784 47.2317 22.7784 47.3434 22.7784 47.455C22.7784 47.5667 22.7784 47.6783 22.5551 47.6783C22.4434 47.6783 22.4434 47.5667 22.4434 47.455C22.4434 47.2317 22.4434 47.1201 22.5551 46.8967C22.4434 46.8967 22.4434 46.8967 22.3318 47.0084C22.2201 47.1201 22.2201 47.3434 22.1085 47.455C21.9968 47.5667 21.9968 47.79 21.7735 47.79C21.5502 47.455 21.8851 47.2317 21.8851 46.8967C21.5502 47.0084 21.6618 47.455 21.3269 47.5667C21.2152 47.455 21.1035 47.455 21.2152 47.2317C21.2152 47.12 21.2152 47.0084 21.2152 46.8967C21.1035 47.1201 21.2152 47.2317 21.2152 47.2317C21.1035 47.2317 21.1035 47.2317 20.9919 47.3434C20.7686 47.3434 20.7686 47.3434 20.6569 47.12C20.6569 47.0084 20.6569 46.8967 20.6569 46.7851C20.2103 47.2317 20.2103 47.2317 19.9869 46.8967C19.652 47.1201 19.5403 47.0084 19.5403 46.6734C19.317 46.6734 19.317 46.8967 19.2053 47.0084C18.8704 47.0084 18.982 46.7851 18.982 46.5617C18.8704 46.6734 18.7587 46.7851 18.647 46.8967L18.5354 47.0084C18.4237 47.0084 18.4237 47.0084 18.3121 47.0084C18.3121 47.0084 18.2004 46.8967 18.3121 46.7851C18.4237 46.6734 18.4237 46.5618 18.5354 46.3384C18.3121 46.1151 18.0887 46.0035 17.8654 45.6685C17.9771 46.1151 17.6421 46.2268 17.5304 46.4501C17.5304 46.4501 17.4188 46.4501 17.3071 46.4501C17.3071 46.3385 17.3071 46.3384 17.3071 46.2268C17.3071 46.1151 17.4188 46.1151 17.4188 46.0034C17.1955 45.8918 17.0838 45.6685 17.1955 45.4452C17.1955 45.3335 17.3071 45.2219 17.3071 45.1102C17.3071 44.8869 17.3071 44.7752 17.0838 44.6636C16.6372 44.5519 16.0789 44.4402 15.6322 44.3286C14.739 44.1052 13.9574 43.9936 13.0641 43.7703C12.1708 43.547 11.1659 43.212 10.2726 42.877C9.60267 42.6537 8.93271 42.3187 8.26276 42.0954C7.59281 41.8721 6.92285 41.5371 6.36456 41.2021C5.91792 40.8672 5.35963 40.5322 4.91299 40.1972C4.24304 39.7506 3.57309 39.0806 3.01479 38.5223C2.67981 38.1873 2.4565 37.8524 2.23318 37.5174C1.8982 36.9591 1.56323 36.5124 1.22825 35.9541C0.781615 35.2842 0.558296 34.5026 0.446637 33.8326C0.334978 33.1627 0.22332 32.4927 0.111661 31.8228C2.55401e-06 31.2645 0 30.5945 0 30.0362C0 29.5896 2.55401e-06 29.143 0.111661 28.6963C0.334979 27.1331 0.893274 25.7932 1.78655 24.4533C2.12152 23.895 2.4565 23.225 3.01479 22.6667C3.46143 22.1084 4.01972 21.6618 4.57802 21.1035C5.47129 20.3219 6.47622 19.7636 7.5928 19.2053C8.37442 18.8703 9.04437 18.5354 9.71433 18.2004C10.0493 18.0887 10.3843 17.9771 10.7193 17.7538C11.2776 17.5304 11.8358 17.3071 12.3941 17.0838C13.0641 16.8605 13.734 16.5255 14.404 16.1905C15.1856 15.7439 15.9672 15.1856 16.6372 14.404C17.0838 13.9574 17.5304 13.5107 17.8654 12.9524C18.0887 12.6175 18.3121 12.2825 18.4237 11.8359C18.7587 11.0542 18.982 10.3843 19.2053 9.60267C19.2053 9.37935 19.317 9.15602 19.2053 8.82105C19.0937 8.48607 19.2053 8.26277 19.317 7.92779C19.652 8.03945 19.317 8.26277 19.5403 8.48608C19.652 8.59774 19.5403 8.82106 19.652 9.04438C19.7636 8.82106 19.8753 8.26274 19.7636 8.03942C19.652 7.70444 19.652 7.25781 19.5403 6.92283V6.8112C19.7636 6.69954 19.8753 6.4762 20.0986 6.36454C20.3219 6.25288 20.4336 6.02957 20.6569 5.91791C20.8802 5.69459 21.2152 5.69459 21.4385 5.91791C21.5502 5.80625 21.6618 5.6946 21.6618 5.58295C21.6618 5.47129 21.7735 5.35961 21.8851 5.24795C22.4434 4.68965 22.8901 4.13136 23.2251 3.57306C23.2251 3.57306 23.3367 3.46143 23.4484 3.34977C23.4484 3.68474 23.2251 4.01971 23.1134 4.35469C23.3367 4.13137 23.56 3.57309 23.895 2.23318C24.1183 1.56322 24.1183 0.781612 24.3416 0C24.565 0.111659 24.7883 0.223304 25.0116 0.334963C25.2349 0.446622 25.2349 0.558274 25.1233 0.781592C25.0116 1.00491 25.0116 1.22823 24.7883 1.45155C24.7883 1.45155 24.7883 1.56322 24.7883 1.67488C24.6766 2.67981 24.565 3.79639 24.4533 4.80132C24.4533 5.02464 24.3416 5.24795 24.3416 5.35961C24.3416 4.91298 24.4533 4.3547 24.4533 3.90806C24.3416 4.13138 24.23 4.35468 24.1183 4.68965C24.1183 4.57799 24.0067 4.57802 24.0067 4.46636C24.1183 4.01972 24.23 3.46141 24.3416 3.01477C24.565 2.56813 24.565 2.12152 24.565 1.67488C24.3416 2.12152 24.3416 2.56813 24.23 3.01477C24.1183 3.46141 24.0067 3.90805 23.895 4.35469C23.895 3.46142 24.23 2.67979 24.23 1.89818C24.1183 2.23316 24.0067 2.56816 24.0067 2.90314C23.895 3.68475 23.6717 4.46634 23.56 5.24795C23.56 5.35961 23.56 5.35962 23.56 5.47128C23.56 5.6946 23.56 5.80624 23.7833 5.80624C23.7833 5.9179 23.895 6.02958 23.895 6.14124C23.895 6.2529 23.895 6.36454 23.7833 6.4762C23.4484 7.0345 23.1134 7.59279 22.7784 8.15109C22.5551 8.70938 22.3318 9.26768 22.1085 9.82597C21.8851 10.4959 21.7735 11.1659 21.6618 11.8359C21.5502 12.2825 21.5502 12.8408 21.4385 13.3991C21.4385 13.5107 21.4385 13.6224 21.4385 13.734C21.2152 13.734 21.2152 13.6224 21.2152 13.5107C21.2152 13.0641 21.2152 12.6174 21.2152 12.1708C21.2152 11.9475 21.2152 11.8358 21.2152 11.6125C21.2152 11.3892 21.3269 11.1659 21.2152 10.9426C21.4385 10.1609 21.7735 9.37933 21.9968 8.59772C21.8851 8.59772 21.8851 8.70938 21.8851 8.70938C21.7735 9.15602 21.5502 9.491 21.4385 9.93764C21.3269 10.2726 21.3269 10.6076 21.2152 10.9426L21.1035 11.0542C20.9919 11.6125 20.7686 12.1708 20.7686 12.7291C20.7686 13.0641 20.6569 13.5107 20.5452 13.8457C20.5452 13.8457 20.6569 13.8457 20.6569 13.9574V13.8457C20.7686 13.8457 20.7686 13.734 20.8802 13.8457C20.8802 13.8457 20.9919 13.9574 20.9919 14.069C20.9919 14.2923 20.8802 14.404 20.8802 14.6273C20.9919 14.5157 20.9919 14.404 21.1035 14.404C21.2152 14.404 21.2152 14.2923 21.3269 14.2923C21.3269 14.2923 21.4385 14.404 21.4385 14.5157V14.6273C21.5502 14.739 21.7735 14.739 21.7735 14.9623C21.7735 15.0739 21.7735 15.2973 21.7735 15.5206C22.1085 15.4089 22.2201 15.0739 22.3318 14.8506C22.7784 14.069 23.0017 13.1758 23.3367 12.2825C23.4484 12.1708 23.4484 11.9475 23.56 11.9475C23.6717 11.9475 23.6717 11.8358 23.6717 11.7242C23.7833 11.2775 24.0067 10.9426 24.0067 10.4959C24.23 9.71432 24.4533 8.93271 24.565 8.26275C24.6766 7.14616 24.7883 6.02957 24.8999 4.91299C24.8999 4.68967 24.8999 4.57801 24.8999 4.35469C24.8999 4.24303 24.8999 4.13138 24.8999 3.90806C24.8999 3.90806 24.8999 3.90806 24.7883 3.90806C24.6766 4.68967 24.565 5.35963 24.4533 6.14124C24.4533 5.13631 24.6766 4.24302 24.7883 3.12644C24.8999 3.23809 24.8999 3.23811 25.0116 3.34977C25.0116 3.01479 25.0116 2.67979 25.0116 2.45648C25.0116 2.23316 24.8999 1.8982 25.0116 1.67488C25.2349 1.78654 25.2349 1.89819 25.2349 2.00985C25.2349 2.56814 25.3466 3.01477 25.3466 3.57306C25.3466 3.68472 25.3466 3.68474 25.3466 3.7964C25.4582 3.90805 25.5699 3.90807 25.6816 4.01973C25.6816 3.79641 25.6815 3.68475 25.5699 3.46143C25.4582 3.12646 25.4582 2.67982 25.3466 2.34484C25.3466 2.23318 25.3466 2.00984 25.3466 1.89818C25.5699 2.00984 25.5699 2.12152 25.5699 2.23318C25.6815 2.90313 25.9049 3.57307 26.0165 4.24302C26.0165 4.35468 26.1282 4.57799 26.1282 4.68965C26.1282 4.80131 26.0165 4.91299 26.0165 5.02465C26.0165 5.02465 26.0165 5.02465 25.9049 5.02465C25.9049 4.80133 25.7932 4.578 25.7932 4.24302H25.6816C25.6816 4.35468 25.6816 4.46636 25.6816 4.57802C25.5699 5.58295 25.4582 6.69953 25.3466 7.70446C25.1233 8.93271 24.8999 10.1609 24.6766 11.3892C24.565 12.1708 24.23 12.8408 24.0067 13.5107C23.895 13.7341 23.895 13.8457 24.0067 14.069C24.1183 14.2923 24.0067 14.404 23.895 14.5157C23.6717 14.6273 23.6717 14.8506 23.56 15.074C23.4484 15.6322 23.3367 16.1905 23.2251 16.7488C23.2251 16.8605 23.2251 16.8605 23.1134 16.9721C23.1134 16.9721 23.1134 16.9721 23.0017 16.9721C23.0017 16.8605 23.0017 16.7488 23.0017 16.6372C23.0017 16.4139 23.1134 16.0789 23.1134 15.8555C23.1134 15.7439 23.2251 15.6322 23.0017 15.5206C23.0017 15.5206 23.0017 15.4089 23.0017 15.2972C23.0017 15.0739 23.1134 14.9623 23.1134 14.739C23.1134 14.739 23.1134 14.739 23.0017 14.739L22.8901 14.8506C22.4434 15.9672 22.1085 17.0838 21.9968 18.2004C21.8851 19.0937 21.7735 20.0986 21.5502 20.9919C21.4385 21.4385 21.3269 21.9968 21.2152 22.4434C20.8802 23.4484 20.4336 24.4533 19.9869 25.4582C19.7636 26.0165 19.5403 26.4631 19.317 27.0214C19.317 27.1331 19.2053 27.2448 18.982 27.2448V27.1331C19.7636 25.6815 20.3219 24.0067 20.8802 22.4434C21.2152 21.6618 21.3269 20.7685 21.3269 19.8753C21.3269 19.2053 21.3269 18.5354 21.3269 17.9771C21.3269 17.3071 21.4385 16.6372 21.5502 15.8555V15.7439C21.4385 15.7439 21.3269 15.7439 21.2152 15.7439C21.1035 15.9672 20.9919 16.1905 20.9919 16.4138C20.7686 17.1955 20.4336 17.9771 19.9869 18.647C19.7636 19.0937 19.5403 19.5403 19.317 19.8753C19.0937 20.4336 18.7587 20.8802 18.4237 21.3269C17.8654 22.2201 17.4188 23.1134 16.9722 24.0067C16.6372 24.7883 16.4139 25.5699 16.3022 26.3515C16.3022 26.4632 16.1905 26.6865 16.1905 26.7981C16.0789 26.6865 16.0789 26.5748 16.0789 26.4631C16.1905 26.0165 16.3022 25.5699 16.4139 25.2349C16.5255 24.6766 16.7488 24.1183 16.9722 23.56C17.3071 22.5551 17.8654 21.6618 18.4237 20.7686C18.647 20.3219 18.982 19.8753 19.0937 19.4286C19.2053 18.982 19.4287 18.647 19.652 18.2004C19.9869 17.3071 20.4336 16.5255 20.6569 15.6322C20.6569 15.5206 20.6569 15.5206 20.7686 15.4089C20.7686 15.2973 20.8802 15.0739 20.6569 14.9623C20.6569 14.9623 20.5452 14.8506 20.5452 14.739C20.3219 14.9623 20.0986 15.1856 19.9869 15.6322C19.8753 16.0789 19.5403 16.5255 19.4286 16.9721C19.317 17.3071 19.0937 17.7537 18.982 18.0887C18.647 19.2053 18.0887 20.2103 17.4188 21.2152C16.7488 22.1085 16.0789 23.0017 15.2973 23.7833C14.8506 24.23 14.404 24.7883 14.069 25.2349C13.5107 26.0165 12.9524 26.9098 12.3941 27.6914C12.1708 28.0264 12.0592 28.3613 11.9475 28.6963C11.6125 29.5896 11.3892 30.4829 11.3892 31.3762C11.3892 31.9345 11.3892 32.3811 11.5009 32.9394C11.6125 33.6093 11.7242 34.1676 11.9475 34.8376C12.0592 35.2842 12.2825 35.7308 12.6175 36.1775C12.8408 36.5125 13.0641 36.8474 13.2874 37.1824C13.6224 37.7407 14.069 38.1873 14.6273 38.5223C14.404 38.1873 13.9574 37.8524 13.8457 37.4057C14.404 38.0757 15.074 38.634 15.7439 39.1923C16.4139 39.7506 17.1955 40.0855 18.0887 40.4205C17.9771 40.4205 17.9771 40.5322 17.9771 40.5322C16.8605 40.4205 15.9672 40.0855 15.074 39.4156C14.404 38.8573 13.734 38.4107 13.2874 37.7407C12.7291 37.0707 12.2825 36.2891 11.8358 35.5075C11.7242 35.3959 11.7242 35.1725 11.6125 34.9492C11.2776 33.721 11.0542 32.4927 11.1659 31.2645C11.1659 31.0412 11.1659 30.8179 11.2776 30.5945C11.5009 29.8129 11.6125 29.0313 11.9475 28.2497C12.0592 27.8031 12.3941 27.4681 12.6175 27.0214C12.7291 26.7981 12.8408 26.6865 12.9524 26.4631L13.0641 26.3515C13.0641 25.9049 13.3991 25.5699 13.6224 25.2349C14.1807 24.4533 14.739 23.6717 15.5206 22.8901C15.9672 22.4434 16.3022 21.8852 16.6372 21.3269C16.9722 20.6569 17.4188 20.0986 17.7538 19.4286C17.8654 19.317 17.9771 19.0937 17.9771 18.982C18.3121 18.4237 18.647 17.8654 18.8704 17.1955C18.982 16.9721 19.0937 16.6372 19.2053 16.3022C19.4287 15.7439 19.5403 15.074 19.7636 14.5157C19.8753 14.2923 19.9869 13.9573 20.0986 13.734C20.2103 13.1757 20.3219 12.7291 20.4336 12.1708C20.6569 11.1659 20.8802 10.1609 21.2152 9.15601C21.4385 8.70937 21.5502 8.26277 21.7735 7.92779C21.8852 7.70447 22.1085 7.48115 22.2201 7.25783C21.9968 7.14617 21.9968 7.03449 22.1085 6.92283C22.1085 6.69951 22.2201 6.58786 22.2201 6.36454C22.2201 6.25288 22.2201 6.14123 22.3318 6.02957C22.1085 6.02957 22.1085 6.14122 22.1085 6.36454C21.9968 6.81117 21.8852 7.14616 21.7735 7.59279C21.7735 7.70445 21.6618 7.70446 21.6618 7.81612C21.5502 7.59281 21.7735 7.36948 21.7735 7.14616C21.7735 6.92285 21.8851 6.69952 21.8851 6.4762C21.7735 6.58786 21.6618 6.58787 21.6618 6.58787C21.4385 6.81119 21.3269 6.92285 21.2152 7.14616C20.9919 7.36948 20.9919 7.59281 20.8802 7.81612C20.7686 8.59774 20.6569 9.37935 20.4336 10.0493C20.3219 10.7193 20.0986 11.5009 19.9869 12.1708C19.9869 12.3941 19.8753 12.6175 19.8753 12.8408C19.8753 12.8408 19.8753 12.8408 19.9869 12.8408C20.0986 12.5058 20.2103 12.0592 20.3219 11.7242C20.4336 11.3892 20.4336 10.9426 20.6569 10.6076C20.6569 10.6076 20.6569 10.6076 20.7686 10.6076C20.7686 10.7193 20.7686 10.7192 20.7686 10.8309C20.6569 11.2775 20.5452 11.8358 20.4336 12.2825C20.4336 12.3941 20.4336 12.6174 20.3219 12.7291C20.2103 12.9524 20.2103 13.2874 20.0986 13.5107C19.9869 13.9574 19.7636 14.2923 19.652 14.739C19.652 14.8506 19.5403 14.9623 19.317 15.074C19.2053 15.074 19.0937 15.4089 18.982 15.5206C18.8704 16.3022 18.5354 16.9721 18.2004 17.6421C17.8654 18.2004 17.5304 18.8703 16.9722 19.317C16.9722 19.2053 17.0838 19.2053 17.0838 19.0937C17.6421 18.3121 18.0887 17.5304 18.4237 16.5255C18.5354 16.3022 18.5354 16.0789 18.5354 15.8555L18.4237 15.9672C18.2004 16.3022 17.8654 16.6372 17.6421 16.9721C17.6421 16.9721 17.5304 17.0838 17.5304 17.1955C17.6421 17.4188 17.4188 17.6421 17.3071 17.7538C16.8605 18.5354 16.3022 19.2053 15.6322 19.8753L15.5206 19.9869C16.0789 19.2053 16.6372 18.5354 17.0838 17.6421C16.9722 17.7538 16.7488 17.9771 16.6372 18.0887C15.4089 19.317 14.1807 20.6569 12.8408 21.7735C11.6125 22.8901 10.6076 24.1183 9.49101 25.3466C8.59774 26.4631 7.81612 27.6914 7.48115 29.143C7.36949 29.7013 7.25783 30.2596 7.36949 30.7062C7.36949 31.3762 7.36949 32.1578 7.5928 32.8277C7.81612 33.9443 8.26276 34.8376 8.93271 35.7309C9.15603 36.0658 9.37935 36.2891 9.60267 36.6241C10.161 37.4057 10.9426 38.0757 11.7242 38.634C12.1708 38.969 12.5058 39.3039 12.9524 39.6389C13.0641 39.7506 13.1758 39.8622 13.3991 39.9739C13.3991 39.8622 13.2874 39.7506 13.2874 39.7506C13.5107 39.8622 13.734 39.9739 13.9574 40.1972C14.6273 40.6438 15.4089 41.2021 16.1905 41.5371C16.3022 41.5371 16.4139 41.6488 16.5255 41.6488C16.7488 41.7604 16.8605 41.7604 16.8605 42.0954C17.0838 42.0954 17.1955 42.0954 17.4188 42.2071C17.1955 42.542 16.9722 42.3187 16.7488 42.4304C16.7488 42.542 16.7488 42.6537 16.7488 42.7653C16.4139 42.7653 16.1905 42.7653 15.8556 42.6537C14.739 42.3187 13.734 41.7604 12.8408 41.0905C12.2825 40.6438 11.6125 40.1972 11.1659 39.7506C10.7193 39.3039 10.2726 38.8573 9.82598 38.4107C9.71432 38.299 9.60267 38.1873 9.71433 37.964C9.82598 37.964 9.82598 37.964 9.82598 38.0757C10.3843 38.8573 11.0542 39.4156 11.7242 39.9739C12.5058 40.6438 13.2874 41.2021 14.1807 41.7604C14.739 42.0954 15.4089 42.3187 16.0789 42.5421C16.1905 42.5421 16.3022 42.6537 16.5255 42.6537C16.5255 42.6537 16.5255 42.6537 16.5255 42.5421C16.4139 42.4304 16.3022 42.4304 16.1905 42.3187C15.5206 41.9837 14.8506 41.6488 14.1807 41.3138C13.8457 41.2021 13.6224 40.8672 13.3991 40.7555C12.6175 40.1972 11.8358 39.6389 11.0542 38.969C10.2726 38.299 9.49101 37.5174 8.93271 36.6241C8.48608 36.0658 8.03944 35.3959 7.81612 34.7259C7.48115 33.9443 7.25783 33.1627 7.25783 32.3811C7.25783 31.5995 7.14617 30.8179 7.25783 30.1479C7.48115 28.808 7.92778 27.4681 8.82106 26.3515C9.82599 25.0116 10.9426 23.6717 12.2825 22.4434C13.0641 21.7735 13.8457 20.9919 14.5157 20.3219C14.8506 19.9869 15.1856 19.6519 15.5206 19.2053C15.4089 19.0937 15.5206 18.982 15.6322 18.8703C16.5255 17.7538 17.5304 16.6372 18.4237 15.5206C18.647 15.2973 18.7587 15.0739 18.982 14.739C18.7587 14.8506 18.647 14.8506 18.4237 14.9623C18.3121 14.9623 18.3121 15.074 18.2004 15.074C18.0887 15.1856 17.9771 15.4089 17.8654 15.5206C17.3071 16.3022 16.6372 17.0838 15.9672 17.7538C15.8556 17.8654 15.7439 17.8654 15.6322 17.9771C15.5206 18.0887 15.4089 18.2004 15.4089 18.3121C15.4089 18.4237 15.2973 18.4237 15.2973 18.5354C14.6273 19.317 13.8457 19.9869 13.0641 20.6569C13.0641 20.6569 12.9524 20.6569 12.8408 20.6569C13.6224 19.9869 14.404 19.317 15.074 18.4237C14.8506 18.5354 14.6273 18.7587 14.404 18.8703C13.8457 19.2053 13.2874 19.652 12.7291 19.9869C12.1708 20.3219 11.6125 20.6569 11.0542 21.1035C10.9426 21.2152 10.8309 21.3269 10.7193 21.2152H10.6076C10.161 21.4385 9.82599 21.7735 9.37935 21.9968C8.37442 22.6667 7.48115 23.56 6.69953 24.4533C6.36456 24.7883 6.14124 25.1232 5.80626 25.5699C5.13631 26.5748 4.80134 27.5797 4.57802 28.6963C4.57802 28.808 4.57802 28.808 4.57802 28.9197C4.46636 29.3663 4.46636 29.9246 4.46636 30.4829C4.57802 31.1528 4.57802 31.7111 4.57802 32.3811C4.68968 33.6093 5.13631 34.7259 5.91792 35.7309C6.36456 36.2891 6.8112 36.9591 7.36949 37.5174C8.37442 38.634 9.49101 39.5273 10.7193 40.3089C11.1659 40.6438 11.7242 40.9788 12.1708 41.2021C13.1758 41.7604 14.2923 42.207 15.2973 42.6537C15.9672 42.877 16.6372 43.1003 17.1955 43.212C17.3071 43.212 17.4188 43.212 17.5304 43.212C17.5304 43.1003 17.5304 42.877 17.6421 42.7653C17.6421 42.6537 17.6421 42.6537 17.7538 42.5421L17.8654 42.4304L17.9771 42.5421C17.9771 42.7654 17.9771 42.877 17.9771 43.1003C17.9771 43.212 17.9771 43.212 17.9771 43.3236C18.0887 43.3236 18.3121 43.4353 18.4237 43.4353C18.3121 43.6586 18.0887 43.6586 17.9771 43.6586C17.7538 43.6586 17.4188 43.547 17.1955 43.4353C16.7488 43.3236 16.4139 43.212 15.9672 43.1003C15.6322 42.9887 15.2973 42.877 14.9623 42.6537C13.734 42.207 12.5058 41.6488 11.3892 40.9788C10.7193 40.5322 10.0493 40.0855 9.37935 39.6389C8.59774 39.0806 7.92778 38.4107 7.25783 37.8524C6.14124 36.7358 5.13631 35.6192 4.57802 34.1676C4.24304 33.386 4.13138 32.4927 4.01972 31.7111C4.01972 31.1528 3.90806 30.5945 3.90806 30.0362C3.90806 29.2546 4.01972 28.473 4.3547 27.6914C4.80133 26.3515 5.35963 25.2349 6.36456 24.23C6.81119 23.6717 7.25783 23.1134 7.81612 22.6667C8.48608 22.1084 9.26769 21.5502 10.0493 21.1035C10.3843 20.8802 10.7193 20.6569 11.0542 20.4336C11.5009 20.2102 11.9475 19.8753 12.3941 19.652C13.1758 19.0937 14.069 18.5354 14.8506 17.9771C15.7439 17.3071 16.6372 16.5255 17.1955 15.5206C17.3071 15.2973 17.5304 15.0739 17.6421 14.8506C17.7538 14.739 17.7538 14.6273 17.7538 14.5157C17.7538 14.5157 17.6421 14.5157 17.6421 14.6273C17.5304 14.739 17.4188 14.8506 17.1955 14.9623L17.0838 15.074C16.9722 15.5206 16.6372 15.8556 16.3022 16.0789C15.8556 16.4139 15.4089 16.7488 15.074 17.0838C14.404 17.6421 13.734 17.9771 12.9524 18.4237C12.9524 18.4237 12.8408 18.4237 12.8408 18.5354C12.6175 18.8704 12.1708 18.982 11.8358 19.2053C11.2776 19.5403 10.6076 19.7636 10.0493 20.0986C9.93764 20.2103 9.82599 20.2102 9.60267 20.3219C9.49101 20.3219 9.37935 20.4336 9.26769 20.3219C9.15603 20.3219 9.04437 20.3219 9.04437 20.4336C8.59774 20.6569 8.1511 20.9919 7.70447 21.3269C6.8112 21.8852 6.14124 22.5551 5.47129 23.225C5.13631 23.6717 4.68968 24.0067 4.3547 24.4533C4.3547 24.4533 4.3547 24.4533 4.24304 24.4533C4.3547 24.23 4.46636 24.0067 4.57802 23.895C4.68968 23.7833 4.80133 23.6717 4.91299 23.56C5.24797 23.3367 5.58295 22.8901 5.69461 22.6667C5.35963 22.8901 5.02465 23.2251 4.91299 23.56C4.80133 23.6717 4.68968 23.7833 4.57802 23.895C4.13138 24.23 3.90806 24.6766 3.57309 25.1233C3.12645 25.6815 2.79147 26.2398 2.56815 26.9098C2.23318 27.6914 1.8982 28.5847 1.78655 29.4779C1.67489 30.5945 1.78654 31.7111 2.12152 32.8277C2.4565 33.721 2.79147 34.6142 3.23811 35.5075C3.7964 36.5124 4.46636 37.4057 5.24797 38.1873C5.91792 38.8573 6.69954 39.4156 7.48115 39.9739C8.03944 40.4205 8.70939 40.7555 9.26769 41.0905C9.93764 41.4254 10.6076 41.8721 11.3892 42.2071C12.3941 42.6537 13.2874 43.1003 14.2923 43.4353C15.1856 43.7703 16.1905 43.882 17.0838 44.1053C17.5304 44.2169 17.8654 44.4402 18.2004 44.5519C18.4237 44.6636 18.5354 44.7752 18.7587 44.6636C18.7587 44.6636 18.8704 44.6636 18.982 44.7752C18.8704 44.9985 18.647 45.2218 18.5354 45.4452C18.7587 45.2218 18.982 45.1102 19.2053 44.8869C19.2053 44.7752 19.0937 44.6636 19.0937 44.5519C19.4287 44.5519 19.652 44.5519 19.9869 44.5519C20.6569 44.6636 21.2152 44.8869 21.8851 44.9985C22.2201 45.1102 22.6668 45.2219 23.0017 45.2219C23.7833 45.2219 24.6766 45.2219 25.4582 45.2219C25.4582 44.9985 25.6815 44.8869 25.9049 44.8869C26.1282 44.8869 26.2398 44.7752 26.4632 44.7752C26.3515 44.6636 26.3515 44.6636 26.2398 44.5519C26.3515 44.5519 26.4632 44.5519 26.5748 44.5519C28.3614 44.6636 30.0362 44.1052 31.4878 43.212C32.0461 42.877 32.7161 42.542 33.2744 42.0954C34.6143 41.2021 35.9542 40.1972 36.9591 38.8573C37.964 37.5174 38.7456 36.0658 39.0806 34.3909C39.3039 33.4977 39.3039 32.6044 39.0806 31.7111C38.969 31.1528 38.969 30.5945 38.8573 30.0362C38.7456 29.3663 38.4107 28.6963 37.964 28.138C37.6291 27.6914 37.2941 27.2448 36.9591 26.7981C36.6241 26.2398 36.1775 25.5699 35.6192 25.1233C35.5075 25.0116 35.3959 24.7883 35.1726 24.6766C34.8376 24.3416 34.5026 23.895 34.2793 23.56C34.1676 23.4484 34.056 23.225 33.9443 23.1134C33.9443 23.1134 33.9443 23.0017 33.8326 23.0017C33.051 22.2201 32.2694 21.4385 31.3762 20.6569C31.3762 20.6569 31.3762 20.6569 31.2645 20.6569C31.2645 20.7686 31.3762 20.8802 31.3762 20.9919C32.0461 21.8851 32.7161 22.7784 33.386 23.56C34.3909 24.8999 35.2842 26.2398 35.8425 27.8031C36.0658 28.3614 36.1775 29.0313 36.2891 29.5896C36.4008 30.3712 36.5125 31.0412 36.4008 31.8228C36.4008 32.4927 36.2891 33.1627 36.1775 33.721C36.0658 34.6142 35.6192 35.5075 35.2842 36.4008C34.7259 37.6291 33.9443 38.7456 33.1627 39.7506C32.4927 40.6438 31.7111 41.4255 30.7062 41.9838C30.0363 42.4304 29.2546 42.877 28.473 43.212C28.2497 43.3236 27.9147 43.547 27.6914 43.6586C27.6914 43.882 27.8031 43.8819 28.0264 43.7703C28.6963 43.547 29.2546 43.3237 29.9246 43.1003C30.0362 43.1003 30.1479 42.9887 30.2596 42.9887C30.2596 42.9887 30.2596 42.9887 30.2596 43.1003L30.1479 43.212C29.3663 43.547 28.5847 43.7703 27.8031 44.1053C27.5797 44.2169 27.2448 44.2169 27.0215 44.1053C26.9098 43.9936 26.6865 44.1053 26.5748 44.1053C26.4632 44.1053 26.2398 44.2169 26.1282 44.2169C26.0165 44.2169 25.9049 44.2169 25.7932 44.1053C25.7932 43.9936 25.9049 43.882 26.0165 43.6586C26.1282 43.6586 26.3515 43.547 26.5748 43.547C27.6914 43.4353 28.808 42.9887 29.8129 42.4304C30.2596 42.2071 30.7062 41.9837 31.1528 41.6488C32.0461 40.9788 32.9394 40.1972 33.4977 39.0806C33.9443 38.1873 34.5026 37.4057 34.9492 36.5124C35.5075 35.6192 35.7309 34.6143 35.9542 33.4977C36.0658 32.9394 36.2891 32.3811 36.4008 31.8228C36.4008 31.7111 36.4008 31.5995 36.4008 31.5995C36.4008 30.2596 36.2891 29.0313 35.8425 27.8031C35.7309 27.4681 35.6192 27.2448 35.3959 26.9098C35.5075 27.5798 35.7309 28.2497 35.8425 28.9197C35.9542 29.5896 36.0658 30.2596 35.9542 31.0412C35.8425 30.1479 35.7308 29.3663 35.6192 28.473C35.5075 27.5798 35.1726 26.7981 34.8376 26.0165C34.8376 26.0165 34.9492 25.9048 35.0609 25.9048C34.9492 25.6815 34.8376 25.4582 34.6143 25.2349C34.056 24.4533 33.6093 23.7833 32.9394 23.1134C32.8277 23.0017 32.7161 22.8901 32.7161 22.7784C32.3811 22.2201 31.9344 21.7735 31.5995 21.2152C31.5995 21.2152 31.5995 21.2152 31.4878 21.2152C31.8228 21.7735 32.1578 22.3318 32.2694 23.0017L32.1578 22.8901C31.8228 22.4434 31.5995 21.8851 31.2645 21.4385C31.0412 21.1035 30.9295 20.6569 30.7062 20.3219C30.4829 19.7636 30.1479 19.317 29.8129 18.8703C29.7013 18.7587 29.7013 18.647 29.5896 18.5354C29.2546 17.7538 29.0313 17.0838 28.6963 16.3022C28.6963 16.1905 28.6963 16.1905 28.6963 16.0789C28.6963 16.0789 28.6963 16.0789 28.808 16.0789C28.9197 16.3022 29.0313 16.6372 29.143 16.8605C29.3663 17.3071 29.478 17.8654 29.7013 18.3121C29.8129 18.4237 29.8129 18.5354 29.9246 18.647C29.5896 17.6421 29.2546 16.6372 28.808 15.5206C28.6963 15.6322 28.6963 15.8556 28.3614 15.6322C28.3614 15.9672 28.473 16.3022 28.5847 16.6372C28.9197 17.7538 29.3663 18.7587 29.9246 19.7636C30.1479 20.2102 30.4829 20.6569 30.7062 21.1035C30.8179 21.2152 30.9295 21.4385 30.9295 21.6618C30.9295 21.6618 30.8179 21.6618 30.8179 21.5502C30.5945 21.3268 30.4829 21.1035 30.2596 20.8802C30.3712 20.7685 30.2596 20.7686 30.1479 20.6569C30.1479 20.5452 30.1479 20.4336 29.9246 20.3219C30.0362 20.4336 30.1479 20.5452 30.1479 20.6569ZM22.6668 8.37442C22.8901 8.1511 23.0017 7.92777 23.0017 7.59279C22.8901 7.92777 22.7784 8.1511 22.6668 8.37442C22.6668 8.48608 22.5551 8.59772 22.5551 8.70938C22.5551 8.70938 22.5551 8.70938 22.6668 8.70938C22.6668 8.59772 22.6668 8.48608 22.6668 8.37442ZM20.7686 18.0887C20.9919 17.8654 21.2152 17.4188 21.2152 17.0838C21.1035 17.3071 21.1035 17.4188 20.9919 17.6421C20.8802 17.7538 20.7686 17.9771 20.7686 18.0887C20.6569 18.2004 20.5452 18.3121 20.5452 18.4237C20.5452 18.4237 20.5452 18.4237 20.6569 18.4237C20.6569 18.4237 20.6569 18.2004 20.7686 18.0887ZM4.46636 39.4156C4.46636 39.5272 4.57802 39.5273 4.57802 39.6389C4.57802 39.6389 4.57802 39.6389 4.68967 39.5272C4.57802 39.5272 4.46636 39.4156 4.46636 39.4156C4.3547 39.3039 4.3547 39.1923 4.24304 39.0806C4.01972 38.8573 3.7964 38.634 3.57309 38.4107C3.46143 38.299 3.34977 38.0757 3.23811 37.964C3.23811 38.0757 3.23811 38.0757 3.23811 38.0757C3.57309 38.4107 3.90806 38.8573 4.24304 39.1923C4.24304 39.3039 4.3547 39.3039 4.46636 39.4156ZM43.3237 30.0362C43.3237 30.1479 43.3237 30.2595 43.3237 30.3712C43.3237 30.3712 43.3237 30.3712 43.4353 30.3712C43.4353 30.2595 43.4353 30.1479 43.3237 30.0362C43.212 29.5896 43.212 29.143 43.1003 28.6963C43.1003 28.473 42.9887 28.138 42.7654 27.9147C42.7654 28.0264 42.7654 28.138 42.7654 28.138C42.877 28.5847 42.9887 29.0313 43.1003 29.4779C43.212 29.7013 43.3237 29.9246 43.3237 30.0362ZM19.4286 12.6174C19.652 12.5058 19.652 12.2825 19.7636 12.0591C19.8753 11.9475 19.8753 11.8358 19.9869 11.7242C19.9869 12.0592 19.7636 12.3941 19.7636 12.6174C19.652 12.9524 19.5403 13.1758 19.5403 13.5107C19.5403 13.5107 19.5403 13.5107 19.652 13.5107C19.7636 13.3991 19.7636 13.1757 19.8753 13.0641C20.2103 12.2825 20.4336 11.3892 20.6569 10.4959C20.8802 9.60266 20.9919 8.59773 21.1035 7.70446C21.1035 7.48114 21.3269 7.14615 21.4385 6.92283H21.5502C21.5502 6.92283 21.5502 6.8112 21.6618 6.8112C21.3268 6.8112 20.9919 7.14618 20.9919 7.36949C20.9919 7.59281 20.9919 7.92777 20.8802 8.15109C20.7686 8.70938 20.6569 9.26768 20.5452 9.82597C20.4336 10.2726 20.2103 10.8309 20.0986 11.2776C20.0986 11.5009 19.8753 11.6125 19.9869 11.8359C19.652 12.0592 19.5403 12.3941 19.4286 12.6174C19.317 12.9524 19.2053 13.2874 19.0937 13.6224C19.0937 13.6224 19.0937 13.6224 19.2053 13.6224C19.317 13.399 19.317 13.2874 19.4286 13.0641C19.4286 12.9524 19.4286 12.8408 19.4286 12.6174ZM30.0362 16.5255C30.2596 17.6421 30.7062 18.5354 31.3762 19.317C31.8228 19.8753 32.2694 20.4336 32.7161 20.9919C33.1627 21.5502 33.6093 22.1084 34.056 22.5551C35.0609 23.56 36.0658 24.565 37.0708 25.5699C37.7407 26.3515 38.4107 27.1331 38.969 27.9147C39.4156 28.473 39.6389 29.2546 39.8622 29.9246C39.9739 30.5945 40.0856 31.2645 40.1972 31.9345C40.3089 32.8277 40.3089 33.8327 40.0855 34.7259C40.0855 34.7259 40.0855 34.8376 39.9739 34.9492C39.9739 34.8376 39.9739 34.8376 39.9739 34.8376C39.9739 34.7259 39.9739 34.6143 39.9739 34.6143C40.0855 33.8326 40.0855 32.9394 39.9739 32.1578C39.8622 31.5995 39.7506 30.9295 39.7506 30.3712C39.6389 29.143 38.969 28.138 38.1873 27.2448C38.1873 27.2448 38.0757 27.2448 38.0757 27.1331C38.0757 27.2448 38.0757 27.2448 38.1873 27.3564C38.7456 28.2497 39.1923 29.3663 39.4156 30.3712C39.6389 31.2645 39.8622 32.2694 39.7506 33.1627C39.6389 33.6093 39.6389 34.1676 39.5273 34.6143C39.4156 35.3959 39.1923 36.0658 38.8573 36.7358C38.5223 37.4057 38.0757 38.0757 37.6291 38.7456C36.9591 39.6389 36.1775 40.4205 35.3959 41.0905C34.7259 41.6488 33.9443 42.207 33.1627 42.6537C33.051 42.6537 33.051 42.7653 32.9394 42.7653C32.9394 42.7653 32.9394 42.7654 32.9394 42.877C33.721 42.4304 34.5026 41.9837 35.1726 41.5371C35.9542 41.0905 36.5125 40.4205 37.1824 39.7506C37.1824 39.9739 37.1824 39.9739 37.0708 40.0855C36.4008 40.7555 35.7308 41.4255 34.9492 41.8721C34.1676 42.3187 33.386 42.7653 32.4927 43.212C31.3762 43.7703 30.2596 44.2169 29.143 44.5519C28.9197 44.6636 28.808 44.6636 28.5847 44.6636C28.3614 44.6636 28.138 44.6636 28.0264 44.6636C27.5798 44.6636 27.2448 44.8869 26.9098 44.9985C26.6865 45.1102 26.3515 45.1102 26.1282 45.2219C26.2398 45.3335 26.2398 45.4452 26.4632 45.4452C26.6865 45.3335 26.9098 45.4452 27.1331 45.2219H27.2448C27.5797 45.2219 28.0264 45.2219 28.3614 45.1102C28.6963 45.1102 29.0313 44.9985 29.3663 44.8869C29.478 44.8869 29.7013 44.7752 29.9246 44.6636C29.8129 44.6636 29.8129 44.6636 29.7013 44.6636C29.9246 44.5519 30.1479 44.5519 30.3712 44.4402C31.0412 44.2169 31.7111 43.9936 32.3811 43.6586C33.6093 43.212 34.7259 42.542 35.8425 41.7604C36.5125 41.3138 37.2941 40.7555 37.8524 40.0855C38.299 39.5272 38.7456 39.0806 39.1923 38.5223C39.9739 37.5174 40.5322 36.6241 40.8672 35.3959C41.2021 34.0559 41.4255 32.7161 41.5371 31.3762C41.5371 30.7062 41.4255 29.9246 41.2021 29.2546C40.8672 28.3613 40.5322 27.4681 40.0855 26.6865C39.6389 25.9049 39.0806 25.2349 38.4107 24.565C37.7407 23.7833 36.9591 23.225 36.1775 22.5551C35.0609 21.6618 33.9443 20.8802 32.8277 19.9869C31.9344 19.317 31.1528 18.4237 30.5945 17.4188C30.5945 17.3071 30.2596 16.9721 30.0362 16.5255ZM34.1676 43.4353C34.3909 43.4353 34.6143 43.3236 34.8376 43.212C35.5075 42.877 36.0658 42.4304 36.6241 42.0954C37.5174 41.5371 38.299 40.7555 39.1923 40.0855C39.4156 39.8622 39.7506 39.5272 39.9739 39.3039C40.0855 39.1923 40.1972 39.1923 40.1972 39.0806C40.4205 39.0806 40.4205 38.9689 40.5322 38.8573C40.7555 38.5223 40.9788 38.1873 41.2021 37.8524C41.4255 37.5174 41.6488 37.2941 41.7604 36.9591C42.2071 35.9542 42.542 34.8376 42.877 33.721C43.1003 32.716 43.212 31.7111 43.1003 30.8179C42.9887 30.0363 42.7654 29.2546 42.6537 28.5847C42.542 28.1381 42.3187 27.5797 41.9838 27.2448C41.6488 26.6865 41.2021 26.1282 40.7555 25.6815C40.1972 24.8999 39.4156 24.3416 38.7456 23.6717C38.0757 23.0017 37.2941 22.3318 36.5125 21.8852C35.6192 21.3269 34.7259 20.7686 33.8326 20.2103C33.386 19.987 32.9394 19.7636 32.7161 19.317L32.6044 19.2053C32.2694 18.982 31.9344 18.7587 31.5995 18.5354C31.4878 18.4237 31.3762 18.312 31.2645 18.2004C31.3762 18.312 31.3762 18.5354 31.4878 18.647C32.1578 19.4286 32.9394 20.2102 33.721 20.8802C34.6143 21.5501 35.6192 22.3318 36.5125 23.0017C37.1824 23.56 37.7407 24.1183 38.4107 24.565C38.634 24.7883 38.7456 25.0116 39.0806 25.0116C39.3039 25.2349 39.6389 25.4582 39.8622 25.6815C40.4205 26.3515 40.9788 27.0214 41.4255 27.8031C41.7604 28.2497 41.9838 28.6963 41.9838 29.2546C41.9838 29.3663 41.9838 29.3663 41.9838 29.4779C41.9838 29.4779 41.9838 29.4779 41.8721 29.4779C41.6488 28.5847 41.2021 27.803 40.6438 27.0214C40.0855 26.2398 39.5273 25.5699 38.7456 25.1233C38.8573 25.2349 38.969 25.3466 39.0806 25.5699C39.4156 26.0165 39.7506 26.4632 39.9739 26.9098C40.5322 27.6914 40.8672 28.5847 41.2021 29.4779C41.5371 30.2596 41.6488 31.0412 41.5371 31.8228C41.5371 33.051 41.3138 34.2793 40.9788 35.5075C40.7555 36.2891 40.4205 37.0708 39.9739 37.8524C39.1923 39.0806 38.299 40.1972 37.2941 41.2021C36.6241 41.8721 35.8425 42.4304 35.0609 42.877C35.0609 42.877 34.6143 43.212 34.1676 43.4353ZM12.3941 43.1003C12.2825 42.9887 12.0592 42.877 11.9475 42.877C11.2776 42.542 10.4959 42.2071 9.82598 41.8721C9.26769 41.6488 8.82106 41.3138 8.26276 40.9788C7.03451 40.1972 5.91792 39.4156 4.91299 38.299C4.46636 37.8524 3.90806 37.2941 3.57309 36.7358C3.01479 35.8425 2.56815 34.8376 2.23318 33.8326C2.00986 33.051 1.67489 32.2694 1.56323 31.4878C1.56323 30.8178 1.45157 30.1479 1.56323 29.5896C1.67489 28.9197 1.8982 28.2497 2.23318 27.5797C2.67981 26.3515 3.46143 25.2349 4.3547 24.23C4.80133 23.6717 5.35963 23.1134 5.91792 22.6667C6.69953 22.1084 7.48115 21.5502 8.37442 20.9919C9.04437 20.5452 9.71433 20.0986 10.4959 19.7636C11.0542 19.5403 11.6125 19.317 12.0592 19.0937C12.7291 18.7587 13.3991 18.4237 14.069 17.9771C14.1807 17.9771 14.1807 17.8654 14.1807 17.8654C13.5107 18.2004 12.7291 18.5354 12.0592 18.8703C12.0592 18.7587 12.0592 18.7587 12.1708 18.647C11.7242 18.8703 11.2776 18.982 10.8309 19.2053C10.2726 19.4286 9.82598 19.7636 9.26769 19.9869C8.70939 20.2103 8.1511 20.5452 7.5928 20.8802C6.92285 21.3268 6.14124 21.6618 5.47129 22.2201C4.68968 22.8901 3.90806 23.6717 3.34977 24.6766C3.23811 24.8999 3.01479 25.2349 2.90313 25.4582C2.4565 26.0165 2.23318 26.6865 1.8982 27.3564C1.67488 27.8031 1.67489 28.2497 1.56323 28.808C1.22825 29.9246 1.22825 31.0412 1.33991 32.2694C1.33991 32.7161 1.33991 33.051 1.56323 33.386V33.4977C1.56323 33.721 1.67488 34.0559 1.67488 34.2793C1.78654 34.8376 1.8982 35.5075 2.34484 36.0658C2.4565 36.1775 2.56815 36.4008 2.56815 36.5124C3.01479 37.2941 3.46143 37.964 4.01972 38.5223C4.13138 38.634 4.3547 38.8573 4.46636 38.969C4.91299 39.4156 5.24797 39.8622 5.91792 39.9739C5.91792 39.9739 6.02958 39.9739 6.02958 40.0855C6.36456 40.3089 6.8112 40.6438 7.14617 40.8672C7.92778 41.4255 8.82105 41.8721 9.71433 42.3187C10.3843 42.6537 11.0542 42.7654 11.8358 42.9887C12.0592 42.9887 12.1708 43.1003 12.3941 43.1003ZM41.5371 37.964C41.5371 37.8524 41.4255 37.8524 41.5371 37.964C41.4255 37.964 41.3138 38.0757 41.2021 38.1873C40.7555 38.9689 40.1972 39.6389 39.5273 40.1972C39.3039 40.4205 38.969 40.6438 38.7456 40.8672C37.964 41.5371 37.0708 42.2071 36.1775 42.7653C35.7308 43.1003 35.2842 43.3237 34.7259 43.547C34.056 43.882 33.2744 43.9936 32.4927 44.2169C32.1578 44.3286 31.7111 44.5519 31.3762 44.7752C31.4878 44.7752 31.4878 44.7752 31.5995 44.7752C31.9344 44.6636 32.1578 44.6636 32.4927 44.5519C33.2744 44.2169 33.9443 43.9936 34.7259 43.6586C35.5075 43.3237 36.1775 42.9887 36.8474 42.4304C37.1824 42.0954 37.6291 41.9837 37.964 41.6488C38.299 41.4254 38.7456 41.2021 39.0806 40.8672C39.9739 40.1972 40.6438 39.1923 41.2021 38.299C41.3138 38.299 41.4255 38.0757 41.5371 37.964ZM29.2546 15.2972C29.2546 15.4089 29.2546 15.5206 29.2546 15.5206C29.5896 16.7488 30.0363 17.9771 30.7062 19.2053C30.9295 19.5403 31.0412 19.8753 31.3762 20.2103C31.9344 20.7686 32.6044 21.3269 33.1627 21.8852C33.1627 21.8852 33.1627 21.8852 33.2744 21.8852C33.2744 21.7735 33.1627 21.7735 33.1627 21.6618C32.6044 20.9919 32.0461 20.3219 31.4878 19.652C30.8179 18.7587 30.2596 17.7538 29.9246 16.7488C29.8129 16.4139 29.7013 16.0789 29.5896 15.7439C29.478 15.4089 29.3663 15.2972 29.2546 15.2972ZM23.895 13.5107C24.0067 13.5107 24.0067 13.5107 23.895 13.5107C24.0067 13.5107 24.0067 13.5107 24.0067 13.3991C24.23 12.8408 24.3416 12.2825 24.565 11.7242C24.6766 11.1659 24.7883 10.7193 25.0116 10.161C25.2349 9.04438 25.4582 7.92779 25.5699 6.8112C25.5699 6.47622 25.6816 6.14122 25.6816 5.80624C25.6816 5.58292 25.6816 5.1363 25.6816 4.91299C25.3466 5.24796 25.4582 5.58293 25.4582 5.91791C25.4582 6.25289 25.4582 6.58788 25.3466 6.8112C25.2349 7.70447 25.1233 8.48607 25.0116 9.37934C24.8999 10.0493 24.6766 10.8309 24.565 11.5009C24.565 11.7242 24.4533 11.9475 24.3416 12.0591C24.3416 12.0591 24.23 12.1708 24.23 12.2825C24.1183 12.6175 24.0067 12.9524 24.0067 13.3991C23.895 13.3991 23.895 13.3991 23.895 13.5107ZM18.4237 45.2219C18.4237 45.1102 18.4237 45.1102 18.3121 44.9985C17.9771 44.8869 17.6421 44.6636 17.3071 44.5519C16.4139 44.3286 15.5206 44.1053 14.6273 43.8819C13.8457 43.7703 12.9524 43.547 12.1708 43.212C11.5009 42.9887 10.8309 42.877 10.161 42.6537H10.0493C10.161 42.7653 10.2726 42.7653 10.2726 42.7653C10.4959 42.877 10.8309 42.9887 11.0542 42.9887C11.8358 43.212 12.5058 43.547 13.2874 43.6586C14.5157 43.9936 15.7439 44.2169 16.9722 44.5519C17.4188 44.7752 17.9771 44.8869 18.4237 45.2219ZM21.4385 45.5568C21.1035 45.8918 21.1035 46.2268 21.1035 46.7851C21.2152 46.6734 21.3269 46.5617 21.3269 46.5617C21.4385 46.4501 21.5502 46.4501 21.6618 46.6734V46.7851C21.7735 46.6734 21.8851 46.6734 22.1085 46.6734L22.2201 46.7851C22.4434 46.8967 22.6668 46.8967 22.7784 46.5617C22.8901 46.4501 22.8901 46.3384 23.0017 46.1151C22.8901 46.1151 22.6668 46.0034 22.5551 46.0034C22.3318 45.8918 22.2201 46.0035 22.1085 46.2268C22.1085 46.3384 22.1085 46.4501 21.9968 46.5617C21.9968 46.5617 21.8851 46.5618 21.8851 46.4501C21.7735 46.3385 21.7735 46.1151 21.8851 45.8918C21.9968 45.6685 21.9968 45.6685 21.7735 45.5568C21.7735 45.5568 21.6618 45.5568 21.4385 45.5568ZM1.00493 30.2596C1.11659 30.2596 1.11659 30.1479 1.11659 30.1479C1.22825 29.143 1.33991 28.2497 1.67488 27.2448C1.8982 26.4632 2.34484 25.6815 2.79147 25.0116C3.12645 24.565 3.46143 24.1183 3.7964 23.56C4.13138 23.1134 4.46636 22.5551 5.02465 22.2201C5.24797 21.9968 5.47129 21.7735 5.69461 21.5502C5.69461 21.5502 5.69461 21.5501 5.69461 21.4385C5.58295 21.5501 5.35963 21.7735 5.24797 21.8852C4.68967 22.3318 4.24304 22.7784 3.7964 23.3367C3.12645 24.23 2.56815 25.2349 2.00986 26.1282C1.45156 27.1331 1.22825 28.2497 1.11659 29.4779C1.00493 29.8129 1.00493 30.0363 1.00493 30.2596ZM34.8376 24.0067C34.9492 24.1183 35.0609 24.23 35.0609 24.3416C35.2842 24.5649 35.5075 24.8999 35.7309 25.1233C35.8425 25.2349 35.9542 25.3466 36.0658 25.4582C36.6241 25.9049 36.9591 26.5748 37.4057 27.1331C37.6291 27.5797 37.964 27.9147 38.299 28.2497C37.964 27.2448 35.7309 24.4533 34.8376 24.0067ZM16.4139 16.0789C16.3022 16.1905 16.3022 16.1905 16.4139 16.0789C15.4089 16.8605 14.404 17.4188 13.3991 17.7538C13.0641 17.8654 12.7291 17.9771 12.3941 18.0887C12.2825 18.0887 12.1708 18.2004 12.0592 18.3121C12.3941 18.3121 12.6175 17.9771 12.8408 18.3121C13.2874 18.0887 13.8457 17.7537 14.2923 17.5304C15.074 17.3071 15.7439 16.8605 16.4139 16.0789ZM19.2053 46.2268C19.4287 46.1151 19.4287 46.1151 19.652 46.3384C19.7636 46.4501 20.0986 46.4501 20.0986 46.2268C20.2103 46.0035 20.2103 45.7801 20.3219 45.4452H20.2103C19.8753 45.3335 19.8753 45.3335 19.7636 45.6685C19.7636 45.7801 19.652 45.7802 19.652 45.8918C19.4287 45.7802 19.5403 45.5568 19.4286 45.4452C19.0937 45.7801 18.982 45.8918 19.2053 46.2268ZM25.4582 47.3434C25.4582 47.2317 25.4582 47.2317 25.4582 47.12C25.4582 47.0084 25.4582 46.8967 25.5699 46.8967C25.6815 46.8967 25.6816 46.8967 25.7932 47.0084C26.0165 47.1201 26.2398 47.1201 26.2398 46.8967C26.2398 46.7851 26.2398 46.5618 26.2398 46.4501C26.2398 46.3385 26.2398 46.2268 26.0165 46.1151C25.7932 46.1151 25.6815 46.1151 25.5699 46.3384C25.4582 46.5618 25.3466 46.8967 25.2349 47.2317C25.3466 47.2317 25.3466 47.2317 25.4582 47.3434ZM25.1233 46.8967C25.1233 46.6734 25.2349 46.4501 25.2349 46.2268C24.7883 46.2268 24.4533 46.2268 24.0067 46.2268C24.0067 46.3384 24.0067 46.5618 24.0067 46.6734C24.1183 46.6734 24.23 46.6734 24.3416 46.6734C24.4533 46.6734 24.565 46.6734 24.6766 46.7851C24.7883 46.8967 24.8999 46.8967 25.1233 46.8967ZM19.0937 18.8703C18.4237 19.9869 17.7538 21.2152 17.0838 22.3318C17.9771 21.2152 18.647 20.0986 19.0937 18.8703ZM16.9722 18.3121C17.3071 18.3121 17.3071 18.2004 17.4188 17.9771C17.7538 17.6421 17.9771 17.1955 18.3121 16.8605C18.647 16.4139 18.982 15.9672 19.317 15.5206C19.4286 15.4089 19.4287 15.1856 19.5403 15.074C18.647 16.1905 17.7538 17.1955 16.9722 18.3121ZM23.7833 4.91299C23.4484 5.35962 23.1134 6.58786 23.1134 7.0345C23.3367 6.92284 23.3367 6.4762 23.6717 6.4762C23.4484 6.25289 23.56 5.91793 23.56 5.69461C23.6717 5.47129 23.7833 5.24796 23.7833 4.91299ZM6.36456 21.1035C6.47622 21.1035 6.47622 21.1035 6.47622 21.1035C6.92285 20.8802 7.25783 20.6569 7.70447 20.4336C7.81613 20.3219 7.92778 20.2103 8.1511 20.2103C8.48608 19.987 8.93271 19.8753 9.26769 19.652C9.26769 19.652 9.37935 19.5403 9.49101 19.5403C8.82105 19.652 6.69954 20.7685 6.36456 21.1035ZM1.56323 34.8376C1.56323 34.6142 1.45156 34.391 1.45156 34.1676C1.33991 33.721 1.33991 33.2744 1.22825 32.9394C1.11659 32.3811 1.11659 31.8228 1.00493 31.2645C1.00493 32.4927 1.22825 33.721 1.56323 34.8376ZM22.7784 15.4089C22.6668 15.5206 22.6668 15.6322 22.6668 15.8555C22.6668 15.9672 22.6668 16.0789 22.6668 16.0789C22.5551 16.6372 22.4434 17.1955 22.3318 17.7538V17.8654C22.4434 17.7538 22.4434 17.7538 22.4434 17.6421C22.5551 17.0838 22.6668 16.6372 22.8901 16.0789C22.7784 15.9672 23.0017 15.7439 22.7784 15.4089ZM42.2071 26.7981C42.2071 26.6865 42.2071 26.6865 42.2071 26.7981C41.7604 26.1282 41.4255 25.3466 40.6438 24.8999C41.2021 25.4582 41.6488 26.1282 42.2071 26.7981ZM20.6569 15.4089C20.5452 15.4089 20.5452 15.4089 20.6569 15.4089C20.4336 15.5206 20.3219 15.6322 20.3219 15.8555C20.2103 16.1905 20.0986 16.6372 19.9869 16.9721C19.9869 17.0838 19.9869 17.1955 19.8753 17.1955C19.8753 17.1955 19.8753 17.1955 19.9869 17.1955C20.2103 16.6372 20.4336 16.0789 20.6569 15.4089ZM28.473 17.0838C28.6963 17.8654 28.6963 18.647 29.143 19.317C28.9197 18.647 28.6963 17.8654 28.473 17.0838ZM35.7309 35.6192C36.1775 34.8376 36.1775 34.0559 36.2891 33.1627C36.1775 33.9443 35.9542 34.7259 35.7309 35.6192ZM23.7833 45.7802C24.3416 45.8918 24.8999 46.0035 25.4582 45.7802C24.8999 45.7802 24.3416 45.7802 23.7833 45.7802ZM20.8802 45.6685C20.5452 45.8918 20.4336 46.1151 20.5452 46.4501L20.6569 46.5617C20.6569 46.5617 20.7686 46.5618 20.7686 46.4501C20.7686 46.4501 20.7686 46.3384 20.7686 46.2268C20.8802 46.1151 20.8802 45.8918 20.8802 45.6685ZM22.6668 7.70446C22.7784 7.5928 22.8901 7.48115 22.8901 7.36949C22.8901 7.14618 23.0017 6.81119 23.0017 6.58787C23.0017 6.47621 23.0017 6.36454 23.0017 6.36454C22.7784 6.4762 22.6668 7.25782 22.6668 7.70446ZM22.1085 6.4762C22.1085 6.58786 22.1085 6.58786 22.1085 6.4762C22.5551 6.14123 22.7784 5.80625 23.0017 5.35961C23.0017 5.35961 23.0017 5.35961 22.8901 5.35961C22.6668 5.69459 22.3318 6.14123 22.1085 6.4762ZM29.4779 14.8506C29.3663 14.404 29.3663 13.9574 29.2546 13.5107C29.143 13.9574 29.2546 14.5156 29.4779 14.8506ZM19.8753 13.6224C19.7636 13.6224 19.7636 13.6224 19.8753 13.6224C19.652 13.734 19.5403 13.9573 19.317 14.1807C19.4286 14.1807 19.5403 14.1807 19.652 14.1807C19.7636 13.9573 19.7636 13.8457 19.8753 13.6224ZM23.56 46.6734C23.56 46.4501 23.56 46.3384 23.56 46.1151C23.56 46.1151 23.56 46.1151 23.4484 46.1151C23.3367 46.3384 23.3367 46.4501 23.2251 46.6734C23.4484 46.6734 23.4484 46.6734 23.56 46.6734ZM28.3614 16.8605C28.3614 16.4139 28.2497 16.0789 28.2497 15.6322H28.138C28.138 15.9672 28.2497 16.4139 28.3614 16.8605ZM20.6569 45.2219C20.3219 44.9985 19.9869 44.9985 19.7636 45.1102C20.0986 44.9985 20.3219 45.3335 20.6569 45.2219ZM24.7883 1.00492C24.6766 1.3399 24.6766 1.45157 24.7883 1.67488C24.8999 1.33991 24.8999 1.22824 24.7883 1.00492ZM1.8982 35.7309C2.00986 36.1775 2.12152 36.4008 2.4565 36.6241C2.23318 36.1775 2.12152 35.9542 1.8982 35.7309ZM28.0264 42.2071C27.6914 42.3187 27.4681 42.3187 27.1331 42.5421C27.3564 42.5421 27.5798 42.4304 28.0264 42.2071ZM21.6618 15.5206C21.5502 15.8556 21.4385 16.1905 21.3269 16.6372C21.4385 16.3022 21.6618 15.9672 21.6618 15.5206ZM16.9722 42.5421C16.7488 42.3187 16.4139 42.0954 16.1905 42.2071C16.4139 42.3187 16.6372 42.4304 16.9722 42.5421ZM20.3219 8.70938C20.4336 8.26275 20.5452 7.92776 20.5452 7.48113C20.5452 7.48113 20.5452 7.48113 20.4336 7.48113C20.4336 7.8161 20.4336 8.26275 20.3219 8.70938ZM39.8622 23.895C39.9739 24.23 40.1972 24.4533 40.4205 24.565C40.1972 24.23 40.0855 24.0067 39.8622 23.895ZM18.8704 13.3991C19.2053 13.2874 19.0937 13.0641 19.0937 12.8408C18.982 13.0641 18.8704 13.1758 18.8704 13.3991ZM14.1807 40.8672C14.2923 41.0905 14.5157 41.2021 14.739 41.2021C14.5157 41.0905 14.404 40.9788 14.1807 40.8672ZM17.9771 14.6273C17.7538 14.739 17.6421 14.8506 17.5304 15.074C17.7538 14.8506 17.8654 14.739 17.9771 14.6273ZM10.0493 19.0937C10.161 19.2053 10.161 19.2053 10.0493 19.0937C10.2726 19.0937 10.3843 18.982 10.4959 18.982C10.4959 18.982 10.4959 18.982 10.4959 18.8703C10.3843 18.982 10.2726 19.0937 10.0493 19.0937ZM26.6865 46.8967C26.5748 47.0084 26.6865 47.0084 26.6865 47.12H26.7981C26.7981 47.0084 26.6865 47.0084 26.6865 46.8967ZM21.3269 7.0345C21.2152 7.25782 21.2152 7.25784 21.4385 7.36949C21.4385 7.25784 21.3269 7.25782 21.3269 7.0345ZM11.7242 21.1035C11.6125 20.9919 11.6125 20.9919 11.7242 21.1035C11.6125 21.1035 11.5009 21.1035 11.3892 21.2152C11.3892 21.2152 11.3892 21.2152 11.3892 21.3269C11.5009 21.2152 11.6125 21.1035 11.7242 21.1035ZM23.2251 14.739C23.1134 14.8506 23.1134 14.9623 23.0017 15.074C23.2251 14.9623 23.2251 14.8506 23.2251 14.739ZM6.02958 21.3269C5.91792 21.3269 5.91792 21.3269 5.80626 21.3269C5.91792 21.4385 5.91792 21.3269 6.02958 21.3269ZM23.56 14.404C23.4484 14.404 23.4484 14.404 23.4484 14.404C23.4484 14.5157 23.4484 14.5157 23.56 14.404C23.56 14.5157 23.4484 14.5157 23.56 14.404ZM22.2201 18.5354V18.647C22.2201 18.647 22.2201 18.647 22.2201 18.5354Z" fill="var(--fill-0, #5D5740)"/>
<path id="Vector_2" d="M25.6823 19.2093C25.5706 19.6559 25.7939 20.1025 25.6823 20.5492C25.5706 20.2142 25.5706 19.8792 25.5706 19.5443C25.5706 19.2093 25.5706 18.8743 25.459 18.5393C25.459 18.2044 25.459 17.8694 25.459 17.5344C25.459 17.1994 25.5706 16.8644 25.5706 16.5295C25.5706 16.1945 25.6823 15.8595 25.6823 15.5245H25.5706L25.459 15.6362C25.2356 16.5295 24.9007 17.4227 24.789 18.316C24.6774 18.8743 24.5657 19.4326 24.5657 19.9909C24.5657 20.1025 24.5657 20.2142 24.454 20.3259C24.454 20.3259 24.3424 20.4375 24.3424 20.5492C24.3424 21.2191 24.2307 21.8891 24.3424 22.559C24.3424 23.4523 24.454 24.4572 24.454 25.3505C24.454 25.6855 24.454 26.0205 24.454 26.2438C24.454 26.9137 24.454 27.5837 24.454 28.142C24.454 28.477 24.454 28.8119 24.454 29.2586C24.3424 30.1518 24.2307 30.9335 23.8957 31.8267C23.7841 32.1617 23.6724 32.4967 23.5608 32.72C23.5608 32.8317 23.4491 32.9433 23.3374 32.8317C23.4491 32.6083 23.4491 32.4967 23.5608 32.2734C24.0074 30.9335 24.2307 29.5935 24.2307 28.142C24.1191 27.0254 24.2307 26.0205 24.1191 24.9039C24.1191 24.0106 24.0074 23.1173 24.0074 22.2241C24.0074 21.1075 24.1191 20.1026 24.3424 18.986C24.3424 18.8743 24.3424 18.8743 24.454 18.7626C24.6773 18.4277 24.6774 18.0927 24.6774 17.7577C24.6774 16.9761 24.9007 16.1945 25.124 15.3012C25.124 15.0779 25.2357 14.9662 25.124 14.7429C24.9007 14.7429 24.789 14.8546 24.6774 15.1896C24.5657 15.8595 24.3424 16.5295 24.2307 17.1994C24.2307 17.3111 24.2307 17.3111 24.1191 17.4227C24.0074 17.1994 24.0074 17.0878 24.1191 16.7528C24.2307 16.0828 24.454 15.4129 24.5657 14.8546C24.5657 14.6313 24.6774 14.4079 24.6774 14.1846C24.6774 13.9613 24.789 13.8496 25.0123 13.6263C25.124 13.6263 25.124 13.403 25.124 13.403C25.3473 12.2864 25.459 11.1698 25.6823 10.0533C25.6823 10.0533 25.6823 9.94159 25.7939 9.94159C25.7939 10.0532 25.7939 10.0533 25.7939 10.1649C25.6823 10.9465 25.5706 11.6165 25.459 12.3981C25.3473 12.9564 25.3473 13.403 25.2356 13.9613C25.2356 14.073 25.124 14.1846 25.124 14.1846C25.124 14.2963 25.0123 14.2963 25.0123 14.4079C25.0123 14.4079 25.0123 14.4079 25.124 14.4079C25.2357 14.2963 25.2356 14.2963 25.3473 14.1846C25.459 14.073 25.5706 14.073 25.7939 14.1846C25.7939 14.073 25.7939 13.9613 25.7939 13.8496C25.9056 12.9564 25.9056 12.0631 26.1289 11.1698C26.2406 10.2766 26.4639 9.27164 26.6872 8.37837C26.6872 8.15505 26.6872 7.93173 26.7989 7.70841C26.9105 7.37343 27.0222 7.03846 27.1338 6.70348C27.2455 6.48017 27.2455 6.36851 27.3572 6.14519C27.4688 5.92187 27.4688 5.81021 27.3572 5.47523C27.1339 5.92187 27.1338 6.36851 27.0222 6.70348C26.9105 7.15012 26.7989 7.4851 26.6872 7.93174C26.6872 7.82008 26.5756 7.82007 26.5756 7.70841C26.5756 7.59675 26.5756 7.48508 26.6872 7.48508C26.9105 6.70346 27.1339 5.92188 27.3572 5.14027C27.3572 5.02861 27.3572 5.02859 27.3572 4.91694C27.2455 4.4703 27.1338 4.02365 27.0222 3.57701C26.9105 3.3537 26.9105 3.13041 27.0222 2.90709C27.1338 2.90709 27.1338 2.90706 27.2455 3.01872C27.4688 3.80033 27.6921 4.58195 27.8038 5.36356C27.8038 5.58688 27.9155 5.69854 27.9155 5.92186C28.2504 5.92186 28.5854 5.92186 28.9204 5.92186C29.032 6.14518 28.9204 6.25683 29.1437 6.36849C29.1437 6.36849 29.2554 6.48016 29.1437 6.59182C29.1437 6.70348 29.1437 6.92679 29.0321 7.03845C29.1437 7.03845 29.2554 6.92678 29.367 6.92678C29.5903 6.92678 29.702 7.03846 29.5903 7.26178C29.4787 7.4851 29.367 7.70842 29.367 7.93174C29.2554 8.26672 29.1437 8.60169 29.0321 8.93666C28.9204 8.93666 28.9204 8.82499 28.9204 8.71333C29.032 8.37835 29.0321 8.15505 29.1437 7.82007C29.1437 7.70841 29.2554 7.7084 29.2554 7.59674C29.2554 7.48508 29.2554 7.4851 29.0321 7.26178C29.0321 7.37344 28.9204 7.48508 28.9204 7.48508L28.8087 7.59674L28.6971 7.48508C28.6971 7.26176 28.8087 7.1501 28.8087 6.92678C28.4738 6.81512 28.5854 6.59181 28.4738 6.36849C28.1388 6.36849 28.1388 6.3685 28.1388 6.59182C28.1388 6.81514 28.1388 6.9268 28.0271 7.15011C27.9155 7.48509 27.8038 7.82007 27.6921 8.2667C27.4688 9.27163 27.2455 10.2766 27.0222 11.2815C26.9105 11.6165 27.0222 11.9514 27.0222 12.1748C27.1338 11.8398 27.2455 11.3932 27.3572 11.0582C27.3572 11.0582 27.3572 11.0582 27.4688 11.0582C27.4688 11.1698 27.4688 11.1698 27.4688 11.2815C27.2455 12.1748 27.1338 12.9564 27.1338 13.8496C27.1338 14.1846 27.1338 14.5196 27.1338 14.9662C27.1338 14.9662 27.1338 14.9662 27.2455 15.0779C27.4688 14.9662 27.4688 14.8546 27.4688 14.6313C27.4688 14.2963 27.4688 13.8497 27.4688 13.5147C27.4688 12.5098 27.6921 11.5048 27.9155 10.3882C27.9155 10.1649 28.0271 9.94157 28.0271 9.71826C28.1388 9.49494 28.2504 9.15998 28.3621 8.93666L28.4738 8.825C28.4738 9.15997 28.2504 9.49494 28.2504 9.82992C28.1388 10.1649 28.1388 10.4999 28.0271 10.8348C27.9155 11.1698 27.9155 11.5048 27.8038 11.9514C27.8038 12.2864 27.6921 12.6214 27.6921 13.068C27.6921 13.403 27.6921 13.738 27.5805 14.1846C27.6921 14.073 27.6921 14.073 27.8038 13.9613C27.8038 14.408 27.5805 14.7429 27.8038 15.1896C27.9155 14.9663 27.9155 14.8546 28.0271 14.7429C28.0271 14.8546 28.1388 14.8546 28.1388 14.8546C28.0271 15.1895 28.0271 15.5245 27.9155 15.7479C27.9155 15.8595 27.8038 16.0828 27.8038 16.1945C28.0271 17.4227 28.2504 18.7626 28.5854 19.8792C28.8087 20.4375 28.8087 20.9958 29.0321 21.5541C29.2554 22.2241 29.5903 23.0057 29.8137 23.6756C30.1486 24.4572 30.372 25.2389 30.7069 26.0205C31.0419 26.9137 31.2652 27.6954 31.4885 28.5886C31.8235 29.9285 31.8235 31.1568 31.4885 32.4967C31.1536 33.7249 30.7069 34.9532 30.037 36.0698C29.5903 37.0747 28.9204 37.968 28.2504 38.7496C27.8038 39.1962 27.3572 39.7545 26.7989 40.0895C26.9105 39.9778 26.9105 39.8662 27.0222 39.8662C27.5805 39.3079 28.0271 38.7496 28.4738 38.0796C29.5903 36.5164 30.372 34.8415 30.9303 33.055C31.2652 32.1617 31.2652 31.2685 31.2652 30.2635C31.2652 28.9236 30.8186 27.6953 30.4836 26.5788C30.2603 25.6855 29.9253 24.9039 29.5903 24.0106C29.367 23.4523 29.1437 22.894 28.9204 22.3357C28.8087 22.0008 28.6971 21.6658 28.5854 21.2191C28.3621 20.3259 28.1388 19.5442 27.9155 18.651C27.8038 18.2043 27.8038 17.8694 27.6921 17.4227C27.5805 16.6411 27.4688 15.7479 27.3572 14.9662C27.3572 15.4129 27.3572 15.8595 27.3572 16.1945C27.4688 17.6461 27.8038 18.986 28.2504 20.4375C28.3621 20.6608 28.3621 20.7725 28.3621 20.9958C28.3621 20.8842 28.2504 20.8842 28.2504 20.7725C27.6921 19.2093 27.2455 17.5344 27.2455 15.7479C27.2455 15.6362 27.2455 15.4129 27.0222 15.4129C27.0222 15.5245 27.0222 15.5245 27.0222 15.6362C27.0222 15.7479 27.0222 15.8595 26.9105 15.8595C26.7989 15.9712 26.6872 16.0828 26.6872 16.3062C26.5756 17.1994 26.5756 18.0927 26.4639 18.986C26.4639 19.0976 26.4639 19.0976 26.4639 19.2093C26.6872 20.2142 26.7989 21.1075 27.1338 22.0007C27.3572 22.6707 27.5805 23.4523 27.6921 24.1223C27.9155 25.0156 28.1388 25.9088 28.3621 26.8021C28.4738 27.3604 28.5854 27.9187 28.8087 28.3653C29.032 29.0353 29.1437 29.8169 29.1437 30.4868C29.1437 30.8218 29.1437 31.1568 29.1437 31.4917C29.0321 32.1617 28.9204 32.8317 28.6971 33.5016C28.5854 33.8366 28.5854 34.0599 28.4738 34.3949C28.3621 34.7299 28.1388 35.1765 28.0271 35.5115C28.0271 35.6231 27.9155 35.7348 27.9155 35.8465C27.6921 36.5164 27.3572 37.298 27.0222 37.968C26.7989 38.4146 26.4639 38.8612 26.1289 39.3079C26.0173 39.4195 25.9056 39.6428 25.7939 39.8662C25.7939 39.9778 25.6823 40.0895 25.6823 40.2012C25.6823 40.3128 25.6823 40.3128 25.5706 40.4245C25.3473 40.3128 25.2356 40.2012 25.0123 40.0895C24.9007 40.0895 24.9007 40.0895 24.789 40.0895C24.6774 40.0895 24.6774 40.0895 24.5657 40.0895C24.454 40.0895 24.3424 39.9778 24.3424 39.8662C24.3424 39.7545 24.454 39.7545 24.5657 39.7545C24.789 39.7545 24.9007 39.7545 25.0123 39.5312C25.459 38.9729 25.9056 38.4146 26.3522 37.8563C26.5756 37.633 26.7989 37.298 26.9105 36.9631C27.2455 36.2931 27.6921 35.6231 27.9155 34.8415C28.2504 33.8366 28.6971 32.72 28.8087 31.6034C28.9204 30.5985 28.8087 29.7052 28.5854 28.7003C28.3621 27.5837 28.0271 26.4671 27.8038 25.3505C27.5805 24.3456 27.3572 23.4523 27.1338 22.4474C27.0222 22.0008 26.7989 21.5541 26.6872 20.9958C26.5756 20.6608 26.5756 20.2142 26.4639 19.8792C25.9056 19.9909 25.7939 19.5442 25.6823 19.2093ZM26.2406 13.5147C26.1289 13.6263 26.0173 13.738 26.1289 13.8496C26.1289 13.738 26.1289 13.6263 26.2406 13.5147C26.2406 13.403 26.2406 13.2913 26.2406 13.1797C26.2406 12.8447 26.3522 12.5097 26.3522 12.1748C26.3522 10.9465 26.6872 9.82991 26.9105 8.60167C27.0222 8.37835 27.0222 8.04339 27.0222 7.82007C26.9105 7.82007 26.9105 7.93174 26.9105 7.93174C26.7989 8.49003 26.6872 9.04833 26.5756 9.60662C26.4639 10.1649 26.3522 10.7232 26.3522 11.2815C26.2406 11.9515 26.2406 12.6214 26.1289 13.2914C26.0173 13.2914 26.0173 13.403 26.2406 13.5147ZM25.6823 18.316C25.6823 18.2043 25.6823 17.981 25.6823 17.8694C25.6823 17.7577 25.6823 17.5344 25.7939 17.5344C25.9056 17.3111 26.0173 17.1994 26.0173 16.9761C26.0173 16.7528 26.0173 16.4178 26.1289 16.1945C26.1289 16.0828 26.1289 15.9712 25.9056 15.8595C25.6823 16.6411 25.5706 17.4227 25.6823 18.316ZM25.7939 12.9564C25.6823 13.068 25.6823 13.1797 25.6823 13.2914C25.5706 13.738 25.6823 14.1846 25.3473 14.6313C25.459 14.6313 25.5706 14.6313 25.6823 14.6313C25.6823 14.7429 25.6823 14.8546 25.6823 14.9662C25.6823 15.0779 25.6823 15.1895 25.6823 15.3012C25.9056 15.1895 26.0173 15.0779 26.1289 14.8546C25.7939 14.7429 25.7939 14.5196 25.7939 14.2963C25.7939 14.1846 25.7939 14.073 25.7939 14.073C25.7939 13.6263 25.7939 13.2914 25.7939 12.9564ZM24.789 17.3111C25.0123 16.6411 25.2356 15.9712 25.3473 15.1896C25.2356 15.3012 25.2357 15.3012 25.124 15.3012C25.124 15.4129 25.0123 15.4129 25.0123 15.5245C24.9007 16.0828 24.789 16.6411 24.789 17.3111ZM24.9007 40.0895C25.3473 39.5312 25.7939 38.9729 26.1289 38.3029C25.6823 38.7496 25.2356 39.3079 24.789 39.8662C24.6774 39.8662 24.6774 39.9778 24.9007 40.0895ZM26.4639 8.04337C26.6872 7.48508 26.7989 7.03845 27.0222 6.48015C27.0222 6.48015 27.0222 6.36851 27.0222 6.25686C26.6872 6.70349 26.4639 7.59674 26.4639 8.04337ZM25.7939 12.3981C25.9056 12.0631 26.0173 10.4999 26.0173 10.3882C25.7939 11.1698 25.6823 12.1748 25.7939 12.3981ZM27.4688 6.36849C27.2455 6.59181 27.0222 7.1501 27.1338 7.48508C27.1338 7.1501 27.3572 6.81512 27.4688 6.36849ZM25.6823 18.8743C25.6823 18.7626 25.6823 18.7626 25.6823 18.651C25.6823 18.7626 25.6823 18.8743 25.6823 18.8743Z" fill="var(--fill-0, #5D5740)"/>
<path id="Vector_3" d="M19.8759 40.3115C19.8759 39.9765 19.7642 39.6415 19.8759 39.3065C19.8759 39.1949 19.8759 39.0832 19.7642 38.9716C19.4292 38.4133 19.2059 37.855 18.8709 37.4084C18.5359 36.8501 18.3126 36.4034 17.9777 35.8451C17.7543 35.3985 17.6427 35.0635 17.531 34.6169C16.9727 33.1653 16.6377 31.7138 16.6377 30.1505C16.6377 29.4806 16.6377 28.9223 16.6377 28.2523C16.6377 28.1407 16.6377 28.1407 16.6377 28.029C16.8611 28.1407 16.9727 28.364 16.9727 28.5873C16.9727 29.034 16.9727 29.4806 16.9727 29.9272C16.9727 31.2671 17.0844 32.607 17.6427 33.8353C17.9777 34.7285 18.3126 35.6218 18.7593 36.5151C19.0942 37.0734 19.3176 37.52 19.6525 38.0783C19.7642 38.19 19.7642 38.3016 19.8759 38.525C19.8759 38.3016 19.8759 38.0783 19.7642 37.9667C19.4292 37.2967 19.0942 36.6267 18.8709 35.9568C18.5359 35.2868 18.3126 34.6169 18.0893 33.9469C17.9777 33.612 17.866 33.1653 17.7543 32.7187C17.7543 32.607 17.7543 32.4954 17.866 32.272C17.9777 32.607 18.0893 32.8303 18.201 33.1653C18.3126 33.8353 18.6476 34.5052 18.9826 35.0635C19.3176 35.9568 19.7642 36.7384 20.0992 37.6317C20.3225 38.19 20.4341 38.7483 20.5458 39.3065C20.5458 39.4182 20.6575 39.6415 20.3225 39.7532C20.6575 39.8649 20.9924 39.7532 21.3274 39.8648C20.8808 40.3115 20.7691 40.3115 19.8759 40.3115Z" fill="var(--fill-0, #5D5740)"/>
<path id="Vector_4" d="M23.6706 34.388C23.7823 34.053 23.8939 33.8297 23.8939 33.4947C24.1173 32.6015 24.2289 31.8198 24.3406 30.9266C24.4522 29.81 24.5639 28.8051 24.4522 27.6885C24.4522 26.7952 24.3406 26.0136 24.3406 25.1203C24.3406 24.562 24.4522 24.1154 24.4522 23.5571C24.4522 23.4454 24.4522 23.2221 24.6756 23.2221C24.6756 23.3338 24.6756 23.3338 24.6756 23.4454C24.5639 24.2271 24.4522 25.0087 24.5639 25.7903C24.5639 26.9069 24.6756 28.1351 24.6756 29.2517C24.5639 30.8149 24.4522 32.3781 23.8939 33.9414C23.8939 34.053 23.8939 34.1647 23.7823 34.2763C24.0056 34.388 23.894 34.388 23.6706 34.388Z" fill="var(--fill-0, #5D5740)"/>
<path id="Vector_5" d="M5.47082 33.4964C5.58248 33.3848 5.47082 33.2731 5.47082 33.0498C5.35916 32.6032 5.2475 32.0449 5.13584 31.5982C5.02419 30.705 5.13584 29.8117 5.47082 28.9184C5.8058 28.1368 6.02911 27.3552 6.47575 26.5736C6.81072 25.9036 7.25736 25.3453 7.704 24.787C8.03898 24.3404 8.37395 24.0054 8.70893 23.6704C9.15556 23.3355 9.6022 23.0005 10.1605 22.5539C10.4955 22.3305 10.8304 22.1072 11.2771 21.8839C11.3887 21.7723 11.5004 21.7723 11.7237 21.6606C11.7237 21.6606 11.7237 21.6606 11.7237 21.7723C11.3887 21.9956 11.1654 22.2189 10.8304 22.3306C10.4955 22.5539 10.0488 22.7772 9.71386 23.1121C9.0439 23.5588 8.59727 24.1171 8.03897 24.6754C7.48068 25.2337 7.03404 25.792 6.69907 26.4619C6.47575 26.9085 6.25243 27.2435 6.14077 27.6902C5.91745 28.2485 5.69414 28.8068 5.58248 29.3651C5.35916 30.035 5.35916 30.8166 5.47082 31.4866C5.58248 32.2682 5.69414 33.1615 6.14077 33.8314V33.9431C6.14077 33.9431 6.14077 33.9431 6.02911 33.9431C5.91746 33.8314 5.91746 33.7198 5.8058 33.6081C5.58248 33.8314 5.58248 33.6081 5.47082 33.4964Z" fill="var(--fill-0, #5D5740)"/>
<path id="Vector_6" d="M23.001 42.2056C23.001 43.0989 22.7777 43.9922 22.666 44.8854C22.7777 44.9971 22.8893 44.9971 22.8893 44.7738C23.001 44.4388 23.001 44.2155 23.1126 43.8805C23.2243 43.4339 23.3359 42.9873 23.3359 42.5406C23.3359 42.429 23.336 42.429 23.4476 42.3173C23.5593 42.429 23.5593 42.5406 23.5593 42.6523C23.4476 43.0989 23.4476 43.4339 23.3359 43.8805C23.2243 44.2155 23.2243 44.5505 23.1126 44.8854C23.2243 44.8854 23.336 44.8854 23.4476 44.8854C23.4476 44.1038 23.8942 42.764 24.0059 42.5406C24.1176 42.6523 24.0059 42.7639 24.0059 42.8756C23.8942 43.4339 23.7826 43.8805 23.6709 44.4388C23.6709 44.5505 23.6709 44.6622 23.6709 44.7738C23.6709 44.8855 23.7826 44.8855 23.7826 44.9971L23.8942 44.8854C24.0059 44.4388 24.1176 44.1039 24.2292 43.6572C24.2292 43.4339 24.3409 43.2106 24.4525 42.9873C24.4525 42.8756 24.5642 42.8756 24.5642 42.7639C24.5642 42.7639 24.5642 42.7639 24.6759 42.7639C24.6759 42.8756 24.6759 42.9873 24.6759 42.9873C24.5642 43.4339 24.4525 43.8805 24.3409 44.2155C24.3409 44.3272 24.2292 44.4388 24.2292 44.6622C24.2292 44.8855 24.1176 44.9971 23.7826 44.9971C23.3359 44.9971 22.8893 44.9971 22.4427 44.9971C22.2194 44.9971 21.996 44.8854 21.8844 44.8854C21.7727 44.8854 21.7727 44.7738 21.7727 44.6622C21.7727 44.5505 21.8844 44.5505 21.996 44.6622C22.2194 44.6622 22.331 44.7738 22.5543 44.7738C22.5543 44.4388 22.666 44.1038 22.666 43.8805C22.7777 43.5455 22.7777 43.2106 22.8893 42.9873C22.8893 42.764 22.8893 42.429 23.001 42.2056Z" fill="var(--fill-0, #5D5740)"/>
<path id="Vector_7" d="M32.9394 31.156C32.9394 30.9327 32.9394 30.8211 32.9394 30.5977C32.9394 30.0394 32.8278 29.4812 32.8278 28.9229C32.7161 28.0296 32.4928 27.248 32.1578 26.4664C32.0462 26.243 32.0462 26.0197 31.9345 25.7964C31.7112 25.0148 31.3762 24.3449 30.9296 23.5632C30.7063 23.2283 30.7063 22.8933 30.5946 22.5583L30.7063 22.67C30.8179 23.0049 31.0412 23.2283 31.1529 23.5632C31.4879 24.2332 31.7112 24.9031 32.0462 25.5731C32.1578 25.9081 32.3811 26.243 32.4928 26.6897C32.7161 27.583 32.9394 28.4762 33.0511 29.4812C33.0511 29.9278 33.0511 30.2628 33.0511 30.7094C33.0511 30.9327 33.0511 31.0444 32.9394 31.156Z" fill="var(--fill-0, #5D5740)"/>
<path id="Vector_8" d="M34.0559 41.7596C34.1676 41.648 34.1676 41.6479 34.2792 41.5363C35.1725 40.8663 35.9541 39.9731 36.7357 39.0798C37.0707 38.6332 37.5173 38.0749 37.8523 37.6282C38.1873 37.1816 38.4106 36.735 38.6339 36.2883C38.7456 36.1767 38.7456 35.9534 38.9689 35.8417C38.9689 35.8417 38.9689 35.8417 39.0806 35.8417C38.9689 36.1767 38.8573 36.5116 38.7456 36.735C37.964 38.0749 37.0707 39.3031 35.9541 40.3081C35.2842 40.8664 34.7259 41.313 34.0559 41.7596Z" fill="var(--fill-0, #5D5740)"/>
<path id="Vector_9" d="M8.14872 39.9784C7.81374 39.9784 7.70209 39.7551 7.47877 39.6435C7.47877 39.7551 7.47877 39.7551 7.59043 39.8668C7.47877 39.7551 7.36711 39.7551 7.25545 39.6435C6.47384 38.8619 5.80388 38.0802 5.24559 37.187C4.91061 36.7403 4.6873 36.1821 4.35232 35.7354C4.24066 35.5121 4.129 35.4004 4.129 35.1771C4.129 35.0655 4.129 34.9538 4.129 34.8421C4.24066 35.1771 4.46398 35.5121 4.57564 35.7354C4.91062 36.2937 5.13393 36.7403 5.46891 37.187C5.58057 37.2986 5.69223 37.522 5.80388 37.522C5.91554 37.522 5.91554 37.6336 6.0272 37.7453C6.47384 38.4152 7.14379 38.9735 7.81374 39.5318C7.9254 39.7551 8.03706 39.8668 8.14872 39.9784Z" fill="var(--fill-0, #5D5740)"/>
<path id="Vector_10" d="M9.49079 22.3323C9.60245 22.3323 9.71411 22.2206 9.82577 22.2206C10.1607 22.109 10.3841 21.8857 10.719 21.774C10.719 21.774 10.719 21.8857 10.6074 21.8857C10.4957 21.9973 10.2724 22.109 10.0491 22.2206C9.49079 22.5556 9.04416 22.8906 8.59752 23.3372C8.3742 23.5605 8.03922 23.8955 7.81591 24.1189C7.03429 24.7888 6.476 25.682 5.9177 26.4637C5.69439 26.687 5.58273 27.022 5.24775 27.2453C5.24775 27.1336 5.24775 27.1336 5.24775 27.022C5.35941 26.7986 5.58273 26.5753 5.69439 26.352C6.36434 25.4588 6.92264 24.4538 7.81591 23.7839C8.26254 23.4489 8.59752 23.0022 9.04416 22.6673C9.37913 22.5556 9.37913 22.444 9.49079 22.3323Z" fill="var(--fill-0, #5D5740)"/>
<path id="Vector_11" d="M17.9763 42.3186C16.748 41.9837 15.7431 41.4254 14.7381 40.6438C14.0682 40.0855 13.3982 39.5272 12.8399 38.8572C12.3933 38.4106 11.9467 37.964 11.7234 37.4057C11.6117 37.294 11.6117 37.1823 11.6117 37.0707C12.17 37.8523 12.7283 38.5223 13.3982 39.1922C14.0682 39.8622 14.8498 40.5321 15.5198 41.0904C16.1897 41.537 17.083 41.9837 17.9763 42.3186Z" fill="var(--fill-0, #5D5740)"/>
<path id="Vector_12" d="M25.5693 40.5334C25.681 40.5334 25.681 40.5334 25.7926 40.5334C26.016 40.8683 26.1276 40.98 26.4626 40.645C26.9092 40.1984 27.3559 39.8634 27.8025 39.3051C27.8025 39.3051 27.9142 39.1935 28.0258 39.1935C28.0258 39.3051 28.0258 39.3051 28.0258 39.4168C27.8025 39.6401 27.5792 39.9751 27.3559 40.1984C27.0209 40.5334 26.6859 40.8683 26.4626 41.0917C26.3509 41.2033 26.3509 41.315 26.2393 41.4267C26.1276 41.4267 26.016 41.4267 26.016 41.4267C25.9043 41.315 25.7926 41.2033 25.5693 41.2033C25.4577 41.2033 25.4577 40.98 25.5693 40.98C25.346 40.8683 25.4577 40.645 25.5693 40.5334Z" fill="var(--fill-0, #5D5740)"/>
<path id="Vector_13" d="M22.5546 14.0735C22.6663 13.8502 22.7779 13.6269 22.7779 13.4036C23.1129 12.1753 23.4479 10.9471 23.7829 9.83048C23.8945 9.4955 24.0062 9.04887 24.1178 8.71389C24.1178 8.60223 24.2295 8.60225 24.2295 8.49059C24.1178 8.82557 24.0062 9.16053 24.0062 9.38385C23.7829 10.5004 23.4479 11.5054 23.2246 12.622C23.1129 13.1802 22.8896 13.8502 22.6663 14.4085L22.5546 14.5202L22.443 14.4085C22.443 14.2968 22.443 14.1852 22.443 14.1852C22.5546 14.1852 22.5546 14.1852 22.5546 14.0735Z" fill="var(--fill-0, #5D5740)"/>
<path id="Vector_14" d="M8.15164 39.412C8.2633 39.5236 8.37496 39.5236 8.48662 39.6353C9.26823 40.1936 10.0498 40.8635 10.8315 41.5335C11.3897 41.9801 12.0597 42.4268 12.8413 42.6501C13.1763 42.7617 13.3996 42.8734 13.7346 42.9851C13.8462 43.0967 13.9579 43.0967 14.1812 43.2084C14.1812 43.2084 14.1812 43.2084 14.1812 43.32C13.9579 43.2084 13.7346 43.0967 13.5113 42.9851C12.8413 42.7617 12.1714 42.4268 11.6131 42.0918C11.1664 41.7568 10.7198 41.4218 10.2732 41.0869C9.71486 40.6402 9.04491 40.1936 8.48662 39.747C8.2633 39.6353 8.15164 39.6353 8.15164 39.412Z" fill="var(--fill-0, #5D5740)"/>
<path id="Vector_15" d="M7.59418 37.5192C7.70584 37.6308 7.81751 37.6308 7.92916 37.7425C8.48746 38.4124 9.26907 38.9707 10.0507 39.529C10.7206 40.0873 11.3906 40.4223 11.9489 40.9806L12.0605 41.0923C11.9489 41.0923 11.9489 41.0923 11.9489 41.0923C11.8372 41.0923 11.8372 40.9806 11.7256 40.9806C10.944 40.4223 10.0507 39.864 9.26907 39.1941C9.04575 38.9708 8.82243 38.8591 8.59912 38.7474C8.3758 38.5241 8.15248 38.4124 7.92916 38.1891C7.81751 37.9658 7.70584 37.7425 7.59418 37.5192Z" fill="var(--fill-0, #5D5740)"/>
<path id="Vector_16" d="M22.5548 14.0717V14.1833L22.4431 14.295C22.3315 14.1833 22.3315 14.0717 22.3315 13.96C22.4431 13.2901 22.5548 12.5085 22.7781 11.8385C23.0014 10.8336 23.3364 9.94029 23.5597 8.93536C23.6714 8.60038 23.6714 8.37705 23.8947 8.04207C23.8947 8.04207 24.0063 8.04208 24.0063 8.15373C23.783 8.71203 23.6714 9.27033 23.4481 9.94028C23.2247 10.9452 22.8898 12.0618 22.6664 13.0667C22.5548 13.29 22.5548 13.7367 22.5548 14.0717Z" fill="var(--fill-0, #5D5740)"/>
<path id="Vector_17" d="M2.90294 29.4771C2.90294 31.2637 3.23792 32.9386 3.79621 34.6134C3.57289 34.5018 3.57289 34.3901 3.57289 34.2784C3.46123 33.8318 3.23791 33.3852 3.12625 32.9386C2.90294 31.9336 2.67962 31.0403 2.67962 30.0354C2.67962 29.9238 2.67962 29.8121 2.67962 29.5888C2.79128 29.7004 2.79128 29.5888 2.90294 29.4771Z" fill="var(--fill-0, #5D5740)"/>
<path id="Vector_18" d="M23.3359 8.49059C22.8893 10.2771 22.331 12.0637 21.8844 13.9619C21.8844 13.9619 21.8844 13.9619 21.7727 13.9619C21.7727 13.8502 21.7727 13.8502 21.7727 13.7385C21.8844 13.1802 21.996 12.7336 22.1077 12.1753C22.331 11.1704 22.666 10.1655 23.001 9.16052C23.2243 8.9372 23.1126 8.71391 23.3359 8.49059Z" fill="var(--fill-0, #5D5740)"/>
<path id="Vector_19" d="M37.0699 37.4064C37.0699 37.5181 36.9583 37.7414 36.9583 37.853C36.6233 38.4113 36.2883 38.9696 35.9534 39.5279C35.6184 39.8629 35.2834 40.1979 34.9484 40.5329C34.7251 40.7562 34.5018 40.9795 34.1668 41.0911C34.0552 41.2028 33.9435 41.3145 33.7202 41.2028L33.8318 41.0911C34.7251 40.5329 35.3951 39.8629 36.065 39.0813C36.4 38.6347 36.6233 38.188 36.9583 37.7414C36.8466 37.6297 36.9583 37.5181 37.0699 37.4064Z" fill="var(--fill-0, #5D5740)"/>
<path id="Vector_20" d="M15.5203 37.5192C15.8553 37.8542 16.1902 38.1891 16.6369 38.5241C17.3068 39.0824 17.8651 39.7524 18.6467 40.199C18.87 40.3107 18.9817 40.4223 19.205 40.534C19.205 40.534 19.3167 40.534 19.3167 40.6456C19.3167 40.7573 19.4283 40.869 19.4283 40.869L19.3167 40.9806C19.205 40.9806 19.0934 40.869 19.0934 40.869C18.9817 40.534 18.7584 40.4223 18.5351 40.3107C18.2001 40.0873 17.8651 39.864 17.6418 39.529C16.9718 38.9707 16.4135 38.4124 15.8553 37.8542C15.6319 37.8542 15.5203 37.7425 15.5203 37.5192C15.5203 37.6308 15.5203 37.6308 15.5203 37.5192Z" fill="var(--fill-0, #5D5740)"/>
<path id="Vector_21" d="M9.15619 37.7376C8.0396 36.8444 6.6997 34.9462 6.6997 33.9412C6.92301 34.3879 7.14633 34.8345 7.36965 35.2812C7.59297 35.7278 7.92794 36.1744 8.26292 36.621C8.48624 36.956 8.82122 37.4027 9.15619 37.7376Z" fill="var(--fill-0, #5D5740)"/>
<path id="Vector_22" d="M6.25208 23.6711C5.58213 24.676 4.80051 25.5693 4.24222 26.6859C4.13056 26.5742 4.13056 26.4626 4.24222 26.4626C4.46554 25.9043 4.80052 25.346 5.24715 24.8993C5.47047 24.5644 5.80545 24.2294 6.02876 23.8944C6.14042 23.6711 6.14042 23.6711 6.25208 23.6711C6.25208 23.5594 6.25208 23.5594 6.25208 23.6711Z" fill="var(--fill-0, #5D5740)"/>
<path id="Vector_23" d="M29.3651 21.9925C28.8068 20.7642 28.3602 19.536 28.0252 18.1961C28.2485 18.7543 28.4718 19.4243 28.6951 20.0943C29.0301 20.7642 29.3651 21.3225 29.3651 21.9925Z" fill="var(--fill-0, #5D5740)"/>
<path id="Vector_24" d="M27.5793 21.9938C27.356 21.7704 27.356 21.5471 27.2443 21.3238C27.1326 20.6539 27.021 20.0956 26.9093 19.4256C26.7977 18.979 26.7977 18.5323 26.686 18.0857C26.686 17.974 26.686 17.8624 26.686 17.7507C27.021 19.2023 27.2443 20.5422 27.5793 21.9938Z" fill="var(--fill-0, #5D5740)"/>
<path id="Vector_25" d="M11.166 38.1837C10.9427 37.9603 10.8311 37.8487 10.6077 37.6254C10.2728 37.1787 9.82612 36.6204 9.49114 36.1738C9.37949 36.0622 9.37949 35.9505 9.26783 35.8388C9.26783 35.7272 9.26783 35.7272 9.26783 35.6155C9.93778 36.5088 10.6077 37.2904 11.166 38.1837C11.2777 38.1837 11.2777 38.1837 11.166 38.1837Z" fill="var(--fill-0, #5D5740)"/>
<path id="Vector_26" d="M22.1085 44.6649C22.1085 44.3299 22.4435 42.2084 22.5551 42.0967C22.5551 42.8783 22.4435 43.5483 22.3318 44.3299C22.2201 44.4416 22.2201 44.5532 22.1085 44.6649Z" fill="var(--fill-0, #5D5740)"/>
<path id="Vector_27" d="M3.57278 26.5739C3.12615 27.4671 2.90283 28.3604 2.67951 29.2537C2.4562 29.142 2.56785 29.0304 2.56785 28.9187C2.79117 27.8021 3.12615 26.9089 3.57278 26.5739Z" fill="var(--fill-0, #5D5740)"/>
<path id="Vector_28" d="M17.3067 41.4284C17.7533 41.3167 17.9766 41.7634 18.4233 41.7634C18.4233 42.0983 18.4233 42.3217 18.3116 42.545C18.3116 42.545 18.2 42.545 18.0883 42.6566C18.0883 42.545 18.0883 42.3216 17.9766 42.21C17.865 41.875 17.865 41.875 17.53 41.875C17.53 41.6517 17.4183 41.5401 17.3067 41.4284Z" fill="var(--fill-0, #5D5740)"/>
<path id="Vector_29" d="M18.646 39.6425C18.4227 39.5308 17.0828 37.9676 16.8594 37.6326C17.3061 37.8559 17.5294 38.3026 17.7527 38.5259C18.0877 38.8609 18.4227 39.1958 18.646 39.6425Z" fill="var(--fill-0, #5D5740)"/>
<path id="Vector_30" d="M27.2447 10.2756C27.3564 9.15906 27.5797 8.15413 27.9147 7.03755L28.0264 6.92588C28.0264 6.92588 28.0264 6.92588 28.138 6.92588C27.9147 7.70749 27.6914 8.60078 27.5797 9.38239C27.3564 9.71737 27.3564 10.0523 27.2447 10.2756Z" fill="var(--fill-0, #5D5740)"/>
<path id="Vector_31" d="M21.6629 44.5503C21.5513 44.327 21.8862 42.3172 22.1095 41.8705C22.2212 42.0938 22.1095 42.3172 22.1095 42.5405C22.1095 42.7638 21.9979 42.9871 21.9979 43.2104C21.9979 43.4337 21.9979 43.6571 21.8862 43.8804C21.8862 44.2154 21.8862 44.4387 21.6629 44.5503Z" fill="var(--fill-0, #5D5740)"/>
<path id="Vector_32" d="M5.47152 33.4998C5.58318 34.2814 5.91815 34.8396 6.14147 35.3979C6.14147 35.5096 6.25313 35.5096 6.25313 35.6213C6.25313 35.6213 6.25313 35.6213 6.14147 35.6213C6.14147 35.5096 6.02981 35.5096 6.02981 35.3979C5.80649 35.063 5.69483 34.6163 5.47152 34.2813C5.35986 34.058 5.2482 33.8347 5.47152 33.4998Z" fill="var(--fill-0, #5D5740)"/>
<path id="Vector_33" d="M20.9914 42.4286C20.8797 43.2102 20.7681 43.8802 20.6564 44.6618C20.4331 44.5501 20.5448 44.4385 20.5448 44.3268C20.6564 43.8802 20.6564 43.4336 20.7681 42.9869C20.7681 42.8753 20.7681 42.7636 20.7681 42.6519C20.7681 42.6519 20.7681 42.5403 20.9914 42.4286C20.8797 42.4286 20.8797 42.4286 20.9914 42.4286Z" fill="var(--fill-0, #5D5740)"/>
<path id="Vector_34" d="M25.0113 37.7345C25.0113 37.8461 25.0113 37.9578 25.0113 37.9578C24.6763 38.5161 24.453 39.0744 24.0064 39.7444C24.0064 39.6327 24.0064 39.6327 24.0064 39.521C24.2297 38.8511 24.5647 38.2928 25.0113 37.7345Z" fill="var(--fill-0, #5D5740)"/>
<path id="Vector_35" d="M18.8705 39.1861C18.5355 38.7394 18.0889 38.2928 17.7539 37.7345C17.7539 37.7345 17.8656 37.7345 17.8656 37.8461C18.3122 38.2928 18.6472 38.8511 19.0938 39.2977C19.0938 39.4094 19.2055 39.4094 19.0938 39.521C19.0938 39.4094 18.9822 39.2977 18.8705 39.1861Z" fill="var(--fill-0, #5D5740)"/>
<path id="Vector_36" d="M3.90843 26.8001C3.68511 27.5817 3.46179 28.2516 3.23847 29.0332C3.12681 28.8099 3.23847 28.6983 3.35013 28.2516C3.46179 28.0283 3.46179 27.6933 3.57345 27.47C3.57345 27.2467 3.57345 26.9117 3.90843 26.8001Z" fill="var(--fill-0, #5D5740)"/>
<path id="Vector_37" d="M21.2153 44.5501C21.2153 44.4385 21.2153 44.4385 21.2153 44.3268C21.3269 43.6569 21.4386 43.0986 21.6619 42.4286C21.7736 42.6519 21.6619 42.8753 21.6619 43.0986C21.6619 43.3219 21.5502 43.5452 21.5502 43.8802C21.4386 44.1035 21.4386 44.3268 21.2153 44.5501Z" fill="var(--fill-0, #5D5740)"/>
<path id="Vector_38" d="M9.04352 21.2159C8.48523 21.7742 7.92693 22.2208 7.36864 22.7791V22.6675C7.81528 21.9975 8.37357 21.6625 9.04352 21.2159Z" fill="var(--fill-0, #5D5740)"/>
<path id="Vector_39" d="M24.5653 44.9929C24.4536 44.9929 24.4536 44.8812 24.4536 44.7696C24.5653 44.3229 24.6769 43.7646 24.9003 43.318C24.9003 43.318 24.9003 43.318 25.0119 43.318C25.0119 43.4296 25.0119 43.4297 25.0119 43.5413C24.9003 43.7646 24.9003 43.988 24.7886 44.2113C24.677 44.4346 24.677 44.6579 24.677 44.8812L24.5653 44.9929Z" fill="var(--fill-0, #5D5740)"/>
<path id="Vector_40" d="M18.8706 39.1935C19.0939 39.6401 19.4289 40.0867 19.8755 40.3101C19.7639 40.5334 19.6522 40.645 19.5405 40.4217C19.3172 40.0867 18.9822 39.7517 18.7589 39.4168C18.6473 39.3051 18.6473 39.1935 18.8706 39.1935Z" fill="var(--fill-0, #5D5740)"/>
<path id="Vector_41" d="M21.3249 42.4286C21.3249 43.0986 21.1016 43.6569 21.1016 44.3268C21.1016 44.3268 21.1016 44.3268 20.9899 44.3268L20.8782 44.2152C20.8782 43.9919 21.2132 42.6519 21.3249 42.4286Z" fill="var(--fill-0, #5D5740)"/>
<path id="Vector_42" d="M20.0985 42.7599C19.9868 43.3182 19.9868 43.8765 19.8752 44.4348C19.6518 44.4348 19.6518 44.3231 19.6518 44.2115C19.8752 43.7648 19.8752 43.2065 20.0985 42.7599Z" fill="var(--fill-0, #5D5740)"/>
<path id="Vector_43" d="M20.5426 42.7599C20.5426 42.8716 20.5426 42.8716 20.5426 42.8716C20.431 43.3182 20.431 43.8765 20.3193 44.3231C20.3193 44.3231 20.3193 44.3231 20.2077 44.3231C20.096 43.9881 20.2077 43.5415 20.2077 43.2065C20.3193 43.0949 20.3193 42.8716 20.5426 42.7599Z" fill="var(--fill-0, #5D5740)"/>
<path id="Vector_44" d="M25.4568 43.7713C25.4568 43.8829 25.4568 43.9946 25.3451 43.9946C25.2335 44.2179 25.1218 44.5529 25.1218 44.8879C25.1218 44.8879 25.1218 44.9995 25.0101 44.9995C25.0101 44.9995 24.8985 45.1112 24.8985 44.9995L24.7868 44.8879V44.7762C24.8985 44.4413 25.0101 44.1063 25.2335 43.7713C25.3451 43.7713 25.3451 43.7713 25.4568 43.7713Z" fill="var(--fill-0, #5D5740)"/>
<path id="Vector_45" d="M25.2341 45.3344C25.2341 44.8877 25.569 44.2178 25.6807 44.1061C25.7924 44.3294 25.569 45.1111 25.2341 45.3344Z" fill="var(--fill-0, #5D5740)"/>
<path id="Vector_46" d="M19.5398 44.6635C19.3165 44.2169 19.5398 43.8819 19.6514 43.4352C19.7631 43.6586 19.6514 44.4402 19.5398 44.6635Z" fill="var(--fill-0, #5D5740)"/>
<path id="Vector_47" d="M25.57 40.5303C25.57 40.5303 25.4583 40.5303 25.4583 40.4186C25.4583 40.4186 25.4583 40.307 25.57 40.307C25.7933 39.972 26.1283 39.7487 26.4633 39.5254C26.4633 39.5254 26.4633 39.637 26.3516 39.637C26.1283 39.8604 26.0166 39.972 25.7933 40.1953C25.6816 40.307 25.57 40.4186 25.57 40.5303Z" fill="var(--fill-0, #5D5740)"/>
<path id="Vector_48" d="M19.6516 16.3033C19.6516 16.6383 19.3166 17.4198 18.9816 17.6432V17.5315C19.2049 17.0849 19.4283 16.7499 19.6516 16.3033Z" fill="var(--fill-0, #5D5740)"/>
<path id="Vector_49" d="M22.7765 40.0865C22.6648 40.0865 22.6648 39.9749 22.5532 39.9749C22.6648 39.8632 22.6648 39.7516 22.7765 39.7516C22.8881 39.7516 22.9998 39.7516 22.9998 39.7516C23.1115 39.7516 23.1115 39.8632 23.1115 39.9749C23.1115 40.0865 22.9998 40.0865 22.8881 40.0865H22.7765Z" fill="var(--fill-0, #5D5740)"/>
<path id="Vector_50" d="M18.8693 46.7847C18.8693 46.8964 18.7577 47.008 18.7577 47.1197L18.646 47.2313C18.5344 47.2313 18.5344 47.1197 18.5344 47.1197C18.5344 47.008 18.5344 46.8964 18.646 46.7847C18.646 46.5614 18.7577 46.5614 18.8693 46.7847Z" fill="var(--fill-0, #5D5740)"/>
<path id="Vector_51" d="M18.5344 40.9844C18.646 40.9844 18.7577 40.9844 18.8693 41.096C18.8693 41.096 18.981 41.2077 18.981 41.3194L18.8693 41.431C18.8693 41.431 18.7577 41.431 18.7577 41.3194C18.646 41.3194 18.646 41.2077 18.5344 40.9844Z" fill="var(--fill-0, #5D5740)"/>
<path id="Vector_52" d="M33.1626 38.0745C32.9393 38.2978 32.716 38.6328 32.4927 38.8561C32.4927 38.8561 32.4927 38.8561 32.381 38.7445C32.6043 38.5211 32.8276 38.1862 33.1626 38.0745C33.1626 37.9629 33.1626 37.9629 33.1626 38.0745Z" fill="var(--fill-0, #5D5740)"/>
<path id="Vector_53" d="M37.0687 37.4066C37.0687 37.1833 37.1804 37.0716 37.1804 36.8483C37.1804 36.8483 37.1804 36.8483 37.2921 36.8483C37.2921 37.0716 37.1804 37.1833 37.0687 37.4066Z" fill="var(--fill-0, #5D5740)"/>
<path id="Vector_54" d="M33.3854 20.9897C34.3903 21.9947 35.3952 22.8879 36.4001 23.8929C36.1768 23.8929 36.1768 23.7812 36.0652 23.7812C35.6185 23.3346 35.1719 22.9996 34.7253 22.5529C34.2786 22.1063 33.832 21.6597 33.3854 21.2131C33.3854 21.1014 33.3854 20.9897 33.3854 20.9897Z" fill="var(--fill-0, #5D5740)"/>
<path id="Vector_55" d="M40.1969 36.5144C40.4202 35.9561 40.6435 35.3978 40.7552 34.8395C40.8668 34.2812 40.9785 33.7229 41.0902 33.1646V33.2763C41.0902 33.6113 41.0902 34.0579 40.9785 34.3929C40.8668 34.7279 40.7552 35.0628 40.6435 35.3978C40.6435 35.7328 40.4202 36.1794 40.1969 36.5144Z" fill="var(--fill-0, #5D5740)"/>
<path id="Vector_56" d="M38.9674 37.7345C38.7441 38.5161 38.1858 38.9627 37.7391 39.521C37.7391 39.521 37.7391 39.521 37.6275 39.521C38.1858 38.8511 38.5207 38.2928 38.9674 37.7345Z" fill="var(--fill-0, #5D5740)"/>
<path id="Vector_57" d="M39.7508 37.6326C39.6392 37.9676 39.3042 38.4142 38.9692 38.7492C39.1925 38.4142 39.4158 38.0792 39.7508 37.6326Z" fill="var(--fill-0, #5D5740)"/>
<path id="Vector_58" d="M41.6488 36.0688C41.7605 35.6221 41.9838 35.1755 42.0955 34.7289C42.2071 34.2823 42.3188 33.8356 42.4304 33.2773C42.5421 32.8307 42.5421 32.3841 42.5421 31.8258C42.5421 31.3791 42.5421 30.9325 42.5421 30.3742C42.6538 30.5975 42.6538 30.9325 42.6538 31.1558C42.7654 32.2724 42.6538 33.2773 42.3188 34.3939C42.2071 34.8405 42.0955 35.2872 41.8722 35.7338C41.8722 35.9571 41.8721 36.0688 41.6488 36.0688C41.7605 36.1804 41.6488 36.1804 41.6488 36.0688Z" fill="var(--fill-0, #5D5740)"/>
<path id="Vector_59" d="M2.45536 35.7283C3.23697 36.9565 4.2419 37.9615 5.24683 39.0781C4.8002 38.8547 2.56702 36.2866 2.45536 35.7283Z" fill="var(--fill-0, #5D5740)"/>
<path id="Vector_60" d="M6.4751 21.8874C5.58183 22.669 4.46524 23.2273 3.90695 24.3439C3.79529 24.1206 3.90695 24.0089 3.90695 24.0089C4.13027 23.674 4.35359 23.339 4.68856 23.1156C5.24686 22.7807 5.69349 22.334 6.25179 21.9991C6.36345 21.8874 6.36344 21.8874 6.4751 21.8874Z" fill="var(--fill-0, #5D5740)"/>
</g>
</svg>
