<svg preserveAspectRatio="none" width="100%" height="100%" overflow="visible" style="display: block;" viewBox="0 0 25.4554 28.0075" fill="none" xmlns="http://www.w3.org/2000/svg">
<g id="Group">
<path id="Vector" d="M17.6683 12.106C17.7337 12.3024 17.8646 12.4332 17.93 12.6295C18.3881 13.3494 18.7153 14.0692 19.1079 14.789C19.4351 15.5088 19.6314 16.2286 19.8277 16.9485C20.0241 17.6683 19.9586 18.4535 19.8277 19.1734C19.7623 19.6969 19.6969 20.2204 19.4351 20.6784C19.2388 21.0711 19.1079 21.4637 18.8462 21.7909C18.3881 22.5761 17.7992 23.2305 17.1448 23.8195C16.9485 24.0158 16.6867 24.2121 16.425 24.343C16.425 24.343 16.3595 24.4084 16.2941 24.4084C16.425 24.4084 16.5558 24.4084 16.6213 24.4084C16.6213 24.4084 16.6213 24.4084 16.6213 24.4738C16.883 24.2775 17.0793 24.1467 17.3411 23.9503C17.2757 24.0812 17.2102 24.1466 16.883 24.4084C16.7521 24.5393 16.5558 24.6702 16.3595 24.7356C16.1632 24.8665 16.0323 24.9319 15.836 25.0628C15.9015 25.1937 15.9015 25.1937 16.0323 25.1282C16.3595 24.9973 16.6867 24.801 17.0139 24.6047C17.6683 24.2121 18.3227 23.754 18.8462 23.1651C18.977 23.0342 19.1079 22.9033 19.2388 22.7724C19.3042 22.707 19.3042 22.707 19.3697 22.6416C19.3697 22.707 19.3042 22.7724 19.3042 22.7724C18.8462 23.3614 18.3227 23.8849 17.6683 24.2775C17.0793 24.6702 16.425 24.9974 15.7706 25.2591C15.5743 25.3245 15.4434 25.1937 15.3125 25.1937C15.2471 25.1937 15.2471 25.1282 15.3125 25.0628C15.3779 24.9973 15.4434 24.9974 15.5088 24.9319C15.2471 24.9319 15.2471 24.9319 15.1816 24.7356C15.1162 24.6702 15.1162 24.6047 15.0508 24.5393C14.9853 24.4738 14.9853 24.4084 15.0508 24.343C15.1816 24.2121 15.2471 24.1466 15.4434 24.0812C15.6397 24.0158 15.7706 23.8849 15.9015 23.8195C16.1632 23.6231 16.3595 23.3614 16.6213 23.1651L16.6867 23.0996C17.0793 22.8379 17.2757 22.4453 17.5374 22.0526C17.7337 21.7909 17.8646 21.5291 18.0609 21.2019L18.1264 21.1365C18.0609 21.2674 17.9955 21.3983 17.93 21.5946C17.6028 22.1835 17.2102 22.707 16.8176 23.2305C16.6867 23.4268 16.4904 23.5577 16.2286 23.6886C16.0323 23.8195 15.836 24.0158 15.6397 24.2121C15.6397 24.2775 15.7051 24.343 15.7051 24.4084C16.6867 23.9503 17.3411 23.1651 17.9955 22.3144C17.9955 22.5107 17.8646 22.6416 17.7992 22.7724C17.7337 22.9033 17.6028 23.0342 17.472 23.2305C17.9955 22.8379 19.1734 21.0056 19.3697 20.1549C19.1734 20.5476 19.0425 20.9402 18.7153 21.2674V21.2019C18.977 20.6784 19.2388 20.1549 19.3697 19.566C19.566 19.3042 19.566 18.9116 19.6314 18.5844C19.6314 18.2572 19.6969 17.93 19.6969 17.6028C19.6969 17.2757 19.566 16.9485 19.5005 16.6213C19.3697 16.1632 19.2388 15.7706 19.1079 15.3125C18.977 14.9199 18.7807 14.4618 18.519 14.0692C18.1918 13.4802 17.8646 12.8913 17.5374 12.3024C17.4065 12.0406 17.2102 11.7789 17.0139 11.5171C16.8176 11.2554 16.6867 10.9282 16.6213 10.5355C16.5558 10.2083 16.425 9.81571 16.3595 9.48852C16.3595 9.42308 16.3595 9.35763 16.2286 9.2922C16.1632 9.2922 16.1632 9.16133 16.1632 9.09589C16.1632 8.89958 16.1632 8.63782 16.2941 8.44151C16.3595 8.37607 16.3595 8.24519 16.3595 8.11432C16.3595 7.72169 16.3595 7.39449 16.425 7.00186C16.425 6.87099 16.425 6.74013 16.425 6.60925C16.3595 7.06732 16.2286 7.59081 16.2941 8.04888C16.2941 8.11431 16.2941 8.24519 16.2941 8.31062L16.2286 8.37607C16.1632 7.26362 16.3595 6.15117 16.7522 5.10416C16.7522 5.1696 16.6867 5.30047 16.6867 5.36591C16.6867 5.49679 16.6213 5.56223 16.6213 5.6931C16.5558 5.88942 16.4904 6.15117 16.4904 6.34748C16.5558 6.21661 16.5558 6.08575 16.5558 5.95487C16.5558 5.88943 16.5558 5.75854 16.5558 5.6931C16.5558 5.62766 16.6213 5.62768 16.6213 5.56224C16.6867 5.23505 16.8176 4.9733 16.883 4.64611C16.883 4.58067 16.9485 4.51522 17.0139 4.38434C17.0139 4.3189 17.0139 4.31891 17.0139 4.25348C17.0139 4.1226 17.0139 4.12259 17.1448 4.12259C17.2102 4.12259 17.2102 4.12259 17.2757 4.12259C17.2757 4.25347 17.2102 4.38435 17.2102 4.51522C17.1448 4.51522 17.0793 4.64609 17.0139 4.71153C17.0139 4.84241 16.9485 4.90784 16.883 5.03872C16.8176 5.1696 16.7522 5.36592 16.7522 5.4968C16.6867 6.21661 16.5558 6.871 16.4904 7.59082C16.4904 7.65626 16.4904 7.78713 16.5558 7.85257C16.6213 7.91801 16.6213 7.98344 16.6213 8.04888C16.6213 8.24519 16.6213 8.37608 16.6213 8.57239V8.63782C16.6867 8.57238 16.6867 8.50695 16.6867 8.50695C16.6867 8.17976 16.6867 7.78713 16.6867 7.45994C16.6867 6.74012 16.8176 6.08573 16.9485 5.43135C17.0139 5.23504 17.0793 4.97329 17.1448 4.77697C17.1448 4.71153 17.2102 4.71155 17.2757 4.64611C17.3411 4.71155 17.3411 4.77698 17.3411 4.84241C17.1448 5.30048 17.0793 5.75855 17.0139 6.21662C16.9485 6.67468 16.883 7.13276 16.8176 7.59082C16.8176 7.65626 16.8176 7.72169 16.8176 7.78713C16.883 7.59081 16.883 7.32906 16.9485 7.13275C17.0139 6.67468 17.1448 6.21661 17.2102 5.6931C17.2757 5.49679 17.2757 5.30048 17.2757 5.10416C17.2757 5.03872 17.2757 5.03874 17.3411 4.9733C17.472 5.03874 17.5374 5.10417 17.6028 5.23505C17.6028 5.36592 17.5374 5.4968 17.5374 5.62768C17.4065 5.95487 17.2757 6.28206 17.2102 6.60925C17.0793 6.93644 17.1448 7.32905 17.1448 7.65624C17.1448 7.85256 17.2102 8.11431 17.2102 8.31062C17.2102 8.37606 17.2102 8.44151 17.2757 8.44151C17.4065 8.50695 17.3411 8.63782 17.3411 8.7687C17.3411 9.03045 17.472 9.29221 17.6028 9.55396C17.8646 9.94659 18.1918 10.3392 18.5844 10.6664C18.6499 10.7318 18.7807 10.7973 18.9116 10.8627C19.566 11.2554 20.2204 11.7134 20.8747 12.106C21.1365 12.3024 21.3983 12.4332 21.66 12.5641C21.9218 12.695 22.1181 12.8913 22.3144 13.0222C22.5761 13.2185 22.7725 13.3494 22.9688 13.5457C23.4268 14.0037 23.8849 14.4618 24.2775 14.9853C24.6047 15.3779 24.801 15.836 24.9973 16.2941C25.0628 16.425 25.0628 16.4904 25.1282 16.6213C25.1937 16.9485 25.3245 17.2757 25.39 17.6683C25.4554 18.1263 25.39 18.6498 25.3245 19.1079C25.1937 19.7623 25.0628 20.4167 24.801 21.0056C24.5393 21.5946 24.2775 22.1835 23.8195 22.7724C23.5577 23.1651 23.2305 23.5577 22.9033 23.8849C22.6416 24.1467 22.3144 24.343 21.9872 24.5393C21.9218 24.6047 21.8563 24.6047 21.8563 24.6701C21.3328 25.1282 20.6784 25.4554 20.0895 25.7172C19.7623 25.848 19.4351 25.9789 19.0425 26.1098C18.5844 26.2407 18.1263 26.3715 17.6028 26.5024C17.0793 26.6333 16.6213 26.6987 16.0978 26.8296C16.0323 26.8296 16.0323 26.8296 15.9669 26.8951C16.0323 26.9605 16.0978 27.0259 16.1632 27.0259C16.0323 27.1568 16.0323 27.1568 15.836 27.0259C15.7051 27.0914 15.6397 27.1568 15.5088 27.1568C15.5088 27.2222 15.5743 27.2222 15.5743 27.2877C15.6397 27.484 15.6397 27.6149 15.4434 27.6803C15.3125 27.7457 15.1816 27.8112 15.0508 27.8112C14.8544 27.8112 14.6581 27.8112 14.4618 27.8112C14.2655 27.8112 14.1346 27.6803 14.0037 27.6149C13.9383 27.5494 13.8074 27.5494 13.742 27.484C13.6766 27.6149 13.6766 27.6149 13.9383 27.7457C13.8074 27.9421 13.6766 27.8766 13.4148 27.6149C13.3494 27.6803 13.3494 27.7457 13.3494 27.8112C13.3494 27.8766 13.3494 27.9421 13.2185 27.9421C13.1531 27.9421 13.1531 27.8766 13.1531 27.8112C13.1531 27.6803 13.1531 27.6149 13.2185 27.484C13.1531 27.484 13.1531 27.484 13.0876 27.5494C13.0222 27.6149 13.0222 27.7457 12.9567 27.8112C12.8913 27.8766 12.8913 28.0075 12.7604 28.0075C12.6296 27.8112 12.8259 27.6803 12.8259 27.484C12.6296 27.5494 12.695 27.8112 12.4987 27.8766C12.4332 27.8112 12.3678 27.8112 12.4332 27.6803C12.4332 27.6149 12.4332 27.5494 12.4332 27.484C12.3678 27.6149 12.4332 27.6803 12.4332 27.6803C12.3678 27.6803 12.3678 27.6803 12.3024 27.7457C12.1715 27.7457 12.1715 27.7457 12.106 27.6149C12.106 27.5494 12.106 27.484 12.106 27.4186C11.8443 27.6803 11.8443 27.6803 11.7134 27.484C11.5171 27.6149 11.4517 27.5494 11.4517 27.3531C11.3208 27.3531 11.3208 27.484 11.2554 27.5494C11.059 27.5494 11.1245 27.4185 11.1245 27.2877C11.059 27.3531 10.9936 27.4186 10.9282 27.484L10.8627 27.5494C10.7973 27.5494 10.7973 27.5494 10.7318 27.5494C10.7318 27.5494 10.6664 27.484 10.7318 27.4186C10.7973 27.3531 10.7973 27.2877 10.8627 27.1568C10.7318 27.0259 10.601 26.9605 10.4701 26.7642C10.5355 27.0259 10.3392 27.0914 10.2738 27.2222C10.2738 27.2222 10.2083 27.2222 10.1429 27.2222C10.1429 27.1568 10.1429 27.1568 10.1429 27.0914C10.1429 27.0259 10.2083 27.0259 10.2083 26.9605C10.0775 26.895 10.012 26.7642 10.0775 26.6333C10.0775 26.5679 10.1429 26.5024 10.1429 26.437C10.1429 26.3061 10.1429 26.2407 10.012 26.1752C9.75027 26.1098 9.42308 26.0443 9.16133 25.9789C8.63783 25.848 8.17976 25.7826 7.65626 25.6517C7.13275 25.5208 6.54381 25.3245 6.0203 25.1282C5.62768 24.9973 5.23505 24.801 4.84242 24.6701C4.44979 24.5393 4.05716 24.343 3.72997 24.1466C3.46822 23.9503 3.14103 23.754 2.87928 23.5577C2.48665 23.296 2.09402 22.9033 1.76683 22.5761C1.57051 22.3798 1.43964 22.1835 1.30876 21.9872C1.11245 21.66 0.916135 21.3982 0.71982 21.0711C0.458068 20.6784 0.327191 20.2204 0.261753 19.8277C0.196315 19.4351 0.130878 19.0425 0.0654396 18.6499C1.49678e-06 18.3227 0 17.93 0 17.6028C0 17.3411 1.49678e-06 17.0793 0.0654396 16.8176C0.196316 15.9014 0.523506 15.1162 1.04701 14.3309C1.24333 14.0037 1.43964 13.6111 1.76683 13.2839C2.02858 12.9567 2.35577 12.695 2.68296 12.3678C3.20647 11.9097 3.79541 11.5825 4.44979 11.2553C4.90786 11.059 5.30049 10.8627 5.69311 10.6664C5.88943 10.601 6.08574 10.5355 6.28206 10.4047C6.60925 10.2738 6.93644 10.1429 7.26363 10.012C7.65626 9.88114 8.04889 9.68484 8.44151 9.48852C8.89958 9.22677 9.35765 8.89958 9.75028 8.44151C10.012 8.17976 10.2738 7.91801 10.4701 7.59082C10.601 7.39451 10.7318 7.19819 10.7973 6.93644C10.9936 6.47837 11.1245 6.08575 11.2554 5.62768C11.2554 5.4968 11.3208 5.36592 11.2554 5.1696C11.1899 4.97329 11.2554 4.84242 11.3208 4.64611C11.5171 4.71155 11.3208 4.84242 11.4517 4.9733C11.5171 5.03874 11.4517 5.16961 11.5171 5.30049C11.5825 5.16961 11.648 4.84241 11.5825 4.71153C11.5171 4.51522 11.5171 4.25346 11.4517 4.05715V3.99173C11.5825 3.92629 11.648 3.7954 11.7789 3.72996C11.9097 3.66452 11.9752 3.53365 12.106 3.46821C12.2369 3.33733 12.4332 3.33733 12.5641 3.46821C12.6296 3.40277 12.695 3.33734 12.695 3.2719C12.695 3.20647 12.7604 3.14102 12.8259 3.07558C13.1531 2.74839 13.4148 2.4212 13.6111 2.09401C13.6111 2.09401 13.6766 2.02858 13.742 1.96314C13.742 2.15946 13.6111 2.35577 13.5457 2.55208C13.6766 2.42121 13.8074 2.09402 14.0037 1.30876C14.1346 0.916133 14.1346 0.458067 14.2655 0C14.3964 0.0654381 14.5273 0.130868 14.6581 0.196306C14.789 0.261744 14.789 0.327178 14.7236 0.458055C14.6581 0.588931 14.6581 0.719811 14.5273 0.850687C14.5273 0.850687 14.5273 0.916133 14.5273 0.981571C14.4618 1.57051 14.3964 2.22489 14.3309 2.81383C14.3309 2.94471 14.2655 3.07558 14.2655 3.14102C14.2655 2.87927 14.3309 2.55209 14.3309 2.29033C14.2655 2.42121 14.2001 2.55207 14.1346 2.74839C14.1346 2.68295 14.0692 2.68296 14.0692 2.61752C14.1346 2.35577 14.2001 2.02857 14.2655 1.76682C14.3964 1.50506 14.3964 1.24332 14.3964 0.981571C14.2655 1.24332 14.2655 1.50506 14.2001 1.76682C14.1346 2.02857 14.0692 2.29033 14.0037 2.55208C14.0037 2.02858 14.2001 1.5705 14.2001 1.11244C14.1346 1.30875 14.0692 1.50508 14.0692 1.70139C14.0038 2.15946 13.8729 2.61751 13.8074 3.07558C13.8074 3.14102 13.8074 3.14102 13.8074 3.20646C13.8074 3.33734 13.8074 3.40277 13.9383 3.40277C13.9383 3.46821 14.0037 3.53366 14.0037 3.59909C14.0037 3.66453 14.0037 3.72996 13.9383 3.7954C13.742 4.12259 13.5457 4.44978 13.3494 4.77697C13.2185 5.10416 13.0876 5.43135 12.9567 5.75854C12.8259 6.15117 12.7604 6.54381 12.695 6.93644C12.6295 7.19819 12.6296 7.52538 12.5641 7.85257C12.5641 7.91801 12.5641 7.98344 12.5641 8.04888C12.4332 8.04888 12.4332 7.98345 12.4332 7.91801C12.4332 7.65626 12.4332 7.3945 12.4332 7.13275C12.4332 7.00187 12.4332 6.93643 12.4332 6.80556C12.4332 6.67468 12.4987 6.5438 12.4332 6.41292C12.5641 5.95486 12.7604 5.49679 12.8913 5.03872C12.8259 5.03872 12.8259 5.10416 12.8259 5.10416C12.7604 5.36592 12.6296 5.56223 12.5641 5.82399C12.4987 6.0203 12.4987 6.21661 12.4332 6.41292L12.3678 6.47837C12.3024 6.80556 12.1715 7.13275 12.1715 7.45994C12.1715 7.65625 12.106 7.918 12.0406 8.11432C12.0406 8.11432 12.106 8.11432 12.106 8.17976V8.11432C12.1715 8.11432 12.1715 8.04888 12.2369 8.11432C12.2369 8.11432 12.3024 8.17976 12.3024 8.2452C12.3024 8.37608 12.2369 8.44152 12.2369 8.57239C12.3024 8.50696 12.3024 8.44151 12.3678 8.44151C12.4332 8.44151 12.4332 8.37607 12.4987 8.37607C12.4987 8.37607 12.5641 8.44151 12.5641 8.50695V8.57239C12.6296 8.63783 12.7604 8.63782 12.7604 8.7687C12.7604 8.83414 12.7604 8.96501 12.7604 9.09589C12.9567 9.03045 13.0222 8.83413 13.0876 8.70326C13.3494 8.24519 13.4802 7.72169 13.6766 7.19819C13.742 7.13275 13.742 7.00186 13.8074 7.00186C13.8729 7.00186 13.8729 6.93644 13.8729 6.871C13.9383 6.60925 14.0692 6.41293 14.0692 6.15118C14.2001 5.69311 14.3309 5.23504 14.3964 4.84241C14.4618 4.18803 14.5273 3.53365 14.5927 2.87927C14.5927 2.7484 14.5927 2.68296 14.5927 2.55208C14.5927 2.48664 14.5927 2.42121 14.5927 2.29033C14.5927 2.29033 14.5927 2.29033 14.5273 2.29033C14.4618 2.7484 14.3964 3.14103 14.3309 3.59909C14.3309 3.01015 14.4618 2.48664 14.5273 1.83226C14.5927 1.8977 14.5927 1.8977 14.6581 1.96314C14.6581 1.76683 14.6581 1.5705 14.6581 1.43963C14.6581 1.30875 14.5927 1.11245 14.6581 0.981571C14.789 1.04701 14.789 1.11244 14.789 1.17788C14.789 1.50507 14.8544 1.76682 14.8544 2.09401C14.8544 2.15944 14.8544 2.15945 14.8544 2.22489C14.9199 2.29033 14.9853 2.29034 15.0508 2.35578C15.0508 2.2249 15.0508 2.15946 14.9853 2.02858C14.9199 1.83227 14.9199 1.57052 14.8544 1.3742C14.8544 1.30877 14.8544 1.17787 14.8544 1.11244C14.9853 1.17787 14.9853 1.24332 14.9853 1.30876C15.0508 1.70139 15.1816 2.09401 15.2471 2.48664C15.2471 2.55208 15.3125 2.68295 15.3125 2.74839C15.3125 2.81383 15.2471 2.87928 15.2471 2.94471C15.2471 2.94471 15.2471 2.94471 15.1816 2.94471C15.1816 2.81384 15.1162 2.68295 15.1162 2.48664H15.0508C15.0508 2.55208 15.0508 2.61753 15.0508 2.68297C14.9853 3.27191 14.9199 3.92628 14.8544 4.51522C14.7236 5.23504 14.5927 5.95485 14.4618 6.67467C14.3964 7.13274 14.2001 7.52538 14.0692 7.91801C14.0038 8.04889 14.0038 8.11433 14.0692 8.2452C14.1346 8.37608 14.0692 8.44151 14.0037 8.50695C13.8729 8.57239 13.8729 8.70327 13.8074 8.83414C13.742 9.16133 13.6766 9.48852 13.6111 9.81571C13.6111 9.88115 13.6111 9.88114 13.5457 9.94658C13.5457 9.94658 13.5457 9.94658 13.4802 9.94658C13.4802 9.88114 13.4802 9.81571 13.4802 9.75027C13.4802 9.61939 13.5457 9.42307 13.5457 9.2922C13.5457 9.22676 13.6111 9.16133 13.4802 9.09589C13.4802 9.09589 13.4802 9.03044 13.4802 8.96501C13.4802 8.83413 13.5457 8.76869 13.5457 8.63782C13.5457 8.63782 13.5457 8.63782 13.4802 8.63782L13.4148 8.70326C13.1531 9.35764 12.9567 10.012 12.8913 10.6664C12.8259 11.1899 12.7604 11.7788 12.6296 12.3024C12.5641 12.5641 12.4987 12.8913 12.4332 13.1531C12.2369 13.742 11.9752 14.3309 11.7134 14.9199C11.5825 15.2471 11.4517 15.5088 11.3208 15.836C11.3208 15.9014 11.2554 15.9669 11.1245 15.9669V15.9014C11.5825 15.0508 11.9097 14.0692 12.2369 13.1531C12.4332 12.695 12.4987 12.1715 12.4987 11.648C12.4987 11.2553 12.4987 10.8627 12.4987 10.5355C12.4987 10.1429 12.5641 9.75026 12.6296 9.2922V9.22677C12.5641 9.22677 12.4987 9.22677 12.4332 9.22677C12.3678 9.35765 12.3024 9.48851 12.3024 9.61939C12.1715 10.0775 11.9752 10.5355 11.7134 10.9281C11.5825 11.1899 11.4517 11.4517 11.3208 11.648C11.1899 11.9752 10.9936 12.2369 10.7973 12.4987C10.4701 13.0222 10.2083 13.5457 9.94659 14.0692C9.75028 14.5273 9.6194 14.9853 9.55396 15.4434C9.55396 15.5088 9.48852 15.6397 9.48852 15.7051C9.42308 15.6397 9.42309 15.5743 9.42309 15.5088C9.48852 15.2471 9.55396 14.9853 9.6194 14.789C9.68484 14.4618 9.81571 14.1346 9.94659 13.8074C10.1429 13.2185 10.4701 12.695 10.7973 12.1715C10.9282 11.9097 11.1245 11.648 11.1899 11.3862C11.2554 11.1245 11.3862 10.9282 11.5171 10.6664C11.7134 10.1429 11.9752 9.68484 12.106 9.16133C12.106 9.09589 12.106 9.09589 12.1715 9.03045C12.1715 8.96501 12.2369 8.83414 12.106 8.7687C12.106 8.7687 12.0406 8.70325 12.0406 8.63782C11.9097 8.76869 11.7789 8.89958 11.7134 9.16133C11.648 9.42308 11.4517 9.68482 11.3862 9.94658C11.3208 10.1429 11.1899 10.4046 11.1245 10.601C10.9282 11.2553 10.601 11.8443 10.2083 12.4332C9.81571 12.9567 9.42308 13.4802 8.96502 13.9383C8.70327 14.2001 8.44151 14.5273 8.2452 14.789C7.91801 15.2471 7.59082 15.7706 7.26363 16.2286C7.13275 16.425 7.06731 16.6213 7.00188 16.8176C6.80556 17.3411 6.67469 17.8646 6.67469 18.3881C6.67469 18.7153 6.67468 18.977 6.74012 19.3042C6.80556 19.6969 6.871 20.024 7.00188 20.4167C7.06731 20.6784 7.19819 20.9402 7.3945 21.2019C7.52538 21.3983 7.65626 21.5946 7.78713 21.7909C7.98345 22.1181 8.2452 22.3798 8.57239 22.5761C8.44151 22.3798 8.17976 22.1835 8.11432 21.9218C8.44151 22.3144 8.83414 22.6416 9.22677 22.9688C9.6194 23.296 10.0775 23.4923 10.601 23.6886C10.5355 23.6886 10.5355 23.754 10.5355 23.754C9.88115 23.6886 9.35765 23.4923 8.83414 23.0996C8.44151 22.7724 8.04889 22.5107 7.78713 22.1181C7.45994 21.7254 7.19819 21.2674 6.93644 20.8093C6.871 20.7439 6.871 20.613 6.80556 20.4821C6.60925 19.7623 6.47837 19.0425 6.54381 18.3227C6.54381 18.1918 6.54381 18.0609 6.60925 17.93C6.74012 17.472 6.80556 17.0139 7.00188 16.5558C7.06731 16.2941 7.26363 16.0978 7.3945 15.836C7.45994 15.7051 7.52538 15.6397 7.59082 15.5088L7.65626 15.4434C7.65626 15.1816 7.85257 14.9853 7.98345 14.789C8.31064 14.3309 8.63783 13.8729 9.09589 13.4148C9.35765 13.1531 9.55396 12.8259 9.75028 12.4987C9.94659 12.106 10.2083 11.7789 10.4047 11.3862C10.4701 11.3208 10.5355 11.1899 10.5355 11.1245C10.7318 10.7973 10.9282 10.4701 11.059 10.0775C11.1245 9.94659 11.1899 9.75028 11.2554 9.55396C11.3862 9.22677 11.4517 8.83414 11.5825 8.50695C11.648 8.37607 11.7134 8.17975 11.7789 8.04888C11.8443 7.72169 11.9097 7.45994 11.9752 7.13275C12.106 6.5438 12.2369 5.95485 12.4332 5.36591C12.5641 5.10416 12.6296 4.84242 12.7604 4.64611C12.8259 4.51523 12.9567 4.38435 13.0222 4.25348C12.8913 4.18804 12.8913 4.12259 12.9567 4.05715C12.9567 3.92627 13.0222 3.86084 13.0222 3.72996C13.0222 3.66452 13.0222 3.59909 13.0876 3.53365C12.9567 3.53365 12.9567 3.59908 12.9567 3.72996C12.8913 3.99171 12.8259 4.18803 12.7604 4.44978C12.7604 4.51522 12.695 4.51523 12.695 4.58067C12.6295 4.44979 12.7604 4.31891 12.7604 4.18803C12.7604 4.05716 12.8259 3.92628 12.8259 3.7954C12.7604 3.86084 12.695 3.86084 12.695 3.86084C12.5641 3.99172 12.4987 4.05716 12.4332 4.18803C12.3024 4.31891 12.3024 4.44979 12.2369 4.58067C12.1715 5.03873 12.106 5.4968 11.9752 5.88943C11.9097 6.28206 11.7789 6.74012 11.7134 7.13275C11.7134 7.26362 11.648 7.3945 11.648 7.52538C11.648 7.52538 11.648 7.52538 11.7134 7.52538C11.7789 7.32907 11.8443 7.06731 11.9097 6.871C11.9752 6.67468 11.9752 6.41293 12.106 6.21662C12.106 6.21662 12.106 6.21662 12.1715 6.21662C12.1715 6.28206 12.1715 6.28204 12.1715 6.34748C12.106 6.60923 12.0406 6.93644 11.9752 7.19819C11.9752 7.26363 11.9752 7.3945 11.9097 7.45994C11.8443 7.59081 11.8443 7.78714 11.7789 7.91801C11.7134 8.17976 11.5825 8.37606 11.5171 8.63782C11.5171 8.70325 11.4517 8.7687 11.3208 8.83414C11.2554 8.83414 11.1899 9.03045 11.1245 9.09589C11.059 9.55396 10.8627 9.94658 10.6664 10.3392C10.4701 10.6664 10.2738 11.059 9.94659 11.3208C9.94659 11.2553 10.012 11.2554 10.012 11.1899C10.3392 10.7319 10.601 10.2738 10.7973 9.68483C10.8627 9.55395 10.8627 9.42307 10.8627 9.2922L10.7973 9.35764C10.6664 9.55395 10.4701 9.75026 10.3392 9.94658C10.3392 9.94658 10.2738 10.012 10.2738 10.0775C10.3392 10.2083 10.2083 10.3392 10.1429 10.4047C9.88115 10.8627 9.55396 11.2553 9.16133 11.648L9.09589 11.7134C9.42309 11.2553 9.75027 10.8627 10.012 10.3392C9.94659 10.4046 9.81571 10.5355 9.75028 10.601C9.03046 11.3208 8.31064 12.106 7.52538 12.7604C6.80556 13.4148 6.21662 14.1346 5.56224 14.8544C5.03873 15.5088 4.58067 16.2286 4.38435 17.0793C4.31891 17.4065 4.25348 17.7337 4.31892 17.9955C4.31892 18.3881 4.31891 18.8462 4.44979 19.2388C4.58067 19.8932 4.84242 20.4167 5.23505 20.9402C5.36592 21.1365 5.4968 21.2674 5.62768 21.4637C5.95487 21.9218 6.41293 22.3144 6.871 22.6416C7.13275 22.8379 7.32907 23.0342 7.59082 23.2305C7.65626 23.296 7.72169 23.3614 7.85257 23.4268C7.85257 23.3614 7.78713 23.296 7.78713 23.296C7.91801 23.3614 8.04888 23.4268 8.17976 23.5577C8.57239 23.8195 9.03046 24.1466 9.48852 24.343C9.55396 24.343 9.6194 24.4084 9.68484 24.4084C9.81571 24.4738 9.88115 24.4738 9.88115 24.6701C10.012 24.6701 10.0775 24.6702 10.2083 24.7356C10.0775 24.9319 9.94659 24.801 9.81571 24.8665C9.81571 24.9319 9.81571 24.9973 9.81571 25.0628C9.6194 25.0628 9.48852 25.0628 9.29221 24.9973C8.63783 24.801 8.04888 24.4738 7.52538 24.0812C7.19819 23.8195 6.80556 23.5577 6.54381 23.296C6.28206 23.0342 6.0203 22.7724 5.75855 22.5107C5.69311 22.4453 5.62768 22.3798 5.69311 22.2489C5.75855 22.2489 5.75855 22.249 5.75855 22.3144C6.08574 22.7725 6.47837 23.0996 6.871 23.4268C7.32907 23.8195 7.78713 24.1466 8.31064 24.4738C8.63783 24.6702 9.03046 24.801 9.42309 24.9319C9.48852 24.9319 9.55396 24.9973 9.68484 24.9973C9.68484 24.9973 9.68484 24.9974 9.68484 24.9319C9.6194 24.8665 9.55396 24.8665 9.48852 24.801C9.09589 24.6047 8.70327 24.4084 8.31064 24.2121C8.11432 24.1467 7.98345 23.9503 7.85257 23.8849C7.3945 23.5577 6.93644 23.2305 6.47837 22.8379C6.0203 22.4453 5.56224 21.9872 5.23505 21.4637C4.97329 21.1365 4.71154 20.7439 4.58067 20.3512C4.38435 19.8932 4.25348 19.4351 4.25348 18.977C4.25348 18.519 4.18804 18.0609 4.25348 17.6683C4.38435 16.883 4.64611 16.0978 5.16961 15.4434C5.75855 14.6581 6.41293 13.8729 7.19819 13.1531C7.65626 12.7604 8.11432 12.3023 8.50695 11.9097C8.70327 11.7134 8.89958 11.5171 9.09589 11.2553C9.03046 11.1899 9.09589 11.1245 9.16133 11.059C9.68484 10.4047 10.2738 9.75027 10.7973 9.09589C10.9282 8.96501 10.9936 8.83413 11.1245 8.63782C10.9936 8.70325 10.9282 8.70326 10.7973 8.7687C10.7318 8.7687 10.7318 8.83414 10.6664 8.83414C10.601 8.89958 10.5355 9.03045 10.4701 9.09589C10.1429 9.55396 9.75027 10.012 9.35765 10.4047C9.29221 10.4701 9.22677 10.4701 9.16133 10.5355C9.09589 10.601 9.03046 10.6664 9.03046 10.7318C9.03046 10.7973 8.96502 10.7973 8.96502 10.8627C8.57239 11.3208 8.11432 11.7134 7.65626 12.106C7.65626 12.106 7.59082 12.106 7.52538 12.106C7.98345 11.7134 8.44151 11.3208 8.83414 10.7973C8.70327 10.8627 8.57239 10.9936 8.44151 11.059C8.11432 11.2553 7.78713 11.5171 7.45994 11.7134C7.13275 11.9097 6.80556 12.106 6.47837 12.3678C6.41293 12.4332 6.3475 12.4987 6.28206 12.4332H6.21662C5.95487 12.5641 5.75855 12.7604 5.4968 12.8913C4.90786 13.2839 4.38435 13.8074 3.92629 14.3309C3.72997 14.5273 3.5991 14.7236 3.40278 14.9853C3.01015 15.5743 2.81384 16.1632 2.68296 16.8176C2.68296 16.883 2.68296 16.883 2.68296 16.9485C2.61752 17.2102 2.61752 17.5374 2.61752 17.8646C2.68296 18.2572 2.68296 18.5844 2.68296 18.977C2.7484 19.6969 3.01015 20.3512 3.46822 20.9402C3.72997 21.2674 3.99172 21.66 4.31892 21.9872C4.90786 22.6416 5.56224 23.1651 6.28206 23.6232C6.54381 23.8195 6.871 24.0158 7.13275 24.1466C7.7217 24.4738 8.37608 24.7356 8.96502 24.9973C9.35765 25.1282 9.75028 25.2591 10.0775 25.3245C10.1429 25.3245 10.2083 25.3245 10.2738 25.3245C10.2738 25.2591 10.2738 25.1282 10.3392 25.0628C10.3392 24.9973 10.3392 24.9974 10.4047 24.9319L10.4701 24.8665L10.5355 24.9319C10.5355 25.0628 10.5355 25.1282 10.5355 25.2591C10.5355 25.3245 10.5355 25.3245 10.5355 25.39C10.601 25.39 10.7318 25.4554 10.7973 25.4554C10.7318 25.5863 10.601 25.5863 10.5355 25.5863C10.4047 25.5863 10.2083 25.5208 10.0775 25.4554C9.81571 25.39 9.6194 25.3245 9.35765 25.2591C9.16133 25.1937 8.96502 25.1282 8.7687 24.9973C8.04889 24.7356 7.32907 24.4084 6.67469 24.0158C6.28206 23.754 5.88943 23.4923 5.4968 23.2305C5.03873 22.9033 4.6461 22.5107 4.25348 22.1835C3.59909 21.5291 3.01015 20.8748 2.68296 20.0241C2.48665 19.566 2.42121 19.0425 2.35577 18.5844C2.35577 18.2572 2.29033 17.93 2.29033 17.6028C2.29033 17.1448 2.35577 16.6867 2.55209 16.2286C2.81384 15.4434 3.14103 14.789 3.72997 14.2001C3.99172 13.8729 4.25348 13.5457 4.58067 13.2839C4.97329 12.9567 5.43136 12.6295 5.88943 12.3678C6.08574 12.2369 6.28206 12.106 6.47837 11.9752C6.74012 11.8443 7.00188 11.648 7.26363 11.5171C7.7217 11.1899 8.2452 10.8627 8.70326 10.5355C9.22677 10.1429 9.75028 9.68483 10.0775 9.09589C10.1429 8.96501 10.2738 8.83413 10.3392 8.70326C10.4047 8.63782 10.4047 8.57239 10.4047 8.50695C10.4047 8.50695 10.3392 8.50696 10.3392 8.57239C10.2738 8.63783 10.2083 8.70326 10.0775 8.7687L10.012 8.83414C9.94659 9.09589 9.75028 9.2922 9.55396 9.42308C9.29221 9.61939 9.03046 9.8157 8.83414 10.012C8.44151 10.3392 8.04889 10.5355 7.59082 10.7973C7.59082 10.7973 7.52538 10.7973 7.52538 10.8627C7.3945 11.059 7.13275 11.1245 6.93644 11.2553C6.60925 11.4517 6.21662 11.5825 5.88943 11.7789C5.82399 11.8443 5.75855 11.8443 5.62768 11.9097C5.56224 11.9097 5.4968 11.9752 5.43136 11.9097C5.36592 11.9097 5.30049 11.9097 5.30049 11.9752C5.03873 12.106 4.77698 12.3024 4.51523 12.4987C3.99172 12.8259 3.5991 13.2185 3.20647 13.6111C3.01015 13.8729 2.7484 14.0692 2.55209 14.3309C2.55209 14.3309 2.55208 14.3309 2.48665 14.3309C2.55208 14.2001 2.61752 14.0692 2.68296 14.0037C2.7484 13.9383 2.81384 13.8729 2.87928 13.8074C3.07559 13.6766 3.27191 13.4148 3.33734 13.2839C3.14103 13.4148 2.94471 13.6111 2.87928 13.8074C2.81384 13.8729 2.7484 13.9383 2.68296 14.0037C2.42121 14.2001 2.29033 14.4618 2.09402 14.7236C1.83227 15.0508 1.63595 15.378 1.50508 15.7706C1.30876 16.2286 1.11245 16.7521 1.04701 17.2757C0.981573 17.93 1.04701 18.5844 1.24332 19.2388C1.43964 19.7623 1.63595 20.2858 1.89771 20.8093C2.2249 21.3982 2.61752 21.9217 3.07559 22.3798C3.46822 22.7724 3.92629 23.0996 4.38435 23.4268C4.71154 23.6886 5.10417 23.8849 5.43136 24.0812C5.82399 24.2775 6.21662 24.5393 6.67469 24.7356C7.26363 24.9973 7.78713 25.2591 8.37607 25.4554C8.89958 25.6517 9.48852 25.7172 10.012 25.848C10.2738 25.9135 10.4701 26.0444 10.6664 26.1098C10.7973 26.1752 10.8627 26.2407 10.9936 26.1752C10.9936 26.1752 11.059 26.1752 11.1245 26.2407C11.059 26.3716 10.9282 26.5024 10.8627 26.6333C10.9936 26.5024 11.1245 26.437 11.2554 26.3061C11.2554 26.2407 11.1899 26.1752 11.1899 26.1098C11.3862 26.1098 11.5171 26.1098 11.7134 26.1098C12.106 26.1752 12.4332 26.3061 12.8259 26.3715C13.0222 26.437 13.2839 26.5024 13.4802 26.5024C13.9383 26.5024 14.4618 26.5024 14.9199 26.5024C14.9199 26.3715 15.0508 26.3061 15.1816 26.3061C15.3125 26.3061 15.378 26.2407 15.5088 26.2407C15.4434 26.1752 15.4434 26.1752 15.378 26.1098C15.4434 26.1098 15.5088 26.1098 15.5743 26.1098C16.6213 26.1752 17.6028 25.848 18.4535 25.3245C18.7807 25.1282 19.1734 24.9319 19.5005 24.6701C20.2858 24.1466 21.0711 23.5577 21.66 22.7724C22.249 21.9872 22.707 21.1365 22.9033 20.1549C23.0342 19.6314 23.0342 19.1079 22.9033 18.5844C22.8379 18.2572 22.8379 17.93 22.7725 17.6028C22.707 17.2102 22.5107 16.8176 22.249 16.4904C22.0526 16.2286 21.8563 15.9669 21.66 15.7051C21.4637 15.378 21.2019 14.9853 20.8747 14.7236C20.8093 14.6581 20.7439 14.5273 20.613 14.4618C20.4167 14.2655 20.2204 14.0038 20.0895 13.8074C20.0241 13.742 19.9586 13.6111 19.8932 13.5457C19.8932 13.5457 19.8932 13.4802 19.8277 13.4802C19.3697 13.0222 18.9116 12.5641 18.3881 12.106C18.3881 12.106 18.3881 12.106 18.3227 12.106C18.3227 12.1715 18.3881 12.2369 18.3881 12.3024C18.7807 12.8259 19.1734 13.3494 19.566 13.8074C20.1549 14.5927 20.6784 15.3779 21.0056 16.2941C21.1365 16.6213 21.2019 17.0139 21.2674 17.3411C21.3328 17.7992 21.3983 18.1918 21.3328 18.6499C21.3328 19.0425 21.2674 19.4351 21.2019 19.7623C21.1365 20.2858 20.8748 20.8093 20.6784 21.3328C20.3512 22.0526 19.8932 22.707 19.4351 23.296C19.0425 23.8195 18.5844 24.2775 17.9955 24.6047C17.6028 24.8665 17.1448 25.1282 16.6867 25.3245C16.5558 25.39 16.3595 25.5209 16.2286 25.5863C16.2286 25.7172 16.2941 25.7172 16.425 25.6517C16.8176 25.5208 17.1448 25.39 17.5374 25.2591C17.6028 25.2591 17.6683 25.1937 17.7337 25.1937C17.7337 25.1937 17.7337 25.1937 17.7337 25.2591L17.6683 25.3245C17.2102 25.5208 16.7521 25.6517 16.2941 25.848C16.1632 25.9135 15.9669 25.9135 15.836 25.848C15.7706 25.7826 15.6397 25.848 15.5743 25.848C15.5088 25.848 15.3779 25.9135 15.3125 25.9135C15.2471 25.9135 15.1816 25.9135 15.1162 25.848C15.1162 25.7826 15.1816 25.7172 15.2471 25.5863C15.3125 25.5863 15.4434 25.5209 15.5743 25.5209C16.2286 25.4554 16.883 25.1937 17.472 24.8665C17.7337 24.7356 17.9955 24.6047 18.2572 24.4084C18.7807 24.0158 19.3042 23.5577 19.6314 22.9033C19.8932 22.3798 20.2204 21.9217 20.4821 21.3982C20.8093 20.8747 20.9402 20.2858 21.0711 19.6314C21.1365 19.3042 21.2674 18.977 21.3328 18.6499C21.3328 18.5844 21.3328 18.519 21.3328 18.519C21.3328 17.7337 21.2674 17.0139 21.0056 16.2941C20.9402 16.0978 20.8747 15.9669 20.7439 15.7706C20.8093 16.1632 20.9402 16.5558 21.0056 16.9485C21.0711 17.3411 21.1365 17.7337 21.0711 18.1918C21.0056 17.6683 20.9402 17.2102 20.8747 16.6867C20.8093 16.1632 20.613 15.7051 20.4167 15.2471C20.4167 15.2471 20.4821 15.1816 20.5476 15.1816C20.4821 15.0507 20.4167 14.9199 20.2858 14.789C19.9586 14.3309 19.6969 13.9383 19.3042 13.5457C19.2388 13.4802 19.1734 13.4148 19.1734 13.3494C18.977 13.0222 18.7153 12.7604 18.519 12.4332C18.519 12.4332 18.519 12.4332 18.4535 12.4332C18.6499 12.7604 18.8462 13.0876 18.9116 13.4802L18.8462 13.4148C18.6499 13.1531 18.519 12.8259 18.3227 12.5641C18.1918 12.3678 18.1264 12.106 17.9955 11.9097C17.8646 11.5825 17.6683 11.3208 17.472 11.059C17.4065 10.9936 17.4065 10.9282 17.3411 10.8627C17.1448 10.4047 17.0139 10.012 16.8176 9.55396C16.8176 9.48853 16.8176 9.48852 16.8176 9.42308C16.8176 9.42308 16.8176 9.42308 16.883 9.42308C16.9485 9.55396 17.0139 9.75028 17.0793 9.88115C17.2102 10.1429 17.2757 10.4701 17.4065 10.7318C17.472 10.7973 17.472 10.8627 17.5374 10.9281C17.3411 10.3392 17.1448 9.75027 16.883 9.09589C16.8176 9.16133 16.8176 9.29221 16.6213 9.16133C16.6213 9.35765 16.6867 9.55396 16.7522 9.75027C16.9485 10.4047 17.2102 10.9936 17.5374 11.5825C17.6683 11.8443 17.8646 12.106 17.9955 12.3678C18.0609 12.4332 18.1264 12.5641 18.1264 12.695C18.1264 12.695 18.0609 12.695 18.0609 12.6295C17.93 12.4987 17.8646 12.3678 17.7337 12.2369C17.7992 12.1715 17.7337 12.1715 17.6683 12.106C17.6683 12.0406 17.6683 11.9752 17.5374 11.9097C17.6028 11.9752 17.6683 12.0406 17.6683 12.106ZM13.2839 4.90786C13.4148 4.77698 13.4802 4.6461 13.4802 4.44978C13.4148 4.6461 13.3494 4.77698 13.2839 4.90786C13.2839 4.97329 13.2185 5.03872 13.2185 5.10416C13.2185 5.10416 13.2185 5.10416 13.2839 5.10416C13.2839 5.03872 13.2839 4.97329 13.2839 4.90786ZM12.1715 10.601C12.3024 10.4701 12.4332 10.2083 12.4332 10.012C12.3678 10.1429 12.3678 10.2083 12.3024 10.3392C12.2369 10.4046 12.1715 10.5355 12.1715 10.601C12.106 10.6664 12.0406 10.7318 12.0406 10.7973C12.0406 10.7973 12.0406 10.7973 12.106 10.7973C12.106 10.7973 12.106 10.6664 12.1715 10.601ZM2.61752 23.0996C2.61752 23.1651 2.68296 23.1651 2.68296 23.2305C2.68296 23.2305 2.68296 23.2305 2.7484 23.1651C2.68296 23.1651 2.61752 23.0996 2.61752 23.0996C2.55209 23.0342 2.55208 22.9688 2.48665 22.9033C2.35577 22.7725 2.2249 22.6416 2.09402 22.5107C2.02858 22.4453 1.96314 22.3144 1.89771 22.2489C1.89771 22.3144 1.89771 22.3144 1.89771 22.3144C2.09402 22.5107 2.29033 22.7725 2.48665 22.9688C2.48665 23.0342 2.55209 23.0342 2.61752 23.0996ZM25.39 17.6028C25.39 17.6683 25.39 17.7337 25.39 17.7991C25.39 17.7991 25.39 17.7991 25.4554 17.7991C25.4554 17.7337 25.4554 17.6683 25.39 17.6028C25.3245 17.3411 25.3245 17.0793 25.2591 16.8176C25.2591 16.6867 25.1937 16.4904 25.0628 16.3595C25.0628 16.425 25.0628 16.4904 25.0628 16.4904C25.1282 16.7521 25.1937 17.0139 25.2591 17.2757C25.3245 17.4065 25.39 17.5374 25.39 17.6028ZM11.3862 7.3945C11.5171 7.32906 11.5171 7.19818 11.5825 7.06731C11.648 7.00187 11.648 6.93644 11.7134 6.871C11.7134 7.06731 11.5825 7.26362 11.5825 7.3945C11.5171 7.59081 11.4517 7.7217 11.4517 7.91801C11.4517 7.91801 11.4517 7.91801 11.5171 7.91801C11.5825 7.85257 11.5825 7.72168 11.648 7.65624C11.8443 7.19818 11.9752 6.67468 12.106 6.15118C12.2369 5.62767 12.3024 5.03873 12.3678 4.51522C12.3678 4.38435 12.4987 4.18803 12.5641 4.05715H12.6296C12.6296 4.05715 12.6295 3.99173 12.695 3.99173C12.4987 3.99173 12.3024 4.18804 12.3024 4.31892C12.3024 4.44979 12.3024 4.6461 12.2369 4.77697C12.1715 5.10416 12.106 5.43135 12.0406 5.75854C11.9752 6.0203 11.8443 6.3475 11.7789 6.60925C11.7789 6.74013 11.648 6.80556 11.7134 6.93644C11.5171 7.06732 11.4517 7.26362 11.3862 7.3945C11.3208 7.59081 11.2554 7.78712 11.1899 7.98343C11.1899 7.98343 11.1899 7.98343 11.2554 7.98343C11.3208 7.85256 11.3208 7.78712 11.3862 7.65624C11.3862 7.59081 11.3862 7.52537 11.3862 7.3945ZM17.6028 9.68483C17.7337 10.3392 17.9955 10.8627 18.3881 11.3208C18.6499 11.648 18.9116 11.9752 19.1734 12.3024C19.4351 12.6295 19.6969 12.9567 19.9586 13.2185C20.5476 13.8074 21.1365 14.3964 21.7254 14.9853C22.1181 15.4434 22.5107 15.9015 22.8379 16.3595C23.0996 16.6867 23.2305 17.1448 23.3614 17.5374C23.4268 17.93 23.4923 18.3227 23.5577 18.7153C23.6232 19.2388 23.6231 19.8277 23.4923 20.3512C23.4923 20.3512 23.4923 20.4167 23.4268 20.4821C23.4268 20.4167 23.4268 20.4167 23.4268 20.4167C23.4268 20.3512 23.4268 20.2858 23.4268 20.2858C23.4923 19.8277 23.4923 19.3042 23.4268 18.8462C23.3614 18.519 23.296 18.1263 23.296 17.7991C23.2305 17.0793 22.8379 16.4904 22.3798 15.9669C22.3798 15.9669 22.3144 15.9669 22.3144 15.9014C22.3144 15.9669 22.3144 15.9669 22.3798 16.0323C22.707 16.5558 22.9688 17.2102 23.0996 17.7991C23.2305 18.3227 23.3614 18.9116 23.296 19.4351C23.2305 19.6969 23.2305 20.0241 23.1651 20.2858C23.0996 20.7439 22.9688 21.1365 22.7725 21.5291C22.5761 21.9218 22.3144 22.3144 22.0526 22.707C21.66 23.2305 21.2019 23.6886 20.7439 24.0812C20.3512 24.4084 19.8932 24.7356 19.4351 24.9973C19.3697 24.9973 19.3697 25.0628 19.3042 25.0628C19.3042 25.0628 19.3042 25.0628 19.3042 25.1282C19.7623 24.8665 20.2204 24.6047 20.613 24.343C21.0711 24.0812 21.3983 23.6886 21.7909 23.296C21.7909 23.4268 21.7909 23.4268 21.7254 23.4923C21.3328 23.8849 20.9402 24.2775 20.4821 24.5393C20.0241 24.801 19.566 25.0628 19.0425 25.3245C18.3881 25.6517 17.7337 25.9135 17.0793 26.1098C16.9485 26.1752 16.883 26.1752 16.7522 26.1752C16.6213 26.1752 16.4904 26.1752 16.425 26.1752C16.1632 26.1752 15.9669 26.3061 15.7706 26.3715C15.6397 26.437 15.4434 26.437 15.3125 26.5024C15.3779 26.5679 15.378 26.6333 15.5088 26.6333C15.6397 26.5679 15.7706 26.6333 15.9015 26.5024H15.9669C16.1632 26.5024 16.425 26.5024 16.6213 26.437C16.8176 26.437 17.0139 26.3715 17.2102 26.3061C17.2757 26.3061 17.4065 26.2407 17.5374 26.1752C17.472 26.1752 17.472 26.1752 17.4065 26.1752C17.5374 26.1098 17.6683 26.1098 17.7992 26.0444C18.1918 25.9135 18.5844 25.7826 18.977 25.5863C19.6969 25.3245 20.3512 24.9319 21.0056 24.4738C21.3983 24.2121 21.8563 23.8849 22.1835 23.4923C22.4453 23.1651 22.707 22.9033 22.9688 22.5761C23.4268 21.9872 23.754 21.4637 23.9503 20.7439C24.1467 19.9586 24.2775 19.1734 24.343 18.3881C24.343 17.9955 24.2775 17.5374 24.1467 17.1448C23.9503 16.6213 23.754 16.0978 23.4923 15.6397C23.2305 15.1816 22.9033 14.789 22.5107 14.3964C22.1181 13.9383 21.66 13.6111 21.2019 13.2185C20.5476 12.695 19.8932 12.2369 19.2388 11.7134C18.7153 11.3208 18.2572 10.7973 17.93 10.2083C17.93 10.1429 17.7337 9.94658 17.6028 9.68483ZM20.0241 25.4554C20.1549 25.4554 20.2858 25.39 20.4167 25.3245C20.8093 25.1282 21.1365 24.8665 21.4637 24.6701C21.9872 24.343 22.4453 23.8849 22.9688 23.4923C23.0996 23.3614 23.296 23.1651 23.4268 23.0342C23.4923 22.9688 23.5577 22.9688 23.5577 22.9033C23.6886 22.9033 23.6886 22.8379 23.754 22.7724C23.8849 22.5761 24.0158 22.3798 24.1467 22.1835C24.2775 21.9872 24.4084 21.8563 24.4738 21.66C24.7356 21.0711 24.9319 20.4167 25.1282 19.7623C25.2591 19.1733 25.3245 18.5844 25.2591 18.0609C25.1937 17.6028 25.0628 17.1448 24.9973 16.7522C24.9319 16.4904 24.801 16.1632 24.6047 15.9669C24.4084 15.6397 24.1467 15.3125 23.8849 15.0508C23.5577 14.5927 23.0996 14.2655 22.707 13.8729C22.3144 13.4802 21.8563 13.0876 21.3983 12.8259C20.8747 12.4987 20.3512 12.1715 19.8277 11.8443C19.566 11.7134 19.3042 11.5825 19.1734 11.3208L19.1079 11.2553C18.9116 11.1245 18.7153 10.9936 18.519 10.8627C18.4535 10.7973 18.3881 10.7318 18.3227 10.6664C18.3881 10.7318 18.3881 10.8627 18.4535 10.9281C18.8462 11.3862 19.3042 11.8443 19.7623 12.2369C20.2858 12.6295 20.8747 13.0876 21.3983 13.4802C21.7909 13.8074 22.1181 14.1346 22.5107 14.3964C22.6416 14.5273 22.707 14.6581 22.9033 14.6581C23.0342 14.789 23.2305 14.9199 23.3614 15.0508C23.6886 15.4434 24.0158 15.836 24.2775 16.2941C24.4738 16.5558 24.6047 16.8176 24.6047 17.1448C24.6047 17.2102 24.6047 17.2102 24.6047 17.2757C24.6047 17.2757 24.6047 17.2757 24.5393 17.2757C24.4084 16.7521 24.1467 16.2941 23.8195 15.836C23.4923 15.3779 23.1651 14.9853 22.707 14.7236C22.7725 14.789 22.8379 14.8544 22.9033 14.9853C23.0996 15.2471 23.296 15.5088 23.4268 15.7706C23.754 16.2286 23.9503 16.7521 24.1467 17.2757C24.343 17.7337 24.4084 18.1918 24.343 18.6499C24.343 19.3697 24.2121 20.0895 24.0158 20.8093C23.8849 21.2674 23.6886 21.7254 23.4268 22.1835C22.9688 22.9033 22.4453 23.5577 21.8563 24.1466C21.4637 24.5393 21.0056 24.8665 20.5476 25.1282C20.5476 25.1282 20.2858 25.3245 20.0241 25.4554ZM7.26363 25.2591C7.19819 25.1937 7.06731 25.1282 7.00188 25.1282C6.60925 24.9319 6.15118 24.7356 5.75855 24.5393C5.43136 24.4084 5.16961 24.2121 4.84242 24.0158C4.1226 23.5577 3.46822 23.0996 2.87928 22.4453C2.61752 22.1835 2.29033 21.8563 2.09402 21.5291C1.76683 21.0056 1.50508 20.4167 1.30876 19.8277C1.17789 19.3697 0.981572 18.9116 0.916134 18.4535C0.916134 18.0609 0.850696 17.6683 0.916134 17.3411C0.981572 16.9485 1.11245 16.5558 1.30876 16.1632C1.57051 15.4434 2.02858 14.789 2.55209 14.2001C2.81384 13.8729 3.14103 13.5457 3.46822 13.2839C3.92628 12.9567 4.38435 12.6295 4.90786 12.3024C5.30048 12.0406 5.69311 11.7788 6.15118 11.5825C6.47837 11.4517 6.80556 11.3208 7.06731 11.1899C7.45994 10.9936 7.85257 10.7973 8.2452 10.5355C8.31064 10.5355 8.31064 10.4701 8.31064 10.4701C7.91801 10.6664 7.45994 10.8627 7.06731 11.059C7.06731 10.9936 7.06731 10.9936 7.13275 10.9281C6.871 11.059 6.60925 11.1245 6.34749 11.2553C6.0203 11.3862 5.75855 11.5825 5.43136 11.7134C5.10417 11.8443 4.77698 12.0406 4.44979 12.2369C4.05716 12.4987 3.5991 12.695 3.20647 13.0222C2.7484 13.4148 2.29033 13.8729 1.96314 14.4618C1.8977 14.5927 1.76683 14.789 1.70139 14.9199C1.43964 15.2471 1.30876 15.6397 1.11245 16.0323C0.981572 16.2941 0.981572 16.5558 0.916134 16.883C0.71982 17.5374 0.719819 18.1918 0.785258 18.9116C0.785258 19.1734 0.785258 19.3697 0.916134 19.566V19.6314C0.916134 19.7623 0.981571 19.9586 0.981571 20.0895C1.04701 20.4167 1.11245 20.8093 1.3742 21.1365C1.43964 21.2019 1.50508 21.3328 1.50508 21.3982C1.76683 21.8563 2.02858 22.2489 2.35577 22.5761C2.42121 22.6416 2.55209 22.7724 2.61752 22.8379C2.87928 23.0996 3.07559 23.3614 3.46822 23.4268C3.46822 23.4268 3.53366 23.4268 3.53366 23.4923C3.72997 23.6231 3.99172 23.8195 4.18804 23.9503C4.64611 24.2775 5.16961 24.5393 5.69311 24.801C6.08574 24.9973 6.47837 25.0628 6.93644 25.1937C7.06731 25.1937 7.13275 25.2591 7.26363 25.2591ZM24.343 22.2489C24.343 22.1835 24.2775 22.1835 24.343 22.2489C24.2775 22.2489 24.2121 22.3144 24.1467 22.3798C23.8849 22.8379 23.5577 23.2305 23.1651 23.5577C23.0342 23.6886 22.8379 23.8195 22.707 23.9503C22.2489 24.343 21.7254 24.7356 21.2019 25.0628C20.9402 25.2591 20.6784 25.39 20.3512 25.5209C19.9586 25.7172 19.5006 25.7826 19.0425 25.9135C18.8462 25.9789 18.5844 26.1098 18.3881 26.2407C18.4535 26.2407 18.4535 26.2407 18.519 26.2407C18.7153 26.1752 18.8462 26.1752 19.0425 26.1098C19.5006 25.9135 19.8932 25.7826 20.3512 25.5863C20.8093 25.39 21.2019 25.1937 21.5946 24.8665C21.7909 24.6702 22.0526 24.6047 22.249 24.4084C22.4453 24.2775 22.707 24.1467 22.9033 23.9503C23.4268 23.5577 23.8195 22.9688 24.1467 22.4453C24.2121 22.4453 24.2775 22.3144 24.343 22.2489ZM17.1448 8.96501C17.1448 9.03044 17.1448 9.09589 17.1448 9.09589C17.3411 9.81571 17.6028 10.5355 17.9955 11.2553C18.1264 11.4517 18.1918 11.648 18.3881 11.8443C18.7153 12.1715 19.1079 12.4987 19.4351 12.8259C19.4351 12.8259 19.4351 12.8259 19.5005 12.8259C19.5005 12.7604 19.4351 12.7604 19.4351 12.695C19.1079 12.3024 18.7807 11.9097 18.4535 11.5171C18.0609 10.9936 17.7337 10.4047 17.5374 9.81571C17.472 9.6194 17.4065 9.42309 17.3411 9.22677C17.2757 9.03046 17.2102 8.96501 17.1448 8.96501ZM14.0037 7.91801C14.0692 7.91801 14.0692 7.91801 14.0037 7.91801C14.0692 7.91801 14.0692 7.91801 14.0692 7.85257C14.2001 7.52538 14.2655 7.19819 14.3964 6.871C14.4618 6.54381 14.5273 6.28206 14.6581 5.95487C14.789 5.30049 14.9199 4.64611 14.9853 3.99173C14.9853 3.79541 15.0508 3.59908 15.0508 3.40277C15.0508 3.27189 15.0508 3.01015 15.0508 2.87927C14.8544 3.07559 14.9199 3.2719 14.9199 3.46821C14.9199 3.66452 14.9199 3.86085 14.8544 3.99173C14.789 4.51523 14.7236 4.97329 14.6581 5.4968C14.5927 5.88942 14.4618 6.34749 14.3964 6.74011C14.3964 6.87099 14.3309 7.00187 14.2655 7.06731C14.2655 7.06731 14.2001 7.13275 14.2001 7.19819C14.1346 7.3945 14.0692 7.59082 14.0692 7.85257C14.0038 7.85257 14.0037 7.85257 14.0037 7.91801ZM10.7973 26.5024C10.7973 26.437 10.7973 26.437 10.7318 26.3715C10.5355 26.3061 10.3392 26.1752 10.1429 26.1098C9.6194 25.9789 9.0959 25.848 8.57239 25.7172C8.11432 25.6517 7.59082 25.5208 7.13275 25.3245C6.74012 25.1937 6.3475 25.1282 5.95487 24.9973H5.88943C5.95487 25.0628 6.0203 25.0628 6.0203 25.0628C6.15118 25.1282 6.3475 25.1937 6.47837 25.1937C6.93644 25.3245 7.32907 25.5209 7.78713 25.5863C8.50695 25.7826 9.22677 25.9135 9.94659 26.1098C10.2083 26.2407 10.5355 26.3061 10.7973 26.5024ZM12.5641 26.6987C12.3678 26.895 12.3678 27.0914 12.3678 27.4186C12.4332 27.3531 12.4987 27.2877 12.4987 27.2877C12.5641 27.2222 12.6295 27.2222 12.695 27.3531V27.4186C12.7604 27.3531 12.8259 27.3531 12.9567 27.3531L13.0222 27.4186C13.1531 27.484 13.2839 27.484 13.3494 27.2877C13.4148 27.2222 13.4148 27.1568 13.4802 27.0259C13.4148 27.0259 13.2839 26.9605 13.2185 26.9605C13.0876 26.895 13.0222 26.9605 12.9567 27.0914C12.9567 27.1568 12.9567 27.2222 12.8913 27.2877C12.8913 27.2877 12.8259 27.2877 12.8259 27.2222C12.7604 27.1568 12.7604 27.0259 12.8259 26.8951C12.8913 26.7642 12.8913 26.7642 12.7604 26.6987C12.7604 26.6987 12.695 26.6987 12.5641 26.6987ZM0.588944 17.7337C0.654382 17.7337 0.654381 17.6683 0.654381 17.6683C0.719819 17.0793 0.785257 16.5558 0.981571 15.9669C1.11245 15.5088 1.3742 15.0508 1.63595 14.6581C1.83227 14.3964 2.02858 14.1346 2.2249 13.8074C2.42121 13.5457 2.61752 13.2185 2.94471 13.0222C3.07559 12.8913 3.20647 12.7604 3.33734 12.6295C3.33734 12.6295 3.33734 12.6295 3.33734 12.5641C3.27191 12.6295 3.14103 12.7604 3.07559 12.8259C2.7484 13.0876 2.48665 13.3494 2.2249 13.6766C1.83227 14.2001 1.50508 14.789 1.17789 15.3125C0.850695 15.9015 0.719819 16.5558 0.654381 17.2757C0.588943 17.472 0.588944 17.6028 0.588944 17.7337ZM20.4167 14.0692C20.4821 14.1346 20.5476 14.2001 20.5476 14.2655C20.6784 14.3964 20.8093 14.5927 20.9402 14.7236C21.0056 14.789 21.0711 14.8544 21.1365 14.9199C21.4637 15.1816 21.66 15.5743 21.9218 15.9014C22.0526 16.1632 22.2489 16.3595 22.4453 16.5558C22.2489 15.9669 20.9402 14.3309 20.4167 14.0692ZM9.6194 9.42308C9.55396 9.48852 9.55396 9.48852 9.6194 9.42308C9.03046 9.88115 8.44151 10.2083 7.85257 10.4047C7.65626 10.4701 7.45994 10.5355 7.26363 10.601C7.19819 10.601 7.13275 10.6664 7.06731 10.7318C7.26363 10.7318 7.3945 10.5355 7.52538 10.7318C7.78713 10.601 8.11432 10.4046 8.37607 10.2738C8.83414 10.1429 9.22677 9.88115 9.6194 9.42308ZM11.2554 27.0914C11.3862 27.0259 11.3862 27.0259 11.5171 27.1568C11.5825 27.2222 11.7789 27.2222 11.7789 27.0914C11.8443 26.9605 11.8443 26.8296 11.9097 26.6333H11.8443C11.648 26.5679 11.648 26.5679 11.5825 26.7642C11.5825 26.8296 11.5171 26.8296 11.5171 26.8951C11.3862 26.8296 11.4517 26.6987 11.3862 26.6333C11.1899 26.8296 11.1245 26.895 11.2554 27.0914ZM14.9199 27.7457C14.9199 27.6803 14.9199 27.6803 14.9199 27.6149C14.9199 27.5494 14.9199 27.484 14.9853 27.484C15.0508 27.484 15.0508 27.484 15.1162 27.5494C15.2471 27.6149 15.378 27.6149 15.378 27.484C15.378 27.4186 15.378 27.2877 15.378 27.2222C15.378 27.1568 15.3779 27.0914 15.2471 27.0259C15.1162 27.0259 15.0508 27.0259 14.9853 27.1568C14.9199 27.2877 14.8544 27.484 14.789 27.6803C14.8544 27.6803 14.8544 27.6803 14.9199 27.7457ZM14.7236 27.484C14.7236 27.3531 14.789 27.2222 14.789 27.0914C14.5273 27.0914 14.3309 27.0914 14.0692 27.0914C14.0692 27.1568 14.0692 27.2877 14.0692 27.3531C14.1346 27.3531 14.2001 27.3531 14.2655 27.3531C14.3309 27.3531 14.3964 27.3531 14.4618 27.4186C14.5273 27.484 14.5927 27.484 14.7236 27.484ZM11.1899 11.059C10.7973 11.7134 10.4047 12.4332 10.012 13.0876C10.5355 12.4332 10.9282 11.7789 11.1899 11.059ZM9.94659 10.7318C10.1429 10.7318 10.1429 10.6664 10.2083 10.5355C10.4047 10.3392 10.5355 10.0775 10.7318 9.88115C10.9282 9.6194 11.1245 9.35764 11.3208 9.09589C11.3862 9.03045 11.3862 8.89958 11.4517 8.83414C10.9282 9.48852 10.4047 10.0775 9.94659 10.7318ZM13.9383 2.87927C13.742 3.14102 13.5457 3.86084 13.5457 4.12259C13.6766 4.05715 13.6766 3.7954 13.8729 3.7954C13.742 3.66452 13.8074 3.46822 13.8074 3.33735C13.8729 3.20647 13.9383 3.07559 13.9383 2.87927ZM3.72997 12.3678C3.79541 12.3678 3.79541 12.3678 3.79541 12.3678C4.05716 12.2369 4.25348 12.106 4.51523 11.9752C4.58067 11.9097 4.6461 11.8443 4.77698 11.8443C4.97329 11.7134 5.23505 11.648 5.43136 11.5171C5.43136 11.5171 5.4968 11.4517 5.56224 11.4517C5.16961 11.5171 3.92629 12.1715 3.72997 12.3678ZM0.916134 20.4167C0.916134 20.2858 0.850695 20.1549 0.850695 20.0241C0.785257 19.7623 0.785259 19.5005 0.71982 19.3042C0.654382 18.977 0.654382 18.6499 0.588944 18.3227C0.588944 19.0425 0.71982 19.7623 0.916134 20.4167ZM13.3494 9.03045C13.2839 9.09589 13.2839 9.16132 13.2839 9.2922C13.2839 9.35763 13.2839 9.42308 13.2839 9.42308C13.2185 9.75027 13.1531 10.0775 13.0876 10.4047V10.4701C13.1531 10.4047 13.1531 10.4046 13.1531 10.3392C13.2185 10.012 13.2839 9.75027 13.4148 9.42308C13.3494 9.35764 13.4802 9.22676 13.3494 9.03045ZM24.7356 15.7051C24.7356 15.6397 24.7356 15.6397 24.7356 15.7051C24.4738 15.3125 24.2775 14.8544 23.8195 14.5927C24.1467 14.9199 24.4084 15.3125 24.7356 15.7051ZM12.106 9.03045C12.0406 9.03045 12.0406 9.03045 12.106 9.03045C11.9752 9.09589 11.9097 9.16132 11.9097 9.2922C11.8443 9.48851 11.7789 9.75026 11.7134 9.94658C11.7134 10.012 11.7134 10.0775 11.648 10.0775C11.648 10.0775 11.648 10.0775 11.7134 10.0775C11.8443 9.75027 11.9752 9.42308 12.106 9.03045ZM16.6867 10.012C16.8176 10.4701 16.8176 10.9282 17.0793 11.3208C16.9485 10.9282 16.8176 10.4701 16.6867 10.012ZM20.9402 20.8747C21.2019 20.4167 21.2019 19.9586 21.2674 19.4351C21.2019 19.8932 21.0711 20.3512 20.9402 20.8747ZM13.9383 26.8296C14.2655 26.8951 14.5927 26.9605 14.9199 26.8296C14.5927 26.8296 14.2655 26.8296 13.9383 26.8296ZM12.2369 26.7642C12.0406 26.895 11.9752 27.0259 12.0406 27.2222L12.106 27.2877C12.106 27.2877 12.1715 27.2877 12.1715 27.2222C12.1715 27.2222 12.1715 27.1568 12.1715 27.0914C12.2369 27.0259 12.2369 26.895 12.2369 26.7642ZM13.2839 4.51522C13.3494 4.44979 13.4148 4.38436 13.4148 4.31892C13.4148 4.18804 13.4802 3.99172 13.4802 3.86084C13.4802 3.7954 13.4802 3.72996 13.4802 3.72996C13.3494 3.7954 13.2839 4.25347 13.2839 4.51522ZM12.9567 3.7954C12.9567 3.86084 12.9567 3.86084 12.9567 3.7954C13.2185 3.59909 13.3494 3.40277 13.4802 3.14102C13.4802 3.14102 13.4802 3.14102 13.4148 3.14102C13.2839 3.33733 13.0876 3.59909 12.9567 3.7954ZM17.2757 8.70326C17.2102 8.44151 17.2102 8.17976 17.1448 7.91801C17.0793 8.17976 17.1448 8.50694 17.2757 8.70326ZM11.648 7.98343C11.5825 7.98343 11.5825 7.98343 11.648 7.98343C11.5171 8.04887 11.4517 8.17975 11.3208 8.31062C11.3862 8.31062 11.4517 8.31062 11.5171 8.31062C11.5825 8.17975 11.5825 8.11431 11.648 7.98343ZM13.8074 27.3531C13.8074 27.2222 13.8074 27.1568 13.8074 27.0259C13.8074 27.0259 13.8074 27.0259 13.742 27.0259C13.6766 27.1568 13.6766 27.2222 13.6111 27.3531C13.742 27.3531 13.742 27.3531 13.8074 27.3531ZM16.6213 9.88115C16.6213 9.6194 16.5558 9.42308 16.5558 9.16133H16.4904C16.4904 9.35765 16.5558 9.6194 16.6213 9.88115ZM12.106 26.5024C11.9097 26.3715 11.7134 26.3715 11.5825 26.437C11.7789 26.3715 11.9097 26.5679 12.106 26.5024ZM14.5273 0.588939C14.4618 0.785253 14.4618 0.850695 14.5273 0.981571C14.5927 0.785257 14.5927 0.719815 14.5273 0.588939ZM1.11245 20.9402C1.17789 21.2019 1.24332 21.3328 1.43964 21.4637C1.30876 21.2019 1.24332 21.0711 1.11245 20.9402ZM16.425 24.7356C16.2286 24.801 16.0978 24.801 15.9015 24.9319C16.0323 24.9319 16.1632 24.8665 16.425 24.7356ZM12.695 9.09589C12.6295 9.2922 12.5641 9.48852 12.4987 9.75027C12.5641 9.55396 12.695 9.35764 12.695 9.09589ZM9.94659 24.9319C9.81571 24.801 9.6194 24.6702 9.48852 24.7356C9.6194 24.801 9.75028 24.8665 9.94659 24.9319ZM11.9097 5.10416C11.9752 4.84241 12.0406 4.64609 12.0406 4.38434C12.0406 4.38434 12.0406 4.38434 11.9752 4.38434C11.9752 4.58065 11.9752 4.84241 11.9097 5.10416ZM23.3614 14.0037C23.4268 14.2001 23.5577 14.3309 23.6886 14.3964C23.5577 14.2001 23.4923 14.0692 23.3614 14.0037ZM11.059 7.85257C11.2554 7.78713 11.1899 7.65626 11.1899 7.52538C11.1245 7.65626 11.059 7.72169 11.059 7.85257ZM8.31064 23.9503C8.37608 24.0812 8.50695 24.1466 8.63783 24.1466C8.50695 24.0812 8.44151 24.0158 8.31064 23.9503ZM10.5355 8.57239C10.4047 8.63783 10.3392 8.70327 10.2738 8.83414C10.4047 8.70327 10.4701 8.63783 10.5355 8.57239ZM5.88943 11.1899C5.95487 11.2554 5.95487 11.2554 5.88943 11.1899C6.0203 11.1899 6.08574 11.1245 6.15118 11.1245C6.15118 11.1245 6.15118 11.1245 6.15118 11.059C6.08574 11.1245 6.0203 11.1899 5.88943 11.1899ZM15.6397 27.484C15.5743 27.5494 15.6397 27.5494 15.6397 27.6149H15.7051C15.7051 27.5494 15.6397 27.5494 15.6397 27.484ZM12.4987 4.12259C12.4332 4.25347 12.4332 4.25348 12.5641 4.31892C12.5641 4.25348 12.4987 4.25347 12.4987 4.12259ZM6.871 12.3678C6.80556 12.3024 6.80556 12.3024 6.871 12.3678C6.80556 12.3678 6.74012 12.3678 6.67469 12.4332C6.67469 12.4332 6.67469 12.4332 6.67469 12.4987C6.74012 12.4332 6.80556 12.3678 6.871 12.3678ZM13.6111 8.63782C13.5457 8.70325 13.5457 8.7687 13.4802 8.83414C13.6111 8.7687 13.6111 8.70325 13.6111 8.63782ZM3.53366 12.4987C3.46822 12.4987 3.46822 12.4987 3.40278 12.4987C3.46822 12.5641 3.46822 12.4987 3.53366 12.4987ZM13.8074 8.44151C13.742 8.44151 13.742 8.44151 13.742 8.44151C13.742 8.50695 13.742 8.50695 13.8074 8.44151C13.8074 8.50695 13.742 8.50695 13.8074 8.44151ZM13.0222 10.8627V10.9281C13.0222 10.9281 13.0222 10.9282 13.0222 10.8627Z" fill="var(--fill-0, #5D5740)"/>
<path id="Vector_2" d="M15.0512 11.2573C14.9858 11.519 15.1166 11.7808 15.0512 12.0425C14.9858 11.8462 14.9857 11.6499 14.9857 11.4536C14.9857 11.2573 14.9857 11.061 14.9203 10.8647C14.9203 10.6684 14.9203 10.472 14.9203 10.2757C14.9203 10.0794 14.9857 9.88308 14.9857 9.68677C14.9857 9.49045 15.0512 9.29414 15.0512 9.09783H14.9857L14.9203 9.16327C14.7894 9.68678 14.5931 10.2103 14.5277 10.7338C14.4622 11.061 14.3968 11.3882 14.3968 11.7154C14.3968 11.7808 14.3968 11.8462 14.3314 11.9117C14.3314 11.9117 14.2659 11.9771 14.2659 12.0425C14.2659 12.4352 14.2005 12.8278 14.2659 13.2204C14.2659 13.7439 14.3314 14.3329 14.3314 14.8564C14.3314 15.0527 14.3314 15.249 14.3314 15.3799C14.3314 15.7725 14.3314 16.1651 14.3314 16.4923C14.3314 16.6886 14.3314 16.885 14.3314 17.1467C14.2659 17.6702 14.2005 18.1283 14.0042 18.6518C13.9387 18.8481 13.8733 19.0444 13.8079 19.1753C13.8079 19.2407 13.7424 19.3062 13.677 19.2407C13.7424 19.1099 13.7424 19.0444 13.8079 18.9135C14.0696 18.1283 14.2005 17.343 14.2005 16.4923C14.1351 15.8379 14.2005 15.249 14.1351 14.5946C14.1351 14.0711 14.0696 13.5476 14.0696 13.0241C14.0696 12.3697 14.1351 11.7808 14.2659 11.1264C14.2659 11.061 14.2659 11.061 14.3314 10.9955C14.4622 10.7992 14.4622 10.6029 14.4622 10.4066C14.4622 9.94852 14.5931 9.49045 14.724 8.96695C14.724 8.83607 14.7894 8.77063 14.724 8.63975C14.5931 8.63975 14.5277 8.70521 14.4622 8.90152C14.3968 9.29415 14.2659 9.68677 14.2005 10.0794C14.2005 10.1448 14.2005 10.1448 14.1351 10.2103C14.0696 10.0794 14.0696 10.014 14.1351 9.81765C14.2005 9.42502 14.3314 9.03239 14.3968 8.7052C14.3968 8.57432 14.4622 8.44344 14.4622 8.31256C14.4622 8.18169 14.5277 8.11625 14.6586 7.98537C14.724 7.98537 14.724 7.85451 14.724 7.85451C14.8549 7.20013 14.9203 6.54575 15.0512 5.89137C15.0512 5.89137 15.0512 5.82592 15.1166 5.82592C15.1166 5.89136 15.1166 5.89137 15.1166 5.95681C15.0512 6.41488 14.9857 6.8075 14.9203 7.26557C14.8549 7.59276 14.8549 7.85451 14.7894 8.1817C14.7894 8.24714 14.724 8.31256 14.724 8.31256C14.724 8.378 14.6586 8.37801 14.6586 8.44345C14.6586 8.44345 14.6586 8.44345 14.724 8.44345C14.7894 8.37801 14.7894 8.378 14.8549 8.31256C14.9203 8.24713 14.9858 8.24713 15.1166 8.31256C15.1166 8.24713 15.1166 8.1817 15.1166 8.11626C15.1821 7.59275 15.1821 7.06925 15.3129 6.54575C15.3784 6.02224 15.5093 5.4333 15.6401 4.9098C15.6401 4.77892 15.6401 4.64804 15.7056 4.51716C15.771 4.32085 15.8364 4.12454 15.9019 3.92822C15.9673 3.79735 15.9673 3.73191 16.0328 3.60103C16.0982 3.47016 16.0982 3.40472 16.0328 3.2084C15.9019 3.47015 15.9019 3.73191 15.8364 3.92822C15.771 4.18998 15.7056 4.3863 15.6401 4.64805C15.6401 4.58261 15.5747 4.5826 15.5747 4.51716C15.5747 4.45173 15.5747 4.38628 15.6401 4.38628C15.771 3.92821 15.9019 3.47016 16.0328 3.0121C16.0328 2.94666 16.0328 2.94665 16.0328 2.88121C15.9673 2.61946 15.9019 2.3577 15.8364 2.09595C15.771 1.96507 15.771 1.83421 15.8364 1.70333C15.9019 1.70333 15.9019 1.70332 15.9673 1.76876C16.0982 2.22682 16.2291 2.68489 16.2945 3.14296C16.2945 3.27384 16.36 3.33927 16.36 3.47015C16.5563 3.47015 16.7526 3.47015 16.9489 3.47015C17.0143 3.60103 16.9489 3.66646 17.0798 3.7319C17.0798 3.7319 17.1452 3.79734 17.0798 3.86278C17.0798 3.92822 17.0798 4.05909 17.0143 4.12453C17.0798 4.12453 17.1452 4.05909 17.2106 4.05909C17.3415 4.05909 17.407 4.12454 17.3415 4.25541C17.2761 4.38629 17.2106 4.51717 17.2106 4.64805C17.1452 4.84436 17.0798 5.04067 17.0143 5.23699C16.9489 5.23699 16.9489 5.17154 16.9489 5.1061C17.0143 4.90979 17.0143 4.77892 17.0798 4.58261C17.0798 4.51717 17.1452 4.51716 17.1452 4.45172C17.1452 4.38628 17.1452 4.38629 17.0143 4.25541C17.0143 4.32085 16.9489 4.38628 16.9489 4.38628L16.8835 4.45172L16.818 4.38628C16.818 4.2554 16.8835 4.18996 16.8835 4.05909C16.6871 3.99365 16.7526 3.86277 16.6871 3.7319C16.4908 3.7319 16.4908 3.73191 16.4908 3.86278C16.4908 3.99366 16.4908 4.0591 16.4254 4.18997C16.36 4.38629 16.2945 4.5826 16.2291 4.84435C16.0982 5.4333 15.9673 6.02225 15.8364 6.61119C15.771 6.8075 15.8364 7.00381 15.8364 7.13469C15.9019 6.93837 15.9673 6.67662 16.0328 6.48031C16.0328 6.48031 16.0328 6.48031 16.0982 6.48031C16.0982 6.54574 16.0982 6.54575 16.0982 6.61119C15.9673 7.13469 15.9019 7.59275 15.9019 8.11626C15.9019 8.31257 15.9019 8.50889 15.9019 8.77064C15.9019 8.77064 15.9019 8.77064 15.9673 8.83608C16.0982 8.77064 16.0982 8.70521 16.0982 8.57433C16.0982 8.37802 16.0982 8.11627 16.0982 7.91995C16.0982 7.33101 16.2291 6.74205 16.36 6.08767C16.36 5.9568 16.4254 5.82592 16.4254 5.69504C16.4908 5.56416 16.5563 5.36786 16.6217 5.23699L16.6871 5.17154C16.6871 5.36786 16.5563 5.56417 16.5563 5.76048C16.4908 5.9568 16.4908 6.15311 16.4254 6.34942C16.36 6.54574 16.3599 6.74205 16.2945 7.0038C16.2945 7.20012 16.2291 7.39643 16.2291 7.65818C16.2291 7.8545 16.2291 8.05081 16.1636 8.31256C16.2291 8.24713 16.2291 8.24714 16.2945 8.1817C16.2945 8.44345 16.1636 8.63977 16.2945 8.90152C16.3599 8.77065 16.36 8.70519 16.4254 8.63975C16.4254 8.70519 16.4908 8.7052 16.4908 8.7052C16.4254 8.90151 16.4254 9.09784 16.36 9.22871C16.36 9.29415 16.2945 9.42502 16.2945 9.49046C16.4254 10.2103 16.5563 10.9955 16.7526 11.6499C16.8835 11.9771 16.8835 12.3043 17.0143 12.6315C17.1452 13.0241 17.3415 13.4822 17.4724 13.8748C17.6687 14.3329 17.7996 14.7909 17.9959 15.249C18.1922 15.7725 18.3231 16.2306 18.454 16.7541C18.6503 17.5394 18.6503 18.2592 18.454 19.0444C18.2577 19.7642 17.9959 20.4841 17.6033 21.1384C17.3415 21.7274 16.9489 22.2509 16.5563 22.7089C16.2945 22.9707 16.0328 23.2979 15.7056 23.4942C15.771 23.4288 15.771 23.3633 15.8364 23.3633C16.1636 23.0361 16.4254 22.709 16.6871 22.3163C17.3415 21.4002 17.7996 20.4186 18.1268 19.3716C18.3231 18.8481 18.3231 18.3246 18.3231 17.7357C18.3231 16.9504 18.0613 16.2306 17.865 15.5762C17.7341 15.0527 17.5378 14.5946 17.3415 14.0711C17.2106 13.7439 17.0798 13.4167 16.9489 13.0896C16.8835 12.8932 16.818 12.6969 16.7526 12.4352C16.6217 11.9117 16.4908 11.4536 16.36 10.9301C16.2945 10.6683 16.2945 10.472 16.2291 10.2103C16.1636 9.75222 16.0982 9.22871 16.0328 8.77064C16.0328 9.03239 16.0328 9.29415 16.0328 9.49046C16.0982 10.3412 16.2945 11.1264 16.5563 11.9771C16.6217 12.108 16.6217 12.1734 16.6217 12.3043C16.6217 12.2389 16.5563 12.2389 16.5563 12.1734C16.2291 11.2573 15.9673 10.2757 15.9673 9.22871C15.9673 9.16328 15.9673 9.03239 15.8364 9.03239C15.8364 9.09783 15.8364 9.09783 15.8364 9.16327C15.8364 9.22871 15.8364 9.29414 15.771 9.29414C15.7056 9.35957 15.6401 9.42503 15.6401 9.5559C15.5747 10.0794 15.5747 10.6029 15.5093 11.1264C15.5093 11.1919 15.5093 11.1918 15.5093 11.2573C15.6401 11.8462 15.7056 12.3697 15.9019 12.8932C16.0328 13.2859 16.1636 13.7439 16.2291 14.1366C16.3599 14.6601 16.4908 15.1836 16.6217 15.7071C16.6871 16.0343 16.7526 16.3615 16.8835 16.6232C17.0143 17.0158 17.0798 17.4739 17.0798 17.8665C17.0798 18.0628 17.0798 18.2592 17.0798 18.4555C17.0143 18.8481 16.9489 19.2407 16.818 19.6334C16.7526 19.8297 16.7526 19.9605 16.6871 20.1569C16.6217 20.3532 16.4908 20.6149 16.4254 20.8112C16.4254 20.8767 16.36 20.9421 16.36 21.0076C16.2291 21.4002 16.0328 21.8583 15.8364 22.2509C15.7056 22.5126 15.5093 22.7744 15.3129 23.0361C15.2475 23.1016 15.1821 23.2324 15.1166 23.3633C15.1166 23.4288 15.0512 23.4942 15.0512 23.5597C15.0512 23.6251 15.0512 23.6251 14.9857 23.6905C14.8549 23.6251 14.7894 23.5596 14.6586 23.4942C14.5931 23.4942 14.5931 23.4942 14.5277 23.4942C14.4622 23.4942 14.4622 23.4942 14.3968 23.4942C14.3314 23.4942 14.2659 23.4288 14.2659 23.3633C14.2659 23.2979 14.3314 23.2979 14.3968 23.2979C14.5277 23.2979 14.5931 23.2979 14.6586 23.167C14.9203 22.8398 15.1821 22.5126 15.4438 22.1854C15.5747 22.0546 15.7056 21.8583 15.771 21.6619C15.9673 21.2693 16.2291 20.8767 16.36 20.4186C16.5563 19.8297 16.818 19.1753 16.8835 18.5209C16.9489 17.932 16.8835 17.4085 16.7526 16.8195C16.6217 16.1651 16.4254 15.5108 16.2945 14.8564C16.1636 14.2674 16.0328 13.7439 15.9019 13.155C15.8364 12.8932 15.7056 12.6315 15.6401 12.3043C15.5747 12.108 15.5747 11.8462 15.5093 11.6499C15.1821 11.7153 15.1166 11.4536 15.0512 11.2573ZM15.3784 7.91995C15.3129 7.98539 15.2475 8.05082 15.3129 8.11626C15.3129 8.05082 15.3129 7.98539 15.3784 7.91995C15.3784 7.85451 15.3784 7.78906 15.3784 7.72363C15.3784 7.52731 15.4438 7.331 15.4438 7.13469C15.4438 6.41487 15.6401 5.76048 15.771 5.04066C15.8364 4.90978 15.8364 4.71348 15.8364 4.58261C15.771 4.58261 15.771 4.64805 15.771 4.64805C15.7056 4.97524 15.6401 5.30243 15.5747 5.62962C15.5093 5.95681 15.4438 6.284 15.4438 6.61119C15.3784 7.00382 15.3784 7.39644 15.3129 7.78907C15.2475 7.78907 15.2475 7.85451 15.3784 7.91995ZM15.0512 10.7338C15.0512 10.6683 15.0512 10.5375 15.0512 10.472C15.0512 10.4066 15.0512 10.2757 15.1166 10.2757C15.1821 10.1448 15.2475 10.0794 15.2475 9.94852C15.2475 9.81764 15.2475 9.62134 15.3129 9.49046C15.3129 9.42502 15.3129 9.35957 15.1821 9.29414C15.0512 9.7522 14.9858 10.2103 15.0512 10.7338ZM15.1166 7.59276C15.0512 7.6582 15.0512 7.72363 15.0512 7.78907C14.9858 8.05082 15.0512 8.31258 14.8549 8.57433C14.9203 8.57433 14.9858 8.57433 15.0512 8.57433C15.0512 8.63977 15.0512 8.7052 15.0512 8.77064C15.0512 8.83608 15.0512 8.90151 15.0512 8.96695C15.1821 8.90151 15.2475 8.83607 15.3129 8.7052C15.1166 8.63976 15.1166 8.50888 15.1166 8.37801C15.1166 8.31257 15.1166 8.24714 15.1166 8.24714C15.1166 7.98539 15.1166 7.78908 15.1166 7.59276ZM14.5277 10.1448C14.6586 9.75221 14.7894 9.35959 14.8549 8.90152C14.7894 8.96696 14.7894 8.96695 14.724 8.96695C14.724 9.03238 14.6586 9.03239 14.6586 9.09783C14.5931 9.42502 14.5277 9.75221 14.5277 10.1448ZM14.5931 23.4942C14.8549 23.167 15.1166 22.8398 15.3129 22.4472C15.0512 22.7089 14.7894 23.0361 14.5277 23.3633C14.4622 23.3633 14.4622 23.4288 14.5931 23.4942ZM15.5093 4.71347C15.6401 4.38628 15.7056 4.12453 15.8364 3.79734C15.8364 3.79734 15.8364 3.73191 15.8364 3.66648C15.6401 3.92823 15.5093 4.45172 15.5093 4.71347ZM15.1166 7.26557C15.1821 7.06926 15.2475 6.15311 15.2475 6.08767C15.1166 6.54574 15.0512 7.13469 15.1166 7.26557ZM16.0982 3.7319C15.9673 3.86277 15.8364 4.18996 15.9019 4.38628C15.9019 4.18996 16.0328 3.99365 16.0982 3.7319ZM15.0512 11.061C15.0512 10.9955 15.0512 10.9955 15.0512 10.9301C15.0512 10.9955 15.0512 11.061 15.0512 11.061Z" fill="var(--fill-0, #5D5740)"/>
<path id="Vector_3" d="M11.6483 23.6247C11.6483 23.4284 11.5829 23.232 11.6483 23.0357C11.6483 22.9703 11.6483 22.9049 11.5829 22.8394C11.3866 22.5122 11.2557 22.1851 11.0594 21.9233C10.8631 21.5961 10.7322 21.3344 10.5359 21.0072C10.405 20.7454 10.3395 20.5491 10.2741 20.2873C9.94692 19.4367 9.75061 18.586 9.75061 17.6698C9.75061 17.2772 9.75061 16.95 9.75061 16.5574C9.75061 16.4919 9.75061 16.4919 9.75061 16.4265C9.88148 16.4919 9.94692 16.6228 9.94692 16.7537C9.94692 17.0154 9.94692 17.2772 9.94692 17.5389C9.94692 18.3242 10.0124 19.1095 10.3395 19.8293C10.5359 20.3528 10.7322 20.8763 10.9939 21.3998C11.1902 21.727 11.3211 21.9887 11.5174 22.3159C11.5829 22.3814 11.5829 22.4468 11.6483 22.5777C11.6483 22.4468 11.6483 22.3159 11.5829 22.2505C11.3866 21.8579 11.1902 21.4652 11.0594 21.0726C10.8631 20.68 10.7322 20.2873 10.6013 19.8947C10.5359 19.6984 10.4704 19.4366 10.405 19.1749C10.405 19.1095 10.405 19.044 10.4704 18.9131C10.5359 19.1095 10.6013 19.2403 10.6667 19.4366C10.7322 19.8293 10.9285 20.2219 11.1248 20.5491C11.3211 21.0726 11.5829 21.5307 11.7792 22.0542C11.9101 22.3814 11.9755 22.7085 12.0409 23.0357C12.0409 23.1012 12.1064 23.2321 11.9101 23.2975C12.1064 23.3629 12.3027 23.2975 12.499 23.3629C12.2373 23.6247 12.1718 23.6247 11.6483 23.6247Z" fill="var(--fill-0, #5D5740)"/>
<path id="Vector_4" d="M13.8723 20.1525C13.9377 19.9561 14.0031 19.8253 14.0031 19.629C14.134 19.1054 14.1994 18.6474 14.2649 18.1239C14.3303 17.4695 14.3958 16.8805 14.3303 16.2262C14.3303 15.7027 14.2649 15.2446 14.2649 14.7211C14.2649 14.3939 14.3303 14.1322 14.3303 13.805C14.3303 13.7395 14.3303 13.6086 14.4612 13.6086C14.4612 13.6741 14.4612 13.6741 14.4612 13.7395C14.3958 14.1976 14.3303 14.6557 14.3958 15.1137C14.3958 15.7681 14.4612 16.4879 14.4612 17.1423C14.3958 18.0584 14.3303 18.9746 14.0031 19.8907C14.0031 19.9561 14.0031 20.0216 13.9377 20.087C14.0686 20.1524 14.0031 20.1525 13.8723 20.1525Z" fill="var(--fill-0, #5D5740)"/>
<path id="Vector_5" d="M3.20619 19.6318C3.27163 19.5664 3.20619 19.501 3.20619 19.3701C3.14075 19.1083 3.07532 18.7811 3.00988 18.5194C2.94444 17.9959 3.00988 17.4724 3.20619 16.9489C3.40251 16.4908 3.53338 16.0327 3.79513 15.5747C3.99145 15.182 4.2532 14.8548 4.51495 14.5277C4.71127 14.2659 4.90758 14.0696 5.1039 13.8733C5.36565 13.677 5.6274 13.4806 5.95459 13.2189C6.15091 13.088 6.34722 12.9572 6.60897 12.8263C6.67441 12.7608 6.73985 12.7608 6.87072 12.6954C6.87072 12.6954 6.87072 12.6954 6.87072 12.7608C6.67441 12.8917 6.54353 13.0226 6.34722 13.088C6.15091 13.2189 5.88915 13.3498 5.69284 13.5461C5.30021 13.8078 5.03846 14.135 4.71127 14.4622C4.38408 14.7894 4.12233 15.1166 3.92601 15.5092C3.79513 15.771 3.66426 15.9673 3.59882 16.229C3.46794 16.5562 3.33707 16.8834 3.27163 17.2106C3.14075 17.6032 3.14075 18.0613 3.20619 18.4539C3.27163 18.912 3.33707 19.4355 3.59882 19.8281V19.8936C3.59882 19.8936 3.59882 19.8936 3.53338 19.8936C3.46795 19.8281 3.46794 19.7627 3.40251 19.6973C3.27163 19.8282 3.27163 19.6973 3.20619 19.6318Z" fill="var(--fill-0, #5D5740)"/>
<path id="Vector_6" d="M13.4798 24.7359C13.4798 25.2594 13.3489 25.7829 13.2835 26.3064C13.3489 26.3718 13.4144 26.3719 13.4144 26.241C13.4798 26.0447 13.4798 25.9138 13.5452 25.7175C13.6107 25.4557 13.6761 25.194 13.6761 24.9322C13.6761 24.8668 13.6761 24.8668 13.7416 24.8013C13.807 24.8668 13.807 24.9322 13.807 24.9976C13.7416 25.2594 13.7415 25.4557 13.6761 25.7175C13.6107 25.9138 13.6107 26.1101 13.5452 26.3064C13.6107 26.3064 13.6761 26.3064 13.7416 26.3064C13.7416 25.8483 14.0033 25.0631 14.0687 24.9322C14.1342 24.9977 14.0687 25.0631 14.0687 25.1285C14.0033 25.4557 13.9379 25.7175 13.8724 26.0446C13.8724 26.1101 13.8724 26.1755 13.8724 26.241C13.8724 26.3064 13.9379 26.3064 13.9379 26.3718L14.0033 26.3064C14.0687 26.0446 14.1342 25.8483 14.1996 25.5866C14.1996 25.4557 14.2651 25.3248 14.3305 25.194C14.3305 25.1285 14.3959 25.1285 14.3959 25.0631C14.3959 25.0631 14.3959 25.0631 14.4614 25.0631C14.4614 25.1285 14.4614 25.194 14.4614 25.194C14.3959 25.4557 14.3305 25.7175 14.2651 25.9138C14.2651 25.9792 14.1996 26.0447 14.1996 26.1755C14.1996 26.3064 14.1342 26.3718 13.9379 26.3718C13.6761 26.3718 13.4144 26.3718 13.1526 26.3718C13.0217 26.3718 12.8909 26.3064 12.8254 26.3064C12.76 26.3064 12.76 26.241 12.76 26.1755C12.76 26.1101 12.8254 26.1101 12.8909 26.1755C13.0217 26.1755 13.0872 26.241 13.218 26.241C13.218 26.0447 13.2835 25.8483 13.2835 25.7175C13.3489 25.5211 13.3489 25.3248 13.4144 25.194C13.4144 25.0631 13.4144 24.8668 13.4798 24.7359Z" fill="var(--fill-0, #5D5740)"/>
<path id="Vector_7" d="M19.3043 18.2599C19.3043 18.129 19.3043 18.0635 19.3043 17.9327C19.3043 17.6055 19.2388 17.2783 19.2388 16.9511C19.1734 16.4276 19.0425 15.9695 18.8462 15.5114C18.7808 15.3806 18.7808 15.2497 18.7153 15.1188C18.5844 14.6608 18.3881 14.2681 18.1264 13.8101C17.9955 13.6138 17.9955 13.4174 17.9301 13.2211L17.9955 13.2866C18.0609 13.4829 18.1918 13.6138 18.2573 13.8101C18.4536 14.2027 18.5844 14.5953 18.7808 14.9879C18.8462 15.1843 18.9771 15.3806 19.0425 15.6423C19.1734 16.1658 19.3043 16.6893 19.3697 17.2783C19.3697 17.54 19.3697 17.7364 19.3697 17.9981C19.3697 18.129 19.3697 18.1944 19.3043 18.2599Z" fill="var(--fill-0, #5D5740)"/>
<path id="Vector_8" d="M19.9586 24.473C20.024 24.4075 20.024 24.4075 20.0895 24.3421C20.613 23.9495 21.071 23.426 21.5291 22.9025C21.7254 22.6407 21.9872 22.3135 22.1835 22.0518C22.3798 21.79 22.5107 21.5283 22.6416 21.2665C22.707 21.2011 22.707 21.0702 22.8379 21.0048C22.8379 21.0048 22.8379 21.0048 22.9033 21.0048C22.8379 21.2011 22.7724 21.3974 22.707 21.5283C22.2489 22.3135 21.7254 23.0334 21.071 23.6223C20.6784 23.9495 20.3512 24.2112 19.9586 24.473Z" fill="var(--fill-0, #5D5740)"/>
<path id="Vector_9" d="M4.77558 23.4291C4.57927 23.4291 4.51383 23.2983 4.38296 23.2328C4.38296 23.2983 4.38296 23.2982 4.44839 23.3637C4.38296 23.2982 4.31752 23.2983 4.25208 23.2328C3.79401 22.7748 3.40139 22.3167 3.0742 21.7932C2.87788 21.5314 2.74701 21.2042 2.55069 20.9425C2.48525 20.8116 2.41982 20.7462 2.41982 20.6153C2.41982 20.5499 2.41982 20.4844 2.41982 20.419C2.48525 20.6153 2.61613 20.8116 2.68157 20.9425C2.87788 21.2697 3.00876 21.5314 3.20507 21.7932C3.27051 21.8586 3.33595 21.9895 3.40139 21.9895C3.46682 21.9895 3.46682 22.0549 3.53226 22.1204C3.79402 22.513 4.18664 22.8402 4.57927 23.1674C4.64471 23.2983 4.71015 23.3637 4.77558 23.4291Z" fill="var(--fill-0, #5D5740)"/>
<path id="Vector_10" d="M5.56211 13.0887C5.62755 13.0887 5.69299 13.0232 5.75842 13.0232C5.95474 12.9578 6.08562 12.8269 6.28193 12.7615C6.28193 12.7615 6.28193 12.8269 6.21649 12.8269C6.15105 12.8924 6.02018 12.9578 5.8893 13.0232C5.56211 13.2195 5.30036 13.4159 5.03861 13.6776C4.90773 13.8085 4.71141 14.0048 4.58054 14.1357C4.12247 14.5283 3.79528 15.0518 3.46809 15.5099C3.33721 15.6407 3.27178 15.8371 3.07546 15.9679C3.07546 15.9025 3.07546 15.9025 3.07546 15.8371C3.1409 15.7062 3.27178 15.5753 3.33722 15.4444C3.72985 14.9209 4.05703 14.332 4.58054 13.9394C4.84229 13.743 5.03861 13.4813 5.30036 13.285C5.49667 13.2195 5.49667 13.1541 5.56211 13.0887Z" fill="var(--fill-0, #5D5740)"/>
<path id="Vector_11" d="M10.535 24.8014C9.81523 24.605 9.22628 24.2779 8.63734 23.8198C8.24471 23.4926 7.85208 23.1654 7.52489 22.7728C7.26314 22.511 7.00139 22.2493 6.87051 21.9221C6.80507 21.8567 6.80507 21.7912 6.80507 21.7258C7.13226 22.1838 7.45945 22.5765 7.85208 22.9691C8.24471 23.3617 8.70278 23.7543 9.09541 24.0815C9.48803 24.3433 10.0115 24.605 10.535 24.8014Z" fill="var(--fill-0, #5D5740)"/>
<path id="Vector_12" d="M14.985 23.7547C15.0504 23.7547 15.0504 23.7547 15.1159 23.7547C15.2467 23.951 15.3122 24.0165 15.5085 23.8202C15.7702 23.5584 16.032 23.3621 16.2937 23.0349C16.2937 23.0349 16.3592 22.9695 16.4246 22.9695C16.4246 23.0349 16.4246 23.0349 16.4246 23.1003C16.2938 23.2312 16.1629 23.4275 16.032 23.5584C15.8357 23.7547 15.6394 23.951 15.5085 24.0819C15.4431 24.1473 15.4431 24.2128 15.3776 24.2782C15.3122 24.2782 15.2467 24.2782 15.2467 24.2782C15.1813 24.2128 15.1159 24.1473 14.985 24.1473C14.9195 24.1473 14.9195 24.0165 14.985 24.0165C14.8541 23.951 14.9195 23.8202 14.985 23.7547Z" fill="var(--fill-0, #5D5740)"/>
<path id="Vector_13" d="M13.2182 8.24672C13.2836 8.11584 13.3491 7.98496 13.3491 7.85409C13.5454 7.13427 13.7417 6.41444 13.938 5.76006C14.0035 5.56375 14.0689 5.30199 14.1343 5.10568C14.1343 5.04024 14.1998 5.04025 14.1998 4.97482C14.1343 5.17113 14.0689 5.36744 14.0689 5.49831C13.938 6.15269 13.7417 6.74163 13.6108 7.39601C13.5454 7.7232 13.4145 8.11584 13.2836 8.44303L13.2182 8.50847L13.1528 8.44303C13.1528 8.37759 13.1528 8.31214 13.1528 8.31214C13.2182 8.31214 13.2182 8.31216 13.2182 8.24672Z" fill="var(--fill-0, #5D5740)"/>
<path id="Vector_14" d="M4.77729 23.0986C4.84273 23.1641 4.90817 23.1641 4.97361 23.2295C5.43168 23.5567 5.88974 23.9493 6.34781 24.342C6.675 24.6037 7.06763 24.8655 7.52569 24.9963C7.72201 25.0618 7.85288 25.1272 8.0492 25.1927C8.11464 25.2581 8.18008 25.2581 8.31095 25.3235C8.31095 25.3235 8.31095 25.3235 8.31095 25.389C8.18008 25.3235 8.0492 25.2581 7.91832 25.1927C7.5257 25.0618 7.13307 24.8655 6.80588 24.6692C6.54412 24.4728 6.28237 24.2765 6.02062 24.0802C5.69343 23.8185 5.3008 23.5567 4.97361 23.295C4.84273 23.2295 4.77729 23.2295 4.77729 23.0986Z" fill="var(--fill-0, #5D5740)"/>
<path id="Vector_15" d="M4.4506 21.9871C4.51604 22.0526 4.58148 22.0525 4.64691 22.118C4.9741 22.5106 5.43217 22.8378 5.89024 23.165C6.28286 23.4922 6.67549 23.6885 7.00268 24.0157L7.06812 24.0811C7.00268 24.0811 7.00268 24.0811 7.00268 24.0811C6.93725 24.0811 6.93725 24.0157 6.87181 24.0157C6.41374 23.6885 5.89024 23.3613 5.43217 22.9687C5.30129 22.8378 5.17042 22.7724 5.03954 22.7069C4.90866 22.576 4.77779 22.5106 4.64691 22.3797C4.58148 22.2489 4.51604 22.118 4.4506 21.9871Z" fill="var(--fill-0, #5D5740)"/>
<path id="Vector_16" d="M13.2183 8.24713V8.31255L13.1529 8.37799C13.0874 8.31256 13.0874 8.24713 13.0874 8.18169C13.1529 7.78906 13.2183 7.331 13.3492 6.93837C13.4801 6.34943 13.6764 5.82592 13.8072 5.23697C13.8727 5.04066 13.8727 4.90977 14.0036 4.71346C14.0036 4.71346 14.069 4.71346 14.069 4.7789C13.9381 5.10609 13.8727 5.43328 13.7418 5.82591C13.6109 6.41486 13.4146 7.06923 13.2837 7.65817C13.2183 7.78905 13.2183 8.05082 13.2183 8.24713Z" fill="var(--fill-0, #5D5740)"/>
<path id="Vector_17" d="M1.70128 17.2737C1.70128 18.3207 1.89759 19.3022 2.22478 20.2838C2.09391 20.2184 2.09391 20.1529 2.09391 20.0875C2.02847 19.8257 1.89759 19.564 1.83215 19.3022C1.70128 18.7133 1.5704 18.1898 1.5704 17.6009C1.5704 17.5354 1.5704 17.47 1.5704 17.3391C1.63584 17.4045 1.63584 17.3391 1.70128 17.2737Z" fill="var(--fill-0, #5D5740)"/>
<path id="Vector_18" d="M13.6761 4.97482C13.4144 6.02182 13.0872 7.06883 12.8254 8.18128C12.8254 8.18128 12.8254 8.18128 12.76 8.18128C12.76 8.11584 12.76 8.11583 12.76 8.05039C12.8254 7.7232 12.8909 7.46145 12.9563 7.13426C13.0872 6.54532 13.2835 5.95637 13.4798 5.36743C13.6107 5.23655 13.5452 5.10569 13.6761 4.97482Z" fill="var(--fill-0, #5D5740)"/>
<path id="Vector_19" d="M21.725 21.921C21.725 21.9865 21.6595 22.1173 21.6595 22.1828C21.4632 22.51 21.2669 22.8372 21.0706 23.1643C20.8743 23.3607 20.678 23.557 20.4816 23.7533C20.3508 23.8842 20.2199 24.015 20.0236 24.0805C19.9581 24.1459 19.8927 24.2114 19.7618 24.1459L19.8273 24.0805C20.3508 23.7533 20.7434 23.3607 21.136 22.9026C21.3323 22.6408 21.4632 22.3791 21.6595 22.1173C21.5941 22.0519 21.6595 21.9865 21.725 21.921Z" fill="var(--fill-0, #5D5740)"/>
<path id="Vector_20" d="M9.09571 21.9871C9.29203 22.1834 9.48834 22.3797 9.75009 22.5761C10.1427 22.9033 10.4699 23.2959 10.928 23.5576C11.0589 23.6231 11.1243 23.6885 11.2552 23.7539C11.2552 23.7539 11.3206 23.7539 11.3206 23.8194C11.3206 23.8848 11.386 23.9503 11.386 23.9503L11.3206 24.0157C11.2552 24.0157 11.1897 23.9503 11.1897 23.9503C11.1243 23.7539 10.9934 23.6885 10.8625 23.6231C10.6662 23.4922 10.4699 23.3613 10.339 23.165C9.9464 22.8378 9.61921 22.5106 9.29202 22.1834C9.16115 22.1834 9.09571 22.118 9.09571 21.9871C9.09571 22.0526 9.09571 22.0526 9.09571 21.9871Z" fill="var(--fill-0, #5D5740)"/>
<path id="Vector_21" d="M5.36602 22.1151C4.71164 21.5916 3.92638 20.4792 3.92638 19.8902C4.05726 20.152 4.18813 20.4138 4.31901 20.6755C4.44989 20.9373 4.6462 21.199 4.84251 21.4608C4.97339 21.6571 5.1697 21.9188 5.36602 22.1151Z" fill="var(--fill-0, #5D5740)"/>
<path id="Vector_22" d="M3.66405 13.874C3.27143 14.463 2.81336 14.9865 2.48617 15.6409C2.42073 15.5754 2.42073 15.51 2.48617 15.51C2.61704 15.1828 2.81336 14.8556 3.07511 14.5938C3.20599 14.3975 3.4023 14.2012 3.53318 14.0049C3.59862 13.874 3.59862 13.874 3.66405 13.874C3.66405 13.8086 3.66405 13.8086 3.66405 13.874Z" fill="var(--fill-0, #5D5740)"/>
<path id="Vector_23" d="M17.2095 12.8895C16.8823 12.1697 16.6206 11.4499 16.4242 10.6646C16.5551 10.9918 16.686 11.3844 16.8169 11.7771C17.0132 12.1697 17.2095 12.4969 17.2095 12.8895Z" fill="var(--fill-0, #5D5740)"/>
<path id="Vector_24" d="M16.1629 12.8899C16.0321 12.759 16.0321 12.6282 15.9666 12.4973C15.9012 12.1046 15.8357 11.7775 15.7703 11.3848C15.7049 11.1231 15.7049 10.8613 15.6394 10.5996C15.6394 10.5341 15.6394 10.4687 15.6394 10.4033C15.8357 11.2539 15.9666 12.0392 16.1629 12.8899Z" fill="var(--fill-0, #5D5740)"/>
<path id="Vector_25" d="M6.54389 22.3777C6.41301 22.2468 6.34757 22.1813 6.2167 22.0505C6.02038 21.7887 5.75863 21.4615 5.56232 21.1998C5.49688 21.1343 5.49688 21.0689 5.43144 21.0035C5.43144 20.938 5.43144 20.938 5.43144 20.8726C5.82407 21.3961 6.2167 21.8542 6.54389 22.3777C6.60933 22.3777 6.60933 22.3777 6.54389 22.3777Z" fill="var(--fill-0, #5D5740)"/>
<path id="Vector_26" d="M12.9567 26.1749C12.9567 25.9786 13.1531 24.7352 13.2185 24.6698C13.2185 25.1279 13.1531 25.5205 13.0876 25.9786C13.0222 26.044 13.0222 26.1094 12.9567 26.1749Z" fill="var(--fill-0, #5D5740)"/>
<path id="Vector_27" d="M2.09384 15.5733C1.83209 16.0968 1.70121 16.6203 1.57034 17.1438C1.43946 17.0784 1.5049 17.013 1.5049 16.9475C1.63577 16.2932 1.83209 15.7696 2.09384 15.5733Z" fill="var(--fill-0, #5D5740)"/>
<path id="Vector_28" d="M10.1426 24.2777C10.4044 24.2123 10.5353 24.4741 10.797 24.4741C10.797 24.6704 10.797 24.8013 10.7316 24.9321C10.7316 24.9321 10.6662 24.9321 10.6007 24.9975C10.6007 24.9321 10.6007 24.8012 10.5353 24.7358C10.4698 24.5395 10.4698 24.5395 10.2735 24.5395C10.2735 24.4086 10.2081 24.3432 10.1426 24.2777Z" fill="var(--fill-0, #5D5740)"/>
<path id="Vector_29" d="M10.9275 23.2311C10.7967 23.1657 10.0114 22.2495 9.88054 22.0532C10.1423 22.1841 10.2732 22.4459 10.404 22.5767C10.6004 22.773 10.7967 22.9694 10.9275 23.2311Z" fill="var(--fill-0, #5D5740)"/>
<path id="Vector_30" d="M15.9669 6.0217C16.0323 5.36732 16.1632 4.77838 16.3595 4.124L16.4249 4.05856C16.4249 4.05856 16.4249 4.05856 16.4904 4.05856C16.3595 4.51663 16.2286 5.04014 16.1632 5.49821C16.0323 5.69452 16.0323 5.89083 15.9669 6.0217Z" fill="var(--fill-0, #5D5740)"/>
<path id="Vector_31" d="M12.6956 26.1081C12.6302 25.9772 12.8265 24.7994 12.9574 24.5376C13.0228 24.6685 12.9574 24.7994 12.9574 24.9302C12.9574 25.0611 12.8919 25.192 12.8919 25.3229C12.8919 25.4537 12.8919 25.5846 12.8265 25.7155C12.8265 25.9118 12.8265 26.0427 12.6956 26.1081Z" fill="var(--fill-0, #5D5740)"/>
<path id="Vector_32" d="M3.2066 19.6319C3.27204 20.09 3.46835 20.4171 3.59923 20.7443C3.59923 20.8098 3.66467 20.8098 3.66467 20.8752C3.66467 20.8752 3.66467 20.8752 3.59923 20.8752C3.59923 20.8098 3.53379 20.8098 3.53379 20.7443C3.40291 20.548 3.33748 20.2863 3.2066 20.0899C3.14116 19.9591 3.07572 19.8282 3.2066 19.6319Z" fill="var(--fill-0, #5D5740)"/>
<path id="Vector_33" d="M12.3021 24.8651C12.2366 25.3231 12.1712 25.7158 12.1058 26.1738C11.9749 26.1084 12.0403 26.0429 12.0403 25.9775C12.1058 25.7157 12.1058 25.454 12.1712 25.1923C12.1712 25.1268 12.1712 25.0614 12.1712 24.9959C12.1712 24.9959 12.1712 24.9305 12.3021 24.8651C12.2366 24.8651 12.2366 24.8651 12.3021 24.8651Z" fill="var(--fill-0, #5D5740)"/>
<path id="Vector_34" d="M14.658 22.1133C14.658 22.1787 14.658 22.2442 14.658 22.2442C14.4616 22.5714 14.3308 22.8986 14.069 23.2912C14.069 23.2258 14.069 23.2257 14.069 23.1603C14.1999 22.7677 14.3962 22.4405 14.658 22.1133Z" fill="var(--fill-0, #5D5740)"/>
<path id="Vector_35" d="M11.0591 22.964C10.8628 22.7022 10.6011 22.4405 10.4048 22.1133C10.4048 22.1133 10.4702 22.1133 10.4702 22.1787C10.7319 22.4405 10.9283 22.7677 11.19 23.0294C11.19 23.0949 11.2554 23.0949 11.19 23.1603C11.19 23.0949 11.1246 23.0294 11.0591 22.964Z" fill="var(--fill-0, #5D5740)"/>
<path id="Vector_36" d="M2.29055 15.7055C2.15967 16.1636 2.02879 16.5562 1.89792 17.0143C1.83248 16.8834 1.89792 16.818 1.96336 16.5562C2.02879 16.4253 2.02879 16.229 2.09423 16.0981C2.09423 15.9673 2.09423 15.771 2.29055 15.7055Z" fill="var(--fill-0, #5D5740)"/>
<path id="Vector_37" d="M12.4333 26.1084C12.4333 26.0429 12.4333 26.0429 12.4333 25.9775C12.4987 25.5849 12.5642 25.2577 12.695 24.8651C12.7605 24.9959 12.695 25.1268 12.695 25.2577C12.695 25.3886 12.6296 25.5194 12.6296 25.7158C12.5642 25.8466 12.5642 25.9775 12.4333 26.1084Z" fill="var(--fill-0, #5D5740)"/>
<path id="Vector_38" d="M5.29999 12.434C4.9728 12.7612 4.64561 13.023 4.31842 13.3502V13.2847C4.58017 12.8921 4.90736 12.6958 5.29999 12.434Z" fill="var(--fill-0, #5D5740)"/>
<path id="Vector_39" d="M14.3966 26.3694C14.3311 26.3694 14.3311 26.3039 14.3311 26.2385C14.3966 25.9767 14.462 25.6495 14.5929 25.3878C14.5929 25.3878 14.5929 25.3878 14.6583 25.3878C14.6583 25.4532 14.6583 25.4532 14.6583 25.5187C14.5929 25.6495 14.5929 25.7804 14.5274 25.9113C14.462 26.0422 14.462 26.173 14.462 26.3039L14.3966 26.3694Z" fill="var(--fill-0, #5D5740)"/>
<path id="Vector_40" d="M11.0592 22.9695C11.1901 23.2312 11.3864 23.493 11.6481 23.6238C11.5827 23.7547 11.5172 23.8201 11.4518 23.6893C11.3209 23.493 11.1246 23.2966 10.9937 23.1003C10.9283 23.0349 10.9283 22.9695 11.0592 22.9695Z" fill="var(--fill-0, #5D5740)"/>
<path id="Vector_41" d="M12.4975 24.8651C12.4975 25.2577 12.3666 25.5849 12.3666 25.9775C12.3666 25.9775 12.3666 25.9775 12.3012 25.9775L12.2358 25.9121C12.2358 25.7812 12.4321 24.9959 12.4975 24.8651Z" fill="var(--fill-0, #5D5740)"/>
<path id="Vector_42" d="M11.7788 25.0603C11.7133 25.3875 11.7133 25.7147 11.6479 26.0419C11.517 26.0419 11.517 25.9765 11.517 25.911C11.6479 25.6493 11.6479 25.3221 11.7788 25.0603Z" fill="var(--fill-0, #5D5740)"/>
<path id="Vector_43" d="M12.0391 25.0603C12.0391 25.1258 12.0391 25.1258 12.0391 25.1258C11.9736 25.3875 11.9736 25.7147 11.9082 25.9765C11.9082 25.9765 11.9082 25.9765 11.8428 25.9765C11.7773 25.7801 11.8428 25.5184 11.8428 25.3221C11.9082 25.2566 11.9082 25.1258 12.0391 25.0603Z" fill="var(--fill-0, #5D5740)"/>
<path id="Vector_44" d="M14.919 25.6512C14.919 25.7166 14.919 25.7821 14.8536 25.7821C14.7882 25.9129 14.7227 26.1093 14.7227 26.3056C14.7227 26.3056 14.7227 26.371 14.6573 26.371C14.6573 26.371 14.5918 26.4364 14.5918 26.371L14.5264 26.3056V26.2401C14.5918 26.0438 14.6573 25.8475 14.7882 25.6512C14.8536 25.6512 14.8536 25.6512 14.919 25.6512Z" fill="var(--fill-0, #5D5740)"/>
<path id="Vector_45" d="M14.7885 26.5672C14.7885 26.3055 14.9848 25.9128 15.0503 25.8474C15.1157 25.9783 14.9848 26.4364 14.7885 26.5672Z" fill="var(--fill-0, #5D5740)"/>
<path id="Vector_46" d="M11.4514 26.1737C11.3205 25.9119 11.4514 25.7156 11.5168 25.4539C11.5822 25.5847 11.5168 26.0428 11.4514 26.1737Z" fill="var(--fill-0, #5D5740)"/>
<path id="Vector_47" d="M14.9854 23.7537C14.9854 23.7537 14.9199 23.7537 14.9199 23.6882C14.9199 23.6882 14.9199 23.6228 14.9854 23.6228C15.1163 23.4265 15.3126 23.2956 15.5089 23.1647C15.5089 23.1647 15.5089 23.2302 15.4434 23.2302C15.3126 23.3611 15.2471 23.4265 15.1163 23.5574C15.0508 23.6228 14.9854 23.6882 14.9854 23.7537Z" fill="var(--fill-0, #5D5740)"/>
<path id="Vector_48" d="M11.5169 9.55309C11.5169 9.7494 11.3206 10.2075 11.1242 10.3383V10.2729C11.2551 10.0111 11.386 9.81484 11.5169 9.55309Z" fill="var(--fill-0, #5D5740)"/>
<path id="Vector_49" d="M13.3482 23.4932C13.2828 23.4932 13.2828 23.4278 13.2174 23.4278C13.2828 23.3623 13.2828 23.2969 13.3482 23.2969C13.4137 23.2969 13.4791 23.2969 13.4791 23.2969C13.5445 23.2969 13.5445 23.3623 13.5445 23.4278C13.5445 23.4932 13.4791 23.4932 13.4137 23.4932H13.3482Z" fill="var(--fill-0, #5D5740)"/>
<path id="Vector_50" d="M11.0584 27.4176C11.0584 27.483 10.993 27.5485 10.993 27.6139L10.9276 27.6793C10.8621 27.6793 10.8621 27.6139 10.8621 27.6139C10.8621 27.5485 10.8621 27.483 10.9276 27.4176C10.9276 27.2867 10.993 27.2867 11.0584 27.4176Z" fill="var(--fill-0, #5D5740)"/>
<path id="Vector_51" d="M10.8621 24.0179C10.9276 24.0179 10.993 24.0179 11.0584 24.0833C11.0584 24.0833 11.1239 24.1488 11.1239 24.2142L11.0584 24.2797C11.0584 24.2797 10.993 24.2797 10.993 24.2142C10.9276 24.2142 10.9276 24.1488 10.8621 24.0179Z" fill="var(--fill-0, #5D5740)"/>
<path id="Vector_52" d="M19.4351 22.3126C19.3042 22.4435 19.1733 22.6398 19.0424 22.7706C19.0424 22.7706 19.0424 22.7706 18.977 22.7052C19.1079 22.5743 19.2387 22.378 19.4351 22.3126C19.4351 22.2471 19.4351 22.2471 19.4351 22.3126Z" fill="var(--fill-0, #5D5740)"/>
<path id="Vector_53" d="M21.7243 21.9208C21.7243 21.7899 21.7897 21.7245 21.7897 21.5936C21.7897 21.5936 21.7897 21.5936 21.8551 21.5936C21.8551 21.7245 21.7897 21.7899 21.7243 21.9208Z" fill="var(--fill-0, #5D5740)"/>
<path id="Vector_54" d="M19.5656 12.3019C20.1545 12.8908 20.7435 13.4143 21.3324 14.0032C21.2016 14.0032 21.2016 13.9378 21.1361 13.9378C20.8744 13.6761 20.6126 13.4797 20.3509 13.218C20.0891 12.9562 19.8274 12.6945 19.5656 12.4327C19.5656 12.3673 19.5656 12.3019 19.5656 12.3019Z" fill="var(--fill-0, #5D5740)"/>
<path id="Vector_55" d="M23.5575 21.3998C23.6884 21.0726 23.8193 20.7454 23.8847 20.4182C23.9502 20.091 24.0156 19.7638 24.081 19.4366V19.5021C24.081 19.6984 24.081 19.9601 24.0156 20.1564C23.9501 20.3528 23.8847 20.5491 23.8193 20.7454C23.8193 20.9417 23.6884 21.2035 23.5575 21.3998Z" fill="var(--fill-0, #5D5740)"/>
<path id="Vector_56" d="M22.837 22.1133C22.7061 22.5714 22.3789 22.8331 22.1171 23.1603C22.1171 23.1603 22.1171 23.1603 22.0517 23.1603C22.3789 22.7677 22.5752 22.4405 22.837 22.1133Z" fill="var(--fill-0, #5D5740)"/>
<path id="Vector_57" d="M23.2961 22.0532C23.2307 22.2495 23.0344 22.5113 22.838 22.7076C22.9689 22.5113 23.0998 22.315 23.2961 22.0532Z" fill="var(--fill-0, #5D5740)"/>
<path id="Vector_58" d="M24.4084 21.1397C24.4739 20.878 24.6048 20.6162 24.6702 20.3545C24.7356 20.0927 24.8011 19.831 24.8665 19.5038C24.9319 19.242 24.9319 18.9803 24.9319 18.6531C24.9319 18.3913 24.9319 18.1296 24.9319 17.8024C24.9974 17.9333 24.9974 18.1296 24.9974 18.2605C25.0628 18.9148 24.9974 19.5038 24.8011 20.1582C24.7356 20.4199 24.6702 20.6817 24.5393 20.9434C24.5393 21.0743 24.5393 21.1397 24.4084 21.1397C24.4739 21.2052 24.4084 21.2052 24.4084 21.1397Z" fill="var(--fill-0, #5D5740)"/>
<path id="Vector_59" d="M1.43897 20.9387C1.89704 21.6585 2.48598 22.2474 3.07492 22.9018C2.81317 22.771 1.50441 21.2659 1.43897 20.9387Z" fill="var(--fill-0, #5D5740)"/>
<path id="Vector_60" d="M3.79476 12.8276C3.27125 13.2856 2.61687 13.6128 2.28968 14.2672C2.22424 14.1363 2.28968 14.0709 2.28968 14.0709C2.42056 13.8746 2.55143 13.6783 2.74775 13.5474C3.07494 13.3511 3.33669 13.0893 3.66388 12.893C3.72932 12.8276 3.72932 12.8276 3.79476 12.8276Z" fill="var(--fill-0, #5D5740)"/>
</g>
</svg>
