<?xml version="1.0" encoding="UTF-8"?>
<svg id="Layer_2" data-name="Layer 2" xmlns="http://www.w3.org/2000/svg" viewBox="0 0 43.69 44.28">
  <defs>
    <style>
      .cls-1 {
        fill: #1e1e1e;
        stroke: #000;
        stroke-miterlimit: 10;
        stroke-width: .1px;
      }
    </style>
  </defs>
  <g id="Layer_1-2" data-name="Layer 1">
    <g>
      <path class="cls-1" d="M40.53,11.23c.23,0,.46,0,.69,0,.39,0,.79-.02,1.16-.11.16-.04.3-.09.43-.15.12-.08.24-.15.36-.23.04-.03.07-.06.11-.1.18-.25.37-.55.36-.82l-.04-8.73c0-.6-1.21-1.03-2.09-1.03H2.19C1.4.05.11.38.11.99l-.06,9.24.55.51c.34.12.66.26,1.03.33.4.07.81.13,1.22.18h37.62s.03-.02.06-.02ZM1,9.58V1.46c-.01-.28.72-.5,1.21-.5h39.17c.59,0,1.32.26,1.32.6v8.1c0,.26-.68.51-1.12.64H2.63c-.78.06-1.63-.25-1.63-.72Z"/>
      <path class="cls-1" d="M40.53,27.72c.23,0,.46,0,.69,0,.39,0,.79-.02,1.16-.11.16-.04.3-.09.43-.15.12-.08.24-.15.36-.23.04-.03.07-.06.11-.1.18-.25.37-.55.36-.82l-.04-8.73c0-.6-1.21-1.03-2.09-1.03H2.19c-.8,0-2.08.33-2.09.94l-.06,9.24.55.51c.34.12.66.26,1.03.33.4.07.81.13,1.22.18h37.62s.03-.02.06-.02ZM1,26.07v-8.11c-.01-.28.72-.5,1.21-.5h39.17c.59,0,1.32.26,1.32.6v8.1c0,.26-.68.51-1.12.64H2.63c-.78.06-1.63-.25-1.63-.72Z"/>
      <path class="cls-1" d="M40.53,44.21c.23,0,.46,0,.69,0,.39,0,.79-.02,1.16-.11.16-.04.3-.09.43-.15.12-.08.24-.15.36-.23.04-.03.07-.06.11-.1.18-.25.37-.55.36-.82l-.04-8.73c0-.6-1.21-1.03-2.09-1.03H2.19c-.8,0-2.08.33-2.09.94l-.06,9.24.55.51c.34.12.66.26,1.03.33.4.07.81.13,1.22.18h37.62s.03-.02.06-.02ZM1,42.56v-8.11c-.01-.28.72-.5,1.21-.5h39.17c.59,0,1.32.26,1.32.6v8.1c0,.26-.68.51-1.12.64H2.63c-.78.06-1.63-.25-1.63-.72Z"/>
    </g>
  </g>
</svg>