<svg width="191" height="190" viewBox="0 0 191 190" fill="none" xmlns="http://www.w3.org/2000/svg">
<g opacity="0.5" clip-path="url(#clip0_8600_13657)">
<path d="M62.4335 56.9315C61.5917 57.6839 61.5004 58.9553 62.2297 59.7712C62.959 60.5872 64.2326 60.6388 65.0744 59.8864C65.9162 59.1341 66.0074 57.8627 65.2781 57.0467C64.5488 56.2307 63.2753 56.1792 62.4335 56.9315Z" fill="#9D9471"/>
<path d="M86.1013 82.3138C84.1155 84.0886 83.9003 87.0877 85.6206 89.0126C87.3409 90.9375 90.3453 91.0591 92.3311 89.2843C94.3169 87.5095 94.5321 84.5104 92.8118 82.5855C91.0915 80.6607 88.0871 80.539 86.1013 82.3138Z" fill="#9D9471"/>
<path d="M37.5036 126.024C35.5178 127.799 35.3026 130.798 37.0229 132.723C38.7433 134.648 41.7477 134.77 43.7335 132.995C45.7193 131.22 45.9345 128.221 44.2141 126.296C42.4938 124.371 39.4894 124.249 37.5036 126.024Z" fill="#9D9471"/>
<path d="M74.1137 119.478C72.7107 120.732 72.5587 122.851 73.7741 124.211C74.9896 125.571 77.1123 125.657 78.5153 124.403C79.9183 123.149 80.0703 121.03 78.8549 119.67C77.6394 118.31 75.5167 118.224 74.1137 119.478Z" fill="#9D9471"/>
<path d="M107.402 13.1143C105.416 14.8891 105.201 17.8883 106.921 19.8131C108.642 21.738 111.646 21.8597 113.632 20.0849C115.618 18.3101 115.833 15.3109 114.113 13.3861C112.392 11.4612 109.388 11.3396 107.402 13.1143Z" fill="#9D9471"/>
<path d="M123.83 76.9413C122.988 77.6937 122.897 78.965 123.626 79.781C124.355 80.597 125.629 80.6486 126.471 79.8962C127.313 79.1438 127.404 77.8725 126.675 77.0565C125.945 76.2405 124.672 76.1889 123.83 76.9413Z" fill="#9D9471"/>
<path d="M145.224 102.447C143.239 104.221 143.023 107.221 144.744 109.145C146.464 111.07 149.468 111.192 151.454 109.417C153.44 107.642 153.655 104.643 151.935 102.718C150.214 100.793 147.21 100.672 145.224 102.447Z" fill="#9D9471"/>
<path d="M76.2062 23.4901L112.934 15.2651L113.072 15.8914L76.6464 23.9826L64.6198 59.0586L88.7605 86.0694L125.113 77.9752L125.217 78.5636L88.5285 86.7537L63.9138 59.2125L63.9633 59.032L76.2062 23.4901Z" fill="#9D9471"/>
<path d="M87.2641 86.5232L124.21 78.307L148.825 105.848L148.776 106.029L136.567 141.608L99.6932 149.828L75.0785 122.286L75.128 122.106L87.2641 86.5232ZM123.945 78.9535L87.7042 87.0157L75.6386 122.127L99.7793 149.137L136.02 141.075L148.085 105.964L123.945 78.9535Z" fill="#9D9471"/>
<path d="M27.2355 67.2567L64.1088 59.0376L88.5881 86.4272L88.1582 86.8115L63.9159 59.687L27.6756 67.7492L15.649 102.825L39.7898 129.836L76.142 121.742L76.2461 122.33L39.5578 130.52L14.9431 102.979L14.9926 102.799L27.2355 67.2567Z" fill="#9D9471"/>
</g>
<defs>
<clipPath id="clip0_8600_13657">
<rect width="137" height="131.972" fill="white" transform="translate(190.093 98.3999) rotate(138.211)"/>
</clipPath>
</defs>
</svg>

