<svg width="189" height="189" viewBox="0 0 189 189" fill="none" xmlns="http://www.w3.org/2000/svg">
<g opacity="0.5" clip-path="url(#clip0_8600_13636)">
<path d="M57.7496 127.983C58.5229 128.794 59.7872 128.844 60.5736 128.094C61.36 127.345 61.3706 126.08 60.5974 125.268C59.8241 124.457 58.5598 124.407 57.7734 125.156C56.987 125.906 56.9763 127.171 57.7496 127.983Z" fill="#9D9471"/>
<path d="M82.1807 103.692C84.0048 105.606 86.9874 105.724 88.8425 103.956C90.6976 102.188 90.7227 99.203 88.8985 97.2892C87.0744 95.3754 84.0919 95.2573 82.2368 97.0255C80.3817 98.7936 80.3566 101.778 82.1807 103.692Z" fill="#9D9471"/>
<path d="M119.437 114.404C120.726 115.756 122.833 115.839 124.144 114.59C125.454 113.341 125.472 111.232 124.183 109.88C122.894 108.528 120.787 108.444 119.476 109.694C118.166 110.943 118.148 113.052 119.437 114.404Z" fill="#9D9471"/>
<path d="M75.65 66.4291C76.4233 67.2404 77.6876 67.2905 78.474 66.5409C79.2604 65.7914 79.271 64.5261 78.4978 63.7148C77.7245 62.9035 76.4602 62.8535 75.6738 63.603C74.8874 64.3525 74.8767 65.6178 75.65 66.4291Z" fill="#9D9471"/>
<path d="M100.274 44.391C102.099 46.3048 105.081 46.4229 106.936 44.6547C108.791 42.8866 108.816 39.9018 106.992 37.988C105.168 36.0742 102.186 35.9561 100.331 37.7242C98.4754 39.4924 98.4503 42.4772 100.274 44.391Z" fill="#9D9471"/>
<path d="M86.3193 102.405L76.9917 66.0084L103.535 40.7096L103.715 40.753L139.406 51.7345L148.734 88.0583L122.191 113.357L122.01 113.314L86.3193 102.405ZM77.6415 66.2516L86.7939 101.952L122.015 112.807L148.046 87.9949L138.894 52.2942L103.673 41.4399L77.6415 66.2516Z" fill="#9D9471"/>
</g>
<defs>
<clipPath id="clip0_8600_13636">
<rect width="136" height="131.009" fill="white" transform="translate(94.834) rotate(46.3746)"/>
</clipPath>
</defs>
</svg>

