<svg width="187" height="186" viewBox="0 0 187 186" fill="none" xmlns="http://www.w3.org/2000/svg">
<g opacity="0.5" clip-path="url(#clip0_8600_13678)">
<path d="M122.945 52.9083C122.032 52.2583 120.781 52.4489 120.151 53.3339C119.521 54.2189 119.75 55.4633 120.663 56.1133C121.576 56.7633 122.827 56.5727 123.457 55.6877C124.087 54.8027 123.858 53.5583 122.945 52.9083Z" fill="#9D9471"/>
<path d="M103.561 81.3895C101.407 79.8562 98.4558 80.3057 96.9696 82.3934C95.4833 84.4811 96.0245 87.4166 98.1783 88.9499C100.332 90.4832 103.283 90.0338 104.769 87.9461C106.256 85.8583 105.714 82.9229 103.561 81.3895Z" fill="#9D9471"/>
<path d="M50.582 43.9257C48.4282 42.3923 45.4773 42.8418 43.991 44.9295C42.5048 47.0173 43.0459 49.9527 45.1998 51.486C47.3536 53.0194 50.3045 52.5699 51.7907 50.4822C53.277 48.3944 52.7359 45.459 50.582 43.9257Z" fill="#9D9471"/>
<path d="M64.9497 77.9344C63.428 76.851 61.3431 77.1686 60.293 78.6436C59.243 80.1186 59.6253 82.1926 61.147 83.2759C62.6687 84.3593 64.7536 84.0417 65.8037 82.5667C66.8538 81.0916 66.4714 79.0177 64.9497 77.9344Z" fill="#9D9471"/>
<path d="M175.229 86.8344C173.075 85.301 170.124 85.7505 168.638 87.8382C167.151 89.926 167.692 92.8614 169.846 94.3947C172 95.9281 174.951 95.4786 176.437 93.3909C177.924 91.3031 177.382 88.3677 175.229 86.8344Z" fill="#9D9471"/>
<path d="M117.037 116.739C116.124 116.089 114.873 116.279 114.243 117.164C113.613 118.049 113.842 119.294 114.755 119.944C115.668 120.594 116.919 120.403 117.549 119.518C118.179 118.633 117.95 117.389 117.037 116.739Z" fill="#9D9471"/>
<path d="M97.0352 143.045C94.8813 141.512 91.9305 141.961 90.4442 144.049C88.9579 146.137 89.4991 149.072 91.6529 150.606C93.8067 152.139 96.7576 151.69 98.2439 149.602C99.7302 147.514 99.189 144.579 97.0352 143.045Z" fill="#9D9471"/>
<path d="M158.338 58.9129L174.357 92.6672L173.781 92.9382L157.958 59.447L121.361 55.4963L100.505 84.7928L116.314 118.213L115.767 118.442L99.7911 84.7183L121.057 54.8466L121.243 54.8549L158.338 58.9129Z" fill="#9D9471"/>
<path d="M99.7403 83.4382L115.798 117.406L94.5323 147.278L94.3466 147.27L57.2217 143.253L41.1769 109.356L62.4428 79.4843L62.6284 79.4926L99.7403 83.4382ZM115.114 117.291L99.36 83.9724L62.7204 79.9915L41.8641 109.288L57.6181 142.606L94.2577 146.587L115.114 117.291Z" fill="#9D9471"/>
<path d="M105.222 21.1011L121.267 54.998L100.118 84.7053L99.6519 84.3734L120.596 54.9536L104.842 21.6352L68.2448 17.6845L47.3885 46.981L63.198 80.4008L62.6512 80.6307L46.675 46.9065L67.9409 17.0347L68.1266 17.0431L105.222 21.1011Z" fill="#9D9471"/>
</g>
<defs>
<clipPath id="clip0_8600_13678">
<rect width="136" height="131.009" fill="white" transform="translate(110.793 185.6) rotate(-144.553)"/>
</clipPath>
</defs>
</svg>

