<svg width="255" height="150" viewBox="0 0 255 150" fill="none" xmlns="http://www.w3.org/2000/svg">
<path d="M541.131 -640.16C541.444 -640.16 541.757 -640.473 542.227 -640.473C543.635 -640.473 544.887 -639.377 544.887 -637.812C544.887 -636.248 543.791 -635.152 542.227 -635.152C540.662 -635.152 541.444 -635.152 541.131 -635.465L520.944 -600.412L542.539 -563.012L522.196 -527.802C522.822 -527.333 523.292 -526.55 523.292 -525.612C523.292 -524.203 522.196 -522.951 520.631 -522.951C519.066 -522.951 518.128 -524.047 518.128 -525.299H477.598L457.411 -490.245C458.037 -489.776 458.506 -488.994 458.506 -488.055C458.506 -487.116 458.037 -486.333 457.411 -485.864L477.754 -450.654L456.002 -412.941H412.812L391.373 -375.697L411.56 -340.644C411.873 -340.644 412.186 -340.957 412.656 -340.957C414.064 -340.957 415.159 -339.862 415.159 -338.61H455.846L477.598 -300.897L457.254 -265.687C457.88 -265.218 458.35 -264.435 458.35 -263.496C458.35 -262.088 457.254 -260.836 455.689 -260.836C454.125 -260.836 453.186 -261.931 453.186 -263.183H412.499L390.904 -300.584H350.374C350.374 -299.332 349.122 -298.236 347.87 -298.236C346.618 -298.236 347.088 -298.236 346.775 -298.549L326.431 -263.34H285.745C285.745 -262.088 284.493 -260.992 283.241 -260.992C281.989 -260.992 282.459 -260.992 282.146 -261.305L261.959 -226.252L283.397 -189.009H323.928C323.928 -190.26 325.179 -191.356 326.431 -191.356C327.683 -191.356 329.092 -190.26 329.092 -188.696C329.092 -187.131 328.622 -186.974 327.996 -186.505L348.183 -151.452H391.373L411.717 -116.242C412.03 -116.242 412.342 -116.555 412.812 -116.555C414.22 -116.555 415.316 -115.46 415.316 -114.208H456.002L476.346 -78.9984C476.659 -78.9984 476.971 -79.3114 477.441 -79.3114C478.849 -79.3114 480.101 -78.216 480.101 -76.6511C480.101 -75.0863 479.006 -73.9908 477.441 -73.9908C475.876 -73.9908 476.659 -73.9909 476.346 -74.3038L456.002 -39.0943H415.316C415.316 -37.8424 414.064 -36.747 412.812 -36.747C411.56 -36.747 410.152 -37.8424 410.152 -39.4073C410.152 -40.9722 410.621 -41.1286 411.247 -41.5981L391.06 -76.6511H350.53C350.53 -75.3992 349.278 -74.3038 348.026 -74.3038C346.775 -74.3038 347.244 -74.3038 346.931 -74.6168L326.588 -39.4073H283.397L263.211 -4.35425C263.837 -3.88478 264.306 -3.10236 264.306 -2.16344C264.306 -1.22452 263.837 -0.442093 263.211 0.027359L283.397 35.0804H323.928C323.928 33.8285 325.179 32.7331 326.431 32.7331C327.683 32.7331 329.092 33.8285 329.092 35.3934C329.092 36.9582 328.622 37.1147 327.996 37.5842L348.339 72.7937L326.588 110.351H285.901C285.901 111.602 284.649 112.698 283.397 112.698C282.146 112.698 280.737 111.602 280.737 110.038C280.737 108.473 281.207 108.316 281.833 107.847L261.646 72.7937H221.116C221.116 74.0456 219.864 75.141 218.612 75.141C217.36 75.141 217.83 75.141 217.517 74.828L197.33 109.881L217.517 144.934C217.83 144.934 218.142 144.621 218.612 144.621C220.02 144.621 221.116 145.717 221.116 146.968V147.438C221.116 148.69 219.864 149.785 218.612 149.785C217.36 149.785 217.83 149.785 217.517 149.472H217.047C216.421 148.846 215.952 148.064 215.952 147.125C215.952 146.186 216.421 145.404 217.047 144.934L196.86 109.881H156.33C156.33 111.133 155.078 112.228 153.826 112.228C152.575 112.228 153.044 112.228 152.731 111.915L132.544 146.968H132.075C132.075 147.125 91.5447 147.125 91.5447 147.125C91.5447 148.377 90.2928 149.472 89.0409 149.472C87.789 149.472 86.3806 148.377 86.3806 146.812C86.3806 145.247 86.8501 145.091 87.4761 144.621L67.2893 109.568H24.0989L3.75567 74.3586C3.4427 74.3586 3.12971 74.6715 2.66025 74.6715C1.25187 74.6715 0 73.5761 0 72.0113C0 70.4464 1.09538 69.351 2.66025 69.351C4.22511 69.351 3.4427 69.351 3.75567 69.6639L24.0989 34.4544H67.6022L87.9455 69.6639C88.2585 69.6639 88.5715 69.351 89.0409 69.351C90.4493 69.351 91.5447 70.4464 91.5447 71.6983H132.075L152.262 36.6453C151.636 36.1758 151.166 35.3934 151.166 34.4544C151.166 33.0461 152.262 31.7942 153.826 31.7942C155.391 31.7942 156.33 32.8896 156.33 34.1415H196.86L218.299 -3.10237L196.86 -40.3462H153.67L133.327 -75.5557C133.014 -75.5557 132.701 -75.2427 132.231 -75.2427C130.823 -75.2427 129.571 -76.3382 129.571 -77.903C129.571 -79.4679 130.666 -80.5633 132.231 -80.5633C133.796 -80.5633 133.014 -80.5633 133.327 -80.2503L153.67 -115.46H194.356C194.356 -116.712 195.608 -117.807 196.86 -117.807C198.112 -117.807 199.521 -116.712 199.521 -115.147C199.521 -113.582 199.051 -113.425 198.425 -112.956L218.612 -77.903H259.142C259.142 -79.1549 260.394 -80.2503 261.646 -80.2503C262.898 -80.2503 262.428 -80.2503 262.741 -79.9373L282.928 -114.99L262.741 -150.043C262.428 -150.043 262.115 -149.73 261.646 -149.73C260.237 -149.73 259.142 -150.826 259.142 -152.078H218.455L196.704 -189.791L217.047 -225.001C216.421 -225.47 215.952 -226.252 215.952 -227.191C215.952 -228.13 216.421 -228.913 217.047 -229.382L196.86 -264.435H153.67L133.327 -299.645C133.014 -299.645 132.701 -299.332 132.231 -299.332C130.823 -299.332 129.571 -300.427 129.571 -301.992C129.571 -303.557 130.666 -304.652 132.231 -304.652C133.796 -304.652 133.014 -304.652 133.327 -304.339L153.513 -339.392L131.918 -376.793L152.262 -412.002C151.636 -412.472 151.166 -413.254 151.166 -414.193C151.166 -415.601 152.262 -416.853 153.826 -416.853C155.391 -416.853 156.33 -415.758 156.33 -414.506H197.017L218.768 -376.793L198.425 -341.583C199.051 -341.114 199.521 -340.331 199.521 -339.392C199.521 -338.453 199.051 -337.671 198.425 -337.202L218.612 -302.148H261.489L281.676 -337.202C281.05 -337.671 280.581 -338.453 280.581 -339.392C280.581 -340.331 281.05 -341.114 281.676 -341.583L261.333 -376.793L281.676 -412.002C281.05 -412.472 280.581 -413.254 280.581 -414.193C280.581 -415.601 281.676 -416.853 283.241 -416.853C284.806 -416.853 285.745 -415.758 285.745 -414.506H326.275L347.87 -451.906H388.557C388.557 -453.158 389.808 -454.254 391.06 -454.254C392.312 -454.254 391.843 -454.254 392.156 -453.941L412.343 -488.994L390.747 -526.394L411.091 -561.603C410.465 -562.073 409.995 -562.855 409.995 -563.794C409.995 -565.203 411.091 -566.455 412.656 -566.455C414.22 -566.455 415.159 -565.359 415.159 -564.107H455.689L475.876 -599.16C475.25 -599.63 474.781 -600.412 474.781 -601.351C474.781 -602.29 475.25 -603.072 475.876 -603.542L455.533 -638.751L477.285 -676.465H520.788L541.131 -641.255V-640.16ZM281.989 108.003C282.302 108.003 282.615 107.69 283.084 107.69C284.493 107.69 285.588 108.786 285.588 110.038H326.118L347.557 72.7937L327.37 37.7407C327.057 37.7407 326.744 38.0536 326.275 38.0536C324.866 38.0536 323.771 36.9582 323.771 35.7063H283.241L280.424 40.5574L261.646 72.9502L281.833 108.003H281.989ZM87.4761 145.404C87.789 145.404 88.102 145.091 88.5714 145.091C89.9798 145.091 91.0752 146.186 91.0752 147.438H131.605L150.384 114.889L151.792 112.385C151.166 111.915 150.697 111.133 150.697 110.194C150.697 109.255 151.166 108.473 151.792 108.003L142.246 91.5721L131.449 72.9502H90.9187C90.9187 74.2021 89.6669 75.2975 88.415 75.2975C87.1631 75.2975 87.6325 75.2975 87.3196 74.9845L67.1328 110.038L87.3196 145.091L87.4761 145.404ZM87.1631 70.7594L66.9763 35.7063H24.0989L3.91217 70.7594C4.53812 71.2288 5.00755 72.0113 5.00755 72.9502C5.00755 73.8891 4.53812 74.6715 3.91217 75.141L24.0989 110.194H66.9763L87.1631 75.141C86.5371 74.6715 86.0677 73.8891 86.0677 72.9502C86.0677 72.0113 86.5371 71.2288 87.1631 70.7594ZM156.017 35.7063C156.017 36.9582 154.765 38.0536 153.513 38.0536C152.262 38.0536 152.731 38.0536 152.418 37.7407L132.231 72.7937L143.029 91.4156L152.575 107.847C152.888 107.847 153.2 107.534 153.67 107.534C155.078 107.534 156.174 108.629 156.174 109.881H196.704L216.891 74.828C216.265 74.3586 215.795 73.5761 215.795 72.6372C215.795 71.6983 216.265 70.9158 216.891 70.4464L199.208 39.9315L196.547 35.3934H156.017V35.7063ZM218.299 -1.69397L196.86 35.5499L217.047 70.6029C217.36 70.6029 217.673 70.2899 218.142 70.2899C219.551 70.2899 220.646 71.3853 220.646 72.6372H261.176L282.615 35.3934L262.428 0.340363C262.115 0.340363 261.802 0.65332 261.333 0.65332C259.924 0.65332 258.829 -0.442078 258.829 -1.69397H218.299ZM411.56 -41.7546C411.873 -41.7546 412.186 -42.0676 412.656 -42.0676C414.064 -42.0676 415.159 -40.9722 415.159 -39.7202H455.689L475.876 -74.7733C475.25 -75.2427 474.781 -76.0252 474.781 -76.9641C474.781 -77.903 475.25 -78.6854 475.876 -79.1549L455.689 -114.208H415.159C415.159 -112.956 413.907 -111.861 412.656 -111.861C411.404 -111.861 411.873 -111.861 411.56 -112.174L394.972 -83.5365L391.217 -77.1206L411.404 -42.0676L411.56 -41.7546ZM218.299 -2.16344H258.829C258.829 -3.41533 260.081 -4.51074 261.333 -4.51074C262.585 -4.51074 262.115 -4.51074 262.428 -4.19777L282.615 -39.2508L271.817 -57.8727L262.272 -74.3038C261.959 -74.3038 261.646 -73.9908 261.176 -73.9908C259.768 -73.9908 258.673 -75.0863 258.673 -76.3382H218.142L196.704 -39.0943L218.142 -1.85048L218.299 -2.16344ZM197.799 -111.861C197.486 -111.861 197.173 -111.548 196.704 -111.548C195.295 -111.548 194.2 -112.643 194.2 -113.895H153.67L133.483 -78.8419C134.109 -78.3725 134.579 -77.5901 134.579 -76.6511C134.579 -75.7122 134.109 -74.9297 133.483 -74.4603L153.67 -39.4073H196.547L197.33 -40.6592L217.986 -76.4946L197.799 -111.548V-111.861ZM283.084 -113.895L262.898 -78.8419C263.524 -78.3725 263.993 -77.5901 263.993 -76.6511C263.993 -75.7122 263.524 -74.9297 262.898 -74.4603L272.443 -58.0292L283.241 -39.4073H326.118L346.305 -74.4603C345.679 -74.9297 345.21 -75.7122 345.21 -76.6511C345.21 -77.5901 345.679 -78.3725 346.305 -78.8419L327.84 -110.765L326.118 -113.895H283.241H283.084ZM346.775 -79.1549C347.088 -79.1549 347.401 -79.4679 347.87 -79.4679C349.278 -79.4679 350.374 -78.3725 350.374 -77.1206H390.904L411.091 -112.174C410.465 -112.643 409.995 -113.425 409.995 -114.364C409.995 -115.303 410.465 -116.086 411.091 -116.555L390.904 -151.608H348.026L337.229 -132.986L326.431 -114.364L346.618 -79.3114L346.775 -79.1549ZM262.898 -149.417L283.084 -114.364H325.962L336.759 -132.986L347.557 -151.608L327.37 -186.661C327.057 -186.661 326.744 -186.348 326.275 -186.348C324.866 -186.348 323.771 -187.444 323.771 -188.696H283.241L272.443 -170.074L262.898 -153.643C263.524 -153.173 263.993 -152.391 263.993 -151.452C263.993 -150.513 263.524 -149.73 262.898 -149.261V-149.417ZM220.803 -226.096C220.803 -224.844 219.551 -223.749 218.299 -223.749C217.047 -223.749 217.517 -223.749 217.204 -224.062L197.017 -189.009L218.455 -151.765H258.986C258.986 -153.017 260.237 -154.112 261.489 -154.112C262.741 -154.112 262.272 -154.112 262.585 -153.799L272.13 -170.23L282.928 -188.852L261.489 -226.096H220.959H220.803ZM194.044 -338.766C194.044 -340.018 195.295 -341.114 196.547 -341.114C197.799 -341.114 197.33 -341.114 197.643 -340.801L217.829 -375.854L196.391 -413.098H155.861C155.861 -411.846 154.609 -410.75 153.357 -410.75C152.105 -410.75 152.575 -410.75 152.262 -411.063L132.075 -376.01L153.513 -338.766H194.044ZM412.812 -263.966H453.342C453.342 -265.218 454.594 -266.313 455.846 -266.313C457.098 -266.313 456.628 -266.313 456.941 -266L477.128 -301.053L455.689 -338.297H415.159C415.159 -337.045 413.907 -335.95 412.656 -335.95C411.404 -335.95 411.873 -335.95 411.56 -336.263L402.014 -319.831L391.217 -301.21L412.656 -263.966H412.812ZM217.204 -228.756C217.517 -228.756 217.83 -229.069 218.299 -229.069C219.707 -229.069 220.803 -227.974 220.803 -226.722H261.333L281.52 -261.775C280.894 -262.244 280.424 -263.027 280.424 -263.966C280.424 -264.905 280.894 -265.687 281.52 -266.157L271.974 -282.588L261.176 -301.21H218.299L196.86 -263.966L217.047 -228.913L217.204 -228.756ZM197.799 -336.263C197.486 -336.106 197.173 -335.95 196.704 -335.95C195.295 -335.95 194.2 -337.045 194.2 -338.297H153.67L133.483 -303.244C134.109 -302.774 134.579 -301.992 134.579 -301.053C134.579 -300.114 134.109 -299.332 133.483 -298.862L153.67 -263.809H196.547L197.799 -265.844L218.142 -300.897L197.956 -335.95L197.799 -336.263ZM285.588 -338.297C285.588 -337.045 284.336 -335.95 283.084 -335.95C281.833 -335.95 282.302 -335.95 281.989 -336.263L261.802 -301.21L272.6 -282.588L282.146 -266.157C282.459 -266.157 282.772 -266.47 283.241 -266.47C284.649 -266.47 285.745 -265.374 285.745 -264.122H326.275L346.462 -299.175C345.836 -299.645 345.366 -300.427 345.366 -301.366C345.366 -302.305 345.836 -303.087 346.462 -303.557L330.343 -331.411L326.118 -338.61H285.588V-338.297ZM346.775 -303.557C347.088 -303.713 347.401 -303.87 347.87 -303.87C349.278 -303.87 350.374 -302.774 350.374 -301.523H390.904L401.701 -320.144L411.247 -336.576C410.621 -337.045 410.152 -337.827 410.152 -338.766C410.152 -339.705 410.621 -340.488 411.247 -340.957L391.06 -376.01H350.53C350.53 -374.758 349.278 -373.663 348.026 -373.663C346.775 -373.663 347.244 -373.663 346.931 -373.976L337.385 -357.545L326.588 -338.923L346.775 -303.87V-303.557ZM285.588 -413.254C285.588 -412.002 284.336 -410.907 283.084 -410.907C281.833 -410.907 282.302 -410.907 281.989 -411.22L261.802 -376.167L281.989 -341.114C282.302 -341.114 282.615 -341.427 283.084 -341.427C284.493 -341.427 285.588 -340.331 285.588 -339.079H326.118L336.916 -357.701L346.462 -374.132C345.836 -374.602 345.366 -375.384 345.366 -376.323C345.366 -377.262 345.836 -378.045 346.462 -378.514L336.916 -394.945L326.118 -413.567H285.588V-413.254ZM348.026 -450.654L326.588 -413.411L337.385 -394.789L346.931 -378.357C347.244 -378.357 347.557 -378.67 348.026 -378.67C349.435 -378.67 350.53 -377.575 350.53 -376.323H391.06L412.499 -413.567L401.701 -432.189L392.156 -448.62C391.843 -448.62 391.53 -448.307 391.06 -448.307C389.652 -448.307 388.557 -449.402 388.557 -450.654H348.026ZM412.812 -488.055L392.625 -453.002C393.251 -452.532 393.721 -451.75 393.721 -450.811C393.721 -449.872 393.251 -449.089 392.625 -448.62L402.171 -432.189L412.968 -413.567H455.846L477.285 -450.811L457.098 -485.864C456.785 -485.864 456.472 -485.551 456.002 -485.551C454.594 -485.551 453.499 -486.646 453.499 -487.898H412.968L412.812 -488.055ZM415.159 -562.855C415.159 -561.603 413.907 -560.508 412.656 -560.508C411.404 -560.508 411.873 -560.508 411.56 -560.821L391.373 -525.768L412.812 -488.524H453.342C453.342 -489.776 454.594 -490.871 455.846 -490.871C457.098 -490.871 456.628 -490.871 456.941 -490.558L477.128 -525.612L463.357 -549.554L455.689 -562.855H415.159ZM479.945 -600.256C479.945 -599.004 478.693 -597.908 477.441 -597.908C476.189 -597.908 476.659 -597.908 476.346 -598.221L456.159 -563.168L473.998 -532.184L477.598 -525.924H518.128C518.128 -527.176 519.379 -528.272 520.631 -528.272C521.883 -528.272 521.414 -528.272 521.727 -527.959L541.914 -563.012L520.475 -600.256H479.945ZM477.598 -675.056L456.159 -637.812L476.346 -602.759C476.659 -602.759 476.971 -603.072 477.441 -603.072C478.849 -603.072 479.945 -601.977 479.945 -600.725H520.475L540.662 -635.778C540.036 -636.248 539.566 -637.03 539.566 -637.969C539.566 -638.908 540.036 -639.69 540.662 -640.16L520.475 -675.213H477.598V-675.056Z" fill="#333333"/>
</svg>
