<svg width="318" height="149" viewBox="0 0 318 149" fill="none" xmlns="http://www.w3.org/2000/svg">
<path d="M669.763 -300.891H626.573L604.978 -263.49H561.787L540.349 -226.247L561.944 -188.846L540.192 -151.133H496.689L475.094 -188.533H432.216L410.621 -151.133H367.431L345.992 -113.889L367.431 -76.6454H410.621L432.216 -39.245H475.407L497.002 -1.8447H540.192L561.944 35.8686L540.192 73.5819H496.689L475.094 36.1816H432.216L410.621 73.5819H367.431L345.992 110.826L367.431 148.07V148.539H366.961C366.961 148.383 345.523 111.139 345.523 111.139H302.645L281.207 148.383H280.737C280.737 148.539 237.86 148.539 237.86 148.539L237.547 148.07H280.737L302.176 110.826L280.737 73.5819H237.547L215.795 35.8686L237.547 -1.8447H281.05L302.645 35.5556H345.523L366.961 -1.6882L345.523 -38.932H302.332L280.737 -76.3324H237.547L215.795 -114.046L237.547 -151.759H280.737L302.332 -189.159H345.523L366.961 -226.403L345.523 -263.647H302.332L280.737 -301.047H237.547L216.108 -338.291L194.669 -301.047H151.479L129.884 -263.647H86.6936L65.2549 -226.403L86.8501 -189.003L65.0984 -151.289H21.5951L0 -188.69V-189.159L19.5608 -222.96L21.4387 -226.247L0 -263.49V-263.96L21.5951 -301.36H64.7855L86.2241 -338.604L64.629 -376.004L86.3806 -413.718H129.884L151.479 -376.317H194.669L216.108 -339.074L237.547 -376.317H280.737L302.332 -413.718H345.523L366.961 -450.962L345.366 -488.362L367.118 -526.075H410.308L431.747 -563.319L410.308 -600.563H367.118L345.366 -638.276L367.118 -675.989H410.621L432.216 -638.589H475.407L497.158 -600.876L475.563 -563.476L497.158 -526.075L475.407 -488.362H432.216L410.778 -451.118L432.373 -413.718L410.621 -376.004H367.431L345.992 -338.761L367.431 -301.517H410.621L432.216 -264.116H475.094L496.689 -301.517H539.879L561.318 -338.761L539.723 -376.161L561.474 -413.874H604.978L626.573 -376.474H669.763L691.515 -338.761L669.763 -301.047V-300.891ZM0.312945 -189.003L21.7516 -151.759H64.629L86.0677 -189.003L64.629 -226.247H21.7516L0.312945 -189.003ZM21.7516 -301.047L0.312945 -263.803L19.0914 -231.254L21.7516 -226.56H64.629L86.0677 -263.803L64.629 -301.047H21.7516ZM65.0984 -301.204L82.312 -271.315L86.5371 -263.96H129.414L150.853 -301.204L140.056 -319.826L129.258 -338.448H86.3806L64.942 -301.204H65.0984ZM129.571 -413.248H86.6936L65.2549 -376.004L86.6936 -338.761H129.571L132.231 -343.455L151.01 -376.004L129.571 -413.248ZM194.356 -375.848H151.479L130.04 -338.604L140.838 -319.982L151.636 -301.36H194.513L215.952 -338.604L194.513 -375.848H194.356ZM497.002 -151.759H539.879L561.318 -189.003L539.879 -226.247H497.002L475.563 -189.003L497.002 -151.759ZM497.002 72.643H539.879L561.318 35.3992L539.879 -1.8447H497.002L486.204 16.7772L475.407 35.3992L496.845 72.643H497.002ZM475.094 35.2427L485.891 16.6207L496.689 -2.00116L475.25 -39.245H432.373L415.316 -9.66902L410.934 -2.00116L432.373 35.2427H475.25H475.094ZM280.737 -1.6882H237.86L216.421 35.5556L237.86 72.7995H280.737L284.962 65.2881L302.176 35.5556L280.737 -1.6882ZM302.489 35.7121L281.05 72.956L302.489 110.2H345.366L366.805 72.956L345.366 35.7121H302.489ZM345.836 35.5556L363.049 65.2881L367.274 72.7995H410.152L431.59 35.5556L420.793 16.9337L409.995 -1.6882H367.118L345.679 35.5556H345.836ZM367.274 -2.15765H410.152L431.59 -39.4015L410.152 -76.6454H367.274L356.477 -58.0234L345.679 -39.4015L367.118 -2.15765H367.274ZM302.489 -39.558H345.366L356.164 -58.1799L366.961 -76.8018L345.523 -114.046H302.645L298.42 -106.534L281.207 -76.8018L302.645 -39.558H302.489ZM237.703 -151.289L216.265 -114.046L237.703 -76.8018H280.581L302.019 -114.046L291.222 -132.668L280.424 -151.289H237.547H237.703ZM302.489 -188.69L281.05 -151.446L291.848 -132.824L302.645 -114.202H345.523L366.961 -151.446L356.164 -170.068L345.366 -188.69H302.489ZM345.836 -189.003L356.633 -170.381L367.431 -151.759H410.308L431.747 -189.003L410.308 -226.247H367.431L345.992 -189.003H345.836ZM237.703 -375.691L216.265 -338.448L237.703 -301.204H280.581L291.378 -319.826L302.176 -338.448L280.737 -375.691H237.86H237.703ZM410.308 -675.051H367.431L345.992 -637.807L367.431 -600.563H410.308L421.106 -619.185L431.903 -637.807L410.465 -675.051H410.308ZM496.532 -600.406L475.094 -637.65H432.216L421.419 -619.028L410.621 -600.406L432.06 -563.163H474.937L496.376 -600.406H496.532ZM475.094 -488.518L496.532 -525.762L475.094 -563.006H432.216L410.778 -525.762L421.575 -507.14L432.373 -488.518H475.25H475.094ZM431.747 -488.205L410.308 -525.449H367.431L345.992 -488.205L367.431 -450.962H410.308L431.747 -488.205ZM410.308 -376.161L431.747 -413.405L410.308 -450.649H367.431L345.992 -413.405L359.919 -389.462L367.587 -376.317H410.465L410.308 -376.161ZM366.961 -376.004L348.809 -407.458L345.523 -413.248H302.645L281.207 -376.004L300.767 -342.203L302.645 -338.917H345.523L366.961 -376.161V-376.004ZM345.523 -338.291H302.645L291.848 -319.669L281.05 -301.047L302.489 -263.803H345.366L356.164 -282.425L366.961 -301.047L345.523 -338.291ZM410.308 -300.891H367.431L345.992 -263.647L367.431 -226.403H410.308L413.125 -231.098L431.903 -263.49L410.465 -300.734L410.308 -300.891ZM432.216 -263.49L410.778 -226.247L432.216 -189.003H475.094L494.655 -222.804L496.532 -226.09L475.094 -263.334H432.216V-263.49ZM497.002 -300.891L475.563 -263.647L494.342 -231.098L497.002 -226.403H539.879L561.318 -263.647L539.879 -300.891H497.002ZM540.192 -301.204L557.406 -271.315L561.631 -263.96H604.508L625.947 -301.204L615.149 -319.826L604.352 -338.448H561.474L540.036 -301.204H540.192ZM604.665 -413.248H561.787L540.349 -376.004L561.787 -338.761H604.665L607.325 -343.455L626.103 -376.004L604.665 -413.248ZM669.45 -375.691H626.573L605.134 -338.448L615.932 -319.826L626.729 -301.204H669.607L691.045 -338.448L669.607 -375.691H669.45Z" fill="#818181"/>
</svg>

