<svg preserveAspectRatio="none" width="100%" height="100%" overflow="visible" style="display: block;" viewBox="0 0 137 131.972" fill="none" xmlns="http://www.w3.org/2000/svg">
<g id="Frame" opacity="0.5" clip-path="url(#clip0_0_13)">
<path id="Vector" d="M67.5493 115.989C68.6784 115.989 69.5936 115.102 69.5936 114.007C69.5936 112.913 68.6784 112.026 67.5493 112.026C66.4203 112.026 65.5051 112.913 65.5051 114.007C65.5051 115.102 66.4203 115.989 67.5493 115.989Z" fill="var(--fill-0, #9D9471)"/>
<path id="Vector_2" d="M66.817 81.2916C69.4803 81.2916 71.6394 79.1988 71.6394 76.6173C71.6394 74.0357 69.4803 71.9429 66.817 71.9429C64.1537 71.9429 61.9947 74.0357 61.9947 76.6173C61.9947 79.1988 64.1537 81.2916 66.817 81.2916Z" fill="var(--fill-0, #9D9471)"/>
<path id="Vector_3" d="M132.18 81.0854C134.843 81.0854 137.002 78.9926 137.002 76.411C137.002 73.8295 134.843 71.7367 132.18 71.7367C129.516 71.7367 127.357 73.8295 127.357 76.411C127.357 78.9926 129.516 81.0854 132.18 81.0854Z" fill="var(--fill-0, #9D9471)"/>
<path id="Vector_4" d="M100.521 61.5703C102.402 61.5703 103.928 60.0917 103.928 58.2677C103.928 56.4438 102.402 54.9652 100.521 54.9652C98.6391 54.9652 97.1137 56.4438 97.1137 58.2677C97.1137 60.0917 98.6391 61.5703 100.521 61.5703Z" fill="var(--fill-0, #9D9471)"/>
<path id="Vector_5" d="M4.82235 118.694C7.48565 118.694 9.6447 116.601 9.6447 114.019C9.6447 111.438 7.48565 109.345 4.82235 109.345C2.15904 109.345 0 111.438 0 114.019C0 116.601 2.15904 118.694 4.82235 118.694Z" fill="var(--fill-0, #9D9471)"/>
<path id="Vector_6" d="M35.1061 60.1556C36.2351 60.1556 37.1504 59.2685 37.1504 58.1741C37.1504 57.0797 36.2351 56.1926 35.1061 56.1926C33.9771 56.1926 33.0619 57.0797 33.0619 58.1741C33.0619 59.2685 33.9771 60.1556 35.1061 60.1556Z" fill="var(--fill-0, #9D9471)"/>
<path id="Vector_7" d="M36.1511 26.8825C38.8144 26.8825 40.9734 24.7897 40.9734 22.2081C40.9734 19.6265 38.8144 17.5337 36.1511 17.5337C33.4878 17.5337 31.3287 19.6265 31.3287 22.2081C31.3287 24.7897 33.4878 26.8825 36.1511 26.8825Z" fill="var(--fill-0, #9D9471)"/>
<g id="Group">
<path id="Vector_8" d="M34.9961 131.746L2.13075 113.404L2.44525 112.845L34.9961 131.085L67.3373 112.946V76.7199L34.8388 58.5304L35.1533 58.0224L67.9663 76.3642V113.302L67.809 113.404L34.9961 131.746Z" fill="var(--fill-0, #9D9471)"/>
</g>
<g id="Group_2">
<path id="Vector_9" d="M68.7556 77.3787L35.733 58.8844V21.9466L35.8903 21.845L68.7032 3.45226L101.673 21.8958V58.8335L101.516 58.9352L68.7556 77.3787ZM36.362 58.5795L68.7556 76.7182L101.149 58.5795V22.353L68.7556 4.21439L36.362 22.353V58.5795Z" fill="var(--fill-0, #9D9471)"/>
</g>
<g id="Group_3">
<path id="Vector_10" d="M100.674 131.746L67.7042 113.302V76.5675H68.2808V112.946L100.674 131.085L133.016 112.946V76.7199L100.517 58.5304L100.832 58.0224L133.645 76.3642V113.302L133.487 113.404L100.674 131.746Z" fill="var(--fill-0, #9D9471)"/>
</g>
</g>
<defs>
<clipPath id="clip0_0_13">
<rect width="137" height="131.972" fill="white"/>
</clipPath>
</defs>
</svg>
