<svg preserveAspectRatio="none" width="100%" height="100%" overflow="visible" style="display: block;" viewBox="0 0 136 131.009" fill="none" xmlns="http://www.w3.org/2000/svg">
<g id="Frame" opacity="0.5">
<path id="Vector" d="M67.0563 115.144C68.177 115.144 69.0856 114.264 69.0856 113.177C69.0856 112.091 68.177 111.21 67.0563 111.21C65.9355 111.21 65.0269 112.091 65.0269 113.177C65.0269 114.264 65.9355 115.144 67.0563 115.144Z" fill="var(--fill-0, #9D9471)"/>
<path id="Vector_2" d="M66.3293 80.7006C68.9732 80.7006 71.1164 78.6231 71.1164 76.0603C71.1164 73.4976 68.9732 71.4201 66.3293 71.4201C63.6854 71.4201 61.5421 73.4976 61.5421 76.0603C61.5421 78.6231 63.6854 80.7006 66.3293 80.7006Z" fill="var(--fill-0, #9D9471)"/>
<path id="Vector_3" d="M99.787 61.1232C101.655 61.1232 103.169 59.6554 103.169 57.8447C103.169 56.0341 101.655 54.5663 99.787 54.5663C97.9191 54.5663 96.4048 56.0341 96.4048 57.8447C96.4048 59.6554 97.9191 61.1232 99.787 61.1232Z" fill="var(--fill-0, #9D9471)"/>
<path id="Vector_4" d="M34.8499 59.7189C35.9706 59.7189 36.8792 58.8382 36.8792 57.7518C36.8792 56.6654 35.9706 55.7848 34.8499 55.7848C33.7291 55.7848 32.8205 56.6654 32.8205 57.7518C32.8205 58.8382 33.7291 59.7189 34.8499 59.7189Z" fill="var(--fill-0, #9D9471)"/>
<path id="Vector_5" d="M35.8872 26.6886C38.5311 26.6886 40.6743 24.6111 40.6743 22.0483C40.6743 19.4856 38.5311 17.408 35.8872 17.408C33.2433 17.408 31.1001 19.4856 31.1001 22.0483C31.1001 24.6111 33.2433 26.6886 35.8872 26.6886Z" fill="var(--fill-0, #9D9471)"/>
<g id="Group">
<path id="Vector_6" d="M68.2527 76.8168L35.4712 58.4575V21.7893L35.6273 21.6884L68.2007 3.42997L100.93 21.7389V58.407L100.774 58.5079L68.2527 76.8168ZM36.0956 58.1548L68.2527 76.1611L100.41 58.1548V22.1928L68.2527 4.18654L36.0956 22.1928V58.1548Z" fill="var(--fill-0, #9D9471)"/>
</g>
</g>
</svg>
