<?xml version="1.0" encoding="UTF-8"?>
<svg id="Layer_2" data-name="Layer 2" xmlns="http://www.w3.org/2000/svg" viewBox="0 0 48.26 46.88">
  <defs>
    <style>
      .cls-1 {
        fill: #1e1e1e;
      }
    </style>
  </defs>
  <g id="Layer_1-2" data-name="Layer 1">
    <g>
      <path class="cls-1" d="M42.14,8.07c-2.84-3.29-5.92-5.43-9.69-6.74C26.31-.79,19.64-.37,13.68,2.54,3.66,7.44-1.55,17.46.41,28.08c1.51,8.17,7.65,15.06,15.64,17.55,2.69.84,5.44,1.26,8.18,1.26s5.25-.39,7.78-1.16c8.1-2.48,14.18-9.4,15.87-18.04,1.31-6.73-.78-13.87-5.74-19.6ZM42.89,35.33c-5.1,7.9-13.39,11.29-23.36,9.54-7.43-1.31-13.74-6.44-16.49-13.4-3.76-9.55-.05-20.55,8.83-26.15,3.41-2.15,7.09-3.35,11.27-3.66.49-.04.98-.05,1.47-.05,6.62,0,13.02,3.3,17.34,9.02,5.61,7.44,5.98,16.9.94,24.7Z"/>
      <path class="cls-1" d="M21.31,28.83l-.62.67-2.15-2.25c-.19-.2-.38-.41-.58-.62-1.15-1.25-2.34-2.54-4.08-2.97l-.47-.12.23.43c.84,1.58,1.91,2.73,2.94,3.84.52.56,1.01,1.09,1.47,1.67.89,1.1,1.65,2.01,2.72,3l.18.17.14-.2c4.54-6.28,9.88-10.9,17.03-16.31l.72-.55-.89.16c-5.5.97-12.75,8.85-16.65,13.08Z"/>
    </g>
  </g>
</svg>