<?xml version="1.0" encoding="utf-8"?>
<!-- Generator: Adobe Illustrator 28.0.0, SVG Export Plug-In . SVG Version: 6.00 Build 0)  -->
<svg version="1.1" id="Layer_2_00000003814714584444569550000014381394494001154444_"
	 xmlns="http://www.w3.org/2000/svg" xmlns:xlink="http://www.w3.org/1999/xlink" x="0px" y="0px" viewBox="0 0 120.7 129"
	 style="enable-background:new 0 0 120.7 129;" xml:space="preserve">
<style type="text/css">
	.st0{clip-path:url(#SVGID_00000086649312407102206610000017915668677378242744_);}
	.st1{clip-path:url(#SVGID_00000007415251259437934650000005443582295588824961_);}
</style>
<g>
	<defs>
		<rect id="SVGID_1_" x="5.2" y="10.7" width="111.3" height="26.5"/>
	</defs>
	<clipPath id="SVGID_00000067944495821324138200000000829149400457801372_">
		<use xlink:href="#SVGID_1_"  style="overflow:visible;"/>
	</clipPath>
	<path style="clip-path:url(#SVGID_00000067944495821324138200000000829149400457801372_);" d="M111.9,20.6c-1.3-0.2-2.4-0.4-3-0.9
		c-3.1-2.9-4.8-3-6.2-3h-0.4c-1.3,0-2.3-0.1-4.2-2.7c-0.9-1.1-3.6-0.5-4.7,0.2c-1.2,0.7-1.4,1.9-1.6,3c-2,0.2-4.5-0.4-6.5-1.4
		c-2.4-1.3-5-2.1-7.6-2.5c-1.5-0.2-2.8-0.3-4-0.2c-0.3,0-0.5,0-0.8,0.1c-1.4,0.1-2.7,0.2-4,0c-0.2,0-0.4-0.1-0.6-0.1
		c-0.2,0-0.4-0.1-0.5-0.1c-1.8-0.3-4.2-0.2-5.7-0.1c-0.7,0-1.5,0.1-2.3,0.1c-1.4,0.1-2.9,0.3-4.8,0.6c-0.4,0.1-0.8,0.1-1.2,0.2
		c-1.2,0.2-2.5,0.4-3.7,0.5c-0.7,0-1.3,0-1.9,0c-0.8,0-1.5-0.1-2.1-0.3L46,13.8c-0.9-0.2-1.7-0.5-2.6-0.6c-0.5-0.5-1.1-0.9-1.8-1.2
		c-5.1-1.8-12.6-2-17.2,1.2c-0.8,0.5-3.4,0.9-4.9-0.8l0,0c-0.2-0.1-0.3-0.1-0.5-0.2c-0.2,0-0.4,0-0.6,0.2c-0.3,0.3-0.5,0.7-0.6,1.2
		c-0.1,0.4-0.2,0.9-0.3,1.4c0,0.6-0.1,1.1,0,1.6c0,0.4,0.2,0.7,0.3,0.9l0,0c0.7,0.6,1.6,0.6,2.5,0.5c0.3,0,0.5,0,0.8,0
		c0.1,0,0.1,0,0.2,0s0.2,0,0.3,0c-0.1,0.6-0.4,1.5-0.9,1.9c-0.5,0.4-1.4,0.9-1.9,1.1c-0.6,0.2-1.3,0.3-1.9,0.3h-0.1
		c-0.4,0-0.7,0.1-1.1,0.1c-1,0-2,0.1-2.9,0.3c-0.9,0.2-1.7,0.6-2.6,0.9l-0.4,0.2c-3.2,1.3-4.7,3.6-4.6,6.9c0.1,3,1,5,2.7,6.3
		c1.3,0.9,2.7,1.4,4.1,1.4c0.8,0,1.7-0.2,2.5-0.5h0l0,0c0-0.1,0-0.1,0-0.2c0,0,0-0.1-0.1-0.1l0,0h0c-0.5-0.1-1.1-0.2-1.6-0.2
		c-1.2-0.1-2.4-0.2-3.3-1.1c-2-2-2.7-6.5-1.2-8.7c1.5-2.3,7.1-1.4,7.4-1.3c0.2,0,0.9,0.1,1.7,0.3c0.9,0.1,1.8,0.3,2.1,0.3
		c0.1,0,0.2,0,0.2,0.1c0.4,0.1,0.7,0.2,0.9,0.4c0.1,0.1,0.1,0.4,0.1,0.6c0,0.1,0,0.2,0,0.3c0,0.2,0.1,0.4,0.1,0.6
		c0,0.2,0.1,0.4,0.1,0.6v0.1h-0.1H21c0,0-0.1,0-0.1,0c-0.1,0-0.2,0-0.2,0c-0.3,0-0.5,0-0.8,0c-0.9-0.1-1.8-0.1-2.5,0.5l0,0
		C17.2,29,17,29.3,17,29.7c0,0.5,0,1,0,1.6c0,0.5,0.1,1,0.3,1.4c0.1,0.4,0.3,0.8,0.6,1.2c0.2,0.2,0.4,0.3,0.6,0.2
		c0.2,0,0.4-0.1,0.5-0.2l0,0c1.3-1.4,3.1-1.2,3.7-1.1c0.1,0.1,0.6,0.5,0.6,0.5c3,2.5,7,3.2,9.8,3.3c2.6,0.1,5-0.2,7-0.9
		c0.6-0.2,1.2-0.5,1.7-0.7c0.2-0.1,0.4-0.2,0.6-0.3c0.3-0.2,0.6-0.4,1-0.5l0.4-0.2c0.9-0.3,1.8-0.6,2.7-0.8c1.2-0.3,2.4-0.2,3.5-0.1
		c0.2,0,0.4,0,0.7,0c1.3,0.1,2.7,0.2,4.2,0.3c0.3,0,0.6,0.1,0.8,0.1c0.6,0.1,1.2,0.1,1.8,0.2c1,0.1,1.9,0.2,2.9,0.3
		c0.6,0.1,1.1,0.1,1.7,0.2c0.3,0,0.6,0.1,0.9,0.1c1.2,0.2,2.4,0.3,3.7,0.3c0.5,0,1.1-0.1,1.6-0.2c0.4-0.1,0.9-0.2,1.3-0.2
		c0.7-0.1,1.4,0,2.1,0c0.9,0,1.9,0,2.8-0.1c0.1,0,0.2,0,0.3,0c0.3-0.1,0.7-0.1,1.1-0.1c3.7-0.5,6.3-1.3,8.5-2.5
		c2.1-1.2,4.8-1.8,7.3-1.7c0,0.1,0,0.1,0,0.2c0.1,0.5,0.1,1,0.2,1.2c0.6,1.1,1.9,2,3.4,2.3c1.2,0.2,2.2-0.1,2.8-0.8
		c1.2-1.3,2.1-2.1,4-2.1h0.2h0.1c1.7,0,3.1-1,4.5-1.9c0.3-0.2,0.6-0.4,0.9-0.6l0.1,0c0.4-0.3,0.9-0.6,1.5-0.7
		c0.7-0.2,1.6-0.4,2.4-0.6c2.5-0.6,4.8-1.2,4.7-2.7C116.4,21.4,114,21,111.9,20.6L111.9,20.6z M23,14.4c-0.1,0.2-0.2,0.6-0.4,0.9
		c-0.3,0.7-0.7,1.9-0.8,2c-0.1,0-0.2,0-0.4,0c-0.1,0-0.2,0-0.3,0c-0.2,0-0.4,0.1-0.7,0.1c-0.5,0-0.9,0-1.3-0.1
		c-0.2,0-0.4-0.1-0.6-0.1c-0.1,0-0.1,0-0.1-0.1c0,0-0.1-0.1-0.1-0.2c-0.1-0.3-0.2-0.7-0.2-1.3c0-0.5,0.1-0.9,0.2-1.3
		c0-0.1,0-0.2,0-0.3c0-0.3,0.1-0.6,0.3-0.8c0.1-0.1,0.2-0.2,0.3-0.2h0c0.1,0,0.3,0.1,0.4,0.2l0.1,0.1c0.1,0.1,0.2,0.2,0.4,0.3
		c0.1,0.1,0.2,0.1,0.3,0.2c0.1,0,0.2,0.1,0.2,0.1c0.2,0.1,1,0.3,1.2,0.3c0.1,0,0.3,0,0.4,0.1C22.3,14.3,22.6,14.4,23,14.4L23,14.4
		L23,14.4z M107.9,26.6c0,0,0.1-0.1,0.1-0.1v0c0-0.1,0.1-0.2,0.1-0.3c0-0.1,0.1-0.2,0.1-0.3c0-0.1,0-0.2,0-0.3l0,0h0
		c-0.1,0-0.1,0.1-0.3,0.2c-0.1,0.1-0.2,0.2-0.2,0.4l0,0.1c0,0.1-0.1,0.2-0.1,0.3c-0.1,0.3-0.3,0.5-0.4,0.8c-0.1,0.2-0.2,0.3-0.4,0.5
		c-0.1,0.1-0.3,0.2-0.4,0.4l-0.1,0.1c-0.2,0.2-0.4,0.3-0.7,0.5c-0.9,0.7-2.6,1-3.6,0.9c-0.2,0-0.3,0-0.5,0c-1.8,0-2.6,0.9-3.5,2
		c-0.1,0.1-0.2,0.3-0.4,0.4c-0.3,0.4-0.8,0.5-1.5,0.5c-1.1,0-2.2-0.5-2.8-1.2c0,0,0,0,0,0c-0.3-0.4-0.4-0.9-0.4-1.4
		c0-0.3,0.1-0.5,0.2-0.6c0.1-0.2,0.3-0.3,0.5-0.4c0.4-0.2,0.8-0.4,1.3-0.5c0.2,0,0.4-0.1,0.6-0.1c0.2,0,0.5-0.1,0.7-0.1
		c0.5-0.1,1.2,0,1.5,0.1c0,0.1-0.2,0.2-0.3,0.3c-0.1,0.1-1.1,0.8-1.3,1.6c-0.1,0.3,0,0.6,0.1,0.8l0.1,0.2l0.1-0.2
		c0.4-1.3,1.3-2.1,2.8-2.3l0.2,0l-0.1-0.1c-1.7-1.7-3.6-1.1-5.4-0.6c-0.5,0.1-1,0.3-1.4,0.4c-0.7,0.1-1.3,0.2-1.9,0.4
		C88.1,29,86,29.3,84,30.5c-3.8,2.1-7.7,2.6-11.8,2.7c0.5-0.3,0.9-0.6,1.4-1l0,0l0-0.1v-0.1c0-0.1,0-0.1-0.1-0.2c0,0,0,0,0-0.1v-0.1
		l-2.8,1.7c-0.9,0-1.6,0.2-2.3,0.3c-1,0.2-1.8,0.4-3.1,0.2c-0.6-0.1-2.8-0.4-3.4-0.5c-2.5-0.2-6.9-0.6-8.8-0.8
		c-0.5-0.1-0.8-0.1-0.9-0.1c-0.1-0.1-0.5-0.1-1.8-0.1h-0.1c-0.9,0-1.7,0-2.5,0.1c-1.3,0.1-2.8,0.4-4.5,0.9c0,0,0,0-0.1,0
		s-0.1,0-0.1,0c-1.4,0.2-2.5,0.3-3.6,0.1c-0.2,0-0.6-0.1-0.8-0.3h0c-0.1,0-0.3-0.1-0.5-0.1h-0.1h-0.1V33l0,0c0,0,0,0,0,0l0,0l0,0.2
		l0,0c0.9,0.9,2.4,1,3.8,0.8c-4.6,1.9-9.7,2-14.7,0.4c-4.3-1.4-4.8-5-5.1-6.9c-0.1-0.4-0.1-0.8-0.2-1c0.1,0,0.3,0,0.5,0
		c0.1,0,0.2,0,0.3,0h0h0c0,0,0,0,0.1,0l0.1,0v-0.1v-0.1c0-0.1-0.1-0.1-0.2-0.2l0,0c0,0-0.1,0-0.1-0.1c0,0-0.1-0.1-0.1-0.1
		c-0.2-0.1-0.4-0.3-0.6-0.4l-0.1-0.1c-0.3-0.2-0.7-0.4-1.1-0.4c-0.2,0-0.5-0.1-0.7-0.1c-0.5-0.1-1.1-0.2-1.6-0.3
		c-0.6-0.1-1.2-0.2-1.7-0.3c-0.6-0.1-1.2-0.1-1.8-0.2c-0.7,0-1.3,0-1.8,0c-0.6,0-1.2,0.1-1.8,0.2c-0.6,0.1-1.1,0.2-1.6,0.4
		c-0.5,0.2-0.9,0.4-1.3,0.7c-0.4,0.3-0.7,0.7-0.9,1.1c-0.2,0.5-0.4,1-0.5,1.5c0,0.3,0,0.7,0,1c0,0.2,0,0.4,0,0.6
		c0.1,1.2,0.1,2.5,0.7,3.6L8,33.7c0.2,0.3,0.3,0.6,0.5,0.9c0.2,0.3,0.3,0.5,0.6,0.8c0.2,0.2,0.5,0.4,0.7,0.5L10,36
		c0.2,0.1,0.4,0.2,0.6,0.3c0.2,0.1,0.4,0.1,0.6,0.2l0.2,0c0.2,0.1,0.4,0.1,0.6,0.2h-0.1c-0.3,0-0.6,0-0.9-0.1H11
		c-0.3-0.1-0.6-0.1-0.9-0.2c-0.1,0-0.2-0.1-0.3-0.1c-0.4-0.2-0.7-0.4-1-0.6c-0.2-0.2-0.4-0.4-0.6-0.5L8,35c-0.2-0.2-0.4-0.3-0.5-0.5
		c-0.3-0.4-0.6-0.9-0.8-1.4l-0.1-0.2c-0.2-0.4-0.3-1-0.4-1.5c0-0.2-0.1-0.3-0.1-0.5c-0.2-0.8-0.2-1.7,0-2.5C6.4,27.2,6.8,26,7.6,25
		c0.6-0.7,1.8-1.3,3-1.8c1.2-0.5,2.3-0.9,3.7-1.1l3.8-0.3c1.2-0.2,4.8-2,4.9-2.2l0,0v0c0-0.1-0.1-0.2-0.2-0.2c-0.1,0-0.1,0-0.2,0
		c0,0-0.1,0-0.1,0c-0.2,0-0.3,0.1-0.5,0.2l-0.1,0c0,0,0,0-0.1,0c0.2-0.3,0.3-0.6,0.4-1l0.7-2.4c0.4-1.4,1.6-2.5,3.6-3.3
		c4.2-1.7,11.2-1.6,15,0.2c-1.1-0.1-2.1,0-3.1,0.5l-0.1,0l0,0.1c0,0,0,0,0,0.1l0,0.1h0.1c2.2-0.2,3.9,0.1,5.1,0.3
		c0.2,0.1,0.9,0.2,1.6,0.4c0.3,0.1,0.7,0.1,0.9,0.2c0,0,0,0,0.1,0c0.1,0,0.1,0,0.2,0c0,0,0.1,0,0.1,0c0.1,0,0.2,0.1,0.3,0
		c0.6,0.1,1.3,0.1,1.9,0.1c0.9,0,1.8,0,2.9-0.1l0.3,0c0.3,0,0.5,0,0.8-0.1l0.1,0c0,0,0.1,0,0.1,0c3.4-0.7,6.4-1,9.1-1
		c3-0.3,5.1,0,6.8,0.2c0.8,0.1,1.4,0.2,2,0.2l2.4,1.5l0.1,0h0.1h0.1c0,0,0.1,0,0.1,0c0,0,0,0,0.1,0c0,0,0,0,0,0l0-0.1v-0.1
		c0,0,0,0,0,0l0,0c0,0,0,0,0,0l0-0.1l0,0c-0.6-0.4-1.1-0.8-1.6-1.1c5.6-0.8,9.1,0.8,12.1,2.2c1.8,0.8,3.5,1.6,5.4,1.8
		c0.3,0,0.6,0.1,0.9,0.1c1.4,0.1,2.8,0.3,4.2,0.8c1.5,0.6,3.1,0.3,4.1-0.7l0.1-0.1L98.8,18c-0.1-0.1-0.3-0.1-0.4-0.2
		c-1-0.5-2.1-1-1.9-2.4l-0.2,0c0,0-0.1,0.1-0.1,0.1c0,0-0.1,0.1-0.1,0.1C96,15.6,96,15.7,96,15.9c-0.1,0.5,0.2,1,0.4,1.3
		c0.1,0.2,0.3,0.4,0.5,0.6c0.1,0.1,0.2,0.2,0.3,0.3c0,0,0.1,0,0.1,0.1c0.1,0,0.1,0.1,0.1,0.1c0,0,0,0,0,0c0,0-0.1,0.1-0.6,0.1h-0.1
		c-0.3,0.1-0.7,0.1-1.1,0C95,18.2,94.5,18,94,17.8c-0.1,0-0.2-0.1-0.3-0.1c-0.3-0.1-0.6-0.3-0.8-0.5c-0.1-0.2-0.2-0.5-0.1-0.8
		c0.1-1.2,1.7-2,3.1-2.1h0h0c0.2,0,0.4,0,0.7,0c0.2,0,0.6,0.1,0.8,0.2c0.3,0.2,0.5,0.5,0.7,0.9l0.1,0.1c1.2,1.2,2.2,2.3,4.3,2
		c0.9-0.1,1.7,0,2.4,0.4l0.1,0c0.3,0.1,0.6,0.2,0.8,0.3c0.4,0.3,0.9,0.6,1.1,1.1c0.1,0.1,0.1,0.3,0.2,0.5c0.1,0.3,0.5,0.9,0.6,1
		c0,0,0,0,0,0c0.1,0.1,0.2,0.3,0.4,0.2c0.1-0.1,0.1-0.2,0-0.3c0,0-0.1-0.2-0.1-0.3c-0.1-0.2-0.2-0.4-0.2-0.5v0
		c0-0.1-0.1-0.2-0.1-0.3c0,0,0.1,0.1,0.1,0.1l0,0c0,0,0.1,0.1,0.2,0.2c0.4,0.4,0.8,0.8,1,0.9c0.2,0.1,0.4,0.1,0.6,0.1
		c0.1,0,0.2,0,0.4,0.1l4.3,1c0,0,0,0,0,0c0,0,0,0.2-0.1,0.3v0c-0.1,0.2-0.1,0.4-0.2,0.7c-0.1,0.4-0.1,1,0.1,1.4
		c0,0.2,0.2,0.5,0.3,0.6c-0.1,0.2-1,0.5-1.7,0.6l-1.4,0.4c-0.9,0.2-1.6,0.4-2.3,0.6c-0.3,0.1-0.6,0.3-0.8,0.5l-0.1,0.1
		c-0.2,0.2-0.3,0.2-0.4,0.3C107.7,27.1,107.9,26.6,107.9,26.6L107.9,26.6z M20,28.9c0.2,0,0.4,0,0.7,0.1c0.1,0,0.6,0,0.8,0.1
		c0,0.1,0,0.2,0.1,0.2l0,0.1c0,0.2,0.1,0.4,0.2,0.6c0,0.1,0.1,0.2,0.1,0.3c0.1,0.2,0.1,0.4,0.2,0.7l0.1,0.3c0.1,0.2,0.2,0.5,0.3,0.7
		l0,0.1c-0.4,0-1.1,0.1-1.2,0.1c-0.2,0-1,0.2-1.2,0.3c-0.1,0-0.2,0.1-0.2,0.1c-0.1,0-0.2,0.1-0.3,0.2c-0.1,0.1-0.3,0.2-0.4,0.3
		L19,33c-0.1,0.1-0.2,0.2-0.4,0.2h0c-0.1,0-0.3-0.1-0.3-0.2C18,32.8,18,32.5,18,32.2c0-0.1,0-0.2,0-0.2c-0.1-0.4-0.2-0.8-0.2-1.3
		c0-0.5,0-0.9,0.2-1.3c0-0.1,0.1-0.2,0.1-0.2c0,0,0.1-0.1,0.1-0.1c0.2-0.1,0.3-0.1,0.5-0.1c0.3-0.1,0.6-0.1,1-0.1
		C19.8,28.9,19.9,28.9,20,28.9L20,28.9z"/>
</g>
<g>
	<defs>
		<rect id="SVGID_00000168809311732548663060000012846977532028558519_" x="11.1" y="39.2" width="105.4" height="84.3"/>
	</defs>
	<clipPath id="SVGID_00000165955919275507302130000018088538063815745443_">
		<use xlink:href="#SVGID_00000168809311732548663060000012846977532028558519_"  style="overflow:visible;"/>
	</clipPath>
	<path style="clip-path:url(#SVGID_00000165955919275507302130000018088538063815745443_);" d="M29.5,90L29.5,90l-0.1,0
		c-0.7,0.7-1.8,3.9-1.8,3.9c-0.4,1.3-1.1,2.4-1.6,3.4c-0.3,0.5-0.5,0.9-0.7,1.3c-0.1,0.2-0.2,0.4-0.3,0.7c0,0,0,0,0,0.1
		c-0.1,0.2-0.2,0.4-0.1,0.5c0,0.1,0.1,0.1,0.1,0.1l0.1,0l0-0.1c0.2-0.3,0.4-0.7,0.7-1l0.3-0.4c0.1-0.1,0.2-0.3,0.3-0.4
		c0.2-0.3,0.4-0.6,0.5-0.9c0.2-0.4,0.4-0.8,0.6-1.2c0.1-0.1,0.1-0.3,0.2-0.4c0.4-1,0.8-1.9,1.2-2.7c0.1-0.2,0.1-0.3,0.2-0.5
		c0.3-0.7,0.6-1.3,0.7-2C29.6,90.4,29.7,90.2,29.5,90C29.5,90,29.5,90,29.5,90L29.5,90z"/>
	<path style="clip-path:url(#SVGID_00000165955919275507302130000018088538063815745443_);" d="M105.5,46.5c0.4,0,0.7-0.1,1-0.3
		c0.3-0.2,0.2-0.8,0-1.3c-0.2-0.5-0.5-0.8-0.7-0.7c-0.6,0.1-1.4,0.7-2.2,1.2l-0.3,0.2l0.1,0.1C103.8,46.1,104.7,46.5,105.5,46.5
		L105.5,46.5z"/>
	<path style="clip-path:url(#SVGID_00000165955919275507302130000018088538063815745443_);" d="M99.4,52.7l0.4-0.1l-0.4-0.1
		c-2.2-0.7-3.5-1.7-4.5-3.6l-0.2-0.3l0,0.4c-0.1,1.4,0.6,2.3,1.2,2.8c0.7,0.7,1.8,1,2.8,1C99,52.8,99.2,52.7,99.4,52.7L99.4,52.7z"
		/>
	<path style="clip-path:url(#SVGID_00000165955919275507302130000018088538063815745443_);" d="M116.6,50.5L116.6,50.5
		c0-0.1,0-0.1-0.1-0.2l0-0.1c0,0,0,0-0.1-0.1c-0.1-0.1-0.3-0.3-0.4-0.4c0,0-0.1-0.1-0.1-0.1c0,0-0.1,0-0.1-0.1
		c-1.1-0.7-2.2-1.2-3.1-1.7c-1.9-0.9-3.6-1.7-5-4c-1.4-2.3-3.9-3.7-6.8-3.8c-0.3,0-0.6,0-0.9,0h0h0c-0.2,0-0.4,0-0.7,0.1
		c-0.5,0-1.1,0.1-1.6,0c-0.6-0.1-1.2-0.3-1.7-0.7l0,0c-0.2,0-0.3-0.1-0.4-0.1c-1.1-0.3-1.7-0.4-2.6,0.2l-4.6,2.9
		c-0.8,0.5,0.3,2.4,1.1,3.7c0.1,0.2,0.2,0.4,0.3,0.6c0,0,0,0,0,0.1c0,0,0,0,0,0c0,0.1,0,0.1-0.1,0.2c0,0.1-0.1,0.2-0.1,0.3
		c-0.1,0.2-0.1,0.4-0.2,0.6c-0.1,0.4-0.3,0.8-0.4,1.2c-0.3,0.7-0.6,1.4-0.9,2.1c-0.3,0.7-0.7,1.3-1.1,1.9c-0.4,0.6-0.9,1.2-1.4,1.8
		c-0.5,0.6-1,1.1-1.6,1.7l-0.2,0.2c-0.3,0.3-0.5,0.6-0.9,0.8c-0.4,0.3-0.9,0.5-1.4,0.6l-0.2,0.1c-0.4,0.1-0.8,0.3-1.3,0.4
		c-0.8,0.2-1.7,0.4-2.6,0.6c-0.9,0.2-1.8,0.3-2.7,0.4c-0.9,0.1-1.8,0.1-2.8,0.2c-0.9,0-1.8,0-2.8,0c-0.9,0-1.8-0.1-2.7-0.1
		c-0.3,0-0.6,0-0.9-0.1L56.1,59c-0.7-0.1-1.5-0.1-2.2-0.1c-6.6,0-13.4,2-17,3.2c-1.2,0.4-3.1,1.5-3.8,1.9c-0.2,0.1-0.3,0.2-0.3,0.2
		c-0.1,0-0.4,0.2-1.4,0.9c-0.2,0.1-0.3,0.2-0.4,0.3c-0.6,0.4-1.1,0.8-1.6,1.2c-0.5,0.4-1,0.9-1.5,1.4c-0.5,0.5-0.9,1-1.3,1.6
		c-0.4,0.6-0.8,1.2-1.1,1.8c-0.3,0.6-0.6,1.2-0.8,1.9c-0.2,0.6-0.4,1.3-0.6,2c-0.1,0.7-0.3,1.3-0.4,2.1c-0.1,0.8-0.2,1.7-0.3,2.3
		c0,0.3-0.1,0.7-0.1,1.1c0,0.4-0.1,0.8-0.1,1.2c-0.1,0.9-0.2,1.6-0.3,2.3c-0.1,0.8-0.3,1.5-0.4,2.2c-0.2,0.6-0.3,1.2-0.5,1.8
		c-0.2,0.6-0.5,1.2-0.8,1.7c-0.3,0.6-0.7,1.1-1,1.5c-0.4,0.5-0.9,0.9-1.4,1.2c-0.5,0.3-1,0.6-1.6,0.9c-0.6,0.2-1.2,0.4-1.8,0.5
		c-0.6,0.1-1.2,0.1-1.8,0c-0.5-0.1-0.9-0.2-1.4-0.4c-0.1,0-0.1,0-0.2,0h-0.2c-0.1,0-0.1,0-0.2,0.1c0,0-0.1,0-0.1,0.1
		c0,0,0,0.1-0.1,0.1c0,0,0,0,0,0.1c0,0,0,0.1,0,0.1v0.1l0.1,0.1c0,0.1,0.1,0.2,0.2,0.4c0.2,0.4,0.5,0.7,0.9,1
		c0.3,0.3,0.7,0.5,1.2,0.7c0.4,0.2,0.9,0.3,1.4,0.3c0.5,0.1,0.9,0.1,1.4,0c0.1,0,0.2,0,0.4,0c1.5-0.2,2.9-0.6,3.9-1.3
		c1.1-0.7,2.1-1.8,2.8-3.3c0.8-1.6,1.4-3.2,2-4.9c0.1-0.4,0.3-0.8,0.4-1.1c0.3,1,0.4,2.2,0.3,3.8c-0.1,1.4-0.4,2.8-0.9,4.3
		c-1.4,4.1-4,7.3-7.1,8.7c0,0,0,0-0.1,0c0,0-0.1,0-0.1,0c-0.9,0.6-0.5,10.5-0.2,16.3v0.1h0l0.7,2.5c0.6,2.1,5,1.3,7.1,1l0.3,0l0,0
		c0.5-0.9,0-2.2-0.5-2.7c-0.6-0.6-1.6-0.9-2.6-1.1l-0.3-0.1c-0.5-0.4-0.9-4.4-0.5-8.1c0.3-2.6,0.8-4.4,1.5-4.8
		c0.4,1.2,0.6,2.4,0.8,3.6c0.1,0.6,0.2,1.1,0.3,1.7l1.3,6.2l0.7,1.9l0.1,1.8c0,0.2,0.2,0.5,0.5,0.6c1.5,0.7,5.9,0.5,6.9-0.2l0,0v0
		c0.2-0.7,0.2-1.3-0.1-1.8c-0.6-1.1-2.2-1.5-3.2-1.8c-1.7-5.8-2.1-8.5-1.4-10.7c0.7-2.3,2.7-4.2,6.1-7.2l0.9-0.8
		c3-2.7,4.6-5.5,5.3-9.2c0-0.1,1.5-7.6,1.5-7.7c0-0.1,0.2-0.5,0.3-0.9c1.2,0.2,2.3,0.1,3.8-0.1c1.7-0.2,3-0.3,4.2-0.2
		c2.8,0.2,5.7,0.7,8.6,1.6c1.3,0.4,2.2,0.7,3.1,1.1c4.7,3.6,10.2,4.9,16,3.8c0.1,2.2,0.2,4.3,0.4,6.1c0.2,2.2,0.4,4.4,0.6,6.5
		c0.5,5.3,1,10.2,0.9,15.5c0,0.1,0,0.2,0,0.3v0.1c0,0.1,0,0.2,0.1,0.2c0,0,0,0.1,0.1,0.1c0,0,0.1,0.1,0.1,0.1l0,0
		c1.1,0.8,1.2,1.8,1.4,3c0.1,0.8,0.2,1.7,0.6,2.7v0c0,0,0.1,0.1,0.1,0.1c0,0,0.1,0.1,0.1,0.1c0.1,0.1,0.1,0.2,0.2,0.2
		c0,0.1,0.1,0.1,0.1,0.2c0,0,0,0.1,0.1,0.1c0,0,0,0,0,0c0,0.1,0.1,0.1,0.2,0.2c0.1,0.1,0.1,0.1,0.2,0.2c0,0,0,0,0,0l0,0
		c0,0,0.1,0,0.1,0.1c0.1,0.1,0.2,0.2,0.4,0.2h0c0.6,0.1,1.2,0.1,1.8,0.1c2.1,0,4.2-0.4,6.4-1.2l0,0c0,0,0.1-0.1,0.1-0.1
		c0,0,0.1-0.1,0.1-0.1c0.1-0.1,0.1-0.1,0.2-0.2l0.1-0.1c0,0,0.1-0.1,0.1-0.2c0,0,0,0,0-0.1c0,0,0-0.1,0-0.1c0,0,0,0,0-0.1v0v0v0
		c-0.5-1.6-2-2.1-3.3-2.6c-0.9-0.3-1.7-0.6-2-1.2l-0.1-0.3c-0.5-1.4-1-2.6-1.2-4c-0.7-4.8-0.3-9.4,0.1-13.4l0.9-5.1
		c0.1-0.9,0.8-3.7,1.4-6.2c0.5-1.9,0.9-3.7,1-4.5c0.3-0.4,0.7-0.9,1.1-1.3c1.4-1.6,2.8-3.2,3-5.7C95,76.5,95,75.3,95,74
		c0-2,0-4.2,0.2-5.1c0.6-3.4,0.9-4.4,1.6-6.8c0.2-0.6,0.4-1.3,0.7-2.2c0.2-0.5,0.3-1.1,0.4-1.7c0.4-1.8,0.8-3.6,2.5-4.4
		c0.1-0.1,0.8-0.3,1.3-0.4c0.7-0.3,1.7-0.3,2.5-0.2h0.2c0.8,0,1.7,0.2,2.5,0.3c0.8,0.1,1.6,0.2,2.4,0.3c0.3,0,0.6,0,1,0
		c0.3,0,0.7,0,1,0c1.1,0.1,2-0.1,2.8-0.5c1-0.5,1.9-1.4,2.6-2.5l0,0v-0.1L116.6,50.5L116.6,50.5z M94.3,72.9l0,0.4
		c0.2,3.2,0.3,6-4.1,10.3c0.2-0.8,0.9-2.3,1.5-3.5c0.3-0.7,0.6-1.2,0.7-1.5c1-2.6,0.8-4.8,0.1-7.2l0-0.1l-0.1,0.1c0,0,0,0-0.1,0
		c0,0-0.1,0.1-0.1,0.1c0,0,0,0,0,0.1v0l0,0c0,1.1,0,2,0.1,2.9c0,0.2,0,0.4,0.1,0.7c0.2,1.9-0.6,3.5-1.5,5.2
		c-0.3,0.6-0.6,1.2-0.9,1.8c-0.4,0.9-1.1,2.6-1.1,2.6v0c-0.1,0.2-0.9,2.3-1,2.5c-1.2,3.4-2,8.1-2.2,10.3c-0.1,1.1-0.2,2.2-0.3,3.3
		c-0.6,6.5-1.2,13.2,1.6,19.1l0,0.1H87c0.4,0,1.9,0.2,2.6,1c0.2,0.1,0.3,0.3,0.4,0.5c0.1,0.2,0.2,0.3,0.2,0.5c0,0.1,0.1,0.4-0.1,0.5
		c-0.1,0-0.2,0-0.3,0h0h0c-0.5,0-1.1-0.5-1.4-1l0,0l-0.1,0c0,0-0.1,0-0.1,0l-0.2-0.1l0,1.3c-2.1,0.4-3.3-0.1-3.8-1.6
		c-0.6-1.7-0.6-2.6-0.6-3.2c0-0.9,0-1.2-1.5-2.5c0-4.2-0.4-8.6-0.8-12.7c-0.3-3.5-0.7-7-0.8-10.6l-0.1-5.7c0-1-0.5-1.9-1.1-2.9
		c-0.8-1.4-1.6-3-1.6-5.2v-0.2l-0.2,0.1c0,0-0.1,0-0.1,0.1c0,0,0,0,0,0l0,0v0c-0.5,2.8,0.1,3.8,0.8,4.9c0.5,0.8,0.9,1.6,1.2,3
		c-5.1,1.3-10.5,0.4-14.1-2.4c-0.4-0.3-1.5-1.1-2.4-1.7c-0.5-0.3-0.8-0.6-1.1-0.8l-0.1-0.1c-0.2-0.1-0.4-0.3-0.6-0.4
		c-0.2-0.1-1.3-0.7-1.6-0.8c-0.3-0.1-0.4-0.1-0.6-0.2c-0.1,0-0.3-0.1-0.4-0.1l-0.6-0.2l0.5,0.3c0.3,0.2,0.8,0.5,1.4,0.9
		c0.5,0.3,1,0.7,1.5,1c-1.3-0.4-2.9-0.9-4.2-1.1c-2.4-0.5-5.2-0.9-8-0.7c-0.5,0-1,0.1-1.5,0.2c-1.2,0.2-2.5,0.3-3.8,0.1
		c-0.3-0.1-0.5-0.2-0.8-0.2c-0.3-0.1-0.5-0.1-0.7-0.2c0.3-0.7,0.7-1.3,0.8-1.5c0.3-0.5,0.5-0.9,0.8-1.4c0.4-0.9,0.8-1.7,1.5-2.4
		c0,0,0.1-0.1,0.2-0.2c1.1-1.2,1.2-1.3,1.2-1.4c0,0,0-0.1-0.1-0.1c-0.1,0-0.2,0-0.4,0.1c-0.1,0-0.2,0.1-0.2,0.1
		c-0.1,0-2.2,2.1-2.8,3.2c-2.2,4.2-4.2,8.2-5.4,12.9c-0.3,1.1-2.5,6.7-4.2,8.1c-2.1,1.7-3.5,2.3-4.7,2.9c-1.5,0.7-2.7,1.3-4.6,3.2
		c-2.6,2.8-3.6,5.7-3.2,10.2c0,0.4,0,0.8,0.1,1.3c0,1.4,0.1,3,0.8,4.1l0,0h0c0.4,0.1,0.8,0.2,1.1,0.2c0.7,0.1,1.2,0.1,1.6,0.7
		c0,0,0,0,0,0c0,0,0,0,0,0c0.1,0.1,0.2,0.3,0.3,0.4c0.1,0.2,0.2,0.3,0.3,0.5c0.1,0.3,0.2,0.8-0.1,0.9c-0.1,0.1-0.3,0.1-0.5,0.1
		c-0.1,0-0.3,0-0.4-0.1c-0.1-0.1-0.2-0.2-0.3-0.4c0-0.1,0-0.1,0-0.2c0,0,0-0.1,0-0.1v0l-1.2-1.5l0.3,1.4l0,0.1
		c0.1,0.2,0.2,0.4,0.2,0.6c0,0.1,0,0.2-0.1,0.3c-0.1,0.1-0.2,0.2-0.3,0.2c-0.1,0-0.3,0-0.4,0H22h-0.1c-0.1,0-0.2,0-0.3,0
		c-0.2,0-0.3,0-0.5,0c0,0-0.1,0-0.1,0c0,0,0,0-0.1,0c-0.1,0-0.1,0-0.2,0l0,0h0c-0.5,0-0.9-0.1-1-0.3c-1.5-2.2-1.4-3.2-1.2-4.3
		c0-0.2,0-0.4,0.1-0.6c0.1-0.8,0-1.8,0-2.7c0-0.6-0.1-1.1-0.1-1.7l0-4.8c0-0.4,0-0.8-0.1-1.3c-0.1-1.1-0.3-2.4,0.3-3.3
		c7.4-3.8,9.4-12.3,8.1-19.1c-0.7-3.8-0.3-8.2,1.3-13.2l0.3-0.9l-0.5,0.8c-2,3.5-2.2,6.2-2.5,8.7c0,0.5-0.1,0.9-0.1,1.4v0l0,0
		c0,0,0,0,0,0.1c0.1,0.6,0.1,1.1,0,1.8c0,1.6-0.3,3-0.9,4.4c0,0.1-0.2,0.4-0.3,0.7c-0.4,1.1-1.2,2.9-1.6,3.5
		c-0.1,0.2-0.2,0.4-0.4,0.6c-0.4,0.7-0.9,1.4-1.5,1.8c-0.5,0.3-1.1,0.7-1.8,1c-0.2,0.1-0.3,0.1-0.6,0.2c-0.7,0.4-1.5,0.5-2.4,0.4
		c0,0-0.1,0-0.2,0c-0.4-0.1-1.5-0.2-1.8-0.4c-0.1-0.1-0.2-0.1-0.3-0.1c-0.3-0.2-0.6-0.3-0.9-0.6c-0.1-0.1-0.1-0.1-0.1-0.1
		c0,0,0,0,0.1,0c0.2,0,0.4,0,0.6,0.1l0.1,0c0.1,0,0.2,0,0.3,0.1c0.3,0.1,0.7,0.2,1.1,0.2c0.4,0,0.8,0,1.2-0.1c0.5-0.1,1-0.2,1.4-0.3
		c0.5-0.2,0.9-0.4,1.3-0.5c0.6-0.3,1.2-0.8,1.8-1.6c0.5-0.6,1-1.3,1.4-1.9c0.4-0.6,0.7-1.3,1-2.2v0c0.2-0.5,0.4-1,0.5-1.5
		c0.1-0.4,0.2-0.9,0.3-1.3c0.1-0.5,0.2-1,0.3-1.6c0.1-0.6,0.2-1.2,0.3-1.7c0.1-0.5,0.2-1.1,0.2-1.6c0.1-0.4,0.1-0.9,0.2-1.3
		c0-0.2,0-0.4,0.1-0.6c0-0.3,0.1-0.6,0.1-1c0.2-1.7,0.6-3.1,1.1-4.3c0.1-0.2,0.2-0.5,0.3-0.7c0.2-0.4,0.3-0.9,0.5-1.3
		c0.3-0.6,0.7-1.1,1.1-1.6l0.1-0.1c0.7-1,1.8-2.2,3.1-3.1c0.5-0.3,0.9-0.6,1.3-0.9l0.2-0.2c0.3-0.2,0.5-0.3,0.8-0.5
		c0.2-0.1,0.4-0.2,0.6-0.4c2.1-1.4,4.7-2.1,7-2.7c2.6-0.7,5.2-1.2,7.8-1.6c3.4-0.4,6.9-0.5,10.2-0.2l3.8,0.4l3.5,0.3
		c0.7,0.1,1.4,0.1,2.2,0.1c0.8,0,1.5,0,2.4,0c0.8,0,1.7-0.1,2.5-0.2l0.2,0c1.8-0.2,3.7-0.4,5.4-0.8c0.2-0.1,0.5-0.1,0.8-0.2
		c0.3-0.1,0.6-0.2,0.9-0.2c0.5-0.1,0.9-0.2,1.4-0.4c1.4-0.4,2.8-1.4,4.1-3.1c0.4-0.5,0.8-1,1.1-1.4c0.8-1.1,1.3-1.9,1.9-2.9l0.1-0.1
		c0.1-0.2,0.2-0.5,0.4-0.7c0.2-0.4,0.4-0.8,0.6-1.2c0.1-0.3,0.2-0.6,0.4-0.9c0.2-0.4,0.3-0.7,0.5-1l1,0.7c0,0,0,0,0.1,0.1
		c0.2,0.2,0.4,0.3,0.5,0.3c0.1,0,0.2-0.1,0.3-0.2l0,0c0.4-0.4,0.7-0.8,0.8-1.1c0.1-0.2,0.1-0.3,0.1-0.5c0-0.1,0.1-0.2,0.1-0.3
		c0.1-0.2,0.2-0.4,0.2-0.6c0-0.1,0.1-0.1,0.1-0.2c0.2-0.5,0.5-1.1,0.7-1.7c0.1-0.3,0.2-0.6,0.4-0.9c0.1-0.2,0.2-0.4,0.3-0.6l0.2-0.4
		c0.1-0.2,0.2-0.4,0.3-0.7c0,0,0,0,0-0.1c0-0.1,0.1-0.2,0-0.3c-0.1-0.1-0.3-0.2-0.5-0.2c0,0-0.1,0-0.1,0c-0.1,0-0.1,0-0.2-0.1
		c-0.2,0-0.3-0.1-0.5-0.1l-0.2,0l0.1,0.2c0,0.1,0.1,0.2,0.2,0.2c0,0,0,0.1,0.1,0.1c0.1,0.1,0.3,0.3,0.4,0.4
		c-0.1,0.2-0.2,0.3-0.2,0.5l-0.2,0.5c-0.2,0.5-0.4,0.9-0.6,1.4c-0.2,0.6-0.5,1.1-0.7,1.6c-0.1,0.2-0.1,0.4-0.2,0.6
		c-0.1,0.3-0.2,0.7-0.4,1c0,0-0.1,0.1-0.1,0.2c-0.1,0.2-0.1,0.3-0.3,0.4c-0.1,0.1-0.2,0.1-0.4-0.1c-0.1-0.1-0.2-0.2-0.3-0.2
		c-0.1,0-0.1-0.1-0.2-0.1l-0.1,0c-0.4-0.2-0.7-0.5-1-0.8c-0.2-0.2-0.5-0.5-0.7-0.9c-0.1-0.2-0.2-0.4-0.3-0.7l0,0
		c-0.2-0.5-0.5-1.1-0.5-1.6c0,0,0-0.1,0.1-0.1l5.3-3.1c0.6-0.2,1.6,0.3,2.4,0.7c0.6,0.3,1.1,0.5,1.5,0.6h0h0c5.6-1.3,7.6,1.6,9,3.4
		c0.4,0.6,0.8,1.1,1.1,1.3c1.2,0.9,2.6,1.7,4,2.5c0.6,0.4,1.3,0.8,1.9,1.1c-0.5,0.8-0.3,1.9-0.1,2.8c-1.2,0.8-3.3,0.6-4.7,0.4
		l-3.5-0.4c-1.2-0.1-5.3-0.4-6.9,1.4c-0.8,1-1.3,2.6-1.7,4.2c-0.2,0.8-0.4,1.5-0.6,2.2C94.7,65.1,94.2,71.3,94.3,72.9L94.3,72.9z
		 M88.4,118.4c0.1,0.1,0.2,0.3,0.4,0.4l0,0c0.2,0.2,0.3,0.3,0.5,0.3c0.2,0.1,0.4,0.1,0.6,0.1c0.3,0,0.6,0.1,0.9,0.2
		c0.1,0,0.1,0.1,0.2,0.1c0,0,0.1,0,0.1,0.1c0,0,0.1,0,0.1,0c0.1,0,0.1,0,0.1,0.1l0,0c0,0,0,0,0.1,0c0.2,0.2,0.5,0.3,0.7,0.4l0.1,0.1
		c0.3,0.2,0.7,0.4,0.8,0.8c0.1,0.2,0,0.4-0.1,0.5c-0.1,0.1-0.3,0.2-0.5,0.2c-0.1,0-0.1-0.1-0.2-0.1c-0.2-0.6-0.5-1.2-0.9-1.6
		c-0.1-0.1-0.3-0.1-0.4-0.2c-0.1,0-0.2-0.1-0.3-0.1h-0.1c0,0-0.1,0-0.1,0l-0.2,0.1l0.2,0.1c0.4,0.3,0.8,0.8,0.8,1.6
		c-0.2-0.2-0.4-0.4-0.6-0.6c-0.8-0.9-1.5-1.6-3-1.4c-0.1-0.5-0.3-1-0.5-1.5c-0.5-1.5-1-3-1.1-4.5c-0.2-3.7-0.2-6.8,0-9.7l0.4-5.8
		c0-0.6,0.6-4.1,0.8-4.7c0.5-2.5,1.5-6.1,1.8-6.8c0.2-0.5,0.4-0.8,0.6-1.2c0.2-0.3,0.3-0.4,0.5-0.6c0,0.2-0.1,0.5-0.2,1
		c-0.2,0.7-0.4,1.5-0.4,1.5c0,0.1-0.1,0.2-0.1,0.2c0,0-1.4,6.2-1.5,7.2c0,0.2-0.1,0.8-0.2,1.5c-0.2,1.2-0.5,3-0.5,3.8l-0.6,6.7
		c0,0.1,0,0.2,0,0.4C85.9,110.1,86.5,115.5,88.4,118.4L88.4,118.4z M29.3,115.1l0.1,0.6c0.1,0.4,0.2,0.9,0.3,1.3l0.1,0.2
		c0,0.1,0.1,0.3,0.1,0.5l0,0.1c0.1,0.2,0.1,0.2,0.3,0.3l0.1,0c0.3,0.1,0.5,0.1,0.8,0.2c0.4,0.1,0.9,0.1,1.3,0.3
		c0.5,0.2,1,0.6,1.1,1.3c0,0.3,0,0.7-0.2,0.8c-0.4,0.2-0.6-0.1-0.8-0.5l-0.1-0.1c0,0-0.1-0.1-0.1-0.1c-0.2-0.4-0.5-0.9-0.9-1l-0.2,0
		l0,0.2c0,0.2,0.1,0.4,0.2,0.6c0.2,0.4,0.4,0.9,0.2,1.2c-0.3,0.5-1.8,0.2-2.4,0.1c-0.1,0-0.2,0-0.3,0c-0.1,0-0.3,0-0.4,0
		c-0.3,0-0.8,0-1-0.2c-0.3-0.2-0.2-0.5-0.2-0.9v-0.4c-0.1-0.8-0.2-1.6-0.4-2.3c-0.1-0.3-0.1-0.5-0.2-0.8c-0.1-0.7-0.3-1.3-0.4-2
		c-0.5-2.1-1-4.3-1.4-6.5l-0.1-0.4c-0.1-0.3-0.1-0.7-0.2-1c0-0.2-0.1-0.4-0.1-0.6c-0.1-0.3-0.1-0.5-0.1-0.8c0-0.8,1-1.7,1.6-2.2
		l0.2-0.1c0.8-0.7,1.7-1.2,2.5-1.7c0.6-0.4,1.2-0.7,1.8-1c1.2-0.6,2.4-1.3,3.5-2.2c1.3-1,2.1-2.6,2.8-4.1c0.1-0.3,0.3-0.6,0.4-0.8
		c0.6-1.2,1-2.5,1.3-3.8c0.2-0.7,0.4-1.5,0.6-2.2c0.1-0.2,0.2-0.5,0.3-0.8c0.1-0.3,0.2-0.6,0.3-0.9c0.1-0.3,0.5-1.4,0.9-2.3
		c0.3-0.7,0.6-1.4,0.7-1.7c0,0,0-0.1,0.1-0.2v0c0-0.1,0.1-0.3,0.2-0.6c0.3,0.1,0.6,0.2,1,0.3c-0.2,0.9-0.5,1.8-0.5,2
		c-0.1,0.4-0.2,0.8-0.2,1.2c0,0.1-0.1,0.2-0.1,0.3c-0.1,0.6-0.3,1.2-0.4,1.7s-0.3,1.1-0.5,1.7c-0.1,0.5-0.2,1-0.3,1.4
		c-0.3,1.5-0.6,2.8-1.2,4.2c-1.3,2.6-3.3,4.4-5.4,6.3c-0.7,0.6-1.4,1.2-2,1.9c-1.5,1.5-3.3,3.5-3.7,6.1
		C28.1,110.3,28.7,112.7,29.3,115.1L29.3,115.1z"/>
</g>
</svg>
