<?xml version="1.0" encoding="utf-8"?>
<!-- Generator: Adobe Illustrator 28.0.0, SVG Export Plug-In . SVG Version: 6.00 Build 0)  -->
<svg version="1.1" id="Layer_2_00000003814714584444569550000014381394494001154444_"
	 xmlns="http://www.w3.org/2000/svg" xmlns:xlink="http://www.w3.org/1999/xlink" x="0px" y="0px" viewBox="0 0 120.7 129"
	 style="enable-background:new 0 0 120.7 129;" xml:space="preserve">
<g id="Layer_1-2_00000158015675720519862790000013036634830776719001_">
	<g>
		<path d="M116.6,50.5L116.6,50.5c0-0.1,0-0.1-0.1-0.2c0,0,0,0,0-0.1s0,0-0.1-0.1c-0.1-0.1-0.3-0.3-0.4-0.4c0,0-0.1-0.1-0.1-0.1
			c0,0-0.1-0.1-0.1-0.1c-1.1-0.7-2.2-1.2-3.1-1.7c-1.9-0.9-3.6-1.7-5-4c-1.4-2.3-3.9-3.7-6.8-3.8c-0.3,0-0.6,0-0.9,0h0c0,0,0,0,0,0
			c-0.2,0-0.4,0-0.7,0.1c-0.5,0-1.1,0.1-1.6,0c-0.6-0.1-1.2-0.3-1.7-0.7l0,0c-0.2,0-0.3-0.1-0.4-0.1c-1.1-0.3-1.7-0.4-2.6,0.2
			l-4.6,2.9C88.1,42.6,88,42.8,88,43c-0.1,1.1,1.4,3.5,2,4.2c-0.2,0.5-1.7,3.5-2.1,4.2c-0.3,0.6-0.7,1.3-1.1,1.9
			c-0.4,0.6-0.8,1.2-1.3,1.8c-0.5,0.6-1,1.1-1.6,1.7l-0.2,0.2c-0.3,0.3-0.5,0.6-0.9,0.8c-0.4,0.3-0.9,0.5-1.4,0.6l-0.2,0.1
			c-0.4,0.1-0.8,0.3-1.3,0.4c-0.8,0.2-1.7,0.4-2.6,0.6c-0.9,0.1-1.8,0.3-2.7,0.4c-0.9,0.1-1.8,0.1-2.8,0.2c-0.9,0-1.8,0-2.8,0
			c-0.9,0-1.8-0.1-2.7-0.1c-0.3,0-0.6,0-0.9-0.1L56.1,59c-0.7,0-1.5-0.1-2.2-0.1c-6.6,0-13.4,2-17,3.2c-1.2,0.4-3,1.5-3.8,1.9
			c-0.2,0.1-0.3,0.2-0.3,0.2c-0.1,0-0.4,0.2-1.4,0.9c-0.2,0.1-0.3,0.2-0.4,0.3c-0.6,0.4-1.1,0.8-1.6,1.2c-0.5,0.4-1,0.9-1.5,1.4
			c-0.5,0.5-0.9,1.1-1.3,1.6c-0.4,0.6-0.8,1.2-1.1,1.8c-0.3,0.6-0.6,1.2-0.8,1.9c-0.2,0.6-0.4,1.3-0.6,2c-0.1,0.7-0.3,1.3-0.4,2
			c-0.1,0.8-0.2,1.7-0.3,2.3c0,0.3-0.1,0.7-0.1,1.1c0,0.4-0.1,0.8-0.1,1.2c-0.1,0.9-0.2,1.6-0.3,2.3c-0.1,0.8-0.3,1.5-0.4,2.2
			c-0.2,0.6-0.3,1.2-0.5,1.8c-0.2,0.6-0.5,1.2-0.8,1.7c-0.3,0.6-0.7,1.1-1,1.5c-0.4,0.5-0.9,0.9-1.3,1.2c-0.5,0.3-1,0.6-1.6,0.9
			c-0.6,0.2-1.2,0.4-1.8,0.5c-0.6,0.1-1.2,0.1-1.8,0c-0.5-0.1-0.9-0.2-1.4-0.4c-0.1,0-0.1,0-0.2,0c-0.1,0-0.1,0-0.2,0
			c-0.1,0-0.1,0-0.2,0c0,0-0.1,0-0.1,0.1c0,0,0,0-0.1,0.1c0,0,0,0,0,0.1c0,0,0,0.1,0,0.1c0,0,0,0,0,0.1l0.1,0.1
			c0,0.1,0.1,0.2,0.2,0.3c0.2,0.4,0.5,0.7,0.9,1c0.3,0.3,0.7,0.5,1.2,0.7c0.4,0.2,0.9,0.3,1.4,0.3c0.5,0.1,0.9,0.1,1.4,0
			c0.1,0,0.2,0,0.4,0c1.5-0.2,2.9-0.6,3.9-1.3c1.1-0.7,2.1-1.8,2.8-3.3c0.8-1.6,1.4-3.3,2-4.9c0.1-0.4,0.3-0.7,0.4-1.1
			c0.3,1,0.4,2.2,0.3,3.8c-0.1,1.4-0.4,2.8-0.9,4.3c-1.4,4.1-4,7.3-7.1,8.7c0,0,0,0-0.1,0c0,0-0.1,0-0.1,0
			c-0.9,0.6-0.5,10.5-0.2,16.3c0,0,0,0.1,0,0.1h0l0.7,2.5c0.6,2.1,5,1.3,7.1,1l0.3-0.1l0,0c0.5-0.9,0-2.2-0.5-2.7
			c-0.6-0.6-1.6-0.9-2.6-1.1l-0.3-0.1c-0.5-0.4-0.9-4.4-0.5-8.1c0.3-2.6,0.8-4.4,1.5-4.8c0.4,1.2,0.6,2.4,0.8,3.6
			c0.1,0.6,0.2,1.1,0.3,1.7l1.3,6.2l0.7,1.9l0.1,1.8c0,0.2,0.2,0.4,0.5,0.6c1.5,0.7,5.9,0.5,6.9-0.2l0,0v0c0.2-0.7,0.2-1.3-0.1-1.8
			c-0.6-1.1-2.2-1.5-3.2-1.8c-1.7-5.8-2.1-8.5-1.4-10.7c0.7-2.3,2.8-4.2,6.1-7.2l0.9-0.8c3-2.7,4.6-5.5,5.3-9.2
			c0-0.1,1.5-7.6,1.5-7.7c0-0.2,0.7-1.6,1.3-3c0.9-2,2-4.4,2.2-5.2c2.1,0.2,4,0.7,5.6,1.4c2.3,1.1,4.2,2.8,6,4.4
			c1.1,1,2.3,2,3.5,2.9c2.3,1.6,4.8,3.5,7.9,4.4c3,0.9,6.2,1,9.4,0.3c0.1,2.2,0.2,4.3,0.4,6.1c0.2,2.2,0.4,4.4,0.6,6.5
			c0.5,5.2,1,10.2,0.9,15.5c0,0.1,0,0.2,0,0.3v0.1c0,0.1,0.1,0.2,0.1,0.2c0,0,0,0.1,0.1,0.1c0,0,0.1,0.1,0.1,0.1l0,0
			c1.1,0.8,1.2,1.8,1.4,3c0.1,0.8,0.2,1.7,0.6,2.7v0c0,0,0.1,0.1,0.1,0.1l0.1,0.1c0.1,0.1,0.1,0.2,0.2,0.2c0,0.1,0.1,0.1,0.1,0.2
			c0,0,0.1,0.1,0.1,0.1l0,0.1c0.1,0.1,0.1,0.1,0.2,0.2c0.1,0.1,0.1,0.1,0.2,0.2l0.1,0l0,0c0,0,0,0,0,0l0.1,0.1l0,0
			c0.1,0.1,0.3,0.2,0.4,0.2h0c0.6,0.1,1.2,0.1,1.8,0.1c2.1,0,4.2-0.4,6.4-1.2l0,0c0,0,0.1-0.1,0.1-0.1s0.1-0.1,0.1-0.1
			c0.1-0.1,0.1-0.1,0.2-0.2l0,0l0.1-0.2h0c0,0,0-0.1,0-0.1c0,0,0,0,0-0.1c0,0,0-0.1,0-0.1c0,0,0,0,0-0.1h-0.1l0.1,0v0v0
			c-0.5-1.6-2-2.1-3.3-2.6c-0.9-0.3-1.7-0.6-2-1.2l-0.1-0.2c-0.5-1.4-1-2.7-1.2-4c-0.7-4.8-0.3-9.4,0.1-13.4l0.9-5.2
			c0.1-0.9,0.8-3.7,1.4-6.2c0.5-1.9,0.9-3.7,1.1-4.5c0.3-0.4,0.7-0.9,1.1-1.3c1.4-1.6,2.8-3.2,3-5.7c0.1-0.6,0.1-1.8,0.1-3.2
			c0-2,0-4.2,0.2-5.1c0.6-3.4,0.9-4.4,1.6-6.8c0.2-0.6,0.4-1.3,0.7-2.2c0.2-0.5,0.3-1.1,0.4-1.7c0.4-1.8,0.8-3.5,2.5-4.4
			c0.1,0,0.8-0.3,1.3-0.5c0.7-0.3,1.7-0.3,2.4-0.2h0.2c0.8,0,1.7,0.1,2.5,0.3c0.8,0.1,1.6,0.2,2.4,0.3c0.3,0,0.6,0,1,0
			c0.3,0,0.7,0,1,0c1.1,0,2-0.1,2.8-0.5c1.1-0.5,1.9-1.4,2.6-2.5v0C116.5,50.6,116.6,50.6,116.6,50.5
			C116.6,50.5,116.6,50.5,116.6,50.5L116.6,50.5z M94.3,72.9l0,0.4c0.2,3.2,0.3,6-4.1,10.3c0.2-0.8,0.9-2.3,1.5-3.5
			c0.3-0.7,0.6-1.2,0.7-1.5c1-2.6,0.8-4.8,0.1-7.2l0-0.1l-0.1,0.1c0,0,0,0-0.1,0c0,0-0.1,0.1-0.1,0.1L92,71.6v0c0,1.1,0,2,0.1,2.9
			c0,0.2,0,0.4,0.1,0.7c0.2,1.9-0.7,3.5-1.5,5.2c-0.3,0.6-0.6,1.2-0.9,1.8c-0.8,1.8-1.1,2.7-1.1,2.7c-0.1,0.2-0.9,2.3-1,2.5
			c-1.2,3.4-2,8.1-2.2,10.3c-0.1,1.1-0.2,2.2-0.3,3.3c-0.6,6.5-1.2,13.2,1.6,19.1l0,0.1H87c0.4,0,1.9,0.2,2.7,1
			c0.2,0.1,0.3,0.3,0.4,0.4c0.1,0.2,0.2,0.3,0.2,0.5c0,0.1,0.1,0.4-0.1,0.5c-0.1,0-0.2,0-0.3,0h0c0,0,0,0,0,0c-0.5,0-1.1-0.5-1.4-1
			l0,0l-0.1,0c0,0-0.1,0-0.1,0l-0.2-0.1l0,1.3c-2.2,0.4-3.3-0.1-3.8-1.6c-0.6-1.7-0.6-2.6-0.7-3.2c0-0.9,0-1.2-1.5-2.5
			c0-4.2-0.4-8.6-0.8-12.7c-0.3-3.5-0.7-7-0.8-10.6l-0.2-5.7c0-1-0.5-1.9-1.1-2.9c-0.8-1.4-1.7-3-1.7-5.2v-0.2l-0.2,0.1
			c0,0-0.1,0-0.1,0.1c0,0,0,0,0,0l0,0v0c-0.5,2.8,0.1,3.8,0.8,4.9c0.5,0.8,0.9,1.6,1.2,3C74,87.6,69.2,86.8,65.6,84
			c-0.7-0.5-1.4-1-2.1-1.5c-0.6-0.4-1.2-0.8-1.8-1.2c-1.3-0.9-2.5-2-3.8-3.1c-0.3-0.2-0.6-0.5-0.9-0.8c-1.3-1.2-2.6-2.3-4.2-3
			c-0.5-0.2-1.1-0.4-1.6-0.6c-0.5-0.2-1-0.3-1.5-0.5c-0.3-0.1-1-0.2-1.6-0.3c-0.2,0-0.4,0-0.6-0.1c0.3-0.4,0.7-0.7,1-1
			c0.7-0.7,1.4-1.3,1.6-2.4l0-0.3l-0.2,0.2c-1.4,1.2-5.8,5.1-6.8,6.8c-2.2,4.2-4.2,8.2-5.4,12.9c-0.3,1.1-2.5,6.7-4.2,8.1
			c-2.1,1.7-3.5,2.3-4.7,2.9c-1.5,0.7-2.7,1.3-4.6,3.2c-2.6,2.8-3.6,5.7-3.2,10.2c0,0.4,0,0.8,0.1,1.3c0,1.4,0.1,3,0.8,4.1l0,0h0
			c0.4,0.1,0.8,0.2,1.1,0.2c0.7,0.1,1.2,0.1,1.6,0.7l0,0c0,0,0,0,0.1,0c0.1,0.1,0.2,0.3,0.3,0.4c0.1,0.2,0.2,0.3,0.3,0.5
			c0.1,0.3,0.2,0.8-0.1,0.9c-0.1,0.1-0.3,0.1-0.5,0.1c-0.1,0-0.3,0-0.4-0.1c-0.1-0.1-0.2-0.2-0.3-0.4c0-0.1,0-0.1,0-0.2v-0.1
			l-1.3-1.5l0.3,1.4l0,0.1c0.1,0.2,0.2,0.4,0.2,0.6c0,0.1,0,0.2-0.1,0.3c-0.1,0.1-0.2,0.1-0.3,0.2c-0.1,0-0.3,0-0.4,0
			c-0.1,0-0.2,0-0.3,0h-0.1c-0.1,0-0.2,0-0.3,0c-0.2,0-0.3,0-0.5,0c0,0-0.1,0-0.1,0c0,0,0,0-0.1,0c-0.1,0-0.1,0-0.1,0l0,0h0
			c-0.5,0-0.9-0.1-1-0.3c-1.5-2.2-1.4-3.2-1.2-4.3c0-0.2,0-0.4,0.1-0.6c0.1-0.8,0-1.8,0-2.7c0-0.6-0.1-1.2-0.1-1.7l0-4.8
			c0-0.4,0-0.8-0.1-1.3c-0.1-1.1-0.3-2.4,0.3-3.3c7.4-3.8,9.4-12.3,8.1-19.1C26,80.4,26.4,76.1,28,71l0.3-0.9l-0.5,0.9
			c-2,3.5-2.2,6.1-2.5,8.7c0,0.5-0.1,0.9-0.1,1.4v0l0,0c0,0,0,0,0,0.1c0.1,0.6,0.1,1.1,0,1.8c0,1.6-0.3,3-0.9,4.4
			c0,0.1-0.2,0.4-0.3,0.7c-0.4,1.1-1.2,2.9-1.6,3.5c-0.1,0.2-0.2,0.4-0.4,0.6c-0.4,0.7-0.9,1.4-1.5,1.8c-0.5,0.3-1.1,0.7-1.8,1
			c-0.2,0.1-0.3,0.1-0.6,0.2c-0.7,0.4-1.5,0.5-2.4,0.4c0,0-0.1,0-0.2,0c-0.4-0.1-1.5-0.2-1.8-0.4c-0.1-0.1-0.2-0.1-0.3-0.1
			c-0.3-0.2-0.6-0.3-0.9-0.5c-0.1-0.1-0.1-0.1-0.1-0.1c0,0,0,0,0.1,0c0,0,0,0,0,0c0.2,0,0.4,0,0.5,0.1l0.1,0c0.1,0,0.2,0,0.3,0.1
			c0.3,0.1,0.7,0.2,1.1,0.2c0.4,0,0.8,0,1.2-0.1c0.5-0.1,1-0.2,1.4-0.3c0.4-0.1,0.8-0.3,1.3-0.5c0.6-0.3,1.2-0.8,1.8-1.5
			c0.5-0.6,1-1.3,1.4-1.9c0.4-0.6,0.7-1.3,1-2.2c0.2-0.5,0.4-1,0.5-1.5c0.1-0.4,0.2-0.9,0.3-1.3c0.1-0.5,0.2-1,0.3-1.6
			c0.1-0.6,0.2-1.2,0.3-1.7c0.1-0.5,0.2-1.1,0.2-1.6c0.1-0.4,0.1-0.9,0.2-1.3c0-0.2,0-0.4,0.1-0.6c0-0.3,0.1-0.6,0.1-1
			c0.2-1.7,0.6-3.1,1.1-4.3c0.1-0.2,0.2-0.5,0.3-0.7c0.1-0.4,0.3-0.9,0.5-1.3c0.3-0.6,0.7-1.1,1.1-1.7l0.1-0.1
			c0.7-1,1.8-2.2,3.1-3.1c0.5-0.3,0.9-0.6,1.3-0.9l0.2-0.2c0.3-0.2,0.5-0.3,0.8-0.5c0.2-0.1,0.4-0.2,0.6-0.4c2.1-1.4,4.7-2.1,7-2.7
			c2.6-0.7,5.2-1.2,7.8-1.6c3.4-0.4,6.9-0.5,10.2-0.2l3.8,0.4l3.5,0.3c0.7,0.1,1.4,0.1,2.2,0.1c0.8,0,1.6,0,2.4,0s1.7-0.1,2.5-0.2
			l0.2,0c1.8-0.2,3.7-0.4,5.4-0.8c0.2,0,0.5-0.1,0.8-0.2c0.3-0.1,0.6-0.2,0.9-0.2c0.5-0.1,1-0.2,1.4-0.4c1.4-0.4,2.8-1.4,4.1-3.1
			c0.4-0.5,0.8-1,1.1-1.4c0.8-1,1.3-1.9,1.9-2.9l0.2-0.3c0.1-0.2,0.2-0.3,0.3-0.5c0.2-0.4,0.4-0.8,0.6-1.2c0.1-0.3,0.2-0.6,0.4-0.9
			c0.2-0.3,0.3-0.7,0.5-1l1,0.7c0,0,0,0,0.1,0.1c0.2,0.2,0.4,0.3,0.5,0.3c0.1,0,0.2-0.1,0.3-0.2l0,0c0.3-0.2,0.7-0.6,0.8-1.1
			c0.1-0.2,0.1-0.3,0.2-0.5c0-0.1,0.1-0.2,0.1-0.3c0.1-0.2,0.2-0.4,0.2-0.6c0-0.1,0.1-0.1,0.1-0.2c0.2-0.5,0.5-1.1,0.7-1.7
			c0.1-0.3,0.2-0.6,0.4-0.9c0.1-0.2,0.2-0.4,0.3-0.6l0.4-1c0,0,0,0,0,0c0-0.1,0.1-0.2,0-0.3c-0.1-0.1-0.3-0.2-0.5-0.2
			c0,0-0.1,0-0.1,0c-0.1,0-0.1,0-0.2,0c-0.2,0-0.3-0.1-0.5-0.1l-0.2,0l0.1,0.2c0,0.1,0.1,0.2,0.2,0.2c0,0,0.1,0,0.1,0.1
			c0.1,0.1,0.2,0.3,0.3,0.4c-0.1,0.2-0.2,0.3-0.2,0.5c0,0.1-0.1,0.2-0.1,0.3L93.7,44c-0.2,0.6-0.5,1.1-0.7,1.6
			c-0.1,0.2-0.1,0.4-0.2,0.6c-0.1,0.3-0.2,0.7-0.4,1c0,0-0.1,0.1-0.1,0.2c-0.1,0.2-0.1,0.3-0.3,0.4c-0.1,0.1-0.2,0.1-0.4-0.1
			c-0.1-0.1-0.2-0.2-0.3-0.2c-0.1,0-0.1-0.1-0.2-0.1l0,0c-0.4-0.3-0.7-0.5-1-0.8c-0.2-0.2-0.5-0.5-0.7-0.9c-0.1-0.2-0.2-0.4-0.3-0.7
			l0,0c-0.2-0.5-0.5-1.1-0.5-1.6c0,0,0-0.1,0.1-0.1L94,40c0.6-0.2,1.6,0.3,2.4,0.7c0.6,0.3,1.1,0.5,1.4,0.6h0h0
			c5.6-1.3,7.6,1.6,9,3.5c0.4,0.6,0.8,1.1,1.1,1.3c1.2,0.9,2.6,1.7,4,2.5c0.6,0.4,1.3,0.8,1.9,1.2c-0.5,0.8-0.3,1.9-0.1,2.8
			c-1.2,0.8-3.3,0.6-4.7,0.4l-3.5-0.4c-1.2-0.1-5.3-0.4-6.9,1.4c-0.8,1-1.3,2.6-1.7,4.2c-0.2,0.8-0.4,1.5-0.6,2.2
			C94.7,65.1,94.1,71.3,94.3,72.9L94.3,72.9z M88.4,118.4c0.1,0.2,0.2,0.3,0.4,0.4l0,0c0.2,0.2,0.3,0.3,0.5,0.3
			c0.2,0.1,0.4,0.1,0.6,0.1c0.3,0.1,0.6,0.1,0.9,0.2c0.1,0,0.1,0.1,0.2,0.1c0,0,0.1,0,0.1,0.1c0,0,0.1,0,0.1,0c0.1,0,0.1,0,0.1,0.1
			c0,0,0,0,0,0c0,0,0,0,0.1,0.1c0.2,0.1,0.4,0.3,0.7,0.4l0.1,0.1c0.3,0.2,0.7,0.4,0.8,0.8c0.1,0.2,0,0.4-0.1,0.5
			c-0.1,0.1-0.3,0.2-0.5,0.2c-0.1,0-0.1-0.1-0.2-0.1c-0.2-0.6-0.5-1.2-0.9-1.6c-0.1-0.1-0.3-0.1-0.4-0.2c-0.1,0-0.2-0.1-0.3-0.1
			c0,0-0.1,0-0.1,0c0,0-0.1,0-0.1,0l-0.2,0.1l0.2,0.1c0.4,0.3,0.8,0.8,0.8,1.6c-0.2-0.2-0.4-0.4-0.6-0.6c-0.8-0.9-1.5-1.6-3-1.4
			c-0.2-0.5-0.3-1-0.5-1.5c-0.5-1.5-1-3-1.1-4.5c-0.2-3.7-0.2-6.8,0-9.7l0.4-5.8c0-0.5,0.6-4.1,0.8-4.7c0.5-2.5,1.5-6.1,1.8-6.8
			c0.2-0.5,0.4-0.8,0.6-1.2c0.2-0.3,0.3-0.4,0.5-0.6c-0.1,0.2-0.1,0.5-0.3,1c-0.2,0.6-0.4,1.4-0.4,1.5c0,0.1-0.1,0.2-0.1,0.2
			C89,88,87.6,94,87.6,94.9c0,0.2-0.1,0.8-0.2,1.5c-0.2,1.2-0.5,2.9-0.5,3.7l-0.6,6.7l0,0.4C85.9,110.1,86.5,115.5,88.4,118.4
			L88.4,118.4z M29.3,115.1l0.1,0.6c0.1,0.4,0.2,0.9,0.3,1.3c0,0.1,0,0.1,0,0.2c0,0.2,0.1,0.3,0.1,0.5l0,0.1
			c0.1,0.2,0.1,0.2,0.3,0.3l0.1,0c0.3,0.1,0.5,0.1,0.8,0.2c0.5,0.1,0.9,0.1,1.3,0.3c0.5,0.2,1,0.6,1.1,1.3c0,0.3,0,0.7-0.2,0.8
			c-0.4,0.2-0.6-0.1-0.8-0.5l0-0.1c0,0,0-0.1-0.1-0.1c-0.2-0.4-0.5-0.9-0.9-1l-0.1,0l0,0.2c0,0.2,0.1,0.4,0.2,0.6
			c0.2,0.4,0.4,0.9,0.2,1.2c-0.3,0.5-1.8,0.2-2.4,0.1c-0.1,0-0.2,0-0.3,0c-0.1,0-0.3,0-0.4,0c-0.4,0-0.8,0-1-0.2
			c-0.3-0.2-0.2-0.5-0.2-0.9c0-0.1,0-0.3,0-0.4c-0.1-0.8-0.2-1.6-0.4-2.3c-0.1-0.2-0.1-0.5-0.2-0.8c-0.1-0.7-0.3-1.3-0.5-2
			c-0.5-2.1-1-4.3-1.3-6.5l-0.1-0.5c-0.1-0.3-0.1-0.6-0.1-0.9c0-0.2-0.1-0.4-0.1-0.6c-0.1-0.3-0.1-0.5-0.1-0.8c0-0.8,1-1.7,1.6-2.2
			l0.2-0.2c0.8-0.7,1.7-1.2,2.5-1.7c0.6-0.4,1.2-0.7,1.8-1c1.2-0.6,2.4-1.3,3.5-2.2c1.3-1,2.1-2.6,2.8-4.1c0.1-0.3,0.3-0.6,0.4-0.8
			c0.6-1.2,0.9-2.5,1.3-3.8c0.2-0.7,0.4-1.5,0.6-2.2c0.1-0.2,0.2-0.5,0.3-0.7c0.1-0.3,0.2-0.6,0.3-0.9c0.1-0.3,0.5-1.3,0.9-2.3
			c0.3-0.7,0.6-1.4,0.7-1.7c0-0.1,0-0.1,0.1-0.2v0c0.2-0.5,1.1-2.5,1.3-2.8c0.2-0.3,0.3-0.6,0.5-0.9c0.1-0.2,0.2-0.4,0.4-0.6
			l0.1-0.2c0.5-0.7,0.9-1.3,1.2-1.6c-0.7,1.9-2.7,7.4-2.8,7.7c-0.1,0.4-0.2,0.8-0.2,1.2L42,84.5c-0.1,0.6-0.3,1.2-0.5,1.7
			c-0.2,0.6-0.3,1.1-0.5,1.7c-0.1,0.5-0.2,1-0.3,1.4c-0.3,1.5-0.6,2.8-1.2,4.2c-1.3,2.6-3.3,4.4-5.4,6.3c-0.7,0.6-1.4,1.2-2,1.9
			c-1.5,1.5-3.3,3.5-3.7,6.1C28.1,110.3,28.7,112.7,29.3,115.1L29.3,115.1z"/>
		<path d="M29.5,90L29.5,90l-0.1,0c-0.7,0.7-1.8,3.9-1.8,3.9c-0.4,1.3-1.1,2.4-1.6,3.4c-0.3,0.5-0.5,0.9-0.7,1.3
			c-0.1,0.2-0.2,0.4-0.3,0.7c0,0,0,0,0,0.1c-0.1,0.2-0.2,0.4-0.1,0.5c0,0.1,0.1,0.1,0.1,0.1l0.1,0l0-0.1c0.2-0.3,0.4-0.7,0.6-1
			l0.3-0.5c0.1-0.1,0.2-0.3,0.3-0.4c0.2-0.3,0.4-0.6,0.5-0.9c0.2-0.4,0.4-0.8,0.6-1.2c0.1-0.1,0.1-0.3,0.2-0.4
			c0.4-1,0.8-1.9,1.2-2.7c0.1-0.2,0.1-0.3,0.2-0.5c0.3-0.7,0.6-1.3,0.7-2C29.6,90.4,29.7,90.2,29.5,90C29.5,90,29.5,90,29.5,90
			L29.5,90z"/>
		<path d="M105.5,46.5c0.4,0,0.7-0.1,1-0.3c0.3-0.2,0.2-0.8,0-1.3c-0.2-0.5-0.5-0.8-0.7-0.7c-0.6,0.1-1.4,0.7-2.2,1.2l-0.3,0.2
			l0.1,0.1C103.8,46.1,104.7,46.5,105.5,46.5L105.5,46.5z"/>
		<path d="M99.4,52.7l0.4-0.1l-0.4-0.1c-2.2-0.7-3.5-1.7-4.5-3.6l-0.2-0.3l0,0.4c-0.1,1.4,0.6,2.3,1.2,2.8c0.7,0.6,1.8,1,2.8,1
			C99,52.8,99.2,52.7,99.4,52.7L99.4,52.7z"/>
		<path d="M66.3,81.4c-0.2-0.4-0.4-0.8-0.7-1l0-0.1l0,0l0,0c0,0,0,0,0,0l-0.2-0.2c-0.1-0.1-0.2-0.2-0.3-0.3
			c-0.2-0.2-0.4-0.5-0.6-0.7c-0.4-0.6-0.8-1-1-1.4c-0.5-0.8-0.9-1.7-1.2-2.4c-0.2-0.5-0.4-0.9-0.6-1.3L61.3,73
			c-0.2-0.2-0.4-0.5-0.6-0.7c-0.1-0.1-0.2-0.1-0.3-0.1L60.2,72v0.2c0,1,0.5,1.9,1,2.7c0.3,0.5,0.6,1.1,0.9,1.7c0.5,1,1,2.1,1.8,3
			c0.4,0.5,0.9,1.1,1.5,1.6c0.2,0.2,0.5,0.5,0.8,0.6c0,0,0,0,0.1,0l0.2,0.1l-0.1-0.2C66.4,81.6,66.4,81.5,66.3,81.4L66.3,81.4z"/>
	</g>
</g>
<g id="Layer_1-2_00000012461578514946285240000014890754086396913039_">
	<path d="M111.6,19.5c-1.3-0.2-2.5-0.4-3-0.9c-3.1-2.9-4.9-3-6.3-3c-0.1,0-0.3,0-0.4,0c-1.3,0-2.4-0.1-4.2-2.8
		c-0.9-1.1-3.6-0.5-4.7,0.2c-1.2,0.8-1.5,1.9-1.6,3c-2,0.2-4.5-0.4-6.6-1.4c-2.4-1.3-5-2.1-7.7-2.5c-1.5-0.2-2.8-0.3-4-0.2
		c-0.3,0-0.5,0-0.8,0.1c-1.4,0.1-2.7,0.2-4,0c-0.2,0-0.4-0.1-0.6-0.1c-0.2,0-0.3-0.1-0.5-0.1c-2.6-0.4-5.9,0-8.1,0.4
		c-2.7,0.4-5.3,1.2-7.8,1.9c-1.1,0.3-4.8,1.1-7.1-0.5c-0.4-0.3-0.7-0.6-1-0.9c-0.7-0.6-1.4-1.3-2.3-1.6c-5.1-1.8-12.7-2-17.3,1.2
		c-0.8,0.5-3.4,0.9-4.9-0.8l0,0c-0.1-0.1-0.3-0.1-0.5-0.2c-0.2,0-0.4,0-0.6,0.2c-0.3,0.3-0.5,0.7-0.6,1.2c-0.1,0.4-0.2,0.9-0.3,1.4
		c0,0.6,0,1.1,0,1.6c0,0.4,0.2,0.7,0.3,0.9l0,0c0.7,0.6,1.6,0.6,2.5,0.5c0.3,0,0.5,0,0.8,0c0.1,0,0.1,0,0.2,0c0.1,0,0.2,0,0.3,0
		c-0.1,0.6-0.4,1.5-0.9,1.9c-0.5,0.4-1.4,0.9-1.9,1.1c-0.6,0.2-1.3,0.3-1.9,0.3H16c-0.4,0-0.7,0.1-1.1,0.1c-1,0-2,0.1-2.9,0.3
		c-0.9,0.2-1.7,0.6-2.6,0.9L9,21.6c-3.2,1.3-4.7,3.5-4.6,6.9c0.1,3,1,5.1,2.7,6.3c1.3,0.9,2.7,1.4,4.1,1.4c0.9,0,1.7-0.2,2.5-0.5h0
		l0,0c0-0.1,0-0.1,0-0.2c0,0,0-0.1-0.1-0.1l0,0h0c-0.5-0.1-1.1-0.2-1.6-0.2c-1.2-0.1-2.4-0.2-3.3-1.1c-2-2-2.7-6.5-1.2-8.7
		c1.5-2.3,7.2-1.4,7.4-1.3c0.2,0,0.9,0.1,1.7,0.3c0.9,0.1,1.9,0.3,2.1,0.3c0.1,0,0.2,0,0.2,0.1c0.4,0.1,0.7,0.2,0.9,0.4
		c0.1,0.1,0.1,0.4,0.1,0.6c0,0.1,0,0.2,0,0.3c0,0.2,0.1,0.4,0.1,0.6c0,0.2,0.1,0.4,0.1,0.6v0.1c0,0,0,0-0.1,0c-0.1,0-0.1,0-0.2,0
		c0,0-0.1,0-0.1,0c-0.1,0-0.2,0-0.2,0c-0.3,0-0.5,0-0.8,0c-0.9-0.1-1.8-0.1-2.5,0.5l0,0c-0.1,0.2-0.3,0.5-0.3,0.9c0,0.5,0,1,0,1.6
		c0,0.5,0.1,1,0.3,1.4c0.1,0.4,0.3,0.9,0.6,1.2c0.2,0.2,0.4,0.3,0.6,0.2c0.2,0,0.4-0.1,0.5-0.2l0,0c1.3-1.4,3.1-1.2,3.7-1.1
		c0.1,0.1,0.6,0.5,0.6,0.5c5.2,4.3,15.9,4.4,20.8,0.3c0.2-0.1,0.4-0.3,0.5-0.5c0.8-0.7,1.6-1.4,2.9-1.6c0.3,0,0.5,0,0.7,0
		c0,0,0,0,0,0c3.2,0.1,5.2,0.6,6.7,1h0h0c0.1,0,0.1,0,0.2,0.1l0,0l0.2,0.1c0.4,0.1,0.8,0.2,1.2,0.3c0.4,0.1,0.7,0.1,1.1,0.2
		c0.3,0.1,0.5,0.1,0.8,0.2c0.6,0.2,1.2,0.3,1.8,0.5c2.1,0.5,4.2,0.8,6.6,0.7c0.5,0,1.1-0.1,1.6-0.2c0.4-0.1,0.9-0.2,1.3-0.2
		c0.7-0.1,1.4,0,2.1,0c0.9,0,1.9,0,2.8-0.1c0.1,0,0.2,0,0.3,0c0.3-0.1,0.7-0.1,1.1-0.1c3.7-0.5,6.3-1.3,8.6-2.5
		c1.9-1.1,4.3-1.7,6.6-1.7c0.2,0,0.5,0,0.7,0c0,0.1,0,0.1,0,0.2c0.1,0.5,0.1,1,0.2,1.3c0.6,1.1,1.9,2,3.4,2.3
		c1.2,0.2,2.2-0.1,2.9-0.8c1.2-1.3,2.1-2.1,4-2.1c0.1,0,0.2,0,0.2,0c0,0,0.1,0,0.1,0c1.7,0,3.1-1,4.5-1.9c0.3-0.2,0.6-0.4,0.9-0.6
		l0.1,0c0.5-0.3,0.9-0.6,1.5-0.8c0.7-0.2,1.6-0.4,2.4-0.6c2.5-0.6,4.8-1.2,4.7-2.8C116.1,20.3,113.7,19.9,111.6,19.5L111.6,19.5z
		 M22.2,13.2c-0.1,0.2-0.2,0.6-0.4,0.9c-0.3,0.8-0.8,1.9-0.9,2c-0.1,0-0.2,0-0.4,0c-0.1,0-0.2,0-0.3,0c-0.2,0-0.4,0.1-0.7,0.1
		c-0.5,0-0.9,0-1.3-0.1c-0.2,0-0.4-0.1-0.5-0.1c-0.1,0-0.1,0-0.1-0.1c0,0-0.1-0.1-0.1-0.2c-0.1-0.3-0.2-0.7-0.2-1.3
		c0-0.5,0.1-0.9,0.2-1.3c0-0.1,0-0.2,0-0.3c0-0.3,0.1-0.6,0.3-0.8c0.1-0.1,0.2-0.2,0.3-0.2h0c0.1,0,0.3,0.1,0.4,0.3l0.1,0.1
		c0.1,0.1,0.2,0.2,0.4,0.3c0.1,0.1,0.2,0.1,0.3,0.2c0.1,0,0.2,0.1,0.2,0.1c0.2,0.1,1,0.3,1.2,0.3c0.1,0,0.3,0,0.4,0.1
		C21.5,13.1,21.8,13.2,22.2,13.2C22.2,13.2,22.2,13.2,22.2,13.2L22.2,13.2z M107.6,25.5c0,0,0-0.1,0.1-0.1v0c0-0.1,0.1-0.2,0.1-0.3
		c0-0.1,0.1-0.2,0.1-0.3c0-0.1,0-0.2,0-0.3c-0.1-0.1-0.2,0.1-0.4,0.2l0,0l0,0c-0.1,0.1-0.2,0.3-0.2,0.4l0,0.1c0,0.1-0.1,0.2-0.1,0.3
		c-0.1,0.3-0.3,0.5-0.4,0.8c-0.1,0.2-0.2,0.3-0.4,0.5c-0.1,0.1-0.3,0.2-0.4,0.4l-0.1,0.1c-0.2,0.2-0.4,0.3-0.7,0.5
		c-0.9,0.7-2.6,1-3.6,0.9c-0.2,0-0.3,0-0.5,0c-1.8,0-2.6,0.9-3.6,2c-0.1,0.1-0.2,0.3-0.4,0.4c-0.3,0.3-0.8,0.5-1.5,0.5
		c0,0,0,0-0.1,0c-1.1,0-2.2-0.5-2.8-1.2c0,0,0,0,0,0c-0.3-0.4-0.4-0.9-0.4-1.4c0-0.3,0.1-0.5,0.2-0.6c0.1-0.2,0.3-0.3,0.5-0.4
		c0.4-0.2,0.8-0.4,1.3-0.5c0.2,0,0.4-0.1,0.6-0.1c0.2,0,0.5-0.1,0.7-0.1c0.4-0.1,1.1-0.1,1.5,0.1c0,0.1-0.2,0.2-0.3,0.3
		c-0.1,0.1-1.1,0.8-1.3,1.6c-0.1,0.3,0,0.6,0.1,0.9l0.1,0.2l0.1-0.2c0.4-1.3,1.3-2.1,2.8-2.3l0.2,0l-0.1-0.1
		c-1.7-1.7-3.6-1.1-5.5-0.6c-0.5,0.1-1,0.3-1.5,0.4c-0.7,0.1-1.3,0.2-2,0.4c-2.2,0.4-4.3,0.7-6.3,1.9c-4,2.3-8.2,2.6-12.5,2.7
		c0.7-0.3,1.4-0.8,2.2-1.4l1-1.3l-4.5,2.8c-0.7,0-1.3,0.1-2,0.2c-1.3,0.2-2.7,0.4-4,0.2c-2.2-0.3-4.9-0.9-7.4-1.5
		c-2.3-0.6-4.6-1.1-6.4-1.4c0.2-0.1,0.3-0.2,0.5-0.3l0.3-0.2l-2.4,0.4c-0.4,0-0.8,0-1.1,0.1c-0.6,0.1-1.2,0.3-1.7,0.4l-0.6,0.1
		l0.1,0c-0.2,0-0.3,0.1-0.5,0.1c-2.2,0.6-4.4,1.2-6.6,0.9c-0.2,0-0.6-0.1-0.9-0.3h0c-0.2-0.1-0.3-0.1-0.5-0.1c0,0-0.1,0-0.1,0l0,0
		v0.1l0,0c0,0,0,0,0,0l0,0l0,0.2l0,0c1.2,1.2,3.2,0.9,5.1,0.6c0.6-0.1,1.2-0.2,1.7-0.2C42.7,32,42,32.7,41.2,33
		c-4.6,1.9-9.7,2.1-14.8,0.5c-4.3-1.4-4.8-5-5.1-7c-0.1-0.4-0.1-0.8-0.2-1c0.1,0,0.3,0,0.5,0c0.1,0,0.2,0,0.3,0h0h0c0,0,0,0,0.1,0
		l0.1,0v-0.1c0,0,0-0.1,0-0.1c0-0.1-0.1-0.1-0.2-0.2l0,0c0,0-0.1-0.1-0.1-0.1c0,0-0.1-0.1-0.1-0.1c-0.2-0.1-0.4-0.3-0.6-0.4L21,24.5
		c-0.3-0.2-0.7-0.4-1.1-0.4c-0.2,0-0.5-0.1-0.7-0.1c-0.5-0.1-1.1-0.2-1.6-0.3c-0.6-0.1-1.2-0.2-1.8-0.3c-0.6-0.1-1.3-0.1-1.8-0.2
		c-0.7,0-1.3,0-1.8,0c-0.6,0-1.2,0.1-1.8,0.2c-0.6,0.1-1.1,0.2-1.6,0.4c-0.5,0.2-0.9,0.4-1.3,0.8c-0.4,0.3-0.7,0.7-0.9,1.1
		c-0.2,0.5-0.4,1-0.5,1.5c0,0.3,0,0.7,0,1c0,0.2,0,0.4,0,0.6c0.1,1.2,0.1,2.5,0.7,3.6l0.1,0.2c0.2,0.3,0.4,0.7,0.6,1
		C7.8,33.7,8,34,8.2,34.3c0.2,0.2,0.5,0.4,0.8,0.5l0.2,0.1c0.2,0.1,0.4,0.3,0.6,0.3c0.2,0.1,0.4,0.1,0.6,0.2l0.2,0
		c0.2,0.1,0.4,0.1,0.6,0.2h-0.1c-0.3,0-0.6,0-0.9-0.1h-0.1c-0.3-0.1-0.6-0.1-0.9-0.2l0,0c-0.1,0-0.2-0.1-0.3-0.1
		c-0.4-0.2-0.7-0.4-1-0.6c-0.2-0.2-0.5-0.4-0.7-0.6l-0.1-0.1c-0.2-0.2-0.4-0.3-0.5-0.5C6.3,33,6.1,32.5,5.9,32l-0.1-0.2
		c-0.2-0.5-0.3-1-0.4-1.5c0-0.2-0.1-0.3-0.1-0.5c-0.2-0.8-0.2-1.7,0-2.6c0.2-1.2,0.7-2.4,1.5-3.4c0.6-0.7,1.8-1.3,3-1.8
		c1.2-0.5,2.3-0.9,3.8-1.1l3.8-0.3c1.3-0.2,4.8-2,4.9-2.2l0,0v0c0-0.1-0.1-0.2-0.2-0.2c-0.1,0-0.1,0-0.2,0c0,0-0.1,0-0.1,0
		c-0.2,0-0.3,0.1-0.5,0.2l-0.1,0c0,0,0,0-0.1,0c0.2-0.3,0.3-0.6,0.4-1l0.7-2.4c0.6-2.1,3-3.6,6.8-4.2c5.5-1,11.9,0.2,13.8,2.5
		c-0.6,0-1.2-0.1-1.8-0.2c-1.5-0.2-3-0.4-4.4,0.4l-0.1,0.1l0,0.1c0,0,0,0,0,0.1l0,0.1h0.1c3-0.2,5.1,0.3,7.1,0.7
		c0.8,0.2,1.6,0.4,2.4,0.5l4.4,1l-0.3-0.3c-0.3-0.3-0.7-0.5-1-0.7c0.8-0.1,1.7-0.2,2.7-0.5c9.3-2.8,13.6-2.3,16.5-1.9
		c0.4,0.1,0.8,0.1,1.2,0.1l4.5,2.8l-1-1.2l0,0c-0.8-0.6-1.5-1.2-2.3-1.5c0.1,0,0.3,0,0.4,0c5.7-0.8,9.3,0.8,12.4,2.2
		c1.8,0.8,3.5,1.6,5.4,1.8c0.3,0,0.6,0.1,0.9,0.1c1.4,0.1,2.8,0.3,4.2,0.8c1.5,0.6,3.1,0.3,4.1-0.7l0.1-0.1l-0.1-0.1
		c-0.1-0.1-0.3-0.1-0.4-0.2c-1-0.5-2.1-1-1.9-2.4l0,0l-0.2,0c0,0-0.1,0.1-0.1,0.1c0,0-0.1,0.1-0.1,0.1c-0.1,0.1-0.1,0.2-0.1,0.3
		c-0.1,0.5,0.2,1,0.4,1.3c0.1,0.2,0.3,0.4,0.5,0.6c0.1,0.1,0.2,0.2,0.3,0.3c0,0,0.1,0,0.1,0.1c0.1,0,0.1,0.1,0.1,0.1c0,0,0,0,0,0
		c0,0-0.1,0.1-0.6,0.1h-0.1c-0.4,0.1-0.8,0.1-1.1,0c-0.5-0.1-1.1-0.3-1.6-0.5c-0.1,0-0.2-0.1-0.3-0.1c-0.3-0.1-0.6-0.3-0.8-0.5
		c-0.1-0.2-0.2-0.5-0.1-0.9c0.1-1.2,1.7-2,3.1-2.1c0,0,0,0,0,0c0,0,0,0,0,0c0.2,0,0.4,0,0.7,0c0.2,0,0.6,0.1,0.8,0.2
		c0.3,0.2,0.5,0.6,0.7,0.9l0.1,0.1c1.2,1.2,2.3,2.3,4.3,2c0.9-0.1,1.7,0,2.4,0.4l0.1,0c0.3,0.1,0.6,0.2,0.8,0.3
		c0.4,0.3,0.9,0.6,1.1,1.1c0.1,0.1,0.1,0.3,0.2,0.5c0.1,0.3,0.5,0.9,0.6,1c0,0,0,0,0.1,0c0.1,0.1,0.3,0.3,0.4,0.2
		c0.1-0.1,0.1-0.2,0-0.3c0,0-0.1-0.2-0.1-0.3c-0.1-0.2-0.2-0.4-0.2-0.5v0c0-0.1-0.1-0.2-0.1-0.3c0,0,0.1,0.1,0.1,0.1l0,0
		c0,0,0.1,0.1,0.2,0.2c0.4,0.4,0.8,0.8,1,0.9c0.2,0.1,0.4,0.1,0.6,0.1c0.1,0,0.2,0,0.4,0.1l4.3,1l0,0c0,0,0,0.2-0.1,0.3v0
		c-0.1,0.2-0.1,0.5-0.2,0.7c-0.1,0.4-0.1,1,0.1,1.4c0,0.2,0.1,0.4,0.3,0.6c-0.1,0.2-1,0.5-1.7,0.6l-1.4,0.4
		c-0.9,0.2-1.6,0.4-2.3,0.6c-0.3,0.1-0.6,0.3-0.8,0.5l-0.1,0.1c-0.2,0.2-0.3,0.3-0.4,0.3C107.3,26,107.5,25.5,107.6,25.5L107.6,25.5
		z M21.7,30.8c-0.3,0-1.1,0.1-1.2,0.1c-0.2,0-1,0.2-1.2,0.3c-0.1,0-0.2,0.1-0.2,0.1c-0.1,0-0.2,0.1-0.3,0.2
		c-0.1,0.1-0.3,0.2-0.4,0.3l-0.1,0.1c-0.1,0.1-0.3,0.2-0.4,0.3h0c-0.1,0-0.3-0.1-0.3-0.2c-0.2-0.2-0.3-0.5-0.3-0.8
		c0-0.1,0-0.2,0-0.3C17.1,30.5,17,30,17,29.6c0-0.5,0-0.9,0.2-1.3c0-0.1,0.1-0.2,0.1-0.2c0,0,0.1-0.1,0.1-0.1
		c0.2-0.1,0.3-0.1,0.6-0.1c0.3-0.1,0.6-0.1,1-0.1c0.1,0,0.2,0,0.3,0c0.2,0,0.4,0,0.7,0.1c0.1,0,0.6,0,0.8,0.1c0,0.1,0,0.1,0,0.2
		l0,0.1c0,0.2,0.1,0.4,0.2,0.6c0,0.1,0.1,0.2,0.1,0.3c0.1,0.2,0.1,0.4,0.2,0.7l0.1,0.3C21.4,30.3,21.5,30.5,21.7,30.8L21.7,30.8
		L21.7,30.8z"/>
</g>
</svg>
