<svg width="156" height="136" viewBox="0 0 156 136" fill="none" xmlns="http://www.w3.org/2000/svg">
<path d="M36.2822 125.09H121.046V124.079H36.2822V125.09ZM36.2822 107.392V108.403H121.046V107.392H36.2822Z" fill="#47331F"/>
<path fill-rule="evenodd" clip-rule="evenodd" d="M85.9011 9.67104C83.6888 8.47006 81.1604 7.83797 78.632 7.83797C76.1037 7.83797 73.5753 8.47006 71.3629 9.67104C71.2365 9.73425 71.1733 9.98709 71.2998 10.1767L71.6158 10.7456C71.7422 10.9352 71.9318 10.9984 72.0583 10.9352C74.081 9.86067 76.3565 9.29178 78.632 9.29178C80.9076 9.29178 83.1831 9.86067 85.2058 10.9352C85.3322 10.9984 85.5219 10.9352 85.6483 10.7456L85.9643 10.1767C86.154 9.98709 86.0907 9.79746 85.9011 9.67104ZM90.1361 3.85578C90.1361 3.09726 89.504 2.46517 88.7455 2.46517C87.987 2.46517 87.3549 3.09726 87.3549 3.85578C87.3549 4.17182 87.4181 4.42466 87.6078 4.61429L87.4182 4.99355C87.2285 5.37281 86.8493 5.68884 86.47 5.81526C86.0908 5.94168 85.6483 5.94168 85.2058 5.81526C84.7634 5.62563 84.4473 5.37281 84.2577 4.99355C84.0681 4.61429 84.0048 4.17183 84.068 3.72936L84.1945 3.3501C84.7634 3.16047 85.2058 2.65479 85.2058 2.0227C85.2058 1.26419 84.5737 0.632094 83.8152 0.632094C83.0567 0.632094 82.4246 1.26419 82.4246 2.0227C82.4246 2.40196 82.6142 2.78122 82.8671 3.03405L82.8039 3.41331C82.7406 3.85578 82.4246 4.23503 82.1085 4.42466C81.7293 4.6775 81.35 4.80391 80.9076 4.74071C80.4651 4.6775 80.0859 4.48787 79.7698 4.17182C79.4538 3.85578 79.3273 3.47652 79.3273 2.97084V2.59159C79.7698 2.33875 80.0226 1.89628 80.0226 1.3906C80.0226 0.632092 79.3905 0 78.632 0C77.8735 0 77.2414 0.632092 77.2414 1.3906C77.2414 1.89628 77.5575 2.33875 77.9367 2.59159V2.97084C77.9367 3.41331 77.7471 3.85578 77.4943 4.17182C77.1782 4.48787 76.799 4.6775 76.3565 4.74071C75.914 4.80391 75.4716 4.6775 75.1555 4.42466C74.7763 4.17182 74.5234 3.85578 74.4602 3.41331L74.397 3.03405C74.6498 2.78122 74.8395 2.40196 74.8395 2.0227C74.8395 1.26419 74.2074 0.632094 73.4489 0.632094C72.6904 0.632094 72.0583 1.26419 72.0583 2.0227C72.0583 2.65479 72.5007 3.22368 73.0696 3.3501L73.196 3.72936C73.3225 4.17183 73.2592 4.61429 73.0064 4.99355C72.8168 5.37281 72.5007 5.68884 72.0583 5.81526C71.6158 6.00489 71.1733 5.94168 70.7941 5.81526C70.4148 5.68884 70.0356 5.37281 69.8459 4.99355L69.6563 4.61429C69.7827 4.36145 69.9091 4.10861 69.9091 3.85578C69.9091 3.09726 69.277 2.46517 68.5185 2.46517C67.76 2.46517 67.1279 3.09726 67.1279 3.85578C67.1279 4.61429 67.6968 5.24638 68.4553 5.24638L68.645 5.62564L70.2884 8.53327C70.4148 8.7229 70.6044 8.78611 70.7941 8.7229C73.196 7.45871 75.8508 6.7634 78.5688 6.7634C81.2868 6.7634 84.0048 7.45871 86.3436 8.7229C86.5332 8.78611 86.7228 8.7229 86.8493 8.53327L88.4927 5.62564L88.6823 5.24638C89.5673 5.24638 90.1361 4.61429 90.1361 3.85578Z" fill="#47331F"/>
<path d="M149.111 52.8428C149.238 52.7164 149.364 52.7164 149.49 52.8428C151.829 55.3078 153.978 57.836 155.938 60.3643C156.001 60.4907 156.064 60.617 155.874 60.8066C155.874 60.9331 155.748 61.0598 155.621 61.123C151.197 62.64 146.835 64.3467 142.601 66.1797C140.072 70.0355 137.354 73.7652 134.51 77.3682C134.447 77.4944 134.32 77.5576 134.193 77.5576H134.13C134.004 77.5575 133.878 77.4938 133.814 77.4307C129.643 71.9948 124.775 67.2546 119.213 63.2725C119.087 63.2093 119.086 63.0824 119.149 62.9561C119.213 62.8929 119.339 62.8302 119.402 62.8301H119.466C124.333 63.7782 129.137 65.3582 133.814 67.3809L149.111 52.8428ZM6.57422 52.7793C6.70051 52.7163 6.82683 52.7161 6.95312 52.7793L22.25 67.3174C26.9273 65.2948 31.731 63.7779 36.6611 62.7666C36.7243 62.7666 36.8509 62.8294 36.7246 62.8926C36.7878 63.019 36.7243 63.1458 36.6611 63.209C31.162 67.1911 26.2323 71.9954 22.0605 77.3682C21.9974 77.4314 21.8705 77.4941 21.7441 77.4941H21.6807C21.5544 77.4941 21.4285 77.4309 21.3652 77.3047C18.5208 73.765 15.8028 69.972 13.2744 66.1162C9.03939 64.2199 4.67758 62.5766 0.25293 61.0596C0.126626 60.9964 0.0631519 60.8704 0 60.7441C0 60.5545 -0.000442245 60.4272 0.125977 60.3008C2.14866 57.7092 4.2987 55.1812 6.57422 52.7793ZM78.127 14.6641C92.033 14.6641 106.129 17.5088 118.834 22.8184C131.602 28.1279 143.486 36.1553 153.283 46.0791C153.346 46.1422 153.346 46.2055 153.346 46.2686C153.346 46.3316 153.346 46.3949 153.283 46.458L133.814 65.6738C133.751 65.737 133.562 65.737 133.562 65.6738C126.356 58.3416 117.569 52.4004 108.151 48.4814C98.7964 44.5625 88.43 42.4766 78.127 42.4766H78.0635C67.8236 42.4766 57.394 44.5625 48.0391 48.4814C38.621 52.4636 29.8347 58.4048 22.6289 65.6738C22.5657 65.737 22.5026 65.7373 22.4395 65.7373C22.3763 65.7373 22.3132 65.737 22.25 65.6738L2.78125 46.458C2.65501 46.3316 2.65489 46.2055 2.78125 46.0791C12.5155 36.2185 24.4622 28.1279 37.2305 22.8184C49.9356 17.5088 64.0314 14.6641 77.9375 14.6641H78.127ZM129.895 40.8945L130.211 41.1475C130.337 41.2738 130.337 41.4004 130.211 41.5898L126.481 46.3311C126.355 46.5205 126.165 46.5199 126.039 46.3936L125.723 46.1406L124.838 47.2783L127.05 49.0488L127.935 47.9111L127.43 47.4688L130.4 43.7393L128.883 50.5029L130.464 51.7031L135.33 45.5723C135.456 45.4459 135.584 45.3821 135.71 45.4453L136.025 45.6982L136.911 44.5605L134.698 42.791L133.813 43.9287L134.319 44.3711L131.349 48.1641L132.865 41.4004L130.779 39.7568L129.895 40.8945ZM27.3047 40.0107C26.7993 39.7581 26.3573 39.6947 25.915 39.7578C25.4726 39.821 25.0924 40.0099 24.7764 40.2627L21.6162 42.6016L22.501 43.8027L22.8809 43.5498C23.0072 43.4868 23.1335 43.4873 23.2598 43.6768L26.8623 48.5439C26.9886 48.7335 26.9262 48.8599 26.7998 48.9863L26.4834 49.1758L27.3682 50.377L30.0234 48.417L29.1387 47.2158L28.5693 47.6582L27.4316 46.1416L28.5059 45.3203C29.138 44.8146 29.4544 44.2448 29.5176 43.4863C29.5175 42.728 29.2641 41.9693 28.6953 41.2109C28.253 40.6423 27.8102 40.2635 27.3047 40.0107ZM121.613 35.7764L121.93 35.9658C122.056 36.0922 122.12 36.2196 121.993 36.4092L118.959 41.5918C118.833 41.7814 118.706 41.8449 118.643 41.6553L118.327 41.4658L117.568 42.7295L122.625 45.7002L124.016 43.2988L123.194 42.793L122.309 43.6143L120.539 42.6035L121.804 40.3906L123.699 41.5283L124.458 40.2646L122.562 39.127L123.699 37.2305L125.406 38.2422L125.217 39.3799L126.038 39.8848L127.429 37.4834L122.372 34.5127L121.613 35.7764ZM25.3457 41.9697C25.6617 41.7169 25.9779 41.6541 26.2939 41.8438C26.5467 41.907 26.8625 42.1597 27.1152 42.4756C27.368 42.8548 27.4951 43.2338 27.4951 43.5498C27.4951 43.8658 27.3055 44.119 27.0527 44.3086L26.3574 44.8145L24.6504 42.4756L25.3457 41.9697ZM33.7529 34.7012L34.4482 35.9658L34.9541 35.6494L37.3555 39.9482C37.545 40.2643 37.6087 40.5802 37.6719 40.833C37.735 41.0857 37.6716 41.2753 37.6084 41.4648C37.5452 41.5912 37.4187 41.7174 37.3555 41.8438C37.2923 41.97 37.1663 42.0335 37.04 42.0967C36.2815 42.6024 35.5855 42.2867 35.0166 41.2754L32.6152 36.9775L33.1836 36.6611L32.4883 35.3965L29.7705 36.9141L30.4658 38.1777L30.7822 37.9883C30.9086 37.8622 31.0348 37.9257 31.1611 38.1152L33.3105 41.9707C33.9426 43.0452 34.5746 43.7403 35.333 43.9932C36.0914 44.246 36.913 44.1198 37.7979 43.6143C38.6828 43.1086 39.1893 42.4763 39.3789 41.7178C39.5685 40.9593 39.3781 40.011 38.7461 38.9365L36.5977 35.0811C36.4712 34.8914 36.5342 34.7649 36.5342 34.8281L36.8496 34.6387L36.1543 33.374L33.7529 34.7012ZM45.3203 30.1494C44.6882 29.8334 43.9924 29.8968 43.1074 30.2129L39.6309 31.6035L40.2002 32.9941L40.5791 32.8682C40.7687 32.805 40.8948 32.868 40.958 33.0576L43.1709 38.6201C43.2972 38.8728 43.2335 38.9993 43.0439 39.0625L42.7285 39.1885L43.2969 40.5791L46.1416 39.4414L45.5723 38.1143L45.0674 38.3037L44.2451 36.2178L45.1299 35.8389C45.3827 35.7125 45.5725 35.7126 45.8252 35.8389C46.078 35.9653 46.2681 36.1547 46.3945 36.4707L46.584 36.9766C46.8368 37.6718 47.153 38.1144 47.5322 38.3672C47.8483 38.62 48.354 38.62 48.9229 38.3672C49.1757 38.2408 49.4288 38.1147 49.6816 37.9883L49.1123 36.5977C48.8599 36.6607 48.6703 36.6606 48.5439 36.5977C48.4175 36.5345 48.2905 36.3446 48.1641 36.0918L48.0381 35.7754C47.8485 35.333 47.6588 35.0168 47.3428 34.8271C47.0268 34.6376 46.6474 34.5118 46.2051 34.5117C46.5842 34.2589 46.8371 33.8795 46.9004 33.374C47.0268 32.9316 46.9628 32.3619 46.71 31.793C46.394 30.9716 45.9522 30.4654 45.3203 30.1494ZM111.689 31.1621L112.069 31.3516C112.259 31.4779 112.258 31.6044 112.195 31.7939L109.793 37.293C109.73 37.4826 109.604 37.5456 109.414 37.4824L109.098 37.3564L108.529 38.6836L111.879 40.1377C112.827 40.5802 113.775 40.5164 114.724 40.0107C115.672 39.5051 116.43 38.5573 117.062 37.1035C117.631 35.7131 117.821 34.5122 117.568 33.501C117.316 32.4896 116.683 31.794 115.672 31.3516L112.322 29.8975L111.689 31.1621ZM114.787 32.8057C115.356 33.0585 115.735 33.5006 115.798 34.0693C115.861 34.7014 115.735 35.4601 115.293 36.4082C114.471 38.3042 113.46 39.0629 112.322 38.5576L111.5 38.1777L113.965 32.4258L114.787 32.8057ZM103.093 28.4434L103.473 28.5703C103.599 28.6335 103.662 28.7598 103.599 28.9492L101.829 34.7012C101.766 34.9538 101.64 35.0175 101.45 35.0176L101.07 34.8916L100.628 36.2822L106.19 37.9883L107.075 35.1445L106.127 34.8281L105.432 35.9658L103.599 35.3965L105.495 29.2021L106.127 29.3916L106.569 28.001L103.536 27.0537L103.093 28.4434ZM49.6182 27.9375L49.9971 29.3281L50.377 29.2012C50.5032 29.1383 50.6292 29.2647 50.6924 29.4541L52.2734 35.2695C52.3366 35.5223 52.2726 35.6491 52.083 35.5859L51.7041 35.7119L52.083 37.1025L57.7725 35.5225L57.0137 32.8047L56.0654 33.0576V34.2578L54.1064 34.8271L53.4111 32.3623L55.5596 31.793L55.1807 30.4023L53.0312 30.9717L52.4629 28.8223L54.3584 28.3164L55.0537 29.2646L56.002 29.0117L55.2441 26.3574L49.6182 27.9375ZM96.3926 25.3467C95.3183 25.094 94.3704 25.4104 93.5488 26.1055C92.7272 26.8007 92.2213 27.9386 91.9053 29.5186C91.5892 31.0988 91.7157 32.3634 92.1582 33.3115C92.6638 34.2594 93.4219 34.8913 94.4961 35.0811C95.5705 35.3339 96.5192 35.0816 97.3408 34.3232C98.1625 33.6279 98.6683 32.4894 98.9844 30.9092C99.3003 29.3292 99.1738 28.0652 98.7314 27.1172C98.289 26.169 97.4671 25.5363 96.3926 25.3467ZM58.9727 25.4727L59.2256 26.9268L59.6045 26.8633C59.794 26.8633 59.8577 26.9893 59.9209 27.1787L60.9326 33.1211C60.9326 33.3738 60.8689 33.5 60.8057 33.5L60.4268 33.5635L60.6797 35.0176L66.3682 34.0693L65.8623 31.0986L64.8516 31.2881L64.7246 32.6152L62.8281 32.9316L61.7539 26.5469L62.3857 26.4209L62.1338 24.9668L58.9727 25.4727ZM43.6133 31.9199C44.2454 31.6039 44.7513 31.857 45.0674 32.6787C45.4463 33.6264 45.2567 34.1954 44.625 34.4482L43.6768 34.8271L42.665 32.2988L43.6133 31.9199ZM71.2988 23.9551L71.4248 25.4092L72.1201 25.3457L71.0459 28.2539L69.4658 25.5361L70.0342 25.4727L69.9082 24.0186L66.6211 24.2715L66.7471 25.7256H67.0635C67.3162 25.7256 67.4423 25.8519 67.6318 26.1045L69.9707 30.0234L70.0977 31.8564C70.1608 32.1092 70.0342 32.2356 69.8447 32.2988H69.4658L69.5918 33.7529L72.752 33.5L72.626 32.0459H72.2461C72.0568 32.0457 71.9308 31.9198 71.9307 31.7305L71.8037 29.834L73.3848 25.6621C73.5112 25.3462 73.7004 25.1563 73.9531 25.1562H74.332L74.2061 23.7031L71.2988 23.9551ZM86.3418 23.7656C85.141 23.6393 84.067 24.0192 83.3086 24.8408C82.4869 25.6625 82.0444 26.8631 81.918 28.3799C81.7915 30.0233 81.9809 31.2879 82.5498 32.1729C83.1186 33.1208 84.0033 33.6262 85.2041 33.6895C85.6464 33.7526 86.2155 33.6901 86.7842 33.627C87.3531 33.5637 87.8593 33.4367 88.3018 33.2471L88.6807 28.6963L85.584 28.4434L85.457 30.0234L86.7842 30.1504L86.6582 31.9199C86.279 32.0463 85.8997 32.0469 85.5205 32.0469C84.8885 32.0469 84.4459 31.6674 84.1299 31.0986C83.8138 30.5297 83.7503 29.7076 83.8135 28.6963C83.8767 27.6217 84.1295 26.7996 84.5088 26.2939C84.888 25.7883 85.3943 25.5354 86.0264 25.5986C86.848 25.6619 87.3534 26.1053 87.543 26.7373L88.6182 26.7998L88.8076 24.3984C88.4284 24.2088 87.9854 24.0825 87.543 23.9561C87.1005 23.8928 86.721 23.7656 86.3418 23.7656ZM96.0771 26.9902C97.2147 27.18 97.5938 28.3814 97.1514 30.5303C96.7721 32.6793 96.0137 33.627 94.876 33.4375C93.7383 33.2479 93.4216 32.0474 93.8008 29.8984C94.18 27.7493 94.9394 26.8006 96.0771 26.9902Z" fill="#47331F"/>
<path d="M60.1746 118.517V114.661C60.1746 114.535 60.1114 114.472 59.985 114.472H59.6689V113.524H64.4729V115.294H63.7144L63.3983 114.598H61.6917V116.178H63.5879V117.253H61.6917V118.77H62.2605V119.718H59.6689V118.707H59.985C60.1114 118.707 60.1746 118.644 60.1746 118.517Z" fill="#47331F"/>
<path d="M67.4441 118.959C66.9384 118.39 66.6855 117.631 66.6855 116.62C66.6855 115.609 66.9384 114.85 67.4441 114.281C67.9497 113.712 68.7083 113.459 69.5932 113.459C70.4781 113.459 71.2366 113.712 71.7423 114.281C72.248 114.85 72.5008 115.609 72.5008 116.62C72.5008 117.631 72.248 118.39 71.7423 118.959C71.2366 119.528 70.4781 119.78 69.5932 119.78C68.645 119.78 67.9497 119.464 67.4441 118.959ZM69.5932 114.471C68.645 114.471 68.2026 115.166 68.2026 116.557C68.2026 117.947 68.645 118.643 69.5932 118.643C70.5413 118.643 70.9838 117.947 70.9838 116.557C70.9838 115.166 70.5413 114.471 69.5932 114.471Z" fill="#47331F"/>
<path d="M75.6609 118.959C75.1552 118.39 74.9023 117.631 74.9023 116.62C74.9023 115.609 75.1552 114.85 75.6609 114.281C76.1665 113.712 76.925 113.459 77.81 113.459C78.6949 113.459 79.4534 113.712 79.9591 114.281C80.4648 114.85 80.7176 115.609 80.7176 116.62C80.7176 117.631 80.4648 118.39 79.9591 118.959C79.4534 119.528 78.6949 119.78 77.81 119.78C76.8618 119.78 76.1665 119.464 75.6609 118.959ZM77.81 114.471C76.8618 114.471 76.4194 115.166 76.4194 116.557C76.4194 117.947 76.8618 118.643 77.81 118.643C78.7581 118.643 79.2006 117.947 79.2006 116.557C79.2006 115.166 78.7581 114.471 77.81 114.471Z" fill="#47331F"/>
<path d="M83.0566 113.524H86.0275C86.9124 113.524 87.6077 113.777 88.1134 114.282C88.6191 114.788 88.8719 115.546 88.8719 116.558C88.8719 117.569 88.6191 118.328 88.1134 118.833C87.6077 119.402 86.9124 119.655 86.0275 119.655H83.0566V118.707H83.3727C83.5623 118.707 83.6255 118.644 83.6255 118.517V114.661C83.6255 114.535 83.5623 114.472 83.4359 114.472H83.1199V113.524H83.0566ZM87.3549 116.558C87.3549 115.862 87.2285 115.42 86.9756 115.104C86.7228 114.788 86.3435 114.598 85.8379 114.598H85.1426V118.58H85.8379C86.8492 118.58 87.3549 117.885 87.3549 116.558Z" fill="#47331F"/>
<path d="M93.4858 118.706C93.6754 118.706 93.9282 118.643 94.1811 118.516C94.4339 118.39 94.4971 118.137 94.4971 117.947C94.4971 117.758 94.4339 117.631 94.2443 117.505C94.1179 117.378 93.8018 117.252 93.2961 117.126C92.8537 116.999 92.5376 116.936 92.2848 116.81C91.9687 116.683 91.7159 116.494 91.5895 116.304C91.3999 116.051 91.2734 115.672 91.2734 115.293C91.2734 114.787 91.4631 114.344 91.9055 113.965C92.348 113.586 92.9801 113.459 93.8018 113.459C94.1179 113.459 94.4339 113.459 94.75 113.523C95.1292 113.586 95.4453 113.649 95.7613 113.776V115.293H94.8764C94.8764 115.166 94.8132 115.04 94.75 114.913C94.6867 114.787 94.5603 114.66 94.3707 114.597C94.1811 114.534 93.9914 114.471 93.8018 114.471C93.549 114.471 93.2961 114.534 93.1697 114.66C93.0433 114.787 92.9169 114.913 92.9169 115.166C92.9169 115.293 92.9801 115.419 93.0433 115.482C93.1065 115.609 93.2329 115.672 93.4226 115.735C93.549 115.798 93.8018 115.861 94.3075 115.988C94.9396 116.177 95.4453 116.367 95.6981 116.62C95.9509 116.873 96.1406 117.252 96.1406 117.758C96.1406 118.327 95.9509 118.832 95.5085 119.212C95.066 119.591 94.4339 119.78 93.6122 119.78C93.3594 119.78 92.9801 119.78 92.5376 119.717C92.1584 119.654 91.7791 119.591 91.4631 119.464V117.884H92.348C92.348 118.137 92.4744 118.39 92.7273 118.516C92.8537 118.643 93.1697 118.706 93.4858 118.706Z" fill="#47331F"/>
<path d="M50.5049 131.727V131.032H51.9587C52.0851 131.032 52.2747 131.095 52.4012 131.159C52.5276 131.285 52.654 131.411 52.7804 131.664C52.9068 131.917 52.9069 132.17 52.9069 132.486C52.9069 132.928 52.8436 133.308 52.654 133.56C52.4644 133.813 52.2748 133.94 51.9587 133.94H51.453V134.825H51.7059V135.52H50.5049V134.825H50.6313C50.6945 134.825 50.7577 134.761 50.7577 134.698V131.854C50.7577 131.727 50.6945 131.727 50.6313 131.727H50.5049ZM51.7691 131.854H51.453V133.181H51.7691C51.8955 133.181 52.0219 133.118 52.0851 132.992C52.1483 132.865 52.2115 132.676 52.2115 132.486C52.2115 132.296 52.1483 132.107 52.0851 131.98C52.0219 131.917 51.8955 131.854 51.7691 131.854Z" fill="#47331F" stroke="#47331F" stroke-width="0.1907"/>
<path d="M55.0557 135.582H53.918V134.886H54.0444C54.1076 134.886 54.1708 134.823 54.1708 134.76V131.916C54.1708 131.789 54.1076 131.789 54.0444 131.789H53.918V131.094H55.3086C55.6246 131.094 55.9407 131.22 56.0671 131.473C56.2567 131.726 56.3199 132.042 56.3199 132.421C56.3199 132.737 56.2567 132.99 56.1935 133.18C56.1303 133.369 55.9407 133.496 55.8143 133.559C55.9407 133.622 56.0671 133.749 56.1303 133.875C56.1935 134.002 56.2567 134.191 56.2567 134.444V134.634C56.2567 134.76 56.2567 134.886 56.3199 134.886C56.3831 134.95 56.4463 134.95 56.5095 134.95V135.645C56.3831 135.645 56.3199 135.645 56.1935 135.645C55.9407 135.645 55.8142 135.582 55.6878 135.392C55.5614 135.202 55.5614 134.95 55.5614 134.634V134.381C55.5614 134.191 55.4982 134.065 55.435 134.002C55.3718 133.938 55.3086 133.875 55.1822 133.875H54.8029V134.95H54.9925V135.582H55.0557ZM55.2454 131.852H54.8661V133.117H55.2454C55.4982 133.117 55.6246 132.864 55.6246 132.421C55.6246 132.042 55.4982 131.852 55.2454 131.852Z" fill="#47331F" stroke="#47331F" stroke-width="0.1907"/>
<path d="M57.8368 134.76V131.916C57.8368 131.789 57.7736 131.789 57.7104 131.789H57.584V131.094H59.7963V132.421H59.4171L59.2906 131.916H58.5321V132.99H59.3538V133.685H58.5321V134.886H59.2906L59.4171 134.381H59.7963V135.708H57.584V135.013H57.7104C57.7736 134.886 57.8368 134.823 57.8368 134.76Z" fill="#47331F" stroke="#47331F" stroke-width="0.1907"/>
<path d="M64.6012 134.886H64.7276V135.582H63.5898V134.886H63.7794V132.232L63.0209 135.582H62.452L61.6935 132.232V134.886H61.8831V135.582H60.8086V134.886H60.935C60.9982 134.886 61.0614 134.823 61.0614 134.76V131.916C61.0614 131.789 60.9982 131.789 60.935 131.789H60.8086V131.094H62.0728L62.7681 134.128L63.4634 131.094H64.6644V131.789H64.5379C64.4747 131.789 64.4115 131.852 64.4115 131.916V134.76C64.5379 134.823 64.5379 134.886 64.6012 134.886Z" fill="#47331F" stroke="#47331F" stroke-width="0.1907"/>
<path d="M66.1181 134.76V131.916C66.1181 131.789 66.0549 131.789 65.9916 131.789H65.8652V131.094H67.0662V131.789H66.9398C66.8766 131.789 66.8134 131.852 66.8134 131.916V134.76C66.8134 134.886 66.8766 134.886 66.9398 134.886H67.0662V135.582H65.8652V134.886H65.9916C66.1181 134.886 66.1181 134.823 66.1181 134.76Z" fill="#47331F" stroke="#47331F" stroke-width="0.1907"/>
<path d="M70.669 131.917V134.003C70.669 134.572 70.6058 135.014 70.4161 135.267C70.2265 135.52 69.9737 135.71 69.5312 135.71C69.152 135.71 68.8359 135.583 68.6463 135.267C68.4567 135.014 68.3302 134.572 68.3302 134.003V131.917C68.3302 131.791 68.3302 131.791 68.267 131.791H68.1406V131.095H69.2784V131.791H69.0256V134.066C69.0256 134.635 69.2152 134.888 69.5312 134.888C69.5944 134.888 69.6576 134.888 69.6576 134.888C69.7209 134.888 69.7841 134.825 69.8473 134.761C69.9105 134.698 69.9737 134.635 69.9737 134.509C70.0369 134.382 70.0369 134.256 70.0369 134.066V131.727H69.7841V131.032H70.7954V131.727H70.669C70.669 131.727 70.669 131.791 70.669 131.917Z" fill="#47331F" stroke="#47331F" stroke-width="0.1907"/>
<path d="M75.6627 134.886H75.7891V135.582H74.6513V134.886H74.8409V132.232L74.0824 135.582H73.5136L72.755 132.232V134.886H72.9447V135.582H71.8701V134.886H71.9965C72.0597 134.886 72.123 134.823 72.123 134.76V131.916C72.123 131.789 72.0597 131.789 71.9965 131.789H71.8701V131.094H73.1343L73.8296 134.128L74.5249 131.094H75.7259V131.789H75.5995C75.5363 131.789 75.473 131.852 75.473 131.916V134.76C75.5363 134.823 75.5995 134.886 75.6627 134.886Z" fill="#47331F" stroke="#47331F" stroke-width="0.1907"/>
<path d="M79.7069 134.255H78.7588V132.864H79.7069V134.255Z" fill="#47331F" stroke="#47331F" stroke-width="0.1907"/>
<path d="M82.9945 135.078C82.7417 134.698 82.6152 134.066 82.6152 133.371C82.6152 132.676 82.7417 132.043 82.9945 131.664C83.2473 131.285 83.5634 131.032 84.0058 131.032C84.4483 131.032 84.7643 131.222 85.0172 131.664C85.27 132.043 85.3964 132.676 85.3964 133.371C85.3964 134.066 85.27 134.698 85.0172 135.078C84.7643 135.457 84.4483 135.71 84.0058 135.71C83.5634 135.646 83.2473 135.457 82.9945 135.078ZM83.9426 131.791C83.5002 131.791 83.3105 132.296 83.3105 133.308C83.3105 134.319 83.5002 134.825 83.9426 134.825C84.3851 134.825 84.5747 134.319 84.5747 133.308C84.6379 132.296 84.3851 131.791 83.9426 131.791Z" fill="#47331F" stroke="#47331F" stroke-width="0.1907"/>
<path d="M87.546 135.582H86.4082V134.886H86.5346C86.5978 134.886 86.661 134.823 86.661 134.76V131.916C86.661 131.789 86.5978 131.789 86.5346 131.789H86.4082V131.094H87.7988C88.1148 131.094 88.4309 131.22 88.5573 131.473C88.7469 131.726 88.8102 132.042 88.8102 132.421C88.8102 132.737 88.747 132.99 88.6837 133.18C88.6205 133.369 88.4309 133.496 88.3045 133.559C88.4309 133.622 88.5573 133.749 88.6205 133.875C88.6837 134.002 88.7469 134.191 88.7469 134.444V134.634C88.7469 134.76 88.7469 134.886 88.8102 134.886C88.8734 134.886 88.9366 134.95 88.9998 134.95V135.645C88.8734 135.645 88.8102 135.645 88.6837 135.645C88.4309 135.645 88.3045 135.582 88.1781 135.392C88.0516 135.202 88.0517 134.95 88.0517 134.634V134.381C88.0517 134.191 87.9884 134.065 87.9252 134.002C87.862 133.938 87.7988 133.875 87.6724 133.875H87.2931V134.95H87.4828V135.582H87.546ZM87.7356 131.852H87.3563V133.117H87.7356C87.9884 133.117 88.1148 132.864 88.1148 132.421C88.1148 132.042 87.9884 131.852 87.7356 131.852Z" fill="#47331F" stroke="#47331F" stroke-width="0.1907"/>
<path d="M91.4646 131.79C91.2117 131.79 91.0221 131.916 90.8957 132.169C90.7693 132.422 90.706 132.801 90.706 133.307C90.706 133.813 90.7693 134.129 90.8957 134.445C91.0221 134.698 91.2117 134.824 91.4646 134.824C91.591 134.824 91.7174 134.761 91.8438 134.698V133.876H91.4014V133.117H92.5391V135.267C92.3495 135.393 92.2231 135.456 91.9702 135.519C91.7806 135.583 91.5278 135.583 91.4014 135.583C90.9589 135.583 90.5796 135.393 90.39 134.951C90.1372 134.571 90.0107 133.939 90.0107 133.181C90.0107 132.485 90.1372 131.916 90.39 131.474C90.6428 131.095 91.0221 130.842 91.4646 130.842C91.591 130.842 91.7806 130.842 91.907 130.905C92.0334 130.968 92.2231 130.968 92.3495 131.032V132.169H92.0335C91.9702 131.98 91.7806 131.79 91.4646 131.79Z" fill="#47331F" stroke="#47331F" stroke-width="0.1907"/>
<path d="M93.8659 134.697L94.4347 131.789H94.0555L94.1819 131.094H95.5093L96.2678 134.697C96.2678 134.823 96.331 134.886 96.3942 134.886H96.5207V135.582H95.2565V134.886H95.5093L95.3829 134.002H94.5612L94.3715 134.886H94.6244V135.582H93.5498V134.886H93.7394C93.8027 134.886 93.8026 134.823 93.8659 134.697ZM94.6876 133.369H95.2565L95.0036 131.852H94.9404L94.6876 133.369Z" fill="#47331F" stroke="#47331F" stroke-width="0.1907"/>
<path d="M100.123 131.916V135.582H99.3648L98.227 132.674V134.886H98.4798V135.582H97.4053V134.886H97.5317C97.5949 134.886 97.6581 134.823 97.6581 134.76V131.916C97.6581 131.789 97.5949 131.789 97.5317 131.789H97.4053V131.094H98.4166L99.5544 134.065V131.789H99.3016V131.094H100.376V131.789H100.25C100.123 131.726 100.123 131.789 100.123 131.916Z" fill="#47331F" stroke="#47331F" stroke-width="0.1907"/>
<path d="M101.704 134.76V131.916C101.704 131.789 101.641 131.789 101.578 131.789H101.451V131.094H102.652V131.789H102.526C102.463 131.789 102.399 131.852 102.399 131.916V134.76C102.399 134.886 102.463 134.886 102.526 134.886H102.652V135.582H101.451V134.886H101.578C101.641 134.886 101.704 134.823 101.704 134.76Z" fill="#47331F" stroke="#47331F" stroke-width="0.1907"/>
<path d="M104.106 135.077C103.853 134.697 103.727 134.128 103.727 133.307C103.727 132.548 103.853 131.916 104.106 131.537C104.359 131.158 104.675 130.968 105.117 130.968C105.244 130.968 105.433 130.968 105.56 131.031C105.749 131.094 105.876 131.094 106.002 131.158V132.295H105.623C105.56 131.916 105.37 131.726 105.117 131.726C104.928 131.726 104.738 131.853 104.611 132.106C104.485 132.359 104.422 132.738 104.422 133.243C104.422 133.749 104.485 134.128 104.611 134.381C104.738 134.634 104.928 134.76 105.117 134.76C105.244 134.76 105.37 134.697 105.433 134.634C105.496 134.571 105.56 134.381 105.623 134.192H106.002V135.329C105.749 135.456 105.433 135.519 105.117 135.519C104.675 135.645 104.295 135.456 104.106 135.077Z" fill="#47331F" stroke="#47331F" stroke-width="0.1907"/>
<path d="M78.6326 100.885C89.6292 100.885 98.5436 89.31 98.5436 75.032C98.5436 60.7539 89.6292 49.1793 78.6326 49.1793C67.6361 49.1793 58.7217 60.7539 58.7217 75.032C58.7217 89.31 67.6361 100.885 78.6326 100.885Z" stroke="#47331F" stroke-width="0.5311" stroke-miterlimit="10"/>
<path d="M78.6331 103.475C90.7119 103.475 100.504 90.74 100.504 75.0307C100.504 59.3213 90.7119 46.5864 78.6331 46.5864C66.5544 46.5864 56.7627 59.3213 56.7627 75.0307C56.7627 90.74 66.5544 103.475 78.6331 103.475Z" stroke="#47331F" stroke-width="1.6383" stroke-miterlimit="10"/>
<path d="M78.6338 51.5176C88.6178 51.5178 96.7119 62.045 96.7119 75.0312C96.7118 88.0174 88.6178 98.5447 78.6338 98.5449C68.6497 98.5449 60.5557 88.0175 60.5557 75.0312C60.5557 62.0449 68.6496 51.5176 78.6338 51.5176ZM80.8457 56.7637C80.7826 56.7953 80.7194 56.8433 80.6562 56.8906C80.5932 56.938 80.5299 56.985 80.4668 57.0166H80.4033C80.3403 57.0167 80.2769 57.0795 80.2139 57.1426C80.1507 57.2058 80.1504 57.2064 80.1504 57.2695C80.0872 57.3325 80.0241 57.333 79.9609 57.333C79.9294 57.3331 79.8978 57.3485 79.8662 57.3643C79.8346 57.3801 79.8031 57.3955 79.7715 57.3955V57.459C79.7576 57.4867 79.7471 57.5119 79.7373 57.5342C79.7025 57.6134 79.6805 57.6626 79.582 57.7119L79.5186 57.7754L79.3291 58.1543C79.2659 58.2806 79.2028 58.3441 79.1396 58.4072C79.0766 58.4388 79.0288 58.4859 78.9814 58.5332C78.934 58.5806 78.8865 58.6286 78.8232 58.6602C78.7467 58.7367 78.6469 58.7904 78.5381 58.8486C78.4672 58.8866 78.3921 58.9267 78.3174 58.9766C78.2227 59.0082 78.1434 59.0552 78.0645 59.1025C77.9855 59.1499 77.9062 59.1969 77.8115 59.2285C77.8115 59.2285 77.7487 59.292 77.6855 59.292L77.5312 59.1943C77.51 59.1732 77.4961 59.1449 77.4961 59.1025L77.3691 58.9766C77.3691 58.9607 77.3654 58.9484 77.3594 58.9385L77.3164 58.8877C77.3103 58.8777 77.3066 58.8657 77.3066 58.8496C77.2434 58.7864 77.1794 58.6596 77.1162 58.5332C77.0558 58.5329 77.0538 58.475 77.0537 58.4707V58.9131C77.1168 58.9762 77.1804 59.0391 77.3066 59.0391C77.1803 59.1654 76.9907 59.1656 76.8643 59.1025C76.801 59.0709 76.737 59.0549 76.6738 59.0391C76.6108 59.0233 76.5474 59.0081 76.4844 58.9766C76.4847 59.0393 76.5479 59.0391 76.5479 59.0391L76.6113 59.1025C76.6124 59.1036 76.6195 59.1117 76.6738 59.166C76.6581 59.1661 76.6387 59.1699 76.6172 59.1758L76.4785 59.2188C76.4568 59.2247 76.4367 59.2285 76.4209 59.2285C76.3577 59.2917 76.2947 59.292 76.2314 59.292V59.3555L76.042 59.6719C76.0356 59.6751 75.9141 59.7363 75.8525 59.7979C75.7894 59.861 75.7891 59.9242 75.7891 59.9873C75.7891 60.0264 75.7648 60.0419 75.7314 60.0625C75.7109 60.0752 75.6871 60.0903 75.6631 60.1143C75.6 60.1143 75.5368 60.1771 75.4736 60.2402L75.4102 60.3037C75.4733 60.3667 75.5365 60.3672 75.5996 60.3672C75.6037 60.3712 75.6647 60.4294 75.7256 60.4297L75.5361 60.7461C75.5323 60.75 75.4738 60.811 75.4736 60.8721L75.3467 61.1885C75.3467 61.2516 75.3312 61.3148 75.3154 61.3779C75.2997 61.441 75.2833 61.5043 75.2832 61.5674C75.1568 61.6938 75.0938 61.8837 75.0938 62.0732C75.0938 62.1365 75.0935 62.263 75.0303 62.3262C74.9987 62.4208 74.9836 62.5157 74.9678 62.6104C74.952 62.7052 74.9359 62.8007 74.9043 62.8955C74.8413 62.9586 74.8408 63.0218 74.8408 63.085C74.8408 63.1006 74.8369 63.1201 74.8311 63.1416L74.7881 63.2803C74.7821 63.3021 74.7783 63.3221 74.7783 63.3379C74.7783 63.4012 74.7777 63.5277 74.8408 63.5908C74.767 63.6648 74.7142 63.7386 74.6709 63.7998C74.6403 63.8431 74.614 63.8801 74.5879 63.9062C74.5879 63.9379 74.6043 63.9539 74.6201 63.9697C74.6359 63.9855 74.6514 64.0017 74.6514 64.0332C74.6513 64.0647 74.6359 64.0964 74.6201 64.1279C74.6043 64.1595 74.5879 64.1911 74.5879 64.2227C74.5251 64.2855 74.5254 64.2858 74.5254 64.3486C74.5254 64.4117 74.5249 64.475 74.4619 64.5381C74.3988 64.6012 74.3984 64.6649 74.3984 64.791C74.4375 64.8301 74.4288 64.8456 74.416 64.8662C74.4081 64.8789 74.3984 64.8938 74.3984 64.918C74.3984 64.9336 74.3945 64.9531 74.3887 64.9746L74.3457 65.1133C74.3398 65.1351 74.335 65.1551 74.335 65.1709C74.3348 65.234 74.2721 65.2972 74.209 65.3604C74.1699 65.3604 74.1554 65.3846 74.1348 65.418C74.1221 65.4385 74.1069 65.4623 74.083 65.4863C74.083 65.4863 74.0193 65.5498 73.9561 65.5498C74.0193 65.5498 74.0195 65.6133 74.0195 65.6133C73.9564 65.6764 73.8932 65.6768 73.8301 65.6768C73.8298 65.708 73.798 65.7236 73.7666 65.7393C73.735 65.7551 73.7031 65.7711 73.7031 65.8027L73.5771 65.9287V66.1816C73.5139 66.1816 73.4502 66.2454 73.4502 66.3086C73.4501 66.3716 73.3873 66.3721 73.3242 66.3721C73.2854 66.411 73.2939 66.4258 73.3066 66.4463C73.3145 66.459 73.3242 66.4739 73.3242 66.498C73.261 66.6245 73.1973 66.624 73.1973 66.624C73.071 66.6873 73.0713 66.8144 73.0713 67.0039C73.1344 67.0672 73.1972 67.2565 73.1973 67.3828V67.6992C73.235 67.7181 73.2735 67.7315 73.3096 67.7441C73.3941 67.7738 73.4694 67.8001 73.5137 67.8887C73.5768 67.9518 73.64 68.0145 73.7031 68.0146L74.083 68.2051H74.7148C74.8186 68.2569 74.8801 68.2234 74.9688 68.1748C74.9878 68.1644 75.0081 68.1527 75.0303 68.1416C75.0934 68.0785 75.157 68.0148 75.2832 68.0146H75.3467C75.4099 67.9515 75.5368 67.8883 75.6631 67.8252C75.6946 67.7938 75.7263 67.7785 75.7578 67.7627C75.7894 67.7469 75.821 67.7308 75.8525 67.6992C75.8525 67.6677 75.868 67.6515 75.8838 67.6357C75.8996 67.6199 75.916 67.6039 75.916 67.5723C76.0421 67.5723 76.0423 67.5726 76.1055 67.6357V67.8252C76.1371 67.8568 76.1531 67.9047 76.1689 67.9521C76.1847 67.9993 76.2001 68.0466 76.2314 68.0781V68.1416C76.3578 68.3311 76.4846 68.5204 76.5479 68.71L76.7373 69.2158C76.8005 69.3422 76.8005 69.4693 76.7373 69.5957C76.6744 69.6586 76.6738 69.6586 76.6738 69.7217C76.6424 69.7532 76.6271 69.7849 76.6113 69.8164C76.5955 69.848 76.5794 69.8796 76.5479 69.9111C76.4847 69.9743 76.4209 70.0377 76.4209 70.1641C76.4209 70.1956 76.4054 70.2272 76.3896 70.2588C76.3739 70.2903 76.3585 70.322 76.3584 70.3535C76.3584 70.3776 76.3487 70.3926 76.3408 70.4053C76.3281 70.4259 76.3193 70.4414 76.3584 70.4805H76.4844C76.5264 70.5225 76.513 70.5644 76.499 70.6064C76.492 70.6275 76.4844 70.6489 76.4844 70.6699V70.8594C76.4844 70.8909 76.4689 70.9226 76.4531 70.9541C76.4374 70.9856 76.421 71.0173 76.4209 71.0488L76.3584 71.1123C76.2952 71.1755 76.1687 71.3023 76.1055 71.4287C76.0815 71.4527 76.0664 71.4765 76.0537 71.4971C76.0331 71.5304 76.0176 71.5547 75.9785 71.5547C75.8522 71.681 75.726 71.7444 75.5996 71.8076C75.5827 71.8246 75.5655 71.8371 75.5498 71.8486C75.507 71.88 75.4737 71.9048 75.4736 71.9971C75.4736 72.0131 75.469 72.0252 75.4629 72.0352L75.4199 72.0859C75.4139 72.0958 75.4102 72.1081 75.4102 72.124V72.1865C75.4622 72.2905 75.4286 72.3525 75.3799 72.4414C75.3694 72.4605 75.3578 72.4806 75.3467 72.5029C75.2835 72.6293 75.2204 72.6927 75.1572 72.7559C75.0309 72.9454 74.9041 73.1347 74.8408 73.3242L74.6514 73.7676C74.6199 73.862 74.5881 73.9408 74.5566 74.0195C74.5251 74.0985 74.4935 74.1778 74.4619 74.2725C74.4619 74.462 74.3987 74.6519 74.2725 74.7783C74.2409 74.8099 74.2248 74.8415 74.209 74.873C74.1932 74.9046 74.1771 74.9362 74.1455 74.9678C74.0981 75.0467 74.0474 75.1261 73.9941 75.2051L73.666 75.6797C73.6128 75.7586 73.561 75.8371 73.5137 75.916C73.5137 75.9791 73.4508 76.1056 73.3877 76.1689C73.3245 76.2953 73.245 76.4215 73.166 76.5479C73.087 76.6743 73.0075 76.8013 72.9443 76.9277L72.5654 77.4961C72.5023 77.6224 72.4546 77.7332 72.4072 77.8438C72.3599 77.9542 72.3131 78.0652 72.25 78.1914C72.2184 78.2546 72.1705 78.3341 72.123 78.4131C72.0758 78.4919 72.0287 78.5707 71.9971 78.6338C71.9005 78.7304 71.84 78.8645 71.7891 78.9785C71.7734 79.0136 71.759 79.0474 71.7441 79.0771C71.7116 79.1423 71.678 79.2028 71.6465 79.2617C71.5559 79.4313 71.4746 79.5849 71.4277 79.7725C71.3646 79.9619 71.3014 80.0885 71.2383 80.2148C71.112 80.4044 71.0485 80.6574 70.9854 80.9102L70.7959 81.4785C70.7959 81.5417 70.7795 81.5893 70.7637 81.6367C70.7479 81.6841 70.7324 81.7318 70.7324 81.7949C70.7216 81.8382 70.7107 81.8797 70.7002 81.9199C70.6494 82.1145 70.6064 82.2808 70.6064 82.4902C70.6064 82.5534 70.59 82.6166 70.5742 82.6797C70.5584 82.7428 70.543 82.806 70.543 82.8691C70.5001 83.0406 70.515 83.1834 70.5293 83.3164C70.536 83.3793 70.5429 83.4401 70.543 83.501V84.1338C70.5429 84.1969 70.5275 84.2601 70.5117 84.3232C70.4959 84.3864 70.4795 84.4495 70.4795 84.5127L70.29 84.7021C70.29 84.7652 70.2271 84.7656 70.1641 84.7656C70.0379 84.7656 69.9742 84.8285 69.9111 84.8916C69.7848 85.018 69.7214 85.0817 69.6582 85.208C69.595 85.2712 69.5947 85.3977 69.5947 85.4609V85.7139C69.5947 85.777 69.5951 85.8402 69.6582 85.9033C69.7846 86.0297 69.9107 86.1565 70.0371 86.2197C70.1002 86.2827 70.1635 86.2822 70.2266 86.2822H70.4795C70.4795 86.3454 70.543 86.3457 70.543 86.3457C70.5746 86.3773 70.6061 86.3935 70.6377 86.4014L70.8271 86.417C70.8588 86.4249 70.8902 86.441 70.9219 86.4727C70.9849 86.5358 71.0485 86.6613 71.0488 86.7246C71.0804 86.7562 71.0955 86.7887 71.1113 86.8203C71.1271 86.8519 71.1433 86.8835 71.1748 86.915C71.238 87.0413 71.3014 87.1045 71.4277 87.1045C71.4593 87.1045 71.4909 87.12 71.5225 87.1357C71.554 87.1515 71.5857 87.1679 71.6172 87.168C71.6804 87.2311 71.8073 87.2943 71.9336 87.3574C71.9338 87.4202 71.9966 87.4199 72.0596 87.4199C72.1228 87.4199 72.1868 87.4363 72.25 87.4521C72.313 87.4679 72.3764 87.4834 72.4395 87.4834C72.5317 87.4835 72.5565 87.5176 72.5879 87.5605C72.5994 87.5762 72.612 87.5934 72.6289 87.6104C72.6918 87.6733 72.6924 87.6733 72.6924 87.7363C72.6924 87.7524 72.6961 87.7644 72.7021 87.7744L72.7451 87.8252C72.7511 87.8351 72.7549 87.8474 72.7549 87.8633H72.8184C72.9448 87.8633 73.0081 87.926 73.0713 87.9893L73.2607 88.3057C73.2609 88.3367 73.2764 88.3526 73.292 88.3682C73.3078 88.384 73.3242 88.4001 73.3242 88.4316C73.3874 88.558 73.4505 88.6211 73.5137 88.6211C73.5137 88.6843 73.5134 88.748 73.4502 88.748C73.3241 88.8112 73.3242 88.8747 73.3242 89.001C73.3241 89.1273 73.2604 89.2536 73.1973 89.3799C73.1341 89.443 73.0706 89.5062 72.9443 89.5693C72.9286 89.5851 72.9094 89.5976 72.8877 89.6074L72.749 89.6582C72.7274 89.6681 72.7082 89.6805 72.6924 89.6963C72.6924 89.7593 72.6918 89.8222 72.6289 89.8223C72.5025 89.8855 72.3757 90.012 72.3125 90.0752H72.376C72.439 90.0121 72.4392 90.0117 72.502 90.0117V90.0752C72.5019 90.1357 72.4445 90.196 72.4395 90.2012L72.25 90.3916C72.25 90.3916 72.1867 90.3912 72.1865 90.4541C72.2471 90.454 72.3077 90.3963 72.3125 90.3916C72.3757 90.3284 72.4387 90.3284 72.502 90.3916V90.96C72.502 91.0231 72.5024 91.0863 72.5654 91.1494C72.5814 91.1494 72.5936 91.1457 72.6035 91.1396L72.6543 91.0967C72.6642 91.0907 72.6764 91.0869 72.6924 91.0869L72.7549 91.1494H72.8184L72.9443 91.2764C73.0075 91.2132 73.0081 91.2129 73.0713 91.2129L73.4502 91.4023C73.4501 91.3422 73.393 91.339 73.3877 91.3389C73.3874 91.2779 73.3275 91.2764 73.3242 91.2764L73.2607 91.2129V91.1494L73.3242 91.0869H73.6396C73.7278 91.0428 73.7859 91.0597 73.834 91.0742C73.8547 91.0805 73.8736 91.0868 73.8926 91.0869H74.2725L74.4619 91.2764C74.4935 91.2763 74.5096 91.2599 74.5254 91.2441C74.541 91.2285 74.5568 91.213 74.5879 91.2129H74.7783C74.8094 91.213 74.8252 91.2285 74.8408 91.2441C74.8566 91.2599 74.8727 91.2764 74.9043 91.2764H75.2832C75.3464 91.2764 75.4104 91.2761 75.4736 91.2129H77.4961C77.5276 91.213 77.5438 91.2284 77.5596 91.2441C77.5753 91.2599 77.5907 91.2763 77.6221 91.2764C77.7485 91.2132 77.8121 91.2129 77.9385 91.2129H78.002C78.0374 91.1776 78.0923 91.1615 78.1562 91.1436C78.2062 91.1295 78.2621 91.1145 78.3174 91.0869C78.3174 91.0237 78.3811 91.0234 78.4443 91.0234C78.5705 91.0234 78.6341 91.0232 78.6973 91.1494L78.8232 91.2764V91.4023H78.8867C78.9659 91.3627 78.9959 91.2984 79.0225 91.2402C79.0383 91.2057 79.0526 91.1729 79.0762 91.1494C79.1077 91.1179 79.1239 91.0862 79.1396 91.0547C79.1554 91.0232 79.1707 90.9914 79.2021 90.96C79.2022 90.8968 79.2659 90.834 79.3291 90.834V90.7705H79.6445C79.6782 90.7873 79.7168 90.7999 79.7559 90.8125C79.8634 90.8473 79.978 90.8843 80.0244 91.0234H80.0879L80.1504 90.96C80.2135 90.96 80.2139 90.8971 80.2139 90.834C80.3403 90.7708 80.3398 90.5805 80.3398 90.4541C80.3714 90.4225 80.4039 90.4228 80.4355 90.4229C80.467 90.4229 80.4988 90.423 80.5303 90.3916C80.5303 90.36 80.5138 90.3121 80.498 90.2646C80.4823 90.2175 80.4669 90.1702 80.4668 90.1387C80.4668 90.0123 80.4665 89.949 80.4033 89.8857L80.4668 89.8223V89.6963C80.4204 89.5572 80.3058 89.5202 80.1982 89.4854C80.1594 89.4728 80.1214 89.4601 80.0879 89.4434L79.9609 89.3164C79.8978 89.2533 79.8346 89.1905 79.7715 89.1904C79.7399 89.1904 79.7084 89.174 79.6768 89.1582C79.6452 89.1424 79.6135 89.127 79.582 89.127C79.5821 89.067 79.6387 89.0636 79.6445 89.0635H80.0244C79.9751 88.9649 79.9251 88.943 79.8457 88.9082C79.8235 88.8985 79.799 88.8878 79.7715 88.874C79.6452 88.8109 79.5188 88.8105 79.3926 88.8105H79.0762C79.0762 88.8105 79.0132 88.8737 78.9502 88.874C78.8577 88.874 78.798 88.9082 78.7236 88.9512C78.6965 88.9668 78.6675 88.9841 78.6338 89.001C78.6335 89.0638 78.5703 89.0635 78.5703 89.0635C78.5101 89.0634 78.507 89.0062 78.5068 89.001C78.5068 88.9378 78.5073 88.8741 78.5703 88.874L78.6338 88.8105C78.6336 88.7791 78.6183 88.7473 78.6025 88.7158C78.5868 88.6842 78.5703 88.6527 78.5703 88.6211C78.6093 88.5821 78.6249 88.5918 78.6455 88.6045C78.6582 88.6123 78.6734 88.6211 78.6973 88.6211H78.8232C78.8233 88.5899 78.8389 88.5742 78.8545 88.5586C78.8703 88.5428 78.8867 88.5266 78.8867 88.4951C78.95 88.495 79.0765 88.4313 79.1396 88.3682V88.3057C79.1227 88.2718 79.1056 88.2421 79.0898 88.2148C79.0469 88.1405 79.0127 88.0818 79.0127 87.9893L79.0762 87.9258C79.1392 87.8627 79.1396 87.8627 79.1396 87.7363C79.1397 87.7048 79.1551 87.6886 79.1709 87.6729C79.1866 87.6572 79.202 87.6416 79.2021 87.6104C79.2338 87.6104 79.2662 87.6258 79.2979 87.6416C79.3293 87.6573 79.3611 87.6729 79.3926 87.6729C79.4525 87.6726 79.455 87.6156 79.4551 87.6104C79.4551 87.4839 79.5188 87.4199 79.582 87.4199C79.5817 87.3569 79.5181 87.2935 79.4551 87.2305V87.1045L79.5186 87.168C79.5224 87.1719 79.582 87.2328 79.582 87.2939H79.6445V87.2305C79.5815 87.104 79.582 86.9144 79.582 86.7881C79.5821 86.7283 79.6387 86.7248 79.6445 86.7246H79.7715C79.8979 86.6615 80.0875 86.6621 80.2139 86.6621C80.2454 86.6621 80.2925 86.6456 80.3398 86.6299C80.3873 86.6141 80.4352 86.5986 80.4668 86.5986C80.5931 86.5354 80.6565 86.4724 80.7197 86.4092L80.8457 86.2822C80.8475 86.2805 80.9103 86.2197 80.9727 86.2197C81.099 86.1565 81.2252 86.0928 81.3516 86.0928C81.4148 86.0928 81.4778 86.0925 81.541 86.0293C81.5409 85.9981 81.5254 85.9825 81.5098 85.9668C81.494 85.951 81.4785 85.9349 81.4785 85.9033H81.541C81.541 85.9665 81.6048 85.9668 81.668 85.9668C81.7312 85.9036 81.7305 85.9031 81.7305 85.8398H81.8574C81.9205 85.7135 81.9203 85.5873 81.7939 85.4609C81.7309 85.4608 81.7305 85.3975 81.7305 85.3975V85.334L81.7939 85.2715C81.7625 85.2714 81.7462 85.255 81.7305 85.2393C81.7148 85.2236 81.6991 85.2081 81.668 85.208C81.6049 85.208 81.6045 85.1451 81.6045 85.082C81.6676 84.9558 81.668 84.8922 81.668 84.8291C81.6048 84.6395 81.6045 84.5128 81.6045 84.3232L81.541 84.2598L81.4785 84.1963V84.0068C81.3819 83.9103 81.2478 83.8508 81.1338 83.7998C81.0986 83.7841 81.0649 83.7688 81.0352 83.7539C81.0143 83.7331 80.9935 83.719 80.9727 83.7051C80.9305 83.677 80.8878 83.6487 80.8457 83.5645C80.8457 83.5488 80.8418 83.5332 80.8359 83.5176L80.793 83.4219C80.7871 83.4062 80.7832 83.3907 80.7832 83.375C80.72 83.3118 80.72 83.3113 80.7832 83.248C80.8148 83.2639 80.8463 83.2839 80.8779 83.3057L81.0674 83.4443C81.0989 83.466 81.1306 83.4852 81.1621 83.501C81.162 83.438 81.1302 83.4065 81.0986 83.375C81.0671 83.3434 81.0352 83.3112 81.0352 83.248C81.1144 83.2084 81.1443 83.2438 81.1709 83.2754C81.1867 83.2941 81.2021 83.3115 81.2256 83.3115C81.1957 83.222 81.1514 83.1606 81.1133 83.1074C81.0708 83.0482 81.0352 82.9992 81.0352 82.9326C81.051 82.9326 81.0634 82.9364 81.0732 82.9424L81.124 82.9854C81.134 82.9915 81.146 82.9961 81.1621 82.9961C81.2236 82.996 81.2255 82.9357 81.2256 82.9326V82.8691C81.2257 82.8085 81.2837 82.8648 81.2881 82.8691C81.2881 82.9082 81.3123 82.9237 81.3457 82.9443C81.3663 82.9571 81.3909 82.972 81.415 82.9961H81.4785C81.5417 82.9329 81.541 82.9323 81.541 82.8691H81.6045C81.602 82.8667 81.5412 82.805 81.541 82.7432V82.6162C81.541 82.6162 81.6048 82.5537 81.668 82.5537C81.668 82.4905 81.6045 82.4902 81.6045 82.4902L81.541 82.4268C81.4779 82.3636 81.415 82.3001 81.415 82.1738H81.668L81.7939 82.0479C81.8571 82.0479 81.8574 82.0476 81.8574 81.9844C81.9194 81.9843 81.981 81.9233 81.9834 81.9209C81.9835 81.8895 81.9999 81.8741 82.0156 81.8584C82.0314 81.8426 82.0468 81.8264 82.0469 81.7949H82.2363V81.668H82.6162L82.8057 81.4785C82.8057 81.5416 82.8685 81.542 82.9316 81.542C82.9632 81.542 82.9639 81.5257 82.9639 81.502C82.9639 81.4783 82.9637 81.4465 82.9951 81.415H83.248V81.2256C83.248 81.1623 83.2484 81.0358 83.3115 80.9727C83.3853 80.9727 83.416 80.9948 83.4414 81.0127C83.4593 81.0254 83.4748 81.0361 83.501 81.0361C83.5324 81.0046 83.5322 80.9574 83.5322 80.9102C83.5322 80.8627 83.5328 80.8148 83.5645 80.7832C83.5958 80.7833 83.6112 80.7997 83.627 80.8154C83.6427 80.8312 83.6589 80.8467 83.6904 80.8467H83.8799C83.9431 80.9099 83.9437 80.9101 84.0068 81.0996L84.1963 81.2891C84.2001 81.2891 84.2598 81.2913 84.2598 81.3525C84.2913 81.4472 84.3065 81.5266 84.3223 81.6055C84.338 81.6844 84.3542 81.7637 84.3857 81.8584V81.9844C84.3857 82.0476 84.3703 82.0952 84.3545 82.1426C84.3387 82.19 84.3223 82.2376 84.3223 82.3008C84.3223 82.4271 84.3226 82.5534 84.3857 82.6797C84.4173 82.7429 84.4334 82.806 84.4492 82.8691C84.465 82.9322 84.4803 82.9955 84.5117 83.0586C84.5117 83.0901 84.5282 83.1218 84.5439 83.1533C84.5597 83.1848 84.575 83.2166 84.5752 83.248V83.3115C84.7016 83.3115 84.7646 83.4381 84.7646 83.5645H84.8916C84.9881 83.6609 85.0477 83.7943 85.0986 83.9082C85.1144 83.9434 85.1296 83.977 85.1445 84.0068C85.1445 84.067 85.2015 84.0702 85.207 84.0703C85.207 84.0722 85.2085 84.1341 85.2705 84.1963L85.334 84.2598C85.3452 84.2822 85.3567 84.3031 85.3672 84.3223C85.4158 84.4108 85.4494 84.4724 85.3975 84.5762V84.6387C85.4124 84.6536 85.4266 84.6729 85.4424 84.6924C85.4933 84.7554 85.5539 84.8291 85.6504 84.8291C85.6558 84.8346 85.7128 84.8949 85.7129 84.9551C85.7129 85.0182 85.7762 85.1443 85.9023 85.1445C86.0288 85.1445 86.1558 85.2083 86.2822 85.2715H86.3457C86.535 85.2716 86.5983 85.3346 86.7246 85.4609L86.7881 85.5244C86.8511 85.4614 86.9767 85.4609 87.04 85.4609C87.1032 85.3977 87.1673 85.3975 87.2305 85.3975C87.2936 85.366 87.3723 85.3498 87.4512 85.334C87.5302 85.3182 87.6096 85.3031 87.6729 85.2715C87.8623 85.2083 87.9889 85.1452 88.1152 85.082C88.1762 85.0819 88.2371 85.0226 88.2412 85.0186C88.3044 84.8921 88.4315 84.7656 88.6211 84.7656V84.6387C88.6209 84.6074 88.6046 84.5919 88.5889 84.5762C88.5731 84.5604 88.5576 84.5443 88.5576 84.5127C88.5576 84.3863 88.6207 84.3233 88.7471 84.3232H88.9365V84.2598C88.9175 84.2407 88.8987 84.2156 88.8779 84.1885C88.8298 84.1258 88.7717 84.0509 88.6836 84.0068C88.6522 83.9753 88.6368 83.9436 88.6211 83.9121C88.6053 83.8805 88.5892 83.849 88.5576 83.8174C88.4944 83.7542 88.4938 83.7539 88.4307 83.7539H88.2412C88.1859 83.7263 88.1301 83.7113 88.0801 83.6973C88.0162 83.6793 87.9612 83.6632 87.9258 83.6279C87.8626 83.5648 87.7991 83.5645 87.6729 83.5645H87.3564C87.23 83.5013 87.0404 83.501 86.9141 83.501H86.8506L86.6611 83.3115C86.661 83.2273 86.605 83.1428 86.5488 83.0586C86.5208 83.0166 86.4927 82.9746 86.4717 82.9326C86.4401 82.901 86.424 82.8531 86.4082 82.8057C86.3925 82.7585 86.377 82.7112 86.3457 82.6797C86.2638 82.5569 86.2344 82.4071 86.207 82.2656C86.1922 82.1889 86.1775 82.1145 86.1553 82.0479C86.1542 82.0468 86.0928 81.9836 86.0928 81.9209C86.0796 81.8814 86.0663 81.8447 86.0537 81.8096C86.0059 81.6761 85.9658 81.5651 85.9658 81.415C85.9344 81.3835 85.9181 81.3518 85.9023 81.3203C85.8866 81.2889 85.8713 81.257 85.8398 81.2256L85.7764 81.1631V80.9727C85.759 80.938 85.7368 80.9032 85.7139 80.8672C85.6532 80.7721 85.5869 80.6677 85.5869 80.5303H85.46C85.3971 80.4674 85.3975 80.4672 85.3975 80.4043C85.3975 80.3727 85.3926 80.345 85.3867 80.3193L85.3438 80.1729C85.3378 80.1472 85.334 80.1194 85.334 80.0879C85.2709 79.9617 85.2705 79.8986 85.2705 79.7725V79.582C85.2704 79.5505 85.255 79.5188 85.2393 79.4873C85.2235 79.4557 85.207 79.4241 85.207 79.3926C85.2702 79.3926 85.3343 79.3928 85.3975 79.4561C85.429 79.4875 85.4607 79.5038 85.4922 79.5195C85.5236 79.5353 85.5555 79.5506 85.5869 79.582C85.6472 79.5819 85.6503 79.5245 85.6504 79.5195C85.6504 79.5036 85.6457 79.4914 85.6396 79.4814L85.5967 79.4307C85.5906 79.4207 85.5869 79.4086 85.5869 79.3926V79.2031C85.5869 79.1399 85.6504 79.2031 85.6504 79.2031C85.7136 79.3294 85.7767 79.3929 85.8398 79.4561C85.9027 79.5189 85.9023 79.5193 85.9023 79.582C85.9656 79.7085 86.1558 79.8352 86.2822 79.8984C86.3787 79.8986 86.4383 79.9722 86.4893 80.0352C86.505 80.0546 86.5202 80.073 86.5352 80.0879C86.598 80.0881 86.5977 80.1514 86.5977 80.1514H86.7246C86.7561 80.1829 86.7723 80.2301 86.7881 80.2773C86.8039 80.3247 86.819 80.3727 86.8506 80.4043C86.8507 80.4656 86.9111 80.4072 86.9141 80.4043C86.9141 80.3411 86.9143 80.2773 86.9775 80.2773C87.0514 80.2774 87.0599 80.3215 87.0674 80.3574C87.0726 80.3826 87.0776 80.4042 87.1035 80.4043C87.2299 80.4043 87.3564 80.4673 87.3564 80.5938C87.3564 80.6253 87.341 80.6569 87.3252 80.6885C87.3094 80.72 87.293 80.7517 87.293 80.7832V80.8467C87.3562 80.9099 87.3567 80.9102 87.4199 80.9102C87.4198 80.9416 87.4034 80.9734 87.3877 81.0049C87.372 81.0363 87.3564 81.0681 87.3564 81.0996V81.2256C87.3564 81.2415 87.3527 81.2537 87.3467 81.2637L87.3037 81.3145C87.2976 81.3244 87.293 81.3365 87.293 81.3525C87.3245 81.4156 87.3562 81.4944 87.3877 81.5732C87.4193 81.6523 87.4518 81.7317 87.4834 81.7949C87.5466 81.7952 87.6722 81.8579 87.7354 81.9209C87.7669 81.9525 87.8149 81.984 87.8623 82.0156C87.9095 82.0471 87.9567 82.0789 87.9883 82.1104V82.2373C88.1146 82.4268 88.2412 82.5533 88.4307 82.6797V82.8057C88.4307 82.8689 88.4944 82.9329 88.5576 82.9961C88.5733 82.9961 88.5888 83 88.6045 83.0059L88.7002 83.0488C88.7159 83.0547 88.7314 83.0586 88.7471 83.0586C88.7786 83.0744 88.8102 83.0945 88.8418 83.1162L89.0312 83.2549C89.0627 83.2765 89.0945 83.2958 89.126 83.3115L89.5059 83.501C89.6323 83.5642 89.8218 83.5642 89.9482 83.501H90.0117C90.0749 83.5325 90.1535 83.5332 90.2324 83.5332C90.3114 83.5332 90.3909 83.5328 90.4541 83.5645C90.5172 83.5646 90.5805 83.6283 90.6436 83.6914C90.6438 83.7877 90.7173 83.8475 90.7803 83.8984C90.7996 83.9141 90.8182 83.9286 90.833 83.9434C90.8961 83.9434 90.8965 83.9438 90.8965 83.8809C90.9373 83.8401 90.9256 83.7727 90.9121 83.6963C90.9047 83.6543 90.8965 83.6092 90.8965 83.5645C90.8965 83.5013 90.8962 83.4382 90.833 83.375C90.8014 83.3434 90.7853 83.3119 90.7695 83.2803C90.7538 83.2488 90.7384 83.217 90.707 83.1855C90.707 83.1224 90.7066 82.9959 90.6436 82.9326C90.6436 82.8694 90.5798 82.7429 90.5166 82.6797C90.4537 82.6166 90.4541 82.5533 90.4541 82.4902C90.4541 82.427 90.3903 82.364 90.3271 82.3008C90.303 82.2766 90.2881 82.2521 90.2754 82.2314C90.2548 82.1982 90.2401 82.1739 90.2012 82.1738C90.1696 82.1106 90.1216 82.063 90.0742 82.0156C90.027 81.9684 89.9798 81.9213 89.9482 81.8584V81.7314C89.9798 81.6999 90.0114 81.6838 90.043 81.668C90.0744 81.6522 90.1062 81.6369 90.1377 81.6055V81.542L89.7588 81.0361C89.7431 81.0204 89.7306 81.005 89.7207 80.9893L89.6699 80.8936C89.6601 80.8778 89.6476 80.8624 89.6318 80.8467L89.4424 80.6572C89.4108 80.5941 89.3637 80.5464 89.3164 80.499C89.269 80.4516 89.2211 80.404 89.1895 80.3408C89.1264 80.2777 89.126 80.2145 89.126 80.1514C89.126 80.0882 89.1264 80.025 89.0635 79.9619C89.0003 79.8987 89 79.8981 89 79.835C89 79.7718 88.9845 79.7086 88.9688 79.6455C88.953 79.5823 88.9365 79.5192 88.9365 79.4561H89C89.0316 79.4876 89.0477 79.5192 89.0635 79.5508C89.0792 79.5823 89.0946 79.614 89.126 79.6455C89.126 79.7086 89.1265 79.7718 89.1895 79.835V79.582C89.1265 79.5189 89.126 79.4557 89.126 79.3926C89.1259 79.3318 89.0678 79.271 89.0635 79.2666C89.0003 79.2034 88.9366 79.0769 88.9365 79.0137V78.9502C88.8736 78.8871 88.8421 78.8083 88.8105 78.7295C88.7789 78.6505 88.7468 78.571 88.6836 78.5078C88.6645 78.4887 88.6458 78.4636 88.625 78.4365C88.5769 78.3738 88.5188 78.299 88.4307 78.2549L88.3682 78.1914C88.3366 78.1283 88.2885 78.0815 88.2412 78.0342C88.1939 77.9868 88.1468 77.9391 88.1152 77.876C88.1152 77.8128 88.1787 77.876 88.1787 77.876C88.305 77.9391 88.4313 78.0026 88.5576 78.1289H88.6211L88.4941 78.002C88.4501 77.9139 88.3751 77.8567 88.3125 77.8086C88.2853 77.7877 88.2603 77.7681 88.2412 77.749C88.21 77.7489 88.1944 77.7334 88.1787 77.7178C88.1629 77.702 88.1467 77.6866 88.1152 77.6865C88.0837 77.6865 88.0521 77.6701 88.0205 77.6543C87.989 77.6385 87.9573 77.6232 87.9258 77.623C87.8942 77.5914 87.8462 77.5599 87.7988 77.5283C87.7516 77.4968 87.7044 77.4651 87.6729 77.4336C87.5465 77.3704 87.4831 77.3064 87.4199 77.2432C87.3567 77.3064 87.3562 77.3066 87.293 77.3066C87.2615 77.2752 87.2297 77.2589 87.1982 77.2432C87.1668 77.2274 87.135 77.2121 87.1035 77.1807C87.0403 77.1175 86.9773 77.0537 86.9141 77.0537C86.8825 77.0537 86.8664 77.0383 86.8506 77.0225C86.8349 77.0068 86.8193 76.9913 86.7881 76.9912C86.5353 76.8016 86.2821 76.6118 86.0293 76.4854C85.9661 76.4854 85.9023 76.4219 85.9023 76.4219C85.8395 76.3904 85.7923 76.3431 85.7451 76.2959C85.6977 76.2485 85.6501 76.2006 85.5869 76.1689C85.5479 76.1689 85.5323 76.1447 85.5117 76.1113C85.499 76.0908 85.484 76.067 85.46 76.043V75.9795C85.5021 75.9374 85.5448 75.9518 85.5869 75.9658C85.6079 75.9728 85.6294 75.9795 85.6504 75.9795C85.6815 75.9797 85.6973 75.9951 85.7129 76.0107C85.7287 76.0265 85.7448 76.043 85.7764 76.043V75.9795C85.7132 75.9795 85.7129 75.916 85.7129 75.916C85.7128 75.8845 85.6974 75.8528 85.6816 75.8213C85.6658 75.7897 85.6504 75.7581 85.6504 75.7266C85.5872 75.6634 85.5235 75.6003 85.5234 75.5371H85.5869C85.5869 75.5055 85.5705 75.4894 85.5547 75.4736C85.539 75.4579 85.5234 75.4416 85.5234 75.4102C85.5233 75.379 85.5078 75.3633 85.4922 75.3477C85.4764 75.3319 85.46 75.3157 85.46 75.2842C85.3971 75.2213 85.3975 75.2209 85.3975 75.1582C85.3343 75.095 85.334 75.0945 85.334 75.0312C85.4604 75.0944 85.5237 75.1578 85.5869 75.2842H85.6504C85.6504 75.3451 85.7088 75.3476 85.7129 75.3477C85.7129 75.3162 85.6974 75.2844 85.6816 75.2529C85.6659 75.2215 85.6505 75.1897 85.6504 75.1582V75.0312C85.7131 75.0312 85.7133 75.0317 85.7764 75.0947L85.9658 75.2842V75.2207L85.7764 74.8418C85.7448 74.7787 85.6977 74.7309 85.6504 74.6836C85.603 74.6362 85.555 74.5886 85.5234 74.5254C85.52 74.5219 85.4601 74.4607 85.46 74.3994C85.46 74.3994 85.5234 74.3991 85.5234 74.3359C85.4603 74.3359 85.46 74.2725 85.46 74.2725H85.5234L85.6504 74.3994C85.6815 74.3996 85.6972 74.415 85.7129 74.4307C85.7287 74.4465 85.7448 74.4619 85.7764 74.4619C85.7132 74.3988 85.6504 74.3356 85.6504 74.2725H85.8398C85.8445 74.2726 85.9051 74.2753 85.9658 74.3359C85.9973 74.3359 85.998 74.3204 85.998 74.2969C85.998 74.2732 85.9978 74.2415 86.0293 74.21H86.0928C86.1559 74.2102 86.2191 74.2729 86.2822 74.3359C86.3138 74.3675 86.3454 74.4155 86.377 74.4629C86.4085 74.5102 86.4402 74.5573 86.4717 74.5889V74.5254C86.4715 74.4621 86.4088 74.3356 86.3457 74.2725C86.2516 74.0842 86.1215 73.9662 85.9834 73.8398C85.9362 73.7967 85.8881 73.7523 85.8398 73.7041L85.7764 73.6406C85.7764 73.5775 85.7767 73.5771 85.8398 73.5771L85.9023 73.6406H86.0928C86.0927 73.5794 86.0329 73.5772 86.0293 73.5771C85.9662 73.5141 85.9029 73.4514 85.8398 73.4512C85.8083 73.4196 85.7766 73.4035 85.7451 73.3877C85.7135 73.3719 85.682 73.3558 85.6504 73.3242C85.6502 73.2856 85.6259 73.2705 85.5928 73.25C85.5722 73.2373 85.5476 73.2224 85.5234 73.1982C85.5234 73.135 85.5869 73.1348 85.5869 73.1348C85.6289 73.093 85.6709 73.1071 85.7129 73.1211C85.734 73.1281 85.7553 73.1348 85.7764 73.1348C85.9658 73.1979 86.0925 73.2611 86.2188 73.3242C86.2816 73.2612 86.2188 73.2617 86.2188 73.2617L86.1553 73.1982C86.1216 73.1814 86.0926 73.1641 86.0654 73.1484C85.9911 73.1055 85.9322 73.0723 85.8398 73.0723C85.7768 73.0407 85.7134 73.0245 85.6504 73.0088C85.5872 72.993 85.5232 72.9769 85.46 72.9453C85.439 72.9452 85.4184 72.931 85.3975 72.9102L85.2705 72.7559C85.2073 72.6927 85.2708 72.6289 85.334 72.6289C85.3759 72.5872 85.418 72.6013 85.46 72.6152C85.481 72.6222 85.5024 72.6289 85.5234 72.6289C85.555 72.6289 85.5866 72.6453 85.6182 72.6611C85.6497 72.6769 85.6814 72.6923 85.7129 72.6924V72.6289C85.6499 72.5659 85.5871 72.5029 85.5869 72.377C85.5909 72.3769 85.6503 72.3744 85.6504 72.3135C85.6504 72.2524 85.5909 72.2501 85.5869 72.25C85.5554 72.25 85.5237 72.2345 85.4922 72.2188C85.4607 72.203 85.4289 72.1866 85.3975 72.1865V72.124C85.4605 72.124 85.5238 72.1236 85.5869 72.0605H85.7129C85.7445 72.0605 85.7924 72.076 85.8398 72.0918C85.8871 72.1076 85.9343 72.124 85.9658 72.124C85.9658 72.1072 85.9616 72.0946 85.9658 72.0879C85.9776 72.0698 86.0554 72.094 86.4717 72.1865C86.4088 72.1236 86.4084 72.124 86.3457 72.124V71.9971C86.2825 71.9339 86.2185 71.9336 86.1553 71.9336H85.8398C85.7134 71.9336 85.6504 71.8706 85.6504 71.7441V71.6182C85.6504 71.6182 85.5869 71.6179 85.5869 71.5547V71.4287C85.5238 71.3655 85.5232 71.3652 85.46 71.3652C85.3339 71.3652 85.334 71.3646 85.334 71.2383C85.3776 71.1943 85.3602 71.1201 85.3457 71.0576C85.3394 71.0306 85.3341 71.0054 85.334 70.9863C85.334 70.9549 85.3184 70.9386 85.3027 70.9229C85.2869 70.907 85.2705 70.891 85.2705 70.8594C85.2074 70.7332 85.2076 70.7322 85.1445 70.543C85.0813 70.5219 85.0314 70.4875 84.9893 70.4453L84.7646 70.1641C84.7015 70.0378 84.638 69.975 84.5117 69.8486L84.3223 69.6582C84.2343 69.6141 84.177 69.5392 84.1289 69.4766C84.1081 69.4494 84.0884 69.4244 84.0693 69.4053L83.8799 69.2158V69.0264C83.8167 68.9 83.7691 68.7738 83.7217 68.6475C83.6743 68.521 83.6277 68.394 83.5645 68.2676C83.5328 68.236 83.5168 68.2045 83.501 68.1729C83.4852 68.1413 83.4691 68.1097 83.4375 68.0781L83.0586 67.5098C82.9322 67.3201 82.8689 67.1298 82.8057 66.877C82.7888 66.8432 82.7715 66.8142 82.7559 66.7871C82.7129 66.7128 82.6788 66.6539 82.6787 66.5615L82.7422 66.498C82.6159 66.3718 82.4895 66.2454 82.4893 66.1191H82.5527C82.6157 66.1191 82.6159 66.1188 82.6787 66.1816C82.7103 66.2132 82.7583 66.2448 82.8057 66.2764C82.8531 66.308 82.9 66.3405 82.9316 66.3721C82.9319 66.4343 82.9941 66.4346 82.9951 66.4346L83.0586 66.3721C82.9955 66.2459 82.9322 66.1822 82.8691 66.1191C82.8691 66.056 82.8688 66.0557 82.9316 66.0557C82.9948 66.1189 82.9954 66.1191 83.0586 66.1191C83.1194 66.119 83.0622 66.0593 83.0586 66.0557C83.0586 66.0241 83.0422 66.008 83.0264 65.9922C83.0107 65.9765 82.9951 65.9601 82.9951 65.9287C82.932 65.9287 82.9316 65.9291 82.9316 65.8662C83.058 65.8662 83.1848 65.929 83.248 65.9922C83.3097 65.9304 83.2505 65.9287 83.248 65.9287L83.1846 65.8662C83.153 65.8346 83.1214 65.7867 83.0898 65.7393C83.0583 65.692 83.0266 65.6448 82.9951 65.6133C82.9635 65.5817 82.9474 65.5501 82.9316 65.5186C82.9159 65.4871 82.9005 65.4553 82.8691 65.4238C82.8059 65.4238 82.8059 65.3604 82.8691 65.3604C82.9429 65.3605 82.9737 65.4036 82.999 65.4395C83.017 65.4649 83.0324 65.4863 83.0586 65.4863V65.4238C83.0586 65.3637 83.1155 65.3605 83.1211 65.3604V65.2969C83.121 65.2654 83.1056 65.2492 83.0898 65.2334C83.0742 65.2177 83.0587 65.2021 83.0586 65.1709C83.0272 65.1709 83.0109 65.1709 83.0029 65.1631C82.995 65.1552 82.9951 65.139 82.9951 65.1074C83.0691 65.1074 83.1217 65.1506 83.165 65.1865C83.1957 65.2119 83.2219 65.2334 83.248 65.2334L83.1846 65.1709L83.1211 65.1074L83.0586 65.0439C83.0587 64.9914 83.0806 64.9499 83.1016 64.9102C83.131 64.8544 83.1578 64.8021 83.1211 64.7285C83.2136 64.7285 83.2391 64.6943 83.2705 64.6514C83.282 64.6357 83.2946 64.6185 83.3115 64.6016L83.248 64.5381C83.2795 64.5067 83.3113 64.4913 83.3428 64.4756C83.3744 64.4598 83.4059 64.4437 83.4375 64.4121C83.5007 64.3489 83.501 64.2224 83.501 64.1592C83.3644 64.0681 83.2931 63.9445 83.2168 63.8115C83.1872 63.7598 83.1565 63.7064 83.1211 63.6533H83.1846L83.3115 63.7803C83.3744 63.8432 83.3745 63.8428 83.4375 63.8428C83.3748 63.7797 83.4379 63.7164 83.501 63.6533C83.5641 63.6533 83.6269 63.6537 83.627 63.7168C83.6585 63.7484 83.6746 63.78 83.6904 63.8115C83.7062 63.8431 83.7223 63.8746 83.7539 63.9062V63.7168L83.6904 63.6533V63.4639C83.6904 63.3375 83.6901 63.2113 83.627 63.085C83.5955 63.0535 83.5802 63.0217 83.5645 62.9902C83.5487 62.9587 83.5324 62.927 83.501 62.8955C83.4378 62.8323 83.4375 62.7683 83.4375 62.7051C83.4691 62.7051 83.5006 62.7215 83.5322 62.7373C83.5637 62.7531 83.5954 62.7685 83.627 62.7686C83.6429 62.7686 83.6551 62.7648 83.665 62.7588L83.7158 62.7158C83.7258 62.7098 83.7379 62.7051 83.7539 62.7051V62.5791L83.8164 62.5156V62.3896H83.8799C83.8959 62.3896 83.908 62.3934 83.918 62.3994L83.9688 62.4424C83.9787 62.4484 83.9909 62.4531 84.0068 62.4531V62.3896C83.9753 62.3581 83.9591 62.3264 83.9434 62.2949C83.9276 62.2634 83.9114 62.2318 83.8799 62.2002V62.1367C83.9431 62.0735 83.9434 62.1367 83.9434 62.1367C84.0697 62.2631 84.2594 62.3889 84.3857 62.4521C84.3226 62.3259 84.2591 62.1995 84.1328 62.0732C84.0696 62.0101 84.0065 61.9467 83.9434 61.8203V61.7578H84.0693C84.0377 61.7262 84.0226 61.6937 84.0068 61.6621C83.9911 61.6306 83.9749 61.5989 83.9434 61.5674C83.8803 61.5043 83.8796 61.5049 83.8164 61.5049C83.7532 61.4417 83.6904 61.3776 83.6904 61.3145C83.6554 61.2793 83.6791 61.264 83.707 61.2461C83.729 61.232 83.7539 61.2162 83.7539 61.1885C83.7539 61.1495 83.7295 61.1348 83.6963 61.1143C83.6757 61.1015 83.6511 61.0866 83.627 61.0625V60.9355C83.7534 60.9355 83.8801 61.0623 83.9434 61.252C83.9602 61.2857 83.9775 61.3147 83.9932 61.3418C84.0361 61.4161 84.0693 61.475 84.0693 61.5674C84.0934 61.5915 84.1084 61.6161 84.1211 61.6367C84.1417 61.6701 84.1572 61.6943 84.1963 61.6943V61.6309C84.1331 61.6309 84.1328 61.5674 84.1328 61.5674C84.1327 61.5359 84.1173 61.5042 84.1016 61.4727C84.0858 61.4411 84.0693 61.4095 84.0693 61.3779C84.0693 61.2855 84.0361 61.2267 83.9932 61.1523C83.9775 61.1252 83.9602 61.0962 83.9434 61.0625C83.9275 61.0467 83.9152 61.0266 83.9053 61.0049L83.8545 60.8662C83.8446 60.8446 83.8322 60.8253 83.8164 60.8096L83.8799 60.7461L83.627 60.4932C83.5789 60.4451 83.5401 60.4151 83.5068 60.3896C83.4528 60.3484 83.4131 60.3184 83.374 60.2402H83.4375C83.5007 60.2402 83.627 60.304 83.627 60.3672C83.6273 60.4302 83.6908 60.4932 83.7539 60.4932C83.8171 60.5563 83.8802 60.6198 83.9434 60.7461C83.9434 60.6197 83.8796 60.4929 83.8164 60.4297L83.5645 60.2402C83.5645 60.1771 83.6272 60.1768 83.6904 60.1768C83.659 60.1453 83.6272 60.13 83.5957 60.1143C83.5641 60.0985 83.5325 60.0823 83.501 60.0508C83.4379 59.9877 83.3742 59.9244 83.374 59.8613H83.4375C83.4691 59.8929 83.5171 59.908 83.5645 59.9238C83.6117 59.9396 83.6589 59.9558 83.6904 59.9873H83.7539C83.756 59.9893 83.8164 60.0494 83.8164 59.9873C83.7788 59.9686 83.741 59.955 83.7051 59.9424C83.6205 59.9127 83.5453 59.8864 83.501 59.7979L83.5645 59.7344C83.5328 59.7028 83.5004 59.6877 83.4688 59.6719C83.4372 59.6561 83.4056 59.6399 83.374 59.6084V59.4814L83.4375 59.5449C83.5542 59.6616 83.6714 59.7245 83.8379 59.7832C83.8173 59.7645 83.8164 59.7344 83.8164 59.7344C83.7839 59.7019 83.7559 59.6691 83.7285 59.6377C83.6496 59.5471 83.5781 59.4658 83.4375 59.4189C83.3743 59.4189 83.3112 59.3552 83.248 59.292H83.5645C83.5328 59.2604 83.5004 59.2443 83.4688 59.2285C83.4373 59.2128 83.4055 59.1974 83.374 59.166C83.3431 59.166 83.3273 59.1658 83.3193 59.1582C83.3114 59.1503 83.3115 59.1341 83.3115 59.1025C83.3356 59.0786 83.3593 59.0722 83.3799 59.0674C83.4132 59.0595 83.4374 59.0543 83.4375 58.9766H83.1846C83.1214 58.9766 83.0582 58.9762 82.9951 58.9131C82.9319 58.9131 82.8691 58.8493 82.8691 58.7861C82.8375 58.7545 82.8215 58.723 82.8057 58.6914C82.7899 58.6598 82.7737 58.6282 82.7422 58.5967C82.7106 58.5967 82.6945 58.5812 82.6787 58.5654C82.663 58.5497 82.6475 58.5333 82.6162 58.5332C82.555 58.5332 82.5528 58.5929 82.5527 58.5967C82.4896 58.5967 82.4259 58.5338 82.4258 58.4707C82.4258 58.4075 82.3633 58.3438 82.3633 58.3438C82.3633 58.27 82.3844 58.2392 82.4023 58.2139C82.415 58.1959 82.4258 58.1805 82.4258 58.1543L82.3633 58.0908C82.3423 58.0699 82.3141 58.0493 82.2861 58.0283C82.2299 57.9862 82.1738 57.9435 82.1738 57.9014C82.1737 57.8382 82.11 57.7754 82.0469 57.7754C82.0153 57.7754 81.9992 57.7589 81.9834 57.7432C81.9678 57.7275 81.952 57.712 81.9209 57.7119C81.7644 57.6337 81.6799 57.5071 81.5938 57.377C81.5407 57.2969 81.4873 57.2148 81.415 57.1426C81.3835 57.111 81.3673 57.0794 81.3516 57.0479C81.3358 57.0164 81.3196 56.9846 81.2881 56.9531C81.2249 56.827 81.0989 56.7638 80.9727 56.7637H80.8457ZM77.0537 88.6211C77.0539 88.4948 77.1803 88.4319 77.3066 88.4951L77.3691 88.5586C77.369 88.6849 77.3059 88.8112 77.1797 88.9375C77.1763 88.9408 77.1151 89.0008 77.0537 89.001C77.0221 89.0325 77.006 89.0478 76.9902 89.0479C76.9744 89.0479 76.9583 89.0325 76.9268 89.001C76.8823 89.0009 76.8688 88.9691 76.8428 88.9062C76.8319 88.8801 76.8193 88.8476 76.8008 88.8105C76.8323 88.8106 76.864 88.827 76.8955 88.8428C76.9271 88.8585 76.9587 88.874 76.9902 88.874C77.0533 88.874 77.0537 88.8111 77.0537 88.748V88.6211ZM76.7373 88.8105H76.6738C76.6686 88.8052 76.6141 88.7483 76.6738 88.748C76.727 88.8013 76.736 88.8092 76.7373 88.8105ZM77.6855 88.0527C77.7487 88.0527 77.8121 88.0521 77.9385 88.1152C77.8753 88.1784 77.8747 88.1787 77.8115 88.1787C77.7486 88.1784 77.6857 88.1157 77.6855 88.0527ZM78.002 87.4199C78.0627 87.3597 78.1236 87.4157 78.1279 87.4199C78.1911 87.4199 78.1911 87.4834 78.1279 87.4834C78.1256 87.4834 78.064 87.4819 78.002 87.4199ZM79.835 83.1855C79.8978 83.2484 79.8975 83.2487 79.8975 83.3115V83.375C79.8344 83.3747 79.7715 83.3115 79.7715 83.3115C79.7716 83.3074 79.7739 83.2466 79.835 83.1855ZM84.7705 78.876C84.8038 78.8966 84.8281 78.9112 84.8281 78.9502C84.8913 79.0134 84.9544 79.0768 85.0176 79.2031C84.9545 79.2031 84.8912 79.203 84.8281 79.0771C84.765 79.014 84.7646 79.0134 84.7646 78.9502C84.7019 78.95 84.7021 78.8872 84.7021 78.8242C84.7262 78.8482 84.75 78.8633 84.7705 78.876ZM84.9551 75.7266C85.0811 75.7266 85.1439 75.727 85.207 75.79V75.8535C85.144 75.8535 85.0806 75.8531 85.0176 75.79C84.9546 75.79 84.9551 75.7897 84.9551 75.7266ZM85.46 74.7148C85.5231 74.7148 85.5234 74.7153 85.5234 74.7783C85.4603 74.7783 85.46 74.778 85.46 74.7148ZM85.5898 71.8877C85.6079 71.8921 85.6241 71.9073 85.6504 71.9336C85.6241 71.9599 85.6079 71.976 85.5898 71.9805C85.5646 71.9864 85.5334 71.9703 85.46 71.9336C85.5334 71.8969 85.5646 71.8817 85.5898 71.8877ZM82.6787 62.958C82.8051 62.958 82.8054 62.9583 82.7422 63.0215C82.7422 62.9583 82.6787 62.958 82.6787 62.958ZM82.7422 62.2627C82.8053 62.1996 82.8054 62.1999 82.9316 62.3262C82.8055 62.3262 82.8054 62.3259 82.7422 62.2627ZM82.8057 61.9473C82.8686 61.9473 82.8691 61.947 82.8691 62.0098C82.8691 62.0098 82.8059 62.0102 82.8057 61.9473ZM82.8057 60.4297C82.8688 60.4298 82.932 60.4931 82.9951 60.6191C82.8689 60.556 82.8688 60.556 82.8057 60.4297ZM82.5527 59.9238C82.679 59.9238 82.6787 59.9243 82.6787 59.9873C82.6159 59.9873 82.6158 59.9869 82.5527 59.9238ZM82.8057 59.7344V59.8613C82.7666 59.8613 82.7511 59.8371 82.7305 59.8037C82.7177 59.7831 82.7028 59.7585 82.6787 59.7344H82.8057Z" fill="#47331F"/>
</svg>
