<svg width="1359" height="900" viewBox="0 0 1359 900" fill="none" xmlns="http://www.w3.org/2000/svg" xmlns:xlink="http://www.w3.org/1999/xlink">
<rect width="1359" height="900" fill="url(#pattern0_9724_5945)" style="mix-blend-mode:screen"/>
<defs>
<pattern id="pattern0_9724_5945" patternUnits="userSpaceOnUse" patternTransform="matrix(256.278 0 0 256.278 551.361 643.722)" preserveAspectRatio="none" viewBox="0 0 107.68 107.68" width="1" height="1">
<g id="pattern0_9724_5945_inner">
<mask id="mask0_9724_5945" style="mask-type:luminance" maskUnits="userSpaceOnUse" x="0" y="0" width="108" height="108">
<path d="M107.68 0H0V107.68H107.68V0Z" fill="white"/>
</mask>
<g mask="url(#mask0_9724_5945)">
<path d="M11.27 85.6089C11.63 87.6389 9.51998 89.0789 8.15998 90.2189C6.92998 91.2589 5.90998 92.3688 5.31998 93.8988C4.30998 96.5488 4.70998 99.8389 6.64998 101.949C6.76998 102.079 7.01998 101.899 6.90998 101.749C5.06998 99.1989 4.69998 95.7288 6.35998 92.9788C7.24998 91.4988 8.70998 90.6089 9.99998 89.5189C11.19 88.5089 12.28 87.1589 12.64 85.6089C12.9 84.4989 11.05 84.4189 11.27 85.6089Z" fill="#28211B"/>
<path d="M14.0601 78.4992C13.9201 78.2892 13.6001 78.4692 13.7201 78.6992C15.2901 81.7592 15.3901 85.4392 13.5901 88.4392C11.9101 91.2292 7.63006 92.8992 7.51006 96.5492C7.49006 97.2692 8.51006 97.2192 8.60006 96.5492C8.89006 94.3792 10.3501 93.0892 11.8801 91.6692C13.1601 90.4892 14.2201 89.2092 14.8701 87.5792C16.0301 84.6792 15.8601 81.1092 14.0701 78.4992H14.0601Z" fill="#28211B"/>
<path d="M14.8094 94.1402C12.8894 95.9702 10.5694 97.6202 10.1294 100.43C9.68937 103.23 11.0094 105.88 12.2894 108.27C12.4694 108.6 12.9694 108.31 12.7994 107.97C11.6094 105.65 10.3894 103.09 10.9294 100.41C11.4194 97.9602 13.6094 96.2702 15.4394 94.7602C15.8694 94.4002 15.2294 93.7402 14.8194 94.1402H14.8094Z" fill="#28211B"/>
<path d="M18.7188 78.2809C18.4588 77.3709 18.1288 76.4809 17.7988 75.6009C17.4488 74.6609 17.2088 73.6909 16.8888 72.7509C16.7088 72.2209 15.7888 72.2709 15.8588 72.8909C16.0388 74.5809 16.9588 76.1609 17.5088 77.7509C18.0688 79.3909 18.4488 81.1009 18.5188 82.8409C18.6488 85.9509 17.6488 89.5809 15.1388 91.6209C15.0088 91.7309 15.1888 91.9109 15.3188 91.8009C16.5688 90.7909 17.5388 89.7709 18.2588 88.3009C18.9688 86.8509 19.3288 85.2809 19.4088 83.6709C19.4988 81.8509 19.2088 80.0309 18.7188 78.2809Z" fill="#28211B"/>
<path d="M22.9493 81.8803C22.9293 81.5503 22.4493 81.5503 22.4393 81.8803C22.3893 83.8103 22.1993 85.7303 21.6493 87.5803C21.1593 89.2403 20.3093 90.7603 19.3793 92.2203C17.6993 94.8503 15.5493 97.4503 14.7793 100.54C14.6393 101.12 15.4793 101.34 15.6593 100.78C16.7593 97.5003 18.8393 94.8803 20.5793 91.9403C21.4093 90.5403 22.1193 89.0603 22.5193 87.4803C22.9893 85.6503 23.0293 83.7403 22.9393 81.8703L22.9493 81.8803Z" fill="#28211B"/>
<path d="M20.0187 97.6682C20.2387 97.2482 19.6087 96.8782 19.3787 97.2982C18.3987 99.1582 17.7087 101.158 17.4087 103.238C17.2587 104.268 17.2287 105.308 17.2887 106.348C17.3387 107.258 17.3387 108.528 17.8187 109.318C18.0387 109.698 18.5687 109.508 18.5987 109.108C18.6387 108.638 18.4787 108.168 18.3987 107.708C18.3187 107.188 18.2687 106.668 18.2387 106.148C18.1887 105.218 18.2287 104.288 18.3187 103.358C18.5087 101.368 19.0787 99.4382 20.0087 97.6682H20.0187Z" fill="#28211B"/>
<path d="M25.7902 89.0703C25.8802 88.8003 25.4302 88.6003 25.3102 88.8703C24.3602 91.0703 23.6002 93.3703 22.7502 95.6103C22.0702 97.3903 21.0202 99.5603 21.9902 101.43C22.0702 101.59 22.3602 101.48 22.2902 101.3C21.5402 99.2803 22.7002 97.1403 23.4102 95.2803C24.2002 93.2203 25.0902 91.1703 25.7902 89.0703Z" fill="#28211B"/>
<path d="M26.9885 81.7286C26.6885 80.8486 26.2085 80.0286 25.6285 79.3086C24.3485 77.7286 22.5985 76.6186 20.7485 75.7986C20.1185 75.5186 19.7185 76.4386 20.3785 76.6786C22.0985 77.2986 23.8385 78.1986 25.1285 79.5286C25.7685 80.1886 26.2785 80.9586 26.5785 81.8386C26.9485 82.9386 26.9785 84.0986 26.9885 85.2486C26.9885 85.5286 27.4185 85.5286 27.4185 85.2486C27.3985 84.0686 27.3785 82.8586 26.9885 81.7286Z" fill="#28211B"/>
<path d="M22.1299 58.2306C22.1899 57.6106 21.2099 57.6106 21.1599 58.2306C20.7699 63.2906 20.3999 68.8106 23.0599 73.3506C23.1499 73.5006 23.4199 73.4006 23.3499 73.2306C21.3399 68.4606 21.6399 63.2706 22.1299 58.2306Z" fill="#28211B"/>
<path d="M21.2302 46.3079C21.1402 45.8979 20.5302 45.9179 20.4202 46.3079C20.1902 47.1379 20.3002 48.0679 20.2502 48.9279C20.1902 49.9579 20.0702 50.9879 19.9202 52.0179C19.6202 54.0179 19.2002 55.9979 18.8902 57.9979C18.3302 61.6279 18.0902 65.3979 19.2802 68.9279C19.3702 69.1779 19.7702 69.0779 19.6802 68.8179C18.4602 64.9779 18.9902 61.0379 19.7402 57.1579C20.1002 55.2879 20.5102 53.4279 20.8002 51.5479C20.9302 50.7379 21.0302 49.9179 21.1202 49.0979C21.2202 48.2079 21.4202 47.1879 21.2202 46.3079H21.2302Z" fill="#28211B"/>
<path d="M14.6303 75.7299C12.8503 73.2899 11.8603 70.3499 11.9103 67.3199C11.9603 64.1599 13.3003 61.1999 13.4603 58.0599C13.4803 57.5899 12.7903 57.6099 12.7403 58.0599C12.3503 61.3499 11.0903 64.5599 11.2503 67.8999C11.3903 70.8299 12.4303 73.6499 14.2003 75.9799C14.3903 76.2399 14.8303 75.9899 14.6403 75.7199L14.6303 75.7299Z" fill="#28211B"/>
<path d="M14.7795 46.7778C14.6595 46.5978 14.3695 46.7578 14.4895 46.9478C18.5295 53.7978 13.4295 61.7078 15.1995 68.9278C15.3195 69.4178 16.0395 69.2078 15.9495 68.7178C15.2095 64.5878 16.1595 60.6478 16.5395 56.5378C16.8495 53.1778 16.6795 49.6778 14.7695 46.7778H14.7795Z" fill="#28211B"/>
<path d="M10.53 52.6105C10.45 52.3905 10.09 52.4805 10.17 52.7105C11.58 56.8805 9.16 60.8805 7.89 64.7505C7.31 66.5205 7 68.3605 7 70.2205C7 71.1605 7.09 72.0905 7.24 73.0205C7.39 73.9205 7.53 74.9305 7.94 75.7505C8.15 76.1705 8.77 75.8705 8.67 75.4405C8.47 74.5005 8.06 73.6305 7.88 72.6705C7.69 71.6505 7.61 70.6105 7.62 69.5805C7.65 67.4605 8.18 65.4605 8.91 63.4805C10.19 60.0105 11.87 56.3305 10.52 52.6105H10.53Z" fill="#28211B"/>
<path d="M10.4394 73.2196C10.3194 72.9296 9.8594 73.0396 9.9594 73.3496C11.1894 76.9996 9.9694 80.6996 7.3394 83.3696C5.1994 85.5396 1.8494 87.8996 1.7794 91.2796C1.7694 91.7396 2.4794 91.8496 2.5894 91.3896C3.0594 89.4596 3.9194 87.9896 5.2994 86.5496C6.5894 85.2096 8.0494 84.0296 9.1894 82.5396C11.2594 79.8396 11.6894 76.3596 10.4394 73.2196Z" fill="#28211B"/>
<path d="M6.28946 88.9706C6.45946 88.7706 6.16946 88.4806 5.99946 88.6806C3.75946 91.3206 2.23946 94.5806 1.74946 98.0206C1.49946 99.7306 1.66946 101.381 2.14946 103.041C2.40946 103.911 2.72946 104.761 3.03946 105.621C3.33946 106.441 3.50945 107.361 3.93946 108.121C4.10946 108.411 4.55946 108.281 4.55946 107.951C4.57946 106.501 3.67946 104.921 3.20946 103.581C2.61946 101.901 2.23946 100.241 2.40946 98.4506C2.72946 95.1106 4.14946 91.5506 6.28946 88.9706Z" fill="#28211B"/>
<path d="M4.73953 65.9102C4.73953 65.6602 4.34953 65.6602 4.35953 65.9102C4.37953 68.7302 5.06953 71.4301 5.48953 74.2001C5.87953 76.7501 5.78953 79.4102 4.37953 81.6402C4.06953 82.1202 4.82953 82.5501 5.13953 82.0901C8.53953 77.0901 4.76953 71.2102 4.73953 65.9102Z" fill="#28211B"/>
<path d="M27.469 72.8379C26.779 71.8479 25.979 70.8979 25.549 69.7579C25.139 68.6579 24.939 67.4079 24.779 66.2579C24.749 66.0779 24.459 66.1279 24.469 66.2979C24.509 67.4679 24.499 68.5779 24.869 69.7079C25.209 70.7579 25.829 71.6579 26.459 72.5479C27.809 74.4479 29.089 76.4879 29.229 78.8779C29.249 79.2779 29.849 79.2779 29.849 78.8779C29.869 76.6279 28.719 74.6279 27.459 72.8379H27.469Z" fill="#28211B"/>
<path d="M29.8699 83.1294C29.0099 80.3794 27.3299 78.0394 25.6199 75.7494C25.5199 75.6094 25.2899 75.7494 25.3899 75.8894C26.9299 78.1494 28.5399 80.4994 29.3799 83.1294C29.8099 84.4694 30.0099 85.8494 29.9099 87.2494C29.7999 88.7994 29.4199 90.3094 29.2299 91.8594C29.1999 92.1394 29.6699 92.1994 29.7199 91.9294C30.2599 89.0294 30.7699 86.0094 29.8699 83.1394V83.1294Z" fill="#28211B"/>
<path d="M26.4688 94.6909C27.0788 92.3809 28.2088 90.2509 28.5288 87.8609C28.5588 87.6609 28.2088 87.6109 28.1688 87.8109C27.7488 90.2809 26.4588 92.4709 25.8488 94.8909C25.5588 96.0409 25.4788 97.1909 25.6288 98.3709C25.7088 99.0209 25.8488 99.6509 25.9488 100.301C26.0588 100.991 25.9888 101.711 26.1388 102.391C26.1888 102.641 26.5088 102.581 26.5888 102.391C26.9988 101.351 26.5088 99.8809 26.3188 98.8209C26.0688 97.4109 26.0988 96.0909 26.4588 94.7009L26.4688 94.6909Z" fill="#28211B"/>
<path d="M24.2387 98.3387C24.1887 98.1187 23.8687 98.2187 23.8987 98.4287C24.1187 99.8587 24.1987 101.359 23.7587 102.759C23.4187 103.829 22.8387 104.799 22.4487 105.849C21.6687 107.969 21.6087 110.379 22.3287 112.519C22.4587 112.899 23.0487 112.749 22.9387 112.349C22.2187 109.829 22.3787 107.349 23.4387 104.949C23.8787 103.949 24.3287 102.969 24.4787 101.879C24.6387 100.689 24.4787 99.4887 24.2387 98.3287V98.3387Z" fill="#28211B"/>
<path d="M29.6193 99.0905C29.4993 97.8205 29.1193 96.5705 29.3393 95.2805C29.4193 94.8105 28.6993 94.6105 28.6193 95.0805C28.4093 96.2605 28.6793 97.3805 28.8693 98.5505C29.0993 99.9905 28.8693 101.191 28.2893 102.521C27.2993 104.781 26.6993 106.961 26.9493 109.451C26.9693 109.671 27.3193 109.681 27.2993 109.451C27.2193 108.181 27.3193 106.91 27.6593 105.68C27.9893 104.47 28.5893 103.381 29.0793 102.231C29.5093 101.211 29.7293 100.211 29.6293 99.0905H29.6193Z" fill="#28211B"/>
<path d="M32.7795 82.3003C32.6295 81.9703 32.0695 82.2003 32.1895 82.5503C33.0795 85.1903 33.3995 87.8503 32.6495 90.5803C32.0595 92.7003 30.5095 95.1803 31.9195 97.3003C32.0595 97.5003 32.3395 97.3303 32.2395 97.1103C31.1195 94.5303 33.1495 91.8703 33.5695 89.3403C33.9495 87.0103 33.7595 84.4603 32.7795 82.3003Z" fill="#28211B"/>
<path d="M31.5 72.7477C30.58 70.6177 28.94 68.7376 27.32 67.0976C27.02 66.7876 26.56 67.2576 26.85 67.5676C28.38 69.2176 29.99 70.7377 30.97 72.8077C32.03 75.0477 32.08 77.5677 32.05 79.9977C32.05 80.1977 32.34 80.1877 32.36 79.9977C32.56 77.5477 32.49 75.0276 31.5 72.7376V72.7477Z" fill="#28211B"/>
<path d="M25.7386 63.618C24.9186 62.968 24.5986 62.198 24.7086 61.148C24.8186 60.068 25.0986 59.028 25.1486 57.948C25.1986 56.938 25.1286 55.928 24.9786 54.928C24.8186 53.948 24.6386 52.798 24.0886 51.958C23.9186 51.698 23.5686 51.878 23.6086 52.158C23.6986 52.748 23.9186 53.298 24.0686 53.878C24.2086 54.458 24.3186 55.048 24.3886 55.638C24.5286 56.838 24.5186 58.058 24.3586 59.248C24.2186 60.268 23.8886 61.338 24.1486 62.368C24.3286 63.088 24.8286 63.838 25.6286 63.878C25.7586 63.878 25.8486 63.688 25.7386 63.608V63.618Z" fill="#28211B"/>
<path d="M27.1991 48.0681C26.6791 44.7481 24.7691 41.7781 24.7091 38.3681C24.7091 38.1481 24.3691 38.1481 24.3691 38.3681C24.4091 41.5881 26.0691 44.4081 26.6891 47.5081C27.4291 51.1981 26.5091 54.9481 26.1091 58.6181C26.0691 58.9881 26.6691 58.9981 26.6991 58.6181C26.9191 55.1181 27.7391 51.5781 27.1891 48.0681H27.1991Z" fill="#28211B"/>
<path d="M32.6497 71.0281C32.3397 70.5581 32.0197 70.0981 31.6997 69.6481C31.0897 68.7981 30.4697 67.9481 29.8997 67.0681C28.7097 65.2481 27.6497 63.2481 27.4797 61.0381C27.4597 60.7581 27.0197 60.7581 27.0397 61.0381C27.1897 63.1981 27.9697 65.2281 29.0397 67.0981C29.5897 68.0681 30.2097 68.9981 30.8197 69.9281C31.1397 70.4281 31.4597 70.9281 31.7797 71.4281C32.0697 71.8881 32.3197 72.4381 32.7397 72.8081C33.0397 73.0681 33.4697 72.8081 33.3897 72.4281C33.2897 71.9081 32.9497 71.4681 32.6697 71.0381L32.6497 71.0281Z" fill="#28211B"/>
<path d="M31.2285 63.6781C30.5085 62.2481 29.8785 60.8181 29.5285 59.2481C29.1785 57.6781 29.1085 56.0981 29.2785 54.4981C29.3085 54.1881 28.8285 54.1881 28.7885 54.4981C28.4685 57.6781 28.9885 61.2481 30.6685 64.0081C30.8885 64.3681 31.4285 64.0481 31.2385 63.6781H31.2285Z" fill="#28211B"/>
<path d="M36.2596 74.5483C35.8896 72.1783 34.8496 69.9683 33.7796 67.8483C33.6196 67.5283 33.1596 67.8084 33.2996 68.1284C34.2896 70.3084 35.2596 72.5983 35.4496 75.0083C35.5396 76.1383 35.4296 77.2583 35.1396 78.3583C34.9096 79.2283 34.4196 80.5283 35.0096 81.3483C35.1796 81.5883 35.6796 81.6283 35.7296 81.2583C35.8096 80.6683 35.7296 80.1084 35.8496 79.5184C35.9596 78.9884 36.1296 78.4783 36.2296 77.9483C36.4496 76.8283 36.4296 75.6883 36.2496 74.5583L36.2596 74.5483Z" fill="#28211B"/>
<path d="M18.7796 37.5079C18.8496 37.2979 18.5296 37.1679 18.4296 37.3579C17.4396 39.2379 17.1196 41.4879 17.2296 43.5879C17.3496 45.8879 18.2796 48.1879 17.7796 50.4979C17.7196 50.7479 18.1096 50.8579 18.1696 50.6079C18.6796 48.4379 17.9696 46.3379 17.7696 44.1879C17.5596 41.8679 18.0596 39.6979 18.7796 37.5079Z" fill="#28211B"/>
<path d="M23.7603 45.6301C23.3903 44.5201 23.1103 43.3801 22.9203 42.2201C22.5103 39.7001 22.6603 37.2301 23.0003 34.7101C23.0403 34.4401 22.6503 34.3101 22.5703 34.5901C21.9903 36.9101 21.9903 39.4101 22.3003 41.7801C22.4503 42.9201 22.6903 44.0501 23.0203 45.1601C23.3903 46.4001 23.9703 47.6101 24.1003 48.9101C24.1303 49.1901 24.5503 49.2101 24.5503 48.9101C24.5503 47.7401 24.1103 46.7201 23.7503 45.6301H23.7603Z" fill="#28211B"/>
<path d="M21.1187 35.5204C21.1487 32.9404 20.8087 30.3304 20.2787 27.8104C20.2187 27.5304 19.7487 27.5904 19.7787 27.8804C20.0987 30.5804 20.6287 33.2404 20.5687 35.9704C20.5087 38.3504 19.4787 40.9404 20.3187 43.2604C20.3987 43.4904 20.7687 43.4004 20.6887 43.1604C20.2387 41.7904 20.5187 40.4304 20.7687 39.0404C20.9787 37.8804 21.1087 36.7104 21.1287 35.5304L21.1187 35.5204Z" fill="#28211B"/>
<path d="M17.8885 29.5975C17.4085 28.2175 17.0685 26.8875 17.1385 25.4075C17.2585 22.4675 17.9285 19.5575 18.0385 16.6175C18.0385 16.3875 17.6785 16.3375 17.6385 16.5675C17.3585 18.0375 17.2585 19.5375 17.0985 21.0275C16.9385 22.4875 16.7185 23.9475 16.6585 25.4175C16.5485 28.1575 17.9485 30.4975 18.4285 33.1375C18.4485 33.2375 18.5785 33.1975 18.5885 33.1175C18.7285 31.8975 18.2985 30.7475 17.8985 29.6075L17.8885 29.5975Z" fill="#28211B"/>
<path d="M20.0084 9.6878C19.9484 9.5378 19.6984 9.5978 19.7584 9.7578C20.7784 12.2378 20.8984 15.0278 20.3084 17.6278C19.8084 19.8478 18.5684 22.3178 19.5084 24.5778C19.6484 24.9278 20.1684 24.8078 20.0884 24.4178C19.5684 21.8178 20.7584 19.4778 21.1084 16.9378C21.4484 14.4578 20.9584 11.9778 20.0084 9.6878Z" fill="#28211B"/>
<path d="M19.3902 2.49814C19.4102 4.64814 18.2702 6.51814 17.3902 8.39814C16.6502 9.99814 15.7902 12.1481 16.4602 13.9181C16.5802 14.2181 17.1302 14.2181 17.0802 13.8381C16.9502 12.7881 16.9002 11.8581 17.1802 10.8281C17.4502 9.81814 17.8902 8.86814 18.3502 7.92814C19.1802 6.20814 20.0202 4.45814 19.9602 2.50814C19.9502 2.14814 19.3902 2.13814 19.3902 2.50814V2.49814Z" fill="#28211B"/>
<path d="M15.0402 -1.70878C14.9202 -1.93878 14.5703 -1.77878 14.6302 -1.53878C15.0303 0.23122 15.2102 1.86122 14.9302 3.67122C14.6802 5.24122 14.2103 6.76122 13.7203 8.27122C12.7703 11.2212 11.7403 14.3212 12.3803 17.4412C12.4703 17.8612 13.0703 17.6712 13.0103 17.2712C12.4903 13.7012 13.8403 10.4012 14.8303 7.04122C15.6303 4.35122 16.4402 0.921219 15.0502 -1.71878L15.0402 -1.70878Z" fill="#28211B"/>
<path d="M15.1291 19.5213C15.3091 18.0413 15.2291 16.6013 15.0891 15.1213C15.0691 14.8813 14.679 14.8713 14.709 15.1213C14.859 16.7013 14.7091 18.3613 14.4191 19.9213C14.1791 21.2213 13.7991 22.4913 13.7191 23.8213C13.6391 25.1713 13.819 26.5313 13.939 27.8813C14.059 29.2413 13.999 30.7713 14.369 32.0813C14.479 32.4513 14.9791 32.3513 15.0091 31.9913C15.1291 30.6713 14.7991 29.2013 14.6691 27.8813C14.5291 26.4913 14.3291 25.0713 14.4191 23.6713C14.5091 22.2713 14.949 20.9213 15.119 19.5313L15.1291 19.5213Z" fill="#28211B"/>
<path d="M16.4285 34.751C15.9185 36.451 15.3985 38.151 14.5485 39.711C13.8085 41.081 12.8885 42.361 12.2585 43.791C11.6485 45.181 11.4985 46.581 11.6985 48.091C11.9185 49.781 12.1485 51.641 12.6585 53.261C12.7685 53.611 13.3285 53.561 13.3185 53.171C13.2485 51.411 12.6885 49.681 12.5385 47.921C12.3885 46.261 12.7385 44.781 13.4985 43.301C14.1185 42.091 14.8685 40.961 15.3985 39.701C16.0585 38.151 16.4585 36.501 16.8585 34.861C16.9285 34.581 16.5185 34.471 16.4285 34.741V34.751Z" fill="#28211B"/>
<path d="M12.3795 26.7394C12.3595 26.5294 12.0195 26.5194 12.0395 26.7394C12.2695 28.7594 12.4195 30.7994 12.3495 32.8394C12.2695 34.9194 11.8595 36.8794 11.1695 38.8394C11.0295 39.2494 11.6995 39.5494 11.8795 39.1394C13.6295 35.2894 12.8295 30.7794 12.3795 26.7394Z" fill="#28211B"/>
<path d="M10.3186 16.89C9.51862 14.81 8.76862 12.7199 8.08862 10.5899C8.03862 10.4199 7.77862 10.4899 7.82862 10.6599C9.13862 14.9199 10.4986 19.2299 12.2986 23.3099C12.4486 23.65 13.0586 23.3999 12.9086 23.0499C12.0486 20.9899 11.1286 18.9599 10.3286 16.8799L10.3186 16.89Z" fill="#28211B"/>
<path d="M8.8003 1.30062C8.7303 1.13062 8.4403 1.25062 8.5003 1.43062C9.6703 4.62062 10.1703 7.98062 10.2103 11.3606C10.2103 11.8106 10.9003 11.8106 10.9103 11.3606C10.9803 7.89062 10.1803 4.47062 8.8003 1.30062Z" fill="#28211B"/>
<path d="M4.77854 10.0009C5.01854 7.06085 5.80855 4.15085 6.62855 1.32085C6.68855 1.12085 6.37854 1.04085 6.31854 1.24085C5.42854 4.12085 4.49854 6.98085 4.20854 10.0009C3.91854 13.0109 4.38854 16.0108 5.04854 18.9408C5.13854 19.3608 5.75855 19.1808 5.67854 18.7708C5.14855 15.8508 4.52854 12.9909 4.77854 10.0009Z" fill="#28211B"/>
<path d="M7.54869 18.2688C6.88869 14.0188 5.92869 9.42883 7.69869 5.30884C7.76869 5.14884 7.52869 4.99884 7.45869 5.16884C5.76869 8.91884 6.25869 12.9388 6.86869 16.8788C7.22869 19.1688 7.56869 21.4588 7.54869 23.7888C7.54869 24.9388 7.46869 26.0988 7.36869 27.2388C7.26869 28.3788 7.02869 29.5488 7.04869 30.6788C7.04869 30.9088 7.39869 30.9688 7.45869 30.7388C7.95869 28.7688 7.98869 26.4988 8.03869 24.4788C8.08869 22.3888 7.86869 20.3388 7.54869 18.2788V18.2688Z" fill="#28211B"/>
<path d="M9.23842 23.9105C9.27842 26.9905 8.44842 29.9405 7.70842 32.9005C7.34842 34.3205 6.99842 35.7505 6.74842 37.1905C6.53842 38.4305 6.14842 40.0505 6.51842 41.2605C6.59842 41.5105 6.96842 41.5205 7.03842 41.2605C7.23842 40.5705 7.15842 39.8005 7.21842 39.0805C7.28842 38.3105 7.39842 37.5505 7.53842 36.7905C7.79842 35.3405 8.14842 33.9205 8.49842 32.4905C9.17842 29.6805 9.73842 26.8105 9.59842 23.9105C9.58842 23.6705 9.21842 23.6705 9.22842 23.9105H9.23842Z" fill="#28211B"/>
<path d="M9.85018 34.3502C9.34018 37.9502 8.80018 41.5602 8.06018 45.1102C7.70018 46.8302 7.28018 48.5402 6.78018 50.2302C6.25018 52.0202 5.47018 53.7302 4.95018 55.5202C4.84018 55.8902 5.38018 56.1202 5.57018 55.7802C6.44018 54.2402 6.93018 52.4402 7.41018 50.7502C7.92018 48.9502 8.33018 47.1302 8.68018 45.2902C9.37018 41.6802 9.76018 38.0502 10.1802 34.4002C10.2002 34.2102 9.87018 34.1702 9.85018 34.3502Z" fill="#28211B"/>
<path d="M6.9491 58.3701C5.8391 59.8301 4.7091 61.2601 3.5891 62.7101C2.7291 63.8201 1.8791 65.0001 1.5491 66.3801C1.1991 67.8201 1.5391 69.2401 1.9791 70.6201C2.5491 72.4201 3.0391 74.1901 3.2691 76.0601C3.3191 76.5101 4.0391 76.5201 3.9791 76.0601C3.7891 74.4601 3.4591 72.8901 2.9691 71.3601C2.4791 69.8201 1.8391 68.2001 2.1991 66.5601C2.5091 65.1301 3.4191 63.9101 4.2591 62.7501C5.2691 61.3501 6.2891 59.9601 7.3191 58.5801C7.4791 58.3601 7.1191 58.1601 6.9591 58.3701H6.9491Z" fill="#28211B"/>
<path d="M0.579419 73.0375C0.529419 72.8275 0.22942 72.9175 0.25942 73.1275C0.66942 75.3475 0.779416 77.6775 0.689416 79.9275C0.589416 82.2175 0.109416 84.4075 -0.220584 86.6575C-0.270584 86.9875 0.159416 87.1175 0.279416 86.7975C1.09942 84.6675 1.28942 82.1975 1.32942 79.9275C1.36942 77.5775 1.06942 75.3275 0.569417 73.0375H0.579419Z" fill="#28211B"/>
<path d="M39.6396 106.88C39.9696 103.65 41.1295 100.75 42.0195 97.6597C42.0995 97.3897 41.6795 97.1996 41.5495 97.4596C40.1795 100.39 39.3595 103.82 39.0595 107.03C38.7695 110.22 39.1895 113.46 40.5595 116.38C40.6795 116.64 41.0695 116.41 40.9495 116.15C39.6295 113.24 39.3096 110.02 39.6396 106.87V106.88Z" fill="#28211B"/>
<path d="M44.2303 83.4797C43.9403 84.7997 43.8003 86.1198 43.4003 87.4098C43.0003 88.7198 42.4703 89.9797 41.8703 91.2097C40.7003 93.6297 39.2603 95.9097 37.8103 98.1797C37.7203 98.3197 37.9403 98.4498 38.0303 98.3098C39.6203 95.9898 41.2203 93.6497 42.4703 91.1197C43.0403 89.9697 43.5403 88.7798 43.9403 87.5498C44.3503 86.2898 44.7503 84.8698 44.7203 83.5298C44.7203 83.2498 44.2803 83.1697 44.2203 83.4597L44.2303 83.4797Z" fill="#28211B"/>
<path d="M46.2091 78.3985C46.0091 76.7985 45.9191 75.0485 45.4291 73.5085C45.3591 73.2985 45.0291 73.3285 45.0291 73.5585C45.0291 75.2085 45.4591 76.9285 45.6591 78.5585C45.8491 80.1185 46.0091 81.6885 46.0791 83.2585C46.2191 86.5585 45.9791 89.8885 45.0291 93.0685C44.9691 93.2685 45.2791 93.3586 45.3491 93.1586C46.4091 90.0086 46.7291 86.7385 46.6291 83.4285C46.5791 81.7485 46.4291 80.0685 46.2291 78.3985H46.2091Z" fill="#28211B"/>
<path d="M44.8998 78.9004C43.6098 75.9004 42.8698 72.6804 42.7998 69.4104C42.7598 67.7804 42.9098 66.1804 43.1398 64.5804C43.3598 63.1304 43.5698 61.7104 43.3698 60.2504C43.3398 60.0104 42.9498 60.0704 42.9598 60.3104C43.0198 63.6404 42.1598 66.8804 42.3798 70.2304C42.5798 73.3004 43.2998 76.3104 44.4898 79.1404C44.6098 79.4104 45.0098 79.1804 44.8898 78.9104L44.8998 78.9004Z" fill="#28211B"/>
<path d="M44.9995 53.2691C44.8795 52.9691 44.4295 53.0791 44.5095 53.4091C45.1995 56.4691 46.2695 59.2991 45.9295 62.4991C45.6295 65.3091 44.6895 68.0091 45.1895 70.8591C45.2195 71.0591 45.5695 71.0191 45.5495 70.8091C45.2195 67.8291 46.2995 64.9691 46.5495 62.0291C46.7995 59.1191 46.0795 55.9691 44.9995 53.2691Z" fill="#28211B"/>
<path d="M48.7503 65.5577C48.7503 65.2777 48.3203 65.2777 48.3203 65.5577C48.3703 69.5577 48.3103 73.5677 48.5603 77.5577C48.5803 77.8777 49.0603 77.8877 49.0703 77.5577C49.1403 73.5577 48.8803 69.5477 48.7503 65.5577Z" fill="#28211B"/>
<path d="M49.4691 81.778C49.4191 81.528 49.0391 81.638 49.0891 81.888C49.8591 86.238 49.6891 90.728 48.5691 94.998C48.4591 95.418 49.1091 95.588 49.2091 95.178C50.2991 90.778 50.4091 86.218 49.4691 81.778Z" fill="#28211B"/>
<path d="M45.3801 98.4779C45.1001 96.9279 44.4701 95.4679 43.8501 94.0279C43.7701 93.8379 43.4301 93.9779 43.5101 94.1679C44.1401 95.7279 44.7901 97.3279 44.9501 99.0179C45.0901 100.518 44.8401 102.018 44.5801 103.488C44.1101 106.118 43.4801 108.838 44.4501 111.438C44.6001 111.828 45.2301 111.658 45.0801 111.268C43.9901 108.378 44.9801 105.398 45.3801 102.478C45.5601 101.148 45.6201 99.7979 45.3801 98.4779Z" fill="#28211B"/>
<path d="M49.0187 99.3793C49.0687 99.2193 48.8187 99.1493 48.7687 99.3093C48.0187 101.669 47.4387 104.049 47.1187 106.509C46.9487 107.769 46.8387 109.029 46.7887 110.299C46.7387 111.479 46.6587 112.719 46.8487 113.889C46.8887 114.159 47.2887 114.069 47.3087 113.829C47.3887 112.659 47.2787 111.469 47.3087 110.299C47.3387 109.079 47.4287 107.859 47.5687 106.639C47.8487 104.189 48.3287 101.739 49.0187 99.3793Z" fill="#28211B"/>
<path d="M43.3103 115.638C43.0203 113.948 42.7903 112.248 42.6403 110.538C42.3503 107.278 42.4703 104.028 43.4003 100.868C43.4803 100.608 43.0803 100.498 43.0003 100.758C42.0303 103.858 41.7603 107.138 41.9303 110.368C42.0103 111.978 42.2203 113.578 42.4703 115.168C42.7203 116.818 42.9103 118.558 43.4003 120.148C43.5103 120.518 44.1503 120.478 44.1103 120.048C43.9703 118.568 43.5803 117.088 43.3203 115.628L43.3103 115.638Z" fill="#28211B"/>
<path d="M52.5195 98.6602C53.3695 95.6802 54.3495 92.2902 53.2095 89.2502C53.0595 88.8602 52.4595 89.0102 52.5795 89.4202C53.5195 92.8802 52.4894 96.1702 51.5394 99.5102C51.1094 101.03 50.6995 102.57 50.5195 104.14C50.3595 105.54 50.3095 107.42 51.0695 108.67C51.1695 108.83 51.4695 108.78 51.4495 108.57C51.3895 107.77 51.1595 107 51.1195 106.19C51.0795 105.32 51.1594 104.45 51.2894 103.6C51.5494 101.92 52.0495 100.29 52.5195 98.6602Z" fill="#28211B"/>
<path d="M57.4397 92.3582C55.5097 89.0982 54.0597 85.5582 53.2197 81.8682C52.7997 80.0082 52.4897 78.1182 52.3597 76.2182C52.2297 74.3282 52.3597 72.4782 52.4897 70.5882C52.5097 70.3582 52.1097 70.2982 52.0797 70.5282C51.0297 78.0782 52.9997 86.1882 57.0597 92.5782C57.2097 92.8182 57.5897 92.5982 57.4397 92.3582Z" fill="#28211B"/>
<path d="M52.87 66.6611C51.59 63.9211 52.23 60.9511 52.56 58.0711C52.89 55.1511 52.82 52.0911 52.11 49.2211C52.01 48.8111 51.33 48.8811 51.35 49.3211C51.44 51.0211 51.77 52.7011 51.88 54.4011C51.97 55.8811 51.88 57.3511 51.76 58.8311C51.54 61.5211 51.36 64.3411 52.54 66.8511C52.65 67.0711 52.98 66.8811 52.87 66.6611Z" fill="#28211B"/>
<path d="M48.3201 51.1382C47.3601 47.7082 46.5401 44.3682 46.5501 40.7782C46.5501 40.5082 46.1301 40.4382 46.0701 40.7182C45.3701 43.9882 46.4201 47.3582 47.3301 50.4782C47.8001 52.0982 48.3001 53.7282 48.6501 55.3882C49.0201 57.1882 49.1201 58.9982 49.1201 60.8282C49.1201 60.9882 49.3601 61.0182 49.4001 60.8682C50.2001 57.6782 49.1801 54.2282 48.3201 51.1482V51.1382Z" fill="#28211B"/>
<path d="M55.7897 76.5784C55.7697 74.9084 55.9197 73.2384 56.0697 71.5784C56.3597 68.3484 56.5797 65.0884 55.4297 61.9984C55.3497 61.7884 55.0197 61.8784 55.0897 62.0884C56.1897 65.3884 55.6697 68.9284 55.3197 72.3184C54.9997 75.3984 54.6497 78.9084 56.0697 81.7884C56.2297 82.1184 56.7697 81.8884 56.6597 81.5384C56.1397 79.8984 55.8097 78.3084 55.7897 76.5784Z" fill="#28211B"/>
<path d="M60.0897 96.0206C59.9997 92.5106 59.3397 89.0306 58.1597 85.7206C58.0597 85.4306 57.5897 85.5506 57.6897 85.8506C58.8097 89.1306 59.4297 92.5606 59.4697 96.0206C59.4897 97.6506 59.3897 99.2906 59.1697 100.911C58.9297 102.731 58.4197 104.461 58.0597 106.251C57.9897 106.591 58.4297 106.691 58.5597 106.391C59.8797 103.241 60.1597 99.4006 60.0797 96.0206H60.0897Z" fill="#28211B"/>
<path d="M57.2689 96.8809C57.3289 96.7109 57.0589 96.6409 56.9989 96.8009C56.3989 98.3809 55.7789 99.9109 55.3489 101.551C54.9489 103.061 54.6589 104.601 54.4489 106.151C54.0189 109.251 53.8389 112.471 54.2289 115.591C54.2689 115.951 54.8189 115.971 54.8089 115.591C54.5389 109.271 55.0189 102.851 57.2789 96.8809H57.2689Z" fill="#28211B"/>
<path d="M60.7787 82.3601C60.2787 79.3301 59.8787 76.2601 59.1687 73.2801C59.1087 73.0301 58.6687 73.0701 58.6987 73.3401C59.0387 76.3501 59.6887 79.3401 60.2287 82.3301C60.7787 85.4101 61.3287 88.5001 61.8787 91.5801C61.9287 91.8501 62.3287 91.7301 62.2787 91.4701C61.7787 88.4301 61.2787 85.3901 60.7787 82.3601Z" fill="#28211B"/>
<path d="M59.7192 52.8107C59.7192 52.4707 59.1692 52.3707 59.1092 52.7307C58.6892 55.2307 58.7492 57.8807 58.7792 60.4107C58.7992 63.0507 58.9292 65.6807 59.1592 68.3107C59.1792 68.5707 59.5892 68.5707 59.5692 68.3107C59.3892 65.7307 59.3092 63.1507 59.3592 60.5607C59.3992 57.9807 59.7192 55.3907 59.7292 52.8107H59.7192Z" fill="#28211B"/>
<path d="M56.239 36.9498C56.159 36.5098 55.509 36.6998 55.569 37.1298C56.529 44.0698 56.599 51.0598 55.559 57.9898C55.529 58.1698 55.799 58.2498 55.829 58.0698C57.219 51.1298 57.429 43.9298 56.229 36.9498H56.239Z" fill="#28211B"/>
<path d="M52.2885 33.6708C52.3785 31.7508 53.1385 29.8408 53.6785 28.0008C54.2485 26.0808 54.8485 24.1608 55.3585 22.2208C55.4685 21.7808 54.8185 21.6008 54.6785 22.0308C54.0585 24.0008 53.5485 26.0008 52.9885 27.9908C52.4685 29.8308 51.7685 31.7308 51.6885 33.6608C51.6185 35.4808 52.0985 37.3408 52.4185 39.1208C52.7985 41.2208 53.2385 43.3108 53.7085 45.3908C53.7585 45.6308 54.1285 45.5308 54.0785 45.2908C53.7185 43.3608 53.3885 41.4308 53.0485 39.5008C52.7185 37.6008 52.1885 35.6008 52.2885 33.6608V33.6708Z" fill="#28211B"/>
<path d="M56.2189 13.7706C56.1489 13.5506 55.8089 13.6406 55.8689 13.8706C56.8089 17.4906 57.7589 21.2406 56.7689 24.9606C56.0289 27.7406 54.1389 30.9506 54.8189 33.8906C54.8889 34.2106 55.3389 34.1106 55.3589 33.8206C55.5089 32.0906 55.7389 30.5106 56.2789 28.8506C56.7989 27.2806 57.4089 25.7406 57.6989 24.1006C58.3089 20.5606 57.2889 17.1206 56.2189 13.7806V13.7706Z" fill="#28211B"/>
<path d="M54.0087 16.6875C52.9287 14.8375 52.2587 12.7375 51.7387 10.6675C51.4787 9.6475 51.2787 8.6075 51.1487 7.5675C51.0187 6.5375 50.9787 5.5075 50.8187 4.4775C50.7887 4.2575 50.4187 4.2575 50.3787 4.4775C50.0587 6.5575 50.5187 8.8475 51.0787 10.8475C51.6787 12.9775 52.6987 14.8975 53.8087 16.7975C53.8787 16.9275 54.0787 16.8075 54.0087 16.6875Z" fill="#28211B"/>
<path d="M48.8288 9.47765C48.7388 9.25765 48.3888 9.34764 48.4688 9.57764C49.7688 13.2376 51.2188 17.1976 50.5188 21.1376C50.1988 22.9576 49.4888 24.6776 49.1288 26.4876C48.9688 27.2776 48.8588 28.0877 48.7888 28.8876C48.7088 29.7577 48.5688 30.7776 48.8288 31.6176C48.8988 31.8476 49.2488 31.8676 49.3088 31.6176C49.5088 30.7976 49.3988 29.8977 49.4588 29.0477C49.5388 28.0277 49.6888 27.0076 49.9188 26.0076C50.3388 24.1776 51.0588 22.4276 51.2688 20.5476C51.7088 16.6776 50.2588 12.9677 48.8088 9.46765L48.8288 9.47765Z" fill="#28211B"/>
<path d="M46.369 8.20811C46.299 7.98811 45.949 8.07811 46.019 8.30811C47.589 13.4581 47.469 18.7481 46.149 23.9281C46.069 24.2481 46.539 24.3781 46.639 24.0681C48.279 18.9581 48.019 13.2781 46.369 8.21812V8.20811Z" fill="#28211B"/>
<path d="M49.219 39.2497C48.569 37.1497 47.779 35.1097 46.949 33.0697C45.349 29.0997 43.619 24.9297 43.939 20.5697C43.959 20.2997 43.539 20.2997 43.519 20.5697C43.149 24.8597 44.549 28.8697 46.089 32.8097C46.879 34.8497 47.679 36.8797 48.319 38.9697C48.989 41.1897 49.339 43.5097 50.009 45.7197C50.139 46.1497 50.909 46.0997 50.839 45.6097C50.549 43.4697 49.849 41.3097 49.209 39.2497H49.219Z" fill="#28211B"/>
<path d="M59.4501 38.1679C59.2501 34.8979 59.4901 31.7879 59.9301 28.5479C59.9801 28.2179 59.5001 28.0579 59.4101 28.4079C58.6201 31.4779 58.6501 34.8579 58.8501 37.9979C59.0501 41.1579 59.3001 44.5279 60.0901 47.6079C60.1401 47.8179 60.4801 47.7779 60.4701 47.5579C60.3301 44.4279 59.6501 41.3179 59.4601 38.1779L59.4501 38.1679Z" fill="#28211B"/>
<path d="M60.37 18.0197C59.77 16.1397 59.3 14.2397 59.05 12.2797C58.82 10.4297 58.71 8.55969 58.68 6.68969C58.66 5.7197 58.67 4.7597 58.68 3.7897C58.69 2.8597 58.81 1.8897 58.65 0.969701C58.59 0.619701 58.03 0.629701 57.95 0.969701C57.76 1.8297 57.83 2.7397 57.82 3.61969C57.81 4.58969 57.81 5.5497 57.82 6.5197C57.85 8.3697 57.96 10.2197 58.22 12.0497C58.48 13.8797 58.9 15.6697 59.49 17.4297C60.11 19.2697 60.88 21.0797 60.94 23.0597C60.94 23.2897 61.3 23.2897 61.3 23.0597C61.3 21.3297 60.87 19.6597 60.35 18.0297L60.37 18.0197Z" fill="#28211B"/>
<path d="M63.71 26.7778C64.11 22.6678 63.51 18.5378 62.78 14.4978C62.74 14.2778 62.41 14.3678 62.44 14.5878C63.08 18.9578 63.4 23.4478 62.68 27.8278C62.13 31.1878 60.8299 35.3578 62.7899 38.4978C63.0299 38.8778 63.7199 38.6378 63.5399 38.1778C62.8299 36.3578 62.64 34.5778 62.85 32.6378C63.06 30.6778 63.51 28.7478 63.7 26.7778H63.71Z" fill="#28211B"/>
<path d="M63.669 42.5388C63.639 42.2888 63.249 42.2688 63.259 42.5388C63.359 44.9288 63.279 47.3388 63.009 49.7088C62.729 52.1588 62.169 54.5288 61.659 56.9288C61.579 57.2888 62.079 57.4188 62.209 57.0788C63.929 52.5488 64.199 47.3088 63.679 42.5388H63.669Z" fill="#28211B"/>
<path d="M46.6796 52.4704C46.3696 51.7004 45.8996 51.0104 45.5596 50.2504C45.1496 49.3504 44.8396 48.4204 44.5996 47.4504C44.1296 45.5204 43.9496 43.5304 43.7996 41.5504C43.5296 37.9504 43.4396 33.6704 41.1796 30.6504C41.0496 30.4804 40.7896 30.6204 40.8896 30.8204C41.7696 32.6704 42.4396 34.5004 42.7796 36.5304C43.1196 38.5804 43.2196 40.6504 43.3796 42.7204C43.5196 44.5004 43.7196 46.2904 44.1696 48.0204C44.5696 49.5604 45.1796 51.5404 46.4696 52.5804C46.5496 52.6504 46.7296 52.5804 46.6796 52.4604V52.4704Z" fill="#28211B"/>
<path d="M42.1995 26.9312C41.0695 23.2312 41.4895 19.5313 43.7795 16.3713C43.9695 16.1113 43.5295 15.7613 43.3295 16.0213C41.0795 18.8913 40.4895 22.5913 41.3895 26.0813C42.3595 29.8613 44.5895 33.1412 46.0795 36.7112C46.1395 36.8512 46.3795 36.8013 46.3195 36.6413C45.1195 33.3313 43.2295 30.2913 42.1995 26.9213V26.9312Z" fill="#28211B"/>
<path d="M37.22 2.50973C37.16 2.30973 36.84 2.38973 36.9 2.59973C38.48 7.78973 39.78 12.9697 39.33 18.4297C39.3 18.8297 39.98 18.9197 40.03 18.5197C40.76 13.0697 38.87 7.61974 37.22 2.49974V2.50973Z" fill="#28211B"/>
<path d="M38.8 24.3783C38.37 23.0783 38.03 21.7583 37.77 20.4183C37.25 17.6983 36.96 14.8083 37.18 12.0383C37.19 11.8883 36.95 11.8883 36.94 12.0383C36.72 14.8683 36.7 17.6083 37.21 20.4183C37.46 21.8083 37.8 23.1883 38.23 24.5383C38.64 25.8283 39.07 27.2483 39.79 28.3983C39.95 28.6483 40.39 28.4883 40.29 28.1883C39.86 26.8983 39.23 25.6783 38.8 24.3783Z" fill="#28211B"/>
<path d="M65.9398 16.9185C64.5298 14.2285 62.3398 11.9485 61.6098 8.91846C60.8298 5.64846 61.7698 2.56845 62.1298 -0.671547C62.1498 -0.891547 61.8098 -0.921543 61.7498 -0.721543C60.8598 2.23846 60.4498 5.84846 61.1398 8.87846C61.8498 11.9885 64.0198 14.4185 65.6598 17.0685C65.7598 17.2385 66.0198 17.0885 65.9198 16.9185H65.9398Z" fill="#28211B"/>
<path d="M68.2703 19.2984C67.7803 16.2384 66.3303 13.4984 64.3603 11.1384C64.3003 11.0684 64.1703 11.1584 64.2303 11.2384C66.0903 13.8384 67.5603 16.8984 67.8603 20.1184C68.0103 21.7384 67.7803 23.3084 67.5703 24.9084C67.3703 26.4184 67.1903 28.0284 67.7303 29.4884C67.8503 29.7984 68.3003 29.6784 68.2303 29.3484C67.5603 25.9884 68.8203 22.6684 68.2703 19.2884V19.2984Z" fill="#28211B"/>
<path d="M66.0395 31.4479C65.3495 28.0479 65.5595 24.5179 66.0695 21.0979C66.0995 20.9279 65.8395 20.8479 65.8095 21.0279C65.2195 24.3679 64.7795 27.5579 65.3295 30.9479C65.5995 32.6179 66.0395 34.2679 66.4795 35.8979C66.9195 37.5479 67.2895 39.2579 67.9095 40.8479C68.0295 41.1579 68.4695 41.0379 68.4095 40.7079C67.8895 37.5679 66.6795 34.5679 66.0495 31.4379L66.0395 31.4479Z" fill="#28211B"/>
<path d="M66.459 43.7312C66.239 40.8412 65.669 38.0112 64.749 35.2612C64.689 35.0912 64.429 35.1612 64.479 35.3412C65.249 38.1312 65.739 41.0112 65.889 43.8912C65.959 45.2712 65.959 46.6512 65.889 48.0312C65.809 49.4612 65.559 50.8712 65.459 52.3012C65.439 52.6212 65.919 52.6712 65.999 52.3712C66.729 49.6512 66.669 46.5212 66.459 43.7312Z" fill="#28211B"/>
<path d="M64.7591 63.1805C64.8291 61.0205 65.1291 58.8705 65.4291 56.7405C65.4591 56.5605 65.1791 56.4705 65.1491 56.6605C64.7891 58.8205 64.4291 60.9905 64.2991 63.1805C64.1691 65.2705 64.1391 67.6605 64.9291 69.6405C65.0291 69.8905 65.3691 69.8005 65.3291 69.5305C65.1691 68.4505 64.9291 67.3905 64.8391 66.2905C64.7491 65.2505 64.7291 64.2205 64.7691 63.1805H64.7591Z" fill="#28211B"/>
<path d="M68.8396 47.5505C68.8196 47.2905 68.4096 47.2905 68.4296 47.5505C68.8296 51.8505 66.4496 55.9705 67.0596 60.2605C67.0996 60.5505 67.5596 60.4705 67.5596 60.1905C67.5596 57.9905 67.9096 55.8805 68.3296 53.7205C68.7296 51.6805 69.0296 49.6305 68.8296 47.5505H68.8396Z" fill="#28211B"/>
<path d="M63.759 78.1594C63.339 76.4494 62.869 74.7594 62.549 73.0294C61.859 69.3294 61.629 65.5694 61.919 61.8094C61.939 61.5794 61.589 61.5894 61.569 61.8094C61.209 65.3694 61.239 68.9794 61.799 72.5094C62.079 74.2594 62.499 75.9694 62.919 77.6894C63.359 79.5194 63.579 81.3194 63.819 83.1894C63.869 83.5494 64.339 83.5494 64.389 83.1894C64.599 81.5394 64.159 79.7494 63.769 78.1594H63.759Z" fill="#28211B"/>
<path d="M66.1984 95.7401C66.1784 94.7001 66.1084 93.6501 65.9884 92.6201C65.7484 90.6301 65.2684 88.6801 64.6184 86.7801C64.5584 86.6001 64.2684 86.6701 64.3284 86.8601C64.8884 88.7701 65.2484 90.7401 65.4284 92.7201C65.5184 93.6501 65.5584 94.5901 65.5484 95.5201C65.5484 96.0201 65.5284 96.5301 65.5084 97.0301C65.4884 97.4801 65.3984 97.9501 65.5084 98.3901C65.5684 98.5901 65.8984 98.6701 65.9984 98.4501C66.3484 97.6801 66.2184 96.5601 66.2084 95.7301L66.1984 95.7401Z" fill="#28211B"/>
<path d="M64.9499 102.91C64.0599 100.87 62.9599 98.9301 62.3699 96.7801C62.3199 96.6001 62.0399 96.6701 62.0899 96.8601C62.5699 98.9401 63.5199 100.86 64.3099 102.84C64.7099 103.83 65.0899 104.82 65.3499 105.86C65.6199 106.95 65.6899 108.06 65.8799 109.17C65.9399 109.5 66.4899 109.43 66.4699 109.09C66.3299 106.96 65.8199 104.87 64.9699 102.92L64.9499 102.91Z" fill="#28211B"/>
<path d="M67.5099 84.2512C67.2499 82.8812 66.9399 81.5112 66.6199 80.1512C66.3099 78.8412 66.0299 77.4612 65.4699 76.2312C65.3999 76.0712 65.1099 76.1512 65.1299 76.3212C65.3099 77.6712 65.7499 78.9812 66.0899 80.3012C66.4199 81.6112 66.7199 82.9212 67.0099 84.2312C67.5899 86.9612 68.0999 89.7112 68.4899 92.4712C68.5099 92.5912 68.7299 92.5712 68.7099 92.4412C68.4199 89.7012 68.0399 86.9612 67.5099 84.2512Z" fill="#28211B"/>
<path d="M70.3387 80.8176C69.8587 79.5076 69.3887 78.1876 68.8487 76.9076C68.3687 75.7676 67.8287 74.6576 67.0787 73.6776C66.3187 72.6876 65.1587 71.9276 64.6487 70.7676C64.5987 70.6476 64.4087 70.7376 64.4387 70.8576C64.7687 71.9176 65.5687 72.6176 66.2387 73.4476C67.1487 74.5576 67.7987 75.8876 68.3387 77.2076C69.4087 79.8176 70.0887 82.6176 71.2987 85.1676C71.4187 85.4276 71.7987 85.2376 71.7387 84.9776C71.4087 83.5576 70.8187 82.1776 70.3187 80.8076L70.3387 80.8176Z" fill="#28211B"/>
<path d="M69.23 72.2175C68.87 71.2275 68.52 70.2375 68.22 69.2275C67.58 67.1275 67.13 64.9775 66.95 62.7875C66.94 62.6175 66.67 62.6075 66.68 62.7875C66.74 64.9775 67.18 67.1175 67.8 69.2175C68.11 70.2675 68.46 71.2975 68.83 72.3275C69.2 73.3575 69.54 74.4375 70.04 75.4175C70.13 75.5975 70.41 75.4675 70.36 75.2775C70.07 74.2375 69.6 73.2275 69.23 72.2075V72.2175Z" fill="#28211B"/>
<path d="M70.3086 65.2679C69.9586 63.4079 70.0186 61.5579 70.1786 59.6879C70.1986 59.4179 69.7686 59.3679 69.7086 59.6279C69.3386 61.3579 69.3986 63.1879 69.7086 64.9279C69.8686 65.8379 70.1086 66.7279 70.4186 67.5979C70.7286 68.4779 71.0686 69.3879 71.1286 70.3279C71.1286 70.4379 71.2886 70.4379 71.2986 70.3279C71.4886 68.5979 70.6186 66.9479 70.3086 65.2779V65.2679Z" fill="#28211B"/>
<path d="M70.779 48.478C70.689 46.718 70.499 44.838 69.519 43.328C69.319 43.018 68.819 43.308 69.019 43.618C70.039 45.208 70.179 47.088 70.389 48.918C70.619 50.878 70.769 52.838 70.839 54.818C70.839 54.828 70.859 54.828 70.859 54.818C70.899 52.708 70.879 50.598 70.779 48.488V48.478Z" fill="#28211B"/>
<path d="M79.9603 81.5499C78.0303 77.4199 75.2103 73.7198 73.9503 69.2898C73.9303 69.2198 73.8203 69.2498 73.8403 69.3198C74.8803 73.4398 77.1703 77.0698 79.0103 80.8598C80.0003 82.9198 80.7803 85.0599 81.2403 87.2999C81.7403 89.7199 81.7403 92.1198 81.8603 94.5698C81.8703 94.8098 82.2603 94.8899 82.3003 94.6299C83.0803 90.3099 81.7703 85.4599 79.9503 81.5499H79.9603Z" fill="#28211B"/>
<path d="M75.9193 80.509C75.8593 80.359 75.5993 80.469 75.6593 80.619C76.8493 83.569 77.6893 86.649 78.1293 89.799C78.5893 93.049 78.5293 96.299 78.3293 99.569C78.3093 99.829 78.7593 99.899 78.7993 99.629C79.7293 93.219 78.4393 86.419 75.9193 80.509Z" fill="#28211B"/>
<path d="M83.4698 114.549C81.9298 112.159 81.0998 109.619 80.9198 106.779C80.7298 103.709 81.2098 100.639 81.6698 97.6194C81.6998 97.4394 81.4198 97.3494 81.3898 97.5394C80.4398 103.099 79.3498 109.989 83.1598 114.789C83.2998 114.969 83.5898 114.739 83.4698 114.549Z" fill="#28211B"/>
<path d="M83.8097 97.618C83.8297 97.458 83.5997 97.378 83.5597 97.548C82.8097 100.908 82.5697 104.468 83.0997 107.888C83.1397 108.168 83.6197 108.108 83.5997 107.818C83.3497 104.398 83.3297 101.018 83.8197 97.618H83.8097Z" fill="#28211B"/>
<path d="M77.2203 101.56C77.1903 101.24 76.6803 101.23 76.7103 101.56C77.0803 106.09 78.0303 110.55 79.3703 114.89C79.4203 115.04 79.6403 114.97 79.6003 114.83C78.3203 110.51 77.5803 106.05 77.2203 101.57V101.56Z" fill="#28211B"/>
<path d="M73.4295 84.1084C72.6495 82.5784 71.7395 81.1484 71.8095 79.3584C71.8695 77.5884 72.6595 75.8284 73.3795 74.2484C73.4195 74.1584 73.2895 74.0784 73.2395 74.1684C72.4595 75.6584 71.6995 77.1384 71.4995 78.8284C71.3295 80.2784 71.7095 81.5584 72.3595 82.8384C73.9995 86.0684 75.2995 89.2884 75.9795 92.8684C76.0295 93.1284 76.4195 93.0184 76.3695 92.7584C75.7995 89.7484 74.8095 86.8384 73.4295 84.0984V84.1084Z" fill="#28211B"/>
<path d="M74.1889 92.7611C73.2089 90.8311 72.1989 88.9211 71.1489 87.0311C71.0589 86.8811 70.8289 87.0111 70.9189 87.1711C71.9189 89.0511 72.8889 90.9411 73.8189 92.8511C74.7489 94.7611 75.5489 96.7411 76.4989 98.6411C76.6189 98.8711 77.0189 98.7111 76.9189 98.4611C76.1489 96.5111 75.1389 94.6211 74.1889 92.7611Z" fill="#28211B"/>
<path d="M75.3584 108.257C74.9784 106.857 74.6384 105.448 74.3584 104.028C73.7784 101.148 73.4284 98.2375 73.1484 95.3075C73.1284 95.1475 72.8984 95.1475 72.8984 95.3075C72.9384 98.2275 73.2884 101.138 73.8384 103.998C74.1184 105.478 74.4584 106.937 74.8384 108.397C75.1984 109.727 75.4984 111.207 76.1484 112.427C76.2684 112.647 76.5584 112.488 76.5184 112.268C76.2884 110.908 75.7184 109.578 75.3584 108.248V108.257Z" fill="#28211B"/>
<path d="M71.3503 89.5608C70.8103 93.3908 70.1303 97.1908 69.5703 101.011C69.5403 101.231 69.8703 101.341 69.9203 101.111C70.6703 97.3108 71.1303 93.4408 71.5603 89.5908C71.5703 89.4708 71.3703 89.4408 71.3503 89.5608Z" fill="#28211B"/>
<path d="M72.6194 109.618C72.3994 108.458 72.2494 107.298 72.1594 106.128C71.9894 103.948 72.0294 101.758 72.2794 99.5782C72.2994 99.4382 72.0594 99.4082 72.0394 99.5482C71.7094 101.768 71.5894 104.008 71.7294 106.248C71.8694 108.428 72.1094 110.828 72.8794 112.888C72.9894 113.178 73.4094 113.068 73.3494 112.758C73.1494 111.708 72.8294 110.678 72.6294 109.618H72.6194Z" fill="#28211B"/>
<path d="M69.3793 111.239C69.2993 109.949 69.1793 108.659 69.0093 107.379C68.6493 104.729 68.0693 102.129 67.2893 99.5791C67.2493 99.4291 67.0193 99.4891 67.0593 99.6391C67.7293 102.189 68.2093 104.789 68.5093 107.409C68.6493 108.679 68.7493 109.949 68.7993 111.229C68.8493 112.499 68.7493 113.799 68.8993 115.069C68.9293 115.299 69.3093 115.409 69.3593 115.129C69.5793 113.859 69.4593 112.509 69.3793 111.229V111.239Z" fill="#28211B"/>
<path d="M74.4693 81.0278C74.2793 79.7978 74.2593 78.5478 74.3793 77.3178C74.4093 76.9878 73.8893 76.9878 73.8593 77.3178C73.6293 79.7778 73.9393 82.4778 75.1593 84.6578C75.2193 84.7578 75.3793 84.6878 75.3493 84.5778C74.9893 83.4078 74.6593 82.2378 74.4693 81.0378V81.0278Z" fill="#28211B"/>
<path d="M72.839 61.2398C72.809 61.1198 72.609 61.1398 72.619 61.2698C72.709 63.2998 73.069 65.2998 73.029 67.3398C72.989 69.4398 72.6089 71.5298 71.6089 73.3898C71.5389 73.5198 71.729 73.6298 71.809 73.4998C72.819 71.6998 73.249 69.6898 73.339 67.6398C73.429 65.5298 73.289 63.2998 72.849 61.2298L72.839 61.2398Z" fill="#28211B"/>
<path d="M78.9003 73.7806C78.0803 72.1906 77.3704 70.5706 76.9304 68.8306C76.5004 67.1106 76.3104 65.3306 76.3204 63.5606C76.3204 63.2506 75.8503 63.2506 75.8303 63.5606C75.6303 67.1306 76.6004 70.9706 78.7104 73.9006C78.7904 74.0206 78.9703 73.9206 78.9103 73.7906L78.9003 73.7806Z" fill="#28211B"/>
<path d="M75.2499 60.7384C72.8799 56.1084 75.7699 50.7484 73.9899 46.0084C73.8799 45.7084 73.3999 45.8284 73.4999 46.1484C74.3199 48.6984 74.1299 51.2784 73.9899 53.9084C73.8699 56.2884 73.9099 58.6984 75.0799 60.8384C75.1399 60.9584 75.3199 60.8484 75.2599 60.7384H75.2499Z" fill="#28211B"/>
<path d="M73.4994 58.8995C72.9194 58.3395 72.2994 57.8195 71.6794 57.2895C71.0694 56.7695 70.4694 56.2595 69.8294 55.7795C69.7294 55.6995 69.6194 55.8595 69.6994 55.9495C70.2394 56.5295 70.8194 57.0796 71.3894 57.6296C71.9694 58.1796 72.5394 58.7295 73.1494 59.2395C73.3894 59.4395 73.7194 59.1195 73.4894 58.8995H73.4994Z" fill="#28211B"/>
<path d="M71.1198 38.5296C71.0498 38.2296 70.5998 38.3596 70.6598 38.6596C71.5698 43.1696 72.4598 47.7296 72.9898 52.3096C72.9998 52.4296 73.1898 52.4296 73.1798 52.3096C72.7298 47.6696 72.1598 43.0896 71.1198 38.5296Z" fill="#28211B"/>
<path d="M68.2902 32.6377C68.1402 32.5477 68.0002 32.7777 68.1502 32.8677C71.0502 34.6777 73.1902 37.4977 74.1102 40.7977C74.1802 41.0377 74.5402 40.9377 74.4802 40.6977C73.6102 37.3277 71.3302 34.3277 68.2802 32.6377H68.2902Z" fill="#28211B"/>
<path d="M74.5403 42.5499C74.4003 42.4299 74.2103 42.6199 74.3403 42.7499C75.7603 44.1799 76.6303 46.0699 77.1003 48.0199C77.6403 50.2599 77.5503 52.5598 77.7403 54.8398C77.7603 55.1098 78.1403 55.1098 78.1603 54.8398C78.4303 50.6098 77.9503 45.5298 74.5503 42.5598L74.5403 42.5499Z" fill="#28211B"/>
<path d="M75.7289 55.6105C75.6789 55.4805 75.4789 55.5305 75.5189 55.6705C76.9089 59.9205 77.8489 64.2905 78.9989 68.6005C79.0889 68.9305 79.5289 68.7805 79.4889 68.4605C78.8689 64.0305 77.3789 59.7405 75.7189 55.6105H75.7289Z" fill="#28211B"/>
<path d="M85.0986 81.6611C84.1286 80.1011 83.1886 78.5411 82.4686 76.8511C81.7286 75.1411 81.1786 73.3411 80.7086 71.5311C80.6686 71.3911 80.4186 71.4111 80.4386 71.5711C80.9286 75.2411 82.4586 79.0111 84.7286 81.9411C84.8886 82.1511 85.2286 81.8811 85.0886 81.6611H85.0986Z" fill="#28211B"/>
<path d="M84.7902 88.6591C84.6402 87.5391 84.4302 86.4291 84.1202 85.3391C83.4802 83.0891 82.4702 80.9691 81.2102 78.9891C81.1402 78.8791 80.9702 78.9791 81.0302 79.0891C82.1602 81.0991 82.9802 83.2591 83.5502 85.4891C83.8302 86.6091 84.0602 87.7291 84.2002 88.8791C84.3302 89.9591 84.2802 91.0591 84.4402 92.1291C84.4802 92.3691 84.8902 92.3691 84.9302 92.1291C85.1102 90.9991 84.9302 89.7791 84.7802 88.6491L84.7902 88.6591Z" fill="#28211B"/>
<path d="M84.9388 74.9396C83.2988 71.4996 81.9188 67.9896 80.9988 64.2996C80.9488 64.1196 80.6688 64.1896 80.7188 64.3796C81.5988 68.0796 82.8788 71.7396 84.6988 75.0896C84.7888 75.2496 85.0188 75.1096 84.9388 74.9496V74.9396Z" fill="#28211B"/>
<path d="M79.7097 47.2679C79.6097 47.0079 79.2097 47.1079 79.2797 47.3879C79.8897 49.6379 79.7597 51.9079 79.5597 54.1979C79.3597 56.4179 79.2297 58.5479 79.6697 60.7479C79.7097 60.9279 79.9797 60.8479 79.9397 60.6679C79.0597 56.2479 81.3397 51.6079 79.7097 47.2679Z" fill="#28211B"/>
<path d="M78.3799 43.4389C78.2499 43.0889 78.1299 42.7489 77.9699 42.4089C77.6499 41.7189 77.3099 41.0489 76.9399 40.3789C76.2199 39.0689 75.3899 37.8489 74.4399 36.6989C74.3299 36.5589 74.0899 36.7389 74.1899 36.8889C74.9999 38.1089 75.7699 39.3689 76.4699 40.6589C76.8199 41.3089 77.1399 41.9689 77.4499 42.6389C77.5999 42.9689 77.7699 43.2989 77.9199 43.6289C78.0699 43.9589 78.2799 44.2589 78.4299 44.5989C78.4899 44.7389 78.7199 44.6389 78.6799 44.4989C78.5699 44.1489 78.5199 43.7889 78.3899 43.4389H78.3799Z" fill="#28211B"/>
<path d="M73.9389 34.7892C72.9089 33.1892 71.6989 31.7492 70.8789 29.9992C69.9989 28.1092 70.0289 26.0892 70.1389 24.0492C70.1389 23.8692 69.8789 23.8792 69.8689 24.0492C69.7089 26.0692 69.5989 28.1092 70.4089 30.0192C70.7889 30.9292 71.2989 31.7792 71.8189 32.6192C72.3489 33.4592 72.8889 34.3492 73.5789 35.0692C73.7589 35.2592 74.0889 35.0092 73.9389 34.7892Z" fill="#28211B"/>
<path d="M67.1691 10.0678C66.4091 9.11782 65.6991 8.15782 65.2391 7.02782C64.7891 5.92782 64.499 4.77781 64.219 3.62781C64.189 3.49781 63.999 3.55782 64.019 3.67782C64.419 5.83782 64.929 7.80782 66.229 9.60782C67.489 11.3578 69.129 13.0878 68.949 15.4078C68.929 15.6478 69.3491 15.7178 69.3791 15.4678C69.6991 13.3678 68.399 11.6178 67.159 10.0578L67.1691 10.0678Z" fill="#28211B"/>
<path d="M72.649 27.1678C72.469 26.1478 72.2491 25.1378 71.9591 24.1378C71.6891 23.2078 71.3491 22.3078 70.9591 21.4278C70.4991 20.3678 69.989 19.3278 69.839 18.1678C69.819 18.0378 69.6291 18.0378 69.6391 18.1678C69.7691 20.1978 70.8891 22.0078 71.4291 23.9478C71.7191 24.9778 71.9391 26.0278 72.1291 27.0878C72.3291 28.1678 72.3791 29.3178 72.6991 30.3678C72.7691 30.5878 73.0991 30.5478 73.0991 30.3178C73.0991 29.2778 72.839 28.1978 72.659 27.1778L72.649 27.1678Z" fill="#28211B"/>
<path d="M71.2095 12.7586C71.0695 11.0886 71.2395 9.45858 71.4595 7.79858C71.6495 6.37858 71.9195 4.87858 71.5595 3.46858C71.4895 3.19858 71.1095 3.26858 71.0895 3.52858C71.0095 5.21858 70.9195 6.86858 70.7095 8.54858C70.5195 10.1186 70.4495 11.6786 70.6495 13.2486C71.0495 16.4486 72.3095 19.4086 73.5195 22.3686C73.5295 22.3986 73.5695 22.3886 73.5595 22.3586C72.4995 19.2486 71.4695 16.0386 71.1995 12.7486L71.2095 12.7586Z" fill="#28211B"/>
<path d="M74.1601 0.98853C74.0601 0.74853 73.6601 0.84853 73.7601 1.09853C74.4901 2.95853 74.9401 5.00853 74.8801 7.00853C74.8201 9.04853 74.0201 10.9985 74.1401 13.0485C74.1501 13.3085 74.5501 13.3085 74.5501 13.0485C74.5601 10.9385 75.2701 8.90853 75.2701 6.79853C75.2701 4.77853 74.9401 2.85853 74.1601 0.998532V0.98853Z" fill="#28211B"/>
<path d="M74.909 20.0276C73.919 16.7076 72.459 13.3676 72.999 9.82761C73.019 9.68761 72.809 9.61761 72.779 9.76761C72.179 13.0076 73.239 16.1276 74.129 19.2076C74.599 20.8476 74.989 22.5076 75.269 24.1876C75.579 26.0876 75.679 28.0176 75.919 29.9276C75.959 30.2176 76.379 30.2376 76.379 29.9276C76.429 26.6376 75.849 23.1776 74.909 20.0276Z" fill="#28211B"/>
<path d="M80.9189 42.2308C79.6689 39.3408 77.7989 36.7608 76.3289 33.9808C74.8389 31.1808 74.2189 28.0708 74.1089 24.9208C74.1089 24.7608 73.8689 24.7608 73.8589 24.9208C73.7889 27.9708 74.2089 30.9508 75.5089 33.7308C76.1989 35.2008 77.0389 36.6108 77.8289 38.0208C78.6789 39.5308 79.4889 41.0608 80.5089 42.4508C80.6789 42.6908 81.0189 42.4908 80.8989 42.2208L80.9189 42.2308Z" fill="#28211B"/>
<path d="M82.7699 41.6184C82.1499 39.5284 81.1699 37.5384 79.7799 35.8484C79.6599 35.7084 79.4699 35.9084 79.5799 36.0484C80.9899 37.8084 81.8599 39.8884 82.3599 42.0784C82.8899 44.3684 82.8599 46.7084 83.2699 49.0084C83.3199 49.2684 83.6799 49.1784 83.6999 48.9484C83.9099 46.5484 83.4399 43.9184 82.7599 41.6184H82.7699Z" fill="#28211B"/>
<path d="M77.9387 22.2387C77.8387 21.9187 77.3487 22.0487 77.4387 22.3787C77.9587 24.3287 78.2087 26.3387 78.0587 28.3587C77.9187 30.2587 77.3187 32.0687 77.8387 33.9587C77.8687 34.0587 78.0087 34.0187 77.9887 33.9187C77.7987 32.7987 78.0487 31.6787 78.2487 30.5787C78.4087 29.6987 78.5487 28.8087 78.5987 27.9187C78.7087 25.9987 78.4987 24.0687 77.9387 22.2287V22.2387Z" fill="#28211B"/>
<path d="M77.3587 8.4075C77.3387 8.1975 77.0087 8.1975 77.0287 8.4075C77.3387 11.7975 75.6687 15.2075 76.7087 18.5575C76.7487 18.7075 76.9787 18.6375 76.9387 18.4975C75.9387 15.1675 77.6387 11.7875 77.3587 8.4175V8.4075Z" fill="#28211B"/>
<path d="M79.6493 19.8689C79.0193 17.2289 78.8993 14.7589 79.3893 12.0789C79.4193 11.9189 79.1893 11.7889 79.1093 11.9589C78.0693 14.1789 78.3793 16.8789 78.8593 19.2089C79.1293 20.5089 79.4993 21.7889 79.8393 23.0789C80.2093 24.4589 80.4693 25.8689 80.8693 27.2389C80.9393 27.4689 81.2893 27.4289 81.2893 27.1789C81.2693 24.6989 80.2193 22.2489 79.6493 19.8589V19.8689Z" fill="#28211B"/>
<path d="M83.3494 20.8879C83.3094 20.7179 83.0694 20.7979 83.0994 20.9579C83.5194 23.6379 83.0794 26.5379 82.2894 29.1079C81.6894 31.0579 80.2294 33.4979 81.6294 35.4379C81.8194 35.7079 82.2094 35.4779 82.0694 35.1779C81.5394 34.0179 81.7994 32.7679 82.1894 31.6179C82.5994 30.4179 83.0194 29.2379 83.2994 27.9979C83.8494 25.5879 83.8994 23.2979 83.3494 20.8879Z" fill="#28211B"/>
<path d="M87.4396 43.4597C86.8596 40.5697 85.8796 37.7697 84.8896 34.9997C84.8296 34.8397 84.5796 34.8997 84.6296 35.0697C85.4496 37.7397 86.2496 40.4197 86.7196 43.1697C87.1996 45.9897 87.1396 48.7297 86.8596 51.5697C86.8296 51.8897 87.3096 51.9297 87.3996 51.6397C88.2396 49.0197 87.9596 46.1197 87.4296 43.4597H87.4396Z" fill="#28211B"/>
<path d="M87.3291 34.6897C86.8291 32.3097 86.2291 29.9297 85.7891 27.5297C85.7691 27.4097 85.5791 27.4597 85.5991 27.5797C86.0491 29.9897 86.3891 32.4097 86.8691 34.8097C87.3391 37.2097 87.8191 39.6097 88.3591 41.9897C88.4391 42.3397 88.9691 42.1897 88.8891 41.8397C88.3691 39.4497 87.8291 37.0697 87.3291 34.6797V34.6897Z" fill="#28211B"/>
<path d="M87.9102 61.9978C87.0002 60.0878 86.1302 58.2778 85.6902 56.1878C85.2102 53.9078 85.2502 51.5878 85.3502 49.2778C85.5202 45.4278 85.6802 41.3478 83.6302 37.9078C83.5502 37.7678 83.3402 37.8978 83.4202 38.0378C85.5902 41.9278 84.8602 46.4578 84.6902 50.7078C84.5302 54.6278 85.0902 58.9978 87.3602 62.3278C87.6002 62.6678 88.1002 62.3778 87.9202 61.9978H87.9102Z" fill="#28211B"/>
<path d="M82.6702 55.7398C82.6302 55.5998 82.4102 55.6598 82.4502 55.7998C83.9802 61.1798 88.1502 65.4198 89.3202 70.9298C89.4002 71.3198 90.0102 71.1598 89.9202 70.7598C88.6302 65.2398 84.3401 61.0998 82.6601 55.7298L82.6702 55.7398Z" fill="#28211B"/>
<path d="M81.3788 45.6811C81.3588 45.4811 81.0488 45.4711 81.0588 45.6811C81.2988 49.2411 81.9188 52.9111 83.3088 56.2211C83.4288 56.5011 83.8888 56.4011 83.7888 56.0911C82.6888 52.6711 81.7288 49.2711 81.3688 45.6911L81.3788 45.6811Z" fill="#28211B"/>
<path d="M88.98 75.0207C88.47 73.5207 87.88 72.0507 87.22 70.6107C86.49 69.0307 85.58 67.6107 84.69 66.1307C84.6 65.9807 84.37 66.1207 84.46 66.2707C86.13 69.0607 87.42 72.2607 88.41 75.3507C89.4 78.4407 89.93 81.5807 90.51 84.7607C90.56 85.0207 90.97 84.9607 90.97 84.7007C90.87 81.4307 90.03 78.1207 88.98 75.0307V75.0207Z" fill="#28211B"/>
<path d="M94.1296 83.0989C92.8696 85.6689 91.6096 88.2589 90.8896 91.0389C90.1196 94.0289 90.3096 97.0189 90.6096 100.069C90.6096 100.159 90.7696 100.159 90.7596 100.069C90.5096 97.0489 90.3596 94.0789 91.1596 91.1189C91.8996 88.3789 93.1696 85.8189 94.4296 83.2789C94.5296 83.0789 94.2296 82.8989 94.1296 83.0989Z" fill="#28211B"/>
<path d="M88.7701 89.8793C88.8201 89.7193 88.5701 89.6493 88.5201 89.8093C87.2001 93.5893 88.9201 97.5593 88.0401 101.389C87.6201 103.219 86.6601 104.889 86.4201 106.769C86.2001 108.519 86.5001 110.419 87.4601 111.919C87.5901 112.119 87.8601 111.949 87.7701 111.739C86.9701 109.849 86.5601 107.949 86.9901 105.909C87.3701 104.129 88.2601 102.509 88.5101 100.689C89.0101 97.0893 87.5701 93.4093 88.7801 89.8793H88.7701Z" fill="#28211B"/>
<path d="M84.3897 94.0006C84.2897 93.7706 83.9597 93.9706 84.0597 94.1906C85.1697 96.7106 86.3697 99.5206 85.7197 102.331C85.6997 102.411 85.8197 102.441 85.8397 102.361C86.7197 99.4906 85.5397 96.6106 84.3897 94.0006Z" fill="#28211B"/>
<path d="M86.7198 77.5176C86.6598 77.3976 86.4498 77.4876 86.4998 77.6076C88.9898 83.6076 85.6298 89.9576 86.9198 96.1176C86.9498 96.2576 87.1498 96.1976 87.1298 96.0576C85.9298 89.9576 89.4198 83.3776 86.7198 77.5176Z" fill="#28211B"/>
<path d="M82.1103 59.3205C82.1003 59.2005 81.9103 59.2005 81.9203 59.3205C82.0803 61.2305 82.1603 63.1605 82.3603 65.0705C82.3803 65.2705 82.6903 65.2805 82.6803 65.0705C82.5403 63.1505 82.2903 61.2405 82.1103 59.3205Z" fill="#28211B"/>
<path d="M92.7592 79.9175C92.7192 79.7775 92.6692 79.6475 92.6192 79.5175C92.5092 79.2075 92.4092 78.8875 92.2892 78.5775C92.0792 77.9975 91.8592 77.4275 91.6492 76.8475C91.1992 75.6475 90.7492 74.4475 90.2592 73.2675C90.1492 73.0175 89.7392 73.1075 89.8292 73.3875C90.2392 74.6275 90.6792 75.8375 91.1392 77.0575C91.3592 77.6575 91.5792 78.2575 91.8092 78.8575C91.9292 79.1675 92.0592 79.4775 92.1792 79.7875C92.2192 79.8975 92.2692 80.0075 92.3092 80.1075C92.3892 80.2875 92.5092 80.4075 92.6092 80.5775C92.6792 80.7075 92.8692 80.6175 92.8392 80.4775C92.7992 80.2875 92.8092 80.1075 92.7492 79.9175H92.7592Z" fill="#28211B"/>
<path d="M93.4094 73.0389C93.2894 72.8789 93.0194 73.0389 93.1394 73.1989C95.3394 76.3389 96.4094 80.1689 96.1194 83.9889C95.8294 87.8589 93.5094 91.2089 93.3394 95.0689C93.3294 95.3889 93.8194 95.3889 93.8394 95.0689C93.9494 92.9189 94.7394 90.9289 95.4194 88.9089C96.0294 87.1089 96.4694 85.2989 96.5294 83.3989C96.6494 79.7089 95.5394 76.0389 93.4094 73.0389Z" fill="#28211B"/>
<path d="M95.76 67.1174C95.83 66.8574 95.45 66.7574 95.37 67.0074C93.42 72.8574 98.8 78.1974 98.04 84.0574C98.04 84.1074 98.12 84.1174 98.13 84.0674C99.38 78.1574 94.21 73.0274 95.76 67.1174Z" fill="#28211B"/>
<path d="M91.2094 66.6802C91.0394 63.0602 91.2494 59.4302 91.0994 55.8202C91.0894 55.5702 90.7094 55.5602 90.6994 55.8202C90.6294 57.6902 90.6794 59.5802 90.6794 61.4502C90.6794 63.3702 90.6494 65.2902 90.7994 67.2002C91.0794 70.6802 92.1294 74.1102 93.5694 77.2802C93.6594 77.4802 93.9894 77.3402 93.9194 77.1302C92.7594 73.6402 91.3894 70.4102 91.2094 66.6802Z" fill="#28211B"/>
<path d="M91.7294 50.3498C91.6094 50.0398 91.1094 50.1798 91.2294 50.4898C93.4294 56.1698 92.7994 62.3698 93.1194 68.3298C93.1194 68.4998 93.3794 68.4998 93.3794 68.3298C93.2494 62.3098 93.9194 56.1098 91.7294 50.3498Z" fill="#28211B"/>
<path d="M92.0488 42.4481C92.0988 42.1381 91.6288 42.0081 91.5788 42.3181C90.6088 48.6381 86.8688 54.8581 88.7688 61.3681C88.8288 61.5781 89.1588 61.4881 89.0988 61.2781C87.2688 54.8381 91.0188 48.6781 92.0488 42.4481Z" fill="#28211B"/>
<path d="M95.3888 57.5585C95.3088 59.9385 95.1688 62.3185 94.9788 64.6885C94.9688 64.8485 95.2388 64.8885 95.2688 64.7285C95.6188 62.3485 95.7888 59.9685 95.7888 57.5585C95.7888 57.2985 95.3988 57.3085 95.3888 57.5585Z" fill="#28211B"/>
<path d="M94.5103 44.2778C94.8103 41.0478 94.6303 37.7078 94.0903 34.5078C94.0503 34.2578 93.6503 34.3178 93.6603 34.5678C93.8103 37.9478 94.2503 41.2278 93.9303 44.6278C93.6203 47.8778 93.6603 51.0178 94.2403 54.2478C94.2803 54.4478 94.6203 54.4078 94.6003 54.1978C94.4303 52.4978 94.2303 50.8078 94.2103 49.0878C94.1903 47.4778 94.3703 45.8778 94.5203 44.2778H94.5103Z" fill="#28211B"/>
<path d="M90.5985 35.2086C90.3885 33.8686 90.1185 32.5486 89.7985 31.2286C89.1385 28.5086 88.1585 25.8586 87.0885 23.2686C87.0085 23.0686 86.6785 23.1586 86.7585 23.3586C87.7985 25.8686 88.5385 28.4586 89.1385 31.1086C89.4385 32.4286 89.6885 33.7586 89.8785 35.1086C89.9785 35.8386 90.0785 36.5786 90.1485 37.3186C90.2085 37.9186 90.1985 38.5586 90.3785 39.1286C90.4585 39.3786 90.8985 39.4386 90.9485 39.1286C91.1485 37.9086 90.7885 36.4286 90.5885 35.2086H90.5985Z" fill="#28211B"/>
<path d="M82.9891 11.9978C82.8991 11.6878 82.4291 11.8178 82.5091 12.1278C83.6391 16.4878 84.9391 20.7978 85.3391 25.2978C85.3591 25.4878 85.6591 25.4978 85.6491 25.2978C85.3491 20.7778 84.2691 16.3278 82.9991 11.9878L82.9891 11.9978Z" fill="#28211B"/>
<path d="M81.1085 8.63009C79.1185 12.5801 81.1585 16.9401 81.0885 21.0701C81.0885 21.3001 81.4385 21.3001 81.4485 21.0701C81.6485 17.0401 79.5585 12.7201 81.5185 8.87008C81.6585 8.60008 81.2485 8.36009 81.1085 8.63009Z" fill="#28211B"/>
<path d="M84.2699 2.90885C84.2299 2.80885 84.0699 2.84885 84.1099 2.95885C84.7699 4.64885 85.2999 6.40885 85.6099 8.19885C85.9299 10.0488 86.0199 11.9188 86.0399 13.7988C86.0399 14.0688 86.4499 14.0688 86.4599 13.7988C86.5599 10.1088 85.6799 6.30885 84.2799 2.90885H84.2699Z" fill="#28211B"/>
<path d="M86.1296 17.1412C86.0296 16.9712 85.7896 17.1212 85.8696 17.2912C86.8996 19.5312 87.8496 21.8212 88.7596 24.1112C89.6496 26.3512 90.3896 28.6412 91.2096 30.9012C91.3696 31.3412 92.0496 31.1712 91.9196 30.7012C90.6096 25.9812 88.4996 21.4012 86.1296 17.1312V17.1412Z" fill="#28211B"/>
<path d="M88.5201 12.2977C88.5001 12.0777 88.1601 12.0677 88.1701 12.2977C88.2701 14.3377 88.4901 16.3777 88.9401 18.3777C89.0201 18.7277 89.5501 18.5777 89.4701 18.2277C89.0701 16.2677 88.7101 14.2977 88.5201 12.2977Z" fill="#28211B"/>
<path d="M91.5003 21.2708C91.3903 21.0708 91.1003 21.2508 91.2003 21.4508C93.7303 26.8608 95.2703 32.5108 96.3503 38.3608C96.4103 38.6808 96.9603 38.6108 96.9303 38.2808C96.2703 32.3608 94.2503 26.5408 91.5103 21.2708H91.5003Z" fill="#28211B"/>
<path d="M97.0485 42.0502C97.0485 41.9102 96.8285 41.9002 96.8185 42.0502C96.7685 43.4902 96.7185 44.9302 96.6785 46.3602C96.6385 47.8002 96.5085 49.2302 96.4785 50.6702C96.4785 50.8402 96.7685 50.8902 96.7885 50.7102C97.1685 47.8702 97.2085 44.9102 97.0485 42.0502Z" fill="#28211B"/>
<path d="M98.4785 61.4098C98.4285 60.5398 98.3085 59.6698 98.1285 58.8198C97.7485 57.0798 97.0885 55.4198 96.1985 53.8798C96.0385 53.6098 95.6285 53.8498 95.7785 54.1298C96.6685 55.7198 97.2985 57.4498 97.6385 59.2398C97.8085 60.1398 97.8785 61.0498 97.9085 61.9698C97.9385 62.7998 97.9185 63.7198 98.3385 64.4698C98.4885 64.7498 98.8785 64.5498 98.8285 64.2698C98.6485 63.3098 98.5585 62.3898 98.4985 61.4198L98.4785 61.4098Z" fill="#28211B"/>
<path d="M99.1198 44.7584C99.1798 44.4284 98.6798 44.2784 98.6098 44.6184C97.5098 49.6284 98.0998 54.6584 99.7498 59.4684C99.8098 59.6484 100.11 59.5784 100.04 59.3884C98.4398 54.7284 98.3198 49.5884 99.1198 44.7684V44.7584Z" fill="#28211B"/>
<path d="M98.7785 37.3291C98.6985 36.2591 98.6185 35.1791 98.5285 34.1091C98.3385 31.9191 98.1485 29.7291 97.9485 27.5391C97.9185 27.1691 97.3285 27.1591 97.3585 27.5391C97.5685 29.7691 97.7685 31.9991 97.9485 34.2391C98.0385 35.3591 98.1485 36.4691 98.2485 37.5891C98.3385 38.6191 98.3485 39.7191 98.6185 40.7291C98.6685 40.9091 98.9085 40.8591 98.9285 40.6891C99.0485 39.5891 98.8585 38.4391 98.7785 37.3391V37.3291Z" fill="#28211B"/>
<path d="M96.9186 24.8878C95.6786 23.3678 94.5086 21.7878 93.5986 20.0378C92.6586 18.2178 92.1986 16.3278 92.0886 14.2878C92.0686 13.9978 91.6586 13.9978 91.6386 14.2878C91.4686 16.2978 92.1786 18.3578 93.0786 20.1178C94.0286 21.9578 95.3286 23.5778 96.6686 25.1378C96.8186 25.3078 97.0586 25.0578 96.9186 24.8878Z" fill="#28211B"/>
<path d="M89.29 -0.532337C89.35 -0.772337 89 -0.862343 88.92 -0.632343C88.32 1.11766 88.68 3.00766 88.77 4.80766C88.87 6.74766 88.52 8.59766 87.49 10.2777C87.39 10.4377 87.64 10.5877 87.74 10.4277C88.73 8.90766 89.19 7.20766 89.17 5.40766C89.15 3.39766 88.76 1.44766 89.29 -0.532337Z" fill="#28211B"/>
<path d="M91.7894 1.66937C92.5694 -1.36063 94.1594 -4.28063 93.5594 -7.49063C93.5294 -7.63063 93.3294 -7.57063 93.3494 -7.43063C93.8394 -3.97063 91.7894 -0.760629 91.0694 2.51937C90.7294 4.07937 90.5594 5.66937 90.4794 7.25937C90.3994 8.96937 90.2594 10.8094 90.4794 12.5094C90.5194 12.8294 90.9494 12.8294 90.9794 12.5094C91.1494 10.7294 90.9594 8.88937 91.0394 7.08937C91.1294 5.26937 91.3394 3.43937 91.7894 1.66937Z" fill="#28211B"/>
<path d="M94.8884 16.1775C94.5884 15.1375 94.3584 14.0875 94.1684 13.0275C93.7784 10.7975 93.6784 8.53753 93.8384 6.28753C93.8484 6.10753 93.5884 6.11753 93.5684 6.28753C93.3084 8.53753 93.3184 10.8075 93.6184 13.0575C93.9084 15.2275 94.3984 17.6275 95.4784 19.5575C95.6184 19.8075 96.0084 19.6375 95.9284 19.3675C95.6284 18.2875 95.1984 17.2575 94.8884 16.1875V16.1775Z" fill="#28211B"/>
<path d="M97.899 21.141C97.819 20.981 97.589 21.121 97.669 21.281C99.639 25.451 100.329 30.101 99.879 34.681C99.839 35.071 100.429 35.051 100.479 34.681C101.109 30.011 100.129 25.281 97.909 21.141H97.899Z" fill="#28211B"/>
<path d="M100.92 38.8086C100.68 42.2286 100.15 45.5886 99.69 48.9786C99.65 49.2886 100.11 49.4286 100.17 49.1086C100.85 45.7386 101.08 42.2386 101.23 38.7986C101.23 38.5986 100.94 38.6086 100.92 38.7986V38.8086Z" fill="#28211B"/>
<path d="M103.419 62.5402C103.129 59.3602 102.189 56.3002 101.239 53.2702C101.159 53.0202 100.769 53.1302 100.849 53.3802C101.779 56.5402 102.729 59.7402 102.889 63.0502C103.049 66.1902 101.899 69.4002 102.499 72.5002C102.549 72.7502 102.929 72.6902 102.929 72.4402C102.929 69.1202 103.719 65.8502 103.419 62.5402Z" fill="#28211B"/>
<path d="M102.629 74.1189C101.859 72.4689 101.319 70.7989 101.129 68.9789C100.949 67.3089 101.019 65.6189 101.079 63.9389C101.079 63.7289 100.779 63.7389 100.759 63.9389C100.469 67.3589 100.319 70.6089 101.679 73.8189C102.319 75.3489 103.049 76.8289 103.609 78.3989C104.219 80.1089 104.659 81.8689 105.079 83.6389C105.179 84.0689 105.799 83.8789 105.729 83.4589C105.219 80.1889 104.009 77.0989 102.629 74.1189Z" fill="#28211B"/>
<path d="M100.859 76.9896C100.789 76.8296 100.519 76.9496 100.579 77.1096C101.629 79.6696 102.479 82.2996 103.169 84.9796C103.859 87.6596 104.259 90.3896 104.769 93.1096C104.799 93.2696 105.049 93.2296 105.049 93.0696C104.879 87.5596 103.079 81.9996 100.869 76.9896H100.859Z" fill="#28211B"/>
<path d="M99.8087 80.9188C99.3187 79.1188 98.7987 77.3188 98.4787 75.4788C98.1287 73.4488 98.1687 71.5188 98.4987 69.4888C98.5287 69.2888 98.2587 69.2088 98.1887 69.4088C97.1087 72.7888 98.1587 76.6288 99.0687 79.9188C100.099 83.6088 101.379 87.5288 100.599 91.3988C100.569 91.5688 100.829 91.6388 100.859 91.4688C101.579 87.8688 100.749 84.3888 99.7987 80.9188H99.8087Z" fill="#28211B"/>
<path d="M100.55 94.3612C100.69 94.0312 100.21 93.7412 100.06 94.0712C98.8597 96.7812 97.8597 99.5912 97.3297 102.521C96.8497 105.201 96.5597 108.401 97.4697 111.021C97.5597 111.281 98.0297 111.271 97.9897 110.951C97.8397 109.551 97.5797 108.201 97.5597 106.791C97.5497 105.361 97.6897 103.941 97.9397 102.541C98.4497 99.7112 99.3897 96.9912 100.54 94.3612H100.55Z" fill="#28211B"/>
<path d="M92.6594 97.8678C92.5794 97.7678 92.4094 97.8978 92.4794 98.0078C95.5794 102.138 94.9794 107.388 94.6094 112.208C94.5894 112.508 95.0394 112.498 95.0694 112.208C95.6394 107.368 95.8694 101.908 92.6494 97.8778L92.6594 97.8678Z" fill="#28211B"/>
<path d="M97.7894 88.0711C97.3194 92.0411 96.1894 95.9611 96.1094 99.9611C96.1094 100.071 96.2794 100.071 96.2794 99.9611C96.3894 95.9111 97.7494 92.0711 98.1394 88.0711C98.1594 87.8411 97.8194 87.8511 97.7894 88.0711Z" fill="#28211B"/>
<path d="M89.9694 100.789C89.9394 100.619 89.6794 100.689 89.7094 100.859C89.9894 102.899 89.9494 104.909 89.7994 106.949C89.7794 107.179 90.1194 107.169 90.1494 106.949C90.4094 104.919 90.2894 102.809 89.9694 100.789Z" fill="#28211B"/>
<path d="M101.1 108.54C100.88 107.39 100.63 106.24 100.65 105.06C100.67 103.82 100.91 102.61 101.15 101.4C101.2 101.14 100.8 101.02 100.75 101.29C100.52 102.45 100.28 103.61 100.23 104.79C100.19 105.84 100.33 106.88 100.51 107.91C100.71 109.09 100.89 110.25 100.9 111.45C100.9 112.7 100.76 113.94 100.72 115.19C100.71 115.53 101.19 115.5 101.23 115.19C101.52 112.97 101.51 110.73 101.1 108.53V108.54Z" fill="#28211B"/>
<path d="M102.53 95.3985C102.48 95.2285 102.22 95.2985 102.27 95.4685C103.03 98.3985 103.49 101.389 103.68 104.419C103.86 107.369 103.63 110.259 103.44 113.199C103.42 113.449 103.84 113.509 103.88 113.259C105.01 107.429 104.2 101.049 102.53 95.3985Z" fill="#28211B"/>
<path d="M106.199 100.198C105.499 97.4277 104.459 94.8677 103.339 92.2577C103.279 92.1177 103.079 92.2377 103.129 92.3777C104.209 94.9177 104.969 97.6877 105.599 100.368C106.239 103.078 106.619 105.818 106.899 108.578C106.939 108.968 107.539 108.988 107.519 108.578C107.369 105.758 106.889 102.938 106.189 100.198H106.199Z" fill="#28211B"/>
<path d="M106.51 17.628C105.45 14.568 104.09 11.418 103.84 8.15799C103.83 7.96799 103.52 7.95799 103.53 8.15799C103.73 11.268 104.56 14.148 105.5 17.108C105.96 18.558 106.42 20.008 106.76 21.498C107.13 23.138 107.23 24.768 107.31 26.438C107.33 26.818 107.96 26.958 108.02 26.538C108.48 23.568 107.46 20.408 106.5 17.628H106.51Z" fill="#28211B"/>
<path d="M102.57 7.2499C102.54 7.0699 102.27 7.1499 102.3 7.3299C102.74 10.4999 101.82 13.5699 101.26 16.6599C100.83 19.0199 100.45 21.9499 101.49 24.2099C101.63 24.5199 102.07 24.2899 102.01 23.9899C101.71 22.5099 101.44 21.1399 101.52 19.6099C101.59 18.2099 101.82 16.8199 102.06 15.4399C102.54 12.7299 103.02 9.9999 102.58 7.2499H102.57Z" fill="#28211B"/>
<path d="M104.509 26.8486C104.429 23.6586 104.089 20.5086 103.479 17.3786C103.439 17.1786 103.149 17.2686 103.169 17.4586C103.619 20.6186 103.889 23.8186 103.919 27.0186C103.929 28.5386 103.889 30.0586 103.789 31.5786C103.689 33.1486 103.429 34.7186 103.349 36.2886C103.329 36.6586 103.919 36.7386 103.989 36.3786C104.629 33.3186 104.579 29.9586 104.499 26.8386L104.509 26.8486Z" fill="#28211B"/>
<path d="M102.49 37.5083C101.93 34.1883 103.08 30.8083 102.04 27.5383C101.98 27.3483 101.68 27.4283 101.73 27.6183C102.7 30.9083 101.48 34.2783 101.98 37.6083C102.21 39.1083 102.88 40.4383 103.48 41.8183C104.21 43.5183 104.54 45.3083 105.17 47.0283C105.27 47.3083 105.75 47.2983 105.73 46.9483C105.49 43.5383 103.04 40.7983 102.48 37.5083H102.49Z" fill="#28211B"/>
<path d="M98.0295 17.8284C97.5695 16.9984 97.0195 16.2184 96.7095 15.3184C96.3995 14.4384 96.2695 13.5084 96.1495 12.5884C96.0995 12.2084 95.5195 12.3684 95.5695 12.7484C95.6995 13.6684 95.8495 14.5984 96.1795 15.4684C96.4995 16.2884 96.9795 17.0084 97.4395 17.7584C98.4595 19.3884 99.1295 21.1784 99.7995 22.9784C99.8695 23.1584 100.159 23.0884 100.089 22.8984C99.5095 21.1684 98.9195 19.4284 98.0295 17.8384V17.8284Z" fill="#28211B"/>
<path d="M99.6091 16.4698C99.5191 16.0098 99.4291 15.5498 99.3291 15.0898C99.1091 14.0798 98.8791 13.0698 98.5991 12.0698C98.0591 10.1598 97.3591 8.30981 96.3691 6.57981C96.2391 6.35981 95.8991 6.55982 96.0291 6.77982C96.9991 8.54982 97.6691 10.4498 98.1691 12.3898C98.4091 13.3298 98.6091 14.2798 98.7991 15.2298C98.9791 16.1398 99.0091 17.1998 99.3691 18.0498C99.4791 18.2998 99.8391 18.1498 99.8491 17.9198C99.8691 17.4398 99.7091 16.9298 99.6191 16.4598L99.6091 16.4698Z" fill="#28211B"/>
<path d="M99.9991 10.2689C99.6991 8.67886 99.4091 7.08886 99.1191 5.49886C99.0791 5.27886 98.7591 5.37886 98.7891 5.58886C99.0491 7.15886 99.3191 8.71886 99.5691 10.2889C99.8191 11.8489 100.029 13.4389 100.369 14.9789C100.429 15.2389 100.869 15.1889 100.839 14.9189C100.639 13.3589 100.299 11.8089 99.9991 10.2689Z" fill="#28211B"/>
<path d="M103.36 51.4883C102.95 49.2283 102.75 46.9583 102.57 44.6683C102.55 44.4283 102.18 44.4283 102.2 44.6683C102.49 49.2583 103.11 53.7783 104.21 58.2483C104.3 58.6083 104.84 58.4583 104.77 58.0983C104.32 55.8883 103.76 53.7083 103.36 51.4883Z" fill="#28211B"/>
<path d="M106.5 54.7277C105.96 52.3577 105.15 50.0977 104.15 47.8877C104.09 47.7477 103.84 47.8477 103.9 47.9877C104.77 50.1677 105.45 52.4477 105.94 54.7377C106.45 57.1277 106.57 59.5077 106.8 61.9277C106.83 62.2877 107.36 62.3077 107.38 61.9277C107.48 59.5377 107.03 57.0377 106.5 54.7177V54.7277Z" fill="#28211B"/>
<path d="M105.209 74.3413C105.129 72.7513 105.969 71.6313 106.439 70.2013C107.229 67.8013 106.309 65.0113 104.959 62.9913C104.839 62.8013 104.579 62.9613 104.669 63.1613C105.239 64.4813 105.859 65.7713 106.069 67.2013C106.189 68.0213 106.189 68.8613 105.989 69.6613C105.809 70.3813 105.439 71.0113 105.129 71.6813C103.989 74.1813 104.959 76.7213 105.979 79.0813C106.139 79.4613 106.699 79.1313 106.539 78.7513C105.919 77.3613 105.289 75.8813 105.209 74.3413Z" fill="#28211B"/>
<path d="M106.999 91.2801C106.729 89.1101 106.059 87.0101 105.069 85.0601C104.929 84.7901 104.539 85.0301 104.669 85.2901C105.669 87.4001 106.259 89.6601 106.419 91.9901C106.569 94.1601 106.289 96.4101 106.869 98.5301C106.989 98.9501 107.589 98.7701 107.509 98.3501C107.069 96.0001 107.289 93.6301 106.989 91.2601L106.999 91.2801Z" fill="#28211B"/>
<path d="M38.9486 99.7479C37.2786 102.698 35.4886 105.698 34.1486 108.828C32.8386 111.898 32.9086 115.298 32.6686 118.578C32.6486 118.868 33.1186 118.928 33.1786 118.648C33.9086 115.358 33.4986 111.998 34.8586 108.828C36.1686 105.798 37.8486 102.918 39.2686 99.9479C39.3786 99.7279 39.0586 99.5379 38.9386 99.7579L38.9486 99.7479Z" fill="#28211B"/>
<path d="M31.2595 100.137C31.1795 99.8875 30.7395 99.9075 30.7695 100.207C30.9395 101.617 30.9095 102.877 30.5995 104.277C30.3295 105.477 29.9795 106.657 29.7295 107.857C29.2095 110.277 28.8995 112.737 28.7795 115.207C28.7695 115.487 29.1895 115.477 29.2095 115.207C29.3795 112.547 29.7695 109.897 30.4095 107.307C30.9595 105.097 32.0295 102.427 31.2695 100.137H31.2595Z" fill="#28211B"/>
<path d="M34.5597 89.8686C32.7697 92.7386 33.4997 96.2086 33.5597 99.3986C33.6297 103.409 32.5297 107.309 31.4597 111.139C31.3897 111.389 31.7697 111.489 31.8397 111.249C32.9097 107.709 33.9697 104.119 34.1097 100.399C34.2397 96.9786 33.3097 93.3086 34.9997 90.1386C35.1597 89.8386 34.7297 89.5886 34.5497 89.8786L34.5597 89.8686Z" fill="#28211B"/>
<path d="M41.3985 86.5478C41.4885 87.4878 40.6685 88.3378 40.0885 89.0078C39.6185 89.5578 39.1085 90.0678 38.6285 90.6078C37.7285 91.5978 36.8585 92.6578 36.3685 93.9078C35.7785 95.4078 35.7685 97.0978 35.6285 98.6878C35.4785 100.528 35.3585 102.378 35.2285 104.218H35.2385C35.5085 102.388 35.7985 100.568 36.0485 98.7378C36.2785 97.0078 36.3585 95.1078 37.2185 93.5478C37.9385 92.2378 39.0385 91.1978 40.0485 90.1178C40.9185 89.1778 42.2485 87.9478 42.1285 86.5478C42.0885 86.0778 41.3485 86.0778 41.3885 86.5478H41.3985Z" fill="#28211B"/>
<path d="M36.7692 88.9302C36.7892 88.3002 36.6592 87.6602 36.4692 87.0602C36.0792 85.7802 35.4192 84.5802 35.5292 83.2002C35.5592 82.8502 35.0192 82.8602 34.9892 83.2002C34.8592 84.5002 35.4392 85.7202 35.9092 86.9002C36.1492 87.5102 36.3792 88.1502 36.4192 88.8102C36.4392 89.1802 36.3892 89.5402 36.3392 89.9102C36.3192 90.1002 36.3092 90.2902 36.2992 90.4802C36.2992 90.6902 36.3392 90.9702 36.2492 91.1602C36.1892 91.3002 36.4292 91.2902 36.3792 91.1802C36.2392 90.8302 36.5392 90.3002 36.6192 89.9502C36.6992 89.6202 36.7592 89.2702 36.7692 88.9302Z" fill="#28211B"/>
<path d="M43.2397 80.6306C43.0597 81.4506 42.4697 82.0406 41.8497 82.5706C41.2097 83.1206 40.5497 83.6406 39.9997 84.2906C38.8697 85.6006 38.1197 87.2006 37.7897 88.9006C37.7397 89.1506 38.1197 89.2606 38.1697 89.0106C38.5497 87.2206 39.4197 85.5606 40.6897 84.2406C41.7397 83.1506 43.3497 82.3506 43.6997 80.7606C43.7697 80.4506 43.2997 80.3206 43.2297 80.6306H43.2397Z" fill="#28211B"/>
<path d="M38.3689 74.8886C38.3389 74.6786 37.9789 74.7286 37.9989 74.9386C38.1789 76.7486 38.4089 78.6286 38.0789 80.4386C37.7889 82.0386 37.1489 83.5486 37.1289 85.1886C37.1289 85.4686 37.5589 85.4686 37.5689 85.1886C37.6189 83.4286 38.3989 81.8186 38.6489 80.0986C38.8989 78.3586 38.6489 76.6186 38.3689 74.8886Z" fill="#28211B"/>
<path d="M40.5698 73.7189C40.1598 72.3289 39.8898 70.9989 39.9898 69.5489C40.0798 68.1689 40.4598 66.8189 40.5598 65.4489C40.5798 65.2189 40.2498 65.2089 40.1798 65.3989C39.3498 67.7489 39.1998 70.5089 39.8498 72.9089C40.1998 74.1989 40.6398 75.4389 40.7598 76.7789C40.8798 78.1589 40.7298 79.5389 40.3598 80.8789C40.2898 81.1389 40.6898 81.2489 40.7598 80.9889C41.4598 78.5289 41.2898 76.1389 40.5698 73.7189Z" fill="#28211B"/>
<path d="M35.0586 65.9677C34.4786 64.9977 33.8286 64.0877 33.1786 63.1577C32.5186 62.2177 31.9386 61.2377 31.7686 60.0877C31.7086 59.7077 31.0386 59.7977 31.0886 60.1777C31.3686 62.3777 33.0886 64.0177 34.2386 65.8177C35.5386 67.8577 36.5886 70.0677 37.3686 72.3677C37.4586 72.6277 37.8586 72.5177 37.7786 72.2577C37.1286 70.0477 36.2286 67.9477 35.0586 65.9677Z" fill="#28211B"/>
<path d="M33.209 65.7905C32.379 65.8905 31.539 65.7905 30.759 65.5105C30.569 65.4405 30.489 65.7405 30.679 65.8205C31.479 66.1505 32.3489 66.2905 33.2189 66.2305C33.3389 66.2305 33.439 66.1405 33.439 66.0105C33.439 65.9005 33.3389 65.7805 33.2189 65.8005L33.209 65.7905Z" fill="#28211B"/>
<path d="M39.5495 53.1788C39.5195 52.8988 39.0795 52.8988 39.1095 53.1788C39.4095 55.9088 38.9195 58.5788 38.4095 61.2488C38.1795 62.4488 37.9695 63.6688 37.8595 64.8888C37.7495 66.0788 37.5995 67.4788 37.9195 68.6588C37.9695 68.8488 38.2295 68.7988 38.2395 68.6188C38.3295 67.3288 38.2195 66.0488 38.3695 64.7588C38.5195 63.3888 38.7595 62.0388 38.9795 60.6888C39.3795 58.2088 39.7895 55.7088 39.5595 53.1888L39.5495 53.1788Z" fill="#28211B"/>
<path d="M39.8995 44.2508C39.8095 43.9208 39.3095 44.0608 39.3895 44.3908C40.8095 50.3108 42.5095 56.3708 40.5995 62.3908C40.5295 62.6108 40.8795 62.7108 40.9495 62.4908C42.8695 56.5308 41.5195 50.1208 39.8995 44.2508Z" fill="#28211B"/>
<path d="M42.5994 46.22C42.1894 44.47 41.4494 42.9 40.6594 41.29C39.7294 39.4 39.3494 37.48 38.7794 35.47C38.6794 35.13 38.2194 35.28 38.2694 35.61C38.5394 37.39 39.0694 39.17 39.8294 40.8C40.6894 42.64 41.6394 44.36 42.1294 46.35C43.0094 49.97 42.9294 53.75 43.9594 57.34C44.0194 57.54 44.3194 57.45 44.2694 57.26C43.3594 53.64 43.4694 49.86 42.6094 46.22H42.5994Z" fill="#28211B"/>
<path d="M37.4 51.9688C37.87 48.9388 38.17 45.8588 37.17 42.8988C37.15 42.8388 37.05 42.8588 37.07 42.9288C37.99 46.2288 37.33 49.5988 36.66 52.8788C36.07 55.7588 35.14 59.1388 35.97 62.0588C36.08 62.4588 36.72 62.3888 36.7 61.9588C36.63 60.3488 36.51 58.7888 36.66 57.1788C36.83 55.4388 37.12 53.7088 37.39 51.9788L37.4 51.9688Z" fill="#28211B"/>
<path d="M34.9784 63.0299C33.6584 60.5299 32.6584 57.8598 32.0284 55.0998C31.4584 52.6098 31.1284 49.9599 29.8784 47.6999C29.6584 47.3099 29.1184 47.6499 29.2884 48.0399C30.3984 50.5399 30.7784 53.1999 31.4684 55.8198C32.1584 58.4398 33.2084 60.9299 34.5684 63.2699C34.7184 63.5399 35.1184 63.2999 34.9784 63.0299Z" fill="#28211B"/>
<path d="M32.629 47.5492C31.499 45.2392 29.619 43.2092 29.399 40.5492C29.359 40.1292 28.709 40.1192 28.729 40.5492C28.839 43.0292 30.469 44.9692 31.679 47.0192C33.249 49.6592 33.589 52.6592 33.699 55.6792C33.699 55.8792 34.019 55.8792 34.019 55.6792C33.919 52.8992 33.879 50.1092 32.619 47.5492H32.629Z" fill="#28211B"/>
<path d="M38.9501 29.6683C39.0001 29.1783 38.2301 29.1783 38.1801 29.6683C38.0001 31.4983 37.1601 33.1183 36.4001 34.7683C35.7601 36.1683 35.2101 37.5983 34.8601 39.1083C34.1401 42.2283 34.1901 45.4683 34.8701 48.5883C34.9301 48.8583 35.3301 48.7383 35.2801 48.4783C34.6701 45.1083 34.8901 41.6583 35.8301 38.3683C36.6801 35.4083 38.6301 32.7783 38.9301 29.6783L38.9501 29.6683Z" fill="#28211B"/>
<path d="M31.3792 38.7011L30.7892 36.2311C30.5892 35.4111 30.4292 34.6011 30.0792 33.8311C29.9892 33.6211 29.6292 33.7311 29.6492 33.9511C29.6992 34.7611 29.9192 35.5311 30.1192 36.3211C30.3292 37.1711 30.5492 38.0211 30.7592 38.8811C31.1792 40.5511 31.5992 42.2311 32.0292 43.9011C32.1192 44.2611 32.6692 44.1111 32.5892 43.7511C32.1892 42.0711 31.7892 40.3911 31.3892 38.7111L31.3792 38.7011Z" fill="#28211B"/>
<path d="M34.2495 21.1199C34.1495 20.8299 33.6495 20.8599 33.6795 21.1999C33.9595 23.8099 34.4495 26.3099 34.2795 28.9499C34.1095 31.6199 33.5194 34.2499 32.9394 36.8599C32.8994 37.0399 33.1794 37.1199 33.2194 36.9399C34.5094 31.8999 35.9394 26.2499 34.2394 21.1199H34.2495Z" fill="#28211B"/>
<path d="M36.8989 24.301C36.8789 24.061 36.5089 24.051 36.5189 24.301C36.5789 25.771 36.4889 27.241 36.2589 28.691C36.0289 30.121 35.5789 31.481 35.2689 32.881C35.2189 33.101 35.5389 33.2609 35.6489 33.0409C36.3189 31.7309 36.5889 30.241 36.7889 28.801C36.9889 27.311 37.0189 25.801 36.8989 24.301Z" fill="#28211B"/>
<path d="M35.7203 10.2578C35.8803 9.36775 35.9903 8.46776 35.8103 7.56776C35.7403 7.20776 35.1203 7.27775 35.1503 7.65775C35.2603 8.73775 35.0803 9.76775 34.9103 10.8278C34.7603 11.7678 34.6603 12.7278 34.6103 13.6778C34.5103 15.7078 34.7003 17.7378 35.0903 19.7278C35.1403 19.9778 35.5103 19.8678 35.4703 19.6178C35.1703 17.5378 35.1203 15.4278 35.2903 13.3278C35.3703 12.2878 35.5403 11.2678 35.7203 10.2478V10.2578Z" fill="#28211B"/>
<path d="M31.9292 13.5983C31.5792 12.6283 31.2292 11.6483 30.9792 10.6383C30.7092 9.56825 30.6292 8.49825 30.5592 7.39825C30.5392 7.12825 30.0892 7.01825 30.0492 7.32825C29.7692 9.36825 30.5392 11.4782 31.2492 13.3682C32.0092 15.3982 32.9092 17.4282 33.2492 19.5882C33.2792 19.7682 33.5892 19.7282 33.5692 19.5482C33.3592 17.4682 32.6392 15.5483 31.9292 13.5983Z" fill="#28211B"/>
<path d="M31.2096 17.5281C30.1996 15.2681 29.2496 13.0181 28.5496 10.6381C27.8496 8.26814 27.3496 5.85814 27.0296 3.40814C26.9896 3.09814 26.4896 3.08814 26.5296 3.40814C27.1796 8.32814 28.5196 13.3381 30.7496 17.7981C30.9096 18.1081 31.3496 17.8381 31.2096 17.5281Z" fill="#28211B"/>
<path d="M31.2497 21.5376C30.6697 20.4276 29.9397 19.4376 29.1297 18.4976C28.2097 17.4176 27.2597 16.3576 26.7797 14.9976C26.6997 14.7676 26.3297 14.8676 26.4097 15.0976C27.1797 17.4676 29.2597 19.0776 30.4397 21.2176C31.7297 23.5676 32.2797 26.2676 32.1097 28.9276C32.0797 29.3676 32.7597 29.3576 32.7897 28.9276C32.9697 26.3676 32.4297 23.8176 31.2497 21.5376Z" fill="#28211B"/>
<path d="M28.3598 24.6203C28.2798 24.3403 27.8498 24.4603 27.9198 24.7403C28.8498 28.1103 30.6498 31.1903 31.3698 34.6303C31.4298 34.9303 31.8798 34.8003 31.8298 34.5003C31.2398 31.0203 29.3398 27.9803 28.3598 24.6203Z" fill="#28211B"/>
<path d="M28.4095 45.1599C25.4995 39.7299 27.8395 33.1899 25.4295 27.6399C25.2695 27.2699 24.6495 27.5299 24.7795 27.9099C25.7795 30.9099 25.8595 33.9799 26.0295 37.1099C26.1795 40.0099 26.5195 42.8399 28.0795 45.3499C28.2095 45.5699 28.5395 45.3799 28.4195 45.1499L28.4095 45.1599Z" fill="#28211B"/>
<path d="M23.0799 24.8379C23.2899 23.0379 23.7099 21.2579 24.0599 19.4779C24.3699 17.8679 24.8099 16.0579 24.6199 14.4179C24.5899 14.1379 24.1299 14.0079 24.0799 14.3479C23.8099 16.1679 23.6999 17.9879 23.3399 19.8079C22.9999 21.5379 22.6199 23.2579 22.4599 25.0079C22.1199 28.6979 23.1599 32.1279 24.3299 35.5879C24.4199 35.8379 24.8199 35.7379 24.7299 35.4779C23.6199 31.9879 22.6499 28.5479 23.0899 24.8479L23.0799 24.8379Z" fill="#28211B"/>
<path d="M27.74 28.6994C27.06 25.9194 25.98 23.2194 26.19 20.3094C26.21 20.0794 25.86 20.0894 25.84 20.3094C25.53 23.1394 26.44 25.8494 27.06 28.5794C27.71 31.4394 27.59 34.3994 28.28 37.2394C28.32 37.3994 28.56 37.3294 28.53 37.1694C28.03 34.3594 28.42 31.5094 27.74 28.7094V28.6994Z" fill="#28211B"/>
<path d="M27.3701 13.6981C26.6701 12.3781 25.6501 11.2981 24.4101 10.4681C23.2801 9.70811 21.5001 8.65811 21.9001 7.01811C21.9901 6.64811 21.4501 6.49811 21.3301 6.85811C20.8001 8.48811 22.2001 9.7481 23.4401 10.5081C24.1401 10.9381 24.8501 11.3381 25.4701 11.8981C26.1001 12.4681 26.6401 13.1381 27.0701 13.8681C27.1801 14.0681 27.4801 13.8881 27.3701 13.6881V13.6981Z" fill="#28211B"/>
<path d="M1.57847 -1.79227C1.48847 -1.99227 1.12847 -1.84227 1.21847 -1.64227C2.17847 0.647727 2.39847 3.19772 1.75847 5.59772C1.16847 7.82772 -0.0815287 10.0077 0.668471 12.3677C0.788471 12.7377 1.36847 12.5777 1.24847 12.2077C0.388469 9.63773 2.07847 7.15772 2.45847 4.65772C2.78847 2.45772 2.46847 0.237723 1.58847 -1.80228L1.57847 -1.79227Z" fill="#28211B"/>
<path d="M2.76922 18.9295C2.34922 15.6095 1.81922 12.2395 2.79922 8.94949C2.82922 8.84949 2.67922 8.80949 2.64922 8.90949C1.56922 11.9895 1.84922 15.2395 2.04922 18.4295C2.15922 20.1395 2.25922 21.8495 2.23922 23.5695C2.21922 25.3095 2.01922 27.0495 2.02922 28.7895C2.02922 29.1495 2.58922 29.2495 2.66922 28.8795C3.41922 25.7195 3.17922 22.1395 2.76922 18.9395V18.9295Z" fill="#28211B"/>
<path d="M5.17842 23.591C5.06842 23.201 4.45842 23.361 4.56842 23.761C6.04842 29.361 2.37842 34.481 1.88842 39.941C1.84842 40.341 2.52842 40.431 2.58842 40.031C3.44842 34.611 6.74842 29.181 5.17842 23.591Z" fill="#28211B"/>
<path d="M0.279812 30.3085C0.299812 30.0485 -0.100188 30.0585 -0.130188 30.3085C-0.830188 35.8185 -1.69019 41.9085 0.769814 47.1185C0.929814 47.4585 1.50981 47.2185 1.37981 46.8585C-0.530185 41.4685 -0.250188 35.9085 0.279812 30.3085Z" fill="#28211B"/>
<path d="M4.70854 37.6797C4.68854 37.4297 4.28854 37.4297 4.30854 37.6797C4.53854 40.2397 4.30854 42.8897 3.78854 45.3997C3.53854 46.6097 3.19854 47.7797 2.79854 48.9497C2.42854 50.0497 2.04854 51.1297 1.93854 52.2997C1.90854 52.6797 2.53854 52.7697 2.60854 52.3897C3.05854 49.9397 4.09854 47.6397 4.51854 45.1697C4.94854 42.6697 4.93854 40.1997 4.70854 37.6697V37.6797Z" fill="#28211B"/>
<path d="M2.12983 57.1903C1.90983 56.4003 1.67983 55.6203 1.45983 54.8303C1.23983 54.0603 1.00983 53.2903 0.779825 52.5303C0.549825 51.7503 0.269825 50.9503 0.119825 50.1603C0.0898253 49.9903 -0.170173 50.0603 -0.140173 50.2303C-0.010173 51.0503 0.0998273 51.8503 0.289827 52.6703C0.469827 53.4503 0.669825 54.2303 0.869825 55.0003C1.07983 55.7903 1.27983 56.5803 1.48983 57.3703C1.69983 58.1803 1.85983 59.0203 2.20983 59.7903C2.32983 60.0503 2.77983 59.9203 2.74983 59.6403C2.65983 58.8003 2.36983 57.9903 2.13983 57.1903H2.12983Z" fill="#28211B"/>
<path d="M5.22872 47.0002C4.79872 48.5802 4.37873 50.1601 3.94873 51.7401C3.52873 53.3101 2.99872 54.8902 2.72872 56.5002C2.67872 56.8102 3.09872 56.9402 3.20872 56.6302C3.76872 55.1002 4.07872 53.4602 4.47872 51.8802C4.87872 50.2902 5.27872 48.7001 5.68872 47.1201C5.76872 46.8201 5.30872 46.7001 5.22872 46.9901V47.0002Z" fill="#28211B"/>
<path d="M10.2993 42.6094C9.54926 44.6894 9.18926 46.9794 9.44926 49.1794C9.48926 49.4894 9.95926 49.5094 9.94926 49.1794C9.87926 46.9794 10.1093 44.8394 10.8593 42.7594C10.9893 42.4094 10.4293 42.2594 10.2993 42.6094Z" fill="#28211B"/>
<path d="M4.60004 101.271C4.52004 101.051 4.16004 101.141 4.24004 101.371C4.79004 102.981 5.75004 104.371 6.74004 105.731C7.75004 107.121 8.75004 108.521 9.49004 110.071C9.61004 110.321 10.04 110.141 9.94003 109.881C8.77003 106.661 5.79004 104.491 4.59004 101.271H4.60004Z" fill="#28211B"/>
<path d="M13.3588 102.119C13.3388 101.959 13.1388 101.879 12.9988 101.909C12.8288 101.959 12.7688 102.109 12.7888 102.269C12.9488 103.479 13.1188 104.689 13.2788 105.899C13.2988 106.059 13.5088 106.149 13.6588 106.109C13.8388 106.059 13.8988 105.899 13.8688 105.729C13.6988 104.519 13.5288 103.309 13.3588 102.109V102.119Z" fill="#28211B"/>
<path d="M48.4394 97.1412C47.7694 96.6612 47.1994 96.0412 46.7594 95.3412C46.6194 95.1212 46.2694 95.3213 46.4094 95.5513C46.8794 96.3213 47.4994 96.9812 48.2294 97.5012C48.3194 97.5712 48.4594 97.5212 48.5194 97.4212C48.5794 97.3112 48.5394 97.2013 48.4394 97.1313V97.1412Z" fill="#28211B"/>
<path d="M-1.17992 17.6319C-2.23992 14.5719 -3.59992 11.4219 -3.84992 8.1619C-3.85992 7.9719 -4.16992 7.9619 -4.15992 8.1619C-3.95992 11.2719 -3.12992 14.1519 -2.18992 17.1119C-1.72992 18.5619 -1.26992 20.0119 -0.92992 21.5019C-0.55992 23.1419 -0.459921 24.7719 -0.379921 26.4419C-0.359921 26.8219 0.270082 26.9619 0.330082 26.5419C0.790082 23.5719 -0.229918 20.4119 -1.18992 17.6319H-1.17992Z" fill="#28211B"/>
<path d="M14.8094 -13.5395C12.8894 -11.7095 10.5694 -10.0595 10.1294 -7.24949C9.68937 -4.44949 11.0094 -1.7995 12.2894 0.590505C12.4694 0.920505 12.9694 0.630509 12.7994 0.290509C11.6094 -2.02949 10.3894 -4.5895 10.9294 -7.2695C11.4194 -9.7195 13.6094 -11.4095 15.4394 -12.9195C15.8694 -13.2795 15.2294 -13.9395 14.8194 -13.5395H14.8094Z" fill="#28211B"/>
<path d="M20.0187 -10.0193C20.2387 -10.4393 19.6087 -10.8093 19.3787 -10.3893C18.3987 -8.52933 17.7087 -6.52933 17.4087 -4.44933C17.2587 -3.41933 17.2287 -2.37933 17.2887 -1.33933C17.3387 -0.429332 17.3387 0.84067 17.8187 1.63067C18.0387 2.01067 18.5687 1.82067 18.5987 1.42067C18.6387 0.95067 18.4787 0.480669 18.3987 0.020669C18.3187 -0.499331 18.2687 -1.01933 18.2387 -1.53933C18.1887 -2.46933 18.2287 -3.39933 18.3187 -4.32933C18.5087 -6.31933 19.0787 -8.24933 20.0087 -10.0193H20.0187Z" fill="#28211B"/>
<path d="M6.28946 -18.7091C6.45946 -18.9091 6.16946 -19.1991 5.99946 -18.9991C3.75946 -16.3591 2.23946 -13.0991 1.74946 -9.65906C1.49946 -7.94906 1.66946 -6.29905 2.14946 -4.63905C2.40946 -3.76905 2.72946 -2.91906 3.03946 -2.05906C3.33946 -1.23906 3.50945 -0.319059 3.93946 0.440941C4.10946 0.730942 4.55946 0.600943 4.55946 0.270943C4.57946 -1.17906 3.67946 -2.75906 3.20946 -4.09906C2.61946 -5.77906 2.23946 -7.43906 2.40946 -9.22906C2.72946 -12.5691 4.14946 -16.1291 6.28946 -18.7091Z" fill="#28211B"/>
<path d="M24.2387 -9.34099C24.1887 -9.56099 23.8687 -9.46098 23.8987 -9.25098C24.1187 -7.82098 24.1987 -6.32099 23.7587 -4.92099C23.4187 -3.85099 22.8387 -2.88098 22.4487 -1.83098C21.6687 0.289015 21.6087 2.69901 22.3287 4.83901C22.4587 5.21901 23.0487 5.06901 22.9387 4.66901C22.2187 2.14902 22.3787 -0.330986 23.4387 -2.73099C23.8787 -3.73099 24.3287 -4.71099 24.4787 -5.80099C24.6387 -6.99099 24.4787 -8.19099 24.2387 -9.35099V-9.34099Z" fill="#28211B"/>
<path d="M29.6193 -8.58918C29.4993 -9.85918 29.1193 -11.1092 29.3393 -12.3992C29.4193 -12.8692 28.6993 -13.0692 28.6193 -12.5992C28.4093 -11.4192 28.6793 -10.2992 28.8693 -9.12918C29.0993 -7.68918 28.8693 -6.48918 28.2893 -5.15918C27.2993 -2.89918 26.6993 -0.71918 26.9493 1.77082C26.9693 1.99082 27.3193 2.00082 27.2993 1.77082C27.2193 0.50082 27.3193 -0.769176 27.6593 -1.99918C27.9893 -3.20918 28.5893 -4.29918 29.0793 -5.44918C29.5093 -6.46918 29.7293 -7.46918 29.6293 -8.58918H29.6193Z" fill="#28211B"/>
<path d="M39.6396 -0.800044C39.9696 -4.03004 41.1295 -6.93005 42.0195 -10.02C42.0995 -10.29 41.6795 -10.48 41.5495 -10.22C40.1795 -7.29004 39.3595 -3.86004 39.0595 -0.650043C38.7695 2.54996 39.1895 5.77995 40.5595 8.69995C40.6795 8.95996 41.0695 8.72996 40.9495 8.46996C39.6295 5.55996 39.3096 2.33995 39.6396 -0.810046V-0.800044Z" fill="#28211B"/>
<path d="M45.3801 -9.19791C45.1001 -10.7479 44.4701 -12.2079 43.8501 -13.6479C43.7701 -13.8379 43.4301 -13.6979 43.5101 -13.5079C44.1401 -11.9479 44.7901 -10.3479 44.9501 -8.65791C45.0901 -7.15791 44.8401 -5.65791 44.5801 -4.18791C44.1101 -1.55791 43.4801 1.16209 44.4501 3.76209C44.6001 4.15209 45.2301 3.98209 45.0801 3.59209C43.9901 0.70209 44.9801 -2.27791 45.3801 -5.19791C45.5601 -6.52791 45.6201 -7.87791 45.3801 -9.19791Z" fill="#28211B"/>
<path d="M49.0187 -8.30818C49.0687 -8.46818 48.8187 -8.53818 48.7687 -8.37818C48.0187 -6.01818 47.4387 -3.63817 47.1187 -1.17817C46.9487 0.0818253 46.8387 1.34183 46.7887 2.61183C46.7387 3.79183 46.6587 5.03182 46.8487 6.20182C46.8887 6.47182 47.2887 6.38183 47.3087 6.14183C47.3887 4.97183 47.2787 3.78183 47.3087 2.61183C47.3387 1.39183 47.4287 0.171823 47.5687 -1.04818C47.8487 -3.49818 48.3287 -5.94818 49.0187 -8.30818Z" fill="#28211B"/>
<path d="M43.3103 7.96208C43.0203 6.27208 42.7903 4.57208 42.6403 2.86208C42.3503 -0.397919 42.4703 -3.64792 43.4003 -6.80792C43.4803 -7.06792 43.0803 -7.17792 43.0003 -6.91792C42.0303 -3.81792 41.7603 -0.537924 41.9303 2.69208C42.0103 4.30208 42.2203 5.90208 42.4703 7.49208C42.7203 9.14208 42.9103 10.8821 43.4003 12.4721C43.5103 12.8421 44.1503 12.8021 44.1103 12.3721C43.9703 10.8921 43.5803 9.41208 43.3203 7.95208L43.3103 7.96208Z" fill="#28211B"/>
<path d="M52.5195 -9.01952C53.3695 -11.9995 54.3495 -15.3895 53.2095 -18.4295C53.0595 -18.8195 52.4595 -18.6695 52.5795 -18.2595C53.5195 -14.7995 52.4894 -11.5095 51.5394 -8.16952C51.1094 -6.64952 50.6995 -5.10952 50.5195 -3.53952C50.3595 -2.13952 50.3095 -0.259518 51.0695 0.990482C51.1695 1.15048 51.4695 1.10048 51.4495 0.890484C51.3895 0.0904846 51.1595 -0.679522 51.1195 -1.48952C51.0795 -2.35952 51.1594 -3.22952 51.2894 -4.07952C51.5494 -5.75952 52.0495 -7.38952 52.5195 -9.01952Z" fill="#28211B"/>
<path d="M57.2689 -10.8105C57.3289 -10.9805 57.0589 -11.0505 56.9989 -10.8905C56.3989 -9.3105 55.7789 -7.7805 55.3489 -6.1405C54.9489 -4.6305 54.6589 -3.09051 54.4489 -1.54051C54.0189 1.55949 53.8389 4.77949 54.2289 7.89949C54.2689 8.25949 54.8189 8.27949 54.8089 7.89949C54.5389 1.57949 55.0189 -4.84051 57.2789 -10.8105H57.2689Z" fill="#28211B"/>
<path d="M64.9499 -4.76959C64.0599 -6.80959 62.9599 -8.74958 62.3699 -10.8996C62.3199 -11.0796 62.0399 -11.0096 62.0899 -10.8196C62.5699 -8.73958 63.5199 -6.81959 64.3099 -4.83959C64.7099 -3.84959 65.0899 -2.85958 65.3499 -1.81958C65.6199 -0.729583 65.6899 0.380415 65.8799 1.49041C65.9399 1.82041 66.4899 1.75041 66.4699 1.41041C66.3299 -0.719587 65.8199 -2.80958 64.9699 -4.75958L64.9499 -4.76959Z" fill="#28211B"/>
<path d="M83.4698 6.86971C81.9298 4.47971 81.0998 1.93971 80.9198 -0.900287C80.7298 -3.97029 81.2098 -7.04029 81.6698 -10.0603C81.6998 -10.2403 81.4198 -10.3303 81.3898 -10.1403C80.4398 -4.58028 79.3498 2.30972 83.1598 7.10972C83.2998 7.28972 83.5898 7.05971 83.4698 6.86971Z" fill="#28211B"/>
<path d="M83.8097 -10.0577C83.8297 -10.2177 83.5997 -10.2977 83.5597 -10.1277C82.8097 -6.76774 82.5697 -3.20774 83.0997 0.21226C83.1397 0.49226 83.6197 0.432261 83.5997 0.142261C83.3497 -3.27774 83.3297 -6.65774 83.8197 -10.0577H83.8097Z" fill="#28211B"/>
<path d="M77.2203 -6.11952C77.1903 -6.43952 76.6803 -6.44952 76.7103 -6.11952C77.0803 -1.58952 78.0303 2.87049 79.3703 7.21049C79.4203 7.36049 79.6403 7.29048 79.6003 7.15048C78.3203 2.83048 77.5803 -1.62951 77.2203 -6.10951V-6.11952Z" fill="#28211B"/>
<path d="M75.3604 0.570004C74.9804 -0.829995 74.6404 -2.24 74.3604 -3.66C73.7804 -6.54 73.4304 -9.45 73.1504 -12.38C73.1304 -12.54 72.9004 -12.54 72.9004 -12.38C72.9404 -9.46 73.2904 -6.55 73.8404 -3.69C74.1204 -2.21 74.4604 -0.749996 74.8404 0.710004C75.2004 2.04 75.5004 3.52 76.1504 4.74C76.2704 4.96 76.5604 4.8 76.5204 4.58C76.2904 3.22 75.7204 1.89 75.3604 0.560002V0.570004Z" fill="#28211B"/>
<path d="M72.6194 1.94245C72.3994 0.782447 72.2494 -0.377551 72.1594 -1.54755C71.9894 -3.72755 72.0294 -5.91755 72.2794 -8.09755C72.2994 -8.23755 72.0594 -8.26755 72.0394 -8.12755C71.7094 -5.90755 71.5894 -3.66755 71.7294 -1.42755C71.8694 0.752452 72.1094 3.15245 72.8794 5.21245C72.9894 5.50245 73.4094 5.39245 73.3494 5.08245C73.1494 4.03245 72.8294 3.00245 72.6294 1.94245H72.6194Z" fill="#28211B"/>
<path d="M69.3793 3.55939C69.2993 2.26939 69.1793 0.979388 69.0093 -0.300612C68.6493 -2.95061 68.0693 -5.55062 67.2893 -8.10062C67.2493 -8.25062 67.0193 -8.19061 67.0593 -8.04061C67.7293 -5.49061 68.2093 -2.89061 68.5093 -0.270613C68.6493 0.999387 68.7493 2.26939 68.7993 3.54939C68.8493 4.81939 68.7493 6.11939 68.8993 7.38939C68.9293 7.61939 69.3093 7.72939 69.3593 7.44939C69.5793 6.17939 69.4593 4.82939 69.3793 3.54939V3.55939Z" fill="#28211B"/>
<path d="M88.7701 -17.8082C88.8201 -17.9682 88.5701 -18.0382 88.5201 -17.8782C87.2001 -14.0982 88.9201 -10.1282 88.0401 -6.29818C87.6201 -4.46818 86.6601 -2.79818 86.4201 -0.91818C86.2001 0.83182 86.5001 2.73182 87.4601 4.23182C87.5901 4.43182 87.8601 4.26182 87.7701 4.05182C86.9701 2.16182 86.5601 0.261826 86.9901 -1.77817C87.3701 -3.55817 88.2601 -5.17817 88.5101 -6.99817C89.0101 -10.5982 87.5701 -14.2782 88.7801 -17.8082H88.7701Z" fill="#28211B"/>
<path d="M100.55 -13.3185C100.69 -13.6485 100.21 -13.9385 100.06 -13.6085C98.8597 -10.8985 97.8597 -8.08847 97.3297 -5.15847C96.8497 -2.47847 96.5597 0.721526 97.4697 3.34153C97.5597 3.60153 98.0297 3.59153 97.9897 3.27153C97.8397 1.87153 97.5797 0.52153 97.5597 -0.88847C97.5497 -2.31847 97.6897 -3.73847 97.9397 -5.13847C98.4497 -7.96847 99.3897 -10.6885 100.54 -13.3185H100.55Z" fill="#28211B"/>
<path d="M92.6594 -9.80797C92.5794 -9.90797 92.4094 -9.77797 92.4794 -9.66797C95.5794 -5.53797 94.9794 -0.287964 94.6094 4.53204C94.5894 4.83204 95.0394 4.82204 95.0694 4.53204C95.6394 -0.307963 95.8694 -5.76796 92.6494 -9.79796L92.6594 -9.80797Z" fill="#28211B"/>
<path d="M101.1 0.859841C100.88 -0.290159 100.63 -1.44016 100.65 -2.62016C100.67 -3.86016 100.91 -5.07016 101.15 -6.28016C101.2 -6.54016 100.8 -6.66016 100.75 -6.39016C100.52 -5.23016 100.28 -4.07016 100.23 -2.89016C100.19 -1.84016 100.33 -0.800163 100.51 0.229836C100.71 1.40984 100.89 2.56984 100.9 3.76984C100.9 5.01984 100.76 6.25984 100.72 7.50984C100.71 7.84984 101.19 7.81984 101.23 7.50984C101.52 5.28983 101.51 3.04984 101.1 0.849839V0.859841Z" fill="#28211B"/>
<path d="M102.53 -12.289C102.48 -12.459 102.22 -12.389 102.27 -12.219C103.03 -9.28896 103.49 -6.29896 103.68 -3.26896C103.86 -0.318961 103.63 2.57104 103.44 5.51104C103.42 5.76104 103.84 5.82104 103.88 5.57104C105.01 -0.258957 104.2 -6.63896 102.53 -12.289Z" fill="#28211B"/>
<path d="M106.199 -7.47806C105.499 -10.2481 104.459 -12.8081 103.339 -15.4181C103.279 -15.5581 103.079 -15.4381 103.129 -15.2981C104.209 -12.7581 104.969 -9.98806 105.599 -7.30806C106.239 -4.59806 106.619 -1.85806 106.899 0.901936C106.939 1.29193 107.539 1.31194 107.519 0.901936C107.369 -1.91806 106.889 -4.73806 106.189 -7.47806H106.199Z" fill="#28211B"/>
<path d="M38.9486 -7.93961C37.2786 -4.98961 35.4886 -1.98961 34.1486 1.14039C32.8386 4.21039 32.9086 7.61039 32.6686 10.8904C32.6486 11.1804 33.1186 11.2404 33.1786 10.9604C33.9086 7.67039 33.4986 4.31039 34.8586 1.14039C36.1686 -1.88961 37.8486 -4.76962 39.2686 -7.73962C39.3786 -7.95962 39.0586 -8.14961 38.9386 -7.92961L38.9486 -7.93961Z" fill="#28211B"/>
<path d="M31.2595 -7.53831C31.1795 -7.78831 30.7395 -7.76831 30.7695 -7.46831C30.9395 -6.05831 30.9095 -4.79831 30.5995 -3.39831C30.3295 -2.19831 29.9795 -1.0183 29.7295 0.181695C29.2095 2.6017 28.8995 5.06169 28.7795 7.53169C28.7695 7.81169 29.1895 7.80169 29.2095 7.53169C29.3795 4.87169 29.7695 2.22169 30.4095 -0.368308C30.9595 -2.57831 32.0295 -5.24831 31.2695 -7.53831H31.2595Z" fill="#28211B"/>
<path d="M34.5597 -17.8189C32.7697 -14.9489 33.4997 -11.4789 33.5597 -8.28887C33.6297 -4.27887 32.5297 -0.378872 31.4597 3.45113C31.3897 3.70113 31.7697 3.80113 31.8397 3.56113C32.9097 0.0211296 33.9697 -3.56887 34.1097 -7.28887C34.2397 -10.7089 33.3097 -14.3789 34.9997 -17.5489C35.1597 -17.8489 34.7297 -18.0989 34.5497 -17.8089L34.5597 -17.8189Z" fill="#28211B"/>
<path d="M4.60004 -6.40907C4.52004 -6.62907 4.16004 -6.53908 4.24004 -6.30908C4.79004 -4.69908 5.75004 -3.30907 6.74004 -1.94907C7.75004 -0.559075 8.75004 0.840929 9.49004 2.39093C9.61004 2.64093 10.04 2.46093 9.94003 2.20093C8.77003 -1.01907 5.79004 -3.18907 4.59004 -6.40907H4.60004Z" fill="#28211B"/>
</g>
</g>
</pattern></defs>
</svg>
