<svg width="192" height="192" viewBox="0 0 192 192" fill="none" xmlns="http://www.w3.org/2000/svg">
<path d="M96.523 163.667C125.217 163.667 136.352 167.521 156.053 170.091C156.481 168.806 156.909 167.093 157.337 165.808C158.622 162.382 160.335 159.384 162.905 157.243C166.759 153.817 171.47 149.962 174.04 146.964C178.323 141.825 182.177 136.686 185.175 130.69C186.888 127.692 188.173 124.694 189.029 121.696C190.314 118.698 191.171 115.272 191.599 111.846C192.456 104.994 192.027 97.7131 189.458 91.289C188.173 87.8629 186.46 85.2932 183.89 82.2953C181.749 79.7257 178.751 77.1561 175.325 75.443C171.899 73.7299 168.044 72.8734 164.618 72.8734C161.192 72.8734 157.337 73.3016 154.34 74.5865C150.913 75.443 147.487 77.1561 144.489 78.8692C142.348 80.154 139.35 79.7257 137.637 77.5844C135.496 75.443 132.926 73.3016 129.928 72.0168C128.643 71.5886 127.358 71.1603 126.074 70.732C126.074 70.3038 126.502 69.4472 126.502 69.0189C126.93 66.8776 126.93 64.7362 126.502 62.5949C126.074 60.4535 125.217 58.3122 123.504 56.5991C123.076 55.7425 122.219 54.886 121.363 54.0295C120.506 53.1729 119.65 52.7446 118.365 51.8881C116.223 50.6033 113.654 50.175 111.512 50.175C109.799 50.175 106.801 51.4598 104.232 52.3164C102.947 52.7446 101.662 51.8881 102.09 50.6033C102.519 49.3185 102.519 48.0337 103.375 47.6054C106.373 44.6075 108.086 41.1813 108.086 36.4704C108.086 28.3332 102.519 21.9091 96.0947 21.9091C89.6706 21.9091 84.1031 28.3332 84.1031 36.4704C84.1031 41.1813 85.8162 44.6075 88.8141 47.6054C89.2424 48.0337 89.6706 49.3185 90.0989 50.6033C90.5272 51.8881 89.2423 52.7446 87.9575 52.3164C85.8162 51.4598 82.39 50.175 80.6769 50.175C78.1073 50.175 75.966 50.6033 73.8246 51.8881C72.5398 52.3164 72.1115 53.1729 70.8267 54.0295C69.9702 54.886 69.1136 55.7425 68.6853 56.5991C67.4005 58.3122 66.1157 60.4535 65.6875 62.5949C65.2592 64.7362 65.2592 67.3059 65.6875 69.0189C65.6875 69.4472 66.1157 70.3038 66.1157 70.732C64.8309 71.1603 63.5461 71.1603 62.2613 72.0168C59.2634 73.3016 56.6938 75.443 54.5524 77.5844C52.8393 79.2974 49.8414 80.154 47.7001 78.8692C44.7022 77.1561 41.276 75.8713 37.8498 74.5865C34.4237 73.7299 30.9975 72.8734 27.5713 72.8734C24.1452 72.8734 20.2907 73.7299 16.8646 75.443C13.4384 77.1561 10.4405 79.7257 8.29916 82.2953C6.1578 84.865 4.44472 87.8629 2.73164 91.289C0.162012 97.7131 -0.69453 104.994 0.590283 111.846C1.01855 115.272 1.87509 118.698 3.1599 121.696C4.44471 124.694 5.72953 127.692 7.01435 130.69C10.0122 136.686 13.8667 141.825 18.1494 146.964C20.719 149.962 25.43 153.817 29.2844 157.243C31.8541 159.384 33.9954 162.382 34.852 165.808C35.2802 167.093 35.7085 168.806 36.1368 170.091C55.8372 167.521 66.544 163.667 95.6664 163.667H96.523ZM141.491 103.281C142.348 100.283 142.776 97.2848 142.776 94.2869C142.776 93.4304 142.776 93.0021 142.776 92.1456C142.776 88.2911 144.918 84.4367 148.772 83.1519C151.342 82.2953 153.483 81.4388 156.053 81.0105C161.62 79.7257 167.188 80.154 171.042 82.7236C173.183 84.0084 174.897 85.7215 176.181 87.8629C177.466 90.0042 178.751 92.1456 179.608 94.7152C181.321 99.4262 181.321 104.565 180.036 109.705C177.466 119.983 171.042 129.833 163.333 137.542C159.479 141.397 154.768 145.251 150.057 147.821C149.2 148.249 148.344 148.677 147.487 149.534C144.061 151.675 139.778 152.532 135.496 152.532H122.647C119.221 152.532 117.508 148.677 119.65 146.108C122.219 142.682 125.645 138.827 126.93 136.257C134.211 125.979 138.922 115.272 141.491 103.281ZM126.93 78.0126C128.643 78.8692 130.356 80.5823 131.641 82.2953C132.498 83.1519 133.354 84.4367 133.354 84.865C133.354 85.2932 133.783 85.7215 133.783 86.1498C133.783 86.578 133.783 87.0063 134.211 87.4346C134.639 91.289 134.211 96.8566 132.498 101.568C129.5 111.846 123.932 121.696 117.937 130.69C116.223 132.831 113.226 136.257 110.656 138.827C108.943 140.968 105.517 139.684 105.088 137.114C103.804 125.979 102.947 111.846 102.519 93.4304C102.519 87.4346 105.945 81.4388 111.941 78.8692C112.797 78.4409 113.226 78.4409 114.082 78.0126C118.365 76.2995 123.504 76.2995 126.93 78.0126ZM107.23 56.5991C108.515 56.1708 110.228 55.7425 111.512 55.7425C112.797 55.7425 114.082 56.1708 115.367 57.0274C115.795 57.4556 116.652 57.8839 117.08 58.3122C117.508 58.7404 117.937 59.1687 118.365 60.0253C119.221 61.3101 119.65 62.5949 120.078 63.8797C120.078 64.308 120.078 65.5928 119.65 66.8776C119.221 69.0189 117.508 70.732 115.367 71.5886C114.082 72.0168 112.369 72.4451 111.084 72.8734C110.656 72.8734 110.228 73.3017 109.799 73.3017C106.373 75.0147 102.09 72.4451 102.09 68.5907C102.09 67.3059 102.09 66.021 102.09 65.1645C102.09 61.3101 104.232 57.8839 107.23 56.5991ZM69.1136 152.532H56.2655C51.9828 152.532 48.1284 151.675 44.2739 149.534C43.4174 149.106 42.5608 148.677 41.7043 147.821C36.9933 144.823 32.7106 141.397 28.4279 137.542C20.719 129.405 13.8667 119.983 11.7253 109.705C10.4405 104.565 10.4405 99.4262 12.1536 94.7152C13.0101 92.1456 14.295 90.0042 15.5798 87.8629C16.8646 85.7215 19.0059 84.0084 20.719 82.7236C25.0017 80.154 30.5692 80.154 35.7085 81.0105C38.2781 81.4388 40.4195 82.2953 42.9891 83.1519C46.8435 84.865 48.9849 88.2911 48.9849 92.1456C48.9849 93.0021 48.9849 93.4304 48.9849 94.2869C48.9849 97.2848 49.4132 100.283 50.2697 103.281C52.8393 114.844 57.9786 125.979 64.4026 136.257C66.1157 138.827 69.1136 142.682 71.6832 146.108C74.2529 148.677 72.5398 152.532 69.1136 152.532ZM87.5293 136.686C87.101 139.255 83.6748 140.54 81.9618 138.399C79.3921 135.829 76.3942 132.403 74.6811 130.262C68.2571 121.268 63.1178 111.418 60.1199 101.139C58.4068 96 57.9786 90.8608 58.4069 87.0063C58.4069 86.578 58.4069 86.1498 58.8351 85.7215C58.8351 85.2932 59.2634 84.865 59.2634 84.4367C59.2634 84.0084 60.1199 82.7236 60.9765 81.8671C62.2613 80.154 63.9744 78.4409 65.6875 77.5844C69.1136 75.443 74.2529 75.443 78.9639 77.1561C79.3921 77.1561 79.8204 77.5844 79.8204 77.5844C86.2445 80.154 90.0989 85.7215 90.0989 92.1456C89.6706 111.418 88.8141 125.979 87.5293 136.686ZM90.5272 68.1624C90.5272 72.0168 86.2445 74.5865 82.8183 72.8734C82.39 72.8734 81.9617 72.4451 81.5335 72.4451C80.2487 72.0168 78.9638 71.5886 77.2508 71.1603C75.1094 70.732 73.3963 69.0189 72.9681 66.4493C72.9681 65.1645 72.5398 63.8797 72.5398 63.4514C72.9681 62.1666 73.3963 60.8818 74.2529 59.597C74.6812 59.1687 75.1094 58.3122 75.5377 57.8839C75.966 57.4556 76.3942 57.0274 77.2508 56.5991C78.5356 55.7425 79.8204 55.7425 81.1052 55.3143C82.39 55.3143 84.1031 55.7425 85.3879 56.1708C88.8141 57.4556 90.9554 60.8818 90.9554 64.308C90.5272 66.021 90.5272 67.3059 90.5272 68.1624Z" fill="#F1B77C"/>
</svg>
