<svg width="180" height="180" viewBox="0 0 180 180" fill="none" xmlns="http://www.w3.org/2000/svg">
<path d="M90.4903 153.438C117.391 153.438 127.83 157.051 146.299 159.46C146.701 158.256 147.102 156.65 147.504 155.445C148.708 152.233 150.314 149.423 152.723 147.415C156.337 144.203 160.753 140.589 163.163 137.779C167.178 132.961 170.791 128.143 173.602 122.522C175.208 119.711 176.412 116.901 177.215 114.09C178.42 111.28 179.223 108.068 179.624 104.856C180.427 98.4316 180.026 91.606 177.617 85.5834C176.412 82.3714 174.806 79.9624 172.397 77.1519C170.39 74.7428 167.579 72.3338 164.367 70.7278C161.155 69.1218 157.541 68.3188 154.329 68.3188C151.117 68.3188 147.504 68.7203 144.693 69.9248C141.481 70.7278 138.269 72.3338 135.459 73.9398C133.451 75.1443 130.641 74.7428 129.035 72.7353C127.027 70.7278 124.618 68.7203 121.808 67.5158C120.603 67.1143 119.399 66.7128 118.194 66.3112C118.194 65.9097 118.596 65.1067 118.596 64.7052C118.997 62.6977 118.997 60.6902 118.596 58.6827C118.194 56.6752 117.391 54.6676 115.785 53.0616C115.384 52.2586 114.581 51.4556 113.778 50.6526C112.975 49.8496 112.171 49.4481 110.967 48.6451C108.959 47.4406 106.55 47.0391 104.543 47.0391C102.937 47.0391 100.126 48.2436 97.7174 49.0466C96.5128 49.4481 95.3083 48.6451 95.7098 47.4406C96.1113 46.236 96.1113 45.0315 96.9143 44.63C99.7249 41.8195 101.331 38.6075 101.331 34.1909C101.331 26.5624 96.1113 20.5398 90.0888 20.5398C84.0662 20.5398 78.8467 26.5624 78.8467 34.1909C78.8467 38.6075 80.4527 41.8195 83.2632 44.63C83.6647 45.0315 84.0662 46.236 84.4677 47.4406C84.8692 48.6451 83.6647 49.4481 82.4602 49.0466C80.4527 48.2436 77.2407 47.0391 75.6346 47.0391C73.2256 47.0391 71.2181 47.4406 69.2106 48.6451C68.0061 49.0466 67.6045 49.8496 66.4 50.6526C65.597 51.4556 64.794 52.2586 64.3925 53.0616C63.188 54.6676 61.9835 56.6752 61.582 58.6827C61.1805 60.6902 61.1805 63.0992 61.582 64.7052C61.582 65.1067 61.9835 65.9097 61.9835 66.3112C60.779 66.7128 59.5745 66.7127 58.37 67.5158C55.5594 68.7203 53.1504 70.7278 51.1429 72.7353C49.5369 74.3413 46.7264 75.1443 44.7188 73.9398C41.9083 72.3338 38.6963 71.1293 35.4842 69.9248C32.2722 69.1218 29.0602 68.3188 25.8481 68.3188C22.6361 68.3188 19.0226 69.1218 15.8105 70.7278C12.5985 72.3338 9.78798 74.7428 7.78046 77.1519C5.77294 79.5609 4.16693 82.3714 2.56091 85.5834C0.151886 91.606 -0.651122 98.4316 0.55339 104.856C0.954894 108.068 1.7579 111.28 2.96241 114.09C4.16692 116.901 5.37144 119.711 6.57595 122.522C9.38648 128.143 13 132.961 17.015 137.779C19.4241 140.589 23.8406 144.203 27.4542 147.415C29.8632 149.423 31.8707 152.233 32.6737 155.445C33.0752 156.65 33.4767 158.256 33.8782 159.46C52.3474 157.051 62.385 153.438 89.6873 153.438H90.4903ZM132.648 96.8255C133.451 94.015 133.853 91.2045 133.853 88.394C133.853 87.591 133.853 87.1895 133.853 86.3864C133.853 82.7729 135.86 79.1594 139.474 77.9549C141.883 77.1519 143.89 76.3488 146.299 75.9473C151.519 74.7428 156.738 75.1443 160.352 77.5534C162.359 78.7579 163.966 80.3639 165.17 82.3714C166.375 84.3789 167.579 86.3864 168.382 88.7955C169.988 93.212 169.988 98.0301 168.784 102.848C166.375 112.484 160.352 121.719 153.125 128.946C149.511 132.559 145.095 136.173 140.678 138.582C139.875 138.983 139.072 139.385 138.269 140.188C135.057 142.195 131.042 142.998 127.027 142.998H114.982C111.77 142.998 110.164 139.385 112.171 136.976C114.581 133.764 117.793 130.15 118.997 127.741C125.823 118.105 130.239 108.068 132.648 96.8255ZM118.997 73.1368C120.603 73.9398 122.209 75.5458 123.414 77.1519C124.217 77.9549 125.02 79.1594 125.02 79.5609C125.02 79.9624 125.421 80.3639 125.421 80.7654C125.421 81.1669 125.421 81.5684 125.823 81.9699C126.224 85.5834 125.823 90.803 124.217 95.2195C121.406 104.856 116.187 114.09 110.565 122.522C108.959 124.529 106.149 127.741 103.74 130.15C102.134 132.158 98.9219 130.953 98.5204 128.544C97.3158 118.105 96.5128 104.856 96.1113 87.591C96.1113 81.9699 99.3234 76.3488 104.944 73.9398C105.747 73.5383 106.149 73.5383 106.952 73.1368C110.967 71.5308 115.785 71.5308 118.997 73.1368ZM100.528 53.0616C101.732 52.6601 103.338 52.2586 104.543 52.2586C105.747 52.2586 106.952 52.6601 108.156 53.4631C108.558 53.8646 109.361 54.2661 109.762 54.6676C110.164 55.0691 110.565 55.4706 110.967 56.2736C111.77 57.4782 112.171 58.6827 112.573 59.8872C112.573 60.2887 112.573 61.4932 112.171 62.6977C111.77 64.7052 110.164 66.3112 108.156 67.1143C106.952 67.5158 105.346 67.9173 104.141 68.3188C103.74 68.3188 103.338 68.7203 102.937 68.7203C99.7249 70.3263 95.7098 67.9173 95.7098 64.3037C95.7098 63.0992 95.7098 61.8947 95.7098 61.0917C95.7098 57.4782 97.7173 54.2661 100.528 53.0616ZM64.794 142.998H52.7489C48.7339 142.998 45.1203 142.195 41.5068 140.188C40.7038 139.786 39.9008 139.385 39.0978 138.582C34.6812 135.771 30.6662 132.559 26.6511 128.946C19.4241 121.317 13 112.484 10.9925 102.848C9.78798 98.0301 9.78798 93.212 11.394 88.7955C12.197 86.3864 13.4015 84.3789 14.606 82.3714C15.8105 80.3639 17.8181 78.7579 19.4241 77.5534C23.4391 75.1443 28.6587 75.1443 33.4767 75.9473C35.8857 76.3488 37.8933 77.1519 40.3023 77.9549C43.9158 79.5609 45.9233 82.7729 45.9233 86.3864C45.9233 87.1895 45.9233 87.591 45.9233 88.394C45.9233 91.2045 46.3248 94.015 47.1278 96.8255C49.5369 107.666 54.3549 118.105 60.3775 127.741C61.9835 130.15 64.794 133.764 67.203 136.976C69.6121 139.385 68.0061 142.998 64.794 142.998ZM82.0587 128.143C81.6572 130.552 78.4452 131.756 76.8391 129.749C74.4301 127.34 71.6196 124.128 70.0136 122.12C63.991 113.689 59.173 104.454 56.3624 94.818C54.7564 90 54.3549 85.1819 54.7564 81.5684C54.7564 81.1669 54.7564 80.7654 55.1579 80.3639C55.1579 79.9624 55.5594 79.5609 55.5594 79.1594C55.5594 78.7579 56.3624 77.5534 57.1654 76.7504C58.37 75.1443 59.976 73.5383 61.582 72.7353C64.794 70.7278 69.6121 70.7278 74.0286 72.3338C74.4301 72.3338 74.8316 72.7353 74.8316 72.7353C80.8542 75.1443 84.4677 80.3639 84.4677 86.3864C84.0662 104.454 83.2632 118.105 82.0587 128.143ZM84.8692 63.9022C84.8692 67.5158 80.8542 69.9248 77.6422 68.3188C77.2407 68.3188 76.8391 67.9173 76.4376 67.9173C75.2331 67.5158 74.0286 67.1143 72.4226 66.7128C70.4151 66.3112 68.8091 64.7052 68.4076 62.2962C68.4076 61.0917 68.0061 59.8872 68.0061 59.4857C68.4076 58.2812 68.8091 57.0767 69.6121 55.8721C70.0136 55.4706 70.4151 54.6676 70.8166 54.2661C71.2181 53.8646 71.6196 53.4631 72.4226 53.0616C73.6271 52.2586 74.8316 52.2586 76.0361 51.8571C77.2406 51.8571 78.8467 52.2586 80.0512 52.6601C83.2632 53.8646 85.2707 57.0767 85.2707 60.2887C84.8692 61.8947 84.8692 63.0992 84.8692 63.9022Z" fill="#F1B77C"/>
</svg>
