<svg width="24" height="24" viewBox="0 0 24 24" fill="none" xmlns="http://www.w3.org/2000/svg">
<path d="M11.6625 19.1C11.5125 18.95 11.4375 18.7706 11.4375 18.562C11.4375 18.354 11.5042 18.175 11.6375 18.025L16.9375 12.75H5.3125C5.1125 12.75 4.9375 12.679 4.7875 12.537C4.6375 12.3956 4.5625 12.2166 4.5625 12C4.5625 11.7833 4.6375 11.604 4.7875 11.462C4.9375 11.3206 5.1125 11.25 5.3125 11.25H16.9375L11.6375 5.97495C11.5042 5.82495 11.4375 5.64595 11.4375 5.43795C11.4375 5.22928 11.5125 5.04995 11.6625 4.89995C11.8125 4.76662 11.9875 4.69995 12.1875 4.69995C12.3875 4.69995 12.5625 4.76662 12.7125 4.89995L19.1625 11.375C19.2625 11.4583 19.3335 11.554 19.3755 11.662C19.4168 11.7706 19.4375 11.8833 19.4375 12C19.4375 12.1166 19.4168 12.229 19.3755 12.337C19.3335 12.4456 19.2625 12.5416 19.1625 12.625L12.7125 19.1C12.5625 19.2333 12.3875 19.3 12.1875 19.3C11.9875 19.3 11.8125 19.2333 11.6625 19.1Z" fill="white"/>
</svg>
