<?xml version="1.0" encoding="utf-8"?>
<!-- Generator: Adobe Illustrator 28.0.0, SVG Export Plug-In . SVG Version: 6.00 Build 0)  -->
<svg version="1.1" id="Layer_2_00000090271658686196011040000010560934110561051812_"
	 xmlns="http://www.w3.org/2000/svg" xmlns:xlink="http://www.w3.org/1999/xlink" x="0px" y="0px" viewBox="0 0 78.4 64.1"
	 style="enable-background:new 0 0 78.4 64.1;" xml:space="preserve">
<style type="text/css">
	.st0{fill:#1E1E1E;}
</style>
<g id="Layer_1-2">
	<g>
		<path class="st0" d="M59.2,19.3c1.1,0.6,1.8,1.5,3.1,2.1c3.5,1.6,7.5,2.1,11.3,2.4c0.6,0,1.5-0.2,2.2,0.2c0.4,0.4,0,2.8,0,3.4
			c0.1,7.3,1,17.3-2.7,23.8c-0.2,0.4-0.8,1.2-1,1.5c-3.1,3.3-7.9,6.8-12.1,8.9c-0.8,0.4-1.5,0.3-2.3,0c-0.7-0.3-1.7-0.9-2.4-1.3
			c-1.7-0.9-3.4-1.9-4.9-3c-0.5-0.4-2.5-1.7-2.8-2c-0.1-0.2-0.4-0.4-0.4-0.4l-1.3-1.4c-5.7-6.2-4.5-15.5-4.5-23.3
			c0-1.7,0.1-6.1,0-6.4c0.1-0.2,4.4,0.1,5.2,0.1c2.9-0.2,6.7-1.1,9.1-2.7c0.1-0.1,2.1-1.7,2.5-1.8C58.8,18.9,58.7,19,59.2,19.3
			L59.2,19.3z M65.5,23.8c-1.5-0.5-5.4-2.3-6.4-3.4c-0.2-0.2-0.6-0.1-0.9,0c-4.3,2.6-6.6,4.1-11.8,4.4c-0.7,0-4,0.1-4,0.1l-0.1,0.2
			c-0.2,0.9,0.1,2,0.1,2.8c0,4-0.1,8.1,0,12.1c0.2,8.8,3.9,14.2,11.5,18.2c0.1,0.1,0.6,0.3,0.7,0.4c1.1,0.4,1.9,1,2.9,1.5
			c0.2,0.1,0.2,0.3,0.2,0.3c0,0,0.9,0,1,0c2.5-0.3,9.4-5.2,11.3-7.2c2.4-2.5,3.7-5.9,4.2-9.1c0.7-4.7,0.5-10.6,0.5-15.5
			c0-1.2,0.1-2.5-0.2-3.7C71.8,25,68.7,24.7,66,24C65.9,24,65.6,23.9,65.5,23.8L65.5,23.8z"/>
		<path class="st0" d="M58.5,23.4c-0.1-0.2-0.3-0.2-0.7-0.1c-0.5,0.1-1.2,0.6-1.9,1c-0.5,0.3-1,0.6-1.3,0.8c-2.2,1-4.2,1.2-6.5,1.4
			c-0.5,0.1-1,0.1-1.6,0.1c-1.5,0.2-2.2,0.3-2.3,2c-0.1,1.1,0,2.3,0,3.5c0,0.7,0.1,1.5,0.1,2.2c0,0.8,0,1.5,0,2.3
			c-0.1,2.2-0.1,4.6,0.3,6.8c0.3,1.8,1.9,5.5,3.5,6.9l0,0c0.1,0.1,0.2,0.2,0.4,0.2c0,0,0.1,0,0.2,0h0.1l0-0.1c0-0.1,0-0.1,0-0.2
			c-0.1-0.1-0.2-0.1-0.2-0.1c0,0,0,0,0,0c0,0,0-0.1,0-0.1c0-0.1-1.6-3.1-1.7-3.3c0,0-0.1-0.1-0.2-0.1l0,0c0.1-0.1-0.2-0.4-0.2-0.4
			c0,0,0,0,0,0c-1.4-2.9-1.4-7.6-1.3-11.4c0-0.7,0-1.4,0-2c0-0.8,0-1.7,0-2.5c0-0.9,0-1.7,0-2.5c0.9-0.3,1.8-0.3,2.7-0.3
			c0.6,0,1.2,0,1.8-0.1c2.6-0.4,6.4-1.7,8.5-3.3C58.5,23.8,58.6,23.6,58.5,23.4L58.5,23.4z"/>
	</g>
</g>
<g id="Layer_1-2_00000134229901658925930020000003706904424061006467_">
	<g>
		<path class="st0" d="M34.4,8.2c-2.2-2.6-4.7-4.3-7.7-5.3c-4.8-1.7-10.1-1.3-14.8,1C4,7.7-0.1,15.6,1.4,24
			c1.2,6.5,6,11.9,12.4,13.9c2.1,0.7,4.3,1,6.5,1s4.1-0.3,6.1-0.9c6.4-2,11.2-7.4,12.5-14.2C39.9,18.4,38.3,12.7,34.4,8.2L34.4,8.2z
			 M35,29.7c-4,6.2-10.6,8.9-18.4,7.5c-5.9-1-10.9-5.1-13-10.6c-3-7.5,0-16.2,7-20.7c2.7-1.7,5.6-2.6,8.9-2.9c0.4,0,0.8,0,1.2,0
			c5.2,0,10.3,2.6,13.7,7.1C38.6,16.1,38.9,23.5,35,29.7z"/>
		<path class="st0" d="M17.9,24.6l-0.5,0.5l-1.7-1.8c-0.2-0.2-0.3-0.3-0.5-0.5c-0.9-1-1.8-2-3.2-2.3l-0.4-0.1l0.2,0.3
			c0.7,1.2,1.5,2.2,2.3,3c0.4,0.4,0.8,0.9,1.2,1.3c0.7,0.9,1.3,1.6,2.1,2.4l0.1,0.1l0.1-0.2c3.6-5,7.8-8.6,13.4-12.9l0.6-0.4
			l-0.7,0.1C26.7,15,21,21.2,17.9,24.6L17.9,24.6z"/>
	</g>
</g>
</svg>
