<svg width="250" height="200" viewBox="0 0 250 200" fill="none" xmlns="http://www.w3.org/2000/svg">
<circle cx="124" cy="119" r="62" fill="#D9D9D9"/>
<path d="M167.001 148H189.429M64.001 148H85.4551H64.001ZM51.1289 148H58.001H51.1289ZM194.129 148H197.001H194.129Z" stroke="#00031A" stroke-width="2.5" stroke-linecap="round" stroke-linejoin="round"/>
<path d="M98 43.3027L109.1 55.7559M150.1 43.3027L139 55.7559L150.1 43.3027ZM124 39V55.7559V39Z" stroke="#00031A" stroke-width="2.5" stroke-linecap="round" stroke-linejoin="round"/>
<path fill-rule="evenodd" clip-rule="evenodd" d="M92.7966 71H155.403L149.797 79.4098L157.272 85.0164H90.9277L99.3376 79.4098L92.7966 71Z" fill="#C4C4C4"/>
<rect x="89" y="83" width="71" height="75" rx="2" fill="white"/>
<path fill-rule="evenodd" clip-rule="evenodd" d="M93.5859 124.006V89.6453C93.5859 88.2297 94.7462 87.082 96.1774 87.082L157.154 151.164C157.154 153.052 155.643 154.582 153.779 154.582H96.9609C95.0969 154.582 93.5859 153.052 93.5859 151.164V138.395V134.93V124.006ZM93.5859 131.425V127.577V131.425Z" fill="#C4C4C4"/>
<path d="M90 124.463V86.8853C90 85.3371 91.2705 84.082 92.8377 84.082H157.761C158.782 84.082 159.609 84.9187 159.609 85.9509V154.164C159.609 156.228 157.954 157.902 155.913 157.902H93.6956C91.6546 157.902 90 156.228 90 154.164V140.199V136.41M90 132.576V128.368" stroke="#00031A" stroke-width="2.5" stroke-linecap="round"/>
<path d="M91.8636 84.082V72.8689C91.8636 71.8368 92.6145 71.0001 93.5408 71.0001H155.596C156.523 71.0001 157.273 71.8368 157.273 72.8689V84.082" stroke="#00031A" stroke-width="2.5"/>
<path d="M109.149 103.705C110.956 103.705 112.42 102.241 112.42 100.434C112.42 98.6281 110.956 97.1638 109.149 97.1638C107.343 97.1638 105.879 98.6281 105.879 100.434C105.879 102.241 107.343 103.705 109.149 103.705Z" fill="#C4C4C4" stroke="#00031A" stroke-width="2.5" stroke-linecap="round"/>
<path d="M139.985 103.705C141.792 103.705 143.256 102.241 143.256 100.434C143.256 98.6281 141.792 97.1638 139.985 97.1638C138.179 97.1638 136.715 98.6281 136.715 100.434C136.715 102.241 138.179 103.705 139.985 103.705Z" fill="#C4C4C4" stroke="#00031A" stroke-width="2.5" stroke-linecap="round"/>
<path d="M139.519 103.705C139.519 111.962 132.825 118.656 124.568 118.656C116.311 118.656 109.617 111.962 109.617 103.705" stroke="#00031A" stroke-width="2.5" stroke-linecap="round"/>
<path d="M92.8547 71.9314L99.4331 78.4251C99.8262 78.813 99.8303 79.4462 99.4423 79.8392C99.3752 79.9073 99.2986 79.9653 99.215 80.0116L91.8633 84.0819" stroke="#00031A" stroke-width="2.5" stroke-linecap="round"/>
<path d="M156.44 71.9993L150.145 78.4197C149.758 78.8141 149.764 79.4472 150.159 79.8339C150.225 79.8984 150.299 79.9535 150.38 79.9977L157.867 84.082" stroke="#00031A" stroke-width="2.5" stroke-linecap="round"/>
</svg>
