<svg width="43" height="47" viewBox="0 0 43 47" fill="none" xmlns="http://www.w3.org/2000/svg">
<path d="M41.5419 45.1872C39.4032 43.0485 37.2461 40.9283 35.0705 38.808C34.6649 38.4024 34.2409 38.0337 33.8168 37.6649C33.2084 37.1303 32.8397 36.4481 32.9872 35.6738C33.5771 32.4842 31.9916 30.1427 29.8529 27.9487C28.4701 26.5291 27.1795 24.9804 25.5202 23.8741C24.1375 22.9523 23.105 21.7908 22.3122 20.3711C21.9988 19.818 21.6116 19.3018 21.1323 18.6012C22.515 18.3984 23.5659 18.7487 24.5062 19.3571C28.2489 21.7355 31.9916 24.1323 35.4577 26.9162C36.5086 27.7643 37.3383 28.7231 37.1539 30.2533C37.0064 31.5623 37.6333 32.7976 38.0942 34.0329C38.9607 36.3191 39.8457 38.5868 40.7306 40.8729C40.8228 41.0942 40.9335 41.1864 41.0994 41.1495C41.4866 40.8914 41.3391 40.5042 41.2653 40.1723C41.0441 38.9739 40.5832 37.8309 40.0669 36.7246C39.6613 35.8581 39.6798 35.8581 40.6016 34.715C40.7675 34.5122 40.9335 34.2726 41.0072 34.0329C42.1503 30.2349 42.8878 26.3816 41.9106 22.3255C41.4681 20.5002 41.3759 18.675 41.3575 16.7944C41.3391 14.3976 41.0257 11.9824 40.8597 9.58557C40.8413 9.27214 40.6938 9.06933 40.4357 8.94028C40.1222 8.79278 39.901 8.97717 39.6982 9.1431C38.721 9.9912 38.1864 11.1527 37.5595 12.4617C36.4902 11.8902 36.1583 10.8577 35.4393 10.194C34.9783 9.76995 34.4068 9.71463 33.9643 10.1018C33.0056 10.913 32.6369 12.0192 32.5631 13.2545C32.4894 14.4713 32.7475 15.6513 33.024 16.8313C33.19 17.5319 33.5587 18.1956 33.3375 19.2649C31.6597 17.0525 30.0373 15.2641 29.0232 12.8305C26.9214 7.76033 23.3631 3.72262 18.6986 0.71741C18.127 0.348672 17.5371 -0.222853 16.7443 0.0905737C16.3755 0.0905737 16.0068 0.0905737 15.6565 0.0905737C15.0296 0.0905737 14.8268 0.551478 14.9743 0.993963C15.1771 1.69456 15.5459 2.37675 15.8777 3.04047C16.2834 3.87013 17.0946 4.49697 17.3158 5.69537C16.1912 5.49256 15.1403 5.28976 14.1078 5.14226C12.9094 4.95789 11.711 4.7551 10.5495 5.19758C10.3467 5.27133 10.1439 5.56631 10.107 5.78755C10.0517 6.24847 10.4204 6.48819 10.8076 6.46975C13.3519 6.34069 15.7487 7.26251 18.1639 7.96311C20.3579 8.58997 22.1278 10.0281 23.824 11.6689C21.8697 11.7058 21.8144 11.7611 20.616 10.7655C19.4729 9.80679 18.1455 9.40122 16.818 8.95873C15.5274 8.51625 14.2922 7.77874 12.6144 7.81561C13.2597 8.92182 14.1447 9.21685 14.9375 9.60402C15.6934 9.97276 16.4677 10.2862 17.1314 10.5627C17.5002 11.079 17.0946 11.1342 16.9286 11.2264C15.7302 12.0008 15.6749 12.2221 16.689 12.8673C18.6802 14.121 20.7082 15.3194 22.7363 16.5547C23.0312 16.7391 23.4553 16.7759 23.4922 17.4028C22.4413 17.4765 21.3351 17.1263 20.2842 17.4766C19.8232 17.6241 19.4176 17.2 19.0489 16.9235C17.8874 16.0938 16.6336 15.4485 15.2877 15.0244C14.8453 14.8954 14.2369 14.6373 13.9419 14.8216C12.7619 15.5407 11.8954 14.8032 10.9182 14.287C9.33264 13.4573 7.67331 12.7752 5.88494 12.5908C5.60838 12.5539 5.33185 12.5723 5.07373 12.6277C4.9078 12.6645 4.7603 12.812 4.61281 12.9042C4.70499 13.0517 4.77873 13.2729 4.92623 13.3467C5.25809 13.4942 5.60838 13.5864 5.97712 13.6785C9.14826 14.4713 11.7294 16.3519 14.2553 18.3615C14.3475 18.4353 14.3475 18.7303 14.2737 18.8409C14.2 18.9515 13.9603 19.0806 13.8313 19.0437C11.9507 18.4722 10.0332 18.0481 8.07893 17.9375C7.47051 17.9006 7.04646 17.5319 6.7146 17.0525C6.12462 16.186 5.58996 15.301 5.2581 14.3238C5.22123 14.2317 4.92622 14.1395 4.77872 14.1579C4.63123 14.1948 4.40999 14.3423 4.39155 14.4713C4.35468 14.8216 4.28094 15.2641 4.44687 15.5222C5.03685 16.481 5.70058 17.4028 6.40118 18.2878C6.75148 18.7303 7.32301 18.8962 7.91299 18.8777C9.99636 18.804 11.9323 19.5599 13.8313 20.3711C14.9743 20.8505 15.9699 21.5142 16.8918 22.3807C17.7952 23.2104 18.7723 23.9479 19.7126 24.7407C20.0076 24.9988 20.3026 25.3307 20.1735 25.681C20.0445 26.0497 19.6204 26.0866 19.2332 26.0313C17.9427 25.8285 16.6705 25.5703 15.3799 25.386C14.9374 25.3122 14.4581 25.1279 14.0709 25.4966C14.0709 25.9944 14.4765 26.0128 14.79 26.1234C16.6521 26.7503 18.5511 27.3034 20.3763 28.0224C23.3078 29.1471 25.9627 30.7327 27.8248 33.4245C27.917 33.5535 28.0092 33.7563 27.9908 33.9038C27.9355 34.2541 27.6036 34.2726 27.3455 34.1988C22.8469 33.0188 18.7908 30.917 15.1771 27.8749C13.0753 26.105 11.3423 24.0216 9.53545 21.9751C8.9086 21.2745 8.28174 20.5555 7.61801 19.8918C7.17552 19.4308 6.25369 19.3387 6.10619 19.689C5.90339 20.1683 6.17994 20.5555 6.49336 20.9427C6.82523 21.3668 7.43364 21.6617 7.13865 22.4361C6.36431 22.2148 5.58996 21.9936 4.81561 21.7539C3.5619 21.3852 2.27132 21.127 0.962298 21.1455C0.59356 21.1455 0.095769 21.1823 0.0220214 21.5511C-0.125474 22.2333 0.501367 22.1964 0.906978 22.2702C3.04566 22.602 5.03684 23.4317 7.0649 24.1692C8.39236 24.6485 9.68294 25.2016 11.0104 25.6625C12.4116 26.1419 13.1122 27.0637 13.2781 28.6309C11.8032 28.17 10.4573 27.7274 9.12985 27.3218C8.59518 27.1559 8.04207 27.0269 7.48896 26.9162C6.76992 26.7872 5.8665 26.4737 5.49777 27.2665C5.1659 27.9856 5.73745 28.7046 6.23524 29.2762C8.63204 31.968 11.5266 33.9407 15.0481 34.5675C17.7399 35.0469 20.2841 35.9319 22.8469 36.7984C25.7968 37.7756 28.7282 38.7527 31.8441 38.0337C32.4525 37.9046 32.895 38.2549 33.319 38.6605C35.4024 40.7255 37.5042 42.772 39.606 44.8185C40.3435 45.5375 41.0256 46.3487 42.0765 46.6437C42.39 45.9984 41.9291 45.5744 41.5419 45.1872ZM26.313 12.0192C24.5799 10.5627 22.8284 9.12463 21.1507 7.63124C19.2148 5.91661 17.8689 3.77797 16.5599 1.58398C16.2649 1.08618 16.3202 0.588351 16.689 0.164303C17.3896 1.41801 18.6248 2.13705 19.6757 3.02202C22.4413 5.34507 24.8565 7.96311 26.7924 11.0052C27.0874 11.4661 27.5114 11.8902 27.2164 12.6461C26.903 12.4064 26.5896 12.2405 26.313 12.0192ZM19.7126 13.2914C19.6757 13.273 19.6942 13.1623 19.6942 13.0886C19.7495 13.0148 19.8048 12.9042 19.8601 12.9042C22.9944 12.9595 25.7968 13.9735 28.2858 15.9832C28.4886 16.1491 28.6545 16.4072 28.8204 16.6284C28.8573 16.6838 28.8389 16.7944 28.8389 16.8866C28.8573 17.1078 28.7467 17.2369 28.5254 17.2369C28.1567 17.2184 27.788 17.2 27.4377 17.0894C24.6906 16.2044 22.1463 14.8585 19.7126 13.2914ZM40.9519 21.3483C40.9519 23.4685 40.9703 25.5888 40.6016 27.6722C40.3619 28.9996 40.0854 30.327 39.3663 31.5623C39.2188 31.378 39.1266 31.3227 39.1266 31.2489C39.2373 28.0409 39.3663 24.8513 39.5138 21.6433C39.5138 21.4773 39.5876 21.2745 39.6798 21.1455C39.8826 20.8136 40.2144 20.6477 40.6016 20.7214C40.915 20.7767 40.9519 21.1086 40.9519 21.3483ZM39.606 12.0561C39.9563 14.1579 39.8272 16.0016 39.606 17.8453C39.5876 17.9744 39.3663 18.1219 39.2188 18.1219C39.0898 18.1219 38.887 17.9744 38.8317 17.8453C37.9283 15.8172 38.1679 13.9735 39.606 12.0561ZM34.5174 15.5407C34.3146 14.5451 34.2777 13.5126 34.4621 12.517C34.5359 12.1667 34.6096 11.7427 35.0152 11.6505C35.4946 11.5583 35.5868 12.0192 35.6974 12.3511C36.2689 14.3238 36.7852 16.315 37.3751 18.2878C37.9651 20.2789 37.6517 22.0858 36.693 23.8188C36.5271 23.6713 36.3058 23.5792 36.2689 23.4685C35.6605 20.8136 35.0705 18.1772 34.5174 15.5407ZM28.3779 19.9102C28.1567 19.7627 28.1567 19.6152 28.507 19.2834C29.4657 19.0621 30.5535 19.4493 31.3832 20.1499C32.5631 21.1086 33.9643 21.9567 34.7755 24.206C32.2681 22.5283 30.3138 21.2192 28.3779 19.9102ZM19.1779 22.8233C17.4633 21.4958 16.4862 19.689 15.7118 17.7715C15.6196 17.5503 15.5828 17.1815 15.6934 17.034C15.9884 16.6469 16.3755 16.9603 16.6521 17.1447C18.1639 18.1218 19.5098 19.3018 20.6529 20.703C21.0216 21.1455 21.3719 21.588 21.4272 22.178C21.5194 23.0629 21.5563 23.9479 21.6116 25.0357C20.7082 24.1876 19.9892 23.4501 19.1779 22.8233ZM28.8757 31.9679C27.1242 30.493 25.889 28.6124 24.6168 26.7503C24.0822 25.976 24.0821 25.2385 24.6537 24.2798C27.0136 26.4369 29.0785 28.6677 30.6825 31.3226C31.0697 31.9679 31.3647 32.6686 31.3832 33.4245C31.4016 33.7932 31.6781 34.3463 30.83 34.5675C30.6272 33.3691 29.7238 32.687 28.8757 31.9679ZM13.7022 32.6685C11.8216 32.0048 10.236 30.8617 8.74265 29.5711C8.63203 29.4789 8.57673 29.2393 8.6136 29.1102C8.65048 28.9811 8.85328 28.8337 8.98234 28.8337C9.24046 28.8521 9.51702 28.9443 9.77514 29.018C11.3607 29.5527 12.9278 30.3639 14.5318 30.5483C16.2833 30.7327 17.6292 31.4886 18.9936 32.4658C18.6248 33.0742 18.0533 32.7054 17.5555 32.6685C16.9286 32.6132 16.1912 32.1339 15.6934 32.5948C15.0112 33.2401 14.3659 32.8898 13.7022 32.6685ZM24.9671 36.2084C23.234 36.0793 22.3122 34.586 20.7819 34.1435C20.1367 33.9591 19.6573 33.111 19.1042 32.521C22.3307 33.996 25.6493 35.1944 29.1707 35.6C29.4473 35.6369 29.7054 35.729 29.9635 35.8397C30.2216 35.9503 30.4244 36.1716 30.3138 36.4665C30.2585 36.5956 30.0557 36.7062 29.9082 36.7246C28.2489 36.8721 26.608 36.3375 24.9671 36.2084Z" fill="#443424" fill-opacity="0.8"/>
</svg>

