<svg width="32" height="32" viewBox="0 0 32 32" fill="none" xmlns="http://www.w3.org/2000/svg">
<path d="M16.0872 27.2778C20.8695 27.2778 22.7254 27.9202 26.0088 28.3485C26.0801 28.1343 26.1515 27.8488 26.2229 27.6347C26.437 27.0637 26.7226 26.564 27.1508 26.2071C27.7932 25.6361 28.5784 24.9937 29.0067 24.494C29.7205 23.6375 30.3629 22.781 30.8625 21.7817C31.148 21.282 31.3622 20.7824 31.5049 20.2827C31.7191 19.7831 31.8618 19.212 31.9332 18.641C32.0759 17.4989 32.0046 16.2855 31.5763 15.2148C31.3622 14.6438 31.0766 14.2155 30.6484 13.7159C30.2915 13.2876 29.7918 12.8593 29.2208 12.5738C28.6498 12.2883 28.0074 12.1456 27.4363 12.1456C26.8653 12.1456 26.2229 12.2169 25.7233 12.4311C25.1522 12.5738 24.5812 12.8593 24.0816 13.1449C23.7247 13.359 23.225 13.2876 22.9395 12.9307C22.5826 12.5738 22.1543 12.2169 21.6547 12.0028C21.4405 11.9314 21.2264 11.86 21.0123 11.7887C21.0123 11.7173 21.0837 11.5745 21.0837 11.5032C21.155 11.1463 21.155 10.7894 21.0837 10.4325C21.0123 10.0756 20.8695 9.7187 20.584 9.43318C20.5126 9.29042 20.3699 9.14767 20.2271 9.00491C20.0844 8.86215 19.9416 8.79077 19.7275 8.64802C19.3706 8.43388 18.9423 8.3625 18.5854 8.3625C18.2999 8.3625 17.8002 8.57664 17.372 8.7194C17.1578 8.79077 16.9437 8.64802 17.0151 8.43388C17.0865 8.21975 17.0865 8.00561 17.2292 7.93423C17.7289 7.43458 18.0144 6.86356 18.0144 6.07839C18.0144 4.7222 17.0865 3.65152 16.0158 3.65152C14.9451 3.65152 14.0172 4.7222 14.0172 6.07839C14.0172 6.86356 14.3027 7.43458 14.8023 7.93423C14.8737 8.00561 14.9451 8.21975 15.0165 8.43388C15.0879 8.64802 14.8737 8.79077 14.6596 8.7194C14.3027 8.57664 13.7317 8.3625 13.4462 8.3625C13.0179 8.3625 12.661 8.43388 12.3041 8.64802C12.09 8.7194 12.0186 8.86215 11.8045 9.00491C11.6617 9.14767 11.5189 9.29042 11.4476 9.43318C11.2334 9.7187 11.0193 10.0756 10.9479 10.4325C10.8765 10.7894 10.8765 11.2176 10.9479 11.5032C10.9479 11.5745 11.0193 11.7173 11.0193 11.7887C10.8052 11.86 10.591 11.86 10.3769 12.0028C9.87723 12.2169 9.44896 12.5738 9.09207 12.9307C8.80656 13.2162 8.30691 13.359 7.95001 13.1449C7.45037 12.8593 6.87934 12.6452 6.30831 12.4311C5.73728 12.2883 5.16625 12.1456 4.59522 12.1456C4.0242 12.1456 3.38179 12.2883 2.81076 12.5738C2.23973 12.8593 1.74009 13.2876 1.38319 13.7159C1.0263 14.1442 0.740787 14.6438 0.455273 15.2148C0.027002 16.2855 -0.115755 17.4989 0.0983805 18.641C0.169759 19.212 0.312515 19.7831 0.52665 20.2827C0.740786 20.7824 0.954922 21.282 1.16906 21.7817C1.66871 22.781 2.31111 23.6375 3.0249 24.494C3.45317 24.9937 4.23833 25.6361 4.88074 26.2071C5.30901 26.564 5.6659 27.0637 5.80866 27.6347C5.88004 27.8488 5.95142 28.1343 6.02279 28.3485C9.30621 27.9202 11.0907 27.2778 15.9444 27.2778H16.0872ZM23.5819 17.2134C23.7247 16.7138 23.796 16.2141 23.796 15.7145C23.796 15.5717 23.796 15.5004 23.796 15.3576C23.796 14.7152 24.1529 14.0728 24.7953 13.8586C25.2236 13.7159 25.5805 13.5731 26.0088 13.5018C26.9367 13.2876 27.8646 13.359 28.507 13.7873C28.8639 14.0014 29.1494 14.2869 29.3636 14.6438C29.5777 15.0007 29.7918 15.3576 29.9346 15.7859C30.2201 16.571 30.2201 17.4276 30.006 18.2841C29.5777 19.9972 28.507 21.6389 27.2222 22.9237C26.5798 23.5661 25.7946 24.2085 25.0095 24.6368C24.8667 24.7082 24.724 24.7796 24.5812 24.9223C24.0102 25.2792 23.2964 25.422 22.5826 25.422H20.4412C19.8702 25.422 19.5847 24.7796 19.9416 24.3513C20.3699 23.7803 20.9409 23.1378 21.155 22.7096C22.3685 20.9965 23.1536 19.212 23.5819 17.2134ZM21.155 13.0021C21.4405 13.1449 21.7261 13.4304 21.9402 13.7159C22.083 13.8586 22.2257 14.0728 22.2257 14.1442C22.2257 14.2155 22.2971 14.2869 22.2971 14.3583C22.2971 14.4297 22.2971 14.5011 22.3685 14.5724C22.4398 15.2148 22.3685 16.1428 22.083 16.9279C21.5833 18.641 20.6554 20.2827 19.6561 21.7817C19.3706 22.1386 18.8709 22.7096 18.4427 23.1379C18.1571 23.4947 17.5861 23.2806 17.5147 22.8523C17.3006 20.9965 17.1578 18.641 17.0865 15.5717C17.0865 14.5724 17.6575 13.5731 18.6568 13.1449C18.7995 13.0735 18.8709 13.0735 19.0137 13.0021C19.7275 12.7166 20.584 12.7166 21.155 13.0021ZM17.8716 9.43318C18.0858 9.3618 18.3713 9.29042 18.5854 9.29042C18.7995 9.29042 19.0137 9.3618 19.2278 9.50456C19.2992 9.57594 19.442 9.64732 19.5133 9.7187C19.5847 9.79007 19.6561 9.86145 19.7275 10.0042C19.8702 10.2183 19.9416 10.4325 20.013 10.6466C20.013 10.718 20.013 10.9321 19.9416 11.1463C19.8702 11.5032 19.5847 11.7887 19.2278 11.9314C19.0137 12.0028 18.7282 12.0742 18.514 12.1456C18.4427 12.1456 18.3713 12.2169 18.2999 12.2169C17.7289 12.5025 17.0151 12.0742 17.0151 11.4318C17.0151 11.2176 17.0151 11.0035 17.0151 10.8608C17.0151 10.2183 17.372 9.64732 17.8716 9.43318ZM11.5189 25.422H9.37758C8.6638 25.422 8.02139 25.2792 7.37899 24.9223C7.23623 24.8509 7.09347 24.7796 6.95071 24.6368C6.16555 24.1371 5.45177 23.5661 4.73798 22.9237C3.45317 21.5675 2.31111 19.9972 1.95422 18.2841C1.74008 17.4276 1.74008 16.571 2.0256 15.7859C2.16836 15.3576 2.38249 15.0007 2.59663 14.6438C2.81076 14.2869 3.16765 14.0014 3.45317 13.7873C4.16695 13.359 5.09487 13.359 5.95142 13.5018C6.37969 13.5731 6.73658 13.7159 7.16485 13.8586C7.80726 14.1442 8.16415 14.7152 8.16415 15.3576C8.16415 15.5004 8.16415 15.5717 8.16415 15.7145C8.16415 16.2141 8.23553 16.7138 8.37828 17.2134C8.80656 19.1407 9.6631 20.9965 10.7338 22.7096C11.0193 23.1378 11.5189 23.7803 11.9472 24.3513C12.3755 24.7796 12.09 25.422 11.5189 25.422ZM14.5882 22.781C14.5168 23.2092 13.9458 23.4234 13.6603 23.0665C13.232 22.6382 12.7324 22.0672 12.4469 21.7103C11.3762 20.2113 10.5196 18.5696 10.02 16.8565C9.73447 16 9.6631 15.1435 9.73448 14.5011C9.73448 14.4297 9.73448 14.3583 9.80585 14.2869C9.80585 14.2155 9.87723 14.1442 9.87723 14.0728C9.87723 14.0014 10.02 13.7873 10.1627 13.6445C10.3769 13.359 10.6624 13.0735 10.9479 12.9307C11.5189 12.5738 12.3755 12.5738 13.1606 12.8593C13.232 12.8593 13.3034 12.9307 13.3034 12.9307C14.3741 13.359 15.0165 14.2869 15.0165 15.3576C14.9451 18.5696 14.8023 20.9965 14.5882 22.781ZM15.0879 11.3604C15.0879 12.0028 14.3741 12.4311 13.8031 12.1456C13.7317 12.1456 13.6603 12.0742 13.5889 12.0742C13.3748 12.0028 13.1606 11.9314 12.8751 11.86C12.5182 11.7887 12.2327 11.5032 12.1613 11.0749C12.1613 10.8608 12.09 10.6466 12.09 10.5752C12.1613 10.3611 12.2327 10.147 12.3755 9.93283C12.4469 9.86145 12.5182 9.71869 12.5896 9.64732C12.661 9.57594 12.7324 9.50456 12.8751 9.43318C13.0893 9.29042 13.3034 9.29042 13.5175 9.21905C13.7317 9.21905 14.0172 9.29042 14.2313 9.3618C14.8023 9.57594 15.1592 10.147 15.1592 10.718C15.0879 11.0035 15.0879 11.2176 15.0879 11.3604Z" fill="#F1B77C"/>
</svg>
