<svg width="24" height="24" viewBox="0 0 24 24" fill="none" xmlns="http://www.w3.org/2000/svg">
<path d="M10.931 18.35C10.6993 18.35 10.5078 18.2744 10.3567 18.1233C10.2048 17.9714 10.1289 17.7796 10.1289 17.5479C10.1289 17.3162 10.2048 17.1244 10.3567 16.9725C10.5078 16.8214 10.6993 16.7458 10.931 16.7458H13.0699C13.3017 16.7458 13.4935 16.8214 13.6453 16.9725C13.7965 17.1244 13.8721 17.3162 13.8721 17.5479C13.8721 17.7796 13.7965 17.9714 13.6453 18.1233C13.4935 18.2744 13.3017 18.35 13.0699 18.35H10.931ZM3.44468 7.25423C3.21296 7.25423 3.02153 7.17402 2.87038 7.0136C2.71851 6.85318 2.64258 6.66602 2.64258 6.45213C2.64258 6.22041 2.71851 6.02897 2.87038 5.87782C3.02153 5.72596 3.21296 5.65002 3.44468 5.65002H20.5563C20.788 5.65002 20.9798 5.72596 21.1316 5.87782C21.2828 6.02897 21.3584 6.22041 21.3584 6.45213C21.3584 6.66602 21.2828 6.85318 21.1316 7.0136C20.9798 7.17402 20.788 7.25423 20.5563 7.25423H3.44468ZM6.6531 12.7888C6.42139 12.7888 6.22995 12.7128 6.0788 12.561C5.92693 12.4098 5.851 12.2184 5.851 11.9867C5.851 11.7728 5.92693 11.5856 6.0788 11.4252C6.22995 11.2648 6.42139 11.1846 6.6531 11.1846H17.3478C17.5796 11.1846 17.7714 11.2648 17.9232 11.4252C18.0744 11.5856 18.1499 11.7728 18.1499 11.9867C18.1499 12.2184 18.0744 12.4098 17.9232 12.561C17.7714 12.7128 17.5796 12.7888 17.3478 12.7888H6.6531Z" fill="#1C1B1F"/>
</svg>
