<svg width="194" height="24" viewBox="0 0 194 24" fill="none" xmlns="http://www.w3.org/2000/svg">
<path d="M15.0336 22.079C19.5028 22.079 21.2371 22.6793 24.3054 23.0795C24.3721 22.8794 24.4388 22.6126 24.5055 22.4125C24.7057 21.8789 24.9725 21.4119 25.3727 21.0784C25.973 20.5448 26.7068 19.9444 27.107 19.4775C27.774 18.6771 28.3744 17.8766 28.8413 16.9428C29.1081 16.4758 29.3082 16.0089 29.4416 15.542C29.6417 15.0751 29.7751 14.5414 29.8418 14.0078C29.9753 12.9405 29.9086 11.8066 29.5083 10.806C29.3082 10.2724 29.0414 9.87217 28.6412 9.40524C28.3077 9.00502 27.8407 8.6048 27.3071 8.33798C26.7735 8.07116 26.1731 7.93776 25.6395 7.93776C25.1059 7.93776 24.5055 8.00446 24.0386 8.20457C23.505 8.33798 22.9714 8.60479 22.5044 8.87161C22.1709 9.07172 21.704 9.00502 21.4372 8.6715C21.1036 8.33798 20.7034 8.00446 20.2365 7.80435C20.0364 7.73764 19.8363 7.67094 19.6362 7.60424C19.6362 7.53753 19.7029 7.40413 19.7029 7.33742C19.7696 7.0039 19.7696 6.67038 19.7029 6.33686C19.6362 6.00335 19.5028 5.66983 19.2359 5.40301C19.1692 5.2696 19.0358 5.1362 18.9024 5.00279C18.769 4.86938 18.6356 4.80268 18.4355 4.66927C18.102 4.46916 17.7017 4.40245 17.3682 4.40245C17.1014 4.40245 16.6345 4.60257 16.2343 4.73597C16.0342 4.80268 15.834 4.66927 15.9007 4.46916C15.9675 4.26904 15.9675 4.06893 16.1009 4.00223C16.5678 3.5353 16.8346 3.00167 16.8346 2.26793C16.8346 1.00056 15.9675 0 14.9669 0C13.9663 0 13.0992 1.00056 13.0992 2.26793C13.0992 3.00167 13.366 3.5353 13.8329 4.00223C13.8996 4.06893 13.9663 4.26904 14.033 4.46916C14.0997 4.66927 13.8996 4.80268 13.6995 4.73597C13.366 4.60257 12.8324 4.40245 12.5656 4.40245C12.1653 4.40245 11.8318 4.46916 11.4983 4.66927C11.2982 4.73597 11.2315 4.86938 11.0314 5.00279C10.898 5.1362 10.7645 5.2696 10.6978 5.40301C10.4977 5.66983 10.2976 6.00335 10.2309 6.33686C10.1642 6.67038 10.1642 7.07061 10.2309 7.33742C10.2309 7.40413 10.2976 7.53753 10.2976 7.60424C10.0975 7.67094 9.8974 7.67094 9.69729 7.80435C9.23036 8.00446 8.83014 8.33798 8.49662 8.6715C8.2298 8.93831 7.76288 9.07172 7.42936 8.87161C6.96243 8.60479 6.4288 8.40468 5.89517 8.20457C5.36154 8.07116 4.82791 7.93776 4.29428 7.93776C3.76065 7.93776 3.16031 8.07116 2.62668 8.33798C2.09305 8.6048 1.62613 9.00502 1.29261 9.40524C0.959087 9.80546 0.692272 10.2724 0.425457 10.806C0.0252336 11.8066 -0.108174 12.9405 0.0919375 14.0078C0.158641 14.5414 0.292048 15.0751 0.492159 15.542C0.692271 16.0089 0.892383 16.4758 1.09249 16.9428C1.55942 17.8766 2.15976 18.6771 2.82679 19.4775C3.22702 19.9444 3.96076 20.5448 4.56109 21.0784C4.96132 21.4119 5.29484 21.8789 5.42824 22.4125C5.49495 22.6126 5.56165 22.8794 5.62836 23.0795C8.69673 22.6793 10.3643 22.079 14.9002 22.079H15.0336ZM22.0375 12.6737C22.1709 12.2068 22.2376 11.7399 22.2376 11.2729C22.2376 11.1395 22.2376 11.0728 22.2376 10.9394C22.2376 10.3391 22.5711 9.73876 23.1715 9.53865C23.5717 9.40524 23.9052 9.27183 24.3054 9.20513C25.1726 9.00502 26.0397 9.07172 26.6401 9.47194C26.9736 9.67206 27.2404 9.93887 27.4405 10.2724C27.6406 10.6059 27.8407 10.9394 27.9741 11.3397C28.241 12.0734 28.241 12.8738 28.0408 13.6743C27.6406 15.2752 26.6401 16.8094 25.4394 18.01C24.8391 18.6104 24.1053 19.2107 23.3716 19.6109C23.2382 19.6776 23.1048 19.7443 22.9714 19.8777C22.4377 20.2113 21.7707 20.3447 21.1036 20.3447H19.1025C18.5689 20.3447 18.3021 19.7443 18.6356 19.3441C19.0358 18.8105 19.5695 18.2101 19.7696 17.8099C20.9035 16.209 21.6373 14.5414 22.0375 12.6737ZM19.7696 8.7382C20.0364 8.87161 20.3032 9.13843 20.5033 9.40524C20.6367 9.53865 20.7701 9.73876 20.7701 9.80546C20.7701 9.87217 20.8368 9.93887 20.8368 10.0056C20.8368 10.0723 20.8368 10.139 20.9035 10.2057C20.9702 10.806 20.9035 11.6732 20.6367 12.4069C20.1698 14.0078 19.3026 15.542 18.3688 16.9428C18.102 17.2763 17.635 17.8099 17.2348 18.2101C16.968 18.5437 16.4344 18.3436 16.3677 17.9433C16.1676 16.209 16.0342 14.0078 15.9675 11.1395C15.9675 10.2057 16.5011 9.27183 17.4349 8.87161C17.5683 8.80491 17.635 8.80491 17.7685 8.7382C18.4355 8.47139 19.2359 8.47139 19.7696 8.7382ZM16.7012 5.40301C16.9013 5.33631 17.1681 5.2696 17.3682 5.2696C17.5683 5.2696 17.7685 5.33631 17.9686 5.46971C18.0353 5.53642 18.1687 5.60312 18.2354 5.66983C18.3021 5.73653 18.3688 5.80323 18.4355 5.93664C18.5689 6.13675 18.6356 6.33686 18.7023 6.53698C18.7023 6.60368 18.7023 6.80379 18.6356 7.0039C18.5689 7.33742 18.3021 7.60424 17.9686 7.73765C17.7685 7.80435 17.5016 7.87105 17.3015 7.93776C17.2348 7.93776 17.1681 8.00446 17.1014 8.00446C16.5678 8.27128 15.9007 7.87105 15.9007 7.27072C15.9007 7.07061 15.9007 6.8705 15.9007 6.73709C15.9007 6.13675 16.2343 5.60312 16.7012 5.40301ZM10.7646 20.3447H8.76344C8.0964 20.3447 7.49606 20.2113 6.89573 19.8777C6.76232 19.811 6.62891 19.7443 6.49551 19.6109C5.76176 19.144 5.09473 18.6104 4.42769 18.01C3.22702 16.7427 2.15976 15.2752 1.82624 13.6743C1.62612 12.8738 1.62612 12.0734 1.89294 11.3397C2.02635 10.9394 2.22646 10.6059 2.42657 10.2724C2.62668 9.93887 2.9602 9.67206 3.22702 9.47194C3.89406 9.07172 4.76121 9.07172 5.56165 9.20513C5.96187 9.27183 6.29539 9.40524 6.69562 9.53865C7.29595 9.80546 7.62947 10.3391 7.62947 10.9394C7.62947 11.0728 7.62947 11.1395 7.62947 11.2729C7.62947 11.7399 7.69617 12.2068 7.82958 12.6737C8.2298 14.4747 9.03025 16.209 10.0308 17.8099C10.2976 18.2101 10.7646 18.8105 11.1648 19.3441C11.565 19.7443 11.2982 20.3447 10.7646 20.3447ZM13.6328 17.8766C13.5661 18.2769 13.0325 18.477 12.7657 18.1434C12.3654 17.7432 11.8985 17.2096 11.6317 16.8761C10.6311 15.4753 9.8307 13.9411 9.36377 12.3402C9.09695 11.5398 9.03025 10.7393 9.09696 10.139C9.09696 10.0723 9.09696 10.0056 9.16366 9.93887C9.16366 9.87217 9.23036 9.80546 9.23036 9.73876C9.23036 9.67206 9.36377 9.47194 9.49718 9.33854C9.69729 9.07172 9.96411 8.80491 10.2309 8.6715C10.7646 8.33798 11.565 8.33798 12.2987 8.60479C12.3654 8.60479 12.4321 8.6715 12.4321 8.6715C13.4327 9.07172 14.033 9.93887 14.033 10.9394C13.9663 13.9411 13.8329 16.209 13.6328 17.8766ZM14.0997 7.20401C14.0997 7.80435 13.4327 8.20457 12.8991 7.93776C12.8324 7.93776 12.7657 7.87105 12.699 7.87105C12.4988 7.80435 12.2987 7.73765 12.0319 7.67094C11.6984 7.60424 11.4316 7.33742 11.3649 6.9372C11.3649 6.73709 11.2982 6.53698 11.2982 6.47027C11.3649 6.27016 11.4316 6.07005 11.565 5.86994C11.6317 5.80323 11.6984 5.66983 11.7651 5.60312C11.8318 5.53642 11.8985 5.46972 12.0319 5.40301C12.232 5.2696 12.4321 5.2696 12.6323 5.2029C12.8324 5.2029 13.0992 5.2696 13.2993 5.33631C13.8329 5.53642 14.1664 6.07005 14.1664 6.60368C14.0997 6.87049 14.0997 7.07061 14.0997 7.20401Z" fill="white"/>
<path d="M42.916 10.8059C44.4502 10.8059 45.2506 12.0733 45.2506 13.6742C45.2506 15.4085 44.3168 16.6091 42.8493 16.6091H41.5819V18.3434H42.2489V19.6775H39.314V18.3434H39.6475C39.8476 18.3434 39.9143 18.21 39.9143 18.0099V12.4735C39.9143 12.2734 39.8476 12.14 39.6475 12.14H39.314V10.8059H42.916ZM41.6486 12.3401V15.0082H42.449C43.2495 15.0082 43.5163 14.3412 43.5163 13.6742C43.5163 13.0071 43.2495 12.3401 42.449 12.3401H41.6486Z" fill="white"/>
<path d="M53.922 16.4757C53.922 18.8104 52.9215 19.8109 51.1205 19.8109C49.2527 19.8109 48.2522 18.8104 48.2522 16.4757V12.4068C48.2522 12.2734 48.1855 12.14 47.9854 12.14H47.6519V10.8059H50.5201V12.14H49.9865V16.6758C49.9865 18.0099 50.6535 18.2767 51.2539 18.2767C51.8542 18.2767 52.5212 17.9432 52.5212 16.6758V12.14H51.9876V10.8059H54.5224V12.14H54.1888C53.9887 12.14 53.922 12.2734 53.922 12.4068V16.4757Z" fill="white"/>
<path d="M57.1241 18.3434H57.4576C57.6578 18.3434 57.7245 18.21 57.7245 18.0099V12.4735C57.7245 12.2734 57.6578 12.14 57.4576 12.14H57.0574V10.8059H60.526C62.327 10.8059 63.1275 11.9399 63.1275 13.4074C63.1275 14.608 62.5938 15.4085 61.7267 15.6086C62.7273 16.0088 62.8607 16.6758 62.8607 17.3429V17.6097C62.8607 18.0766 62.9274 18.2767 63.461 18.3434V19.6775C63.3276 19.6775 63.0608 19.7442 62.6605 19.7442C61.66 19.7442 61.0597 19.344 61.0597 17.7431V17.2762C61.0597 16.8093 60.8595 16.2756 60.1925 16.2756H59.3254V18.3434H59.859V19.6775H56.9907V18.3434H57.1241ZM59.4588 14.8748H60.3926C61.2598 14.8748 61.3932 14.0744 61.3932 13.5408C61.3932 13.0738 61.2598 12.3401 60.3926 12.3401H59.4588V14.8748Z" fill="white"/>
<path d="M66.5291 12.14H66.1289V10.8059H71.5319V13.3407H70.6648L70.2645 12.3401H68.4635V14.4079H70.5314V15.742H68.4635V18.0766H70.398L70.7315 17.0094H71.5986V19.6108H66.1289V18.2767H66.4624C66.6625 18.2767 66.7292 18.1433 66.7292 17.9432V12.4068C66.7959 12.2734 66.7292 12.14 66.5291 12.14Z" fill="white"/>
<path d="M74.8006 12.14H74.4004V10.8059H77.3354V12.14H76.735V18.1433H78.536L78.8695 16.9427H79.8034V19.6775H74.4671V18.3434H74.8006C75.0007 18.3434 75.0674 18.21 75.0674 18.0099V12.4735C75.0674 12.2734 75.0007 12.14 74.8006 12.14Z" fill="white"/>
<path d="M81.8044 12.5402C81.7376 12.4735 81.6042 12.14 81.3374 12.14H81.0039V10.8059H84.0723V12.14H83.5387L84.806 14.7414L86.0067 12.14H85.3397V10.8059H88.0745V12.14H87.741C87.4075 12.14 87.2741 12.3401 87.2074 12.5402L85.4731 16.2756V18.0099C85.4731 18.21 85.5398 18.2767 85.7399 18.2767H86.0734V19.6108H83.1384V18.2767H83.4719C83.6721 18.2767 83.7388 18.1433 83.7388 17.9432V16.2756L81.8044 12.5402Z" fill="white"/>
<path d="M96.2123 15.2752C96.2123 17.343 97.0128 18.2768 98.08 18.2768C98.6137 18.2768 98.8805 18.1434 99.0806 18.0767V16.4091H97.8799V14.9417H100.748V19.144C100.014 19.5442 98.8138 19.811 97.8799 19.811C95.612 19.811 94.478 18.2101 94.478 15.2085C94.478 12.2735 95.9455 10.6726 98.2134 10.6726C98.8138 10.6726 99.8143 10.806 100.548 11.0728V13.2741H99.5475C99.4141 12.6737 99.0139 12.2068 98.08 12.2068C97.0128 12.2068 96.2123 12.9405 96.2123 15.2752Z" fill="white"/>
<path d="M106.818 10.6726C108.886 10.6726 110.153 12.2735 110.153 15.2752C110.153 18.2768 108.886 19.8777 106.818 19.8777C104.75 19.8777 103.483 18.3435 103.483 15.2752C103.483 12.2068 104.817 10.6726 106.818 10.6726ZM106.818 18.2768C107.752 18.2768 108.419 17.5431 108.419 15.2752C108.419 13.0072 107.752 12.2735 106.818 12.2735C105.884 12.2735 105.217 13.0072 105.217 15.2752C105.284 17.5431 105.951 18.2768 106.818 18.2768Z" fill="white"/>
<path d="M113.222 12.14H112.822V10.8059H115.757V12.14H115.156V18.1433H116.957L117.291 16.9427H118.225V19.6775H112.888V18.3434H113.222C113.422 18.3434 113.489 18.21 113.489 18.0099V12.4735C113.489 12.2734 113.422 12.14 113.222 12.14Z" fill="white"/>
<path d="M127.363 15.2084C127.363 18.21 126.029 19.6775 124.095 19.6775H120.693V18.3434H121.026C121.227 18.3434 121.293 18.21 121.293 18.0099V12.4735C121.293 12.2734 121.227 12.14 121.026 12.14H120.693V10.8059H124.095C126.029 10.8059 127.363 12.2067 127.363 15.2084ZM123.895 12.3401H123.094V18.1433H123.895C125.362 18.1433 125.629 16.6091 125.629 15.2084C125.629 13.8076 125.362 12.3401 123.895 12.3401Z" fill="white"/>
<path d="M130.431 12.14H130.031V10.8059H135.434V13.3407H134.567L134.167 12.3401H132.366V14.4079H134.434V15.742H132.366V18.0766H134.3L134.634 17.0094H135.501V19.6108H130.031V18.2767H130.365C130.565 18.2767 130.632 18.1433 130.632 17.9432V12.4068C130.632 12.2734 130.565 12.14 130.431 12.14Z" fill="white"/>
<path d="M144.906 19.6775C144.906 19.6775 144.906 19.6775 143.105 19.6775L140.304 13.941V18.3434H140.904V19.6775H138.303V18.3434H138.636C138.836 18.3434 138.903 18.21 138.903 18.0099V12.4735C138.903 12.2734 138.836 12.14 138.636 12.14H138.236V10.8059H140.704L143.505 16.6091V12.2067H142.905V10.8726H145.507V12.2067H145.106C144.906 12.2067 144.84 12.3401 144.84 12.5402V19.6775H144.906Z" fill="white"/>
<path d="M152.71 12.14H152.31V10.8059H157.78V13.3407H156.913L156.512 12.3401H154.711V14.608H156.913V16.1422H154.711V18.3434H155.312V19.6775H152.377V18.3434H152.71C152.91 18.3434 152.977 18.21 152.977 18.0099V12.4735C152.977 12.2734 152.91 12.14 152.71 12.14Z" fill="white"/>
<path d="M163.717 10.6726C165.784 10.6726 167.052 12.2735 167.052 15.2752C167.052 18.2768 165.784 19.8777 163.717 19.8777C161.649 19.8777 160.381 18.3435 160.381 15.2752C160.381 12.2068 161.649 10.6726 163.717 10.6726ZM163.717 18.2768C164.65 18.2768 165.317 17.5431 165.317 15.2752C165.317 13.0072 164.65 12.2735 163.717 12.2735C162.783 12.2735 162.116 13.0072 162.116 15.2752C162.116 17.5431 162.783 18.2768 163.717 18.2768Z" fill="white"/>
<path d="M173.122 10.6726C175.19 10.6726 176.457 12.2735 176.457 15.2752C176.457 18.2768 175.19 19.8777 173.122 19.8777C171.054 19.8777 169.787 18.3435 169.787 15.2752C169.72 12.2068 171.054 10.6726 173.122 10.6726ZM173.122 18.2768C174.056 18.2768 174.723 17.5431 174.723 15.2752C174.723 13.0072 174.056 12.2735 173.122 12.2735C172.188 12.2735 171.521 13.0072 171.521 15.2752C171.521 17.5431 172.188 18.2768 173.122 18.2768Z" fill="white"/>
<path d="M185.729 15.2084C185.729 18.21 184.395 19.6775 182.46 19.6775H179.058V18.3434H179.392C179.592 18.3434 179.659 18.21 179.659 18.0099V12.4735C179.659 12.2734 179.592 12.14 179.392 12.14H178.992V10.8059H182.394C184.395 10.8059 185.729 12.2067 185.729 15.2084ZM182.26 12.3401H181.46V18.1433H182.26C183.728 18.1433 183.994 16.6091 183.994 15.2084C183.994 13.8076 183.728 12.3401 182.26 12.3401Z" fill="white"/>
<path d="M192.133 17.2096C192.133 15.4086 188.464 16.5425 188.464 13.3408C188.464 11.4063 189.865 10.6726 191.332 10.6726C191.932 10.6726 192.866 10.8727 193.6 11.1395V13.3408H192.599C192.599 12.607 191.999 12.1401 191.332 12.1401C190.665 12.1401 190.332 12.4736 190.332 13.0739C190.332 14.6748 194 13.6743 194 16.8761C194 19.0773 192.6 19.8777 191.132 19.8777C190.532 19.8777 189.464 19.6776 188.664 19.3441V17.0762H189.731C189.798 17.8766 190.265 18.4103 191.132 18.4103C191.666 18.3436 192.133 17.8099 192.133 17.2096Z" fill="white"/>
</svg>
