<svg width="24" height="24" viewBox="0 0 24 24" fill="none" xmlns="http://www.w3.org/2000/svg">
<path fill-rule="evenodd" clip-rule="evenodd" d="M21.3563 2.53291C22.6761 3.85272 23.0822 5.4771 23.1838 7.30453C23.2853 9.18272 23.2853 14.8173 23.1838 16.6955C23.0822 18.5229 22.6761 20.0965 21.3563 21.4671C20.0365 22.7869 18.4121 23.193 16.5847 23.2945C14.7065 23.3961 9.07194 23.3961 7.19375 23.2945C5.36632 23.193 3.7927 22.7869 2.42213 21.4671C1.10232 20.0965 0.696221 18.5229 0.594698 16.6955C0.493174 14.8173 0.493174 9.18272 0.594698 7.30453C0.696221 5.4771 1.10232 3.85272 2.42213 2.53291C3.7927 1.2131 5.36632 0.807 7.19375 0.705476C9.07194 0.603953 14.7065 0.603953 16.5847 0.705476C18.4121 0.807 20.0365 1.2131 21.3563 2.53291ZM11.9141 6.137C8.66529 6.137 6.07643 8.77662 6.07643 11.9746C6.07643 15.2234 8.66529 17.8122 11.9141 17.8122C15.1121 17.8122 17.7517 15.2234 17.7517 11.9746C17.7517 8.77662 15.1121 6.137 11.9141 6.137ZM19.3253 5.93395C19.3253 5.17252 18.7162 4.56338 17.9547 4.56338C17.1933 4.56338 16.5841 5.17252 16.5841 5.93395C16.5841 6.69538 17.1933 7.30452 17.9547 7.30452C18.7162 7.30452 19.3253 6.69538 19.3253 5.93395ZM11.9145 15.7818C9.83321 15.7818 8.10731 14.1066 8.10731 11.9746C8.10731 9.89338 9.78245 8.21824 11.9145 8.21824C13.9957 8.21824 15.6708 9.89338 15.6708 11.9746C15.6708 14.1066 13.9957 15.7818 11.9145 15.7818Z" fill="white"/>
</svg>
