<svg preserveAspectRatio="none" width="100%" height="100%" overflow="visible" style="display: block;" viewBox="0 0 107.397 162.005" fill="none" xmlns="http://www.w3.org/2000/svg">
<path id="Vector" opacity="0.2" d="M2.08215 13.6513C3.72305 15.2922 5.36391 16.9331 7.00482 18.6009C9.61413 21.2909 12.4656 23.2546 15.5053 24.6265C16.0164 24.8686 16.5812 25.0032 17.0654 25.326C17.711 25.7564 18.3298 25.8371 19.0023 25.8102C21.0467 25.7295 23.118 26.1868 25.1624 27.0745C27.1261 27.9353 29.0092 29.1996 30.8922 30.4639C31.0536 30.5715 31.1612 30.8405 31.2688 31.0288C31.0267 31.3247 30.7577 31.244 30.4887 31.1902C28.4712 30.7867 26.5075 30.8943 24.5707 31.1095C22.6877 31.2978 20.8045 31.5399 18.9484 31.7551C18.8139 31.782 18.6795 31.782 18.5719 31.8358C18.1953 31.9703 17.8456 32.6697 17.8994 33.1808C17.9532 33.665 18.2491 33.9609 18.5719 34.1492C18.814 34.3106 19.083 34.4989 19.3251 34.6334C22.0959 36.1398 24.8665 37.6731 27.6373 39.1526C28.6057 39.6637 29.6279 39.9596 30.6232 39.852C32.0489 39.7175 33.5283 39.9058 34.9809 40.0672C36.7025 40.2555 38.4241 40.2286 40.065 39.852C41.5714 39.5023 43.1318 39.3947 44.7458 39.6368C45.6873 39.7713 46.4135 40.1749 47.1398 40.955C49.4264 43.3491 51.5515 46.0121 53.7304 48.5676C54.5374 49.5091 55.2637 50.5314 55.99 51.5536C56.1245 51.7419 56.259 52.0109 56.2859 52.2261C56.2859 52.4951 56.0707 52.5758 55.8824 52.5489C55.4251 52.522 54.9408 52.522 54.4835 52.4144C51.2286 51.7688 47.92 50.9349 44.7458 49.4285C41.7329 48.0028 38.6932 46.9267 35.7073 45.4741C34.9272 45.0975 34.1201 44.8285 33.34 44.694C31.9681 44.425 30.7038 44.7209 29.7085 45.7701C28.5249 47.0075 28.3905 48.5677 29.2782 50.5314C30.0583 52.2261 31.1074 53.6249 32.3717 54.7278C35.5728 57.4716 38.8815 59.5698 42.5399 59.4891C42.6744 59.4891 42.8089 59.516 42.9434 59.516C44.0194 59.4891 44.8264 60.0809 45.5258 61.3452C46.8439 63.6855 48.4311 65.73 50.2603 67.3709C51.7129 68.689 53.1923 69.9801 54.6449 71.2982C55.8824 72.428 57.1736 73.3427 58.5724 73.9076C59.218 74.1497 59.8904 74.4993 60.5091 74.9298C64.4365 77.566 68.4716 79.2607 72.6411 80.0408C74.0399 80.3098 75.4387 80.6057 76.8106 81.3051C79.4199 82.6501 81.6527 84.6407 83.0515 88.057C83.724 89.671 84.4502 91.2581 85.1227 92.899C88.5659 101.157 91.525 109.658 94.4033 118.185C94.5109 118.481 94.6992 118.831 94.2957 119.1C93.408 118.347 92.7894 117.217 92.09 116.195C85.3111 106.43 78.2633 96.9879 71.0809 87.7342C69.2786 85.4208 67.3956 83.2957 65.2974 81.5203C63.3068 79.8256 61.2354 78.5075 59.0296 77.7543C58.0881 77.4315 57.1736 77.2432 56.259 77.4315C54.9677 77.7005 54.4028 78.5075 54.3759 80.256C54.349 81.6817 54.6987 83.0267 55.183 84.3717C56.9046 89.2406 59.5676 93.2219 62.7956 96.6113C66.0774 100.054 69.467 103.336 72.9909 106.295C74.4166 107.506 75.8422 108.716 77.241 109.981C80.1194 112.617 83.1052 114.823 86.2257 116.733C87.6783 117.62 89.1309 118.562 90.5566 119.584C93.3542 121.575 95.5331 124.507 97.4968 127.788C97.6582 128.084 97.8734 128.407 97.9272 128.73C98.1155 130.236 98.8418 131.581 99.1646 133.034C100.187 137.607 100.967 142.234 101.586 146.834C102.097 150.654 102.554 154.5 102.985 158.32C103.119 159.504 103.549 160.526 103.899 161.602C103.953 161.79 104.249 161.979 104.41 162.005C104.572 162.005 104.787 161.871 104.868 161.683C105.137 161.145 104.76 160.23 105.325 159.88C105.863 159.558 105.917 158.912 106.051 158.266C106.347 156.894 106.562 155.496 106.939 154.204C107.773 151.326 107.396 148.394 106.401 145.327C105.002 141.05 103.684 136.746 102.339 132.442C101.747 130.586 101.344 128.703 101.317 126.739C101.317 124.668 101.155 122.57 101.155 120.525C101.101 115.441 101.424 110.438 101.559 105.381C101.935 91.7693 102.285 78.1578 102.608 64.5463C102.662 62.6633 102.635 60.7534 102.608 58.8704C102.554 55.75 102.15 52.6027 101.263 49.5091C100.859 48.1372 100.348 46.8191 99.5951 45.6893C98.3577 43.8332 96.8244 43.4028 95.4525 44.5326C94.9952 44.9092 94.5916 45.4472 94.215 45.9583C93.5425 46.9267 93.0583 48.0566 92.7086 49.294C91.7402 52.4951 90.7987 55.7231 90.0992 59.0856C88.7811 65.3533 88.1894 71.89 88.4046 78.6958C88.5929 84.6138 89.373 90.5319 90.5835 96.423C90.7987 97.4183 91.0946 98.4405 91.1215 99.4896C90.9063 99.4089 90.718 99.382 90.6642 99.2744C89.911 97.4989 88.9964 95.7774 88.4584 93.9482C87.4631 90.4781 86.4409 86.981 85.7415 83.4302C84.9345 79.3683 84.1005 75.2795 83.4011 71.1907C83.0783 69.2539 82.8632 67.3708 82.917 65.4609C82.9708 63.2282 82.7556 60.9686 82.5135 58.709C82.2176 55.9114 81.572 53.1407 81.1954 50.37C80.7919 47.3841 80.0655 44.4788 79.2047 41.6005C78.855 40.4976 78.4515 39.4216 78.1287 38.3187C76.8644 33.9878 75.4118 29.7376 73.744 25.568C71.9686 21.1564 70.0856 16.8255 67.6377 12.8981C66.4271 10.9344 65.0284 9.159 63.5489 7.57189C62.1501 6.03858 60.6168 5.41989 58.9759 5.90409C57.9537 6.2269 57.6846 6.92629 58.115 8.37889C58.4916 9.7508 59.1373 10.9882 59.8098 12.1987C61.4507 15.2115 62.4997 18.4396 63.1991 21.8559C64.6517 28.9575 66.2121 36.0322 67.7454 43.1338C67.9606 44.0753 68.1757 45.0437 68.4716 45.9583C69.3593 48.6484 70.2471 51.3384 71.2424 53.9477C72.8295 58.1441 74.4165 62.3943 77.0527 65.8106C78.4515 67.6398 79.5007 69.6573 80.0656 72.0515C80.3615 73.262 80.7112 74.4456 81.0071 75.6292C81.0609 75.8713 81.1147 76.221 80.8726 76.221C80.7112 76.221 80.496 76.0596 80.3615 75.8713C79.0434 74.0151 77.7522 72.1322 76.461 70.2761C75.1967 68.4738 73.9862 66.6715 72.695 64.8961C71.0002 62.5827 69.6014 60.0271 68.2564 57.3909C67.7991 56.4494 67.4494 55.4541 67.2341 54.405C66.6961 51.9033 66.0775 49.4015 65.2705 46.9536C64.4366 44.3443 63.5489 41.7619 62.7419 39.1257C61.101 33.8533 59.0835 28.8499 56.528 24.0885C55.1292 21.5061 53.811 18.8699 52.4391 16.2606C50.8789 13.2747 49.3456 10.235 47.7585 7.27596C46.3059 4.55905 44.4499 2.38015 42.3247 0.631645C41.706 0.120543 41.0604 -0.282932 40.4417 0.25507C39.8499 0.766172 39.7961 1.57319 39.9037 2.48779C39.9306 2.75679 39.9844 2.99887 40.0382 3.26787C40.3879 4.72048 40.6838 6.2269 41.1142 7.6526C41.9212 10.2888 42.5399 12.9519 43.1855 15.615C43.8311 18.3588 44.5036 21.1295 45.2568 23.8465C46.1176 26.9131 47.2743 29.8721 48.8614 32.5621C51.1748 36.4626 53.2461 40.6052 56.259 43.7525C57.6578 45.9853 59.4063 47.5185 61.37 48.6484C62.3384 49.2133 63.1992 50.0203 64.0331 50.9349C64.4366 51.3922 64.7056 51.8764 64.867 52.4951C65.2705 54.136 65.7009 55.75 66.1044 57.3909C66.1851 57.7675 65.943 58.0365 65.6471 57.9289C64.8401 57.5792 64.1676 56.9605 63.522 56.1804C60.8051 52.9793 58.0612 49.8589 55.156 47.0075C52.7081 44.6403 50.6368 41.8157 48.8345 38.6953C46.0369 33.8533 43.3201 28.9844 40.5762 24.0885C39.554 22.2862 38.6932 20.3764 37.8862 18.4126C37.2137 16.691 36.4605 15.0232 35.7073 13.3554C34.4699 10.7192 32.9365 8.40579 30.9459 6.63038C30.2465 5.98478 29.5203 5.41988 28.7133 5.15088C27.5297 4.77428 26.8034 5.47368 26.8303 7.03389C26.8572 8.08299 27.0724 9.10519 27.3952 10.1274C29.2513 15.8302 31.8606 20.9681 35.1962 25.595C36.7564 27.7739 38.209 30.0335 39.7154 32.2662C39.6616 32.4007 39.5808 32.5083 39.527 32.6428C38.4779 32.1855 37.4558 31.5937 36.4067 31.2978C35.0079 30.8943 34.1201 29.6838 33.2324 28.285C32.7751 27.5587 32.9635 26.6709 32.4524 26.106C31.9681 25.568 31.3225 25.6757 30.7845 25.057C29.4933 23.5506 27.9331 22.6629 26.3998 21.7752C25.5121 21.2372 24.5976 20.7529 23.7637 20.0804C21.5579 18.305 19.2444 17.1483 16.8503 16.3682C13.0036 15.1039 9.50661 12.6022 6.27859 9.21282C5.49849 8.40582 4.69138 7.6257 3.88438 6.8456C3.23877 6.2269 2.5125 5.90411 1.75929 5.85031C0.414287 5.74271 -0.258137 6.81867 0.0915644 8.56718C0.226065 9.26658 0.548814 9.96601 0.575714 10.6116C0.710215 12.0642 1.30204 12.8712 2.08215 13.6513ZM97.0396 46.066C97.0665 45.9315 97.201 45.8238 97.3086 45.8238C98.1425 45.7969 98.7073 46.4964 99.1646 47.3841C99.8371 48.7829 100.429 50.2355 100.348 51.8764C100.214 51.5805 100.052 51.2577 99.9178 50.9618C99.2184 49.2671 98.4921 47.5724 97.1471 46.5233C97.0664 46.4426 97.0127 46.1736 97.0396 46.066ZM98.3038 86.2278C98.1693 89.2137 97.8734 92.1459 97.6313 95.078C97.6044 95.5622 97.4969 96.0464 97.4431 96.5306C97.201 85.2056 97.9811 74.1497 97.8735 62.7441C98.4922 63.309 98.4115 63.82 98.4115 64.3042C98.815 71.7286 98.6266 78.9917 98.3038 86.2278ZM99.1108 107.102C98.6804 104.439 99.1915 96.2885 100.052 92.2535C100.375 94.2172 100.133 95.7236 100.079 97.23C99.9985 98.9247 99.8641 100.593 99.7296 102.287C99.5682 103.847 99.5681 105.461 99.1108 107.102ZM92.87 100.458C92.601 98.7364 92.3051 96.9878 92.1168 95.2393C91.256 87.4652 91.0677 79.7987 91.3905 72.186C91.4712 70.5719 91.6595 69.0118 91.9285 67.4516C92.3858 64.7616 92.7355 62.0177 93.0852 59.3008C93.3811 56.9874 93.6501 54.6471 94.1881 52.4413C94.4033 51.4998 94.6454 50.5313 95.1027 49.7781C95.2103 49.6167 95.3986 49.4016 95.5601 49.4285C95.9098 49.4823 95.9366 49.9127 95.9366 50.2355C96.098 52.4144 96.2864 54.5933 96.3671 56.7453C96.7437 65.6762 96.4478 74.4725 96.0981 83.2419C95.8022 90.5588 95.56 97.9025 95.7483 105.354C95.7483 105.596 95.6676 105.811 95.5331 106.591C94.9413 104.009 94.8337 102.018 94.6992 100.054C94.4302 96.3961 94.1881 92.7646 93.9998 89.1062C93.8384 85.7975 93.8653 82.5425 94.1881 79.3683C94.2419 78.8841 94.2419 78.3461 94.1881 77.835C94.1612 77.6736 93.9191 77.4584 93.7577 77.3239C93.5425 77.1625 93.3542 77.2701 93.2197 77.4315C92.8431 77.9157 92.87 78.6689 92.8162 79.3145C92.4934 83.0267 92.5203 86.8196 92.7355 90.6395C92.8969 93.4909 93.139 96.3692 93.3542 99.2475C93.3811 99.6779 93.3542 100.081 93.3542 100.512C93.3542 100.566 93.2735 100.673 93.2197 100.646C93.0583 100.592 92.87 100.512 92.87 100.458ZM60.7513 86.0127C61.9618 87.277 63.1991 88.5412 64.4096 89.8325C65.5663 91.0699 66.7232 92.3072 67.8799 93.5715C68.122 93.8405 68.2026 94.1634 67.9874 94.4593C67.7991 94.7014 67.5839 94.8359 67.288 94.6207C67.0997 94.4862 66.9383 94.3248 66.7769 94.1365C64.7056 91.85 62.715 89.429 60.8589 86.8197C60.6975 86.6314 60.5899 86.3893 60.7513 86.0127ZM71.861 93.8675C72.1031 94.3248 72.3991 94.7283 72.695 95.1318C73.771 96.5844 74.8738 98.037 75.9767 99.4896C75.6001 99.9738 75.4118 99.5434 75.2235 99.3282C70.3546 94.1365 65.5125 88.9178 60.6436 83.753C59.7559 82.8115 58.8414 81.9507 57.8999 81.0899C57.3888 80.6057 56.8238 80.1753 56.2051 80.4174C56.1513 80.4443 55.9361 80.256 55.9361 80.1753C55.9092 80.0408 55.9631 79.8256 56.0438 79.718C56.3128 79.3414 56.6894 79.2607 57.0929 79.2069C58.3034 79.0993 59.4869 79.4759 60.6436 80.0946C62.7956 81.2244 64.7863 82.7846 66.6694 84.6945C68.5793 86.6044 71.7534 90.5856 73.8516 93.706C73.0984 93.2756 72.7487 93.0067 72.399 92.8722C72.2645 92.8184 72.0224 92.9797 71.9417 93.168C71.8072 93.3294 71.7803 93.6792 71.861 93.8675ZM81.5181 108.851C80.1462 108.178 80.1463 108.178 79.151 106.564C80.1194 107.21 80.7918 107.856 81.5181 108.851ZM73.5289 50.9618C74.3359 53.3021 75.1697 55.6155 76.0036 57.9289C76.1112 58.2517 76.2457 58.6014 76.1381 58.9242C75.7615 58.8704 75.5463 58.4938 75.3311 58.1172C73.9323 55.5348 72.6411 52.8986 71.8341 49.9665C70.6505 45.7163 69.3593 41.4929 68.1219 37.2427C67.6646 35.6556 67.2074 34.0685 67.0729 32.4007C67.6916 32.5621 67.8261 33.127 68.0144 33.5843C68.66 35.2252 69.3055 36.8661 69.9511 38.4801C70.1125 38.8836 70.3277 39.2602 70.5429 39.6368C70.7312 39.9596 71.0271 40.0403 71.2692 39.9058C71.5382 39.7713 71.6458 39.4485 71.5382 39.0988C71.4037 38.5877 71.1885 38.1035 71.0002 37.6193C69.0903 32.6159 67.1535 27.6125 65.2974 22.5822C64.7325 21.022 64.4635 19.3542 64.06 17.6864C64.7056 17.4443 64.6786 18.2512 64.9476 18.574C65.378 19.1389 65.7278 19.3003 65.9968 18.9775C66.239 18.6547 66.2389 18.2243 66.0506 17.7939C65.7009 16.9869 65.3243 16.2068 64.9208 15.4536C64.0062 13.6782 63.0916 11.9297 62.177 10.1543C62.0425 9.85842 61.7735 9.58942 61.908 9.21282C62.2577 8.97072 62.5267 9.32041 62.8226 9.53561C64.5711 11.0151 66.0237 12.9519 67.3149 15.077C69.3324 18.3588 70.9733 21.9365 72.3721 25.6488C74.1475 30.3294 75.8154 35.0907 77.268 39.9058C79.42 47.1419 80.9264 54.4857 81.2761 61.937C81.2761 62.0715 81.1684 62.206 81.0877 62.3674C80.5766 61.7218 80.5766 60.8879 80.4152 60.1616C79.6889 56.6108 78.9357 53.06 78.2901 49.5091C77.0258 42.4882 74.847 35.817 72.0494 29.3341C71.1079 27.1551 70.1933 24.9763 69.2249 22.8242C68.7407 21.7213 68.4985 21.6137 67.5301 21.7482C66.8845 21.8289 66.6692 22.2863 66.9651 23.174C67.1803 23.8465 67.4764 24.4921 67.7454 25.1377C69.2249 28.6885 70.7312 32.2393 72.1569 35.817C73.9055 40.1479 75.2235 44.6402 76.2457 49.2401C76.7837 51.7419 77.3217 54.2436 77.8597 56.7453C77.9942 57.3371 78.1826 57.9558 78.075 58.5476C77.537 58.6283 77.3755 57.9827 77.2141 57.5523C76.4071 55.3196 75.627 53.06 74.82 50.8273C74.4972 49.9127 74.1745 48.9981 73.771 48.1103C73.6365 47.7875 73.3405 47.7069 73.0715 47.8145C72.8563 47.8952 72.7757 48.1911 72.8295 48.4063C73.0716 49.2671 73.233 50.1548 73.5289 50.9618ZM47.8123 16.4759C48.1082 16.6642 48.2696 17.3635 48.4848 17.8477C49.534 20.3494 50.5562 22.878 51.6053 25.3798C53.0579 28.8499 54.7257 32.1855 56.5549 35.3866C57.9537 37.8345 59.2986 40.3632 60.6705 42.838C60.9664 43.3491 61.2624 43.8601 61.4238 45.0168C59.0835 42.5958 57.5501 40.0134 56.232 37.2965C54.2414 33.2346 52.2509 29.1996 50.6638 24.8955C50.2334 23.7388 49.7222 22.636 49.238 21.5062C49.1035 21.1834 48.9421 20.8874 48.7538 20.6184C48.5386 20.3225 48.2427 20.2418 48.0275 20.457C47.893 20.5915 47.7855 20.8874 47.8393 21.0757C47.9738 21.6675 48.162 22.2593 48.4041 22.8242C49.8836 26.2675 51.0672 29.899 52.8426 33.1808C52.9502 33.3691 52.9233 33.665 52.9771 33.9878C51.8204 32.6159 49.6685 28.3926 48.3773 25.0839C46.575 20.4302 44.1539 11.7952 43.9925 9.21282C45.0685 10.504 45.5796 11.9835 46.1714 13.4092C46.5749 14.539 46.7632 15.8033 47.8123 16.4759ZM62.0156 40.928C62.1501 41.3315 62.2039 41.7619 62.3384 42.3806C61.7197 42.0578 61.5313 41.6812 61.3161 41.3046C59.5676 38.1304 57.846 34.9562 56.0975 31.8089C54.0262 28.1236 52.4122 24.1424 50.8251 20.1612C50.2333 18.7085 49.6416 17.229 49.0498 15.7764C48.8615 15.2922 48.6462 14.7542 48.3503 14.3776C46.8977 12.6022 46.3059 10.2081 45.1761 8.1906C45.0954 8.0561 45.1492 7.62566 45.2568 7.54496C45.3913 7.43736 45.6604 7.51807 45.8218 7.62568C46.0639 7.81398 46.279 8.05606 46.4404 8.35197C47.5971 10.235 48.8346 12.0911 49.8568 14.0817C52.3854 19.0044 54.7794 24.0348 57.2811 28.9844C59.1641 32.8042 60.5898 36.8661 62.0156 40.928ZM73.4481 72.6971C71.7265 71.7556 69.978 70.8678 68.2564 69.8187C64.329 67.3977 60.6437 64.2504 57.066 60.8879C56.9046 60.7265 56.7162 60.5382 56.6086 60.323C56.4741 60.0809 56.4742 59.7581 56.6894 59.7312C57.3888 59.6236 58.115 59.5967 59.0296 59.516C59.0027 59.516 59.218 59.516 59.3794 59.4084C60.4554 58.7628 61.5314 59.247 62.6074 60.0809C63.4413 60.7534 64.329 61.3721 65.136 62.1253C68.0412 64.7884 70.6505 67.9895 73.1791 71.2982C73.3674 71.5672 73.5557 71.8363 73.7171 72.1591C73.7709 72.2667 73.7978 72.5088 73.744 72.6164C73.7171 72.6702 73.5557 72.7509 73.4481 72.6971ZM42.0288 50.1279C41.8405 50.9887 41.41 51.6612 41.2755 52.6027C41.1141 53.8939 40.8183 54.0284 39.7154 53.4366C38.3166 52.6834 36.9177 51.7957 35.5189 50.9618C35.0885 50.6928 34.6312 50.4238 34.1739 50.2355C33.9049 50.1279 33.636 50.2624 33.5553 50.6121C33.4746 50.9349 33.5553 51.3384 33.7974 51.5536C34.2009 51.9302 34.6313 52.253 35.0617 52.522C37.133 53.867 39.2043 55.1313 41.5984 56.019C40.9528 56.7991 40.1458 56.019 39.7692 56.4494C38.9353 57.4178 38.0745 56.7184 37.1868 56.2611C35.5728 55.4003 34.0126 54.3512 32.6138 52.8986C31.7799 52.0378 30.9997 51.0694 30.4079 49.8858C29.8699 48.756 29.9775 47.8413 30.65 47.1688C31.2149 46.6308 31.8336 46.335 32.5869 46.335C33.3132 46.3619 34.0395 46.4963 34.7658 46.8191C36.7295 47.6261 38.6932 48.4601 40.6569 49.2671C41.168 49.4554 41.6522 49.5899 42.0288 50.1279ZM45.9293 53.1407C47.893 54.405 49.7491 55.8845 51.5514 57.6061C54.2414 60.1885 56.9583 62.744 59.729 65.2188C63.4951 68.6083 67.4494 71.4059 71.6189 73.5041C72.4529 73.9076 73.3405 74.2304 73.9861 75.1719C73.7709 75.4678 73.5289 75.4947 73.2599 75.3871C72.4798 75.0912 71.6727 74.7684 70.8926 74.4456C69.709 73.9345 68.5523 73.3157 67.3687 72.9122C65.5663 72.2935 63.8717 71.2444 62.2308 69.8994C60.4285 68.4199 58.6531 66.9136 56.8508 65.4341C55.6403 64.4388 54.5642 63.2282 53.542 61.8832C53.0309 61.1838 52.5198 61.1031 52.3315 61.5335C52.1163 62.0715 52.3585 62.5288 52.6544 62.9592C53.7035 64.5194 54.9408 65.7837 56.259 66.8866C58.1689 68.4738 60.0787 70.0609 61.9886 71.6749C63.3067 72.7778 64.7055 73.6117 66.1581 74.2842C65.9429 74.9029 65.5933 74.6339 65.3243 74.5801C62.4191 73.8269 59.6753 72.1322 57.0929 69.9802C53.0848 66.6176 49.2111 62.9862 45.7679 58.5745C45.0416 57.6599 44.4229 56.6646 43.8849 55.5617C43.4814 54.7547 43.2661 53.9208 43.1585 53.0331C43.0778 52.4144 43.3201 52.0916 43.8043 52.1723C44.5575 52.2799 45.2568 52.7103 45.9293 53.1407ZM57.3619 55.1044C54.5643 55.7769 51.8473 55.5617 49.1035 53.4635C48.9152 53.329 48.7538 53.1138 48.8614 52.8717C48.8883 52.7641 49.0767 52.7103 49.1843 52.7372C49.4533 52.7641 49.7223 52.8179 49.9644 52.9255C52.0088 53.6787 54.0262 54.136 56.0706 54.2974C56.501 54.3243 56.9853 54.2167 57.3619 55.1044ZM41.2487 28.7692C41.2218 28.7423 41.3025 28.6347 41.3294 28.554C41.5177 28.8499 41.706 29.1189 41.8943 29.3879C41.9212 29.4417 41.9212 29.5493 41.8943 29.6031C41.8943 29.63 41.7867 29.63 41.7598 29.6031C41.5984 29.3341 41.4101 29.0382 41.2487 28.7692ZM38.8545 27.8277C36.0838 25.8102 30.3272 15.5343 29.036 10.235C29.5202 10.1543 29.7354 10.7192 30.0044 11.1227C30.5962 11.9297 31.1342 12.7905 31.726 13.5975C31.995 13.9741 32.3717 14.001 32.6138 13.6782C32.8021 13.4361 32.8021 13.0595 32.6138 12.7367C32.3179 12.2256 32.022 11.6876 31.6992 11.2034C31.1074 10.2888 30.5155 9.37422 29.6278 8.00232C30.8383 8.29822 31.3225 8.99762 31.8605 9.61632C32.7751 10.6654 33.5284 11.9028 34.2009 13.2209C34.7927 14.3776 35.3307 15.5612 35.8418 16.7717C36.3798 18.036 36.8909 19.3273 37.4289 20.6992C36.8371 20.8068 36.7295 20.1612 36.5412 19.8384C36.1377 19.1928 35.8418 18.4395 35.4383 17.7939C35.2769 17.5249 34.9809 17.3636 34.7119 17.5519C34.4698 17.7402 34.3892 18.0898 34.4968 18.4126C34.6851 19.0045 34.9003 19.5694 35.1693 20.1074C36.1646 22.1249 37.1868 24.1424 38.1552 26.1599C38.4242 26.6979 38.8545 27.1552 38.8545 27.8277ZM32.2103 33.2884C34.2009 33.8264 36.1914 34.3913 38.182 35.01C39.0159 35.279 39.8768 35.5749 40.5762 36.355C40.5493 36.8661 40.2803 36.9468 40.0382 37.0006C39.016 37.1889 37.9669 37.2696 36.8909 37.1082C34.6313 36.7585 32.3717 36.3819 30.1658 36.7047C29.5471 36.7854 28.8209 36.7047 28.1753 36.4626C26.3192 35.7901 24.4899 34.9831 22.6607 34.203C22.4993 34.1223 22.311 33.8802 22.2303 33.6919C22.1227 33.3422 22.3918 33.2884 22.5532 33.2346C24.0865 32.9118 25.6197 32.6697 27.2068 32.6697C28.8746 32.6697 30.5425 32.858 32.2103 33.2884ZM10.0177 18.9775C10.206 18.9237 10.3943 18.7623 10.5557 18.8161C13.0843 19.7308 15.586 19.9729 18.1146 20.5109C18.5719 20.6185 19.0561 20.7261 19.5134 20.8337C19.9169 20.9144 20.2127 21.2102 20.0244 21.6944C19.6478 22.5822 20.428 23.0932 20.6163 23.954C16.6351 23.9002 12.2773 21.802 10.0177 18.9775ZM1.57107 8.83618C1.40967 8.16368 1.78619 7.65261 2.2973 7.86782C2.7546 8.05612 3.21187 8.29817 3.61537 8.62097C4.04578 8.94377 4.44938 9.34728 4.79908 9.77768C7.7581 13.3016 11.1475 15.615 14.7252 17.4711C14.9135 17.5518 15.0749 17.7401 15.2901 17.9284C13.2995 18.0091 11.282 17.5787 9.58725 16.5565C7.81184 15.4805 6.06331 14.2969 4.3148 13.1671C2.916 12.2525 2.05527 10.7192 1.57107 8.83618Z" fill="var(--fill-0, #28211B)"/>
</svg>
