<svg width="23" height="24" viewBox="0 0 23 24" fill="none" xmlns="http://www.w3.org/2000/svg">
<g id="Social icons">
<path id="linkedin" d="M21.3756 0.629333H1.83229C0.969334 0.629333 0.258667 1.39076 0.258667 2.30448V21.7463C0.258667 22.66 0.969334 23.3707 1.83229 23.3707H21.3756C22.2386 23.3707 23 22.66 23 21.7463V2.30448C23 1.39076 22.2386 0.629333 21.3756 0.629333ZM7.11153 20.1219H3.76124V9.30962H7.11153V20.1219ZM5.43638 7.78676C4.31962 7.78676 3.45667 6.92381 3.45667 5.85781C3.45667 4.79181 4.31962 3.8781 5.43638 3.8781C6.50238 3.8781 7.36534 4.79181 7.36534 5.85781C7.36534 6.92381 6.50238 7.78676 5.43638 7.78676ZM19.7512 20.1219H16.3502V14.8427C16.3502 13.6244 16.3502 12 14.6243 12C12.8476 12 12.5938 13.3706 12.5938 14.7919V20.1219H9.24353V9.30962H12.4415V10.7817H12.4923C12.9491 9.91876 14.0659 9.00505 15.6903 9.00505C19.0913 9.00505 19.7512 11.2893 19.7512 14.1828V20.1219Z" fill="white"/>
</g>
</svg>
