<svg width="14" height="14" viewBox="0 0 14 14" fill="none" xmlns="http://www.w3.org/2000/svg">
<path id="add" d="M7.00012 13.75C6.78346 13.75 6.60446 13.6793 6.46312 13.538C6.32112 13.396 6.25012 13.2167 6.25012 13V7.75H1.00012C0.783455 7.75 0.604455 7.679 0.463122 7.537C0.321122 7.39567 0.250122 7.21667 0.250122 7C0.250122 6.78333 0.321122 6.604 0.463122 6.462C0.604455 6.32067 0.783455 6.25 1.00012 6.25H6.25012V1C6.25012 0.783333 6.32112 0.604333 6.46312 0.463C6.60446 0.321 6.78346 0.25 7.00012 0.25C7.21679 0.25 7.39612 0.321 7.53812 0.463C7.67946 0.604333 7.75012 0.783333 7.75012 1V6.25H13.0001C13.2168 6.25 13.3961 6.32067 13.5381 6.462C13.6795 6.604 13.7501 6.78333 13.7501 7C13.7501 7.21667 13.6795 7.39567 13.5381 7.537C13.3961 7.679 13.2168 7.75 13.0001 7.75H7.75012V13C7.75012 13.2167 7.67946 13.396 7.53812 13.538C7.39612 13.6793 7.21679 13.75 7.00012 13.75Z" fill="#1C1B1F"/>
</svg>
