<svg width="30" height="30" viewBox="0 0 30 30" fill="none" xmlns="http://www.w3.org/2000/svg">
<mask id="mask0_2897_7676" style="mask-type:alpha" maskUnits="userSpaceOnUse" x="0" y="0" width="30" height="30">
<rect width="30" height="30" fill="#D9D9D9"/>
</mask>
<g mask="url(#mask0_2897_7676)">
<path d="M26.625 12.5312C26.7083 12.9271 26.7708 13.3333 26.8125 13.75C26.8542 14.1667 26.875 14.5833 26.875 15C26.875 16.6458 26.5625 18.1875 25.9375 19.625C25.3125 21.0625 24.4633 22.3175 23.39 23.39C22.3175 24.4633 21.0625 25.3125 19.625 25.9375C18.1875 26.5625 16.6458 26.875 15 26.875C13.3542 26.875 11.8125 26.5625 10.375 25.9375C8.9375 25.3125 7.68208 24.4633 6.60875 23.39C5.53625 22.3175 4.6875 21.0625 4.0625 19.625C3.4375 18.1875 3.125 16.6458 3.125 15C3.125 13.3542 3.4375 11.8125 4.0625 10.375C4.6875 8.9375 5.53625 7.68208 6.60875 6.60875C7.68208 5.53625 8.9375 4.6875 10.375 4.0625C11.8125 3.4375 13.3542 3.125 15 3.125C16.1042 3.125 17.1667 3.27083 18.1875 3.5625C19.2083 3.85417 20.1563 4.26042 21.0312 4.78125C21.2604 4.92708 21.4013 5.125 21.4538 5.375C21.5054 5.625 21.4375 5.86458 21.25 6.09375C21.0833 6.30208 20.875 6.4325 20.625 6.485C20.375 6.53667 20.1354 6.48958 19.9062 6.34375C19.1979 5.90625 18.4271 5.57292 17.5938 5.34375C16.7604 5.11458 15.8958 5 15 5C12.2292 5 9.87 5.97375 7.9225 7.92125C5.97417 9.86958 5 12.2292 5 15C5 17.7708 5.97417 20.1304 7.9225 22.0788C9.87 24.0263 12.2292 25 15 25C17.7708 25 20.1304 24.0263 22.0788 22.0788C24.0263 20.1304 25 17.7708 25 15C25 14.6458 24.9792 14.2967 24.9375 13.9525C24.8958 13.6092 24.8333 13.2604 24.75 12.9062C24.7292 12.6979 24.7604 12.505 24.8438 12.3275C24.9271 12.1508 25.0521 12.0104 25.2188 11.9062C25.5104 11.6979 25.7971 11.6667 26.0788 11.8125C26.3596 11.9583 26.5417 12.1979 26.625 12.5312ZM12.4375 19.5312L8.96875 16.0625C8.80208 15.8958 8.72417 15.6821 8.735 15.4212C8.745 15.1613 8.83333 14.9479 9 14.7812C9.1875 14.5938 9.41167 14.5 9.6725 14.5C9.9325 14.5 10.1458 14.5938 10.3125 14.7812L13.2188 17.6875L24.9375 5.96875C25.1042 5.78125 25.3179 5.6925 25.5787 5.7025C25.8387 5.71333 26.0521 5.8125 26.2188 6C26.4062 6.16667 26.5 6.38 26.5 6.64C26.5 6.90083 26.4062 7.125 26.2188 7.3125L14.0312 19.5312C13.8021 19.7396 13.5312 19.8438 13.2188 19.8438C12.9062 19.8438 12.6458 19.7396 12.4375 19.5312Z" fill="#1C1B1F"/>
</g>
</svg>
