<svg width="16" height="18" viewBox="0 0 16 18" fill="none" xmlns="http://www.w3.org/2000/svg">
<path id="delete" d="M3.63337 17.4375C3.13337 17.4375 2.70837 17.2625 2.35837 16.9125C2.00837 16.5625 1.83337 16.1375 1.83337 15.6375V2.9375H1.58337C1.36671 2.9375 1.18771 2.8665 1.04637 2.7245C0.904374 2.58317 0.833374 2.40417 0.833374 2.1875C0.833374 1.97083 0.904374 1.79183 1.04637 1.6505C1.18771 1.5085 1.36671 1.4375 1.58337 1.4375H5.33337C5.33337 1.1875 5.42071 0.979167 5.59537 0.8125C5.77071 0.645833 5.98337 0.5625 6.23337 0.5625H10.4334C10.6834 0.5625 10.896 0.645833 11.0714 0.8125C11.246 0.979167 11.3334 1.1875 11.3334 1.4375H15.0834C15.3 1.4375 15.4794 1.5085 15.6214 1.6505C15.7627 1.79183 15.8334 1.97083 15.8334 2.1875C15.8334 2.40417 15.7627 2.58317 15.6214 2.7245C15.4794 2.8665 15.3 2.9375 15.0834 2.9375H14.8334V15.6375C14.8334 16.1375 14.6584 16.5625 14.3084 16.9125C13.9584 17.2625 13.5334 17.4375 13.0334 17.4375H3.63337ZM3.33337 2.9375V15.6375C3.33337 15.7208 3.36271 15.7918 3.42137 15.8505C3.47937 15.9085 3.55004 15.9375 3.63337 15.9375H13.0334C13.1167 15.9375 13.1877 15.9085 13.2464 15.8505C13.3044 15.7918 13.3334 15.7208 13.3334 15.6375V2.9375H3.33337ZM5.73337 13.1875C5.73337 13.4042 5.80437 13.5835 5.94637 13.7255C6.08771 13.8668 6.26671 13.9375 6.48337 13.9375C6.70004 13.9375 6.87937 13.8668 7.02137 13.7255C7.16271 13.5835 7.23337 13.4042 7.23337 13.1875V5.6875C7.23337 5.47083 7.16271 5.2915 7.02137 5.1495C6.87937 5.00817 6.70004 4.9375 6.48337 4.9375C6.26671 4.9375 6.08771 5.00817 5.94637 5.1495C5.80437 5.2915 5.73337 5.47083 5.73337 5.6875V13.1875ZM9.43337 13.1875C9.43337 13.4042 9.50404 13.5835 9.64537 13.7255C9.78737 13.8668 9.96671 13.9375 10.1834 13.9375C10.4 13.9375 10.5794 13.8668 10.7214 13.7255C10.8627 13.5835 10.9334 13.4042 10.9334 13.1875V5.6875C10.9334 5.47083 10.8627 5.2915 10.7214 5.1495C10.5794 5.00817 10.4 4.9375 10.1834 4.9375C9.96671 4.9375 9.78737 5.00817 9.64537 5.1495C9.50404 5.2915 9.43337 5.47083 9.43337 5.6875V13.1875ZM3.33337 15.6375C3.33337 15.7208 3.36271 15.7918 3.42137 15.8505C3.47937 15.9085 3.55004 15.9375 3.63337 15.9375H3.33337C3.33337 15.9375 3.33337 15.9085 3.33337 15.8505C3.33337 15.7918 3.33337 15.7208 3.33337 15.6375Z" fill="#989898"/>
</svg>
