<svg width="22" height="17" viewBox="0 0 22 15" fill="none" xmlns="http://www.w3.org/2000/svg">
<path d="M11.0002 11.8162C12.1335 11.8162 13.0959 11.4202 13.8872 10.6282C14.6792 9.83688 15.0752 8.87454 15.0752 7.74121C15.0752 6.60788 14.6792 5.64554 13.8872 4.85421C13.0959 4.06221 12.1335 3.66621 11.0002 3.66621C9.86686 3.66621 8.90453 4.06221 8.1132 4.85421C7.3212 5.64554 6.9252 6.60788 6.9252 7.74121C6.9252 8.87454 7.3212 9.83688 8.1132 10.6282C8.90453 11.4202 9.86686 11.8162 11.0002 11.8162ZM11.0002 10.4412C10.2502 10.4412 9.61286 10.1785 9.0882 9.65321C8.56286 9.12854 8.3002 8.49121 8.3002 7.74121C8.3002 6.99121 8.56286 6.35354 9.0882 5.82821C9.61286 5.30354 10.2502 5.04121 11.0002 5.04121C11.7502 5.04121 12.3879 5.30354 12.9132 5.82821C13.4379 6.35354 13.7002 6.99121 13.7002 7.74121C13.7002 8.49121 13.4379 9.12854 12.9132 9.65321C12.3879 10.1785 11.7502 10.4412 11.0002 10.4412ZM11.0002 14.7412C8.81686 14.7412 6.81253 14.1662 4.9872 13.0162C3.16253 11.8662 1.76686 10.3079 0.800195 8.34121C0.766862 8.27454 0.741862 8.18688 0.725195 8.07821C0.708529 7.97021 0.700195 7.85788 0.700195 7.74121C0.700195 7.62454 0.708529 7.51188 0.725195 7.40321C0.741862 7.29521 0.766862 7.20788 0.800195 7.14121C1.76686 5.17454 3.16253 3.61621 4.9872 2.46621C6.81253 1.31621 8.81686 0.741211 11.0002 0.741211C13.1835 0.741211 15.1875 1.31621 17.0122 2.46621C18.8375 3.61621 20.2335 5.17454 21.2002 7.14121C21.2335 7.20788 21.2585 7.29521 21.2752 7.40321C21.2919 7.51188 21.3002 7.62454 21.3002 7.74121C21.3002 7.85788 21.2919 7.97021 21.2752 8.07821C21.2585 8.18688 21.2335 8.27454 21.2002 8.34121C20.2335 10.3079 18.8375 11.8662 17.0122 13.0162C15.1875 14.1662 13.1835 14.7412 11.0002 14.7412ZM11.0002 13.2412C12.8835 13.2412 14.6129 12.7452 16.1882 11.7532C17.7629 10.7619 18.9669 9.42454 19.8002 7.74121C18.9669 6.05788 17.7629 4.72021 16.1882 3.72821C14.6129 2.73688 12.8835 2.24121 11.0002 2.24121C9.11686 2.24121 7.38753 2.73688 5.81219 3.72821C4.23753 4.72021 3.03353 6.05788 2.2002 7.74121C3.03353 9.42454 4.23753 10.7619 5.81219 11.7532C7.38753 12.7452 9.11686 13.2412 11.0002 13.2412Z" fill="#1C1B1F"/>
</svg>
