<svg width="16" height="16" viewBox="0 0 16 16" fill="none" xmlns="http://www.w3.org/2000/svg">
<path d="M8.04358 13.6389C10.4348 13.6389 11.3627 13.9601 13.0044 14.1742C13.0401 14.0672 13.0758 13.9244 13.1115 13.8173C13.2185 13.5318 13.3613 13.282 13.5754 13.1036C13.8966 12.818 14.2892 12.4968 14.5033 12.247C14.8602 11.8187 15.1814 11.3905 15.4313 10.8908C15.574 10.641 15.6811 10.3912 15.7525 10.1414C15.8595 9.89153 15.9309 9.60601 15.9666 9.3205C16.038 8.74947 16.0023 8.14276 15.7881 7.60742C15.6811 7.3219 15.5383 7.10777 15.3242 6.85794C15.1457 6.64381 14.8959 6.42967 14.6104 6.28692C14.3249 6.14416 14.0037 6.07278 13.7182 6.07278C13.4327 6.07278 13.1115 6.10847 12.8616 6.21554C12.5761 6.28692 12.2906 6.42967 12.0408 6.57243C11.8623 6.6795 11.6125 6.64381 11.4697 6.46536C11.2913 6.28692 11.0772 6.10847 10.8273 6.0014C10.7203 5.96571 10.6132 5.93002 10.5061 5.89433C10.5061 5.85864 10.5418 5.78727 10.5418 5.75158C10.5775 5.57313 10.5775 5.39468 10.5418 5.21624C10.5061 5.03779 10.4348 4.85935 10.292 4.71659C10.2563 4.64521 10.1849 4.57383 10.1136 4.50245C10.0422 4.43107 9.9708 4.39539 9.86373 4.32401C9.68529 4.21694 9.47115 4.18125 9.2927 4.18125C9.14995 4.18125 8.90012 4.28832 8.68599 4.3597C8.57892 4.39539 8.47185 4.32401 8.50754 4.21694C8.54323 4.10987 8.54323 4.0028 8.61461 3.96711C8.86443 3.71729 9.00719 3.43178 9.00719 3.03919C9.00719 2.3611 8.54323 1.82576 8.00789 1.82576C7.47255 1.82576 7.00859 2.3611 7.00859 3.03919C7.00859 3.43178 7.15135 3.71729 7.40117 3.96711C7.43686 4.0028 7.47255 4.10987 7.50824 4.21694C7.54393 4.32401 7.43686 4.39539 7.32979 4.3597C7.15135 4.28832 6.86584 4.18125 6.72308 4.18125C6.50894 4.18125 6.3305 4.21694 6.15205 4.32401C6.04498 4.3597 6.00929 4.43107 5.90223 4.50245C5.83085 4.57383 5.75947 4.64521 5.72378 4.71659C5.61671 4.85935 5.50964 5.03779 5.47396 5.21624C5.43827 5.39468 5.43827 5.60882 5.47396 5.75158C5.47396 5.78727 5.50964 5.85864 5.50964 5.89433C5.40258 5.93002 5.29551 5.93002 5.18844 6.0014C4.93862 6.10847 4.72448 6.28692 4.54603 6.46536C4.40328 6.60812 4.15345 6.6795 3.97501 6.57243C3.72518 6.42967 3.43967 6.3226 3.15415 6.21554C2.86864 6.14416 2.58313 6.07278 2.29761 6.07278C2.0121 6.07278 1.6909 6.14416 1.40538 6.28692C1.11987 6.42967 0.870043 6.64381 0.691596 6.85794C0.51315 7.07208 0.370393 7.3219 0.227636 7.60742C0.013501 8.14276 -0.0578775 8.74947 0.0491903 9.3205C0.0848795 9.60601 0.156257 9.89153 0.263325 10.1414C0.370393 10.3912 0.477461 10.641 0.584529 10.8908C0.834354 11.3905 1.15556 11.8187 1.51245 12.247C1.72658 12.4968 2.11917 12.818 2.44037 13.1036C2.6545 13.282 2.83295 13.5318 2.90433 13.8173C2.94002 13.9244 2.97571 14.0672 3.0114 14.1742C4.6531 13.9601 5.54533 13.6389 7.9722 13.6389H8.04358ZM11.791 8.60672C11.8623 8.35689 11.898 8.10707 11.898 7.85724C11.898 7.78586 11.898 7.75017 11.898 7.6788C11.898 7.35759 12.0765 7.03639 12.3977 6.92932C12.6118 6.85794 12.7902 6.78656 13.0044 6.75088C13.4683 6.64381 13.9323 6.6795 14.2535 6.89363C14.432 7.0007 14.5747 7.14346 14.6818 7.3219C14.7888 7.50035 14.8959 7.6788 14.9673 7.89293C15.1101 8.28551 15.1101 8.71378 15.003 9.14205C14.7888 9.9986 14.2535 10.8194 13.6111 11.4619C13.2899 11.7831 12.8973 12.1043 12.5047 12.3184C12.4334 12.3541 12.362 12.3898 12.2906 12.4612C12.0051 12.6396 11.6482 12.711 11.2913 12.711H10.2206C9.93511 12.711 9.79235 12.3898 9.9708 12.1756C10.1849 11.8901 10.4704 11.5689 10.5775 11.3548C11.1842 10.4982 11.5768 9.60601 11.791 8.60672ZM10.5775 6.50105C10.7203 6.57243 10.863 6.71519 10.9701 6.85794C11.0415 6.92932 11.1129 7.03639 11.1129 7.07208C11.1129 7.10777 11.1485 7.14346 11.1485 7.17915C11.1485 7.21484 11.1485 7.25052 11.1842 7.28621C11.2199 7.60742 11.1842 8.07138 11.0415 8.46396C10.7917 9.3205 10.3277 10.1414 9.82804 10.8908C9.68529 11.0693 9.43546 11.3548 9.22133 11.5689C9.07857 11.7474 8.79305 11.6403 8.75736 11.4262C8.6503 10.4982 8.57892 9.3205 8.54323 7.78586C8.54323 7.28621 8.82874 6.78656 9.32839 6.57243C9.39977 6.53674 9.43546 6.53674 9.50684 6.50105C9.86373 6.35829 10.292 6.35829 10.5775 6.50105ZM8.93581 4.71659C9.04288 4.6809 9.18564 4.64521 9.2927 4.64521C9.39977 4.64521 9.50684 4.6809 9.61391 4.75228C9.6496 4.78797 9.72098 4.82366 9.75666 4.85935C9.79235 4.89503 9.82804 4.93072 9.86373 5.0021C9.93511 5.10917 9.9708 5.21624 10.0065 5.32331C10.0065 5.35899 10.0065 5.46606 9.9708 5.57313C9.93511 5.75158 9.79235 5.89433 9.61391 5.96571C9.50684 6.0014 9.36408 6.03709 9.25701 6.07278C9.22133 6.07278 9.18564 6.10847 9.14995 6.10847C8.86443 6.25123 8.50754 6.03709 8.50754 5.71589C8.50754 5.60882 8.50754 5.50175 8.50754 5.43037C8.50754 5.10917 8.68599 4.82366 8.93581 4.71659ZM5.75947 12.711H4.68879C4.3319 12.711 4.0107 12.6396 3.68949 12.4612C3.61811 12.4255 3.54674 12.3898 3.47536 12.3184C3.08278 12.0686 2.72588 11.7831 2.36899 11.4619C1.72658 10.7838 1.15556 9.9986 0.97711 9.14205C0.870042 8.71378 0.870042 8.28551 1.0128 7.89293C1.08418 7.6788 1.19125 7.50035 1.29831 7.3219C1.40538 7.14346 1.58383 7.0007 1.72658 6.89363C2.08348 6.6795 2.54744 6.6795 2.97571 6.75088C3.18984 6.78656 3.36829 6.85794 3.58243 6.92932C3.90363 7.07208 4.08207 7.35759 4.08207 7.6788C4.08207 7.75017 4.08207 7.78586 4.08207 7.85724C4.08207 8.10707 4.11776 8.35689 4.18914 8.60672C4.40328 9.57033 4.83155 10.4982 5.36689 11.3548C5.50964 11.5689 5.75947 11.8901 5.9736 12.1756C6.18774 12.3898 6.04498 12.711 5.75947 12.711ZM7.29411 11.3905C7.25842 11.6046 6.9729 11.7117 6.83015 11.5332C6.61601 11.3191 6.36619 11.0336 6.22343 10.8551C5.68809 10.1057 5.25982 9.28481 5.00999 8.42827C4.86724 8 4.83155 7.57173 4.86724 7.25052C4.86724 7.21484 4.86724 7.17915 4.90293 7.14346C4.90293 7.10777 4.93862 7.07208 4.93862 7.03639C4.93862 7.0007 5.00999 6.89363 5.08137 6.82225C5.18844 6.6795 5.3312 6.53674 5.47396 6.46536C5.75947 6.28692 6.18774 6.28692 6.58032 6.42967C6.61601 6.42967 6.6517 6.46536 6.6517 6.46536C7.18704 6.6795 7.50824 7.14346 7.50824 7.6788C7.47255 9.28481 7.40117 10.4982 7.29411 11.3905ZM7.54393 5.6802C7.54393 6.0014 7.18704 6.21554 6.90153 6.07278C6.86584 6.07278 6.83015 6.03709 6.79446 6.03709C6.68739 6.0014 6.58032 5.96571 6.43756 5.93002C6.25912 5.89433 6.11636 5.75158 6.08067 5.53744C6.08067 5.43037 6.04498 5.32331 6.04498 5.28762C6.08067 5.18055 6.11636 5.07348 6.18774 4.96641C6.22343 4.93072 6.25912 4.85935 6.29481 4.82366C6.3305 4.78797 6.36619 4.75228 6.43756 4.71659C6.54463 4.64521 6.6517 4.64521 6.75877 4.60952C6.86584 4.60952 7.00859 4.64521 7.11566 4.6809C7.40117 4.78797 7.57962 5.07348 7.57962 5.35899C7.54393 5.50175 7.54393 5.60882 7.54393 5.6802Z" fill="#F1B77C"/>
</svg>
