<svg width="593" height="1198" viewBox="0 0 593 1198" fill="none" xmlns="http://www.w3.org/2000/svg">
<g opacity="0.1">
<path d="M583.635 1160.1L562.023 1122.67L583.635 1085.24L562.023 1047.66H518.799L497.343 1010.38L518.955 972.952L497.343 935.366L454.119 935.366L432.663 898.093L454.119 860.819H497.343L519.112 823.076L497.5 785.49H454.275H410.738L389.282 822.763L367.826 785.646H324.602L303.146 748.373L324.602 711.1H367.826L389.439 673.67H432.663L454.275 636.24H497.5L519.269 598.497L497.656 560.911H454.432H410.894L389.439 598.184L367.983 561.067H324.759L303.303 523.794L324.759 486.521H367.983L389.752 448.778L368.14 411.191H324.915H281.378L259.922 448.464L238.623 411.504L260.079 374.231V373.761H259.922L217.011 373.761L216.541 373.918L195.242 410.878L173.943 373.918H173.473C173.473 373.761 130.249 373.761 130.249 373.761H87.0242L65.412 411.191H22.1875L0.418685 448.934L22.1875 486.677H108.95L130.405 449.404L151.861 486.677H195.085L216.541 523.951L195.085 561.224H151.861L130.092 598.967L151.861 636.553H238.623L260.079 599.28L281.378 636.24L259.922 673.513H216.698L194.929 711.256L216.541 748.686L195.085 785.96H151.861L130.092 823.703L151.704 861.133L130.092 898.562L151.861 936.305H238.623L260.079 899.032L281.534 936.149H324.759L346.371 973.422H389.595L411.051 1010.7L389.439 1048.13L411.051 1085.71H454.275L475.731 1122.98L454.119 1160.41L475.731 1198H518.955H562.493L584.262 1160.26L583.635 1160.1ZM583.166 1085.24L561.71 1122.52H518.955L540.411 1085.24L518.955 1047.97H561.71L583.166 1085.24ZM454.119 1084.93L462.576 1070.36L475.574 1047.97H518.329L511.438 1060.03L497.03 1084.93H454.275H454.119ZM468.057 1060.03L453.806 1084.77L432.506 1047.81L453.806 1010.85L475.104 1047.81L468.057 1060.03ZM505.8 1070.36L518.642 1048.28L539.941 1085.24L518.642 1122.2L497.343 1085.24L505.957 1070.36H505.8ZM518.172 1047.5H475.418L454.119 1010.54L496.873 1010.54L518.172 1047.5ZM518.329 972.796L496.873 1010.07L454.119 1010.07L475.574 972.796L454.119 935.522L496.873 935.522L518.329 972.796ZM367.2 935.209H324.445L335.095 916.886L345.901 898.249H388.656L367.357 935.209H367.2ZM324.445 860.349L329.927 850.953L345.901 823.389H388.656L367.357 860.349H324.602H324.445ZM323.662 785.96L313.013 804.283L302.207 822.92H259.452L270.102 804.596L280.908 785.96H323.662ZM373.151 850.953L388.969 823.546L410.268 860.506L388.969 897.466L367.67 860.506L373.151 850.953ZM410.581 860.349L389.282 823.389H432.037L453.336 860.349H410.581ZM432.35 823.076L453.649 786.116L474.948 823.076L453.649 860.036L432.35 823.076ZM323.976 860.036L302.677 823.076L313.483 804.44L324.132 786.116L345.431 823.076L324.132 860.036H323.976ZM323.662 860.349H280.908L259.609 823.389H302.363L323.662 860.349ZM269.788 804.283L259.139 822.606L237.84 785.646L259.139 748.686L280.438 785.646L269.632 804.283H269.788ZM237.527 785.96L258.826 822.92H216.071L194.772 785.96H237.527ZM215.758 823.076L194.459 860.036L173.16 823.076L194.459 786.116L215.758 823.076ZM216.071 823.389H258.826L237.527 860.349H194.772L216.071 823.389ZM259.139 823.546L280.438 860.506L259.139 897.466L237.84 860.506L259.139 823.546ZM367.2 860.819L388.499 897.779H345.744L324.445 860.819H367.2ZM345.431 897.936L324.132 934.896L302.833 897.936L324.132 860.976L345.431 897.936ZM378.319 916.886L388.969 898.562L410.268 935.522L399.462 954.159L388.812 972.482L367.513 935.522L378.319 916.886ZM389.282 972.639L410.581 935.679H453.336L442.686 954.002L431.88 972.639H389.125H389.282ZM453.806 935.836L475.104 972.796L453.806 1009.76L432.506 972.796L453.806 935.836ZM453.336 935.209H410.581L389.282 898.249H432.037L453.336 935.209ZM432.037 897.779H389.282L410.581 860.819H453.336L432.037 897.779ZM518.329 823.076L496.873 860.349H454.119L475.574 823.076L454.119 785.803H496.873L518.329 823.076ZM453.336 785.96L432.037 822.92H389.282L410.581 785.96H453.336ZM388.499 822.92H345.744L324.445 785.96H367.2L388.499 822.92ZM323.662 785.49H280.908L259.609 748.53H302.363L323.662 785.49ZM259.609 598.184L270.258 579.86L281.064 561.224H323.819L302.52 598.184H259.765H259.609ZM259.139 598.027L237.84 561.067L259.139 524.107L280.438 561.067L259.139 598.027ZM237.527 561.224L258.826 598.184H216.071L194.772 561.224H237.527ZM215.758 598.497L194.459 635.457L173.16 598.497L194.459 561.537L215.758 598.497ZM313.483 579.86L324.132 561.537L345.431 598.497L324.132 635.457L302.833 598.497L313.639 579.86H313.483ZM388.969 672.887L367.67 635.927L370.489 630.915L388.969 598.81L395.86 610.556L410.424 635.77L389.125 672.73L388.969 672.887ZM410.581 635.77L393.041 605.388L389.282 598.81H432.037L438.928 610.869L453.336 635.77H410.581ZM436.422 605.388L432.506 598.497L453.806 561.537L475.104 598.497L453.806 635.457L436.422 605.388ZM327.108 630.915L345.744 598.654H388.499L367.2 635.614H324.445L327.108 630.915ZM367.2 636.083L388.499 673.044H345.744L324.445 636.083H367.2ZM345.431 673.357L324.132 710.317L302.833 673.357L324.132 636.397L345.431 673.357ZM302.363 673.67L323.662 710.63H280.908L259.609 673.67H302.363ZM280.594 710.787L259.296 747.747L237.997 710.787L259.296 673.827L280.594 710.787ZM302.363 748.06H259.609L280.908 711.1H323.662L302.363 748.06ZM367.2 710.63H324.445L345.744 673.67H388.499L367.2 710.63ZM432.037 673.2H389.282L410.581 636.24H453.336L432.037 673.2ZM518.329 598.497L496.873 635.77H454.119L475.574 598.497L454.119 561.224H496.873L518.329 598.497ZM453.336 561.224L432.037 598.184H389.282L410.581 561.224H453.336ZM388.499 598.184H345.744L324.445 561.224H367.2L388.499 598.184ZM323.662 560.754H280.908L259.609 523.794H302.363L323.662 560.754ZM302.363 523.324H259.609L280.908 486.364L323.662 486.364L302.363 523.324ZM183.34 429.828L172.533 448.464H129.779L140.428 430.141L151.234 411.504H193.989L183.34 429.828ZM140.115 429.828L129.466 448.151L108.167 411.191L129.466 374.231L148.102 406.493L150.765 411.191L139.958 429.828H140.115ZM107.697 411.504L110.359 416.203L128.996 448.464H86.2412L64.9421 411.504H107.697ZM67.2913 416.203L86.0845 448.778L64.7855 485.738L43.4865 448.778L64.7855 411.818L67.2913 416.203ZM183.809 430.141L194.459 411.818L215.758 448.778L194.459 485.738L173.16 448.778L183.966 430.141H183.809ZM194.772 485.894L198.374 479.786L216.228 448.934H258.982L237.683 485.894H194.929H194.772ZM302.677 448.778L323.976 411.818L345.275 448.778L323.976 485.738L302.677 448.778ZM323.662 485.894L280.908 485.894L259.609 448.934H302.363L323.662 485.894ZM241.599 479.786L259.296 449.247L280.594 486.207L259.296 523.168L237.997 486.207L241.755 479.786H241.599ZM388.656 448.778L367.2 486.051H324.445L345.901 448.778L324.445 411.504H367.2L388.656 448.778ZM323.662 411.504L302.363 448.464H259.609L280.908 411.504H323.662ZM258.826 448.464H216.071L194.772 411.504H237.527L258.826 448.464ZM258.826 374.074L237.527 411.035H194.772L216.071 374.074L258.826 374.074ZM191.483 406.649L193.989 411.035H151.234L129.935 374.074H172.69L191.483 406.649ZM86.3977 374.074H129.152L107.853 411.035H65.0988L86.3977 374.074ZM21.5611 485.894L0.105469 448.621L21.5611 411.348H64.3157L42.8601 448.621L64.3157 485.894H21.5611ZM65.0988 485.894L86.3977 448.934H129.152L107.853 485.894H65.0988ZM129.935 448.934H172.69L193.989 485.894H151.234L129.935 448.934ZM194.772 486.364H237.527L258.826 523.324H216.071L194.772 486.364ZM216.071 523.794H258.826L237.527 560.754H194.772L216.071 523.794ZM151.234 635.77L129.779 598.497L151.234 561.224H193.989L172.533 598.497L193.989 635.77H151.234ZM194.772 635.77L216.071 598.81H258.826L237.527 635.77H194.772ZM259.609 598.654H302.363L323.662 635.614H280.908L259.609 598.654ZM280.908 636.083H323.662L302.363 673.044H259.609L280.908 636.083ZM194.615 710.787L216.071 673.513H258.826L237.37 710.787L258.826 748.06H216.071L194.615 710.787ZM216.071 748.53H258.826L237.527 785.49H194.772L216.071 748.53ZM129.779 823.076L151.234 785.803H193.989L172.533 823.076L193.989 860.349H151.234L129.779 823.076ZM151.234 935.209L129.779 897.936L151.234 860.663H193.989L172.533 897.936L193.989 935.209H151.234ZM194.302 860.976L215.601 897.936L194.302 934.896L173.003 897.936L194.302 860.976ZM237.527 935.209H194.772L216.228 897.936L194.772 860.663H237.527L258.982 897.936L237.527 935.209ZM259.452 897.936L280.908 860.663H323.662L302.207 897.936L323.662 935.209H280.908L259.452 897.936ZM324.445 935.679H367.2L388.499 972.639H345.744L324.445 935.679ZM389.282 973.109H432.037L453.336 1010.07H410.581L389.282 973.109ZM389.125 1047.81L410.581 1010.54H453.336L431.88 1047.81L453.336 1085.09H410.581L389.125 1047.81ZM454.119 1085.4H496.873L518.172 1122.36H475.418L454.119 1085.4ZM453.962 1160.1L475.418 1122.83H518.172L496.717 1160.1L518.172 1197.37H475.418L453.962 1160.1ZM518.642 1123.14L539.941 1160.1L518.642 1197.06L497.343 1160.1L518.642 1123.14ZM540.411 1160.1L518.955 1122.83H561.71L583.166 1160.1L561.71 1197.37H518.955L540.411 1160.1Z" fill="#CCCCCC"/>
<path d="M965.382 554.747C965.653 554.59 966.081 554.706 966.488 554.472C967.71 553.769 968.25 552.195 967.47 550.837C966.689 549.479 965.193 549.075 963.835 549.855C962.477 550.636 963.156 550.246 963.04 550.673L928.043 530.326L928.129 487.105L892.918 466.699C893.227 465.98 893.244 465.067 892.776 464.252C892.074 463.03 890.499 462.49 889.141 463.271C887.783 464.051 887.515 465.47 888.139 466.556L852.972 486.769L817.975 466.422C818.284 465.702 818.301 464.789 817.833 463.974C817.365 463.16 816.567 462.715 815.79 462.62L815.882 421.924L778.2 400.049L740.725 421.588L703.549 399.964L703.584 359.482C703.855 359.326 704.283 359.441 704.69 359.207C705.912 358.505 706.316 357.008 705.692 355.922L740.995 335.631L741.06 292.06L705.849 271.655C706.158 270.936 706.175 270.023 705.707 269.208C705.005 267.986 703.43 267.446 702.072 268.226C700.714 269.007 700.446 270.425 701.07 271.512L665.767 291.803L665.682 335.024L630.515 355.237C629.89 354.15 628.258 353.824 627.172 354.449C626.085 355.073 626.493 354.839 626.377 355.267L591.166 334.861L555.864 355.152C555.239 354.066 553.607 353.74 552.521 354.364C551.434 354.989 551.842 354.755 551.726 355.182L516.729 334.835L516.757 291.827L551.924 271.615C552.548 272.701 554.181 273.027 555.267 272.403C556.353 271.778 557.029 270.125 556.249 268.768C555.468 267.41 554.983 267.508 554.206 267.413L554.24 226.931L591.715 205.391L591.807 164.695C592.079 164.539 592.506 164.655 592.914 164.421C594.136 163.718 594.54 162.221 593.916 161.135L629.218 140.844L629.31 100.148C629.582 99.9922 630.01 100.108 630.417 99.8735C631.639 99.1712 632.179 97.5964 631.399 96.2386C630.618 94.8808 629.121 94.4766 627.764 95.257C626.406 96.0374 627.085 95.6473 626.969 96.0749L591.758 75.6698L556.455 95.9607C555.831 94.8745 554.199 94.5483 553.112 95.1727C552.026 95.797 551.35 97.4498 552.131 98.8076C552.911 100.165 553.397 100.067 554.174 100.162L554.14 140.644L518.973 160.857C518.348 159.771 516.716 159.445 515.629 160.069C514.543 160.694 514.951 160.459 514.835 160.887L479.624 140.482L442.149 162.022L407.152 141.674C407.461 140.955 407.478 140.042 407.01 139.227C406.541 138.412 405.744 137.968 404.967 137.872L405.001 97.3902L440.168 77.1773C440.792 78.2636 442.425 78.5897 443.511 77.9654C444.597 77.3411 445.273 75.6882 444.493 74.3304C443.712 72.9726 443.227 73.071 442.45 72.9758L442.542 32.2798L404.938 10.5404L369.635 30.8313C369.011 29.745 367.378 29.4189 366.292 30.0433C365.206 30.6676 364.53 32.3205 365.311 33.6783C366.091 35.0361 366.576 34.9377 367.354 35.0329L367.319 75.515L332.152 95.7279C331.528 94.6417 329.896 94.3155 328.809 94.9399C327.723 95.5642 328.13 95.3301 328.015 95.7577L293.018 75.4104L293.052 34.9282C293.324 34.7721 293.751 34.8876 294.159 34.6535C295.381 33.9511 295.785 32.4543 295.161 31.3681L294.926 30.9608C294.302 29.8745 292.67 29.5484 291.583 30.1727C290.497 30.7971 290.904 30.5629 290.789 30.9906L290.382 31.2247C290.151 32.08 290.133 32.993 290.602 33.8077C291.07 34.6224 291.868 35.0672 292.645 35.1623L292.611 75.6445L257.443 95.8573C256.819 94.7711 255.187 94.445 254.1 95.0693C253.014 95.6936 253.421 95.4595 253.306 95.8872L218.309 75.5398L217.902 75.7739C217.824 75.6382 182.657 95.851 182.657 95.851C182.032 94.7648 180.4 94.4386 179.313 95.063C178.227 95.6873 177.551 97.3402 178.332 98.698C179.112 100.056 179.598 99.9574 180.375 100.053L180.341 140.535L142.865 162.074L142.773 202.77C142.502 202.926 142.074 202.811 141.667 203.045C140.445 203.747 139.905 205.322 140.685 206.68C141.466 208.038 142.962 208.442 144.32 207.662C145.678 206.881 144.999 207.271 145.115 206.844L180.325 227.249L218.072 205.553L218.164 164.857C218.436 164.701 218.864 164.817 219.271 164.582C220.493 163.88 220.897 162.383 220.273 161.297L255.44 141.084L290.437 161.432C290.128 162.151 290.111 163.064 290.579 163.879C291.281 165.101 292.856 165.641 294.214 164.86C295.572 164.08 295.84 162.661 295.216 161.575L330.383 141.362L367.559 162.986L367.531 205.993L330.055 227.533L329.963 268.229C329.692 268.385 329.264 268.27 328.857 268.504C327.635 269.206 327.095 270.781 327.875 272.139C328.656 273.496 330.153 273.901 331.51 273.12C332.868 272.34 332.189 272.73 332.305 272.302L367.516 292.707L402.818 272.417C403.443 273.503 405.075 273.829 406.162 273.205C407.248 272.58 407.924 270.927 407.143 269.57C406.363 268.212 405.877 268.31 405.1 268.215L405.134 227.733L440.301 207.52C440.926 208.606 442.558 208.932 443.644 208.308C444.731 207.684 444.323 207.918 444.439 207.49L479.436 227.838L479.402 268.32C479.13 268.476 478.702 268.36 478.295 268.594C477.073 269.297 476.669 270.794 477.293 271.88L441.99 292.171L441.925 335.742L477.136 356.147C476.827 356.866 476.81 357.779 477.278 358.594C477.746 359.408 478.544 359.853 479.321 359.948L479.287 400.431L441.811 421.97L441.719 462.666C441.448 462.822 441.02 462.707 440.613 462.941C439.391 463.643 438.851 465.218 439.631 466.576C440.412 467.934 441.909 468.338 443.266 467.557C444.624 466.777 443.945 467.167 444.061 466.74L479.058 487.087L478.972 530.308L514.183 550.713C513.874 551.433 513.857 552.346 514.325 553.16C515.027 554.382 516.602 554.922 517.96 554.142C519.318 553.362 519.586 551.943 518.962 550.857L554.265 530.566L554.33 486.995L519.119 466.59C519.428 465.87 519.445 464.957 518.977 464.143C518.509 463.328 517.711 462.883 516.934 462.788L516.968 422.306L554.172 400.922L589.169 421.27C588.86 421.989 588.843 422.902 589.311 423.717C589.779 424.532 590.577 424.976 591.354 425.071L591.262 465.767L626.473 486.173C626.164 486.892 626.147 487.805 626.615 488.62C627.318 489.842 628.892 490.382 630.25 489.601C631.608 488.821 631.876 487.402 631.252 486.316L666.419 466.103L703.809 487.785L739.112 467.494C739.736 468.58 741.369 468.906 742.455 468.282C743.541 467.658 743.134 467.892 743.249 467.464L778.246 487.811L778.161 531.033L813.371 551.438C813.062 552.157 813.045 553.07 813.514 553.885C814.216 555.107 815.791 555.647 817.149 554.866C818.506 554.086 818.775 552.667 818.15 551.581L853.317 531.368L888.314 551.716C888.005 552.435 887.988 553.348 888.457 554.163C888.925 554.978 889.722 555.422 890.5 555.517L890.408 596.213L928.089 618.089L965.836 596.393L965.928 555.697L965.382 554.747ZM367.411 34.819C367.683 34.6629 368.111 34.7785 368.518 34.5443C369.74 33.842 370.144 32.3452 369.52 31.2589L404.687 11.0461L441.863 32.67L441.829 73.1522C441.557 73.3082 441.129 73.1928 440.722 73.4269C439.5 74.1293 439.096 75.6261 439.72 76.7123L404.553 96.9251L399.69 94.1207L367.241 75.3792L367.276 34.8971L367.411 34.819ZM179.985 99.3737C180.256 99.2176 180.684 99.3331 181.091 99.099C182.313 98.3966 182.717 96.8998 182.093 95.8136L217.26 75.6007L249.786 94.478L252.257 95.9481C251.948 96.6676 251.931 97.5806 252.399 98.3953C252.868 99.21 253.665 99.6547 254.442 99.7499L254.354 118.767L254.272 140.31L219.105 160.523C218.481 159.437 216.848 159.111 215.762 159.735C214.676 160.359 215.083 160.125 214.968 160.553L179.971 140.205L180.005 99.7233L179.985 99.3737ZM216.939 164.297L216.905 204.779L179.701 226.163L144.704 205.815C145.013 205.096 145.03 204.183 144.562 203.368C144.094 202.553 143.296 202.109 142.519 202.013L142.553 161.531L179.757 140.148L214.754 160.495C214.445 161.215 214.428 162.128 214.896 162.942C215.364 163.757 216.162 164.202 216.939 164.297ZM294.164 160.373C293.539 159.287 291.907 158.961 290.821 159.585C289.734 160.21 290.142 159.975 290.026 160.403L255.029 140.056L255.111 118.513L255.199 99.4955C255.471 99.3394 255.898 99.4549 256.306 99.2208C257.528 98.5184 257.932 97.0216 257.308 95.9354L292.475 75.7225L327.472 96.0699C327.163 96.7894 327.146 97.7024 327.614 98.5171C328.082 99.3318 328.88 99.7766 329.657 99.8717L329.532 135.168L329.487 140.432L294.32 160.645L294.164 160.373ZM366.856 161.764L329.68 140.14L329.715 99.6579C329.986 99.5018 330.414 99.6173 330.821 99.3832C332.043 98.6808 332.447 97.184 331.823 96.0978L366.99 75.8849L404.166 97.5089L404.132 137.991C403.86 138.147 403.433 138.032 403.025 138.266C401.803 138.968 401.399 140.465 402.023 141.551L366.856 161.764ZM554.524 100.142C554.795 99.9859 555.223 100.101 555.63 99.8672C556.852 99.1648 557.256 97.6681 556.632 96.5818L591.799 76.369L626.796 96.7163C626.487 97.4358 626.47 98.3489 626.938 99.1636C627.406 99.9782 628.204 100.423 628.981 100.518L628.947 141L593.78 161.213C593.156 160.127 591.523 159.801 590.437 160.425C589.351 161.049 589.758 160.815 589.642 161.243L560.968 144.668L554.51 140.974L554.544 100.492L554.524 100.142ZM367.09 162.171L402.257 141.958C402.882 143.045 404.514 143.371 405.601 142.746C406.687 142.122 406.28 142.356 406.395 141.929L441.392 162.276L441.31 183.819L441.222 202.836C440.95 202.992 440.523 202.877 440.115 203.111C438.893 203.813 438.489 205.31 439.114 206.396L403.947 226.609L366.771 204.985L366.799 161.978L367.09 162.171ZM404.011 267.577C403.739 267.733 403.311 267.617 402.904 267.851C401.682 268.554 401.278 270.051 401.902 271.137L366.735 291.35L331.738 271.002C332.047 270.283 332.064 269.37 331.596 268.555C331.128 267.74 330.33 267.296 329.553 267.2L329.587 226.718L366.791 205.335L368.094 206.031L403.889 226.823L403.855 267.305L404.011 267.577ZM479.025 226.809L444.028 206.462C444.337 205.742 444.354 204.829 443.886 204.014C443.418 203.2 442.62 202.755 441.843 202.66L441.931 183.642L442.013 162.1L479.217 140.716L514.214 161.063C513.905 161.783 513.888 162.696 514.356 163.511C514.824 164.325 515.622 164.77 516.399 164.865L516.298 201.773L516.365 205.347L479.161 226.731L479.025 226.809ZM516.963 164.903C517.234 164.747 517.662 164.862 518.069 164.628C519.291 163.926 519.695 162.429 519.071 161.343L554.238 141.13L589.235 161.477C588.926 162.197 588.909 163.11 589.377 163.924C589.845 164.739 590.643 165.184 591.42 165.279L591.386 205.761L554.182 227.145L535.526 216.372L516.871 205.599L516.905 165.117L516.963 164.903ZM479.225 267.699L479.259 227.216L516.463 205.833L535.119 216.606L553.775 227.379L553.741 267.861C553.469 268.017 553.041 267.902 552.634 268.136C551.412 268.838 551.008 270.335 551.632 271.421L516.465 291.634L497.809 280.861L481.332 271.365C481.641 270.645 481.658 269.732 481.19 268.917C480.722 268.103 479.924 267.658 479.147 267.563L479.225 267.699ZM480.941 355.224C480.317 354.138 478.684 353.812 477.598 354.436C476.512 355.06 476.919 354.826 476.803 355.254L441.806 334.907L441.834 291.899L477.001 271.686C477.626 272.773 479.258 273.099 480.344 272.474C481.431 271.85 481.023 272.084 481.139 271.656L497.616 281.153L516.272 291.926L516.244 334.933L481.077 355.146L480.941 355.224ZM513.913 466.331C514.537 467.417 516.17 467.743 517.256 467.119C518.342 466.495 517.935 466.729 518.05 466.301L553.047 486.648L553.019 529.656L517.852 549.869C517.228 548.783 515.595 548.456 514.509 549.081C513.423 549.705 513.83 549.471 513.715 549.899L478.718 529.551L478.746 486.544L513.913 466.331ZM666.429 292.325L701.596 272.113C702.221 273.199 703.853 273.525 704.939 272.901C706.026 272.276 705.618 272.51 705.734 272.083L740.731 292.43L740.703 335.437L705.536 355.65C704.912 354.564 703.279 354.238 702.193 354.862C701.107 355.487 701.514 355.253 701.398 355.68L684.921 346.184L666.266 335.411L666.294 292.403L666.429 292.325ZM479.145 359.327C479.416 359.171 479.844 359.287 480.251 359.053C481.473 358.35 481.877 356.853 481.253 355.767L516.42 335.554L551.417 355.902C551.108 356.621 551.091 357.534 551.559 358.349C552.028 359.164 552.825 359.608 553.602 359.704L553.514 378.721L553.432 400.264L516.229 421.647L479.053 400.023L479.087 359.541L479.145 359.327ZM515.923 462.285C515.573 462.306 515.223 462.326 514.816 462.56C513.594 463.263 513.19 464.759 513.814 465.846L478.647 486.058L443.65 465.711C443.959 464.992 443.976 464.079 443.508 463.264C443.04 462.449 442.242 462.004 441.465 461.909L441.499 421.427L478.703 400.044L480.804 401.184L515.937 421.454L515.902 461.936L515.923 462.285ZM593.11 420.269C592.486 419.183 590.853 418.857 589.767 419.481C588.681 420.105 589.088 419.871 588.972 420.299L553.975 399.952L554.057 378.409L554.145 359.391C554.417 359.235 554.845 359.351 555.252 359.117C556.474 358.414 556.878 356.917 556.254 355.831L591.421 335.618L626.418 355.966C626.109 356.685 626.092 357.598 626.56 358.413C627.028 359.228 627.826 359.672 628.603 359.768L628.509 391.975L628.433 400.328L593.266 420.541L593.11 420.269ZM628.875 359.612C629.224 359.591 629.574 359.571 629.981 359.337C631.203 358.634 631.607 357.138 630.983 356.051L666.15 335.839L684.806 346.611L701.283 356.108C700.974 356.827 700.957 357.74 701.425 358.555C701.893 359.37 702.691 359.815 703.468 359.91L703.434 400.392L668.267 420.605C667.642 419.518 666.01 419.192 664.924 419.817C663.837 420.441 664.245 420.207 664.129 420.635L647.652 411.138L628.997 400.365L629.031 359.883L628.875 359.612ZM630.492 485.308C629.868 484.222 628.235 483.895 627.149 484.52C626.063 485.144 626.47 484.91 626.355 485.338L591.357 464.99L591.392 424.508C591.663 424.352 592.091 424.467 592.498 424.233C593.72 423.531 594.124 422.034 593.5 420.948L628.667 400.735L647.323 411.508L663.8 421.004C663.491 421.724 663.474 422.637 663.942 423.452C664.41 424.266 665.208 424.711 665.985 424.806L665.897 443.824L665.815 465.366L630.648 485.579L630.492 485.308ZM703.32 486.621L666.144 464.997L666.226 443.454L666.314 424.436C666.586 424.28 667.014 424.396 667.421 424.162C668.643 423.459 669.047 421.962 668.423 420.876L703.59 400.663L740.766 422.287L740.684 443.83L740.596 462.848C740.324 463.004 739.897 462.888 739.489 463.122C738.267 463.825 737.863 465.321 738.487 466.408L703.32 486.621ZM778.185 486.763L743.188 466.415C743.497 465.696 743.514 464.783 743.046 463.968C742.578 463.153 741.78 462.709 741.003 462.613L741.091 443.596L741.173 422.053L778.377 400.67L815.553 422.294L815.518 462.776C815.247 462.932 814.819 462.816 814.412 463.051C813.19 463.753 812.786 465.25 813.41 466.336L778.243 486.549L778.185 486.763ZM817.526 550.495C816.902 549.409 815.269 549.082 814.183 549.707C813.097 550.331 813.504 550.097 813.389 550.525L778.391 530.177L778.419 487.17L813.586 466.957C814.211 468.043 815.843 468.369 816.93 467.745C818.016 467.121 817.609 467.355 817.724 466.927L852.721 487.275L852.713 514.917L852.693 530.282L817.526 550.495ZM892.391 550.637C891.767 549.551 890.134 549.225 889.048 549.849C887.962 550.473 888.369 550.239 888.254 550.667L853.257 530.319L853.283 494.538L853.284 487.312L888.451 467.099C889.076 468.185 890.708 468.512 891.795 467.887C892.881 467.263 892.473 467.497 892.589 467.069L927.586 487.417L927.558 530.424L892.391 550.637ZM927.658 616.71L890.483 595.087L890.517 554.604C890.788 554.448 891.216 554.564 891.623 554.33C892.845 553.627 893.25 552.131 892.625 551.044L927.792 530.831L962.789 551.179C962.48 551.898 962.463 552.811 962.931 553.626C963.4 554.441 964.197 554.885 964.974 554.981L964.94 595.463L927.736 616.846L927.658 616.71Z" fill="#333333"/>
</g>
</svg>

