<?xml version="1.0" encoding="UTF-8"?>
<svg id="Layer_2" data-name="Layer 2" xmlns="http://www.w3.org/2000/svg" viewBox="0 0 42.24 66.98">
  <defs>
    <style>
      .cls-1 {
        fill: #1e1e1e;
      }
    </style>
  </defs>
  <g id="Layer_1-2" data-name="Layer 1">
    <g>
      <path class="cls-1" d="M42,42.48c-.24-.21-1.52-.55-2-.82-3.67-2.09-3.46-10.01-4.86-13.74-.25-.67-1.42-3.12-1.83-3.57-.24-.26-2.53-1.59-2.96-1.77-1.92-.82-4.45-.65-6.5-.97-.45-.07-1.82-.43-2.03-.79-.19-.33-.48-1.64-.57-2.09-.6-3.11-.47-6.53-1.07-9.73-.09-.5-.2-1.48-.31-1.85-.05-.16-.2-.32-.38-.28,0,0,.52,8.75.98,11.61.36,2.25,1.31,4.43,3.68,5.15.15.05.3.1.45.07,0-.05.03-.28-.02-.32-.58-.39-1.19-.64-1.73-1.1-.15-.12-.54-.33-.03-.3,1.32.67,2.92.47,4.32.66,4.61.64,6.48,2.62,7.81,6.97,1.71,5.64-.99,10.76.67,16.6.42,1.48,1.09,2.16,1.64,3.34.51,1.1.11,1.53.09,2.55-.04,2.94.06,5.87.16,8.79,0,.77-1.03,1.91-1.48.85l.23-.53s.02-.06.02-.09c0-.05,0-.1,0-.15,0-.03-.01-.06-.02-.08,0,0,0-.01,0-.02,0,0,0,0,0,0,0,0,0,0,0,0,0,0,0,0-.01,0-.01,0-.03,0-.04-.01-.02,0-.04,0-.06,0-.02,0-.03,0-.05.01l-.23.63c-.03.16-.06.32-.11.48-.03.09-.06.17-.13.23-.09.09-.23.1-.34.04-.18-.1-.18-.36-.08-.52,0,0,0,0,0,0,.06-.23.23-.55.39-.85,0,0,0-.01,0-.02,0-.01,0-.02,0-.04,0,0-.02,0-.02-.01,0,0,0,0-.01,0-.06.04-.1.08-.15.14-.09.1-.17.21-.25.32-.09.13-.16.28-.28.4-.17.16-.38.18-.57.03-.15-.12-.22-.31-.16-.49.06-.17.2-.3.34-.4.3-.22.64-.37.91-.64.17-.17.29-.36.41-.56.07-.11.14-.21.22-.31.06-.07.11-.13.11-.22,0-.05.02-.09.04-.12.29-2.54.1-6.93-.39-8.59-.64-2.16-2.83-4.06-3.62-6.18-1.02-2.76-1.02-5.35-1.3-8.17-.13-1.29-.83-3.48-2.57-2.44-.53.32-1.95,3.08-2.49,3.82-.62.84-1.55,1.69-2.23,2.5.46-1.26.91-2.42,1.14-3.76.18-1.05.39-2.56.1-3.55-.68,1.32-.53,3.02-.87,4.44-.3,1.26-1.42,3.21-1.48,4.3-.09,1.95.26,3.91.08,6.1-.37,4.72-.72,9.58-1.29,14.32-.11.92,0,2.72-.31,3.51-.18.47-.58.64-1.04.71-.02-.4.14-.99-.33-1.16-.18.59-.15,1.62-1,1.49-.06-.06.1-.91.16-1.08.16-.42.74-.41.42-.91-.45.48-1.2.92-.91,1.66-.9.13-.72-.75-.34-1.25.27-.35.59-.31.77-.48,2.61-2.38,1.64-10.94,1.4-14.3-.15-2.07-.28-7.91-1.76-9.37-.13-.13-1.41-1.03-1.23-.43l.66,1.08c-.91.02-2.04.05-2.87-.37-.45-.22-1.63-1.54-2.03-1.46-.8.16.98,1.82,1.25,1.92-.48.9-.93,1.81-1.01,2.89l1.08-2.32c.32-.35.3-.1.18.18-.24.53-.7,1-.59,1.65l1-1.74c.07.48-.28.9-.32,1.34-.51,4.99-.24,10.55-.86,15.41-.13,1.03-.89,4.68-1.33,5.48-.41.74-.78.45-1.47.6l.08-.83c-.58.66-1.64,1.9-.79-.19-.04-.11-.1-.09-.18-.02-.11.12-.68.94-.83.87-.13-.06-.25-.19-.27-.33-.04-.17.05-.31.16-.43.01-.01.02-.03.04-.04,0,0,0,0,0,0,0,0,0,0,0,0,.02-.03.05-.06.07-.09.04-.05.08-.1.12-.15.09-.1.2-.19.33-.25.15-.07.31-.08.47-.1.14-.02.25-.07.37-.14.01,0,.02,0,.03-.01.18-.15.43-.22.56-.41,2.65-3.57,1.04-13.7.66-18.06-.09-.97.15-2.24-.01-3.14-.12-.65-.94-1.89-1.2-2.62-1.16-3.28-.43-6.36.44-9.58.13-.48.3-.99.27-1.51.25.1.29.82.34,1.09.1.62.06,1.3.24,1.91.09.29.03.39.41.33l-.16-4.09c-.08-2.35.37-4.64.46-6.97.04-.92-.25-3.19-.25-3.31,0-.08-.01-.16-.02-.24-.03-.19-.07-.38-.07-.58,0-.24.06-.45.23-.62.18-.19,2.08-1.49,2.09-1.58,0,0,0-.01,0-.02l.35-.47-4.37,2.26-.41-.16,2.15-1.25c-.85-.07-1.03.03-1.51.32-2.73,1.67-4.51,2.92-7.95,1.92.66-1.01,2.05-1.9.92-3.16l-1.08-.24c1.67-1.84,4.3-3.37,4.15-6.23-.49.29-.78.03-.63-.54.27-1.04,2.95-3.12,4-3.47,1.97-.67,4.05.1,5.48-.33.31-.09.59-.76.95-1.04,2.08-1.62,6.36.2,7.24,2.54.25.67,1.14,3.28,1.21,3.94.08.68-.54.21-.57.19-1.03-.69-1.64-1.17-2.16-2.44-.37-.9-.18-1.93-.99-2.66-.15-.13-2.21-1.32-2.34-1.33-.35.24-1.81,1.15-1.9,1.42-.38,1.13,1.95-.7,2.21-.62-.11.53-1.37,1.18-1.54,1.37-.43.48,2.39-.72,2.39-.72l-1.8,1.73-.26.65c.9-.32,1.54-1.03,2.24-1.5.25-.17.78-.33.77-.19-.02.25-1.65,1.31-1.93,1.53-.25.2-.8.48-.75.82l3.05-1.43c-.51,1.03-2.32,1.43-2.71,2.42.14.13,2.62-1.1,2.74-1.49.14.83,2.51,3.23,3.15,3.25.88.03,1.15-.91,1.04-1.63-.17-1.11-1.2-4.04-1.89-4.93-1.57-2.03-5.69-3.1-7.79-1.34-.22.18-.31.55-.49.68-.35.26-3.39.22-3.93.05-.67-.21-.68-.59-.93-.73-2.31-1.3-4.04-.38-5.78,1.33-.9.89-1.19,2.09-1.31,2.35-.75,1.77-.62,2.93,1.56,2.14l.42,2.16c-1.24,1.64-2.86,2.92-4.37,4.32C.58,13.58-.02,13.6,0,14.59c.01.83.57.78.75.96.36.35.67.81,1.14,1.11,2.95,1.9,6.28.15,9.16-.97.17-.07.32.1.36.25.16.56.2,2.64.2,3.3-.02,2.67-.23,6.3-1.08,8.71-1.24,3.5-2.27,7.93-.88,11.5.23.6,1.23,2.07,1.29,2.37.17.89-.07,2.32,0,3.31.24,3.24.9,10.68.9,11.03,0,.42-.19,2.94-.37,3.75-.15.72-.99,2.89-1.3,2.77-.21.03-.5.06-.66.13-.71.31-1.55,1-1.07,1.83h-.01c.08.1.16.2.23.29.13.16.27.31.43.44.07.05.14.1.22.13.04.02.07.05.1.08.82.17,1.73-.03,2.57-.25.1-.05.2-.1.29-.16.07-.05.14-.1.21-.15,0,0,.02-.01.02-.02,0,0,0,0,.02-.02.03-.03.06-.06.09-.09.04-.04.08-.07.11-.12.02-.02.03-.05.04-.06-.03.04-.07.06,0,0,.05-.07.11-.15.16-.23.25-1.23.69-2.43.94-3.65,1.07-5.15.67-11.68,1.22-17.03.03-.3.29-1.57.48-1.7l2.63.13c.3,1.58.81,3.11,1.01,4.72.32,2.66.54,6.26.52,8.94-.01,1.98-.09,5.82-1.16,7.45-.18.27-.99.55-1.34,1.03-.15.2-.22.43-.28.66,0,.04,0,.09,0,.13,0,.03,0,.06,0,.09,0,0,0,.01,0,.02,0,.01,0,.05,0,.06,0,.03.01.06.02.1.01.05.03.1.05.16.01.04.03.07.04.11,0,0,0,.01.01.04.01.02.02.05.04.07.05.09.11.18.17.27,0,.01.02.03.04.05,0,0,.01.01.02.02.04.04.07.08.11.12.07.08.15.16.23.23.09.08.17.15.27.23.04.03.09.07.13.1.79.25,1.69.13,2.5-.25.34-.16.68-.56.83-.72.02-.04.04-.07.06-.11.03-.06.05-.11.08-.17.01-.03.02-.06.03-.09.02-.05.03-.11.05-.16,0-.02.01-.05.02-.07,0,0,0-.01,0-.03,0-.02,0-.03,0-.04,0-.02,0-.05,0-.07,0-.05,0-.11,0-.16,0-.11-.01-.22,0-.33,0-.13.01-.26.04-.38.06-1.13.63-4.42.68-5.03.1-1.16-.09-2.39,0-3.47.38-4.68,1.2-9.33,1-14.04l.82,2.91c.38.77.66,1.81,1.12,2.52.37.57,1.54,1.31,1.75,1.75.89,1.82.14,7.51-.88,9.3-.19.34-1.47.42-2.19,1.52,0,.03,0,.06-.02.1-.17.35-.2.77,0,1.11.08.14.21.28.36.36,1.5.26,3.12.64,4.01-.88.43-3.02,1.85-6.46,1.99-9.47.12-2.56-.45-2.14-1.28-4.03-1.32-2.98-.47-7.32.58-10.3.09-.27-.09-.44.37-.36.04,3.51.46,7.31,2.36,10.35,2.02,3.25,2.82,3,3.12,7.34.08,1.12.2,4.8-.29,5.69-.34.61-1.93.87-1.51,2.19.28.25.56.51.88.7.15.09.3.15.46.21.35.06.7.11,1.06.11.4-.03.83-.14,1.22-.33.12-.11.23-.23.34-.35h-.01c.71-1.84.32-6.59.32-6.89,0-1.79.5-5.09-.22-6.57-.26-.54-.86-1.01-1.12-1.53-1.1-2.17-1-5.99-.96-8.42l.99,2.74c1.01,1.57,2.4,2.73,4.4,2.39.59-.1,1.64-.79.92-1.4ZM6.3,1.81c.18-.12,1.36-.87,1.44-.9.66-.19,2.22.44,2.54,1.13-.47-.25-1.49.45-1.91.61-.05.05-.13.06-.21.01-.18-.12-.34-.29-.54-.39-.19-.1-.4-.03-.58.07-.4.22-.75.52-1.12.78-.68.65-1.38,1.27-1.95,2.07.37-1.38,1.16-2.59,2.33-3.39ZM5.24,5.88c-.04.15-.04.3-.19.38-.11.07-.26.11-.39.11-.04,0-.38.02-.53.03-.13,0-.43.04-.42-.16,0-.08.06-.14.11-.19.05-.05,1.43-1.53,1.57-1.67.14-.14.29-.27.43-.4.14-.13.28-.27.44-.39.22-.18.45-.34.71-.44.11-.04.22-.07.33-.09.09-.01.21-.02.28.05.15.14-.09.31-.19.39-.15.12-.31.22-.47.32-.02.01-.04.03-.06.04,0,0,0,0,0,0-.01.01-.03.02-.04.04-.03.02-.06.05-.09.07-.12.1-.25.2-.37.31-.24.21-.48.43-.67.69-.1.13-.17.27-.25.42-.08.16-.15.32-.2.5ZM29.09,36.32c-.22.61-.44,1.21-.68,1.81-.11.29-.22.58-.32.86-.32.97-.52,1.93-.51,3,0,1.32.23,2.64.59,3.91.18.64.37,1.29.6,1.91.24.64.62,1.23.78,1.9.32,1.34-.1,2.74-.45,4.03-.37,1.41-.78,2.81-.96,4.26-.11.92-.16,2.1-1.07,2.62-.25.14-.57.26-.86.18.04-.13.54-1.1.1-.97-.16.05-.18.39-.26.51,0,0,0,.01-.01.02-.02.05-.04.09-.07.14-.05.1-.1.19-.15.28-.08.14-.21.25-.38.21-.16-.04-.23-.19-.22-.35,0-.06.02-.1.06-.14,0,0,.48-.57.57-.91-.57-.43-1.05,1.09-1.29,1.35-.37-.53.14-1.21.55-1.54.44-.35,1.11-.31,1.5-.7.5-.5.69-1.58.87-2.24.23-.83.4-1.68.51-2.54.12-.89.18-1.78.22-2.67.04-.67.09-1.39-.13-2.04-.23-.7-.84-1.11-1.36-1.59-.6-.54-.98-1.21-1.28-1.96-.35-.88-.66-1.79-.88-2.71-.1-.41-.16-.81-.23-1.22-.07-.37-.28-.71-.24-1.1.04-.34.23-.68.41-.96.41-.62,1.07-1.02,1.54-1.59.87-1.07,1.37-1.95,1.87-3.03.14-.31.5-.53.83-.69.41-.19.67.22.69.59.02.46-.19.93-.35,1.35ZM38.9,42.59c-1.84-.96-3.12-4.33-2.71-6.34l1.13,3.6c.44.73.93,1.43,1.59,1.98.61.51,1.3.92,2.09,1.06-.32.56-1.67-.08-2.1-.31Z"/>
      <path class="cls-1" d="M12.57,6.73c.89,1.18.52,2.41-1.01,2.6-.91-.22-.59-3.34,1.01-2.6Z"/>
    </g>
  </g>
</svg>