<svg width="60" height="68" viewBox="0 0 60 68" fill="none" xmlns="http://www.w3.org/2000/svg">
<path d="M52.9091 31.5078C53.6027 32.5097 55.4524 33.2418 54.7202 34.5905C53.2559 33.7813 52.177 32.8565 52.9091 31.5078Z" fill="#2D2D2D"/>
<path d="M55.3374 38.0211C53.4878 37.6357 51.484 38.0596 49.7885 36.5953C46.2819 33.5511 50.4436 24.958 55.8769 26.7306C57.187 27.1545 59.1523 28.7729 60 30.4684C59.5761 32.7805 57.765 36.9807 55.3374 38.0211ZM52.64 36.8651C50.3665 34.7072 50.5977 31.9712 51.2913 29.1583C49.0949 31.5859 48.9022 35.2081 52.64 36.8651ZM59.0752 31.4703C58.8825 30.4684 57.765 30.9694 58.8825 30.1216C57.3797 28.1949 53.719 26.4609 52.1391 28.3491C52.7556 28.5032 53.0639 27.9252 53.2951 28.6573C51.3684 30.6611 51.2143 33.8209 53.1024 35.5934C53.9116 36.1714 54.2199 35.0925 55.0677 35.709C55.5301 35.8632 55.3759 36.1714 55.6842 36.3641C55.2218 36.9806 54.297 35.9787 53.9502 36.9806C56.5705 37.5586 57.9192 33.6667 59.0752 31.4703Z" fill="#2D2D2D"/>
<path d="M1.8535 34.277C4.08847 32.8127 7.01702 33.5448 9.86853 33.9687C14.9165 37.668 12.1035 45.7987 5.89956 45.8757C-0.843881 43.7178 -1.22922 39.2864 1.8535 34.277ZM1.31401 40.6736C2.4315 40.2883 1.15988 38.7469 1.69935 37.8606C0.543332 38.2845 1.31401 39.903 1.31401 40.6736ZM6.67024 35.3174C5.59129 33.5834 1.66083 36.0495 3.00952 37.9377C3.97287 36.2422 5.01328 34.855 6.67024 35.3174ZM7.5565 35.5101C7.44089 37.0129 5.16739 37.9762 6.97849 39.1708C7.94183 38.8625 8.44278 36.9743 9.67586 37.5523C9.9456 37.9377 9.5988 38.5157 9.48319 38.9781C10.1383 39.2479 10.909 39.0552 10.6007 39.903C12.065 38.6313 10.2539 35.8183 7.5565 35.5101ZM9.71439 39.7103C8.78957 39.6332 8.05744 40.2883 7.17116 40.5195C5.09032 39.8259 5.36008 38.5928 5.36008 37.3982C3.66458 38.0919 5.66832 39.5561 5.47565 40.5195C6.24633 40.9048 7.55652 40.3268 6.86291 41.5599C7.9804 41.5984 9.59879 40.4424 9.71439 39.7103ZM4.39673 41.714C4.28113 43.3325 6.82437 43.1783 7.86479 42.6774C7.44091 41.9838 5.66835 42.9086 4.39673 41.714Z" fill="#2D2D2D"/>
<path d="M38.0405 67.4392C36.1138 67.4006 33.9944 66.8226 32.1833 67.0538C28.4455 64.7418 27.8675 60.6187 31.0658 57.3433C33.0696 55.7249 35.767 56.457 38.2717 56.6111C41.3929 59.3856 42.3948 64.7418 38.0405 67.4392ZM38.5414 65.551C38.9653 65.6281 40.4296 63.817 39.4277 63.5858C38.6955 64.3179 39.235 64.7803 38.5414 65.551ZM37.9249 64.3179C37.1542 63.8941 36.6532 64.2794 35.9596 64.2023C36.2679 64.7032 36.1908 65.0886 35.3816 65.1271C35.8826 65.7822 38.002 65.8208 37.9249 64.3179ZM32.9925 66.2831C32.5687 65.3198 32.1063 64.395 30.4878 63.7399C30.6034 64.7418 31.6053 65.551 32.9925 66.2831ZM35.7284 64.0482C33.1852 63.3545 33.7632 61.4279 31.798 61.6205C32.376 61.8903 33.9944 65.3969 35.7284 64.0482ZM33.3779 58.5378C34.3412 59.3085 34.9192 58.8846 35.3816 58.0754C34.4953 57.5359 33.8403 57.6901 33.3779 58.5378ZM36.8845 58.9232C35.4202 59.4241 34.9963 60.2333 35.5743 61.582C34.9963 62.2756 34.9578 60.426 34.5339 61.6591C34.8422 61.7747 34.9578 61.9288 34.8807 62.16C35.5743 62.3912 36.1523 62.0829 36.7303 61.9288C37.6937 62.16 36.8844 62.8151 37.3083 63.1619C38.6185 63.7014 39.0809 61.5435 40.2755 61.6976C39.6589 60.8884 37.7707 60.8113 39.4277 59.7709C38.5029 58.5763 37.8478 57.8442 35.8826 57.2662C35.767 57.8442 36.6147 58.3066 36.8845 58.9232Z" fill="#2D2D2D"/>
<path d="M42.8918 11.7375C40.9651 9.92641 39.7705 5.37944 42.8532 1.94992C43.4312 1.29484 44.1248 0.331483 45.0496 0.0617452C46.1671 -0.28506 51.4463 0.909483 52.5638 1.64163C58.5365 5.61063 52.2555 20.4847 42.8918 11.7375ZM46.1671 0.98657C46.013 2.29673 46.7066 1.60311 47.8241 2.14259C43.8165 3.76102 42.2752 9.77228 46.9763 11.7375C43.1615 8.57772 46.2057 4.26193 48.903 1.48748C48.0168 1.52602 46.9378 0.7939 46.1671 0.98657ZM50.0205 2.45083C50.1746 3.87659 52.3711 3.64539 52.872 5.49503C53.0262 4.30047 51.6775 1.91136 50.0205 2.45083ZM51.0995 4.53168C49.481 4.57021 49.2113 7.19051 50.4059 7.84559C50.5215 6.3813 51.6389 5.88037 51.0995 4.53168ZM52.7179 9.04013C51.6389 8.61626 50.8683 9.50256 49.5966 8.57774C48.0938 7.49879 48.4021 4.99407 49.8278 3.83805C46.09 3.41417 48.8645 12.4697 52.7179 9.04013ZM50.5214 10.9283C47.5929 10.2347 46.3983 8.11534 46.9763 5.6877C45.3965 6.99785 45.7432 11.0825 48.5562 10.8127C49.0572 10.8513 49.3654 11.8531 48.7874 11.5448C48.8645 12.3541 50.2902 11.8917 50.5214 10.9283ZM52.4867 11.0825C51.0995 10.62 51.6775 12.3926 50.3288 12.3541C50.56 12.9706 52.1014 12.1614 52.4867 11.0825Z" fill="#2D2D2D"/>
</svg>
