<svg width="60" height="46" viewBox="0 0 60 46" fill="none" xmlns="http://www.w3.org/2000/svg">
<path d="M7.09089 31.5195C6.39728 32.5214 4.54764 33.2536 5.27979 34.6022C6.74408 33.793 7.82303 32.8682 7.09089 31.5195Z" fill="#2D2D2D"/>
<path d="M4.66262 38.0328C6.51225 37.6475 8.51601 38.0713 10.2115 36.607C13.7181 33.5628 9.55643 24.9698 4.12314 26.7423C2.81298 27.1662 0.847747 28.7847 0 30.4801C0.423874 32.7922 2.23498 36.9924 4.66262 38.0328ZM7.36 36.8768C9.63351 34.7189 9.4023 31.983 8.70869 29.17C10.9051 31.5976 11.0978 35.2198 7.36 36.8768ZM0.924825 31.482C1.11749 30.4801 2.23498 30.9811 1.11749 30.1333C2.62032 28.2066 6.28105 26.4726 7.86094 28.3608C7.2444 28.5149 6.93612 27.9369 6.70492 28.669C8.63162 30.6728 8.78575 33.8326 6.89759 35.6051C6.08838 36.1831 5.78009 35.1042 4.93234 35.7208C4.46994 35.8749 4.62408 36.1831 4.31581 36.3758C4.77822 36.9924 5.70303 35.9905 6.04984 36.9923C3.42953 37.5704 2.08084 33.6785 0.924825 31.482Z" fill="#2D2D2D"/>
<path d="M58.1465 34.2887C55.9116 32.8244 52.983 33.5566 50.1315 33.9804C45.0835 37.6797 47.8965 45.8104 54.1005 45.8874C60.8439 43.7295 61.2292 39.2981 58.1465 34.2887ZM58.686 40.6854C57.5685 40.3 58.8401 38.7586 58.3007 37.8724C59.4567 38.2962 58.686 39.9147 58.686 40.6854ZM53.3298 35.3291C54.4087 33.5951 58.3392 36.0612 56.9905 37.9494C56.0272 36.2539 54.9867 34.8667 53.3298 35.3291ZM52.4435 35.5218C52.5591 37.0246 54.8326 37.988 53.0215 39.1825C52.0582 38.8742 51.5572 36.9861 50.3242 37.5641C50.0544 37.9494 50.4012 38.5274 50.5168 38.9898C49.8617 39.2596 49.0911 39.0669 49.3993 39.9147C47.935 38.6431 49.7461 35.8301 52.4435 35.5218ZM50.2856 39.722C51.2104 39.6449 51.9426 40.3 52.8289 40.5312C54.9097 39.8376 54.6399 38.6045 54.6399 37.41C56.3354 38.1036 54.3317 39.5679 54.5244 40.5312C53.7537 40.9165 52.4435 40.3385 53.1371 41.5716C52.0196 41.6101 50.4012 40.4541 50.2856 39.722ZM55.6033 41.7257C55.7189 43.3442 53.1757 43.19 52.1352 42.6891C52.5591 41.9955 54.3317 42.9203 55.6033 41.7257Z" fill="#2D2D2D"/>
<path d="M31.2525 19.7517C33.1792 19.7131 35.2986 19.1351 37.1097 19.3663C40.8474 17.0543 41.4255 12.9312 38.2271 9.65579C36.2234 8.03736 33.526 8.7695 31.0213 8.92363C27.9001 11.6981 26.8982 17.0543 31.2525 19.7517ZM30.7515 17.8635C30.3277 17.9406 28.8634 16.1295 29.8653 15.8983C30.5974 16.6304 30.0579 17.0928 30.7515 17.8635ZM31.3681 16.6304C32.1388 16.2066 32.6397 16.5919 33.3334 16.5148C33.0251 17.0157 33.1021 17.4011 33.9114 17.4396C33.4104 18.0947 31.291 18.1333 31.3681 16.6304ZM36.3004 18.5956C36.7243 17.6323 37.1867 16.7075 38.8052 16.0524C38.6896 17.0543 37.6877 17.8635 36.3004 18.5956ZM33.5645 16.3607C36.1078 15.667 35.5298 13.7404 37.495 13.933C36.917 14.2028 35.2986 17.7094 33.5645 16.3607ZM35.9151 10.8503C34.9518 11.621 34.3738 11.1971 33.9114 10.3879C34.7976 9.84842 35.4527 10.0026 35.9151 10.8503ZM32.4085 11.2357C33.8728 11.7366 34.2967 12.5458 33.7187 13.8945C34.2967 14.5881 34.3352 12.7385 34.7591 13.9716C34.4508 14.0872 34.3352 14.2413 34.4123 14.4725C33.7187 14.7037 33.1407 14.3954 32.5627 14.2413C31.5993 14.4725 32.4085 15.1276 31.9847 15.4744C30.6745 16.0139 30.2121 13.856 29.0175 14.0101C29.6341 13.2009 31.5223 13.1238 29.8653 12.0834C30.7901 10.8888 31.4452 10.1567 33.4104 9.57869C33.526 10.1567 32.6783 10.6191 32.4085 11.2357Z" fill="#2D2D2D"/>
<path d="M17.1083 11.7375C19.035 9.92641 20.2296 5.37944 17.1468 1.94992C16.5688 1.29484 15.8752 0.331483 14.9504 0.0617452C13.8329 -0.28506 8.55374 0.909483 7.43625 1.64163C1.46349 5.61063 7.74451 20.4847 17.1083 11.7375ZM13.8329 0.98657C13.987 2.29673 13.2934 1.60311 12.1759 2.14259C16.1835 3.76102 17.7248 9.77228 13.0237 11.7375C16.8385 8.57772 13.7944 4.26193 11.097 1.48748C11.9833 1.52602 13.0622 0.7939 13.8329 0.98657ZM9.97951 2.45083C9.82537 3.87659 7.62893 3.64539 7.12798 5.49503C6.97385 4.30047 8.32255 1.91136 9.97951 2.45083ZM8.90056 4.53168C10.519 4.57021 10.7887 7.19051 9.59417 7.84559C9.47857 6.3813 8.36108 5.88037 8.90056 4.53168ZM7.28213 9.04013C8.36108 8.61626 9.13175 9.50256 10.4034 8.57774C11.9062 7.49879 11.5979 4.99407 10.1722 3.83805C13.91 3.41417 11.1355 12.4697 7.28213 9.04013ZM9.47857 10.9283C12.4072 10.2347 13.6017 8.11534 13.0237 5.6877C14.6036 6.99785 14.2568 11.0825 11.4438 10.8127C10.9429 10.8513 10.6346 11.8531 11.2126 11.5448C11.1355 12.3541 9.70977 11.8917 9.47857 10.9283ZM7.51332 11.0825C8.90055 10.62 8.32255 12.3926 9.67124 12.3541C9.44004 12.9706 7.89866 12.1614 7.51332 11.0825Z" fill="#2D2D2D"/>
</svg>
