<svg width="439" height="1164" viewBox="0 0 439 1164" fill="none" xmlns="http://www.w3.org/2000/svg">
<g opacity="0.1">
<path d="M-145.327 1125.58L-123.715 1088.15L-145.327 1050.72L-123.715 1013.13H-80.4902L-59.0346 975.859L-80.6468 938.429L-59.0346 900.842L-15.8101 900.842L5.64548 863.569L-15.8101 826.296H-59.0346L-80.8033 788.553L-59.1911 750.966H-15.9667H27.5709L49.0265 788.24L70.4821 751.123H113.707L135.162 713.85L113.707 676.576H70.4821L48.8699 639.147H5.64548L-15.9667 601.717H-59.1911L-80.96 563.974L-59.3478 526.387H-16.1233H27.4143L48.8699 563.66L70.3255 526.544H113.55L135.006 489.27L113.55 451.997H70.3255L48.5567 414.254L70.1689 376.668H113.393H156.931L178.387 413.941L199.686 376.981L178.23 339.708V339.238H178.387L221.298 339.238L221.768 339.394L243.067 376.354L264.366 339.394H264.836C264.836 339.238 308.06 339.238 308.06 339.238H351.284L372.897 376.668H416.121L437.89 414.411L416.121 452.154H329.359L307.903 414.881L286.448 452.154H243.223L221.768 489.427L243.223 526.7H286.448L308.217 564.443L286.448 602.03H199.686L178.23 564.757L156.931 601.717L178.387 638.99H221.611L243.38 676.733L221.768 714.163L243.223 751.436H286.448L308.217 789.179L286.604 826.609L308.217 864.039L286.448 901.782H199.686L178.23 864.509L156.774 901.625H113.55L91.9378 938.899H48.7133L27.2578 976.172L48.8699 1013.6L27.2578 1051.19H-15.9667L-37.4224 1088.46L-15.8101 1125.89L-37.4224 1163.48H-80.6468H-124.184L-145.953 1125.73L-145.327 1125.58ZM-144.857 1050.72L-123.401 1087.99H-80.6468L-102.102 1050.72L-80.6468 1013.45H-123.401L-144.857 1050.72ZM-15.8101 1050.41L-24.2671 1035.84L-37.2657 1013.45L-80.0203 1013.45L-73.1295 1025.5L-58.7213 1050.41H-15.9667H-15.8101ZM-29.7484 1025.5L-15.4969 1050.25L5.80212 1013.29L-15.4969 976.328L-36.7959 1013.29L-29.7484 1025.5ZM-67.4915 1035.84L-80.3336 1013.76L-101.633 1050.72L-80.3336 1087.68L-59.0346 1050.72L-67.6481 1035.84H-67.4915ZM-79.8637 1012.98L-37.1091 1012.98L-15.8101 976.015L-58.5648 976.015L-79.8637 1012.98ZM-80.0203 938.272L-58.5648 975.545L-15.8101 975.545L-37.2657 938.272L-15.8101 900.999L-58.5648 900.999L-80.0203 938.272ZM71.1086 900.686H113.863L103.214 882.362L92.4076 863.726H49.653L70.952 900.686H71.1086ZM113.863 825.826L108.382 816.429L92.4076 788.866H49.653L70.952 825.826H113.707H113.863ZM114.646 751.436L125.296 769.76L136.102 788.396H178.856L168.207 770.073L157.401 751.436H114.646ZM65.1574 816.429L49.3398 789.023L28.0408 825.983L49.3398 862.943L70.6388 825.983L65.1574 816.429ZM27.7276 825.826L49.0265 788.866H6.27194L-15.027 825.826H27.7276ZM5.95871 788.553L-15.3403 751.593L-36.6393 788.553L-15.3403 825.513L5.95871 788.553ZM114.333 825.513L135.632 788.553L124.826 769.916L114.176 751.593L92.8774 788.553L114.176 825.513H114.333ZM114.646 825.826H157.401L178.7 788.866H135.945L114.646 825.826ZM168.52 769.76L179.17 788.083L200.469 751.123L179.17 714.163L157.871 751.123L168.677 769.76H168.52ZM200.782 751.436L179.483 788.396H222.238L243.537 751.436H200.782ZM222.551 788.553L243.85 825.513L265.149 788.553L243.85 751.593L222.551 788.553ZM222.238 788.866H179.483L200.782 825.826H243.537L222.238 788.866ZM179.17 789.023L157.871 825.983L179.17 862.943L200.469 825.983L179.17 789.023ZM71.1086 826.296L49.8096 863.256H92.5642L113.863 826.296H71.1086ZM92.8774 863.413L114.176 900.372L135.475 863.413L114.176 826.453L92.8774 863.413ZM59.9892 882.362L49.3398 864.039L28.0408 900.999L38.8468 919.636L49.4964 937.959L70.7954 900.999L59.9892 882.362ZM49.0265 938.116L27.7276 901.156H-15.027L-4.37753 919.479L6.42853 938.116H49.1831H49.0265ZM-15.4969 901.312L-36.7959 938.272L-15.4969 975.232L5.80212 938.272L-15.4969 901.312ZM-15.027 900.686H27.7276L49.0265 863.726H6.27194L-15.027 900.686ZM6.27194 863.256H49.0265L27.7276 826.296H-15.027L6.27194 863.256ZM-80.0203 788.553L-58.5648 825.826H-15.8101L-37.2657 788.553L-15.8101 751.28H-58.5648L-80.0203 788.553ZM-15.027 751.436L6.27194 788.396H49.0265L27.7276 751.436H-15.027ZM49.8096 788.396H92.5642L113.863 751.436H71.1086L49.8096 788.396ZM114.646 750.966H157.401L178.7 714.006H135.945L114.646 750.966ZM178.7 563.66L168.05 545.337L157.244 526.7H114.49L135.789 563.66H178.543H178.7ZM179.17 563.504L200.469 526.544L179.17 489.584L157.871 526.544L179.17 563.504ZM200.782 526.7L179.483 563.66H222.238L243.537 526.7H200.782ZM222.551 563.974L243.85 600.934L265.149 563.974L243.85 527.014L222.551 563.974ZM124.826 545.337L114.176 527.014L92.8774 563.974L114.176 600.934L135.475 563.974L124.669 545.337H124.826ZM49.3398 638.363L70.6388 601.404L67.8197 596.392L49.3398 564.287L42.4489 576.033L27.8842 601.247L49.1831 638.207L49.3398 638.363ZM27.7276 601.247L45.2679 570.864L49.0265 564.287H6.27194L-0.618958 576.346L-15.027 601.247H27.7276ZM1.88687 570.864L5.80212 563.974L-15.4969 527.014L-36.7959 563.974L-15.4969 600.934L1.88687 570.864ZM111.201 596.392L92.5642 564.13H49.8096L71.1086 601.09H113.863L111.201 596.392ZM71.1086 601.56L49.8096 638.52H92.5642L113.863 601.56H71.1086ZM92.8774 638.833L114.176 675.793L135.475 638.833L114.176 601.873L92.8774 638.833ZM135.945 639.147L114.646 676.107H157.401L178.7 639.147H135.945ZM157.714 676.263L179.013 713.223L200.312 676.263L179.013 639.303L157.714 676.263ZM135.945 713.536H178.7L157.401 676.576H114.646L135.945 713.536ZM71.1086 676.107H113.863L92.5642 639.147H49.8096L71.1086 676.107ZM6.27194 638.677H49.0265L27.7276 601.717H-15.027L6.27194 638.677ZM-80.0203 563.974L-58.5648 601.247H-15.8101L-37.2657 563.974L-15.8101 526.7H-58.5648L-80.0203 563.974ZM-15.027 526.7L6.27194 563.66H49.0265L27.7276 526.7H-15.027ZM49.8096 563.66H92.5642L113.863 526.7H71.1086L49.8096 563.66ZM114.646 526.231H157.401L178.7 489.27H135.945L114.646 526.231ZM135.945 488.801H178.7L157.401 451.841L114.646 451.841L135.945 488.801ZM254.969 395.304L265.775 413.941H308.53L297.88 395.618L287.074 376.981H244.32L254.969 395.304ZM298.193 395.304L308.843 413.628L330.142 376.668L308.843 339.708L290.206 371.969L287.544 376.668L298.35 395.304H298.193ZM330.612 376.981L327.949 381.679L309.313 413.941H352.067L373.366 376.981H330.612ZM371.017 381.679L352.224 414.254L373.523 451.214L394.822 414.254L373.523 377.294L371.017 381.679ZM254.499 395.618L243.85 377.294L222.551 414.254L243.85 451.214L265.149 414.254L254.343 395.618H254.499ZM243.537 451.371L239.935 445.263L222.081 414.411H179.326L200.625 451.371H243.38H243.537ZM135.632 414.254L114.333 377.294L93.034 414.254L114.333 451.214L135.632 414.254ZM114.646 451.371L157.401 451.371L178.7 414.411H135.945L114.646 451.371ZM196.71 445.263L179.013 414.724L157.714 451.684L179.013 488.644L200.312 451.684L196.553 445.263H196.71ZM49.653 414.254L71.1086 451.527H113.863L92.4076 414.254L113.863 376.981H71.1086L49.653 414.254ZM114.646 376.981L135.945 413.941H178.7L157.401 376.981H114.646ZM179.483 413.941H222.238L243.537 376.981H200.782L179.483 413.941ZM179.483 339.551L200.782 376.511H243.537L222.238 339.551L179.483 339.551ZM246.825 372.126L244.32 376.511H287.074L308.373 339.551H265.619L246.825 372.126ZM351.911 339.551H309.156L330.455 376.511H373.21L351.911 339.551ZM416.748 451.371L438.203 414.098L416.748 376.824H373.993L395.449 414.098L373.993 451.371H416.748ZM373.21 451.371L351.911 414.411H309.156L330.455 451.371H373.21ZM308.373 414.411H265.619L244.32 451.371H287.074L308.373 414.411ZM243.537 451.841H200.782L179.483 488.801H222.238L243.537 451.841ZM222.238 489.27H179.483L200.782 526.231H243.537L222.238 489.27ZM287.074 601.247L308.53 563.974L287.074 526.7H244.32L265.775 563.974L244.32 601.247H287.074ZM243.537 601.247L222.238 564.287H179.483L200.782 601.247H243.537ZM178.7 564.13H135.945L114.646 601.09H157.401L178.7 564.13ZM157.401 601.56H114.646L135.945 638.52H178.7L157.401 601.56ZM243.693 676.263L222.238 638.99H179.483L200.938 676.263L179.483 713.536H222.238L243.693 676.263ZM222.238 714.006H179.483L200.782 750.966H243.537L222.238 714.006ZM308.53 788.553L287.074 751.28H244.32L265.775 788.553L244.32 825.826H287.074L308.53 788.553ZM287.074 900.686L308.53 863.413L287.074 826.139H244.32L265.775 863.413L244.32 900.686H287.074ZM244.006 826.453L222.707 863.413L244.006 900.372L265.305 863.413L244.006 826.453ZM200.782 900.686H243.537L222.081 863.413L243.537 826.139H200.782L179.326 863.413L200.782 900.686ZM178.856 863.413L157.401 826.139H114.646L136.102 863.413L114.646 900.686H157.401L178.856 863.413ZM113.863 901.156H71.1086L49.8096 938.116H92.5642L113.863 901.156ZM49.0265 938.585H6.27194L-15.027 975.545H27.7276L49.0265 938.585ZM49.1831 1013.29L27.7276 976.015H-15.027L6.42853 1013.29L-15.027 1050.56H27.7276L49.1831 1013.29ZM-15.8101 1050.88H-58.5648L-79.8637 1087.84H-37.1091L-15.8101 1050.88ZM-15.6535 1125.58L-37.1091 1088.3H-79.8637L-58.4081 1125.58L-79.8637 1162.85H-37.1091L-15.6535 1125.58ZM-80.3336 1088.62L-101.633 1125.58L-80.3336 1162.54L-59.0346 1125.58L-80.3336 1088.62ZM-102.102 1125.58L-80.6468 1088.3H-123.401L-144.857 1125.58L-123.401 1162.85H-80.6468L-102.102 1125.58Z" fill="#CCCCCC"/>
<path d="M-318.232 451.366H-275.007L-253.395 413.936H-210.17L-188.715 376.663L-210.327 339.233L-188.558 301.49H-145.021L-123.408 338.92H-80.4972L-58.8849 301.49H-15.6604L5.7952 264.217L-15.6604 226.944H-58.8849L-80.4972 189.514H-123.722L-145.334 152.084H-188.558L-210.327 114.341L-188.558 76.5979H-145.021L-123.408 114.028H-80.4972L-58.8849 76.5979H-15.6604L5.7952 39.3246L-15.6604 2.05138V1.58154H-15.1906C-15.1906 1.73815 6.26501 39.0114 6.26501 39.0114L49.1762 39.0114L70.6318 1.73816H71.1017C71.1017 1.58155 114.013 1.58154 114.013 1.58154L114.326 2.05138L71.1017 2.05138L49.6461 39.3246L71.1017 76.5979H114.326L136.095 114.341L114.326 152.084H70.7885L49.1762 114.654L6.26501 114.654L-15.1906 151.927L6.26501 189.201H49.4895L71.1017 226.631H114.326L136.095 264.374L114.326 302.117L71.1017 302.117L49.4895 339.547H6.26501L-15.1906 376.82L6.26501 414.093H49.4895L71.1017 451.523L114.326 451.523L135.782 488.796L157.237 451.523H200.462L222.074 414.093H265.298L286.754 376.82L265.142 339.39L286.911 301.647H330.448L352.061 339.077V339.547L332.484 373.374L330.605 376.663L352.061 413.936V414.406L330.448 451.836H287.224L265.768 489.109L287.381 526.539L265.612 564.282H222.074L200.462 526.853H157.237L135.782 489.579L114.326 526.853H71.1017L49.4895 564.282H6.26501L-15.1906 601.556L6.42157 638.986L-15.3472 676.729H-58.5717L-80.0273 714.002L-58.5717 751.275H-15.3472L6.42157 789.018L-15.3472 826.761H-58.8849L-80.4972 789.331H-123.722L-145.49 751.588L-123.878 714.158L-145.49 676.729L-123.722 638.986H-80.4972L-59.0415 601.712L-80.6537 564.282L-58.8849 526.539H-15.6604L5.7952 489.266L-15.6604 451.993H-58.8849L-80.4972 414.563H-123.408L-145.021 451.993H-188.245L-209.701 489.266L-188.088 526.696L-209.857 564.439H-253.395L-275.007 527.009H-318.232L-340 489.266L-318.232 451.523V451.366ZM351.747 339.39L330.292 302.117H287.381L265.925 339.39L287.381 376.663H330.292L351.747 339.39ZM330.292 451.523L351.747 414.25L332.954 381.675L330.292 376.976H287.381L265.925 414.25L287.381 451.523H330.292ZM286.911 451.68L269.684 421.767L265.455 414.406H222.544L201.088 451.68L211.894 470.316L222.7 488.953H265.612L287.067 451.68H286.911ZM222.387 563.813H265.298L286.754 526.539L265.298 489.266H222.387L219.725 493.964L200.932 526.539L222.387 563.813ZM157.551 526.383H200.462L221.917 489.109L211.111 470.473L200.305 451.836H157.394L135.938 489.109L157.394 526.383H157.551ZM-145.334 302.117H-188.245L-209.701 339.39L-188.245 376.663H-145.334L-123.878 339.39L-145.334 302.117ZM-145.334 77.5375H-188.245L-209.701 114.811L-188.245 152.084H-145.334L-134.528 133.447L-123.722 114.811L-145.177 77.5375H-145.334ZM-123.408 114.967L-134.214 133.604L-145.021 152.241L-123.565 189.514H-80.6537L-63.5832 159.915L-59.1981 152.241L-80.6537 114.967H-123.565H-123.408ZM71.1017 151.927H114.013L135.469 114.654L114.013 77.381H71.1017L66.8732 84.8982L49.6461 114.654L71.1017 151.927ZM49.3328 114.498L70.7885 77.2243L49.3328 39.9511L6.42157 39.9511L-15.034 77.2243L6.42157 114.498L49.3328 114.498ZM5.95175 114.654L-11.2754 84.8982L-15.5039 77.381H-58.415L-79.8707 114.654L-69.0645 133.291L-58.2585 151.927H-15.3472L6.10843 114.654H5.95175ZM-15.5039 152.397H-58.415L-79.8707 189.671L-58.415 226.944H-15.5039L-4.69772 208.307L6.10843 189.671L-15.3472 152.397H-15.5039ZM49.3328 189.827H6.42157L-4.38449 208.464L-15.1906 227.1L6.26501 264.374H49.1762L53.4047 256.856L70.6318 227.1L49.1762 189.827H49.3328ZM114.169 301.647L135.625 264.374L114.169 227.1H71.2583L49.8026 264.374L60.6088 283.01L71.4149 301.647L114.326 301.647H114.169ZM49.3328 339.077L70.7885 301.803L59.9823 283.167L49.1762 264.53H6.26501L-15.1906 301.803L-4.38449 320.44L6.42157 339.077H49.3328ZM5.95175 339.39L-4.85428 320.753L-15.6604 302.117H-58.5717L-80.0273 339.39L-58.5717 376.663H-15.6604L5.7952 339.39H5.95175ZM114.169 526.226L135.625 488.953L114.169 451.68L71.2583 451.68L60.4522 470.316L49.6461 488.953L71.1017 526.226H114.013H114.169ZM-58.5717 825.822H-15.6604L5.7952 788.548L-15.6604 751.275H-58.5717L-69.3777 769.912L-80.1839 788.548L-58.7283 825.822H-58.5717ZM-144.864 751.118L-123.408 788.392H-80.4972L-69.691 769.755L-58.8849 751.118L-80.3405 713.845H-123.252L-144.707 751.118H-144.864ZM-123.408 639.142L-144.864 676.415L-123.408 713.689H-80.4972L-59.0415 676.415L-69.8476 657.779L-80.6537 639.142H-123.565H-123.408ZM-80.0273 638.829L-58.5717 676.102H-15.6604L5.7952 638.829L-15.6604 601.556H-58.5717L-80.0273 638.829ZM-58.5717 526.696L-80.0273 563.969L-58.5717 601.242H-15.6604L5.7952 563.969L-8.14316 540.008L-15.817 526.853H-58.7283L-58.5717 526.696ZM-15.1906 526.539L2.97623 558.018L6.26501 563.813H49.1762L70.6318 526.539L51.0556 492.711L49.1762 489.423H6.26501L-15.1906 526.696V526.539ZM6.26501 488.796H49.1762L59.9823 470.16L70.7885 451.523L49.3328 414.25H6.42157L-4.38449 432.886L-15.1906 451.523L6.26501 488.796ZM-58.5717 451.366H-15.6604L5.7952 414.093L-15.6604 376.82H-58.5717L-61.3907 381.518L-80.1839 413.936L-58.7283 451.21L-58.5717 451.366ZM-80.4972 413.936L-59.0415 376.663L-80.4972 339.39H-123.408L-142.985 373.218L-144.864 376.507L-123.408 413.78H-80.4972V413.936ZM-145.334 451.366L-123.878 414.093L-142.671 381.518L-145.334 376.82H-188.245L-209.701 414.093L-188.245 451.366H-145.334ZM-188.558 451.68L-205.785 421.767L-210.014 414.406H-252.925L-274.381 451.68L-263.575 470.316L-252.768 488.953H-209.857L-188.402 451.68H-188.558ZM-253.082 563.813H-210.17L-188.715 526.539L-210.17 489.266H-253.082L-255.744 493.964L-274.537 526.539L-253.082 563.813ZM-317.918 526.226H-275.007L-253.552 488.953L-264.358 470.316L-275.164 451.68H-318.075L-339.531 488.953L-318.075 526.226H-317.918Z" fill="#818181"/>
<path d="M-252.133 790.906C-252.446 790.906 -252.759 791.219 -253.229 791.219C-254.638 791.219 -255.891 790.123 -255.891 788.557C-255.891 786.991 -254.795 785.894 -253.229 785.894C-251.663 785.894 -252.446 785.894 -252.133 786.207L-231.93 751.127L-253.542 713.697L-233.183 678.46C-233.809 677.99 -234.279 677.207 -234.279 676.267C-234.279 674.858 -233.183 673.605 -231.617 673.605C-230.051 673.605 -229.111 674.701 -229.111 675.954L-188.549 675.954L-168.346 640.873C-168.973 640.403 -169.442 639.62 -169.442 638.681C-169.442 637.741 -168.973 636.958 -168.346 636.488L-188.705 601.251L-166.937 563.508H-123.712L-102.257 526.234L-122.459 491.154C-122.773 491.154 -123.086 491.467 -123.556 491.467C-124.965 491.467 -126.061 490.371 -126.061 489.118H-166.78L-188.549 451.375L-168.19 416.137C-168.816 415.667 -169.286 414.884 -169.286 413.945C-169.286 412.535 -168.19 411.282 -166.623 411.282C-165.057 411.282 -164.118 412.379 -164.118 413.632H-123.399L-101.787 451.061H-61.2246C-61.2246 449.809 -59.9718 448.712 -58.7189 448.712C-57.466 448.712 -57.9359 448.712 -57.6226 449.025L-37.2633 413.788H3.45538C3.45538 412.535 4.70825 411.439 5.96112 411.439C7.21399 411.439 6.7442 411.439 7.0574 411.752L27.2602 376.672L5.80453 339.398H-34.7576C-34.7576 340.651 -36.0104 341.747 -37.2633 341.747C-38.5162 341.747 -39.9257 340.651 -39.9257 339.085C-39.9257 337.519 -39.4558 337.362 -38.8294 336.892L-59.0322 301.812H-102.257L-122.616 266.574C-122.929 266.574 -123.242 266.888 -123.712 266.888C-125.122 266.888 -126.218 265.791 -126.218 264.539H-166.937L-187.296 229.301C-187.609 229.301 -187.922 229.614 -188.392 229.614C-189.802 229.614 -191.055 228.518 -191.055 226.952C-191.055 225.386 -189.958 224.29 -188.392 224.29C-186.826 224.29 -187.609 224.29 -187.296 224.603L-166.937 189.366H-126.218C-126.218 188.113 -124.965 187.016 -123.712 187.016C-122.459 187.016 -121.05 188.113 -121.05 189.679C-121.05 191.245 -121.52 191.401 -122.146 191.871L-101.943 226.952L-61.3813 226.952C-61.3813 225.699 -60.1284 224.603 -58.8755 224.603C-57.6226 224.603 -58.0925 224.603 -57.7793 224.916L-37.42 189.679H5.80453L26.0072 154.598C25.3808 154.128 24.911 153.345 24.911 152.406C24.911 151.466 25.3808 150.683 26.0072 150.213L5.80453 115.132L-34.7576 115.132C-34.7576 116.385 -36.0104 117.481 -37.2633 117.481C-38.5162 117.481 -39.9257 116.385 -39.9257 114.819C-39.9257 113.253 -39.4558 113.096 -38.8294 112.627L-59.1887 77.3892L-37.42 39.8027H3.29874C3.29874 38.5498 4.55167 37.4536 5.80453 37.4536C7.05743 37.4536 8.46695 38.5498 8.46695 40.1159C8.46695 41.682 7.9971 41.8386 7.37064 42.3085L27.5733 77.3892H68.1354C68.1354 76.1363 69.3883 75.04 70.6412 75.04C71.8941 75.04 71.4242 75.04 71.7375 75.3533L91.9402 40.2725L71.7375 5.19183C71.4242 5.19183 71.111 5.50505 70.6412 5.50505C69.2317 5.50505 68.1354 4.40877 68.1354 3.15589V2.68607C68.1354 1.43319 69.3883 0.336914 70.6412 0.336914C71.8941 0.336914 71.4242 0.336909 71.7375 0.65013L72.2073 0.65013C72.8338 1.27657 73.3036 2.05962 73.3036 2.99928C73.3036 3.93895 72.8338 4.722 72.2073 5.19183L92.41 40.2725H132.972C132.972 39.0197 134.225 37.9234 135.478 37.9234C136.731 37.9234 136.261 37.9234 136.574 38.2366L156.777 3.15589H157.247C157.247 2.99928 197.809 2.99928 197.809 2.99928C197.809 1.7464 199.062 0.65013 200.315 0.65013C201.567 0.65013 202.977 1.74641 202.977 3.31251C202.977 4.87862 202.507 5.03522 201.881 5.50505L222.083 40.5858L265.308 40.5858L285.667 75.8231C285.98 75.8231 286.294 75.5098 286.763 75.5098C288.173 75.5098 289.426 76.6061 289.426 78.1722C289.426 79.7383 288.33 80.8346 286.763 80.8346C285.197 80.8346 285.98 80.8346 285.667 80.5214L265.308 115.759L221.77 115.759L201.411 80.5214C201.098 80.5214 200.784 80.8346 200.315 80.8346C198.905 80.8346 197.809 79.7383 197.809 78.4855H157.247L137.044 113.566C137.67 114.036 138.14 114.819 138.14 115.759C138.14 117.168 137.044 118.421 135.478 118.421C133.912 118.421 132.972 117.325 132.972 116.072L92.41 116.072L70.9544 153.345L92.41 190.618H135.634L155.994 225.856C156.307 225.856 156.62 225.543 157.09 225.543C158.5 225.543 159.752 226.639 159.752 228.205C159.752 229.771 158.656 230.867 157.09 230.867C155.524 230.867 156.307 230.867 155.994 230.554L135.634 265.791H94.9158C94.9158 267.044 93.6629 268.141 92.41 268.141C91.1572 268.141 89.7476 267.044 89.7476 265.478C89.7476 263.912 90.2175 263.755 90.8439 263.286L70.6412 228.205H30.0791C30.0791 229.458 28.8262 230.554 27.5733 230.554C26.3204 230.554 26.7903 230.554 26.4771 230.241L6.27435 265.322L26.4771 300.402C26.7903 300.402 27.1035 300.089 27.5733 300.089C28.9828 300.089 30.0791 301.185 30.0791 302.438L70.7978 302.438L92.5667 340.181L72.2073 375.419C72.8338 375.888 73.3036 376.671 73.3036 377.611C73.3036 378.551 72.8338 379.334 72.2073 379.804L92.41 414.884H135.634L155.994 450.122C156.307 450.122 156.62 449.809 157.09 449.809C158.5 449.809 159.752 450.905 159.752 452.471C159.752 454.037 158.656 455.133 157.09 455.133C155.524 455.133 156.307 455.133 155.994 454.82L135.791 489.901L157.403 527.331L137.044 562.568C137.67 563.038 138.14 563.821 138.14 564.76C138.14 566.17 137.044 567.423 135.478 567.423C133.912 567.423 132.972 566.327 132.972 565.074H92.2534L70.4846 527.331L90.8439 492.093C90.2175 491.623 89.7476 490.84 89.7476 489.901C89.7476 488.961 90.2175 488.178 90.8439 487.708L70.6412 452.628L27.73 452.628L7.52722 487.708C8.15366 488.178 8.6235 488.961 8.6235 489.901C8.6235 490.84 8.15366 491.623 7.52722 492.093L27.8866 527.331L7.52722 562.568C8.15366 563.038 8.6235 563.821 8.6235 564.76C8.6235 566.17 7.52722 567.423 5.96112 567.423C4.39502 567.423 3.45538 566.327 3.45538 565.074H-37.1067L-58.7189 602.504H-99.4376C-99.4376 603.756 -100.69 604.853 -101.943 604.853C-103.196 604.853 -102.726 604.853 -103.04 604.539L-123.242 639.62L-101.63 677.05L-121.99 712.287C-121.363 712.757 -120.893 713.54 -120.893 714.48C-120.893 715.889 -121.99 717.142 -123.556 717.142C-125.122 717.142 -126.061 716.046 -126.061 714.793H-166.623L-186.826 749.874C-186.2 750.344 -185.73 751.127 -185.73 752.066C-185.73 753.006 -186.2 753.789 -186.826 754.259L-166.467 789.496L-188.236 827.239L-231.773 827.239L-252.133 792.002V790.906ZM7.21399 42.1519C6.90076 42.1519 6.58762 42.4651 6.1178 42.4651C4.70828 42.4651 3.61197 41.3688 3.61197 40.1159H-36.95L-58.4057 77.3892L-38.203 112.47C-37.8898 112.47 -37.5765 112.157 -37.1067 112.157C-35.6972 112.157 -34.6009 113.253 -34.6009 114.506L5.96112 114.506L8.78009 109.651L27.5733 77.2326L7.37064 42.1519H7.21399ZM201.881 4.722C201.567 4.722 201.254 5.03522 200.784 5.03522C199.375 5.03522 198.279 3.93895 198.279 2.68607L157.717 2.68607L138.923 35.261L137.514 37.7668C138.14 38.2366 138.61 39.0197 138.61 39.9593C138.61 40.899 138.14 41.682 137.514 42.1519L147.067 58.5959L157.873 77.2326H198.435C198.435 75.9797 199.688 74.8834 200.941 74.8834C202.194 74.8834 201.724 74.8834 202.037 75.1966L222.24 40.1159L202.037 5.03522L201.881 4.722ZM202.194 79.4251L222.397 114.506L265.308 114.506L285.511 79.4251C284.884 78.9553 284.414 78.1722 284.414 77.2326C284.414 76.2929 284.884 75.5099 285.511 75.04L265.308 39.9593L222.397 39.9593L202.194 75.04C202.82 75.5099 203.29 76.2929 203.29 77.2326C203.29 78.1722 202.82 78.9553 202.194 79.4251ZM133.285 114.506C133.285 113.253 134.538 112.157 135.791 112.157C137.044 112.157 136.574 112.157 136.887 112.47L157.09 77.3892L146.284 58.7526L136.731 42.3085C136.418 42.3085 136.104 42.6217 135.634 42.6217C134.225 42.6217 133.129 41.5254 133.129 40.2725H92.5667L72.3639 75.3533C72.9904 75.8231 73.4602 76.6061 73.4602 77.5458C73.4602 78.4855 72.9904 79.2685 72.3639 79.7383L90.0609 110.277L92.7233 114.819L133.285 114.819V114.506ZM70.9544 151.936L92.41 114.662L72.2073 79.5817C71.8941 79.5817 71.5809 79.8949 71.111 79.8949C69.7015 79.8949 68.6052 78.7987 68.6052 77.5458H28.0432L6.58759 114.819L26.7903 149.9C27.1035 149.9 27.4167 149.587 27.8866 149.587C29.2961 149.587 30.3924 150.683 30.3924 151.936H70.9544ZM-122.459 192.028C-122.773 192.028 -123.086 192.341 -123.556 192.341C-124.965 192.341 -126.061 191.245 -126.061 189.992H-166.623L-186.826 225.073C-186.2 225.543 -185.73 226.326 -185.73 227.265C-185.73 228.205 -186.2 228.988 -186.826 229.458L-166.623 264.539H-126.061C-126.061 263.286 -124.809 262.189 -123.556 262.189C-122.303 262.189 -122.773 262.189 -122.459 262.503L-105.859 233.843L-102.1 227.422L-122.303 192.341L-122.459 192.028ZM70.9544 152.406H30.3924C30.3924 153.658 29.1394 154.755 27.8866 154.755C26.6337 154.755 27.1035 154.755 26.7903 154.441L6.58759 189.522L17.3936 208.159L26.9469 224.603C27.2602 224.603 27.5734 224.29 28.0432 224.29C29.4527 224.29 30.549 225.386 30.549 226.639H71.111L92.5667 189.366L71.111 152.092L70.9544 152.406ZM91.4704 262.189C91.7836 262.189 92.0968 261.876 92.5667 261.876C93.9762 261.876 95.0724 262.972 95.0724 264.225H135.634L155.837 229.145C155.211 228.675 154.741 227.892 154.741 226.952C154.741 226.012 155.211 225.229 155.837 224.759L135.634 189.679H92.7233L91.9402 190.932L71.2676 226.795L91.4704 261.876V262.189ZM6.1178 264.225L26.3205 229.145C25.694 228.675 25.2242 227.892 25.2242 226.952C25.2242 226.012 25.694 225.229 26.3205 224.759L16.7673 208.315L5.96112 189.679H-36.95L-57.1528 224.759C-56.5264 225.229 -56.0565 226.012 -56.0565 226.952C-56.0565 227.892 -56.5264 228.675 -57.1528 229.145L-38.6728 261.093L-36.95 264.225H5.96112H6.1178ZM-57.6226 229.458C-57.9359 229.458 -58.2491 229.771 -58.7189 229.771C-60.1284 229.771 -61.2246 228.675 -61.2246 227.422L-101.787 227.422L-121.99 262.503C-121.363 262.972 -120.893 263.755 -120.893 264.695C-120.893 265.635 -121.363 266.418 -121.99 266.888L-101.787 301.968H-58.8755L-48.0694 283.332L-37.2633 264.695L-57.4661 229.614L-57.6226 229.458ZM26.3205 299.776L6.1178 264.695H-36.7935L-47.5996 283.332L-58.4057 301.968L-38.203 337.049C-37.8898 337.049 -37.5765 336.736 -37.1067 336.736C-35.6972 336.736 -34.6009 337.832 -34.6009 339.085H5.96112L16.7673 320.448L26.3205 304.004C25.694 303.534 25.2242 302.751 25.2242 301.812C25.2242 300.872 25.694 300.089 26.3205 299.619V299.776ZM68.4487 376.515C68.4487 375.262 69.7015 374.166 70.9544 374.166C72.2073 374.166 71.7375 374.166 72.0507 374.479L92.2534 339.398L70.7978 302.125L30.2357 302.125C30.2357 303.378 28.9829 304.474 27.73 304.474C26.4771 304.474 26.9469 304.474 26.6337 304.161L17.0805 320.605L6.27435 339.242L27.73 376.515L68.2921 376.515H68.4487ZM95.229 489.274C95.229 490.527 93.9762 491.623 92.7233 491.623C91.4704 491.623 91.9402 491.623 91.627 491.31L71.4243 526.391L92.8798 563.664H133.442C133.442 562.411 134.695 561.315 135.948 561.315C137.201 561.315 136.731 561.315 137.044 561.628L157.247 526.548L135.791 489.274H95.229ZM-123.712 414.415H-164.274C-164.274 415.667 -165.527 416.764 -166.78 416.764C-168.033 416.764 -167.563 416.764 -167.876 416.451L-188.079 451.531L-166.623 488.804H-126.061C-126.061 487.552 -124.809 486.455 -123.556 486.455C-122.303 486.455 -122.773 486.455 -122.459 486.769L-112.906 470.324L-102.1 451.688L-123.556 414.415H-123.712ZM72.0507 379.177C71.7375 379.177 71.4242 379.49 70.9544 379.49C69.5449 379.49 68.4487 378.394 68.4487 377.141L27.8866 377.141L7.6839 412.222C8.31033 412.692 8.78009 413.475 8.78009 414.415C8.78009 415.354 8.31033 416.137 7.6839 416.607L17.2371 433.051L28.0432 451.688L70.9544 451.688L92.41 414.415L72.2073 379.334L72.0507 379.177ZM91.4704 486.769C91.7836 486.612 92.0968 486.455 92.5667 486.455C93.9762 486.455 95.0724 487.552 95.0724 488.804H135.634L155.837 453.724C155.211 453.254 154.741 452.471 154.741 451.531C154.741 450.592 155.211 449.809 155.837 449.339L135.634 414.258H92.7233L91.4704 416.294L71.111 451.375L91.3137 486.455L91.4704 486.769ZM3.61197 488.804C3.61197 487.552 4.8649 486.455 6.1178 486.455C7.37067 486.455 6.90076 486.455 7.21399 486.769L27.4167 451.688L16.6106 433.051L7.0574 416.607C6.7442 416.607 6.43094 416.92 5.96112 416.92C4.55164 416.92 3.45538 415.824 3.45538 414.571H-37.1067L-57.3094 449.652C-56.683 450.122 -56.2132 450.905 -56.2132 451.844C-56.2132 452.784 -56.683 453.567 -57.3094 454.037L-41.1786 481.914L-36.95 489.118H3.61197V488.804ZM-57.6226 454.037C-57.9359 454.194 -58.2491 454.35 -58.7189 454.35C-60.1284 454.35 -61.2246 453.254 -61.2246 452.001H-101.787L-112.593 470.638L-122.146 487.082C-121.52 487.552 -121.05 488.335 -121.05 489.274C-121.05 490.214 -121.52 490.997 -122.146 491.467L-101.943 526.548H-61.3813C-61.3813 525.295 -60.1284 524.198 -58.8755 524.198C-57.6226 524.198 -58.0925 524.198 -57.7793 524.512L-48.226 508.068L-37.42 489.431L-57.6226 454.35V454.037ZM3.61197 563.821C3.61197 562.568 4.8649 561.472 6.1178 561.472C7.37067 561.472 6.90076 561.472 7.21399 561.785L27.4167 526.704L7.21399 491.623C6.90076 491.623 6.58762 491.937 6.1178 491.937C4.70828 491.937 3.61197 490.84 3.61197 489.588H-36.95L-47.7562 508.224L-57.3094 524.668C-56.683 525.138 -56.2132 525.921 -56.2132 526.861C-56.2132 527.8 -56.683 528.583 -57.3094 529.053L-47.7562 545.497L-36.95 564.134H3.61197V563.821ZM-58.8755 601.251L-37.42 563.977L-48.226 545.341L-57.7793 528.897C-58.0925 528.897 -58.4057 529.21 -58.8755 529.21C-60.285 529.21 -61.3813 528.114 -61.3813 526.861H-101.943L-123.399 564.134L-112.593 582.771L-103.04 599.215C-102.726 599.215 -102.413 598.902 -101.943 598.902C-100.534 598.902 -99.4376 599.998 -99.4376 601.251H-58.8755ZM-123.712 638.681L-103.509 603.6C-104.136 603.13 -104.606 602.347 -104.606 601.407C-104.606 600.468 -104.136 599.685 -103.509 599.215L-113.063 582.771L-123.869 564.134H-166.78L-188.236 601.407L-168.033 636.488C-167.72 636.488 -167.406 636.175 -166.937 636.175C-165.527 636.175 -164.431 637.271 -164.431 638.524H-123.869L-123.712 638.681ZM-126.061 713.54C-126.061 712.287 -124.809 711.191 -123.556 711.191C-122.303 711.191 -122.773 711.191 -122.459 711.504L-102.257 676.424L-123.712 639.15H-164.274C-164.274 640.403 -165.527 641.5 -166.78 641.5C-168.033 641.5 -167.563 641.5 -167.876 641.186L-188.079 676.267L-174.297 700.228L-166.623 713.54H-126.061ZM-190.898 750.97C-190.898 749.717 -189.645 748.621 -188.392 748.621C-187.139 748.621 -187.609 748.621 -187.296 748.934L-167.093 713.854L-184.947 682.845L-188.549 676.58L-229.111 676.58C-229.111 677.833 -230.364 678.929 -231.617 678.929C-232.87 678.929 -232.4 678.929 -232.713 678.616L-252.916 713.697L-231.46 750.97L-190.898 750.97ZM-188.549 825.83L-167.093 788.557L-187.296 753.476C-187.609 753.476 -187.922 753.789 -188.392 753.789C-189.802 753.789 -190.898 752.693 -190.898 751.44L-231.46 751.44L-251.663 786.521C-251.036 786.991 -250.567 787.774 -250.567 788.713C-250.567 789.653 -251.036 790.436 -251.663 790.906L-231.46 825.986L-188.549 825.986V825.83Z" fill="#333333"/>
</g>
</svg>
